<?xml version="1.0" encoding="UTF-8"?>
<svg id="_Слой_1" data-name="Слой 1" xmlns="http://www.w3.org/2000/svg" viewBox="0 0 5852.68 2571.02">
  <defs>
    <style>
      .cls-1 {
        fill: #1d1d1b;
        stroke-width: 0px;
      }
    </style>
  </defs>
  <g>
    <rect class="cls-1" x="88.68" y="479" width="36" height="36"/>
    <rect class="cls-1" x="52.68" y="586" width="36" height="36"/>
    <rect class="cls-1" x="338.68" y="586" width="36" height="36"/>
    <rect class="cls-1" x="950.68" y="623" width="36" height="36"/>
    <rect class="cls-1" x="1022.68" y="551" width="36" height="36"/>
    <rect class="cls-1" x="1274.68" y="515" width="36" height="36"/>
    <rect class="cls-1" x="1310.68" y="623" width="36" height="36"/>
    <rect class="cls-1" x="1454.68" y="479" width="36" height="36"/>
    <rect class="cls-1" x="1634.68" y="515" width="36" height="36"/>
    <rect class="cls-1" x="1850.68" y="479" width="36" height="36"/>
    <rect class="cls-1" x="2030.68" y="587" width="36" height="36"/>
    <rect class="cls-1" x="2102.68" y="551" width="36" height="36"/>
    <rect class="cls-1" x="2176.68" y="479" width="36" height="36"/>
    <rect class="cls-1" x="1886.68" y="551" width="36" height="36"/>
    <rect class="cls-1" x="1742.68" y="551" width="36" height="36"/>
    <rect class="cls-1" x="1562.68" y="623" width="36" height="36"/>
    <rect class="cls-1" x="806.68" y="479" width="36" height="36"/>
    <rect class="cls-1" x="662.68" y="515" width="36" height="36"/>
  </g>
  <g>
    <rect class="cls-1" x="160.68" y="479" width="36" height="36"/>
    <rect class="cls-1" x="124.68" y="479" width="36" height="36"/>
    <rect class="cls-1" x="266.68" y="550" width="36" height="36"/>
    <rect class="cls-1" x="52.68" y="550" width="36" height="36"/>
    <rect class="cls-1" x="88.68" y="586" width="36" height="36"/>
    <rect class="cls-1" x="230.68" y="621" width="36" height="36"/>
    <rect class="cls-1" x="338.68" y="514" width="36" height="36"/>
    <rect class="cls-1" x="374.68" y="551" width="36" height="36"/>
    <rect class="cls-1" x="446.68" y="479" width="36" height="36"/>
    <rect class="cls-1" x="518.68" y="515" width="36" height="36"/>
    <rect class="cls-1" x="626.68" y="479" width="36" height="36"/>
    <rect class="cls-1" x="698.68" y="551" width="36" height="36"/>
    <rect class="cls-1" x="806.68" y="515" width="36" height="36"/>
    <rect class="cls-1" x="842.68" y="551" width="36" height="36"/>
    <rect class="cls-1" x="842.68" y="587" width="36" height="36"/>
    <rect class="cls-1" x="914.68" y="479" width="36" height="36"/>
    <rect class="cls-1" x="914.68" y="587" width="36" height="36"/>
    <rect class="cls-1" x="1058.68" y="515" width="36" height="36"/>
    <rect class="cls-1" x="1094.68" y="479" width="36" height="36"/>
    <rect class="cls-1" x="1094.68" y="623" width="36" height="36"/>
    <rect class="cls-1" x="1130.68" y="587" width="36" height="36"/>
    <rect class="cls-1" x="1130.68" y="515" width="36" height="36"/>
    <rect class="cls-1" x="1274.68" y="479" width="36" height="36"/>
    <rect class="cls-1" x="1274.68" y="587" width="36" height="36"/>
    <rect class="cls-1" x="1346.68" y="479" width="36" height="36"/>
    <rect class="cls-1" x="1490.68" y="479" width="36" height="36"/>
    <rect class="cls-1" x="1418.68" y="587" width="36" height="36"/>
    <rect class="cls-1" x="1490.68" y="623" width="36" height="36"/>
    <rect class="cls-1" x="1490.68" y="551" width="36" height="36"/>
    <rect class="cls-1" x="1598.68" y="515" width="36" height="36"/>
    <rect class="cls-1" x="1814.68" y="479" width="36" height="36"/>
    <rect class="cls-1" x="1922.68" y="515" width="36" height="36"/>
    <rect class="cls-1" x="2030.68" y="515" width="36" height="36"/>
    <rect class="cls-1" x="1994.68" y="551" width="36" height="36"/>
    <rect class="cls-1" x="2102.68" y="587" width="36" height="36"/>
    <rect class="cls-1" x="2174.68" y="551" width="36" height="36"/>
    <rect class="cls-1" x="2210.68" y="623" width="36" height="36"/>
    <rect class="cls-1" x="2210.68" y="587" width="36" height="36"/>
    <rect class="cls-1" x="2210.68" y="515" width="36" height="36"/>
    <rect class="cls-1" x="1778.68" y="551" width="36" height="36"/>
    <rect class="cls-1" x="1706.68" y="551" width="36" height="36"/>
    <rect class="cls-1" x="1742.68" y="587" width="36" height="36"/>
    <rect class="cls-1" x="1778.68" y="623" width="36" height="36"/>
    <rect class="cls-1" x="1850.68" y="623" width="36" height="36"/>
    <rect class="cls-1" x="1598.68" y="550" width="36" height="36"/>
    <rect class="cls-1" x="1634.68" y="587" width="36" height="36"/>
    <rect class="cls-1" x="950.68" y="515" width="36" height="36"/>
    <rect class="cls-1" x="518.68" y="622" width="36" height="36"/>
    <rect class="cls-1" x="482.68" y="622" width="36" height="36"/>
    <rect class="cls-1" x="410.68" y="622" width="36" height="36"/>
  </g>
  <g>
    <rect class="cls-1" x="196.68" y="479" width="36" height="36"/>
    <rect class="cls-1" x="52.68" y="514" width="36" height="36"/>
    <rect class="cls-1" x="88.68" y="621" width="36" height="36"/>
    <rect class="cls-1" x="518.68" y="479" width="36" height="36"/>
    <rect class="cls-1" x="662.68" y="479" width="36" height="36"/>
    <rect class="cls-1" x="662.68" y="551" width="36" height="36"/>
    <rect class="cls-1" x="806.68" y="623" width="36" height="36"/>
    <rect class="cls-1" x="842.68" y="479" width="36" height="36"/>
    <rect class="cls-1" x="914.68" y="515" width="36" height="36"/>
    <rect class="cls-1" x="986.68" y="587" width="36" height="36"/>
    <rect class="cls-1" x="1094.68" y="515" width="36" height="36"/>
    <rect class="cls-1" x="1202.68" y="479" width="36" height="36"/>
    <rect class="cls-1" x="1274.68" y="623" width="36" height="36"/>
    <rect class="cls-1" x="1310.68" y="515" width="36" height="36"/>
    <rect class="cls-1" x="1526.68" y="479" width="36" height="36"/>
    <rect class="cls-1" x="1454.68" y="587" width="36" height="36"/>
    <rect class="cls-1" x="1742.68" y="515" width="36" height="36"/>
    <rect class="cls-1" x="1886.68" y="479" width="36" height="36"/>
    <rect class="cls-1" x="1994.68" y="479" width="36" height="36"/>
    <rect class="cls-1" x="2030.68" y="551" width="36" height="36"/>
    <rect class="cls-1" x="2030.68" y="623" width="36" height="36"/>
    <rect class="cls-1" x="2174.68" y="515" width="36" height="36"/>
    <rect class="cls-1" x="2210.68" y="479" width="36" height="36"/>
    <rect class="cls-1" x="1850.68" y="551" width="36" height="36"/>
    <rect class="cls-1" x="1886.68" y="623" width="36" height="36"/>
    <rect class="cls-1" x="1598.68" y="551" width="36" height="36"/>
    <rect class="cls-1" x="1634.68" y="623" width="36" height="36"/>
    <rect class="cls-1" x="1526.68" y="623" width="36" height="36"/>
    <rect class="cls-1" x="554.68" y="586" width="36" height="36"/>
    <rect class="cls-1" x="374.68" y="515" width="36" height="36"/>
  </g>
  <g>
    <rect class="cls-1" x="52.68" y="479" width="36" height="36"/>
    <rect class="cls-1" x="232.68" y="479" width="36" height="36"/>
    <rect class="cls-1" x="266.68" y="479" width="36" height="36"/>
    <rect class="cls-1" x="230.68" y="514" width="36" height="36"/>
    <rect class="cls-1" x="266.68" y="514" width="36" height="36"/>
    <rect class="cls-1" x="230.68" y="550" width="36" height="36"/>
    <rect class="cls-1" x="230.68" y="586" width="36" height="36"/>
    <rect class="cls-1" x="88.68" y="514" width="36" height="36"/>
    <rect class="cls-1" x="52.68" y="621" width="36" height="36"/>
    <rect class="cls-1" x="266.68" y="586" width="36" height="36"/>
    <rect class="cls-1" x="266.68" y="621" width="36" height="36"/>
    <rect class="cls-1" x="338.68" y="550" width="36" height="36"/>
    <rect class="cls-1" x="374.68" y="479" width="36" height="36"/>
    <rect class="cls-1" x="410.68" y="479" width="36" height="36"/>
    <rect class="cls-1" x="482.68" y="479" width="36" height="36"/>
    <rect class="cls-1" x="554.68" y="514" width="36" height="36"/>
    <rect class="cls-1" x="626.68" y="515" width="36" height="36"/>
    <rect class="cls-1" x="734.68" y="551" width="36" height="36"/>
    <rect class="cls-1" x="770.68" y="551" width="36" height="36"/>
    <rect class="cls-1" x="806.68" y="551" width="36" height="36"/>
    <rect class="cls-1" x="806.68" y="587" width="36" height="36"/>
    <rect class="cls-1" x="842.68" y="623" width="36" height="36"/>
    <rect class="cls-1" x="914.68" y="551" width="36" height="36"/>
    <rect class="cls-1" x="914.68" y="623" width="36" height="36"/>
    <rect class="cls-1" x="1094.68" y="551" width="36" height="36"/>
    <rect class="cls-1" x="1094.68" y="587" width="36" height="36"/>
    <rect class="cls-1" x="1130.68" y="623" width="36" height="36"/>
    <rect class="cls-1" x="1130.68" y="551" width="36" height="36"/>
    <rect class="cls-1" x="1238.68" y="479" width="36" height="36"/>
    <rect class="cls-1" x="1274.68" y="551" width="36" height="36"/>
    <rect class="cls-1" x="1310.68" y="587" width="36" height="36"/>
    <rect class="cls-1" x="1310.68" y="551" width="36" height="36"/>
    <rect class="cls-1" x="1310.68" y="479" width="36" height="36"/>
    <rect class="cls-1" x="1382.68" y="479" width="36" height="36"/>
    <rect class="cls-1" x="1562.68" y="479" width="36" height="36"/>
    <rect class="cls-1" x="1598.68" y="479" width="36" height="36"/>
    <rect class="cls-1" x="1454.68" y="551" width="36" height="36"/>
    <rect class="cls-1" x="1454.68" y="623" width="36" height="36"/>
    <rect class="cls-1" x="1526.68" y="551" width="36" height="36"/>
    <rect class="cls-1" x="1562.68" y="551" width="36" height="36"/>
    <rect class="cls-1" x="1706.68" y="515" width="36" height="36"/>
    <rect class="cls-1" x="1742.68" y="479" width="36" height="36"/>
    <rect class="cls-1" x="1778.68" y="479" width="36" height="36"/>
    <rect class="cls-1" x="1886.68" y="515" width="36" height="36"/>
    <rect class="cls-1" x="1994.68" y="515" width="36" height="36"/>
    <rect class="cls-1" x="2030.68" y="479" width="36" height="36"/>
    <rect class="cls-1" x="1994.68" y="587" width="36" height="36"/>
    <rect class="cls-1" x="1994.68" y="623" width="36" height="36"/>
    <rect class="cls-1" x="2066.68" y="515" width="36" height="36"/>
    <rect class="cls-1" x="2138.68" y="515" width="36" height="36"/>
    <rect class="cls-1" x="2174.68" y="587" width="36" height="36"/>
    <rect class="cls-1" x="2174.68" y="623" width="36" height="36"/>
    <rect class="cls-1" x="2210.68" y="551" width="36" height="36"/>
    <rect class="cls-1" x="1922.68" y="551" width="36" height="36"/>
    <rect class="cls-1" x="1814.68" y="551" width="36" height="36"/>
    <rect class="cls-1" x="1706.68" y="587" width="36" height="36"/>
    <rect class="cls-1" x="1742.68" y="623" width="36" height="36"/>
    <rect class="cls-1" x="1814.68" y="623" width="36" height="36"/>
    <rect class="cls-1" x="1598.68" y="587" width="36" height="36"/>
    <rect class="cls-1" x="1598.68" y="623" width="36" height="36"/>
    <rect class="cls-1" x="1634.68" y="551" width="36" height="36"/>
    <rect class="cls-1" x="1130.68" y="479" width="36" height="36"/>
    <rect class="cls-1" x="950.68" y="587" width="36" height="36"/>
    <rect class="cls-1" x="950.68" y="551" width="36" height="36"/>
    <rect class="cls-1" x="950.68" y="479" width="36" height="36"/>
    <rect class="cls-1" x="842.68" y="515" width="36" height="36"/>
    <rect class="cls-1" x="554.68" y="550" width="36" height="36"/>
    <rect class="cls-1" x="518.68" y="586" width="36" height="36"/>
    <rect class="cls-1" x="374.68" y="587" width="36" height="36"/>
    <rect class="cls-1" x="446.68" y="622" width="36" height="36"/>
    <rect class="cls-1" x="374.68" y="622" width="36" height="36"/>
    <rect class="cls-1" x="518.68" y="551" width="36" height="36"/>
    <rect class="cls-1" x="88.68" y="550" width="36" height="36"/>
  </g>
</svg>