<?xml version="1.0" encoding="UTF-8"?>
<svg id="_Слой_1" data-name="Слой 1" xmlns="http://www.w3.org/2000/svg" viewBox="0 0 2194 180">
  <defs>
    <style>
      .cls-1 {
        fill: #1d1d1b;
        stroke-width: 0px;
      }
    </style>
  </defs>
  <g>
    <rect class="cls-1" x="36" width="36" height="36"/>
    <rect class="cls-1" y="107" width="36" height="36"/>
    <rect class="cls-1" x="286" y="107" width="36" height="36"/>
    <rect class="cls-1" x="898" y="144" width="36" height="36"/>
    <rect class="cls-1" x="970" y="72" width="36" height="36"/>
    <rect class="cls-1" x="1222" y="36" width="36" height="36"/>
    <rect class="cls-1" x="1258" y="144" width="36" height="36"/>
    <rect class="cls-1" x="1402" width="36" height="36"/>
    <rect class="cls-1" x="1582" y="36" width="36" height="36"/>
    <rect class="cls-1" x="1798" width="36" height="36"/>
    <rect class="cls-1" x="1978" y="108" width="36" height="36"/>
    <rect class="cls-1" x="2050" y="72" width="36" height="36"/>
    <rect class="cls-1" x="2124" width="36" height="36"/>
    <rect class="cls-1" x="1834" y="72" width="36" height="36"/>
    <rect class="cls-1" x="1690" y="72" width="36" height="36"/>
    <rect class="cls-1" x="1510" y="144" width="36" height="36"/>
    <rect class="cls-1" x="754" width="36" height="36"/>
    <rect class="cls-1" x="610" y="36" width="36" height="36"/>
  </g>
  <g>
    <rect class="cls-1" x="108" width="36" height="36"/>
    <rect class="cls-1" x="72" width="36" height="36"/>
    <rect class="cls-1" x="214" y="71" width="36" height="36"/>
    <rect class="cls-1" y="71" width="36" height="36"/>
    <rect class="cls-1" x="36" y="107" width="36" height="36"/>
    <rect class="cls-1" x="178" y="142" width="36" height="36"/>
    <rect class="cls-1" x="286" y="35" width="36" height="36"/>
    <rect class="cls-1" x="322" y="72" width="36" height="36"/>
    <rect class="cls-1" x="394" width="36" height="36"/>
    <rect class="cls-1" x="466" y="36" width="36" height="36"/>
    <rect class="cls-1" x="574" width="36" height="36"/>
    <rect class="cls-1" x="646" y="72" width="36" height="36"/>
    <rect class="cls-1" x="754" y="36" width="36" height="36"/>
    <rect class="cls-1" x="790" y="72" width="36" height="36"/>
    <rect class="cls-1" x="790" y="108" width="36" height="36"/>
    <rect class="cls-1" x="862" width="36" height="36"/>
    <rect class="cls-1" x="862" y="108" width="36" height="36"/>
    <rect class="cls-1" x="1006" y="36" width="36" height="36"/>
    <rect class="cls-1" x="1042" width="36" height="36"/>
    <rect class="cls-1" x="1042" y="144" width="36" height="36"/>
    <rect class="cls-1" x="1078" y="108" width="36" height="36"/>
    <rect class="cls-1" x="1078" y="36" width="36" height="36"/>
    <rect class="cls-1" x="1222" width="36" height="36"/>
    <rect class="cls-1" x="1222" y="108" width="36" height="36"/>
    <rect class="cls-1" x="1294" width="36" height="36"/>
    <rect class="cls-1" x="1438" width="36" height="36"/>
    <rect class="cls-1" x="1366" y="108" width="36" height="36"/>
    <rect class="cls-1" x="1438" y="144" width="36" height="36"/>
    <rect class="cls-1" x="1438" y="72" width="36" height="36"/>
    <rect class="cls-1" x="1546" y="36" width="36" height="36"/>
    <rect class="cls-1" x="1762" width="36" height="36"/>
    <rect class="cls-1" x="1870" y="36" width="36" height="36"/>
    <rect class="cls-1" x="1978" y="36" width="36" height="36"/>
    <rect class="cls-1" x="1942" y="72" width="36" height="36"/>
    <rect class="cls-1" x="2050" y="108" width="36" height="36"/>
    <rect class="cls-1" x="2122" y="72" width="36" height="36"/>
    <rect class="cls-1" x="2158" y="144" width="36" height="36"/>
    <rect class="cls-1" x="2158" y="108" width="36" height="36"/>
    <rect class="cls-1" x="2158" y="36" width="36" height="36"/>
    <rect class="cls-1" x="1726" y="72" width="36" height="36"/>
    <rect class="cls-1" x="1654" y="72" width="36" height="36"/>
    <rect class="cls-1" x="1690" y="108" width="36" height="36"/>
    <rect class="cls-1" x="1726" y="144" width="36" height="36"/>
    <rect class="cls-1" x="1798" y="144" width="36" height="36"/>
    <rect class="cls-1" x="1546" y="71" width="36" height="36"/>
    <rect class="cls-1" x="1582" y="108" width="36" height="36"/>
    <rect class="cls-1" x="898" y="36" width="36" height="36"/>
    <rect class="cls-1" x="466" y="143" width="36" height="36"/>
    <rect class="cls-1" x="430" y="143" width="36" height="36"/>
    <rect class="cls-1" x="358" y="143" width="36" height="36"/>
  </g>
  <g>
    <rect class="cls-1" x="144" width="36" height="36"/>
    <rect class="cls-1" y="35" width="36" height="36"/>
    <rect class="cls-1" x="36" y="142" width="36" height="36"/>
    <rect class="cls-1" x="466" width="36" height="36"/>
    <rect class="cls-1" x="610" width="36" height="36"/>
    <rect class="cls-1" x="610" y="72" width="36" height="36"/>
    <rect class="cls-1" x="754" y="144" width="36" height="36"/>
    <rect class="cls-1" x="790" width="36" height="36"/>
    <rect class="cls-1" x="862" y="36" width="36" height="36"/>
    <rect class="cls-1" x="934" y="108" width="36" height="36"/>
    <rect class="cls-1" x="1042" y="36" width="36" height="36"/>
    <rect class="cls-1" x="1150" width="36" height="36"/>
    <rect class="cls-1" x="1222" y="144" width="36" height="36"/>
    <rect class="cls-1" x="1258" y="36" width="36" height="36"/>
    <rect class="cls-1" x="1474" width="36" height="36"/>
    <rect class="cls-1" x="1402" y="108" width="36" height="36"/>
    <rect class="cls-1" x="1690" y="36" width="36" height="36"/>
    <rect class="cls-1" x="1834" width="36" height="36"/>
    <rect class="cls-1" x="1942" width="36" height="36"/>
    <rect class="cls-1" x="1978" y="72" width="36" height="36"/>
    <rect class="cls-1" x="1978" y="144" width="36" height="36"/>
    <rect class="cls-1" x="2122" y="36" width="36" height="36"/>
    <rect class="cls-1" x="2158" width="36" height="36"/>
    <rect class="cls-1" x="1798" y="72" width="36" height="36"/>
    <rect class="cls-1" x="1834" y="144" width="36" height="36"/>
    <rect class="cls-1" x="1546" y="72" width="36" height="36"/>
    <rect class="cls-1" x="1582" y="144" width="36" height="36"/>
    <rect class="cls-1" x="1474" y="144" width="36" height="36"/>
    <rect class="cls-1" x="502" y="107" width="36" height="36"/>
    <rect class="cls-1" x="322" y="36" width="36" height="36"/>
  </g>
  <g>
    <rect class="cls-1" width="36" height="36"/>
    <rect class="cls-1" x="180" width="36" height="36"/>
    <rect class="cls-1" x="214" width="36" height="36"/>
    <rect class="cls-1" x="178" y="35" width="36" height="36"/>
    <rect class="cls-1" x="214" y="35" width="36" height="36"/>
    <rect class="cls-1" x="178" y="71" width="36" height="36"/>
    <rect class="cls-1" x="178" y="107" width="36" height="36"/>
    <rect class="cls-1" x="36" y="35" width="36" height="36"/>
    <rect class="cls-1" y="142" width="36" height="36"/>
    <rect class="cls-1" x="214" y="107" width="36" height="36"/>
    <rect class="cls-1" x="214" y="142" width="36" height="36"/>
    <rect class="cls-1" x="286" y="71" width="36" height="36"/>
    <rect class="cls-1" x="322" width="36" height="36"/>
    <rect class="cls-1" x="358" width="36" height="36"/>
    <rect class="cls-1" x="430" width="36" height="36"/>
    <rect class="cls-1" x="502" y="35" width="36" height="36"/>
    <rect class="cls-1" x="574" y="36" width="36" height="36"/>
    <rect class="cls-1" x="682" y="72" width="36" height="36"/>
    <rect class="cls-1" x="718" y="72" width="36" height="36"/>
    <rect class="cls-1" x="754" y="72" width="36" height="36"/>
    <rect class="cls-1" x="754" y="108" width="36" height="36"/>
    <rect class="cls-1" x="790" y="144" width="36" height="36"/>
    <rect class="cls-1" x="862" y="72" width="36" height="36"/>
    <rect class="cls-1" x="862" y="144" width="36" height="36"/>
    <rect class="cls-1" x="1042" y="72" width="36" height="36"/>
    <rect class="cls-1" x="1042" y="108" width="36" height="36"/>
    <rect class="cls-1" x="1078" y="144" width="36" height="36"/>
    <rect class="cls-1" x="1078" y="72" width="36" height="36"/>
    <rect class="cls-1" x="1186" width="36" height="36"/>
    <rect class="cls-1" x="1222" y="72" width="36" height="36"/>
    <rect class="cls-1" x="1258" y="108" width="36" height="36"/>
    <rect class="cls-1" x="1258" y="72" width="36" height="36"/>
    <rect class="cls-1" x="1258" width="36" height="36"/>
    <rect class="cls-1" x="1330" width="36" height="36"/>
    <rect class="cls-1" x="1510" width="36" height="36"/>
    <rect class="cls-1" x="1546" width="36" height="36"/>
    <rect class="cls-1" x="1402" y="72" width="36" height="36"/>
    <rect class="cls-1" x="1402" y="144" width="36" height="36"/>
    <rect class="cls-1" x="1474" y="72" width="36" height="36"/>
    <rect class="cls-1" x="1510" y="72" width="36" height="36"/>
    <rect class="cls-1" x="1654" y="36" width="36" height="36"/>
    <rect class="cls-1" x="1690" width="36" height="36"/>
    <rect class="cls-1" x="1726" width="36" height="36"/>
    <rect class="cls-1" x="1834" y="36" width="36" height="36"/>
    <rect class="cls-1" x="1942" y="36" width="36" height="36"/>
    <rect class="cls-1" x="1978" width="36" height="36"/>
    <rect class="cls-1" x="1942" y="108" width="36" height="36"/>
    <rect class="cls-1" x="1942" y="144" width="36" height="36"/>
    <rect class="cls-1" x="2014" y="36" width="36" height="36"/>
    <rect class="cls-1" x="2086" y="36" width="36" height="36"/>
    <rect class="cls-1" x="2122" y="108" width="36" height="36"/>
    <rect class="cls-1" x="2122" y="144" width="36" height="36"/>
    <rect class="cls-1" x="2158" y="72" width="36" height="36"/>
    <rect class="cls-1" x="1870" y="72" width="36" height="36"/>
    <rect class="cls-1" x="1762" y="72" width="36" height="36"/>
    <rect class="cls-1" x="1654" y="108" width="36" height="36"/>
    <rect class="cls-1" x="1690" y="144" width="36" height="36"/>
    <rect class="cls-1" x="1762" y="144" width="36" height="36"/>
    <rect class="cls-1" x="1546" y="108" width="36" height="36"/>
    <rect class="cls-1" x="1546" y="144" width="36" height="36"/>
    <rect class="cls-1" x="1582" y="72" width="36" height="36"/>
    <rect class="cls-1" x="1078" width="36" height="36"/>
    <rect class="cls-1" x="898" y="108" width="36" height="36"/>
    <rect class="cls-1" x="898" y="72" width="36" height="36"/>
    <rect class="cls-1" x="898" width="36" height="36"/>
    <rect class="cls-1" x="790" y="36" width="36" height="36"/>
    <rect class="cls-1" x="502" y="71" width="36" height="36"/>
    <rect class="cls-1" x="466" y="107" width="36" height="36"/>
    <rect class="cls-1" x="322" y="108" width="36" height="36"/>
    <rect class="cls-1" x="394" y="143" width="36" height="36"/>
    <rect class="cls-1" x="322" y="143" width="36" height="36"/>
    <rect class="cls-1" x="466" y="72" width="36" height="36"/>
    <rect class="cls-1" x="36" y="71" width="36" height="36"/>
  </g>
</svg>