<svg width="167" height="300" viewBox="0 0 167 300" fill="none" xmlns="http://www.w3.org/2000/svg">
<path d="M39.921 247.306C39.752 246.713 39.9388 246.115 39.7708 245.526C38.5615 245.336 37.3582 245.565 36.1627 245.387C35.9108 244.813 36.1726 244.205 35.9632 243.593C35.7794 243.565 35.569 243.511 35.3585 243.508C34.5998 243.497 33.841 243.508 33.0822 243.5C32.8382 243.497 32.5952 243.458 32.2998 243.43C32.2701 242.812 32.2434 242.241 32.2138 241.637C30.9818 241.435 29.7774 241.666 28.5741 241.494C28.3271 240.929 28.5741 240.323 28.3785 239.701C28.2016 239.672 27.9951 239.626 27.7867 239.607C27.4162 239.572 27.0338 239.663 26.6327 239.499C26.4677 238.282 26.6663 237.049 26.4984 235.769C25.9204 235.734 25.3622 235.701 24.7556 235.665C24.7249 235.428 24.6746 235.212 24.6736 234.995C24.6657 233.664 24.6696 232.333 24.6696 231.001C24.6696 230.679 24.6696 230.357 24.6696 229.981C24.4118 229.938 24.2053 229.891 23.9968 229.871C23.6253 229.837 23.243 229.926 22.8369 229.765C22.8162 229.58 22.7796 229.393 22.7757 229.205C22.6541 224.269 22.7203 205.607 22.8656 204.645C23.3932 204.42 23.981 204.643 24.5639 204.473C24.7763 203.897 24.642 203.278 24.6647 202.675C24.6884 202.061 24.6696 201.445 24.6696 200.789C24.885 200.735 25.0579 200.665 25.2338 200.655C25.6388 200.632 26.0449 200.637 26.4727 200.63C26.6545 199.967 26.528 199.347 26.5863 198.742C26.6416 198.168 26.6574 197.589 26.689 197.047C27.2601 196.692 27.8934 197.057 28.4575 196.655V194.973C29.0701 194.639 29.7053 194.948 30.3169 194.691C30.3317 194.415 30.3475 194.13 30.3613 193.846C30.3752 193.56 30.388 193.273 30.3989 193.026C30.6982 192.786 30.9937 192.87 31.2703 192.857C31.5519 192.844 31.8344 192.854 32.0696 192.854C32.3373 192.546 32.2405 192.241 32.2553 191.959C32.2711 191.669 32.2583 191.379 32.2583 191.046C32.4746 190.993 32.6465 190.923 32.8224 190.913C33.2265 190.889 33.6325 190.894 34.1028 190.886C34.1364 190.25 34.166 189.679 34.1967 189.096C34.7687 188.802 35.402 189.096 36.0145 188.844C36.0402 188.276 36.0649 187.704 36.0926 187.089C36.7269 186.95 37.3256 187.026 37.9184 187.011C38.5151 186.995 39.1118 186.997 39.7234 186.989C39.9734 186.391 39.7422 185.788 39.9249 185.166C40.1018 185.135 40.3093 185.07 40.5167 185.067C41.2755 185.053 42.0343 185.065 42.793 185.057C43.04 185.055 43.286 185.025 43.5923 185.004C43.6239 184.394 43.6526 183.823 43.6852 183.194C43.9559 183.164 44.1989 183.117 44.442 183.115C45.7066 183.106 46.9712 183.109 48.2358 183.108C48.549 183.108 48.8632 183.108 49.2287 183.108C49.2672 182.843 49.3097 182.63 49.3265 182.416C49.3571 182.036 49.2771 181.645 49.4263 181.21C50.024 181.179 50.6139 181.149 51.2481 181.116C51.3133 180.563 51.3726 180.056 51.4408 179.483C52.5908 179.273 53.7438 179.229 54.9165 179.172C55.1388 178.59 54.9273 177.988 55.0943 177.369C55.284 177.338 55.4925 177.276 55.7009 177.273C56.4597 177.261 57.2185 177.271 57.9772 177.264C58.2222 177.262 58.4673 177.23 58.7686 177.209C58.8012 176.594 58.8308 176.023 58.8634 175.396C60.0796 175.21 61.281 175.41 62.4577 175.276C62.6543 174.621 62.6741 172.393 62.4844 171.47C61.9449 171.439 61.3877 171.407 60.7959 171.373C60.7653 171.149 60.7189 170.962 60.7189 170.777C60.7149 166.037 60.7149 161.297 60.7169 156.557C60.7169 156.366 60.7455 156.175 60.7623 155.967C61.3195 155.708 61.9094 155.938 62.4982 155.771C62.5288 155.679 62.6 155.562 62.6 155.446C62.6079 153.141 62.6079 150.836 62.6049 148.531C62.6049 148.408 62.5624 148.284 62.5427 148.174C61.8205 148.011 59.8336 147.997 58.899 148.15C58.6925 148.682 58.9207 149.283 58.7459 149.873C58.4524 150.081 58.0938 149.988 57.7599 149.989C55.0726 149.998 52.3853 149.994 49.698 149.994C48.6231 149.994 47.5482 149.998 46.4732 149.991C46.1966 149.989 45.919 149.956 45.586 149.935C45.5544 149.313 45.5248 148.742 45.4942 148.153C44.8747 147.96 44.273 148.067 43.6812 148.051C43.0489 148.032 42.4166 148.046 41.7843 148.046C41.1866 148.046 40.5879 148.046 39.9981 148.046C39.6868 147.417 39.9941 146.765 39.7323 146.148C39.1761 146.115 38.6198 146.082 38.0004 146.044C37.9697 145.43 37.9401 144.858 37.9114 144.283C37.3315 143.983 36.6933 144.305 36.0896 144.022C36.0778 143.736 36.0669 143.451 36.0531 143.164C36.0392 142.88 36.0224 142.596 36.0037 142.252C35.3961 142.218 34.8388 142.189 34.2727 142.157C34.0178 141.57 34.2747 140.961 34.0791 140.371C33.5466 140.101 32.9143 140.389 32.3057 140.144C32.2751 139.569 32.2444 138.998 32.2108 138.361C31.6151 138.327 31.0569 138.294 30.4858 138.261C30.226 137.689 30.475 137.082 30.2833 136.468C30.1381 136.437 29.9652 136.38 29.7883 136.364C29.3852 136.326 28.9713 136.42 28.5109 136.254C28.4832 135.687 28.4545 135.115 28.4259 134.537C27.8568 134.272 27.264 134.525 26.6673 134.324C26.6377 134.17 26.5764 133.989 26.5744 133.808C26.5636 132.997 26.5734 132.185 26.5655 131.374C26.5636 131.123 26.528 130.872 26.5043 130.565C25.9046 130.53 25.3474 130.499 24.7862 130.466C24.5333 129.874 24.7901 129.267 24.5935 128.681C24.0571 128.413 23.4238 128.704 22.828 128.456C22.6739 127.232 22.8755 125.999 22.7026 124.72C22.1197 124.688 21.5614 124.657 20.9864 124.626C20.778 123.998 20.9015 123.38 20.8807 122.774C20.859 122.16 20.8758 121.545 20.8758 120.937C20.2712 120.61 19.6359 120.919 19.0401 120.659C18.8791 119.448 19.0787 118.215 18.9186 116.993C18.3535 116.737 17.7607 116.998 17.1798 116.791C16.9871 116.245 17.0978 115.671 17.1165 115.04C17.3369 115.002 17.5434 114.947 17.7518 114.934C18.1233 114.909 18.4967 114.91 18.9038 114.9C19.0816 113.621 18.8821 112.389 19.0263 111.203C19.3069 110.965 19.6023 111.051 19.8789 111.037C20.1605 111.024 20.444 111.034 20.7078 111.034C20.9143 110.357 20.937 108.138 20.7562 107.203C19.5885 107.019 18.3851 107.25 17.1897 107.071C16.9397 106.499 17.2005 105.89 16.9921 105.277C16.8093 105.25 16.5988 105.195 16.3884 105.192C15.6296 105.181 14.8709 105.192 14.1121 105.184C13.8671 105.181 13.6231 105.141 13.3296 105.114C13.299 104.497 13.2713 103.926 13.2447 103.378C12.8683 103.162 12.5136 103.244 12.1737 103.243C9.77096 103.234 7.36818 103.238 4.96544 103.234C4.62261 103.234 4.27879 103.218 3.92905 103.21C3.67909 102.604 3.9083 101.999 3.73541 101.413C3.194 101.133 2.55972 101.433 1.95409 101.176C1.93729 100.961 1.90173 100.74 1.90864 100.522C1.91951 100.172 1.84047 99.8114 2.00349 99.4287C2.79881 99.246 3.61982 99.3688 4.43193 99.3475C5.25294 99.3262 6.07592 99.3424 6.89792 99.3424C7.71991 99.3424 8.53401 99.3424 9.36884 99.3424C9.58323 98.6825 9.46962 98.0663 9.48839 97.4623C9.50716 96.8481 9.49234 96.2329 9.49234 95.5771C9.27005 95.5263 9.09715 95.4684 8.9203 95.4512C8.51721 95.4126 8.10324 95.507 7.6389 95.3426C7.61025 94.7791 7.58061 94.2065 7.54801 93.568C6.33675 93.4035 5.13438 93.5873 3.92806 93.4441C3.64254 92.8736 3.94288 92.2228 3.69391 91.6137C2.51032 91.4411 1.30795 91.6554 0.0828637 91.4777C-0.0426086 90.8848 -0.00506584 90.3163 0.0611282 89.7174C0.689478 89.4991 1.32376 89.629 1.9452 89.6057C2.5449 89.5833 3.14658 89.5844 3.74726 89.6057C4.36969 89.627 5.00298 89.5103 5.67974 89.7184V91.4005C5.87437 91.4584 6.01763 91.5376 6.16089 91.5386C7.77326 91.5457 9.38564 91.5427 10.998 91.5376C11.0879 91.5376 11.1768 91.496 11.2598 91.4747C11.4189 90.8097 11.4505 88.9488 11.3231 87.7966C11.0514 87.5692 10.7234 87.6809 10.4171 87.6545C10.1414 87.6311 9.86481 87.6159 9.55755 87.5956C9.39453 86.3246 9.59213 85.0921 9.42417 83.812C8.84324 83.7785 8.28602 83.747 7.70904 83.7135C7.49465 83.0912 7.62309 82.4729 7.60037 81.8679C7.57863 81.2537 7.59543 80.6385 7.59543 80.0466C8.2712 79.8161 8.5755 79.807 9.41824 79.9837C9.60299 80.5247 9.38366 81.1268 9.58126 81.745C10.7589 81.9135 11.9573 81.7237 13.1113 81.8496C13.3711 82.1318 13.2644 82.4384 13.2812 82.7176C13.299 83.0049 13.2852 83.2942 13.2852 83.6343C13.5055 83.681 13.6784 83.7378 13.8552 83.7521C14.2583 83.7845 14.6703 83.7155 15.0892 83.8262C15.2967 84.4079 15.0872 85.0079 15.2345 85.551C15.8885 85.7398 17.4762 85.7794 18.8623 85.6464C19.0945 85.0363 18.9512 84.3855 18.971 83.7521C18.9907 83.144 19.0115 82.5308 18.9315 81.8618C18.3219 81.8283 17.7637 81.7978 17.1897 81.7673C16.9861 81.1359 17.1067 80.5176 17.0849 79.9116C17.0632 79.2984 17.08 78.6832 17.08 78.0781C16.4714 77.7553 15.8351 78.0639 15.2898 77.8233C15.1455 77.0071 15.1455 74.9371 15.2937 74.0914C15.8322 73.9666 16.3864 74.0133 16.9763 74.062C17.1985 74.6468 16.9802 75.2488 17.1482 75.8528C17.6856 76.1137 18.316 75.8437 18.9275 76.066C18.9443 76.3584 18.9631 76.6416 18.9759 76.9259C18.9897 77.2122 18.9986 77.4985 19.0105 77.8071C19.5954 78.0314 20.1812 77.8182 20.773 77.9878C20.9953 78.5299 20.774 79.1309 20.9469 79.7512C21.0892 79.7837 21.2611 79.8436 21.437 79.8578C21.841 79.8903 22.252 79.8243 22.6769 79.9278C22.8814 80.5105 22.6769 81.1095 22.834 81.7085C23.3932 81.9572 24.0255 81.675 24.6271 81.9267C24.641 82.2201 24.6528 82.5064 24.6676 82.7927C24.6815 83.078 24.6983 83.3632 24.717 83.7033C25.0391 83.7257 25.3148 83.747 25.5904 83.7632C25.869 83.7805 26.1486 83.7927 26.4816 83.8099C26.6643 85.0586 26.4855 86.288 26.6021 87.5387C27.1791 87.7956 27.8074 87.5316 28.4239 87.7682C28.4476 88.3397 28.4723 88.9103 28.4951 89.4605C29.2104 89.6361 31.0292 89.6666 32.1545 89.5305C32.3808 88.9935 32.1545 88.3915 32.3314 87.7672C32.5072 87.7347 32.7127 87.6778 32.9212 87.6646C33.2937 87.6403 33.6671 87.6423 34.1018 87.6321C34.1344 87.0007 34.1641 86.4281 34.1937 85.8474C34.7717 85.5591 35.405 85.8484 36.0145 85.5997C36.0264 85.3104 36.0373 85.0251 36.0511 84.7398C36.0649 84.4556 36.0817 84.1713 36.0985 83.8505C36.6992 83.7165 37.2535 83.7541 37.8709 83.813C38.0675 85.7114 38.0093 87.5743 37.9114 89.5001C37.7267 89.5366 37.5538 89.5884 37.3779 89.6026C36.9749 89.6351 36.5619 89.56 36.1321 89.6869C35.9493 90.2655 36.1361 90.8625 35.9908 91.4594C35.4277 91.697 34.7954 91.4107 34.2046 91.6807C34.0712 92.903 34.2362 94.1324 34.0969 95.3994C33.5001 95.4349 32.9439 95.4684 32.4055 95.5009C32.2227 96.1963 32.1921 98.0349 32.3403 99.2582C32.4973 99.2856 32.6742 99.3394 32.851 99.3424C33.6414 99.3526 34.4318 99.3424 35.2222 99.3516C35.4682 99.3546 35.7132 99.3922 36.0047 99.4175C36.0363 100.034 36.0649 100.605 36.0946 101.19C36.6804 101.407 37.2663 101.203 37.8541 101.365C38.0537 101.922 37.866 102.519 38.0053 103.119C38.5517 103.397 39.185 103.103 39.7619 103.342C39.9585 103.902 39.7422 104.503 39.919 105.099C40.4604 105.312 41.0473 105.094 41.6401 105.266C41.8643 105.804 41.644 106.405 41.812 107.024C41.9542 107.058 42.1262 107.122 42.302 107.133C42.7061 107.158 43.1112 107.158 43.5587 107.17C43.7385 108.446 43.5587 109.675 43.6763 110.911C44.2602 111.193 44.8945 110.89 45.4892 111.153C45.5199 111.728 45.5505 112.298 45.5821 112.88C46.1699 113.099 46.7568 112.881 47.3417 113.065C47.5511 113.615 47.3338 114.216 47.5007 114.82C48.0392 115.08 48.6685 114.811 49.2623 115.028C49.4273 116.258 49.2396 117.488 49.3789 118.725C49.9529 118.946 50.5388 118.731 51.1296 118.902C51.3529 119.447 51.1227 120.049 51.3035 120.665C51.4477 120.697 51.6226 120.768 51.7974 120.769C53.315 120.778 54.8325 120.776 56.35 120.772C56.5022 120.772 56.6543 120.74 56.8687 120.715C56.9003 120.114 56.93 119.544 56.9606 118.962C57.5237 118.695 58.1136 118.93 58.7133 118.758C58.7439 118.603 58.8071 118.424 58.8101 118.243C58.8219 117.432 58.8121 116.62 58.819 115.809C58.821 115.557 58.8526 115.305 58.8753 114.992C59.472 114.956 60.0293 114.923 60.6398 114.885C60.8266 113.649 60.6191 112.414 60.7584 111.184C61.3146 110.866 61.9509 111.185 62.5604 110.926C62.6642 110.332 62.597 109.718 62.6079 109.109C62.6197 108.46 62.6029 107.81 62.6128 107.16C62.6227 106.55 62.5654 105.935 62.6563 105.314C63.2313 105.07 63.8191 105.291 64.4228 105.116C64.4485 104.924 64.5018 104.709 64.5028 104.493C64.5107 103.162 64.5068 101.831 64.5077 100.499C64.5077 100.176 64.5077 99.8531 64.5077 99.4896C64.7231 99.4358 64.896 99.3658 65.0719 99.3556C65.476 99.3313 65.883 99.3373 66.3375 99.3292C66.5035 98.0491 66.3148 96.8166 66.455 95.5862C67.0211 95.2969 67.6544 95.5903 68.263 95.3385C68.3431 94.7304 68.2848 94.1172 68.3026 93.5071C68.3203 92.898 68.2621 92.2848 68.345 91.6686C68.9368 91.4391 69.5227 91.6523 70.1027 91.4848C70.3151 90.9366 70.1066 90.3356 70.2686 89.7133C70.4554 89.6808 70.6628 89.626 70.8713 89.6118C71.2428 89.5874 71.6162 89.5884 72.048 89.5773C72.0796 88.9428 72.1082 88.3702 72.1379 87.7783C72.7494 87.5661 73.3511 87.6819 73.9409 87.6636C74.5387 87.6443 75.1374 87.6595 75.7884 87.6595C75.827 87.3956 75.8695 87.1834 75.8872 86.9692C75.9179 86.5895 75.8388 86.1977 75.9841 85.7662C76.5502 85.7327 77.1074 85.6992 77.6824 85.6657C77.9156 85.084 77.6784 84.4799 77.8592 83.8901C78.3987 83.6099 79.027 83.883 79.6327 83.6851C79.853 83.1744 79.6238 82.5988 79.8135 82.0343C80.3124 81.7338 80.923 82.0201 81.5157 81.7663C81.6244 81.1938 81.6047 80.5968 81.5227 79.9837C80.9654 79.7238 80.3717 79.9887 79.769 79.7725C79.7433 79.5887 79.69 79.3745 79.688 79.1593C79.6801 77.8284 79.684 76.4975 79.683 75.1655C79.683 74.8427 79.683 74.5209 79.683 74.1564C79.4627 74.1046 79.2898 74.0326 79.115 74.0295C78.3562 74.0163 77.5974 74.0265 76.8387 74.0194C76.5601 74.0163 76.2824 73.9889 76.0048 73.9737C75.7539 73.3727 76.0078 72.7656 75.8201 72.2123C75.5671 72.0072 75.2717 72.0783 74.9951 72.0773C73.2563 72.0702 71.5174 72.0814 69.7786 72.0712C68.8311 72.0661 67.8837 72.0336 66.9362 72.0072C66.8147 72.0042 66.6951 71.9636 66.5766 71.9402C66.293 71.3839 66.6121 70.7565 66.3207 70.1921C65.1351 70.0175 63.9318 70.2296 62.7254 70.0682C62.4725 69.5028 62.7235 68.8957 62.5259 68.2754C62.349 68.247 62.1425 68.2003 61.9341 68.182C61.5626 68.1485 61.1812 68.2348 60.7554 68.0703C60.7278 67.5028 60.7001 66.9303 60.6734 66.378C60.3138 66.1475 59.9571 66.2369 59.6183 66.2348C57.2155 66.2267 54.8127 66.2308 52.41 66.2308C52.0652 66.2308 51.7194 66.2308 51.3795 66.2308C51.0653 65.6075 51.3696 64.9557 51.1118 64.3364C50.5556 64.3029 49.9993 64.2694 49.4036 64.2339C49.2218 62.975 49.4303 61.7406 49.2771 60.5101C48.709 60.2371 48.0757 60.5233 47.4642 60.2706C47.4543 59.8767 47.4365 59.4929 47.4385 59.1102C47.4385 58.9234 47.4741 58.7366 47.4997 58.493C48.0945 58.4584 48.6527 58.4259 49.2722 58.3894C49.4223 57.1458 49.2465 55.9143 49.3779 54.6819C49.94 54.3855 50.5724 54.6677 51.1197 54.4718C51.261 53.6647 51.2689 49.6618 51.1335 48.7978C50.6059 48.5572 50.0132 48.8191 49.4372 48.6141C49.1951 48.0852 49.4411 47.4791 49.2524 46.8629C49.1082 46.8304 48.9363 46.7715 48.7604 46.7563C48.3563 46.7218 47.9433 46.8009 47.4948 46.6629C47.3792 46.0527 47.4504 45.4375 47.4365 44.8294C47.4227 44.2173 47.4286 43.6051 47.4257 42.999C46.8269 42.7127 46.2341 42.9726 45.6888 42.7838C45.4616 42.5838 45.5426 42.3067 45.5416 42.06C45.5347 40.0793 45.5485 38.0987 45.5317 36.119C45.5248 35.3099 45.4596 34.5018 45.4122 33.6937C45.4072 33.6044 45.341 33.5181 45.2985 33.4207C44.8194 33.1364 44.2226 33.4562 43.6901 33.0887C43.5893 32.4826 43.6546 31.8369 43.6427 31.1964C43.6318 30.5801 43.6328 29.9629 43.6427 29.3457C43.6526 28.702 43.5963 28.0543 43.6911 27.3965C44.2533 27.1427 44.8421 27.3711 45.3845 27.2148C45.6038 27.0066 45.5327 26.7315 45.5337 26.4828C45.5396 24.5022 45.5357 22.5215 45.5396 20.5419C45.5396 20.2261 45.5663 19.9094 45.5831 19.5358C46.1986 19.4993 46.7558 19.4668 47.3466 19.4312C47.5086 18.8039 47.4148 18.1886 47.4306 17.5816C47.4464 16.9684 47.4345 16.3542 47.4345 15.7481C48.0412 15.4222 48.6735 15.7085 49.2761 15.4913C49.4174 14.2609 49.2435 13.0294 49.3858 11.8041C49.9578 11.5543 50.5477 11.799 51.1296 11.6071C51.3548 11.0752 51.1266 10.4721 51.3044 9.84678C51.4803 9.81429 51.6858 9.75744 51.8943 9.74425C52.2667 9.71988 52.6402 9.72191 53.0235 9.71277C53.2369 9.09148 53.0304 8.49251 53.1954 7.87425C53.3426 7.83466 53.5165 7.75751 53.6924 7.74735C54.0688 7.72705 54.4472 7.74126 54.8137 7.74126C55.1516 7.14941 54.8305 6.52506 55.0805 5.95553C55.6219 5.69767 56.2502 5.97178 56.8746 5.73727C56.9033 5.17485 56.9319 4.60329 56.9626 4.01042C57.5761 3.80433 58.1778 3.916 58.7686 3.89874C59.3663 3.88047 59.965 3.89468 60.5707 3.89468C60.8592 3.27542 60.5904 2.63076 60.8088 2.00439C61.0973 1.9851 61.3739 1.96378 61.6515 1.94754C61.9311 1.93129 62.2107 1.92013 62.5031 1.90693C62.7422 1.31609 62.5002 0.711026 62.6938 0.0958198C62.8776 0.0663792 63.088 0.00445216 63.2994 0.00445216C67.8836 -0.001639 72.4679 -0.000623812 77.0521 0.00242177C77.2665 0.00242177 77.4799 0.0470905 77.7476 0.0765311C77.7743 0.683616 77.8 1.25518 77.8276 1.88053C78.785 2.00946 79.6959 1.9252 80.6019 1.94652C81.5128 1.96683 82.4267 1.91607 83.302 1.97596C83.5579 2.27849 83.4591 2.58305 83.4749 2.86324C83.4907 3.15054 83.4788 3.43988 83.4788 3.77489C83.7061 3.82159 83.8819 3.88656 84.0578 3.88961C84.8482 3.90179 85.6386 3.89164 86.4289 3.89976C86.6749 3.90281 86.9209 3.93631 87.1749 3.95763C87.3892 4.55456 87.1679 5.15759 87.3497 5.75148C87.8902 5.96365 88.477 5.74539 89.0816 5.92203C89.1093 6.09055 89.1627 6.27126 89.1656 6.45196C89.1755 7.2631 89.1656 8.07526 89.1745 8.8864C89.1765 9.13817 89.2121 9.38994 89.2358 9.68942C89.8374 9.72394 90.3947 9.75541 90.9707 9.78891C91.188 10.3838 90.9756 10.9848 91.1376 11.5736C91.6978 11.8366 92.3341 11.529 92.9229 11.8071C92.9525 12.3817 92.9812 12.9543 93.0138 13.5888C93.6214 13.6193 94.1766 13.6477 94.7645 13.6781C94.9591 14.273 94.7862 14.869 94.9156 15.4689C95.4748 15.7258 96.1052 15.4568 96.7138 15.6902C96.7296 15.9806 96.7454 16.2649 96.7592 16.5491C96.773 16.8344 96.7839 17.1196 96.7977 17.4273C97.3836 17.6455 97.9695 17.4364 98.5593 17.6039C98.7826 18.1511 98.5524 18.7531 98.7342 19.3744C98.8754 19.4059 99.0474 19.4637 99.2232 19.479C99.6263 19.5135 100.039 19.4384 100.483 19.5642C100.507 19.8048 100.545 20.0221 100.546 20.2393C100.553 21.5703 100.55 22.9012 100.555 24.2331C100.556 24.5519 100.578 24.8707 100.591 25.2128C101.17 25.4463 101.756 25.2229 102.361 25.4036C102.389 25.5701 102.443 25.7508 102.445 25.9316C102.455 26.7427 102.445 27.5548 102.454 28.366C102.456 28.6178 102.49 28.8695 102.514 29.171C103.115 29.2056 103.671 29.238 104.248 29.2705C104.458 29.8664 104.252 30.4664 104.417 31.0827C104.627 31.1111 104.837 31.1629 105.046 31.1639C106.374 31.172 107.702 31.1629 109.03 31.171C109.789 31.175 110.546 31.1984 111.305 31.2207C111.46 31.2248 111.613 31.2644 111.806 31.2928C111.839 31.4583 111.895 31.6085 111.895 31.7598C111.912 35.915 111.924 40.0702 111.933 44.2254C111.933 44.3817 111.904 44.5371 111.882 44.7502C111.289 44.7858 110.734 44.8193 110.146 44.8548C109.913 45.4345 110.144 46.0365 109.964 46.6466C109.44 46.8974 108.812 46.6344 108.203 46.8476C108.182 47.1116 108.146 47.3613 108.145 47.6111C108.14 49.5592 108.144 51.5074 108.141 53.4545C108.141 53.7733 108.12 54.0931 108.107 54.4779C107.487 54.5246 106.907 54.5672 106.306 54.6129C106.149 55.894 106.346 57.1255 106.181 58.3894C105.588 58.4249 105.032 58.4574 104.446 58.493C104.237 59.0848 104.443 59.6838 104.284 60.2858C103.736 60.5274 103.108 60.2604 102.509 60.4949C102.363 61.7223 102.534 62.9517 102.403 64.2288C101.811 64.2643 101.255 64.2989 100.666 64.3344C100.435 64.91 100.65 65.51 100.485 66.1283C100.339 66.1587 100.166 66.2125 99.9889 66.2277C99.5858 66.2602 99.1728 66.1861 98.7401 66.311C98.5563 66.8876 98.744 67.4846 98.5988 68.0825C98.0357 68.3201 97.4053 68.0439 96.7987 68.2998C96.773 68.8774 96.7474 69.4479 96.7187 70.0743C96.1121 70.1109 95.5568 70.1444 95.0184 70.1779C94.8307 70.852 94.7961 72.6194 94.9413 73.9229C95.4748 74.1696 96.1052 73.8975 96.7157 74.1371C96.8007 74.7452 96.7503 75.3584 96.7592 75.9675C96.7681 76.6162 96.7543 77.266 96.7651 77.9157C96.775 78.5248 96.7217 79.138 96.8106 79.7887C97.8885 79.9471 98.9258 79.8496 99.9583 79.8689C100.97 79.8872 101.982 79.873 102.993 79.873C104.032 79.873 105.069 79.876 106.125 79.8882C106.359 80.5105 106.144 81.1115 106.317 81.7338C106.545 81.7623 106.785 81.8161 107.025 81.8171C108.321 81.8262 109.618 81.8191 110.914 81.8232C111.223 81.8242 111.532 81.8496 111.902 81.8668C111.927 82.5023 111.949 83.0719 111.973 83.6932C113.207 83.8739 114.406 83.683 115.644 83.8302C115.83 85.0657 115.652 86.2941 115.769 87.5458C116.344 87.8047 116.973 87.5367 117.59 87.7753C117.614 88.3458 117.639 88.9164 117.664 89.5072C118.251 89.7265 118.837 89.5174 119.426 89.6849C119.653 90.231 119.416 90.8341 119.603 91.4544C119.744 91.4848 119.917 91.5406 120.094 91.5548C120.497 91.5883 120.91 91.5153 121.33 91.63C121.525 92.2127 121.337 92.8106 121.479 93.4066C122.051 93.6451 122.681 93.3812 123.281 93.6137C123.294 93.9213 123.305 94.2076 123.319 94.4949C123.333 94.7791 123.352 95.0634 123.37 95.4004C123.696 95.4217 123.972 95.441 124.249 95.4563C124.527 95.4725 124.807 95.4847 125.115 95.4999C125.327 96.0918 125.121 96.6917 125.279 97.2948C125.828 97.5476 126.459 97.2724 127.066 97.513C127.081 97.8014 127.097 98.0866 127.111 98.3709C127.125 98.6562 127.137 98.9414 127.152 99.2866C127.474 99.311 127.748 99.3343 128.023 99.3516C128.302 99.3688 128.582 99.379 128.922 99.3952C129.115 100.635 128.942 101.864 129.066 103.131C129.266 103.166 129.442 103.219 129.619 103.223C130.41 103.239 131.2 103.237 131.99 103.252C132.235 103.257 132.479 103.296 132.785 103.325V104.948C132.895 105.054 132.938 105.13 132.986 105.135C134.148 105.253 135.309 105.192 136.529 105.174C136.693 103.901 136.51 102.669 136.646 101.44C137.21 101.144 137.844 101.443 138.447 101.19C138.541 99.9302 138.479 98.6704 138.491 97.4115C138.502 96.1537 138.491 94.8949 138.506 93.5741C139.149 93.5345 139.706 93.5 140.321 93.4624C140.345 93.1934 140.386 92.9436 140.387 92.6929C140.395 90.7447 140.395 88.7966 140.397 86.8494C140.397 86.5276 140.397 86.2058 140.397 85.8982C141.002 85.5581 141.64 85.8738 142.246 85.6068C142.259 85.3266 142.273 85.0414 142.286 84.7571C142.3 84.4708 142.313 84.1855 142.327 83.8891C142.911 83.6475 143.499 83.8688 144.044 83.7074C144.226 83.0485 144.24 80.8039 144.055 79.9197C143.515 79.8882 142.958 79.8547 142.374 79.8202C142.212 79.1796 142.307 78.5634 142.288 77.9563C142.269 77.3441 142.278 76.731 142.275 76.131C141.665 75.8102 141.025 76.1371 140.465 75.8691C140.279 75.2934 140.506 74.6904 140.294 74.0996C139.105 73.9107 137.902 74.1422 136.698 73.9625C136.471 73.3889 136.7 72.7849 136.525 72.2001C135.983 71.921 135.349 72.2235 134.731 71.9565C134.691 71.391 134.657 70.8245 134.767 70.2185C135.599 70.0408 136.419 70.1555 137.232 70.1352C138.054 70.1149 138.876 70.1322 139.698 70.1301C140.515 70.1291 141.333 70.1251 142.13 70.123C142.324 69.4043 142.331 69.1353 142.188 68.2236C141.705 67.9688 141.141 68.2155 140.626 68.0399C140.392 67.8531 140.454 67.5769 140.451 67.3282C140.426 65.3811 140.408 63.4339 140.387 61.4878C140.384 61.168 140.377 60.8482 140.372 60.5345C139.777 60.2492 139.183 60.5142 138.597 60.3051C138.381 59.7071 138.517 59.0574 138.498 58.4239C138.48 57.8179 138.452 57.2047 138.535 56.6209C139.329 56.4473 141.268 56.4412 142.205 56.6027C142.398 57.1387 142.189 57.7387 142.347 58.3346C142.903 58.5935 143.536 58.3031 144.12 58.5518C144.28 59.7782 144.083 61.0106 144.238 62.236C144.814 62.4593 145.402 62.234 145.986 62.4218C146.198 62.97 145.975 63.571 146.145 64.1649C146.51 64.3841 146.928 64.2715 147.325 64.2847C147.703 64.2978 148.083 64.2684 148.462 64.2643C148.871 64.2603 149.281 64.2643 149.647 64.2643C149.944 63.9344 149.845 63.5943 149.847 63.2837C149.861 60.1345 149.866 56.9854 149.873 53.8363C149.873 53.4809 149.873 53.1266 149.873 52.7601C150.526 52.4739 151.162 52.6312 151.779 52.6089C152.37 52.5876 152.969 52.5632 153.603 52.6535C153.716 53.3449 153.652 53.9906 153.664 54.6301C153.674 55.2464 153.666 55.8636 153.666 56.4808V60.3772C153.666 60.9944 153.663 61.6106 153.666 62.2279C153.67 62.8705 153.678 63.5131 153.686 64.1963C154.303 64.3496 154.86 64.2938 155.447 64.243C155.669 63.6441 155.535 63.0248 155.558 62.4207C155.58 61.8066 155.563 61.1913 155.563 60.5345C155.778 60.4807 155.951 60.4107 156.127 60.4005C156.532 60.3761 156.938 60.3822 157.391 60.3741C157.557 59.094 157.369 57.8615 157.509 56.6311C158.076 56.3428 158.708 56.6341 159.32 56.3844C159.344 55.8139 159.369 55.2423 159.396 54.6413C160.002 54.4971 160.557 54.5398 161.053 54.5855C161.137 54.6555 161.166 54.6718 161.184 54.6971C161.201 54.7225 161.215 54.757 161.215 54.7875C161.229 56.3123 161.241 57.8361 161.253 59.3609C161.255 59.6493 161.253 59.9376 161.253 60.2482C160.654 60.5406 160.022 60.2563 159.406 60.5071C159.312 61.103 159.367 61.7142 159.358 62.3213C159.348 62.97 159.353 63.6197 159.357 64.2694C159.36 64.8795 159.37 65.4897 159.377 66.0785C160.084 66.2673 161.803 66.3039 163.041 66.1678C163.301 65.6156 163.015 64.9679 163.262 64.3395C163.816 64.307 164.373 64.2745 164.95 64.241C165.169 63.6542 164.947 63.0522 165.119 62.4553C165.688 62.2634 166.266 62.3182 166.837 62.4106C166.981 63.2339 166.983 65.2745 166.84 66.1841C166.303 66.2166 165.748 66.2511 165.165 66.2866C164.969 66.7079 165.067 67.1333 165.051 67.5414C165.036 67.9302 165.048 68.3201 165.048 68.7099V70.0236C164.794 70.0652 164.59 70.1129 164.382 70.1291C164.011 70.1576 163.629 70.0885 163.205 70.2246C163.106 70.8418 163.162 71.454 163.153 72.06C163.143 72.7087 163.153 73.3585 163.15 74.0082C163.147 74.6193 163.138 75.2305 163.132 75.864C162.521 76.1066 161.893 75.8528 161.311 76.0762C161.158 77.3248 161.351 78.5573 161.191 79.8222C160.598 79.8578 160.043 79.8903 159.455 79.9258C159.244 80.5156 159.453 81.1146 159.292 81.7166C158.749 81.9673 158.117 81.6871 157.525 81.9288C157.418 82.5064 157.456 83.0729 157.495 83.6881C158.73 83.8668 159.928 83.7125 161.139 83.8302C161.356 84.4221 161.144 85.0241 161.31 85.617C161.873 85.8566 162.502 85.5875 163.109 85.8261C163.138 86.4048 163.167 86.9753 163.197 87.5621C163.782 87.7783 164.367 87.5692 164.971 87.7428C165.159 88.9539 164.969 90.1833 165.087 91.431C165.655 91.7132 166.287 91.4239 166.882 91.6686C166.902 91.8208 166.938 91.9752 166.944 92.1295C167.058 95.3497 166.984 121.703 166.854 122.643C166.332 122.846 165.746 122.625 165.146 122.811C165.116 122.977 165.059 123.157 165.057 123.338C165.046 124.149 165.056 124.961 165.048 125.772C165.046 126.024 165.013 126.276 164.992 126.573C164.392 126.609 163.836 126.642 163.245 126.678C163.098 127.12 163.168 127.543 163.156 127.954C163.145 128.343 163.156 128.732 163.153 129.122C163.15 129.539 163.141 129.957 163.134 130.428C162.912 130.463 162.734 130.513 162.556 130.515C161.766 130.524 160.976 130.515 160.185 130.524C159.94 130.527 159.696 130.568 159.398 130.596C159.371 131.213 159.347 131.784 159.321 132.413C158.715 132.45 158.159 132.484 157.57 132.518C157.344 133.098 157.561 133.698 157.404 134.262C157.176 134.493 156.877 134.41 156.604 134.411C154.707 134.419 152.81 134.413 150.913 134.417C150.604 134.417 150.295 134.446 149.971 134.462C149.774 135.075 149.958 135.672 149.818 136.257C149.478 136.424 149.126 136.359 148.789 136.36C145.122 136.365 141.454 136.363 137.787 136.363C137.06 136.363 136.333 136.366 135.605 136.361C135.354 136.359 135.104 136.338 134.797 136.324C134.764 136.092 134.722 135.878 134.703 135.664C134.671 135.284 134.761 134.892 134.602 134.483C133.687 134.346 132.773 134.446 131.864 134.416C130.954 134.387 130.039 134.479 129.12 134.353C128.868 133.776 129.129 133.168 128.921 132.557C128.735 132.53 128.525 132.476 128.313 132.473C127.554 132.462 126.796 132.473 126.037 132.465C125.793 132.462 125.55 132.423 125.254 132.394C125.227 131.775 125.201 131.204 125.174 130.604C123.937 130.399 122.734 130.633 121.532 130.459C121.281 129.893 121.539 129.285 121.355 128.731C120.736 128.525 118.557 128.5 117.714 128.694C117.689 128.774 117.638 128.862 117.638 128.952C117.632 131.256 117.63 133.562 117.631 135.866C117.631 135.99 117.666 136.115 117.687 136.264C118.249 136.48 118.835 136.264 119.443 136.443C119.469 136.682 119.518 136.928 119.519 137.174C119.525 139.154 119.519 141.135 119.526 143.115C119.527 143.431 119.451 143.763 119.659 144.111C120.19 144.143 120.747 144.178 121.349 144.214C121.374 144.514 121.411 144.763 121.412 145.014C121.418 146.962 121.416 148.91 121.421 150.858C121.421 151.176 121.444 151.495 121.458 151.836C122.038 152.067 122.623 151.846 123.154 152.003C123.406 152.261 123.311 152.569 123.312 152.847C123.321 154.925 123.317 157.003 123.317 159.081C123.317 162.165 123.32 165.249 123.314 168.333C123.314 168.682 123.376 169.043 123.219 169.429C122.658 169.462 122.102 169.496 121.488 169.532C121.464 169.79 121.425 170.006 121.424 170.222C121.416 171.553 121.418 172.884 121.412 174.215C121.411 174.535 121.391 174.854 121.38 175.203C120.809 175.437 120.221 175.208 119.638 175.392C119.375 175.946 119.654 176.592 119.434 177.216C119.152 177.234 118.875 177.254 118.599 177.271C118.321 177.288 118.041 177.302 117.829 177.314C117.742 177.387 117.712 177.404 117.694 177.429C117.678 177.455 117.665 177.489 117.665 177.52C117.652 179.823 117.64 182.128 117.63 184.431C117.63 184.589 117.65 184.747 117.66 184.9C117.967 185.146 118.294 185.036 118.597 185.063C118.874 185.086 119.151 185.101 119.455 185.121C119.591 186.012 119.508 186.852 119.522 187.688C119.537 188.564 119.525 189.441 119.525 190.317V195.382C119.525 196.258 119.52 197.135 119.526 198.011C119.532 198.849 119.498 199.687 119.554 200.583C119.891 200.607 120.164 200.631 120.44 200.647C120.72 200.664 120.999 200.674 121.339 200.69C121.37 200.937 121.417 201.151 121.418 201.365C121.425 202.858 121.422 204.351 121.422 205.845C121.422 210.844 121.423 215.844 121.424 220.844C121.424 221.197 121.424 221.55 121.424 221.923C122.027 222.226 122.66 221.935 123.271 222.187C123.365 222.819 123.306 223.463 123.316 224.104C123.325 224.721 123.318 225.337 123.318 225.955C123.318 226.604 123.317 227.253 123.32 227.903C123.323 228.514 123.333 229.124 123.339 229.751C123.936 229.99 124.523 229.769 125.127 229.948C125.155 230.116 125.198 230.296 125.211 230.478C125.226 230.705 125.216 230.932 125.216 231.16C125.216 240.704 125.216 250.249 125.214 259.794C125.214 260.176 125.266 260.567 125.128 260.988C124.558 261.023 124.001 261.055 123.415 261.091C123.211 261.685 123.411 262.282 123.257 262.884C122.71 263.137 122.079 262.858 121.473 263.111C121.351 264.329 121.494 265.557 121.383 266.774C120.769 267.018 120.139 266.736 119.541 267.02C119.515 267.563 119.49 268.107 119.466 268.623C119.193 268.874 118.896 268.796 118.622 268.798C116.725 268.815 114.828 268.819 112.932 268.838C112.625 268.841 112.298 268.755 111.955 269.018V270.662C111.694 270.708 111.488 270.771 111.28 270.775C110.522 270.788 109.763 270.776 109.004 270.784C108.758 270.786 108.511 270.817 108.328 270.831C108.247 270.911 108.219 270.929 108.204 270.955C108.188 270.982 108.179 271.016 108.177 271.048C108.165 271.242 108.147 271.435 108.147 271.629C108.151 275.785 108.156 279.94 108.164 284.096C108.164 284.155 108.206 284.214 108.247 284.325C108.772 284.573 109.407 284.268 110.021 284.55V286.114C110.337 286.463 110.673 286.361 110.974 286.362C113.44 286.37 115.906 286.365 118.372 286.368C118.715 286.368 119.057 286.389 119.423 286.402C119.641 287.003 119.432 287.603 119.577 288.147C119.833 288.392 120.133 288.309 120.405 288.31C122.302 288.318 124.199 288.311 126.096 288.319C126.404 288.32 126.728 288.24 127.056 288.456C127.217 289.646 127.017 290.879 127.173 292.106C127.748 292.329 128.336 292.106 128.938 292.296C128.961 292.438 129.009 292.588 129.009 292.739C129.013 295.012 129.011 297.284 129.007 299.557C129.007 299.651 128.978 299.745 128.952 299.899C128.787 299.931 128.613 299.995 128.437 299.995C125.054 300.001 121.671 300.001 118.288 299.998C118.105 299.998 117.924 299.958 117.68 299.93C117.649 299.326 117.62 298.753 117.589 298.118C116.372 297.956 115.17 298.146 113.965 298C113.68 297.429 113.984 296.777 113.719 296.14C111.909 296.047 110.084 296.162 108.273 296.074C108.012 295.457 108.268 294.85 108.079 294.297C107.383 294.106 105.177 294.102 104.377 294.306V295.936C104.214 296.002 104.103 296.086 103.991 296.086C101.715 296.095 99.4386 296.095 97.1623 296.092C97.0724 296.092 96.9825 296.048 96.86 296.016C96.6426 295.469 96.8689 294.865 96.697 294.279C96.1556 293.999 95.5213 294.301 94.9156 294.041C94.8998 293.758 94.883 293.473 94.8692 293.189C94.8544 292.903 94.8425 292.616 94.8267 292.268C94.5056 292.247 94.229 292.225 93.9534 292.21C93.6718 292.196 93.3892 292.189 93.0889 292.178C92.8794 291.577 92.9881 291.001 93.0089 290.371C93.2282 290.332 93.4357 290.279 93.6441 290.264C94.0156 290.24 94.3891 290.241 94.7961 290.23C94.9314 289.233 94.8406 288.296 94.8682 287.363C94.8949 286.428 94.8149 285.489 94.9226 284.538C95.4857 284.292 96.0745 284.516 96.6189 284.359C96.8076 283.739 96.8303 281.517 96.6436 280.567C96.1052 280.538 95.547 280.506 95.0065 280.477C94.7842 280.107 94.8742 279.741 94.8732 279.394C94.8643 276.277 94.8672 273.16 94.8662 270.044C94.8662 269.689 94.8662 269.335 94.8662 268.92C94.561 268.887 94.3189 268.841 94.0759 268.84C92.7796 268.831 91.4834 268.839 90.1872 268.829C89.8799 268.827 89.5579 268.902 89.2121 268.687C89.1893 268.137 89.1646 267.567 89.138 266.936C88.5225 266.903 87.9642 266.872 87.3972 266.842C87.1472 266.256 87.3912 265.65 87.2075 265.058C86.674 264.777 86.0387 265.081 85.438 264.821C85.4202 264.574 85.3886 264.321 85.3856 264.069C85.3066 257.005 85.358 248.267 85.4854 247.5C86.013 247.275 86.6028 247.515 87.161 247.334C87.3744 247.02 87.2747 246.65 87.2756 246.305C87.2845 243.189 87.2806 240.072 87.2806 236.955V235.838C87.5345 235.792 87.74 235.736 87.9494 235.722C88.3219 235.697 88.6954 235.7 89.1014 235.689C89.132 235.473 89.1676 235.319 89.1735 235.163C89.2664 232.528 89.2032 221.085 89.0915 220.249C88.5669 219.99 87.9712 220.261 87.4209 220.06C87.1986 219.824 87.2865 219.516 87.2855 219.238C87.2786 216.641 87.2825 214.043 87.2796 211.447C87.2796 211.131 87.2539 210.815 87.2371 210.443C86.6186 210.408 86.0604 210.376 85.4993 210.344C85.2463 209.753 85.5032 209.145 85.2977 208.532C85.111 208.504 84.9005 208.448 84.6901 208.448C81.3705 208.442 78.0509 208.443 74.7313 208.448C74.5179 208.448 74.3045 208.495 74.0397 208.527C74.0111 209.135 73.9854 209.705 73.9567 210.324C72.6813 210.453 71.4552 210.37 70.2321 210.39C69.005 210.409 67.7769 210.369 66.5222 210.422C66.3029 211.034 66.5114 211.633 66.3424 212.258C66.1191 212.284 65.8781 212.335 65.638 212.336C64.3418 212.344 63.0455 212.336 61.7493 212.344C61.4411 212.346 61.117 212.268 60.7594 212.493C60.7357 213.024 60.711 213.594 60.6833 214.217C60.459 214.243 60.2782 214.281 60.0984 214.283C59.308 214.29 58.5176 214.282 57.7273 214.292C57.4832 214.295 57.2392 214.339 56.9458 214.368C56.9221 214.964 56.8993 215.507 56.8766 216.078C56.3085 216.362 55.6733 216.073 55.0825 216.326C55.0587 216.488 55.0222 216.641 55.0163 216.797C54.953 218.382 55.0242 223.209 55.124 223.937C55.6426 224.158 56.2305 223.923 56.8341 224.113C56.8618 224.272 56.9211 224.452 56.9221 224.633C56.928 228.139 56.928 231.646 56.925 235.151C56.925 235.307 56.8905 235.462 56.8658 235.666C56.273 235.702 55.7167 235.734 55.1299 235.77C54.9185 236.359 55.1269 236.959 54.9659 237.56C54.4215 237.813 53.7902 237.528 53.1717 237.786C53.148 238.351 53.1243 238.922 53.0976 239.557C52.4979 239.593 51.9417 239.626 51.4151 239.658C51.1474 239.934 51.26 240.242 51.2412 240.521C51.2224 240.808 51.2373 241.097 51.2373 241.437C51.4566 241.485 51.6295 241.542 51.8053 241.556C52.2084 241.589 52.6204 241.521 53.0611 241.633C53.2448 242.873 53.0334 244.105 53.1865 245.351C53.7428 245.587 54.3306 245.352 54.9343 245.541C54.9629 245.698 55.0222 245.877 55.0242 246.058C55.035 246.869 55.0252 247.681 55.0331 248.492C55.035 248.745 55.0686 248.997 55.0914 249.307C55.6891 249.34 56.2453 249.369 56.8499 249.402C57.0307 250.657 56.842 251.888 56.9695 253.138C57.5475 253.393 58.1788 253.115 58.7627 253.355C58.9247 254.584 58.7261 255.817 58.8822 257.046C59.4592 257.252 60.0431 257.059 60.624 257.214C60.8433 257.776 60.6191 258.377 60.7959 258.993C60.952 259.024 61.1279 259.086 61.3047 259.089C62.0951 259.101 62.8855 259.091 63.6759 259.099C63.9219 259.102 64.1679 259.137 64.4228 259.159C64.6105 259.76 64.4346 260.357 64.572 260.945C65.1351 261.159 65.721 260.947 66.3068 261.115C66.3385 261.228 66.3997 261.344 66.3997 261.462C66.4047 263.799 66.4017 266.137 66.3997 268.474C66.3997 268.536 66.374 268.598 66.3464 268.723C66.1972 268.756 66.0233 268.825 65.8484 268.828C65.058 268.842 64.2677 268.831 63.4773 268.839C63.2303 268.841 62.9843 268.872 62.7096 268.891C62.515 269.488 62.7067 270.085 62.5713 270.627C62.3026 270.857 62.0072 270.779 61.7335 270.78C59.8366 270.787 57.9397 270.78 56.0428 270.788C55.7345 270.789 55.4095 270.708 55.0686 270.946C55.0439 271.479 55.0182 272.05 54.9886 272.681C53.7526 272.805 52.5562 272.663 51.343 272.772C51.1147 273.366 51.34 273.967 51.1632 274.573C50.6316 274.821 50.0033 274.558 49.4204 274.766C49.2366 275.344 49.4263 275.941 49.2692 276.564C48.6814 276.608 48.0994 276.651 47.4573 276.697V278.445C47.1935 278.492 46.988 278.557 46.7805 278.561C46.0217 278.576 45.263 278.567 44.5042 278.577C44.2572 278.58 44.0102 278.611 43.7385 278.631C43.5538 279.23 43.7237 279.825 43.5893 280.439C43.4016 280.468 43.2228 280.515 43.044 280.517C42.2536 280.527 41.4632 280.517 40.6728 280.527C40.4278 280.53 40.1838 280.572 39.8953 280.601C39.8667 281.221 39.84 281.791 39.8113 282.409C39.5762 282.432 39.3944 282.462 39.2126 282.468C36.0916 282.555 31.3108 282.507 30.468 282.378C30.2299 281.841 30.4888 281.233 30.2823 280.616C30.1035 280.588 29.895 280.531 29.6866 280.528C28.9278 280.515 28.169 280.528 27.4103 280.518C27.1652 280.515 26.9212 280.478 26.692 280.456C26.5379 279.636 26.5349 277.567 26.689 276.687C26.9479 276.668 27.2235 276.639 27.4992 276.629C27.7798 276.619 28.0603 276.627 28.3528 276.627C28.5672 275.964 28.4466 275.346 28.4674 274.74C28.4881 274.126 28.4723 273.509 28.4723 272.903C29.0701 272.555 29.7063 272.874 30.3189 272.622C30.3357 272.349 30.3544 272.066 30.3683 271.782C30.3821 271.494 30.392 271.206 30.4038 270.9C31.0243 270.689 31.626 270.802 32.2168 270.785C32.8145 270.766 33.4132 270.781 34.0633 270.781C34.1018 270.515 34.1433 270.302 34.1601 270.087C34.1907 269.708 34.1107 269.317 34.252 268.904C35.4494 268.723 36.6508 268.932 37.8532 268.778C38.0863 268.198 37.8453 267.594 38.0438 266.965C38.2553 266.94 38.4973 266.889 38.7394 266.888C40.0356 266.88 41.3318 266.888 42.628 266.882C42.9363 266.881 43.2436 266.851 43.6052 266.832C43.6348 266.204 43.6615 265.634 43.6881 265.059C44.273 264.805 44.8638 265.048 45.4448 264.858C45.671 264.326 45.4428 263.723 45.6196 263.097C45.7955 263.064 46.001 263.007 46.2085 262.994C46.5809 262.97 46.9544 262.973 47.3595 262.963C47.5165 262.069 47.4207 261.229 47.4375 260.395C47.4543 259.552 47.4415 258.707 47.4415 257.863V255.354C46.8269 255.033 46.1897 255.349 45.5959 255.078C45.4487 253.86 45.6463 252.629 45.4744 251.352C44.8895 251.319 44.3323 251.289 43.7622 251.256C43.5251 250.671 43.7484 250.067 43.5814 249.477C43.041 249.193 42.4067 249.495 41.7991 249.236C41.7833 248.958 41.7655 248.674 41.7507 248.389C41.7359 248.103 41.726 247.816 41.7132 247.527C41.1332 247.272 40.5474 247.516 39.9289 247.31L39.921 247.306Z" fill="#29ABE2"/>
</svg>
