<svg width="249" height="447" viewBox="0 0 249 447" fill="none" xmlns="http://www.w3.org/2000/svg">
<path d="M59.5229 368.486C59.271 367.603 59.5494 366.712 59.299 365.833C57.496 365.55 55.7017 365.892 53.9193 365.626C53.5437 364.771 53.934 363.865 53.6217 362.953C53.3477 362.912 53.034 362.832 52.7202 362.827C51.5889 362.811 50.4575 362.828 49.3262 362.815C48.9623 362.811 48.6 362.752 48.1595 362.711C48.1153 361.79 48.0755 360.94 48.0314 360.04C46.1944 359.739 44.3987 360.082 42.6045 359.826C42.2362 358.984 42.6045 358.081 42.3128 357.155C42.0491 357.111 41.7413 357.043 41.4304 357.014C40.878 356.963 40.3079 357.098 39.7099 356.854C39.4639 355.04 39.76 353.203 39.5095 351.295C38.6478 351.244 37.8155 351.194 36.911 351.141C36.8653 350.788 36.7902 350.466 36.7887 350.143C36.777 348.159 36.7828 346.176 36.7828 344.192C36.7828 343.712 36.7828 343.231 36.7828 342.672C36.3984 342.608 36.0905 342.537 35.7797 342.508C35.2258 342.457 34.6557 342.59 34.0503 342.349C34.0193 342.074 33.9648 341.796 33.9589 341.516C33.7777 334.161 33.8764 306.355 34.093 304.921C34.8796 304.586 35.7561 304.918 36.6252 304.665C36.9419 303.807 36.7416 302.885 36.7755 301.986C36.8108 301.071 36.7828 300.153 36.7828 299.176C37.104 299.095 37.3618 298.991 37.624 298.976C38.2279 298.941 38.8334 298.949 39.4712 298.938C39.7423 297.95 39.5537 297.028 39.6406 296.126C39.7231 295.27 39.7467 294.408 39.7938 293.6C40.6453 293.07 41.5895 293.615 42.4307 293.016V290.51C43.344 290.012 44.2912 290.472 45.203 290.089C45.2251 289.678 45.2487 289.254 45.2693 288.831C45.2899 288.404 45.3091 287.977 45.3253 287.608C45.7716 287.251 46.2121 287.377 46.6246 287.357C47.0444 287.338 47.4657 287.353 47.8163 287.353C48.2155 286.893 48.0711 286.439 48.0932 286.019C48.1168 285.587 48.0976 285.155 48.0976 284.659C48.4202 284.58 48.6766 284.476 48.9388 284.461C49.5413 284.424 50.1467 284.432 50.8479 284.42C50.898 283.473 50.9422 282.621 50.9878 281.753C51.8408 281.314 52.785 281.753 53.6983 281.378C53.7366 280.531 53.7735 279.679 53.8147 278.762C54.7604 278.555 55.6531 278.669 56.537 278.646C57.4267 278.623 58.3165 278.625 59.2283 278.614C59.601 277.723 59.2563 276.825 59.5288 275.897C59.7925 275.851 60.1018 275.754 60.4112 275.749C61.5425 275.73 62.6739 275.746 63.8052 275.736C64.1735 275.733 64.5403 275.687 64.9969 275.655C65.0441 274.746 65.0868 273.896 65.1354 272.958C65.539 272.915 65.9014 272.845 66.2638 272.842C68.1493 272.828 70.0349 272.833 71.9204 272.831C72.3874 272.831 72.8559 272.831 73.4009 272.831C73.4583 272.437 73.5217 272.119 73.5467 271.8C73.5924 271.234 73.4731 270.652 73.6955 270.003C74.5867 269.957 75.4662 269.912 76.4119 269.864C76.5091 269.039 76.5975 268.283 76.6991 267.43C78.4138 267.117 80.1329 267.052 81.8815 266.967C82.2129 266.099 81.8977 265.202 82.1466 264.28C82.4295 264.234 82.7403 264.141 83.0511 264.137C84.1824 264.119 85.3138 264.134 86.4451 264.123C86.8104 264.12 87.1758 264.073 87.625 264.041C87.6737 263.125 87.7178 262.275 87.7664 261.34C89.5798 261.063 91.3711 261.361 93.1256 261.161C93.4187 260.186 93.4482 256.865 93.1653 255.49C92.361 255.444 91.5302 255.397 90.6478 255.345C90.6021 255.012 90.5329 254.734 90.5329 254.457C90.527 247.395 90.527 240.332 90.53 233.27C90.53 232.985 90.5727 232.701 90.5977 232.391C91.4286 232.005 92.308 232.347 93.186 232.099C93.2316 231.961 93.3377 231.787 93.3377 231.615C93.3495 228.18 93.3495 224.746 93.345 221.311C93.345 221.128 93.2817 220.943 93.2522 220.78C92.1754 220.536 89.213 220.515 87.8195 220.744C87.5116 221.536 87.8519 222.432 87.5911 223.31C87.1536 223.621 86.6189 223.481 86.121 223.483C82.1142 223.497 78.1074 223.49 74.1006 223.49C72.4979 223.49 70.8952 223.497 69.2924 223.486C68.88 223.483 68.466 223.435 67.9696 223.403C67.9225 222.477 67.8783 221.625 67.8326 220.748C66.909 220.461 66.0119 220.619 65.1295 220.595C64.1867 220.568 63.2439 220.589 62.3012 220.589C61.41 220.589 60.5173 220.589 59.6378 220.589C59.1738 219.651 59.6319 218.68 59.2416 217.761C58.4122 217.711 57.5829 217.662 56.6592 217.606C56.6136 216.691 56.5694 215.838 56.5267 214.982C55.662 214.534 54.7103 215.015 53.8103 214.593C53.7926 214.167 53.7764 213.741 53.7558 213.315C53.7352 212.891 53.7101 212.468 53.6821 211.955C52.7762 211.905 51.9453 211.861 51.1013 211.814C50.7212 210.939 51.1042 210.032 50.8125 209.152C50.0186 208.75 49.0758 209.179 48.1684 208.815C48.1227 207.957 48.077 207.107 48.0269 206.159C47.1387 206.107 46.3064 206.059 45.4549 206.009C45.0675 205.157 45.4387 204.253 45.1529 203.338C44.9364 203.291 44.6786 203.206 44.4149 203.182C43.8139 203.126 43.1967 203.266 42.5102 203.018C42.469 202.174 42.4262 201.321 42.3835 200.46C41.535 200.066 40.6512 200.442 39.7614 200.143C39.7172 199.913 39.6259 199.644 39.623 199.374C39.6068 198.166 39.6215 196.956 39.6097 195.747C39.6068 195.373 39.5537 195 39.5184 194.542C38.6242 194.49 37.7934 194.443 36.9567 194.395C36.5796 193.513 36.9626 192.608 36.6694 191.734C35.8695 191.335 34.9253 191.769 34.037 191.4C33.8072 189.576 34.1077 187.739 33.8499 185.833C32.9808 185.785 32.1485 185.739 31.2912 185.693C30.9803 184.758 31.1645 183.837 31.1335 182.934C31.1011 182.018 31.1262 181.102 31.1262 180.196C30.2247 179.709 29.2775 180.17 28.3892 179.781C28.1491 177.978 28.4466 176.14 28.208 174.319C27.3654 173.938 26.4815 174.327 25.6154 174.018C25.3281 173.206 25.4931 172.35 25.5211 171.41C25.8496 171.353 26.1575 171.271 26.4683 171.251C27.0222 171.215 27.579 171.217 28.1859 171.201C28.4511 169.296 28.1535 167.459 28.3686 165.692C28.7869 165.338 29.2274 165.466 29.6398 165.446C30.0597 165.426 30.4824 165.441 30.8758 165.441C31.1836 164.432 31.2175 161.126 30.9479 159.733C29.2068 159.459 27.4125 159.802 25.6301 159.536C25.2574 158.683 25.6463 157.777 25.3355 156.863C25.0629 156.822 24.7492 156.741 24.4354 156.736C23.3041 156.719 22.1727 156.736 21.0414 156.724C20.6761 156.719 20.3122 156.66 19.8747 156.62C19.8291 155.7 19.7878 154.85 19.748 154.033C19.1868 153.711 18.658 153.833 18.1512 153.832C14.5687 153.818 10.9861 153.824 7.40356 153.818C6.8924 153.818 6.37976 153.795 5.85829 153.783C5.4856 152.88 5.82735 151.979 5.56956 151.106C4.76231 150.689 3.81658 151.135 2.91358 150.752C2.88854 150.431 2.83551 150.103 2.84582 149.778C2.86202 149.256 2.74418 148.719 2.98724 148.149C4.17307 147.877 5.39721 148.06 6.60809 148.028C7.83222 147.996 9.05931 148.02 10.2849 148.02C11.5105 148.02 12.7244 148.02 13.9691 148.02C14.2888 147.037 14.1194 146.119 14.1474 145.219C14.1753 144.304 14.1533 143.387 14.1533 142.41C13.8218 142.334 13.564 142.248 13.3003 142.222C12.6993 142.165 12.0821 142.305 11.3897 142.06C11.347 141.221 11.3028 140.368 11.2542 139.416C9.44821 139.171 7.65545 139.445 5.85681 139.232C5.43109 138.382 5.87891 137.412 5.50769 136.504C3.74294 136.247 1.95017 136.566 0.123551 136.302C-0.0635302 135.418 -0.00755325 134.571 0.0911433 133.679C1.02802 133.354 1.97375 133.547 2.90032 133.512C3.79449 133.479 4.6916 133.481 5.58724 133.512C6.51528 133.544 7.45954 133.37 8.4686 133.68V136.187C8.7588 136.273 8.9724 136.391 9.18599 136.393C11.5901 136.403 13.9942 136.399 16.3982 136.391C16.5323 136.391 16.6649 136.329 16.7886 136.297C17.0258 135.306 17.0729 132.534 16.8829 130.817C16.4778 130.478 15.9887 130.644 15.5321 130.605C15.1211 130.57 14.7086 130.548 14.2505 130.517C14.0074 128.624 14.302 126.787 14.0516 124.88C13.1854 124.83 12.3546 124.783 11.4943 124.733C11.1747 123.806 11.3662 122.885 11.3323 121.983C11.2999 121.068 11.3249 120.151 11.3249 119.269C12.3325 118.926 12.7862 118.912 14.0428 119.176C14.3182 119.982 13.9912 120.879 14.2858 121.8C16.0417 122.051 17.8286 121.768 19.5492 121.956C19.9366 122.376 19.7775 122.833 19.8025 123.249C19.8291 123.677 19.8084 124.108 19.8084 124.615C20.1369 124.685 20.3947 124.769 20.6584 124.791C21.2594 124.839 21.8737 124.736 22.4983 124.901C22.8076 125.768 22.4954 126.662 22.7148 127.471C23.69 127.752 26.0573 127.811 28.124 127.613C28.4702 126.704 28.2566 125.734 28.2861 124.791C28.3155 123.884 28.3465 122.971 28.2271 121.974C27.3183 121.924 26.4859 121.879 25.6301 121.833C25.3266 120.892 25.5063 119.971 25.4739 119.068C25.4415 118.155 25.4666 117.238 25.4666 116.336C24.5592 115.855 23.6105 116.315 22.7973 115.957C22.5823 114.741 22.5823 111.656 22.8032 110.396C23.6061 110.21 24.4325 110.28 25.3119 110.352C25.6433 111.224 25.3178 112.121 25.5682 113.021C26.3696 113.409 27.3094 113.007 28.2213 113.338C28.2463 113.774 28.2743 114.196 28.2934 114.62C28.3141 115.046 28.3273 115.473 28.345 115.933C29.2171 116.267 30.0906 115.949 30.973 116.202C31.3044 117.01 30.9745 117.905 31.2322 118.829C31.4444 118.878 31.7007 118.967 31.9629 118.988C32.5654 119.036 33.1782 118.938 33.8116 119.092C34.1166 119.961 33.8116 120.853 34.0458 121.746C34.8796 122.116 35.8224 121.696 36.7195 122.071C36.7401 122.508 36.7578 122.935 36.7799 123.361C36.8005 123.786 36.8256 124.211 36.8535 124.718C37.3338 124.751 37.7448 124.783 38.1558 124.807C38.5712 124.833 38.9881 124.851 39.4845 124.877C39.757 126.737 39.4904 128.569 39.6642 130.433C40.5245 130.815 41.4614 130.422 42.3806 130.775C42.4159 131.626 42.4528 132.476 42.4866 133.296C43.5532 133.558 46.2651 133.603 47.943 133.401C48.2803 132.6 47.943 131.703 48.2066 130.773C48.4689 130.725 48.7753 130.64 49.0861 130.62C49.6414 130.584 50.1983 130.587 50.8464 130.572C50.895 129.631 50.9392 128.778 50.9834 127.913C51.8452 127.483 52.7894 127.914 53.6983 127.544C53.716 127.112 53.7322 126.687 53.7528 126.262C53.7735 125.839 53.7985 125.415 53.8235 124.937C54.7192 124.738 55.5456 124.794 56.4663 124.881C56.7594 127.71 56.6725 130.486 56.5267 133.355C56.2512 133.41 55.9934 133.487 55.7312 133.508C55.1302 133.556 54.5144 133.444 53.8736 133.633C53.6011 134.496 53.8795 135.385 53.663 136.275C52.8233 136.628 51.8805 136.202 50.9996 136.604C50.8008 138.426 51.0468 140.257 50.8391 142.145C49.9493 142.198 49.12 142.248 48.3171 142.296C48.0446 143.333 47.9989 146.072 48.2199 147.895C48.4541 147.935 48.7178 148.016 48.9815 148.02C50.16 148.035 51.3384 148.02 52.5169 148.034C52.8837 148.038 53.249 148.094 53.6836 148.132C53.7307 149.05 53.7735 149.902 53.8176 150.773C54.6912 151.097 55.5647 150.793 56.4412 151.033C56.7388 151.864 56.4589 152.753 56.6666 153.647C57.4812 154.062 58.4255 153.623 59.2858 153.98C59.5789 154.813 59.2563 155.709 59.52 156.597C60.3272 156.915 61.2022 156.589 62.0861 156.846C62.4205 157.648 62.092 158.544 62.3424 159.466C62.5545 159.516 62.8109 159.612 63.0731 159.628C63.6756 159.666 64.2795 159.666 64.9468 159.683C65.2149 161.584 64.9468 163.416 65.1221 165.257C65.9927 165.677 66.9385 165.227 67.8252 165.618C67.8709 166.474 67.9166 167.325 67.9637 168.191C68.8402 168.518 69.7152 168.193 70.5873 168.467C70.8996 169.286 70.5755 170.182 70.8245 171.082C71.6273 171.469 72.5656 171.068 73.451 171.392C73.697 173.224 73.4171 175.057 73.6248 176.9C74.4807 177.229 75.3542 176.909 76.2351 177.164C76.568 177.977 76.2248 178.874 76.4944 179.79C76.7094 179.839 76.9702 179.945 77.2309 179.946C79.4936 179.96 81.7562 179.957 84.0189 179.951C84.2458 179.951 84.4726 179.902 84.7923 179.866C84.8394 178.97 84.8836 178.12 84.9293 177.254C85.7689 176.856 86.6484 177.205 87.5425 176.949C87.5882 176.718 87.6825 176.452 87.6869 176.183C87.7046 174.974 87.6899 173.764 87.7002 172.555C87.7031 172.18 87.7502 171.805 87.7841 171.338C88.6739 171.285 89.5047 171.235 90.4151 171.179C90.6935 169.336 90.3841 167.497 90.5918 165.664C91.4212 165.19 92.3699 165.665 93.2788 165.279C93.4334 164.395 93.3333 163.479 93.3495 162.572C93.3671 161.605 93.3421 160.637 93.3568 159.669C93.3716 158.76 93.2861 157.843 93.4216 156.918C94.279 156.555 95.1555 156.884 96.0555 156.623C96.0938 156.337 96.1734 156.016 96.1748 155.694C96.1866 153.711 96.1807 151.728 96.1822 149.743C96.1822 149.262 96.1822 148.781 96.1822 148.24C96.5033 148.159 96.7611 148.055 97.0233 148.04C97.6258 148.004 98.2328 148.013 98.9104 148.001C99.1579 146.093 98.8765 144.257 99.0857 142.423C99.9297 141.992 100.874 142.429 101.781 142.054C101.901 141.148 101.814 140.235 101.84 139.326C101.867 138.418 101.78 137.504 101.904 136.586C102.786 136.244 103.66 136.562 104.524 136.312C104.841 135.496 104.53 134.6 104.772 133.673C105.05 133.624 105.36 133.543 105.67 133.522C106.224 133.485 106.781 133.487 107.425 133.47C107.472 132.525 107.515 131.672 107.559 130.79C108.471 130.474 109.368 130.646 110.247 130.619C111.138 130.59 112.031 130.613 113.002 130.613C113.059 130.219 113.123 129.903 113.149 129.584C113.195 129.018 113.077 128.435 113.294 127.792C114.138 127.742 114.969 127.692 115.826 127.642C116.174 126.775 115.82 125.875 116.09 124.996C116.894 124.579 117.831 124.986 118.734 124.691C119.062 123.93 118.72 123.072 119.003 122.231C119.747 121.783 120.658 122.21 121.541 121.832C121.703 120.979 121.674 120.089 121.552 119.176C120.721 118.788 119.836 119.183 118.937 118.861C118.899 118.587 118.819 118.268 118.816 117.947C118.804 115.964 118.81 113.981 118.809 111.997C118.809 111.516 118.809 111.036 118.809 110.493C118.48 110.416 118.223 110.309 117.962 110.304C116.831 110.284 115.699 110.299 114.568 110.289C114.152 110.284 113.738 110.243 113.325 110.221C112.95 109.325 113.329 108.421 113.049 107.596C112.672 107.291 112.232 107.397 111.819 107.395C109.226 107.385 106.634 107.401 104.041 107.386C102.628 107.379 101.216 107.33 99.8031 107.291C99.6219 107.286 99.4436 107.226 99.2669 107.191C98.8441 106.362 99.3199 105.427 98.8853 104.586C97.1176 104.326 95.3234 104.642 93.5248 104.402C93.1477 103.559 93.5218 102.655 93.2272 101.73C92.9635 101.688 92.6556 101.618 92.3448 101.591C91.7909 101.541 91.2223 101.67 90.5874 101.425C90.5462 100.579 90.5049 99.7261 90.4652 98.9032C89.929 98.5598 89.3972 98.6929 88.8919 98.6899C85.3094 98.6778 81.7268 98.6839 78.1442 98.6839C77.6301 98.6839 77.1145 98.6839 76.6078 98.6839C76.1394 97.7551 76.5931 96.784 76.2086 95.8613C75.3792 95.8114 74.5499 95.7614 73.6616 95.7085C73.3906 93.8328 73.7014 91.9934 73.4731 90.1601C72.626 89.7532 71.6818 90.1798 70.77 89.8031C70.7552 89.2162 70.7287 88.6445 70.7317 88.0742C70.7317 87.7959 70.7847 87.5175 70.823 87.1545C71.7098 87.1031 72.5421 87.0547 73.4657 87.0002C73.6896 85.1472 73.4274 83.3124 73.6233 81.476C74.4615 81.0343 75.4043 81.4549 76.2204 81.1629C76.431 79.9604 76.4428 73.996 76.241 72.7088C75.4544 72.3503 74.5705 72.7405 73.7117 72.435C73.3508 71.6469 73.7176 70.7438 73.4362 69.8257C73.2212 69.7773 72.9649 69.6895 72.7026 69.6668C72.1002 69.6154 71.4844 69.7334 70.8156 69.5277C70.6433 68.6186 70.7493 67.7019 70.7287 66.7958C70.7081 65.8837 70.7169 64.9716 70.7125 64.0686C69.8198 63.642 68.936 64.0292 68.1228 63.7479C67.784 63.4499 67.9048 63.0369 67.9033 62.6694C67.893 59.7182 67.9136 56.767 67.8886 53.8174C67.8783 52.6118 67.7811 51.4077 67.7104 50.2037C67.703 50.0706 67.6043 49.942 67.5409 49.7968C66.8265 49.3732 65.9367 49.8497 65.1427 49.3021C64.9925 48.3991 65.0897 47.437 65.072 46.4826C65.0558 45.5644 65.0573 44.6447 65.072 43.725C65.0868 42.766 65.0028 41.8009 65.1442 40.8208C65.9824 40.4426 66.8604 40.7829 67.6691 40.55C67.9961 40.2399 67.8901 39.83 67.8915 39.4594C67.9004 36.5082 67.8945 33.557 67.9004 30.6074C67.9004 30.137 67.9401 29.665 67.9652 29.1084C68.8829 29.0539 69.7138 29.0055 70.5947 28.9526C70.8362 28.0177 70.6963 27.1011 70.7199 26.1965C70.7434 25.2829 70.7258 24.3677 70.7258 23.4647C71.6302 22.9791 72.573 23.4057 73.4716 23.082C73.6823 21.2487 73.423 19.4138 73.6351 17.5881C74.488 17.216 75.3675 17.5805 76.2351 17.2946C76.571 16.502 76.2307 15.6035 76.4958 14.6717C76.7581 14.6233 77.0645 14.5386 77.3753 14.5189C77.9306 14.4826 78.4875 14.4856 79.059 14.472C79.3772 13.5463 79.0693 12.6538 79.3153 11.7326C79.5348 11.6736 79.7941 11.5587 80.0563 11.5436C80.6176 11.5133 81.1817 11.5345 81.7283 11.5345C82.2321 10.6526 81.7533 9.72233 82.126 8.87374C82.9332 8.48953 83.8701 8.89794 84.8011 8.54853C84.8438 7.71052 84.8866 6.8589 84.9322 5.97552C85.847 5.66845 86.7441 5.83484 87.625 5.80913C88.5163 5.7819 89.409 5.80308 90.312 5.80308C90.7421 4.88037 90.3414 3.91984 90.667 2.98654C91.0971 2.9578 91.5096 2.92603 91.9235 2.90183C92.3404 2.87763 92.7573 2.86099 93.1933 2.84133C93.5498 1.96097 93.1889 1.05943 93.4776 0.142772C93.7516 0.0989051 94.0654 0.00663372 94.3806 0.00663372C101.216 -0.00244211 108.051 -0.00092948 114.886 0.00360843C115.206 0.00360843 115.524 0.0701649 115.923 0.114031C115.963 1.01859 116.001 1.87021 116.042 2.802C117.47 2.9941 118.828 2.86855 120.179 2.90032C121.537 2.93057 122.9 2.85494 124.205 2.94419C124.586 3.39495 124.439 3.84875 124.463 4.26623C124.486 4.69431 124.468 5.12542 124.468 5.62459C124.807 5.69417 125.069 5.79098 125.332 5.79552C126.51 5.81367 127.689 5.79854 128.867 5.81064C129.234 5.81518 129.601 5.8651 129.979 5.89686C130.299 6.78629 129.969 7.68481 130.24 8.5697C131.046 8.88584 131.921 8.56063 132.822 8.82383C132.864 9.07492 132.943 9.34418 132.948 9.61343C132.962 10.822 132.948 12.0321 132.961 13.2407C132.964 13.6159 133.017 13.991 133.052 14.4372C133.949 14.4887 134.78 14.5356 135.639 14.5855C135.963 15.4719 135.646 16.3674 135.888 17.2447C136.723 17.6365 137.672 17.1782 138.55 17.5926C138.594 18.4488 138.637 19.3019 138.685 20.2473C139.591 20.2927 140.419 20.335 141.296 20.3804C141.586 21.2668 141.328 22.1547 141.521 23.0487C142.355 23.4314 143.295 23.0306 144.202 23.3785C144.226 23.8111 144.249 24.2346 144.27 24.6582C144.29 25.0832 144.307 25.5083 144.327 25.9666C145.201 26.2918 146.074 25.9802 146.954 26.2298C147.287 27.0451 146.943 27.9421 147.214 28.8679C147.425 28.9147 147.681 29.001 147.944 29.0237C148.545 29.0751 149.16 28.9632 149.822 29.1507C149.857 29.5092 149.915 29.8329 149.916 30.1566C149.926 32.1397 149.922 34.1228 149.929 36.1074C149.931 36.5823 149.963 37.0573 149.982 37.5671C150.846 37.915 151.721 37.5822 152.622 37.8514C152.663 38.0995 152.744 38.3688 152.747 38.638C152.762 39.8466 152.747 41.0567 152.761 42.2653C152.764 42.6405 152.815 43.0156 152.85 43.4648C153.746 43.5163 154.575 43.5647 155.436 43.6131C155.748 44.501 155.442 45.395 155.688 46.3132C156.001 46.3555 156.314 46.4327 156.626 46.4342C158.606 46.4463 160.586 46.4327 162.565 46.4448C163.697 46.4508 164.827 46.4856 165.958 46.5189C166.189 46.5249 166.418 46.5839 166.705 46.6263C166.753 46.8728 166.837 47.0967 166.837 47.3221C166.862 53.5133 166.88 59.7046 166.893 65.8958C166.893 66.1288 166.851 66.3602 166.818 66.6779C165.934 66.7308 165.107 66.7807 164.23 66.8337C163.882 67.6974 164.227 68.5944 163.959 69.5035C163.177 69.8771 162.24 69.4853 161.332 69.803C161.302 70.1963 161.247 70.5684 161.246 70.9405C161.238 73.8432 161.244 76.746 161.24 79.6473C161.24 80.1222 161.209 80.5987 161.19 81.172C160.265 81.2416 159.4 81.3051 158.504 81.3732C158.27 83.2821 158.563 85.117 158.317 87.0002C157.433 87.0531 156.604 87.1016 155.73 87.1545C155.42 88.0364 155.726 88.9288 155.489 89.8258C154.673 90.1858 153.736 89.788 152.843 90.1374C152.625 91.9662 152.88 93.798 152.684 95.7009C151.802 95.7539 150.974 95.8053 150.094 95.8582C149.751 96.7159 150.071 97.6099 149.825 98.5311C149.607 98.5765 149.349 98.6566 149.085 98.6793C148.484 98.7277 147.868 98.6173 147.223 98.8034C146.949 99.6625 147.229 100.552 147.013 101.443C146.173 101.797 145.233 101.385 144.329 101.767C144.29 102.627 144.252 103.477 144.209 104.411C143.305 104.465 142.477 104.515 141.674 104.565C141.394 105.569 141.343 108.203 141.559 110.145C142.355 110.513 143.295 110.107 144.205 110.464C144.332 111.37 144.256 112.284 144.27 113.192C144.283 114.158 144.262 115.126 144.279 116.094C144.293 117.002 144.214 117.916 144.346 118.885C145.953 119.121 147.5 118.976 149.04 119.005C150.548 119.032 152.056 119.011 153.565 119.011C155.113 119.011 156.66 119.015 158.235 119.033C158.584 119.961 158.263 120.856 158.52 121.783C158.861 121.826 159.219 121.906 159.577 121.907C161.509 121.921 163.442 121.91 165.375 121.917C165.836 121.918 166.297 121.956 166.848 121.982C166.885 122.928 166.918 123.777 166.954 124.703C168.794 124.972 170.582 124.688 172.428 124.907C172.705 126.748 172.44 128.578 172.613 130.443C173.471 130.829 174.409 130.43 175.328 130.785C175.365 131.635 175.402 132.485 175.439 133.366C176.314 133.692 177.187 133.381 178.067 133.63C178.404 134.444 178.052 135.343 178.33 136.267C178.541 136.312 178.799 136.396 179.063 136.417C179.664 136.467 180.279 136.358 180.905 136.529C181.196 137.397 180.916 138.288 181.128 139.176C181.981 139.531 182.919 139.138 183.815 139.484C183.834 139.943 183.85 140.369 183.871 140.797C183.891 141.221 183.919 141.644 183.947 142.147C184.433 142.178 184.844 142.207 185.257 142.23C185.672 142.254 186.089 142.272 186.549 142.295C186.864 143.177 186.558 144.071 186.793 144.969C187.612 145.346 188.552 144.936 189.458 145.294C189.48 145.724 189.504 146.149 189.524 146.573C189.545 146.998 189.564 147.423 189.586 147.937C190.067 147.973 190.475 148.008 190.884 148.034C191.301 148.06 191.718 148.075 192.225 148.099C192.513 149.946 192.254 151.778 192.44 153.665C192.737 153.717 193.001 153.797 193.265 153.802C194.443 153.826 195.622 153.823 196.8 153.845C197.165 153.853 197.529 153.91 197.984 153.954V156.373C198.149 156.53 198.213 156.644 198.285 156.651C200.017 156.827 201.748 156.736 203.567 156.709C203.812 154.812 203.539 152.977 203.741 151.145C204.582 150.705 205.528 151.15 206.427 150.773C206.567 148.896 206.475 147.019 206.493 145.143C206.509 143.269 206.493 141.393 206.515 139.425C207.474 139.366 208.305 139.315 209.221 139.259C209.257 138.858 209.318 138.486 209.32 138.112C209.332 135.21 209.332 132.307 209.335 129.406C209.335 128.926 209.335 128.447 209.335 127.988C210.236 127.482 211.188 127.952 212.091 127.554C212.111 127.137 212.132 126.712 212.151 126.288C212.172 125.862 212.191 125.436 212.212 124.995C213.084 124.635 213.96 124.965 214.772 124.724C215.044 123.742 215.065 120.398 214.788 119.08C213.984 119.033 213.153 118.984 212.282 118.932C212.041 117.978 212.182 117.059 212.154 116.155C212.126 115.243 212.139 114.329 212.135 113.435C211.225 112.957 210.271 113.444 209.436 113.045C209.158 112.187 209.497 111.289 209.181 110.408C207.408 110.127 205.615 110.472 203.819 110.204C203.481 109.35 203.822 108.449 203.562 107.578C202.753 107.162 201.807 107.613 200.886 107.215C200.826 106.373 200.776 105.529 200.939 104.626C202.181 104.361 203.404 104.532 204.615 104.501C205.84 104.471 207.066 104.497 208.292 104.494C209.51 104.492 210.73 104.486 211.918 104.483C212.207 103.412 212.217 103.012 212.005 101.653C211.285 101.274 210.444 101.641 209.676 101.379C209.327 101.101 209.42 100.69 209.416 100.319C209.377 97.4178 209.351 94.5165 209.32 91.6168C209.315 91.1403 209.305 90.6638 209.298 90.1964C208.41 89.7714 207.524 90.1662 206.651 89.8546C206.328 88.9636 206.531 87.9955 206.503 87.0516C206.477 86.1486 206.434 85.235 206.558 84.3652C207.742 84.1065 210.634 84.0975 212.03 84.338C212.318 85.1366 212.007 86.0306 212.242 86.9185C213.07 87.3043 214.015 86.8716 214.885 87.2422C215.124 89.0695 214.831 90.9059 215.062 92.7316C215.921 93.0644 216.797 92.7286 217.668 93.0084C217.985 93.8253 217.652 94.7207 217.905 95.6056C218.449 95.9324 219.072 95.7645 219.664 95.7841C220.228 95.8038 220.794 95.7599 221.359 95.7539C221.969 95.7478 222.581 95.7539 223.126 95.7539C223.569 95.2623 223.422 94.7555 223.425 94.2927C223.445 89.6005 223.453 84.9082 223.463 80.216C223.463 79.6866 223.463 79.1587 223.463 78.6126C224.437 78.186 225.385 78.4205 226.305 78.3872C227.187 78.3555 228.08 78.3192 229.025 78.4538C229.193 79.4839 229.098 80.4459 229.115 81.3989C229.131 82.3171 229.118 83.2368 229.118 84.1564V89.962C229.118 90.8816 229.114 91.7998 229.118 92.7195C229.124 93.677 229.137 94.6345 229.149 95.6525C230.068 95.8809 230.899 95.7977 231.774 95.7221C232.106 94.8297 231.905 93.9069 231.939 93.0069C231.973 92.0918 231.947 91.1751 231.947 90.1964C232.268 90.1162 232.525 90.0119 232.788 89.9967C233.392 89.9604 233.997 89.9695 234.673 89.9574C234.921 88.05 234.639 86.2136 234.848 84.3803C235.694 83.9507 236.637 84.3848 237.549 84.0127C237.585 83.1626 237.622 82.311 237.662 81.4155C238.567 81.2007 239.393 81.2643 240.132 81.3323C240.258 81.4367 240.302 81.4609 240.328 81.4987C240.353 81.5365 240.374 81.588 240.374 81.6334C240.395 83.9053 240.414 86.1758 240.432 88.4478C240.434 88.8774 240.432 89.307 240.432 89.7699C239.537 90.2055 238.596 89.782 237.677 90.1556C237.537 91.0435 237.619 91.9541 237.606 92.8587C237.591 93.8252 237.599 94.7933 237.605 95.7614C237.609 96.6705 237.624 97.5796 237.634 98.457C238.689 98.7383 241.251 98.7928 243.098 98.5901C243.485 97.7672 243.058 96.8021 243.426 95.8658C244.253 95.8174 245.083 95.769 245.944 95.7191C246.269 94.8448 245.939 93.9478 246.196 93.0583C247.044 92.7725 247.906 92.8541 248.757 92.9918C248.971 94.2185 248.975 97.259 248.762 98.6143C247.96 98.6627 247.133 98.7141 246.263 98.7671C245.972 99.3948 246.118 100.029 246.094 100.637C246.072 101.216 246.09 101.797 246.09 102.378V104.335C245.711 104.397 245.406 104.468 245.097 104.492C244.543 104.535 243.974 104.432 243.342 104.635C243.194 105.554 243.277 106.466 243.264 107.369C243.25 108.336 243.264 109.304 243.26 110.272C243.255 111.183 243.242 112.093 243.233 113.037C242.321 113.399 241.386 113.021 240.517 113.353C240.29 115.214 240.577 117.05 240.339 118.935C239.455 118.988 238.627 119.036 237.75 119.089C237.435 119.968 237.748 120.861 237.507 121.758C236.697 122.131 235.756 121.714 234.872 122.074C234.713 122.935 234.77 123.779 234.828 124.695C236.669 124.961 238.456 124.732 240.261 124.907C240.585 125.789 240.268 126.686 240.515 127.569C241.355 127.926 242.293 127.525 243.198 127.881C243.242 128.743 243.285 129.593 243.329 130.467C244.203 130.79 245.075 130.478 245.975 130.737C246.255 132.541 245.972 134.373 246.147 136.232C246.994 136.653 247.937 136.222 248.824 136.586C248.855 136.813 248.908 137.043 248.917 137.273C249.086 142.071 248.975 181.338 248.782 182.738C248.005 183.041 247.13 182.711 246.235 182.988C246.191 183.236 246.106 183.504 246.103 183.773C246.087 184.982 246.101 186.192 246.09 187.4C246.087 187.775 246.038 188.151 246.006 188.594C245.111 188.647 244.282 188.697 243.401 188.75C243.182 189.409 243.286 190.038 243.269 190.651C243.252 191.23 243.269 191.811 243.264 192.392C243.26 193.014 243.247 193.635 243.236 194.337C242.905 194.39 242.64 194.464 242.374 194.467C241.196 194.481 240.018 194.467 238.839 194.481C238.474 194.486 238.11 194.546 237.665 194.588C237.625 195.508 237.59 196.358 237.55 197.296C236.647 197.35 235.818 197.4 234.94 197.452C234.602 198.316 234.927 199.21 234.692 200.051C234.352 200.394 233.906 200.271 233.499 200.273C230.671 200.285 227.842 200.276 225.014 200.282C224.553 200.282 224.092 200.324 223.609 200.349C223.316 201.262 223.59 202.152 223.382 203.023C222.874 203.272 222.349 203.174 221.847 203.176C216.379 203.183 210.911 203.18 205.443 203.18C204.359 203.18 203.274 203.185 202.19 203.177C201.816 203.174 201.442 203.144 200.985 203.123C200.935 202.776 200.873 202.459 200.845 202.14C200.797 201.574 200.931 200.988 200.693 200.38C199.329 200.176 197.967 200.324 196.612 200.28C195.255 200.237 193.891 200.374 192.521 200.187C192.145 199.326 192.534 198.42 192.223 197.509C191.946 197.47 191.632 197.39 191.317 197.385C190.186 197.369 189.055 197.385 187.923 197.373C187.559 197.369 187.197 197.31 186.757 197.267C186.715 196.345 186.677 195.494 186.637 194.601C184.793 194.295 182.999 194.643 181.206 194.384C180.832 193.54 181.216 192.634 180.942 191.81C180.02 191.503 176.77 191.465 175.514 191.754C175.477 191.873 175.401 192.005 175.401 192.138C175.392 195.572 175.389 199.007 175.39 202.441C175.39 202.625 175.442 202.811 175.474 203.034C176.311 203.356 177.184 203.034 178.092 203.3C178.13 203.657 178.204 204.023 178.205 204.389C178.214 207.34 178.205 210.291 178.216 213.241C178.217 213.713 178.104 214.207 178.414 214.725C179.206 214.773 180.036 214.825 180.933 214.879C180.97 215.325 181.026 215.697 181.028 216.071C181.037 218.974 181.034 221.876 181.041 224.778C181.041 225.253 181.075 225.728 181.095 226.236C181.96 226.579 182.834 226.251 183.625 226.484C184 226.868 183.859 227.328 183.86 227.743C183.874 230.839 183.868 233.934 183.868 237.03C183.868 241.626 183.872 246.221 183.863 250.816C183.863 251.337 183.956 251.874 183.722 252.449C182.885 252.498 182.056 252.548 181.141 252.603C181.104 252.987 181.047 253.309 181.045 253.631C181.034 255.614 181.037 257.598 181.028 259.581C181.026 260.057 180.997 260.532 180.979 261.052C180.128 261.402 179.251 261.06 178.382 261.334C177.99 262.16 178.406 263.122 178.079 264.052C177.657 264.079 177.245 264.108 176.834 264.134C176.418 264.159 176.002 264.181 175.685 264.197C175.555 264.306 175.511 264.332 175.484 264.37C175.459 264.407 175.44 264.459 175.44 264.504C175.421 267.936 175.403 271.37 175.389 274.802C175.389 275.038 175.418 275.273 175.433 275.501C175.891 275.867 176.379 275.704 176.831 275.743C177.243 275.778 177.656 275.801 178.11 275.831C178.313 277.158 178.189 278.41 178.21 279.655C178.232 280.96 178.214 282.267 178.214 283.573V291.119C178.214 292.425 178.207 293.732 178.216 295.037C178.224 296.285 178.174 297.534 178.257 298.868C178.759 298.905 179.167 298.94 179.578 298.964C179.995 298.989 180.412 299.005 180.919 299.029C180.964 299.396 181.035 299.716 181.037 300.033C181.047 302.258 181.042 304.483 181.042 306.708C181.042 314.158 181.044 321.608 181.045 329.058C181.045 329.584 181.045 330.109 181.045 330.666C181.944 331.116 182.888 330.684 183.799 331.059C183.94 332 183.852 332.96 183.866 333.915C183.88 334.835 183.869 335.753 183.869 336.672C183.869 337.641 183.868 338.607 183.872 339.575C183.877 340.486 183.891 341.395 183.9 342.33C184.791 342.685 185.666 342.355 186.567 342.623C186.608 342.873 186.673 343.14 186.692 343.413C186.714 343.75 186.699 344.089 186.699 344.428C186.699 358.65 186.699 372.872 186.696 387.093C186.696 387.662 186.774 388.244 186.568 388.872C185.718 388.924 184.887 388.972 184.014 389.025C183.71 389.91 184.008 390.801 183.778 391.698C182.963 392.074 182.022 391.659 181.119 392.035C180.936 393.85 181.15 395.681 180.984 397.493C180.069 397.857 179.129 397.437 178.238 397.86C178.199 398.67 178.161 399.479 178.126 400.249C177.719 400.622 177.276 400.506 176.868 400.509C174.039 400.535 171.211 400.541 168.384 400.568C167.926 400.573 167.438 400.445 166.927 400.837V403.286C166.538 403.354 166.231 403.448 165.921 403.454C164.79 403.474 163.659 403.456 162.527 403.468C162.16 403.471 161.792 403.518 161.52 403.539C161.399 403.657 161.356 403.684 161.334 403.723C161.31 403.763 161.297 403.814 161.294 403.861C161.277 404.15 161.249 404.439 161.249 404.728C161.254 410.919 161.263 417.11 161.275 423.303C161.275 423.391 161.337 423.478 161.399 423.645C162.181 424.014 163.128 423.559 164.043 423.979V426.31C164.514 426.83 165.015 426.678 165.465 426.679C169.141 426.691 172.818 426.684 176.495 426.688C177.006 426.688 177.516 426.72 178.062 426.74C178.386 427.635 178.076 428.529 178.292 429.338C178.674 429.704 179.12 429.58 179.527 429.582C182.355 429.594 185.183 429.583 188.012 429.596C188.471 429.597 188.954 429.478 189.443 429.8C189.684 431.573 189.385 433.409 189.617 435.238C190.475 435.571 191.351 435.238 192.248 435.521C192.284 435.732 192.354 435.956 192.354 436.182C192.36 439.568 192.357 442.954 192.351 446.341C192.351 446.48 192.309 446.62 192.27 446.849C192.024 446.897 191.764 446.992 191.501 446.992C186.458 447.002 181.414 447.002 176.37 446.997C176.097 446.997 175.826 446.938 175.462 446.896C175.417 445.996 175.374 445.143 175.327 444.196C173.512 443.955 171.721 444.238 169.924 444.02C169.499 443.168 169.952 442.197 169.557 441.249C166.858 441.11 164.137 441.281 161.437 441.151C161.048 440.231 161.43 439.326 161.148 438.502C160.11 438.218 156.82 438.212 155.629 438.516V440.945C155.386 441.043 155.219 441.169 155.053 441.169C151.659 441.181 148.265 441.181 144.871 441.176C144.737 441.176 144.603 441.111 144.42 441.064C144.096 440.249 144.433 439.349 144.177 438.476C143.37 438.059 142.424 438.508 141.521 438.121C141.497 437.699 141.472 437.275 141.452 436.852C141.43 436.425 141.412 435.999 141.388 435.48C140.91 435.448 140.497 435.415 140.086 435.393C139.666 435.372 139.245 435.362 138.797 435.345C138.485 434.45 138.647 433.592 138.678 432.653C139.005 432.595 139.314 432.515 139.625 432.494C140.179 432.457 140.736 432.459 141.343 432.442C141.545 430.957 141.409 429.561 141.45 428.171C141.49 426.778 141.371 425.378 141.531 423.961C142.371 423.595 143.249 423.929 144.061 423.695C144.342 422.771 144.376 419.461 144.097 418.045C143.295 418.001 142.462 417.954 141.656 417.91C141.325 417.36 141.459 416.814 141.458 416.296C141.444 411.653 141.449 407.009 141.447 402.365C141.447 401.837 141.447 401.309 141.447 400.69C140.992 400.642 140.631 400.572 140.269 400.571C138.336 400.559 136.403 400.569 134.471 400.556C134.013 400.553 133.532 400.663 133.017 400.344C132.983 399.524 132.946 398.674 132.906 397.735C131.989 397.685 131.156 397.639 130.311 397.594C129.938 396.721 130.302 395.818 130.028 394.936C129.232 394.517 128.285 394.971 127.39 394.584C127.363 394.215 127.316 393.838 127.312 393.463C127.194 382.938 127.27 369.917 127.46 368.775C128.247 368.439 129.126 368.798 129.959 368.527C130.277 368.06 130.128 367.509 130.13 366.995C130.143 362.351 130.137 357.707 130.137 353.063V351.398C130.515 351.33 130.822 351.247 131.134 351.226C131.69 351.189 132.246 351.192 132.852 351.177C132.897 350.855 132.951 350.625 132.959 350.394C133.098 346.467 133.004 329.416 132.837 328.171C132.055 327.786 131.167 328.19 130.346 327.89C130.015 327.538 130.146 327.079 130.144 326.665C130.134 322.795 130.14 318.925 130.135 315.055C130.135 314.585 130.097 314.114 130.072 313.561C129.15 313.508 128.318 313.461 127.481 313.413C127.104 312.532 127.487 311.626 127.18 310.712C126.902 310.672 126.588 310.587 126.274 310.587C121.325 310.578 116.375 310.579 111.426 310.587C111.108 310.587 110.789 310.658 110.395 310.705C110.352 311.611 110.314 312.461 110.271 313.382C108.369 313.574 106.541 313.452 104.717 313.481C102.888 313.509 101.057 313.45 99.1858 313.529C98.8588 314.441 99.1696 315.334 98.9177 316.264C98.5848 316.303 98.2254 316.379 97.8674 316.38C95.9347 316.392 94.002 316.38 92.0693 316.392C91.6097 316.395 91.1266 316.279 90.5933 316.615C90.558 317.406 90.5211 318.254 90.4799 319.183C90.1455 319.223 89.8759 319.279 89.6078 319.282C88.4293 319.292 87.2509 319.28 86.0724 319.295C85.7085 319.3 85.3447 319.365 84.9072 319.409C84.8718 320.297 84.8379 321.106 84.8041 321.956C83.957 322.379 83.0098 321.948 82.1289 322.325C82.0936 322.567 82.0391 322.795 82.0302 323.027C81.936 325.39 82.042 332.581 82.1908 333.667C82.9642 333.995 83.8407 333.646 84.7407 333.928C84.782 334.166 84.8704 334.434 84.8718 334.703C84.8807 339.928 84.8807 345.152 84.8762 350.375C84.8762 350.607 84.8247 350.838 84.7879 351.142C83.904 351.195 83.0747 351.244 82.1996 351.297C81.8844 352.175 82.1952 353.069 81.9551 353.965C81.1435 354.342 80.2021 353.917 79.28 354.301C79.2446 355.143 79.2093 355.993 79.1695 356.94C78.2753 356.993 77.446 357.043 76.6608 357.09C76.2616 357.501 76.4296 357.96 76.4016 358.376C76.3736 358.804 76.3957 359.235 76.3957 359.742C76.7227 359.813 76.9805 359.898 77.2427 359.919C77.8437 359.967 78.458 359.866 79.115 360.034C79.389 361.881 79.0738 363.717 79.3021 365.573C80.1314 365.924 81.0079 365.574 81.908 365.856C81.9507 366.09 82.0391 366.357 82.042 366.626C82.0582 367.834 82.0435 369.044 82.0553 370.253C82.0582 370.63 82.1083 371.005 82.1422 371.468C83.0334 371.516 83.8628 371.56 84.7643 371.608C85.0339 373.48 84.7525 375.313 84.9425 377.175C85.8043 377.556 86.7456 377.142 87.6162 377.499C87.8578 379.33 87.5617 381.167 87.7944 382.999C88.6547 383.306 89.5253 383.018 90.3915 383.248C90.7185 384.086 90.3841 384.982 90.6478 385.9C90.8806 385.945 91.1428 386.038 91.4065 386.042C92.5849 386.06 93.7634 386.045 94.9419 386.057C95.3087 386.062 95.6755 386.115 96.0555 386.146C96.3354 387.042 96.0732 387.931 96.278 388.809C97.1176 389.126 97.9912 388.812 98.8647 389.061C98.9118 389.229 99.0032 389.403 99.0032 389.579C99.0105 393.061 99.0061 396.544 99.0032 400.026C99.0032 400.119 98.9649 400.211 98.9236 400.397C98.7012 400.447 98.4419 400.55 98.1812 400.554C97.0027 400.574 95.8242 400.559 94.6458 400.569C94.2775 400.572 93.9107 400.619 93.5012 400.648C93.211 401.538 93.4968 402.427 93.295 403.235C92.8943 403.577 92.4538 403.46 92.0458 403.462C89.2175 403.472 86.3891 403.462 83.5608 403.474C83.1012 403.475 82.6165 403.354 82.1083 403.71C82.0715 404.504 82.0332 405.354 81.989 406.295C80.1462 406.479 78.3622 406.268 76.5533 406.431C76.213 407.316 76.5489 408.211 76.2852 409.114C75.4927 409.483 74.5558 409.092 73.6867 409.402C73.4127 410.262 73.6955 411.152 73.4613 412.081C72.5848 412.146 71.7171 412.209 70.7596 412.279V414.884C70.3663 414.953 70.0599 415.05 69.7506 415.056C68.6192 415.079 67.4879 415.065 66.3566 415.08C65.9883 415.085 65.62 415.13 65.2149 415.16C64.9395 416.053 65.1928 416.939 64.9925 417.854C64.7126 417.897 64.446 417.968 64.1794 417.971C63.0009 417.985 61.8224 417.971 60.6439 417.985C60.2786 417.989 59.9148 418.053 59.4846 418.095C59.4419 419.019 59.4021 419.869 59.3594 420.789C59.0088 420.824 58.7378 420.869 58.4667 420.877C53.8132 421.007 46.6849 420.936 45.4284 420.744C45.0734 419.943 45.4593 419.037 45.1515 418.118C44.8848 418.077 44.574 417.991 44.2632 417.986C43.1319 417.968 42.0005 417.986 40.8692 417.972C40.5039 417.968 40.14 417.912 39.7983 417.88C39.5685 416.658 39.564 413.575 39.7938 412.264C40.1798 412.235 40.5908 412.193 41.0018 412.177C41.4201 412.162 41.8385 412.174 42.2745 412.174C42.5942 411.187 42.4145 410.266 42.4454 409.362C42.4763 408.447 42.4528 407.529 42.4528 406.626C43.344 406.107 44.2927 406.582 45.206 406.207C45.231 405.8 45.259 405.378 45.2796 404.955C45.3002 404.527 45.315 404.097 45.3327 403.642C46.2577 403.327 47.1549 403.495 48.0358 403.469C48.927 403.442 49.8197 403.463 50.789 403.463C50.8464 403.067 50.9083 402.751 50.9333 402.43C50.979 401.864 50.8597 401.282 51.0703 400.666C52.8557 400.397 54.647 400.709 56.4397 400.479C56.7874 399.615 56.428 398.715 56.724 397.777C57.0393 397.741 57.4002 397.665 57.7611 397.664C59.6938 397.652 61.6265 397.664 63.5592 397.655C64.0188 397.653 64.4769 397.608 65.0161 397.579C65.0603 396.644 65.1 395.794 65.1398 394.938C66.0119 394.56 66.8928 394.921 67.759 394.638C68.0963 393.846 67.756 392.947 68.0197 392.014C68.2819 391.966 68.5883 391.881 68.8977 391.861C69.453 391.825 70.0098 391.829 70.6138 391.814C70.848 390.483 70.7051 389.231 70.7302 387.989C70.7552 386.732 70.7361 385.473 70.7361 384.216V380.477C69.8198 379.999 68.8697 380.469 67.9843 380.066C67.7648 378.252 68.0595 376.417 67.8031 374.514C66.9311 374.466 66.1003 374.42 65.2503 374.372C64.8968 373.499 65.2297 372.599 64.9807 371.72C64.1749 371.298 63.2292 371.748 62.3233 371.362C62.2997 370.947 62.2732 370.524 62.2511 370.1C62.229 369.674 62.2143 369.246 62.1951 368.815C61.3304 368.435 60.4569 368.799 59.5347 368.492L59.5229 368.486Z" fill="#C74336"/>
</svg>
