<svg width="659" height="621" viewBox="0 0 659 621" fill="none" xmlns="http://www.w3.org/2000/svg">
<g clip-path="url(#clip0_160_5)">
<path d="M210.377 392.786C209.831 379.502 209.322 366.967 208.748 353.016C185.328 385.979 168.036 420.361 156.907 458.939C194.895 448.886 230.475 434.601 265.663 414.754C251.803 413.081 239.344 411.576 225.957 409.966C231.808 404.514 236.886 399.76 241.984 395.024C294.847 345.946 347.729 296.886 400.536 247.747C403.072 245.391 405.587 244.442 408.994 244.671C415.628 245.122 422.312 244.949 428.926 245.568C433.104 245.957 436.134 244.901 439.14 241.942C446.255 234.928 453.6 228.137 461.085 221.515C463.464 219.411 463.836 217.578 463.061 214.628C459.526 201.246 456.473 187.734 452.762 174.403C451.015 168.129 450.78 162.063 451.8 155.708C453.062 147.838 453.895 139.9 455.037 131.048C453.243 132.478 452.066 133.302 451.022 134.272C430.621 153.187 410.186 172.067 389.938 191.147C388.303 192.685 387.154 195.623 387.178 197.892C387.274 206.718 388.073 215.53 388.271 224.354C388.313 226.238 387.493 228.736 386.163 229.975C328.511 283.689 270.756 337.287 213.007 390.897C212.446 391.419 211.763 391.806 210.38 392.793L210.377 392.786Z" fill="#689B8B" fill-opacity="0.7"/>
<path d="M285.245 359.537C275.369 368.698 265.868 377.518 255.811 386.846C261.848 391.801 267.447 396.921 273.594 401.277C278.385 404.672 280.008 407.909 278.264 414.005C275.174 424.794 274.754 436.006 276.618 447.162C280.148 468.288 292.385 483.108 310.655 493.279C334.002 506.276 359.413 511.037 385.728 509.359C395.106 508.76 404.224 504.102 413.475 501.366C439.826 493.576 466.15 485.695 492.568 478.147C498.453 476.464 504.662 475.684 510.778 475.092C515.18 474.665 517.192 472.32 518.477 468.563C521.193 460.583 520.105 452.731 517.428 445.069C517.04 443.956 514.33 442.808 512.922 443.039C501.429 444.937 489.939 446.933 478.541 449.332C451.007 455.121 423.659 461.989 395.409 463.522C382.748 464.209 370.177 463.716 357.796 460.451C338.367 455.322 325.171 439.328 323.732 417.805C323.18 409.56 324.196 401.214 324.205 392.919C324.205 391.09 323.532 388.546 322.233 387.539C310.174 378.172 297.911 369.071 285.243 359.541L285.245 359.537Z" fill="#689B8B" fill-opacity="0.7"/>
<path d="M235.652 365.16C245.668 355.88 255.166 347.08 264.92 338.046C264.159 336.653 263.538 335.348 262.767 334.138C255.445 322.603 247.996 311.145 240.826 299.517C239.183 296.852 237.422 296.005 234.404 296.229C223.041 297.059 211.729 296.408 200.864 292.806C181.235 286.298 171.756 271.652 169.298 251.827C167.142 234.404 169.207 217.146 173.474 200.351C179.993 174.7 187.635 149.335 194.659 123.814C196.773 116.141 198.42 108.337 200.352 100.31C190.666 96.5615 181.521 93.6445 171.817 97.7416C170.251 98.4016 168.351 100.105 168.032 101.623C160.228 138.975 144.495 173.515 129.734 208.328C123.615 222.764 121.28 237.225 122.347 252.573C123.822 273.757 127.81 294.168 139.499 312.44C152.393 332.592 171.219 341.61 194.597 341.863C200.884 341.931 207.24 341.249 213.463 340.261C216.999 339.7 218.858 340.635 220.733 343.518C225.362 350.624 230.324 357.507 235.64 365.177L235.652 365.16Z" fill="#689B8B" fill-opacity="0.7"/>
<path d="M452.607 161.514C456.227 176.25 459.541 189.821 462.898 203.388C482.303 281.886 501.627 360.411 521.218 438.861C524.716 452.872 522.936 466.63 521.33 480.513C520.58 486.983 522.248 489.492 529.38 492.431C534.716 494.632 539.179 493.533 542.52 488.661C544.738 485.429 546.64 482.143 545.48 477.599C527.862 408.46 510.335 339.294 492.922 270.099C484.989 238.574 477.591 206.908 469.331 175.464C468.108 170.798 463.781 166.738 460.242 163.006C458.949 161.642 455.783 162.057 452.602 161.512L452.607 161.514Z" fill="#689B8B" fill-opacity="0.7"/>
<path d="M426.728 152.061C415.626 148.567 405.488 145.337 395.327 142.177C374.658 135.749 353.976 129.364 333.302 122.95C312.312 116.44 291.325 109.925 270.34 103.39C249.994 97.0509 229.583 90.9105 209.34 84.2536C194.948 79.5202 180.777 74.0991 166.526 68.9294C161.297 67.0292 157.478 69.8502 153.893 72.7934C150.43 75.636 149.927 79.5669 151.382 83.7165C151.878 85.1308 152.544 86.4807 153.135 87.8587C154.781 91.7107 157.027 93.5915 161.864 93.1649C174.617 92.043 187.507 91.2668 200.036 94.8763C212.033 98.333 223.902 102.247 235.833 105.93C256.197 112.212 276.566 118.469 296.933 124.742C316.348 130.723 335.764 136.689 355.166 142.702C374.565 148.72 393.933 154.843 413.369 160.747C414.814 161.186 417.048 160.755 418.265 159.846C421.032 157.792 423.389 155.191 426.727 152.05L426.728 152.061Z" fill="#689B8B" fill-opacity="0.7"/>
<path d="M200.897 76.4036C202.54 59.6281 202.78 43.8097 195.577 28.7615C190.33 17.8042 181.62 10.3223 171.466 4.29056C170.552 3.74622 168.526 4.04729 167.582 4.73507C153.279 15.2087 146.555 29.656 145.976 47.1224C145.934 48.2908 147.265 49.9704 148.403 50.6112C150.999 52.0662 154.013 52.785 156.597 54.2565C159.004 55.6236 162.165 57.1264 163.097 59.3625C165.702 65.6113 170.824 67.259 176.504 68.8549C184.493 71.0969 192.37 73.7441 200.9 76.4101L200.897 76.4036Z" fill="#689B8B" fill-opacity="0.7"/>
<path d="M540.564 443.195C543.237 454.745 545.637 465.282 548.153 475.786C548.442 476.998 549.091 478.679 550.035 479.085C557.53 482.344 559.885 489.151 561.761 496.095C562.787 499.903 564.642 500.863 568.416 500.781C584.339 500.442 597.932 495.129 608.809 483.195C610.67 481.154 610.982 479.784 609.75 477.217C599.7 456.32 582.569 446.13 560.08 444.035C553.837 443.454 547.541 443.474 540.566 443.19L540.564 443.195Z" fill="#689B8B" fill-opacity="0.7"/>
<path d="M501.51 182.453C492.302 183.136 483.095 183.815 473.469 184.527C475.432 191.282 477.229 197.486 479.257 204.465C487.116 197.202 494.518 190.364 501.921 183.521C501.783 183.165 501.644 182.808 501.51 182.453Z" fill="#689B8B" fill-opacity="0.7"/>
</g>
<defs>
<clipPath id="clip0_160_5">
<rect width="426.541" height="597.614" fill="white" transform="matrix(-0.377404 0.926049 0.926049 0.377404 160.979 0)"/>
</clipPath>
</defs>
</svg>
