<svg width="538" height="574" viewBox="0 0 538 574" fill="none" xmlns="http://www.w3.org/2000/svg">
<g opacity="0.3" clip-path="url(#clip0_34_123)">
<path d="M291.55 454.97L281.14 465.15L271.65 470.28L254.96 477.03L243.89 483.02L215.55 496.07L193.71 501.06L154.42 522.31L134.02 533.34L127.03 537.12L119.68 536.55L105.75 548.63L88.99 553.15L75.59 560.4L68.01 564.5L59.27 569.23L38.54 573.62L31.14 566.25L32.68 558.59L40.05 554.6L46.47 542.04L45.35 521.05L46.89 513.39L44.19 502.37L47.86 487.86L27.91 465.68L18.85 434.2L10.29 418.37L6.01002 410.45L0.0200195 390.95L4.80002 372.45L6.87002 353.14L11.73 328.06L15.11 303.21L21.79 288.23L41.02 246L43.99 240.98L44.44 227.09L50.5 206.76L59.53 181.41L68.44 166.36L79.18 152.59L92.87 145.19L104.55 134.33L113.92 126.44L128.25 118.69L148.6 112.78L162.27 106.52L172.9 103.05L180.74 96.53L191.37 93.06L195.03 95.63L198.88 90.14L204.23 89.52L208.77 91.61L211.74 86.59L213.9 84.28L217.01 83.73L221.96 84.47L225.48 82.57L229 80.67L231.71 81.48L234.49 84.52L240.5 76.72L246.85 65.33L250.7 59.84L251.91 55.77L256.71 52.04L261.18 46.8L263.05 40.65L265.21 38.34L270.34 31.02L272.91 27.36L276.36 23.22L280.21 17.73L284.14 15.6L287.17 11.69L290.21 8.91L293.07 7.36L296.3 3.34L302.48 0L305.16 0.82L307.87 1.63L318.26 18.75L315.22 21.53L311.23 22.55L310.42 25.26L312.87 31.89L319.72 36.14L327.45 39.92L334.15 39.7L338.69 41.79L340.4 44.95L368.04 91.86L368.91 93.47L368.18 96.33L363.23 95.59L359.64 95.26L357.48 97.57L358.5 101.56L362.57 102.77L365.28 103.58L370.23 104.32L373.96 109.12L380.26 110.26L381.31 112.21L383.27 115.84L385.09 119.21L385.63 124.41L386.65 128.4L388.55 131.92L390.12 139.03L390.26 143.5L389.93 147.09L388.24 150.28L385.05 148.59L377.18 140.34L372.64 138.25L369.45 136.56L364.5 135.82L359.08 134.2L353.73 134.82L346.95 132.8L342.48 132.94C342.48 132.94 341.12 132.54 338.89 132.61C336.66 132.68 332.59 131.47 332.59 131.47L324.53 131.28L319.58 130.54C319.58 130.54 313.28 129.4 311.04 129.47C308.8 129.54 305.21 129.21 305.21 129.21C305.21 129.21 299.93 132.06 299.46 131.18C298.99 130.3 291.4 130.99 291.4 130.99C291.4 130.99 285.57 130.73 284.7 131.21C283.83 131.69 278 131.43 278 131.43L273.13 132.93L269.61 134.83L267.99 140.25L265.42 143.91L264.61 146.62L272.19 145.93L274.9 146.74L279.77 145.24L282.88 144.69L289.51 142.24L293.98 142.1L296.62 140.67L300.21 141L309.22 142.95L311.53 145.11L313.84 147.27L317.91 148.48L321.02 147.93L326.99 152.66C326.99 152.66 329.22 152.59 330.58 152.99C331.94 153.39 334.24 155.56 334.24 155.56L335.67 158.2L339.33 160.77C339.33 160.77 342.92 161.1 343.4 161.98C343.88 162.86 346.11 162.79 346.11 162.79C346.11 162.79 348.34 162.72 351.06 163.53C353.77 164.34 358.31 166.43 358.31 166.43C358.31 166.43 362.3 165.41 364.61 167.57C366.92 169.73 367.8 169.26 370.1 171.42C372.4 173.58 374.24 174.87 376.07 176.15C377.9 177.43 379.73 178.72 382.44 179.53C385.15 180.34 388.81 182.91 388.81 182.91L396.47 184.45L402.37 186.95C402.37 186.95 403.73 187.35 406.91 189.04C410.1 190.73 410.57 191.61 412.4 192.89C414.23 194.17 421.82 193.48 422.77 195.24C423.72 197 423.32 198.35 425.15 199.64C426.98 200.93 428.41 203.56 428.41 203.56L433.1 208.04L443.12 216.07L448.14 219.04C448.14 219.04 450.99 224.32 452.35 224.72C453.71 225.12 462.31 228.43 462.31 228.43L463.42 230.48L467.2 237.47L472.63 243.31L475.12 247.92L475.96 249.47L480.8 255.52C480.8 255.52 481.53 255.56 482.88 255.96C484.24 256.36 496.98 263.11 496.98 263.11L502.07 268.32L509.94 276.57L513.61 283.35L521.33 282.91L529.32 280.86L537.45 283.28L537.12 286.87L536.46 294.05L531.59 295.55L521.37 297.67L514.33 301.48L511.22 302.03L507.3 305.29L505.68 310.71L501.83 316.2L494.86 322.24L490.46 324.62L485.66 328.35L478.22 333.51L469.09 341.86C469.09 341.86 461.65 347.02 459.01 348.45C456.37 349.88 443.98 354.3 443.98 354.3L427.2 361.1C427.2 361.1 411.44 371.9 410.15 373.73C408.86 375.56 394.46 386.76 392.7 387.71C390.94 388.66 372.14 402.24 372.14 402.24L362.39 405.24L354.14 413.11L339.26 423.43L323.02 433.35L308.54 442.32L299.74 447.08L291.49 454.95L291.55 454.97Z" fill="#A67C52"/>
<path d="M195.01 95.6401L199.42 103.8L204.18 112.61L207.26 118.31L212.79 120.13L220.85 120.32L222.96 124.22L227.3 125.93L229.1 129.27L231.06 132.9L235.17 134.19L236.92 137.43L241.68 142.03L243.16 144.77C243.16 144.77 243.32 147.16 244.84 147.88C246.36 148.6 247.09 149.95 246.8 151.51C246.51 153.07 244.82 156.26 244.82 156.26L250.12 156.08L252.88 156.45L251.81 164.99L247.33 169.31L242.83 177.8L244.94 188.01L247.95 197.77L253.44 201.62L257.58 205.07C257.58 205.07 258.6 209.06 260.03 211.7C261.46 214.34 267.97 222.18 267.97 222.18C267.97 222.18 271.63 224.75 272.99 225.15C274.35 225.55 281.47 234.53 281.47 234.53L285.95 238.6C285.95 238.6 290.09 242.05 291.92 243.33C293.75 244.61 298.7 245.35 299.65 247.11C300.6 248.87 304.36 251.61 304.36 251.61L306.97 252.24L314.41 247.08L316.1 243.89L319.62 241.99L320.36 237.04L314.87 233.19L308.09 231.17C308.09 231.17 305.38 230.36 304.02 229.96C302.66 229.56 299 226.99 297.65 226.58C296.29 226.18 293.11 224.49 292.63 223.61C292.15 222.73 281.86 212.11 280.77 211.13C279.68 210.15 270.04 202.86 270.04 202.86L268.14 199.34L263.05 194.13L259.72 187.97L257.82 184.45L254.42 176.06L253.73 168.48L255.2 158.59L257.22 151.81L258.43 147.74L256.53 144.22L254.7 142.94C254.7 142.94 251.92 139.9 251.44 139.02C250.96 138.14 247.63 131.98 247.63 131.98L245.25 127.58L242.87 123.18L240.97 119.66L234.12 115.41C234.12 115.41 225.91 112.84 226.55 110.88C227.2 108.92 223.19 104.66 223.19 104.66C223.19 104.66 218.92 102.02 217.97 100.26C217.02 98.5001 214.09 90.9901 214.09 90.9901L210.4 88.8101" fill="#A67C52"/>
<path d="M234.47 84.53L240.2 95.13L241.27 101.31L245.38 104.71L248.66 108.68C248.66 108.68 253.15 114.87 254.6 115.46C256.05 116.05 258.66 122.97 258.66 122.97L262.57 123.89C262.57 123.89 267.59 126.86 268.06 127.74C268.53 128.62 271.39 133.9 271.39 133.9" fill="#A67C52"/>
<path d="M262.42 146.72L266.11 164.05L270.94 175.08L279.96 185.45L287.36 192.83L294.48 197.59L301.28 200.7L306.35 204.82L314.01 206.36L320.86 210.61L327.71 213.16C327.71 213.16 329.87 212.56 331.7 213.84C333.53 215.12 338.95 216.74 338.95 216.74C338.95 216.74 343.02 217.95 344.85 219.24C346.68 220.52 350.27 220.86 350.75 221.74C351.23 222.62 355.77 224.71 355.77 224.71C355.77 224.71 360.93 232.15 362.29 232.55C363.65 232.95 364.67 236.95 366.02 237.35C367.38 237.75 371.58 243.44 371.58 243.44C371.58 243.44 374.43 248.72 374.51 250.95C374.59 253.18 375.13 256.3 376.48 256.7C377.83 257.1 377.84 257.1 379.74 260.62C381.64 264.14 383.07 266.78 383.07 266.78L376.66 270.24L374.2 269.3L372.18 276.08L368.73 280.22C368.73 280.22 366.83 276.7 365.88 274.94C364.93 273.18 363.36 266.07 363.36 266.07L360.51 260.79L357.18 254.63L355.28 251.11L341.51 240.37C341.51 240.37 337.85 237.8 336.02 236.52C334.19 235.24 327.82 231.86 327.82 231.86L321.97 227.35L316.84 224.16C316.84 224.16 311.53 223.62 310.12 222.68C308.71 221.74 306.4 219.57 305.05 219.17C303.69 218.77 294.14 213.7 292.78 213.3C291.42 212.9 275.97 205.34 275.97 205.34L274.58 202.77" fill="#A67C52"/>
</g>
<defs>
<clipPath id="clip0_34_123">
<rect width="537.51" height="573.6" fill="white"/>
</clipPath>
</defs>
</svg>
