<svg width="242" height="242" viewBox="0 0 242 242" fill="none" xmlns="http://www.w3.org/2000/svg">
<path d="M126.851 118.032C127.002 118.057 127.153 118.101 127.304 118.102C128.93 118.107 130.556 118.105 132.181 118.103C132.306 118.103 132.431 118.081 132.535 118.071C132.727 117.841 132.669 117.6 132.669 117.377C132.676 115.983 132.671 114.59 132.674 113.196C132.674 112.942 132.694 112.688 132.706 112.416C133.002 112.277 133.287 112.326 133.561 112.326C136.813 112.322 140.065 112.324 143.316 112.322C143.596 112.322 143.875 112.306 144.106 112.299C144.356 112.069 144.281 111.821 144.283 111.6C144.291 110.18 144.285 108.761 144.29 107.342C144.291 107.09 144.233 106.825 144.406 106.542C144.528 106.528 144.675 106.502 144.823 106.494C145.002 106.485 145.184 106.491 145.365 106.491C162.061 106.491 178.757 106.491 195.454 106.493C195.783 106.493 196.119 106.451 196.49 106.568C196.552 107.196 196.515 107.811 196.521 108.424C196.527 109.069 196.521 109.715 196.523 110.359C196.525 110.975 196.531 111.59 196.535 112.177C196.84 112.397 197.134 112.318 197.408 112.319C199.886 112.326 202.363 112.323 204.84 112.323C205.64 112.323 206.44 112.323 207.24 112.323C207.497 112.323 207.753 112.323 207.958 112.323C208.186 112.535 208.133 112.753 208.134 112.951C208.139 114.345 208.136 115.738 208.136 117.132C208.136 117.413 208.136 117.694 208.136 117.927C208.378 118.165 208.622 118.101 208.844 118.102C210.238 118.108 211.632 118.104 213.025 118.107C213.279 118.107 213.534 118.123 213.756 118.13C213.99 118.351 213.916 118.598 213.917 118.819C213.924 120.239 213.919 121.658 213.922 123.077C213.922 123.329 213.947 123.581 213.963 123.88C214.233 123.901 214.457 123.932 214.681 123.933C216.074 123.938 217.468 123.936 218.861 123.936C219.117 123.936 219.372 123.936 219.68 123.936C219.706 124.18 219.744 124.377 219.744 124.574C219.75 125.993 219.746 127.412 219.748 128.832C219.748 129.087 219.764 129.341 219.772 129.568C220.001 129.777 220.243 129.713 220.465 129.714C221.858 129.721 223.252 129.716 224.645 129.719C224.9 129.719 225.154 129.737 225.374 129.745C225.6 129.973 225.528 130.219 225.529 130.44C225.536 131.86 225.53 133.279 225.534 134.699C225.534 134.951 225.56 135.201 225.576 135.498C225.85 135.518 226.074 135.548 226.298 135.548C227.691 135.552 229.085 135.551 230.478 135.551C230.733 135.551 230.989 135.551 231.215 135.551C231.437 135.859 231.355 136.152 231.355 136.426C231.362 139.626 231.359 142.826 231.359 146.026V146.965C231.573 147.207 231.79 147.16 231.99 147.16C233.409 147.164 234.829 147.163 236.248 147.163C236.503 147.163 236.758 147.163 237.05 147.163C237.086 147.348 237.128 147.491 237.138 147.636C237.153 147.842 237.144 148.049 237.144 148.256C237.144 164.927 237.144 181.598 237.144 198.27C237.144 198.601 237.133 198.931 237.127 199.304C236.882 199.327 236.683 199.363 236.486 199.364C235.067 199.369 233.647 199.365 232.228 199.369C231.976 199.369 231.722 199.391 231.459 199.403C231.318 199.707 231.363 199.993 231.363 200.268C231.359 202.952 231.361 205.636 231.361 208.32C231.361 208.965 231.363 209.611 231.359 210.255C231.359 210.458 231.342 210.659 231.329 210.911C231.106 210.935 230.91 210.975 230.714 210.976C229.295 210.981 227.875 210.979 226.456 210.979C226.2 210.979 225.944 210.979 225.744 210.979C225.473 211.205 225.538 211.452 225.537 211.675C225.53 213.095 225.534 214.514 225.533 215.933C225.533 216.188 225.523 216.444 225.517 216.747C225.275 216.771 225.078 216.806 224.879 216.807C223.46 216.812 222.041 216.809 220.622 216.811C220.368 216.811 220.114 216.828 219.889 216.836C219.692 217.076 219.752 217.317 219.751 217.54C219.745 218.934 219.75 220.327 219.747 221.721C219.747 221.975 219.728 222.229 219.718 222.501C219.423 222.637 219.137 222.591 218.862 222.591C215.61 222.595 212.358 222.593 209.107 222.596C208.828 222.596 208.548 222.609 208.304 222.616C208.076 222.848 208.143 223.093 208.142 223.315C208.135 224.735 208.139 226.154 208.136 227.574C208.136 227.825 208.115 228.077 208.104 228.336C207.792 228.469 207.505 228.422 207.229 228.422C203.977 228.426 200.725 228.424 197.475 228.425C197.195 228.425 196.915 228.438 196.671 228.443C196.466 228.69 196.527 228.931 196.526 229.155C196.519 230.549 196.524 231.942 196.521 233.336C196.521 233.589 196.502 233.842 196.49 234.142C196.313 234.165 196.168 234.194 196.021 234.201C195.815 234.211 195.608 234.204 195.401 234.204C134.216 234.204 73.0308 234.204 11.8452 234.204C11.5144 234.204 11.1837 234.194 10.8151 234.188C10.7901 233.994 10.7594 233.848 10.7546 233.7C10.7457 233.442 10.7513 233.184 10.7513 232.926C10.7505 204.693 10.7505 176.459 10.7473 148.227C10.7473 146.188 10.7296 144.15 10.7166 142.111C10.715 141.885 10.6884 141.66 10.6747 141.462C10.3956 141.271 10.1294 141.334 9.87852 141.332C8.51122 141.326 7.14311 141.33 5.77581 141.328C5.52171 141.328 5.26761 141.313 5.05869 141.306C4.81346 141.004 4.87235 140.709 4.87073 140.432C4.86428 139.012 4.86751 137.593 4.86751 136.173C4.86589 115.089 4.86428 94.0042 4.86589 72.9195C4.86589 72.538 4.8062 72.1475 4.94898 71.799C5.16355 71.5885 5.40797 71.6547 5.63142 71.653C7.05035 71.6474 8.47008 71.6514 9.88901 71.6482C10.1415 71.6482 10.3948 71.6288 10.6803 71.6175C10.707 71.428 10.74 71.2812 10.7465 71.1335C10.757 70.8762 10.7505 70.6173 10.7505 70.3591C10.7513 61.456 10.7521 52.552 10.7546 43.6488C10.7546 43.3447 10.7691 43.0406 10.7788 42.6905C11.0256 42.6719 11.224 42.6445 11.4225 42.6437C12.8414 42.6397 14.2611 42.6437 15.6801 42.6397C15.9326 42.6397 16.185 42.6171 16.4311 42.605C16.5884 42.2944 16.5392 42.0072 16.54 41.7305C16.544 39.0726 16.5424 36.4146 16.5424 33.7558C16.5424 33.0847 16.54 32.4135 16.544 31.7432C16.5456 31.5407 16.5674 31.3383 16.5827 31.0874C16.8062 31.064 17.0022 31.0269 17.1982 31.0269C18.6171 31.022 20.0369 31.0245 21.4558 31.0237C21.7107 31.0237 21.9664 31.0237 22.1681 31.0237C22.4246 30.7865 22.3593 30.5405 22.3601 30.3178C22.3665 28.8981 22.3625 27.4792 22.3649 26.0594C22.3649 25.8061 22.3802 25.552 22.3899 25.2552C22.6279 25.2318 22.8263 25.1971 23.0248 25.1963C24.4437 25.1915 25.8634 25.1947 27.2824 25.1923C27.5356 25.1923 27.7889 25.1721 28.018 25.1624C28.2068 24.922 28.1503 24.6825 28.1511 24.459C28.1576 23.0651 28.1528 21.672 28.156 20.2781C28.156 20.024 28.1761 19.7707 28.1891 19.4722C28.423 19.4496 28.6198 19.4141 28.8166 19.4133C30.2356 19.4085 31.6553 19.4117 33.0742 19.4093C33.3291 19.4093 33.584 19.3956 33.8018 19.3899C34.039 19.1657 33.9696 18.9196 33.9712 18.697C33.9777 17.2773 33.9737 15.8583 33.9761 14.4386C33.9761 14.1853 33.993 13.932 34.0035 13.6376C34.2439 13.615 34.4423 13.5811 34.6408 13.5803C36.0597 13.5755 37.4794 13.5795 38.8984 13.5763C39.1516 13.5763 39.4041 13.5553 39.7074 13.5424C39.7292 13.2851 39.7623 13.0616 39.7631 12.8382C39.7679 11.4442 39.7639 10.0511 39.7671 8.65721C39.7671 8.40311 39.7873 8.14982 39.8002 7.85861C39.9857 7.83441 40.1317 7.80537 40.2786 7.79811C40.4843 7.78843 40.6916 7.79408 40.8981 7.79408C59.5038 7.79408 78.1096 7.79408 96.7162 7.79569C97.0453 7.79569 97.3793 7.76423 97.7479 7.84974C97.7624 8.12965 97.7866 8.38133 97.7866 8.63221C97.7907 10.0003 97.785 11.3676 97.7915 12.7357C97.7931 12.9874 97.731 13.252 97.8891 13.4956C98.1521 13.6335 98.44 13.5738 98.7175 13.5738C101.969 13.5787 105.221 13.5755 108.472 13.5795C108.749 13.5795 109.036 13.5319 109.339 13.6521C109.463 14.2668 109.387 14.8839 109.399 15.4953C109.412 16.1399 109.399 16.786 109.403 17.4305C109.407 18.046 109.386 18.6631 109.418 19.2181C109.632 19.4617 109.851 19.4052 110.049 19.406C111.494 19.4109 112.939 19.4077 114.384 19.4109C114.635 19.4109 114.888 19.4311 115.178 19.444C115.198 19.6884 115.228 19.8876 115.228 20.0869C115.232 21.5066 115.228 22.9255 115.232 24.3453C115.232 24.5969 115.255 24.8494 115.27 25.1366C115.766 25.2366 116.228 25.181 116.684 25.1898C117.175 25.1995 117.665 25.1923 118.155 25.1923C118.62 25.1923 119.084 25.1882 119.548 25.1931C120.006 25.1979 120.468 25.1656 120.888 25.2221C121.07 25.5174 121.011 25.7811 121.011 26.0328C121.018 27.4009 121.013 28.7682 121.015 30.1363C121.015 30.3904 121.034 30.6437 121.042 30.8583C121.278 31.0882 121.524 31.0188 121.745 31.0196C123.164 31.0269 124.584 31.0212 126.003 31.0253C126.254 31.0253 126.505 31.0479 126.792 31.0624C126.892 32.0328 126.825 32.9572 126.837 33.8793C126.849 34.8069 126.84 35.7346 126.84 36.6114C127.034 36.8559 127.254 36.8026 127.452 36.8034C128.897 36.8083 130.342 36.8034 131.787 36.8099C132.039 36.8107 132.302 36.7494 132.597 36.9309C132.658 37.8473 132.615 38.7975 132.624 39.7461C132.633 40.6698 132.619 41.5942 132.633 42.5614C132.897 42.5896 133.094 42.6284 133.29 42.6292C134.735 42.6348 136.181 42.6308 137.625 42.634C137.876 42.634 138.127 42.6566 138.413 42.6703C138.432 42.8413 138.458 42.9647 138.458 43.0874C138.456 60.2968 138.454 77.5062 138.451 94.6721C138.206 94.9084 137.962 94.8399 137.74 94.8415C136.321 94.8487 134.901 94.8431 133.482 94.8471C133.232 94.8471 132.981 94.8713 132.731 94.8842C132.588 95.2037 132.633 95.49 132.632 95.7675C132.627 99.0192 132.627 102.271 132.624 105.523C132.624 105.802 132.607 106.08 132.598 106.399C132.356 106.421 132.157 106.454 131.959 106.455C130.54 106.46 129.12 106.455 127.701 106.459C127.449 106.459 127.197 106.482 126.939 106.495C126.798 106.804 126.845 107.09 126.844 107.366C126.84 110.695 126.84 114.024 126.841 117.353C126.841 117.585 126.856 117.817 126.865 118.05C126.582 118.057 126.299 118.067 126.016 118.068C124.6 118.069 123.185 118.066 121.769 118.071C121.545 118.071 121.323 118.104 121.103 118.122C120.973 118.442 121.016 118.728 121.015 119.005C121.003 120.652 120.997 122.3 120.989 123.947C120.888 123.931 120.786 123.904 120.685 123.903C117.098 123.901 113.512 123.9 109.925 123.903C109.778 123.903 109.63 123.942 109.438 123.969C109.424 124.253 109.402 124.505 109.401 124.758C109.398 126.151 109.401 127.545 109.397 128.938C109.397 129.163 109.366 129.387 109.346 129.652C109.021 129.664 108.743 129.681 108.464 129.681C106.503 129.684 104.542 129.683 102.581 129.683C99.3548 129.683 96.1297 129.681 92.9039 129.686C92.628 129.686 92.3384 129.623 92.0303 129.8C92.0206 130.042 92.002 130.295 92.002 130.548C91.9988 131.993 92.0028 133.438 91.998 134.884C91.998 135.081 92.0569 135.301 91.8165 135.51C84.3379 135.51 76.806 135.51 69.2742 135.509C69.1508 135.509 69.0274 135.482 68.8547 135.463C68.8402 135.18 68.8176 134.929 68.8168 134.678C68.8136 133.258 68.8184 131.839 68.8112 130.42C68.8104 130.196 68.8757 129.953 68.6539 129.708C68.4151 129.701 68.136 129.685 67.8569 129.685C64.6052 129.684 61.3543 129.685 58.1027 129.682C57.826 129.682 57.542 129.716 57.2323 129.611C57.2202 129.339 57.1992 129.088 57.1984 128.835C57.1952 127.441 57.1984 126.048 57.1944 124.654C57.1944 124.43 57.1645 124.205 57.1468 123.958C56.6434 123.856 56.1796 123.912 55.7214 123.902C55.2567 123.893 54.7921 123.9 54.3283 123.9C53.8378 123.9 53.3474 123.907 52.8577 123.898C52.3995 123.89 51.9373 123.943 51.4888 123.856C51.3363 123.581 51.3799 123.318 51.3791 123.066C51.3751 121.646 51.3799 120.227 51.3735 118.808C51.3726 118.584 51.4356 118.341 51.2178 118.101C51.004 118.091 50.7507 118.071 50.4982 118.07C49.0793 118.067 47.6596 118.07 46.2406 118.066C46.043 118.066 45.8462 118.031 45.6114 118.008C45.6018 117.684 45.5864 117.405 45.5864 117.126C45.5848 113.874 45.5864 110.622 45.5824 107.371C45.5824 107.094 45.6235 106.808 45.4977 106.507C44.5628 106.403 43.6375 106.474 42.7163 106.458C41.7661 106.442 40.8142 106.472 39.8704 106.441C39.7131 106.097 39.7655 105.783 39.7655 105.479C39.7607 99.1563 39.7591 92.8337 39.7575 86.511C39.7575 85.6076 39.7534 84.7049 39.7631 83.8014C39.7647 83.6329 39.8236 83.4643 39.8631 83.2586C40.1624 83.2586 40.4189 83.2586 40.6754 83.2586C42.0686 83.2586 43.4625 83.2618 44.8556 83.2553C45.0782 83.2545 45.321 83.3183 45.5566 83.1182C45.5655 82.8899 45.584 82.6358 45.5848 82.3825C45.588 80.9628 45.5848 79.5439 45.5897 78.1241C45.5897 77.9273 45.6284 77.7305 45.6518 77.5046C45.9551 77.4957 46.21 77.482 46.4649 77.482C47.8838 77.4796 49.3035 77.4828 50.7225 77.478C50.9201 77.478 51.1177 77.4393 51.3557 77.4143C51.3646 77.0811 51.3767 76.8004 51.3775 76.5197C51.3799 75.1774 51.3751 73.8359 51.3815 72.4936C51.3823 72.2419 51.3202 71.9765 51.4977 71.7095C51.7736 71.6055 52.0841 71.653 52.3866 71.653C59.044 71.6498 65.7023 71.6506 72.3597 71.6506C72.9018 71.6506 73.4439 71.6458 73.9851 71.6547C74.1578 71.6579 74.3296 71.699 74.5433 71.7281C74.5498 72.0201 74.5595 72.2758 74.5595 72.5307C74.5611 74.1311 74.5595 75.7307 74.5595 77.3312C74.5595 79.034 74.5627 80.7377 74.5563 82.4406C74.5554 82.6882 74.6288 82.9561 74.3981 83.2287C74.1263 83.2287 73.8206 83.2287 73.514 83.2287C68.4562 83.2287 63.3984 83.2287 58.3406 83.2287C58.1083 83.2287 57.8752 83.219 57.6445 83.2344C57.4985 83.244 57.3549 83.2916 57.1637 83.3312C57.1637 90.9179 57.1637 98.4771 57.1653 106.036C57.1653 106.159 57.1919 106.282 57.2105 106.437C57.7018 106.533 58.164 106.479 58.6214 106.488C59.086 106.497 59.5506 106.49 60.0145 106.49C60.5049 106.49 60.9954 106.482 61.485 106.492C61.9424 106.502 62.4062 106.442 62.9112 106.551C62.9241 106.831 62.9451 107.083 62.9459 107.334C62.9491 108.754 62.9451 110.173 62.9507 111.593C62.9515 111.818 62.8927 112.061 63.1193 112.307C63.3533 112.311 63.6332 112.322 63.9131 112.322C67.1648 112.323 70.4156 112.321 73.6673 112.326C73.9424 112.326 74.2312 112.266 74.5296 112.421C74.5393 112.679 74.5571 112.933 74.5579 113.186C74.5611 114.58 74.5563 115.973 74.5619 117.367C74.5627 117.593 74.507 117.834 74.6893 118.057C74.7974 118.071 74.9233 118.102 75.0491 118.102C78.6105 118.103 82.1712 118.103 85.7326 118.098C85.877 118.098 86.0214 118.042 86.2118 118.002C86.2118 117.691 86.2118 117.41 86.2118 117.129C86.2118 115.761 86.2085 114.393 86.215 113.025C86.2158 112.804 86.148 112.558 86.3965 112.324H87.116C88.3035 112.324 89.4901 112.324 90.6775 112.324C92.7934 112.324 94.9093 112.326 97.026 112.32C97.2744 112.32 97.5438 112.395 97.81 112.163C97.8157 111.917 97.8278 111.636 97.8278 111.355C97.8302 109.961 97.8262 108.568 97.8318 107.174C97.8326 106.952 97.7673 106.704 98.0464 106.485C98.2464 106.485 98.5022 106.485 98.7587 106.485C100.152 106.485 101.546 106.488 102.939 106.482C103.161 106.481 103.407 106.551 103.643 106.29C103.643 106.012 103.643 105.679 103.643 105.347C103.645 98.3787 103.646 91.4107 103.648 84.4435C103.648 84.2112 103.64 83.9789 103.653 83.7466C103.661 83.6014 103.7 83.4586 103.729 83.2965C103.976 83.2844 104.179 83.2666 104.383 83.2658C105.054 83.2618 105.724 83.2642 106.395 83.2642C109.053 83.2642 111.711 83.2658 114.369 83.2626C114.645 83.2626 114.931 83.3053 115.228 83.1698C115.24 82.8996 115.26 82.6463 115.26 82.3938C115.263 80.9741 115.26 79.5552 115.264 78.1354C115.264 77.9378 115.3 77.7402 115.323 77.5102C115.621 77.4998 115.875 77.4836 116.129 77.4828C117.523 77.4804 118.916 77.4844 120.31 77.4788C120.535 77.478 120.777 77.5361 121.036 77.3296C121.043 77.094 121.058 76.8149 121.059 76.535C121.061 75.1411 121.057 73.748 121.063 72.354C121.064 72.1306 121.006 71.8846 121.272 71.6579H123.456C124.231 71.6579 125.004 71.6587 125.779 71.6579C126.527 71.6571 127.275 71.653 128.024 71.6522C128.798 71.6514 129.572 71.6579 130.346 71.6506C131.087 71.6434 131.831 71.6853 132.592 71.6184C132.62 71.4732 132.656 71.3764 132.656 71.2796C132.658 69.5767 132.657 67.873 132.652 66.1701C132.652 66.0766 132.601 65.983 132.568 65.8684C132.364 65.8563 132.188 65.8386 132.011 65.837C131.546 65.8329 131.082 65.8354 130.618 65.8354C127.728 65.8354 124.837 65.837 121.947 65.8329C121.673 65.8329 121.386 65.8846 121.086 65.7313C121.075 65.4643 121.056 65.211 121.055 64.9577C121.052 63.5896 121.057 62.2223 121.051 60.8542C121.05 60.6017 121.106 60.3379 120.944 60.075C120.669 59.9523 120.356 60.0064 120.052 60.0064C112.982 60.0032 105.911 60.0048 98.8401 60.0015C98.5352 60.0015 98.223 60.0532 97.9157 59.9354C97.7632 59.6143 97.8302 59.2739 97.8302 58.9448C97.8262 48.1314 97.827 37.3189 97.8262 26.5055C97.8262 26.2216 97.8326 25.9376 97.8197 25.6537C97.8133 25.5085 97.7705 25.3657 97.739 25.1963C97.5422 25.1834 97.3914 25.1656 97.2405 25.164C96.8017 25.16 96.3629 25.1616 95.9249 25.1616C92.9829 25.1616 90.041 25.1624 87.0991 25.1584C86.8256 25.1584 86.5393 25.2084 86.2457 25.0648C86.2344 24.793 86.215 24.5389 86.2142 24.2848C86.211 22.8908 86.2158 21.4977 86.2094 20.1038C86.2085 19.8812 86.2674 19.6392 86.1013 19.4472C85.3156 19.3407 61.3269 19.2859 57.6929 19.3818C57.5445 19.3859 57.396 19.4085 57.2065 19.427C57.1298 19.9183 57.1661 20.3797 57.1605 20.8371C57.1548 21.3017 57.1589 21.7664 57.1589 22.231C57.1589 22.7214 57.1661 23.2119 57.1564 23.7015C57.1476 24.1589 57.2024 24.622 57.1048 25.1237C56.8217 25.1366 56.57 25.1584 56.3191 25.1592C54.9002 25.1624 53.4805 25.1576 52.0615 25.164C51.8389 25.1648 51.5945 25.0963 51.367 25.3189C51.2928 25.8997 51.3396 26.5176 51.3323 27.1323C51.3242 27.7776 51.3404 28.423 51.3275 29.0675C51.3154 29.6798 51.3888 30.296 51.2605 30.9551C50.9863 30.968 50.7346 30.989 50.4837 30.989C49.0906 30.9922 47.6967 30.989 46.3036 30.993C46.0785 30.993 45.8542 31.0212 45.6082 31.0382C45.5848 31.1785 45.5542 31.2761 45.5542 31.3738C45.5509 33.0508 45.5501 34.7287 45.555 36.4057C45.555 36.5251 45.6082 36.6437 45.6469 36.8075C45.9543 36.8075 46.2358 36.8075 46.5173 36.8075C47.9104 36.8075 49.3044 36.805 50.6975 36.8107C50.8943 36.8115 51.1145 36.7486 51.3307 37.0051C51.3307 37.1939 51.3307 37.4496 51.3307 37.7053C51.3307 39.0992 51.3283 40.4923 51.3331 41.8862C51.3331 42.1105 51.367 42.3347 51.388 42.6042C51.6905 42.6171 51.943 42.6372 52.1954 42.638C53.6402 42.6413 55.0857 42.6372 56.5305 42.6429C56.7273 42.6429 56.9467 42.5848 57.1331 42.7953C57.1403 42.8954 57.1581 43.0212 57.1573 43.1471C57.1524 44.8241 57.1443 46.5012 57.1363 48.1782C57.1363 48.2016 57.1234 48.2266 57.1105 48.2476C57.0976 48.2694 57.0782 48.2879 57.0129 48.3654C56.7854 48.371 56.5071 48.3847 56.2288 48.3847C52.9771 48.3864 49.7262 48.3847 46.4746 48.388C46.1971 48.388 45.9107 48.3436 45.6566 48.4444C45.4912 48.7114 45.5517 48.9752 45.5509 49.2261C45.5453 50.6716 45.5509 52.1164 45.5453 53.5619C45.5453 53.7588 45.5074 53.9556 45.4832 54.1944C45.1581 54.2032 44.8782 54.2178 44.5991 54.2178C41.3474 54.2194 38.0965 54.2177 34.8449 54.221C34.5674 54.221 34.2842 54.1895 33.972 54.2928C33.9583 54.563 33.9357 54.8147 33.9357 55.0672C33.9325 56.4869 33.9357 57.9058 33.9317 59.3256C33.9317 59.5248 33.9011 59.7241 33.8817 59.9693C33.5913 59.9822 33.3388 60.0016 33.0871 60.0024C31.6682 60.0056 30.2485 60.0007 28.8295 60.0072C28.6069 60.008 28.3617 59.9386 28.1237 60.1887C28.1189 60.4444 28.1076 60.7501 28.1076 61.0559C28.106 64.8754 28.1068 68.695 28.1068 72.5138C28.1068 73.8819 28.11 75.2492 28.1035 76.6173C28.1027 76.8681 28.164 77.1319 27.9809 77.4135C27.7543 77.4239 27.5018 77.4449 27.2501 77.4449C25.857 77.4481 24.4631 77.4449 23.0699 77.4489C22.8457 77.4489 22.6214 77.4804 22.3488 77.5006C22.3391 77.8499 22.3238 78.154 22.3238 78.4581C22.3222 85.5293 22.323 92.6006 22.323 99.671C22.323 99.8517 22.3149 100.033 22.3278 100.213C22.3383 100.359 22.373 100.503 22.402 100.678C22.6989 100.689 22.9522 100.707 23.2063 100.708C24.6252 100.71 26.0449 100.707 27.4639 100.712C27.6607 100.712 27.8575 100.75 28.0906 100.775C28.0971 101.131 28.1068 101.437 28.1068 101.743C28.1076 106.801 28.1068 111.86 28.1068 116.918C28.1068 117.15 28.0979 117.383 28.1124 117.614C28.1221 117.76 28.1681 117.904 28.206 118.091C28.8505 118.096 29.4668 118.103 30.0831 118.105C30.7284 118.107 31.3738 118.098 32.0183 118.107C32.6298 118.115 33.2452 118.064 33.8986 118.155C33.9115 118.456 33.9325 118.708 33.9325 118.959C33.9349 120.946 33.9341 122.934 33.9341 124.92C33.9341 126.314 33.9325 127.708 33.9366 129.101C33.9366 129.3 33.8881 129.518 34.1221 129.718C34.6908 129.718 35.3095 129.718 35.9274 129.718C36.5453 129.718 37.1664 129.713 37.7852 129.719C38.3982 129.726 39.0137 129.689 39.5921 129.745C39.7752 130.04 39.7155 130.303 39.7163 130.554C39.722 131.974 39.7163 133.393 39.722 134.813C39.7228 135.038 39.6639 135.28 39.8801 135.525C40.0922 135.532 40.3455 135.548 40.5996 135.549C42.0444 135.552 43.4899 135.548 44.9346 135.554C45.1315 135.554 45.3533 135.494 45.5477 135.746V138.475C45.5477 138.94 45.5413 139.404 45.5493 139.869C45.5574 140.326 45.5106 140.788 45.5913 141.264C45.9277 141.366 46.2366 141.332 46.5399 141.332C53.5587 141.335 60.5783 141.335 67.5971 141.335C67.8295 141.335 68.0626 141.326 68.2933 141.341C68.4401 141.351 68.5837 141.397 68.7733 141.436C68.7733 141.72 68.7733 141.976 68.7733 142.232C68.7733 143.625 68.7708 145.019 68.7757 146.412C68.7757 146.637 68.8079 146.86 68.8297 147.131C69.154 147.143 69.4323 147.163 69.7106 147.163C72.9881 147.166 76.2648 147.163 79.5423 147.168C79.8488 147.168 80.1561 147.212 80.4627 147.235L80.4441 147.212C80.4247 147.466 80.3893 147.721 80.3885 147.975C80.3828 149.395 80.3876 150.814 80.3836 152.233C80.3836 152.433 80.3538 152.633 80.3368 152.839C79.9988 152.952 79.6891 152.911 79.385 152.911C74.3013 152.913 69.2177 152.913 64.1333 152.913C63.901 152.913 63.6679 152.905 63.4372 152.919C63.292 152.928 63.1492 152.974 62.9733 153.009C62.9636 153.301 62.9475 153.555 62.9475 153.81C62.9451 155.178 62.9491 156.545 62.9435 157.913C62.9427 158.164 63.0024 158.428 62.8176 158.718C62.5708 158.726 62.2925 158.744 62.0142 158.744C59.3304 158.746 56.6466 158.746 53.9629 158.746C51.4598 158.746 48.9567 158.747 46.4536 158.74C46.1801 158.739 45.8849 158.825 45.5864 158.592C45.5864 158.366 45.5864 158.109 45.5864 157.853C45.5864 156.46 45.5889 155.066 45.584 153.672C45.584 153.448 45.5517 153.224 45.5316 152.967C44.5628 152.858 43.6383 152.933 42.7163 152.916C41.7644 152.898 40.8126 152.932 39.8914 152.896C39.697 152.618 39.7566 152.352 39.7558 152.1C39.7502 150.681 39.7558 149.262 39.7494 147.842C39.7486 147.62 39.8107 147.375 39.6187 147.193C39.5614 147.178 39.513 147.154 39.4638 147.154C37.7351 147.151 36.0065 147.148 34.2778 147.151C34.1842 147.151 34.0898 147.203 34.0108 147.226C33.9269 147.876 33.864 168.179 33.939 169.936C33.9446 170.059 33.9745 170.181 33.997 170.335C34.4778 170.443 34.9408 170.38 35.3982 170.391C35.8629 170.401 36.3275 170.393 36.7913 170.393C37.2818 170.393 37.7723 170.387 38.2619 170.395C38.7193 170.402 39.1815 170.354 39.6808 170.441C39.6961 170.729 39.7203 170.98 39.7212 171.231C39.7252 172.599 39.7203 173.967 39.726 175.335C39.7268 175.586 39.6679 175.851 39.8188 176.085C40.0632 176.226 40.3262 176.17 40.5786 176.17C41.9976 176.176 43.4173 176.17 44.8362 176.176C45.0605 176.177 45.3049 176.112 45.505 176.305C45.5187 176.374 45.5461 176.449 45.5461 176.524C45.5485 178.227 45.5493 179.93 45.5445 181.633C45.5445 181.728 45.4945 181.821 45.4566 181.957C45.1557 181.962 44.8766 181.973 44.5966 181.973C41.345 181.974 38.0933 181.973 34.8416 181.975C34.5649 181.975 34.281 181.943 33.9849 182.045C33.9043 182.394 33.9349 182.728 33.9349 183.058C33.9333 192.013 33.9333 200.968 33.9333 209.924C33.9333 210.13 33.9236 210.338 33.939 210.542C33.9495 210.689 33.9938 210.831 34.0253 210.989C34.2665 211 34.4706 211.017 34.6755 211.017C43.8626 211.018 53.0497 211.018 62.236 211.018C62.3135 211.018 62.3917 211.022 62.4683 211.015C62.616 211.001 62.7636 210.98 62.9507 210.957C62.9644 210.668 62.9862 210.416 62.987 210.163C62.9911 209.002 62.9886 207.841 62.9886 206.679C62.9886 202.653 62.987 198.627 62.9919 194.601C62.9919 194.298 62.929 193.982 63.1105 193.632C64.0107 193.608 64.9359 193.614 65.8604 193.623C66.8058 193.633 67.7544 193.569 68.7426 193.673C68.7539 193.997 68.7724 194.275 68.7724 194.554C68.7749 197.599 68.7741 200.644 68.7741 203.69C68.7741 204.051 68.766 204.413 68.7805 204.773C68.7862 204.916 68.845 205.056 68.8886 205.235C69.3855 205.235 69.8477 205.235 70.31 205.235H71.7039C72.1685 205.235 72.6332 205.23 73.097 205.237C73.5544 205.244 74.0166 205.199 74.5167 205.281C74.5321 205.569 74.5563 205.82 74.5571 206.072C74.5611 207.44 74.5554 208.807 74.5619 210.175C74.5627 210.427 74.5014 210.692 74.67 210.954C74.7498 210.972 74.8475 211.011 74.9451 211.011C80.5449 211.012 86.1448 211.01 91.7447 211.005C91.8149 211.005 91.8843 210.957 91.9988 210.915C92.0109 210.67 92.0343 210.418 92.0343 210.166C92.0375 208.694 92.0359 207.224 92.0359 205.753C92.0359 203.895 92.0383 202.036 92.0319 200.178C92.0311 199.93 92.1061 199.661 91.8843 199.398C91.6576 199.39 91.4043 199.372 91.151 199.372C89.7571 199.369 88.364 199.372 86.97 199.369C86.745 199.369 86.5207 199.342 86.3158 199.328C86.161 199.01 86.2158 198.721 86.2158 198.442C86.2126 191.345 86.2134 184.248 86.2134 177.151C86.2134 176.944 86.2102 176.738 86.2247 176.532C86.2319 176.435 86.2779 176.341 86.3207 176.195C86.9434 176.161 87.5589 176.181 88.1736 176.178C88.8189 176.174 89.4643 176.183 90.1088 176.175C90.7211 176.167 91.3357 176.216 91.994 176.131C92.0093 175.836 92.0327 175.585 92.0327 175.333C92.0359 173.5 92.0343 171.668 92.0343 169.836C92.0343 168.313 92.0311 166.79 92.0375 165.268C92.0383 165.046 91.9649 164.8 92.2198 164.564C92.7861 164.564 93.4024 164.564 94.0187 164.564C94.635 164.564 95.2577 164.552 95.8765 164.567C96.4871 164.583 97.105 164.492 97.764 164.651C97.7697 164.974 97.7794 165.28 97.7802 165.585C97.781 170.67 97.7802 175.753 97.781 180.838C97.781 181.07 97.7705 181.303 97.7883 181.534C97.7995 181.679 97.8536 181.821 97.898 182.006C98.1819 182.006 98.4384 182.006 98.6941 182.006C100.114 182.006 101.533 182.004 102.953 182.008C103.15 182.008 103.347 182.042 103.579 182.063C103.591 182.363 103.61 182.617 103.61 182.871C103.612 184.523 103.61 186.174 103.61 187.826C103.61 191.387 103.608 194.949 103.612 198.51C103.612 198.785 103.554 199.074 103.71 199.373C103.967 199.384 104.221 199.402 104.474 199.402C105.894 199.406 107.313 199.402 108.732 199.406C108.931 199.406 109.13 199.442 109.378 199.465C109.384 199.764 109.395 200.019 109.395 200.273C109.397 201.693 109.394 203.111 109.399 204.531C109.4 204.755 109.341 205.001 109.596 205.235C109.798 205.235 110.054 205.235 110.31 205.235C111.73 205.235 113.149 205.233 114.569 205.238C114.765 205.238 114.963 205.273 115.193 205.295C115.205 205.597 115.223 205.85 115.224 206.103C115.227 207.497 115.222 208.89 115.228 210.284C115.229 210.509 115.169 210.749 115.37 210.999C115.614 211.005 115.893 211.018 116.173 211.018C119.425 211.019 122.676 211.018 125.928 211.021C126.205 211.021 126.492 210.973 126.804 211.114C126.815 211.369 126.836 211.62 126.836 211.872C126.84 213.292 126.835 214.711 126.841 216.13C126.842 216.352 126.775 216.597 127.007 216.832C127.274 216.837 127.579 216.848 127.886 216.848C132.944 216.849 138.001 216.848 143.06 216.849C143.292 216.849 143.525 216.84 143.757 216.854C143.903 216.862 144.047 216.905 144.236 216.94C144.236 217.254 144.236 217.535 144.236 217.816C144.236 219.21 144.234 220.603 144.239 221.997C144.239 222.195 144.184 222.415 144.372 222.572C145.013 222.652 165.006 222.704 167.049 222.629C167.172 222.624 167.294 222.6 167.462 222.579C167.478 222.294 167.503 222.043 167.504 221.791C167.508 220.423 167.504 219.056 167.507 217.688C167.507 217.435 167.529 217.183 167.541 216.931C167.866 216.811 168.151 216.851 168.429 216.851C171.681 216.848 174.932 216.851 178.184 216.846C178.461 216.846 178.749 216.897 179.026 216.774C179.154 216.522 179.115 216.262 179.116 216.009C179.119 214.59 179.116 213.171 179.12 211.751C179.12 211.525 179.063 211.282 179.283 211.04C179.496 211.034 179.75 211.02 180.003 211.019C183.255 211.009 186.505 211 189.757 210.99C189.912 210.99 190.069 211.001 190.221 210.984C190.367 210.968 190.509 210.922 190.699 210.88C190.699 210.595 190.699 210.339 190.699 210.083C190.71 206.831 190.721 203.58 190.732 200.328C190.732 200.174 190.719 200.017 190.738 199.865C190.757 199.721 190.81 199.582 190.857 199.402C191.144 199.402 191.399 199.402 191.656 199.402C193.05 199.402 194.443 199.406 195.837 199.399C196.059 199.398 196.303 199.465 196.537 199.234C196.542 198.94 196.551 198.609 196.551 198.276C196.552 195.076 196.551 191.876 196.554 188.676C196.554 188.402 196.506 188.115 196.642 187.829C196.789 187.815 196.914 187.794 197.039 187.794C198.716 187.798 200.393 187.804 202.07 187.814C202.115 187.814 202.16 187.857 202.234 187.895C202.338 188.116 202.3 188.376 202.3 188.629C202.303 190.048 202.299 191.467 202.305 192.887C202.306 193.112 202.248 193.355 202.477 193.607C203.041 193.611 203.657 193.617 204.271 193.619C204.917 193.622 205.562 193.615 206.207 193.622C206.819 193.628 207.434 193.588 208.079 193.658C208.182 194.628 208.106 195.552 208.128 196.474C208.152 197.421 208.084 198.371 208.174 199.351C208.339 199.371 208.461 199.4 208.584 199.4C210.235 199.402 211.887 199.402 213.538 199.398C213.659 199.398 213.779 199.35 213.934 199.317C213.942 199.008 213.955 198.727 213.955 198.447C213.957 197.078 213.953 195.711 213.959 194.343C213.96 194.118 213.903 193.876 214.12 193.621H214.841C216.261 193.621 217.68 193.623 219.1 193.619C219.298 193.619 219.497 193.583 219.74 193.56C219.754 193.267 219.775 193.015 219.776 192.763C219.779 191.317 219.775 189.872 219.78 188.427C219.78 188.23 219.72 188.011 219.939 187.815C220.16 187.808 220.415 187.794 220.669 187.793C222.063 187.79 223.456 187.794 224.85 187.788C225.074 187.787 225.317 187.85 225.556 187.632C225.56 187.336 225.568 187.004 225.568 186.672C225.568 177.742 225.568 168.813 225.568 159.883C225.568 159.677 225.573 159.47 225.564 159.263C225.558 159.116 225.534 158.97 225.513 158.784C225.216 158.771 224.963 158.749 224.711 158.748C223.291 158.745 221.872 158.748 220.452 158.744C220.253 158.744 220.054 158.713 219.809 158.692C219.797 158.401 219.778 158.149 219.777 157.896C219.774 156.476 219.779 155.058 219.772 153.638C219.772 153.415 219.839 153.17 219.608 152.938C219.392 152.931 219.138 152.916 218.883 152.916C217.464 152.913 216.045 152.917 214.625 152.912C214.427 152.912 214.23 152.877 213.989 152.855C213.976 152.562 213.956 152.308 213.956 152.055C213.952 150.661 213.956 149.268 213.951 147.874C213.951 147.651 213.918 147.427 213.896 147.158C213.544 147.148 213.24 147.133 212.935 147.133C204.084 147.131 195.232 147.132 186.38 147.132C186.071 147.132 185.761 147.138 185.451 147.129C185.303 147.125 185.156 147.093 184.966 147.069C184.955 146.782 184.937 146.529 184.937 146.276C184.935 144.547 184.936 142.818 184.936 141.088C184.936 135.694 184.936 130.301 184.934 124.907C184.934 124.603 184.968 124.294 184.868 123.947C184.241 123.865 183.626 123.914 183.014 123.906C182.369 123.898 181.724 123.906 181.079 123.903C180.464 123.901 179.85 123.894 179.258 123.89C179.064 123.608 179.116 123.343 179.116 123.091C179.111 121.697 179.116 120.304 179.111 118.91C179.11 118.659 179.17 118.395 178.978 118.107C178.759 118.096 178.507 118.074 178.256 118.074C176.579 118.071 174.901 118.073 173.224 118.073C171.547 118.073 169.869 118.07 168.192 118.076C167.969 118.077 167.725 118.008 167.481 118.244C167.475 118.478 167.46 118.758 167.46 119.037C167.458 122.288 167.46 125.54 167.457 128.792C167.457 129.068 167.503 129.353 167.372 129.654C167.103 129.665 166.85 129.685 166.597 129.685C165.203 129.689 163.81 129.684 162.416 129.69C162.192 129.691 161.95 129.629 161.696 129.84C161.689 130.077 161.675 130.356 161.675 130.635C161.673 133.887 161.675 137.138 161.671 140.39C161.671 140.667 161.722 140.954 161.586 141.267C161.329 141.278 161.078 141.297 160.825 141.298C159.2 141.301 157.574 141.3 155.948 141.3C150.451 141.3 144.955 141.3 139.458 141.301C139.154 141.301 138.844 141.268 138.556 141.351C138.393 141.619 138.451 141.883 138.45 142.134C138.444 143.579 138.45 145.024 138.444 146.47C138.444 146.667 138.409 146.865 138.387 147.092C137.417 147.176 136.492 147.116 135.568 147.132C134.62 147.149 133.669 147.104 132.748 147.159C132.556 147.476 132.623 147.766 132.623 148.043C132.616 149.952 132.619 151.862 132.619 153.772C132.619 155.191 132.623 156.61 132.615 158.03C132.614 158.252 132.687 158.498 132.459 158.721C132.236 158.729 131.981 158.745 131.727 158.746C130.307 158.748 128.888 158.745 127.469 158.75C127.274 158.75 127.078 158.794 126.833 158.823V159.793C126.833 163.612 126.833 167.432 126.833 171.251C126.833 172.645 126.831 174.038 126.836 175.432C126.836 175.657 126.866 175.88 126.886 176.141C127.187 176.154 127.441 176.174 127.693 176.174C129.113 176.178 130.532 176.174 131.951 176.178C132.151 176.178 132.349 176.213 132.599 176.237C132.606 176.533 132.619 176.786 132.619 177.04C132.62 178.46 132.617 179.879 132.623 181.298C132.623 181.523 132.566 181.768 132.814 182.008C133.016 182.008 133.272 182.008 133.528 182.008C134.947 182.008 136.366 182.007 137.786 182.011C137.984 182.011 138.181 182.044 138.414 182.066C138.427 182.365 138.446 182.618 138.446 182.871C138.449 184.265 138.446 185.658 138.45 187.052C138.45 187.276 138.481 187.499 138.502 187.769C138.856 187.778 139.161 187.792 139.466 187.792C146.538 187.793 153.608 187.793 160.679 187.793C160.86 187.793 161.041 187.801 161.221 187.788C161.367 187.778 161.511 187.74 161.627 187.72C161.663 187.619 161.694 187.571 161.694 187.524C161.702 181.821 161.708 176.118 161.713 170.415L161.692 170.438C161.845 170.424 161.999 170.397 162.152 170.397C165.662 170.395 169.172 170.396 172.682 170.398C172.856 170.398 173.029 170.428 173.225 170.446C173.32 170.779 173.285 171.088 173.285 171.392C173.287 178.463 173.287 185.534 173.287 192.606C173.287 192.761 173.292 192.916 173.284 193.071C173.276 193.219 173.253 193.365 173.232 193.552C172.935 193.565 172.682 193.586 172.43 193.586C170.984 193.59 169.54 193.586 168.094 193.591C167.897 193.591 167.676 193.534 167.48 193.775C167.474 194.007 167.46 194.287 167.459 194.568C167.457 195.962 167.461 197.355 167.454 198.749C167.454 198.946 167.512 199.167 167.271 199.372C167.042 199.372 166.761 199.372 166.479 199.372C164.57 199.372 162.66 199.372 160.75 199.372C159.356 199.372 157.963 199.369 156.569 199.375C156.347 199.376 156.101 199.306 155.87 199.546C155.863 199.758 155.846 200.012 155.846 200.266C155.844 201.634 155.848 203.002 155.842 204.37C155.842 204.621 155.901 204.885 155.717 205.175C155.47 205.183 155.191 205.201 154.913 205.201C152.049 205.203 149.184 205.202 146.32 205.202C143.997 205.202 141.675 205.206 139.352 205.198C139.078 205.198 138.783 205.282 138.483 205.05C138.483 204.825 138.483 204.569 138.483 204.313C138.483 202.919 138.485 201.526 138.481 200.132C138.481 199.907 138.449 199.683 138.431 199.447C138.114 199.34 137.83 199.373 137.551 199.373C135.59 199.37 133.628 199.371 131.667 199.371C130.274 199.371 128.88 199.373 127.486 199.368C127.29 199.367 127.069 199.428 126.869 199.187V196.454C126.869 195.989 126.876 195.525 126.868 195.06C126.86 194.602 126.907 194.14 126.82 193.637C126.179 193.546 125.563 193.598 124.953 193.59C124.307 193.581 123.662 193.59 123.018 193.587C122.403 193.585 121.787 193.579 121.197 193.575C121.001 193.294 121.053 193.028 121.052 192.776C121.047 191.383 121.053 189.989 121.047 188.596C121.046 188.345 121.106 188.08 120.908 187.782C120.028 187.726 119.104 187.77 118.182 187.754C117.235 187.737 116.286 187.801 115.293 187.707C115.281 187.39 115.261 187.112 115.261 186.835C115.258 183.996 115.259 181.156 115.258 178.318C115.258 177.75 115.263 177.182 115.252 176.615C115.249 176.471 115.19 176.329 115.146 176.143C114.859 176.143 114.603 176.143 114.348 176.143C112.928 176.143 111.509 176.145 110.089 176.14C109.893 176.14 109.698 176.101 109.517 176.082C109.387 175.223 109.33 152.684 109.439 147.78C109.443 147.604 109.474 147.428 109.499 147.2C109.775 147.188 110.026 147.168 110.277 147.168C111.697 147.165 113.116 147.17 114.535 147.163C114.759 147.163 115.003 147.228 115.242 146.996C115.247 146.759 115.257 146.479 115.258 146.198C115.26 144.288 115.258 142.378 115.259 140.468C115.259 137.191 115.259 133.913 115.263 130.636C115.263 130.359 115.216 130.073 115.342 129.768C116.273 129.673 117.198 129.748 118.12 129.724C119.067 129.7 120.017 129.777 121.002 129.67C121.019 129.46 121.047 129.286 121.048 129.111C121.051 127.562 121.053 126.014 121.046 124.465C121.046 124.289 120.996 124.113 120.969 123.937C122.695 123.937 124.42 123.941 126.145 123.936C126.368 123.936 126.611 124.001 126.841 123.784C126.85 123.589 126.868 123.36 126.869 123.132C126.873 122.333 126.875 121.536 126.869 120.737C126.864 119.837 126.851 118.936 126.841 118.036L126.851 118.032Z" fill="#A60000"/>
<path d="M80.4681 147.233C80.4544 147.001 80.4302 146.77 80.4294 146.538C80.4262 145.067 80.4262 143.597 80.4294 142.126C80.4294 141.898 80.4472 141.669 80.4585 141.404C80.6609 141.378 80.8336 141.336 81.0054 141.336C84.4628 141.332 87.9193 141.333 91.3767 141.335C91.5517 141.335 91.7276 141.362 91.9478 141.38C92.0632 142.355 91.993 143.302 92.0011 144.247C92.0091 145.171 92.0277 146.096 91.9865 147.015C91.6776 147.183 91.3888 147.124 91.1129 147.124C87.8362 147.129 84.5596 147.126 81.2829 147.132C81.0038 147.132 80.7255 147.181 80.448 147.208C80.4496 147.21 80.4681 147.233 80.4681 147.233V147.233Z" fill="#A60000"/>
<path d="M68.7095 31.0775C68.8055 31.839 68.8023 41.857 68.7103 42.5233C68.6289 42.5459 68.5337 42.5959 68.4393 42.5959C66.738 42.6 65.0368 42.5992 63.3355 42.5959C63.2621 42.5959 63.1887 42.5629 63.1161 42.5459C62.9274 42.2854 62.9991 41.9926 62.9983 41.7167C62.9919 39.7831 62.9951 37.8495 62.9951 35.9167C62.9951 34.5761 62.9935 33.2354 62.9967 31.8955C62.9967 31.6414 63.0169 31.3873 63.0258 31.1897C63.0879 31.1187 63.1008 31.0953 63.121 31.0824C63.1419 31.0687 63.1685 31.0566 63.1927 31.0566C64.919 31.0461 66.6445 31.0372 68.3707 31.0308C68.4708 31.0308 68.5708 31.0574 68.7103 31.0775H68.7095Z" fill="#A60000"/>
<path d="M213.846 176.244C213.931 176.82 213.975 180.288 213.915 181.529C213.909 181.651 213.875 181.772 213.849 181.922C213.696 181.939 213.572 181.966 213.449 181.966C209.793 181.968 206.137 181.968 202.458 181.968C202.415 181.773 202.356 181.628 202.356 181.482C202.349 179.885 202.35 178.287 202.354 176.69C202.354 176.542 202.399 176.395 202.428 176.223C202.608 176.203 202.756 176.177 202.906 176.173C206 176.097 213.049 176.139 213.846 176.244V176.244Z" fill="#A60000"/>
<path d="M80.3883 83.3771C80.3875 85.2542 80.3907 87.1007 80.3851 88.9907C79.7123 89.1101 79.0976 89.0439 78.4878 89.0544C77.8441 89.0657 77.1995 89.0625 76.5558 89.0552C75.9444 89.0488 75.3297 89.0907 74.6916 89.0181C74.661 88.8302 74.6214 88.6826 74.6158 88.5341C74.5408 86.657 74.5868 83.9619 74.6997 83.3763C75.2313 83.24 77.9998 83.1819 79.9204 83.273C80.0656 83.2803 80.2084 83.336 80.3875 83.3771H80.3883Z" fill="#A60000"/>
<path d="M161.722 170.409C161.467 170.391 161.212 170.357 160.957 170.357C159.568 170.352 158.178 170.355 156.789 170.353C156.534 170.353 156.28 170.346 156.001 170.341C155.962 170.153 155.905 170.008 155.904 169.863C155.898 168.267 155.899 166.672 155.904 165.076C155.904 164.929 155.95 164.782 155.973 164.649C156.614 164.532 158.967 164.494 161.166 164.562C161.314 164.567 161.461 164.599 161.65 164.624C161.714 165.296 161.675 165.935 161.682 166.572C161.689 167.215 161.682 167.858 161.684 168.502C161.687 169.145 161.696 169.788 161.701 170.432L161.723 170.408L161.722 170.409Z" fill="#A60000"/>
</svg>
