<svg width="342" height="366" viewBox="0 0 342 366" fill="none" xmlns="http://www.w3.org/2000/svg">
<g clip-path="url(#clip0_161_14)">
<path d="M162.712 254.772C170.276 255.931 177.862 256.967 185.389 258.34C187.212 258.674 188.834 260.118 190.546 261.051C189.091 262.47 187.864 264.39 186.121 265.194C183.6 266.36 180.708 266.719 177.97 267.42C177.97 267.946 177.97 268.475 177.97 269C185.339 269 192.731 268.642 200.075 269.081C212.206 269.804 224.313 270.958 236.404 272.194C237.59 272.315 239.691 274.683 239.463 275.323C238.826 277.104 237.43 279.547 235.897 279.921C225.645 282.407 215.37 285.307 204.93 286.379C188.698 288.049 172.433 287.054 156.486 282.988C149.308 281.157 149.011 280.765 150.494 272.494C155.543 271.771 160.716 271.029 165.888 270.287C165.873 270.092 165.854 269.9 165.839 269.705C154.032 269.705 142.151 270.518 130.437 269.477C118.77 268.438 107.272 265.507 95.6912 263.46C90.9327 262.619 88.436 260.294 90.0088 254.701C96.7109 254.218 103.679 253.714 107.986 253.405C100.051 252.493 89.3197 252.332 79.2002 249.766C70.4959 247.562 61.9924 243.382 54.3881 238.527C50.9088 236.308 49.8026 230.362 47.6211 226.108C48.1526 225.638 48.6809 225.168 49.2124 224.698C66.2101 229.496 83.2079 234.292 100.206 239.09C100.323 238.716 100.44 238.345 100.558 237.971C97.7151 236.83 94.8724 235.692 90.9142 234.106C92.7712 233.009 93.4788 232.26 94.2605 232.177C105.465 230.959 116.177 227.072 127.913 228.34C138.496 229.484 149.354 227.799 160.082 227.96C166.336 228.052 172.563 229.382 178.813 230.04C182.447 230.424 186.14 230.359 189.736 230.94C191.393 231.206 192.876 232.539 194.436 233.386C193.117 234.879 192.007 237.371 190.447 237.699C181.115 239.647 171.707 241.298 162.267 242.64C156.656 243.437 150.939 243.481 145.303 243.864C144.033 247.321 148.291 252.339 142.21 254.902H162.907L162.712 254.772ZM136.698 243.091C130.904 242.575 124.672 242.018 118.436 241.462C121.99 242.538 125.633 242.797 129.161 243.579C130.626 243.904 131.846 245.339 133.175 246.269C131.961 247.447 130.932 249.265 129.495 249.68C125.793 250.749 121.909 251.201 118.099 251.896C121.199 252.975 124.193 253.176 127.178 253.433C130.122 253.69 133.064 254.002 136.695 254.358V243.088L136.698 243.091Z" fill="#FF4D00" fill-opacity="0.5"/>
<path d="M66.8965 105.524C75.9098 101.687 82.5779 92.0589 95.1756 97.0058C99.2172 98.5919 105.125 95.2961 110.208 94.4056C113.61 93.812 117.333 92.4794 120.445 93.2833C133.21 96.5823 145.331 96.2947 156.841 89.233C157.682 88.7167 158.732 88.0241 159.588 88.1385C166.08 89.0073 172.532 90.1791 179.027 91.0077C183.18 91.5364 187.388 91.6137 191.569 91.9414C197.171 92.3805 202.764 93.0329 208.372 93.2802C213.81 93.5214 219.27 93.2709 224.718 93.4162C227.928 93.5028 231.17 93.7347 234.312 94.3469C235.248 94.5293 236.506 96.1927 236.562 97.2315C236.809 101.804 236.667 106.396 236.667 112.014C231.395 112.014 225.169 112.261 218.968 111.961C207.671 111.417 196.742 112.697 186.035 116.577C183.291 117.573 179.914 116.93 176.833 116.84C175.443 116.8 173.78 115.606 172.73 116.061C160.973 121.15 150.047 113.977 138.673 113.958C134.019 113.949 129.322 113.535 124.725 114.042C114.08 115.214 104.047 114.357 93.9272 110.01C88.5106 107.682 81.7683 108.35 75.6039 107.917C72.8508 107.725 70.0544 108.155 67.2765 108.3C67.1499 107.379 67.0232 106.454 66.8965 105.533V105.524Z" fill="#FF4D00" fill-opacity="0.5"/>
<path d="M32.6043 154.838C31.7577 153.438 30.911 152.034 29.1621 149.143C36.5471 150.179 42.1738 150.97 47.5936 151.731C43.1719 146.41 38.7965 141.141 34.4274 135.888C33.4726 133.777 32.5085 131.65 31.5475 129.525C27.9663 122.557 28.9489 115.745 32.3973 109.098C34.6776 104.704 38.6637 102.435 42.9772 104.844C47.7604 107.515 52.9237 110.854 55.8282 115.278C63.8126 127.448 70.7032 140.338 78.6443 154.006C73.4007 154.724 68.3919 155.407 63.3831 156.09C63.448 156.588 63.516 157.086 63.5809 157.584C69.7175 156.662 75.8417 155.639 81.9969 154.866C84.5553 154.544 87.2467 154.377 89.765 154.804C100.153 156.557 110.511 158.524 120.856 160.524C122.268 160.796 123.56 161.69 124.836 163.282C106.169 169.163 87.4135 172.594 67.9099 169.005C67.9161 169.005 68.1107 169.125 68.1107 169.125C57.9603 165.431 47.8099 161.736 37.6563 158.044C35.9723 156.975 34.2852 155.905 32.6012 154.835L32.6043 154.838Z" fill="#FF4D00" fill-opacity="0.5"/>
<path d="M200.187 155.648C189.959 159.918 179.367 160.305 168.509 159.021C163.494 158.428 158.262 159.26 153.359 158.283C147.757 157.169 142.414 154.764 136.97 152.934C131.958 145.149 126.934 137.354 121.909 129.556C116.659 119.669 119.474 115.254 131.816 115.39C138.672 115.467 145.507 117.625 152.361 117.687C165.236 117.801 172.918 126.007 180.689 134.346C184.06 136.575 187.45 138.826 190.843 141.08C195.836 144.453 200.832 147.826 206.456 151.623C205.26 152.485 203.947 153.431 202.634 154.374C201.818 154.798 201.002 155.225 200.187 155.648Z" fill="#FF4D00" fill-opacity="0.5"/>
<path d="M79.3862 280.366C76.5682 278.808 73.7193 277.299 70.9384 275.673C68.485 274.238 65.2127 273.205 63.918 271.032C62.1939 268.138 62.0363 264.313 61.2051 260.888C63.7821 260.82 66.7422 259.88 68.8712 260.82C86.3973 268.558 105.067 269.232 123.696 270.302C125.312 270.395 126.919 270.961 128.525 270.945C133.163 270.899 134.922 272.973 134.795 277.673C134.665 282.456 132.685 284.889 128.006 285.214C122.364 285.607 116.719 285.971 111.086 286.676C127.898 289.283 144.575 290.761 161.662 287.799C169.402 286.457 177.773 288.519 185.813 289.419C186.984 289.549 189.045 292.254 188.751 293.012C187.852 295.34 186.397 298.614 184.463 299.195C167.579 304.25 150.325 306.606 132.675 304.439C127.435 303.796 122.219 302.952 116.991 302.197L117.278 302.324C111.843 300.265 106.436 298.122 100.963 296.171C95.1882 294.112 93.844 289.91 94.9935 284.562C89.6386 283.078 84.4136 281.627 79.1885 280.181L79.3832 280.369L79.3862 280.366Z" fill="#FF4D00" fill-opacity="0.5"/>
<path d="M106.761 190.892C98.0781 191.124 89.3706 191.068 80.7188 191.742C77.5208 191.993 74.4555 193.959 71.3594 195.638C86.2962 193.888 100.905 193.307 114.634 203.868C112.143 204.867 110.361 205.884 108.445 206.301C88.9102 210.547 69.8175 209.378 51.2625 201.522C45.7655 199.196 40.6702 195.406 34.169 196.346L34.2617 196.534C33.5355 188.406 33.5757 188.264 41.0812 189.488C45.852 190.264 50.5858 191.349 55.2825 192.509C59.3921 193.523 59.3612 193.656 70.9423 190.592C66.1189 189.136 61.3048 187.655 56.469 186.239C55.5451 185.967 54.4266 185.599 53.5954 185.874C39.6814 190.49 24.3708 186.876 15.4625 176.917C12.4591 173.562 11.3158 170.415 14.7858 167.811C14.035 165.199 13.4355 163.109 12.6074 160.215C20.9132 164.454 21.9916 165.83 19.603 169.027C26.2217 171.716 32.7352 174.363 39.5022 177.112V173.102H62.5747C64.6326 171.63 66.3784 170.381 68.1212 169.129C68.115 169.129 67.9203 169.008 67.9111 169.008C69.2861 170.591 75.3949 169.555 71.7333 173.609C88.3788 176.62 105.707 179.758 123.039 182.893C123.168 183.889 123.301 184.881 123.431 185.877C117.807 187.584 112.187 189.29 106.563 190.994L106.761 190.886V190.892Z" fill="#FF4D00" fill-opacity="0.5"/>
<path d="M44.8195 215.756C45.9257 221.204 46.9639 226.327 48.2555 232.681C37.484 229.824 41.538 220.808 37.9382 215.159C29.4378 212.785 19.0834 211.573 17.7949 198.346C24.6206 199.401 30.9642 201.333 37.2306 201.107C45.0667 200.826 52.0128 202.897 58.854 205.946C60.7821 206.805 62.2313 208.75 63.8967 210.197C62.0304 211.449 60.263 212.902 58.2638 213.889C56.898 214.563 55.214 214.588 54.8896 214.652C69.851 215.243 85.9341 215.877 102.017 216.508C102.067 216.307 102.113 216.106 102.162 215.905C98.3309 214.606 94.5025 213.311 90.671 212.012C90.7452 211.449 90.8193 210.887 90.8935 210.324C102.02 210.414 112.387 206.045 124.15 208.064C141.006 210.955 158.276 211.412 175.369 212.927C177.711 213.134 180.041 213.459 182.38 213.728C182.519 214.241 182.655 214.754 182.794 215.268C180.835 216.279 178.96 217.519 176.905 218.261C163.476 223.112 149.51 224.491 135.49 222.75C130.417 222.119 126.839 224.253 122.541 225.31C114.884 227.193 106.998 228.383 99.1405 229.169C83.5487 230.724 68.3215 228.828 53.7988 222.67C50.6378 221.328 45.9164 221.383 46.5097 215.886C45.7094 215.824 44.9122 215.762 44.8288 215.756H44.8195Z" fill="#FF4D00" fill-opacity="0.5"/>
<path d="M117.744 315.489H104.294C103.41 318.306 102.73 320.482 101.853 323.283C105.397 323.8 110.162 324.495 114.926 325.182C121.526 326.131 128.194 326.768 134.696 328.184C136.772 328.635 138.4 331.134 140.236 332.692C138.215 334.046 136.256 336.467 134.161 336.588C114.753 337.71 96.022 335.137 79.1509 324.588C77.0034 323.246 75.4801 320.897 73.6694 319.017C73.8424 318.921 74.0062 318.772 74.1916 318.742C74.3832 318.708 74.5902 318.788 74.825 318.797C81.8546 319.511 88.8533 320.247 95.4009 320.937C95.9231 318.729 96.3866 316.763 96.813 314.963C92.3388 320.26 85.7974 318.646 79.4939 318.429C77.9057 318.374 76.3051 318.714 74.7076 318.874C71.2098 317.029 67.6533 315.285 64.2266 313.312C57.0981 309.213 54.8517 304.352 56.7644 297.572C52.0677 294.278 49.9706 290.831 50.4733 287.23C52.7969 287.771 55.0835 288.306 57.3731 288.841L62.1378 290.572C64.4305 294.761 61.2015 301.047 67.332 303.836C71.8216 305.88 76.1692 308.232 80.5785 310.449C69.1087 302.803 66.0125 299.612 65.4286 293.049C82.2532 299.714 99.6125 301.959 117.284 302.324L116.996 302.197C123.868 303.858 130.744 305.521 138.589 307.416C132.162 313.603 124.255 313.102 117.55 315.606L117.747 315.489H117.744Z" fill="#FF4D00" fill-opacity="0.5"/>
<path d="M267.005 191.269C272.718 192.027 278.431 192.784 284.145 193.542C284.277 194.175 284.413 194.806 284.546 195.44C282.47 196.677 280.505 198.189 278.295 199.11C261.112 206.283 243.472 205.915 225.658 202.038C223.081 201.478 220.532 200.517 217.933 200.359C212.199 200.013 209.232 197.675 211.262 190.252C199.996 190.252 189.45 190.645 178.945 190.141C168.766 189.652 158.631 188.239 148.478 187.231C148.45 186.217 148.422 185.2 148.395 184.186C164.298 182.13 180.199 180.074 196.536 177.962C196.013 175.439 197.565 172.542 202.051 173.875C203.924 174.431 205.138 177.211 206.652 178.979C206.263 179.409 205.873 179.839 205.484 180.271C219.939 182.538 234.394 184.801 248.848 187.067C248.839 187.76 248.83 188.449 248.82 189.142C239.276 189.881 229.734 190.62 223.532 191.102H267.184L266.999 191.269H267.005Z" fill="#FF4D00" fill-opacity="0.5"/>
<path d="M69.0476 119.267C66.2574 113.176 66.7549 112.143 72.9347 110.35C87.1793 106.216 97.5306 113.08 107.06 122.331C111.179 129.232 115.298 136.136 119.417 143.037C121.005 146.466 122.593 149.897 124.478 153.969C118.057 156.041 112.245 157.661 105.49 156.359C94.1719 154.18 85.9557 148.676 80.7368 138.214C78.0517 132.831 74.1924 128.032 70.8676 122.974C70.262 121.743 69.6532 120.504 69.0445 119.267H69.0476Z" fill="#FF4D00" fill-opacity="0.5"/>
<path d="M183.966 125.636C181.212 123.033 181.246 121.088 184.951 119.254C197.917 112.842 211.472 112.663 225.228 115.408C227.364 115.835 229.471 117.709 231.041 119.418C237.594 126.554 243.935 133.882 250.353 141.135L250.155 140.971C251.45 144.076 250.356 146.082 247.223 146.929C245.091 147.507 242.779 148.494 240.74 148.151C230.132 146.36 218.851 148.265 208.966 142.502C198.686 139.775 190.68 133.662 183.962 125.636H183.966Z" fill="#FF4D00" fill-opacity="0.5"/>
<path d="M151.623 64.554C152.618 59.2051 157.191 60.7387 160.29 60.5624C168.513 60.0925 176.933 59.2732 184.973 60.5315C192.917 61.7775 200.49 65.3949 208.224 67.9704L208.221 67.9302C213.647 73.6408 219.126 79.305 224.459 85.1022C225.602 86.3451 226.214 88.0734 227.073 89.5791C225.374 90.4572 223.612 92.1855 221.984 92.068C215.557 91.6074 209.179 90.5191 202.771 89.7616C199.381 89.3596 195.778 88.33 192.602 89.0473C186.422 90.4356 182.22 87.789 177.742 84.2612C169.993 78.158 161.906 72.4845 153.974 66.6409C153.202 65.9515 152.417 65.2527 151.632 64.554H151.623Z" fill="#FF4D00" fill-opacity="0.5"/>
<path d="M200.187 155.648C201.003 155.225 201.819 154.798 202.635 154.374C205.632 155.775 208.629 157.179 212.433 158.956C210.118 156.959 208.691 155.726 207.263 154.492C208.855 153.571 210.43 151.895 212.043 151.855C220.077 151.657 227.527 146.268 235.891 149.242C237.554 149.833 239.343 150.064 241.073 150.463C241.154 151.011 241.234 151.558 241.314 152.105C237.282 153.079 233.253 154.053 229.22 155.027C229.366 154.532 229.514 154.037 229.659 153.543C237.115 155.419 244.664 157.012 251.959 159.383C253.668 159.937 255.401 163.106 255.448 165.109C255.475 166.383 252.491 168.748 250.726 168.881C234.723 170.087 218.662 171.982 202.681 171.497C190.448 171.126 178.326 167.505 166.124 165.523C161.121 164.71 156.007 164.596 151.005 163.78C148.962 163.446 147.084 162.098 145.131 161.21C147.09 160.654 149.052 159.609 151.005 159.621C161.983 159.705 172.962 160.311 183.934 160.175C188.931 160.113 193.921 158.827 198.88 157.902C199.436 157.797 199.758 156.424 200.187 155.642V155.648Z" fill="#FF4D00" fill-opacity="0.5"/>
<path d="M106.566 191H131.922C133.554 187.188 131.728 181.697 138.893 182.377C146.284 183.079 143.441 188.718 145.265 192.883C152.384 192.883 159.738 193.016 167.089 192.846C174.795 192.667 182.492 191.986 190.192 192.011C191.975 192.017 193.752 194.002 195.532 195.078C194.169 197.202 193.242 200.634 191.379 201.256C171.439 207.884 151.077 210.998 130.365 205.34C119.544 202.384 108.995 198.436 98.3223 194.933L98.5571 192.815C101.286 192.178 104.014 191.538 106.752 190.898C106.764 190.895 106.566 191 106.566 191Z" fill="#FF4D00" fill-opacity="0.5"/>
<path d="M277.503 119.579C278.168 121.926 278.993 124.238 279.469 126.622C281.947 139.073 271.691 149.86 259.06 148.144C255.614 147.677 253.733 146.005 253.516 142.177C253.275 137.982 252.314 133.826 251.668 129.658C248.013 125.463 244.352 121.261 240.693 117.059C238.073 112.827 238.589 108.776 241.404 104.865C242.334 103.316 243.264 101.761 244.197 100.209C249.181 98.1249 253.34 98.3692 257.737 102.466C263.12 107.481 269.46 111.463 275.39 115.891C276.097 117.118 276.802 118.349 277.51 119.579H277.503Z" fill="#FF4D00" fill-opacity="0.5"/>
<path d="M162.911 254.902C159.617 253.993 156.123 253.495 153.104 252.02C151.312 251.142 150.277 248.721 148.898 246.996C150.511 246.226 152.075 244.906 153.74 244.764C173.686 243.082 193.625 241.137 213.611 240.256C220.511 239.953 227.522 242.454 234.499 243.579C237.097 243.997 239.783 243.935 242.344 244.479C243.902 244.81 245.298 245.883 246.769 246.619C245.527 248.186 244.581 250.564 242.978 251.157C239.406 252.484 235.497 252.877 231.743 253.721C210.005 258.606 188.168 256.911 166.319 254.775C165.121 254.657 163.897 254.756 162.701 254.763C162.714 254.769 162.908 254.902 162.908 254.902H162.911Z" fill="#FF4D00" fill-opacity="0.5"/>
<path d="M298.147 203.145C292.721 203.488 287.292 203.828 281.866 204.171C281.875 204.446 281.885 204.722 281.894 204.997H291.995C292.465 205.457 292.931 205.921 293.401 206.382C291.624 208.509 290.246 211.836 288.012 212.572C268.363 219.068 248.238 219.939 227.894 216.458C227.19 216.337 226.584 215.651 225.246 214.785C236.429 212 246.792 208.515 257.434 207.047C266.457 205.804 275.009 204.895 283.028 199.741C288.472 196.241 295.221 194.769 301.388 192.398C304.75 191.105 308.115 189.828 311.48 188.545C313.025 187.652 314.573 186.761 316.118 185.868C320.33 183.601 324.541 181.332 329.028 178.917C332.244 182.825 330.727 186.511 327.792 189.547C324.708 192.735 321.05 195.36 317.663 198.213C315.565 199.076 313.445 199.954 311.325 200.835C306.876 201.654 302.426 202.474 297.974 203.293L298.147 203.142V203.145Z" fill="#FF4D00" fill-opacity="0.5"/>
<path d="M243.446 67.9613C246.06 62.4764 245.05 55.1859 251.594 51.6334C251.937 51.4479 252.246 50.5543 252.092 50.1895C249.227 43.3164 255.117 42.5682 258.689 42.4198C266.293 42.1044 273.984 42.9021 281.57 43.8173C283.254 44.0213 284.653 46.5937 286.183 48.0747C284.196 48.4086 282.178 49.1445 280.229 48.9991C274.8 48.6003 269.411 47.5955 263.979 47.3203C261.55 47.1997 259.059 48.254 256.986 48.6931C263.892 49.1136 271.005 49.0919 277.973 50.1029C284.403 51.0336 285.117 53.6214 280.445 58.3364C276.907 61.9044 272.702 64.8138 268.793 68.0138C261.256 73.6718 253.723 79.3299 246.187 84.991C242.269 87.5788 241.45 84.5983 241.598 81.9301C241.861 77.2058 242.809 72.5155 243.471 67.8129L243.449 67.9613H243.446Z" fill="#FF4D00" fill-opacity="0.5"/>
<path d="M208.098 176.716C209.859 175.597 211.556 173.636 213.391 173.494C226.131 172.514 238.898 171.896 251.657 171.206C253.869 171.086 256.094 171.191 258.288 171.191C258.439 167.938 258.575 165.023 258.804 160.116C263.491 161.718 267.208 162.988 270.929 164.259C269.408 166.405 267.891 168.55 266.927 169.911C274.192 169.911 283.421 169.787 292.642 170.028C294.248 170.072 295.815 171.645 297.4 172.511C296.022 173.714 294.836 175.501 293.238 176.02C284.951 178.723 276.698 181.984 268.16 183.339C259.703 184.68 250.856 184.724 242.297 183.988C231.232 183.039 220.285 180.754 209.285 179.044C208.886 178.268 208.49 177.492 208.092 176.719L208.098 176.716Z" fill="#FF4D00" fill-opacity="0.5"/>
<path d="M140.009 165.53C154.67 166.324 169.388 166.813 183.635 172.517C173.621 184.448 109.359 184.693 89.6797 172.644C107.144 168.628 123.755 167.592 140.178 165.403L140.009 165.533V165.53Z" fill="#FF4D00" fill-opacity="0.5"/>
<path d="M263.926 296.007C246.387 304.896 228.2 303.885 209.889 299.254C207.946 298.762 205.511 296.589 205.023 294.74C204.123 291.345 205.43 288.321 209.722 287.771C216.14 286.948 222.521 285.746 228.96 285.189C240.671 284.178 252.413 283.492 264.145 282.743C266.725 282.58 269.327 282.719 274.243 282.719C270.093 288.037 266.911 292.121 263.725 296.202L263.929 296.004L263.926 296.007Z" fill="#FF4D00" fill-opacity="0.5"/>
<path d="M212.547 341.312C196.396 343.365 180.223 344.722 164.229 340.449C160.525 339.46 154.416 340.143 154.811 334.167C155.219 327.977 161.158 330.957 164.526 330.361C172.6 328.929 180.825 328.363 189.697 327.371C189.82 325.541 190.009 322.792 190.315 318.25C193.574 319.44 197.502 319.712 198.729 321.676C199.776 323.352 197.718 326.969 196.828 330.552C203.864 329.823 212.324 328.728 220.818 328.193C223.365 328.033 227.836 328.873 228.256 330.234C229.43 334.031 227.357 337.135 223.046 338.356C221.18 338.885 219.536 340.19 217.79 341.142C216.041 341.197 214.296 341.253 212.547 341.309V341.312Z" fill="#FF4D00" fill-opacity="0.5"/>
<path d="M279.959 239.746C259 245.261 238.156 243.02 217.419 238.53C215.222 238.054 213.489 235.439 211.539 233.819C213.656 232.931 215.862 231.116 217.87 231.314C227.808 232.288 236.203 228.046 244.836 224.317C246.159 223.745 247.886 224.116 249.425 224.055V228.81C260.545 228.81 272.015 228.661 283.476 228.946C285.574 228.998 287.626 230.823 289.699 231.827C287.999 233.741 286.467 235.847 284.545 237.498C283.229 238.629 281.372 239.13 279.759 239.912L279.959 239.752V239.746Z" fill="#FF4D00" fill-opacity="0.5"/>
<path d="M184.265 317.001C175.761 315.282 167.215 313.739 158.782 311.723C156.672 311.219 154.926 309.197 153.418 307.305C172.359 304.142 190.602 299.968 209.324 301.61C216.774 302.262 224.187 303.36 231.596 304.396C232.622 304.538 234.108 305.332 234.343 306.13C234.59 306.974 233.886 308.61 233.089 309.148C231.105 310.496 228.911 311.621 226.665 312.475C212.859 317.728 198.5 317.783 184.048 316.828C184.052 316.828 184.262 317.001 184.262 317.001H184.265Z" fill="#FF4D00" fill-opacity="0.5"/>
<path d="M321.39 139.515C313.381 143.791 305.122 146.917 295.163 144.542C299.226 148.129 299.276 152.417 295.895 154.767C285.241 162.181 257.546 162.237 244.568 154.325C246.663 153.756 248.06 153.351 249.472 152.999C255.732 151.428 262.002 149.897 268.253 148.299C272.335 147.254 276.33 145.68 280.47 145.102C294.854 143.099 307.578 138.047 317.478 126.897C318.813 125.392 321.298 124.906 323.257 123.945C323.263 123.942 323.08 124.093 323.08 124.093C326.69 123.147 330.302 122.201 333.911 121.255C334.337 121.774 334.764 122.291 335.19 122.81C330.527 128.443 325.861 134.08 321.193 139.719C321.186 139.722 321.384 139.515 321.384 139.515H321.39Z" fill="#FF4D00" fill-opacity="0.5"/>
<path d="M143.647 67.5437C148.647 72.7782 153.65 78.0126 158.668 83.2656C150.689 92.674 134.622 96.2049 121.351 90.652C120.68 82.3566 119.864 74.8682 119.636 67.3613C119.586 65.7814 121.697 62.7514 122.797 62.7576C127.876 62.7854 132.953 63.6542 138.03 64.22C139.902 65.33 141.778 66.4368 143.651 67.5468L143.647 67.5437Z" fill="#FF4D00" fill-opacity="0.5"/>
<path d="M117.551 315.606C135.161 310.737 152.804 317.465 170.466 315.498C174.959 314.997 179.665 316.451 184.272 317.004C184.269 317.004 184.059 316.831 184.056 316.831C187.751 322.025 186.917 324.619 180.681 326.211C165.64 330.051 150.499 329.934 135.389 326.691C127.253 324.944 119.179 322.894 111.102 320.881C109.063 320.371 107.119 319.474 105.287 317.375C109.434 316.75 113.577 316.126 117.736 315.495C117.749 315.489 117.551 315.606 117.551 315.606Z" fill="#FF4D00" fill-opacity="0.5"/>
<path d="M5.51185 91.3231C8.39785 89.5206 11.5094 87.9901 14.1173 85.8506C17.4761 83.0958 19.9604 83.8347 21.9565 87.1368C24.4531 91.2675 30.3178 94.4366 26.1711 100.66C25.9827 100.83 25.7849 100.997 25.5841 101.161C14.2749 109.71 16.8983 120.757 20.7792 131.736C9.72343 134.38 -0.807065 125.982 0.0488466 114.592C0.642114 106.693 3.71351 98.9785 5.67871 91.184L5.51185 91.3231Z" fill="#FF4D00" fill-opacity="0.5"/>
<path d="M244.333 221.652C216.471 234.724 187.855 228.835 159.348 225.607C187.268 215.394 215.52 212.402 244.333 221.652Z" fill="#FF4D00" fill-opacity="0.5"/>
<path d="M97.1514 66.1153C95.6281 67.0398 94.1078 67.9673 90.6996 70.0357C91.364 66.0751 91.7564 63.7284 92.1488 61.3848C91.8398 61.5394 91.5308 61.694 91.2249 61.8455C90.1157 57.415 88.0763 52.972 88.1381 48.5569C88.2123 43.3936 90.3103 38.2859 91.1693 33.0947C91.9912 28.1324 92.3497 23.0896 93.116 16.2969C96.7745 18.22 100.887 19.0393 102.438 21.4849C105.358 26.0887 107.039 31.555 108.779 36.8142C109.987 40.4656 111.124 44.3891 111.01 48.1519C110.914 51.3148 109.295 54.6014 107.731 57.4984C106.628 59.5452 104.493 61.0324 102.818 62.77C100.93 63.883 99.0425 64.9961 97.1514 66.1091V66.1153Z" fill="#FF4D00" fill-opacity="0.5"/>
<path d="M56.5548 75.0878C63.0375 79.8059 69.5109 84.5363 76.009 89.2328C77.6251 90.4015 79.3245 91.4589 80.9745 92.5565C74.4301 102.8 56.4714 107.014 46.6979 101.857C45.224 94.3034 43.9324 87.6962 42.6439 81.0859C41.9765 79.9636 41.3091 78.8443 40.6416 77.722C39.3995 74.3797 41.1268 73.0873 44.0869 73.3502C48.2243 73.715 52.3247 74.4941 56.4374 75.0939L56.5548 75.0847V75.0878Z" fill="#FF4D00" fill-opacity="0.5"/>
<path d="M280.983 256.151C279.194 257.715 277.634 259.728 275.579 260.77C258.973 269.204 241.37 271.737 222.982 269.183C219.571 268.71 216.15 268.277 212.754 267.699C209.497 267.145 205.511 266.521 206.945 262.025C207.507 260.263 210.891 258.501 213.106 258.337C219.948 257.836 226.869 258.46 233.713 257.987C243.573 257.31 253.393 256.064 263.231 255.038C268.691 254.469 274.145 253.85 279.602 253.257C280.062 254.221 280.526 255.186 280.986 256.148L280.983 256.151Z" fill="#FF4D00" fill-opacity="0.5"/>
<path d="M40.641 77.7252C41.3084 78.8475 41.9758 79.9667 42.6433 81.0891C43.2056 86.1071 44.0276 91.1127 44.25 96.1462C44.4447 100.512 39.2196 103.199 35.6198 100.731C33.4631 99.2535 31.0869 97.723 29.647 95.6361C24.2643 87.8447 18.9898 79.9482 14.256 71.758C13.2858 70.0791 13.9749 66.1989 15.3592 64.6128C21.3598 57.7458 24.2736 57.1058 29.3473 60.2564C31.1024 64.2758 32.8574 68.2951 34.6125 72.3145C34.9555 75.9783 37.5202 77.1625 40.641 77.7252Z" fill="#FF4D00" fill-opacity="0.5"/>
<path d="M62.1385 290.572L57.3738 288.841C53.5763 286.197 49.3245 284.008 46.1079 280.783C42.8357 277.503 40.3205 273.233 44.3435 269.14C41.6059 266.128 38.3892 263.528 36.5322 260.173C35.5094 258.331 36.0625 254.757 37.2861 252.858C37.9783 251.788 41.4854 252.398 43.7101 252.512C45.0913 252.583 46.4509 253.136 47.8166 253.473C47.8135 253.473 47.6065 253.303 47.6065 253.303C51.1321 262.919 51.404 265.587 48.7683 270.834C59.0887 274.046 69.2361 277.206 79.3865 280.366L79.1918 280.177C80.539 284.636 81.8862 289.097 83.8947 295.739C75.4654 293.735 68.8004 292.155 62.1354 290.572H62.1385Z" fill="#FF4D00" fill-opacity="0.5"/>
<path d="M297.548 32.2663C297.882 33.84 298.689 35.491 298.441 36.9658C298.052 39.2631 297.564 42.2405 295.985 43.4617C294.097 44.9211 290.383 46.1083 288.56 45.1993C280.013 40.9419 271.142 40.3421 261.909 40.9481C259.99 41.0749 257.994 40.0051 256.035 39.4857C257.11 37.6893 257.886 35.5869 259.323 34.1554C262.904 30.5812 266.742 27.2606 270.558 23.9307C276.472 18.7643 279.509 18.418 286.375 22.3663C289.521 24.175 292.438 26.3856 295.457 28.4139C296.155 29.697 296.853 30.9832 297.548 32.2663Z" fill="#FF4D00" fill-opacity="0.5"/>
<path d="M256.527 280.459C255.705 273.913 257.244 270.28 263.693 268.83C277.437 265.739 290.547 261.017 301.652 251.764C303.358 250.341 306.327 250.44 308.71 249.834C308.537 252.484 309.322 255.777 308.039 257.675C298.779 271.397 286.107 279.71 269.162 280.431C264.978 280.607 260.782 280.459 256.524 280.459H256.527Z" fill="#FF4D00" fill-opacity="0.5"/>
<path d="M97.1514 66.1155C99.0394 65.0024 100.93 63.8894 102.818 62.7763C103.31 62.4239 103.813 62.0838 104.295 61.7189C110.871 56.7473 113.982 57.0379 116.559 65.0952C118.568 71.3654 118.45 78.4735 118.287 85.1858C118.234 87.3037 115.262 89.7339 113.105 91.3107C111.05 92.8133 108.365 93.543 105.874 94.3438C96.1287 97.482 95.3191 96.8018 96.4531 86.8369C96.4531 86.843 96.3449 87.0347 96.3449 87.0347C96.5736 81.8312 96.8115 76.6246 97.0247 71.4211C97.0989 69.6556 97.1113 67.884 97.1514 66.1186V66.1155Z" fill="#FF4D00" fill-opacity="0.5"/>
<path d="M56.5542 75.0878C56.5542 75.0878 56.4337 75.0971 56.4367 75.0971C54.4036 72.333 54.4839 71.2447 57.1196 71.1086C60.0674 70.9571 63.0647 71.7393 66.3184 72.1536C74.312 65.3671 85.7664 64.7611 93.7137 71.4209C95.2772 72.7318 95.8396 75.6536 96.1609 77.9292C96.5843 80.9189 96.3123 84.0046 96.3432 87.0407C96.3432 87.0346 96.4514 86.8429 96.4514 86.8336C91.8783 96.0132 91.7979 96.1523 83.0133 91.0632C74.0988 85.8999 65.3667 80.4274 56.5542 75.0878Z" fill="#FF4D00" fill-opacity="0.5"/>
<path d="M24.9397 29.6226C31.4378 29.5639 37.9977 28.9455 44.4063 29.6659C47.9597 30.0648 49.4181 33.0917 45.6917 36.0443C43.0776 38.1159 40.3832 40.0822 37.7227 42.095L37.905 41.9621C31.7344 45.4806 25.5669 48.999 19.3963 52.5175C18.5466 52.6783 17.6938 52.8391 16.844 52.9999C16.3373 53.3245 15.8676 53.7852 15.3114 53.9521C12.6417 54.7622 9.9504 55.495 7.26525 56.2555C6.913 52.6598 5.47309 48.7393 6.43097 45.5393C8.62173 38.2241 13.0805 32.2816 20.8671 29.7463C22.2236 29.7061 23.5801 29.6659 24.9366 29.6257L24.9397 29.6226Z" fill="#FF4D00" fill-opacity="0.5"/>
<path d="M313.275 99.64C314.073 99.5009 314.895 99.4421 315.667 99.2102C324.424 96.576 327.341 97.349 330.27 103.121C333.981 110.434 332.448 117.229 326.021 121.944C325.048 122.659 324.072 123.37 323.092 124.087C323.086 124.087 323.268 123.939 323.262 123.942C319.032 122.315 314.755 120.797 310.6 119.01C308.199 117.978 305.989 116.509 303.694 115.235C300.74 113.711 297.782 112.19 294.829 110.665C292.468 106.884 295.74 106.229 297.983 105.323C303.1 103.254 308.31 101.409 313.479 99.4731L313.282 99.64H313.275Z" fill="#FF4D00" fill-opacity="0.5"/>
<path d="M267.016 226.358C266.064 221.788 267.149 219.33 271.738 218.709C278.724 217.763 285.716 216.702 292.598 215.19C300.273 213.502 307.806 211.177 315.445 209.307C317.197 208.877 320.08 208.422 320.756 209.291C321.927 210.797 322.802 213.954 321.977 215.302C320.185 218.236 317.697 221.547 314.697 222.812C299.25 229.317 283.142 228.306 267.016 226.358Z" fill="#FF4D00" fill-opacity="0.5"/>
<path d="M222.176 327.355C216.737 326.854 211.268 326.564 205.889 325.704C204.458 325.475 203.309 323.494 202.029 322.316C203.352 321.196 204.535 319.344 206.015 319.069C223.078 315.885 240.178 312.895 257.296 310.013C258.804 309.76 260.506 310.65 262.119 311.006C261.73 312.697 261.857 314.864 260.834 315.971C258.967 317.993 256.61 319.787 254.122 320.977C244.052 325.803 233.34 327.587 222.176 327.352V327.355Z" fill="#FF4D00" fill-opacity="0.5"/>
<path d="M39.0995 229.657C48.7679 235.828 58.0902 242.674 68.25 247.886C73.4719 250.567 75.2826 253.755 75.8821 260.826C65.9479 258.182 56.7739 255.743 47.603 253.303C47.6061 253.303 47.8131 253.473 47.8162 253.473C44.5718 251.451 40.9967 249.8 38.1725 247.299C35.3731 244.819 32.6941 241.765 31.1924 238.413C30.2469 236.304 30.7382 232.539 32.141 230.724C33.1885 229.366 36.7264 229.932 39.1551 229.642L39.0995 229.657Z" fill="#FF4D00" fill-opacity="0.5"/>
<path d="M52.1187 25.3344C41.8693 18.4891 30.6313 18.35 17.7246 22.0664C18.9791 18.8014 19.2788 17.2462 20.0884 16.028C28.5177 3.30212 50.8518 1.48104 60.7179 13.0352C62.748 15.4128 64.6236 20.7214 63.4124 22.3972C61.7036 24.7655 57.0564 25.0098 53.6667 26.1599C53.1507 25.8847 52.6378 25.6096 52.1217 25.3344H52.1187Z" fill="#FF4D00" fill-opacity="0.5"/>
<path d="M328.058 145.983C329.39 145.557 330.706 145.087 332.059 144.74C332.353 144.666 332.761 145.05 333.113 145.226C332.368 150.349 334.083 156.056 328.429 159.832C320.287 165.267 311.518 168.977 301.76 168.999C293.463 169.02 285.151 167.941 276.876 167.06C275.535 166.918 274.358 165.255 273.104 164.296C274.312 163.288 275.415 161.575 276.743 161.381C287.555 159.779 298.398 158.375 309.25 157.08C317.302 156.118 324.996 154.752 328.253 145.795L328.058 145.983Z" fill="#FF4D00" fill-opacity="0.5"/>
<path d="M168.334 209.817C192.822 201.129 217.566 199.914 242.597 206.985C218.187 216.124 193.285 213.589 168.334 209.817Z" fill="#FF4D00" fill-opacity="0.5"/>
<path d="M302.773 20.9562C309.2 18.826 315.433 20.9068 319.808 26.942C326.306 35.9083 324.585 49.738 314.355 62.8225C311.781 55.7237 309.108 49.6143 307.377 43.2482C305.434 36.1 304.337 28.7229 302.773 20.9562Z" fill="#FF4D00" fill-opacity="0.5"/>
<path d="M279.759 239.906C290.472 236.938 301.175 233.93 311.916 231.061C313.062 230.755 315.096 230.832 315.525 231.5C316.115 232.418 315.936 234.227 315.442 235.377C314.017 238.704 308.764 240.172 310.597 245.336C310.671 245.54 306.654 247.197 304.543 248.177C302.909 243.802 300.409 247.049 298.558 247.723C288.358 251.433 277.992 252.413 267.427 249.871C265.728 249.463 264.316 247.868 262.768 246.823C264.279 245.775 265.66 244.368 267.328 243.753C271.463 242.225 275.727 241.06 279.948 239.746C279.957 239.743 279.756 239.903 279.756 239.903L279.759 239.906Z" fill="#FF4D00" fill-opacity="0.5"/>
<path d="M277.504 119.579C276.797 118.349 276.089 117.121 275.385 115.891C276.015 115.121 276.948 113.581 277.229 113.692C288.631 118.182 300.441 121.907 310.227 129.723C305.138 137.839 291.23 142.876 279.822 140.733C282.115 133.399 282.266 126.143 277.504 119.579Z" fill="#FF4D00" fill-opacity="0.5"/>
<path d="M316.117 185.868C314.572 186.761 313.024 187.652 311.479 188.545C300.503 191.925 289.367 193.777 277.981 191.102C275.808 190.592 273.967 188.672 271.971 187.401C273.754 185.747 275.311 183.091 277.363 182.634C282.439 181.496 287.794 181.666 292.939 180.751C300.494 179.409 307.944 177.498 315.474 175.996C318.755 175.34 322.114 175.087 326.792 174.474C324.512 180.871 320.239 183.301 316.12 185.871L316.117 185.868Z" fill="#FF4D00" fill-opacity="0.5"/>
<path d="M32.6047 154.838C34.2887 155.908 35.9758 156.978 37.6598 158.048C44.297 161.656 50.9373 165.264 59.2615 169.79C55.8472 170.699 53.8016 171.188 51.7901 171.791C46.5496 173.361 40.5366 168.285 35.639 173.658C35.3609 173.961 32.5892 172.61 32.6232 172.489C33.9426 167.768 29.4097 168.85 27.5928 167.338C22.6984 163.263 17.5258 159.479 12.9774 155.052C11.794 153.898 12.4769 150.822 12.3038 148.627C14.5224 148.512 17.0036 147.702 18.9132 148.42C23.6161 150.185 28.0563 152.652 32.6047 154.838Z" fill="#FF4D00" fill-opacity="0.5"/>
<path d="M235.176 343.068C250.233 337.456 264.654 332.08 279.028 326.722C280.397 332.457 276.083 340.477 268.788 345.004C258.978 351.088 243.791 350.467 235.176 343.068Z" fill="#FF4D00" fill-opacity="0.5"/>
<path d="M263.726 296.205C273.401 292.866 283.085 289.549 292.75 286.172C296.402 284.896 297.774 287.153 296.572 289.7C295.018 292.987 292.389 295.915 289.725 298.481C287.608 300.519 284.747 301.78 282.216 303.385L282.42 303.205C273.914 304.943 265.438 306.851 256.879 308.27C255.22 308.545 253.245 306.912 251.416 306.158C252.72 304.587 253.798 302.723 255.377 301.514C258.059 299.461 261.057 297.819 263.927 296.004C263.93 296.004 263.726 296.202 263.726 296.202V296.205Z" fill="#FF4D00" fill-opacity="0.5"/>
<path d="M63.4088 5.46932C60.773 1.94774 61.3323 0.259604 66.0476 0.0339013C78.3887 -0.556636 85.3905 6.65348 84.17 19.3268C83.552 25.7424 82.4304 32.1115 81.3613 39.7514C79.3744 38.1622 77.1435 37.2594 76.4946 35.6949C74.2112 30.1946 71.9771 24.5829 70.6701 18.7981C69.4496 13.4029 69.1653 7.88093 63.2048 5.25907L63.4118 5.47241L63.4088 5.46932Z" fill="#FF4D00" fill-opacity="0.5"/>
<path d="M325.874 58.9949C327.666 55.9587 329.455 52.9195 331.247 49.8833C338.851 53.6708 340.838 61.8023 336.83 72.7318L337.031 72.537C330.629 76.7079 324.236 80.8911 317.818 85.0311C317.018 85.5474 316.078 85.8442 315.204 86.2462C314.62 85.9308 314.039 85.6154 313.455 85.3001C315.992 79.4256 318.427 73.5017 321.112 67.6953C322.533 64.622 324.393 61.7497 326.056 58.7846L325.874 58.9918V58.9949Z" fill="#FF4D00" fill-opacity="0.5"/>
<path d="M246.187 84.9911C253.724 79.333 261.26 73.6719 268.793 68.0139C270.666 67.0554 272.541 66.097 276.011 64.3223C274.815 68.5952 274.04 71.3809 273.261 74.1635L273.416 73.9749C271.472 76.031 269.529 78.087 267.597 80.1338C264.841 82.4589 262.073 84.7932 259.304 87.1275C254.267 91.4901 249.231 95.8495 244.194 100.212C243.261 101.764 242.331 103.319 241.401 104.868C237.452 106.025 237.718 103.202 237.523 100.775C236.945 93.6018 242.102 89.5948 246.187 84.9911Z" fill="#FF4D00" fill-opacity="0.5"/>
<path d="M303.552 93.2862C299.992 83.142 293.921 74.7539 285.355 68.0694C292.329 63.781 301.164 65.9886 308.786 72.2711C316.462 78.5939 314.129 88.6176 308.011 93.0049C306.994 93.7345 305.066 93.1935 303.549 93.212C303.537 93.1842 303.549 93.2862 303.549 93.2862H303.552Z" fill="#FF4D00" fill-opacity="0.5"/>
<path d="M209.738 352.359C208.15 350.293 207.952 348.834 211.119 348.206C220.516 346.345 229.696 342.48 239.377 348.033C242.862 350.034 247.512 349.997 252.589 352.538C250.046 354.201 247.71 356.493 244.923 357.408C236.88 360.051 228.902 358.74 221.075 355.914C217.271 354.542 213.378 353.416 209.528 352.179L209.735 352.356L209.738 352.359Z" fill="#FF4D00" fill-opacity="0.5"/>
<path d="M119.417 143.034C115.298 136.133 111.179 129.229 107.06 122.328C106.377 120.98 105.691 119.628 104.768 117.807C111.037 116.364 114.056 119.882 117.019 123.469C118.678 125.475 120.279 127.525 121.907 129.556C126.932 137.354 131.956 145.148 136.968 152.934C137.629 154.173 138.303 155.422 139.288 157.256C133.241 157.973 129.237 156.458 126.243 152.312C123.996 149.199 121.691 146.125 119.414 143.034H119.417Z" fill="#FF4D00" fill-opacity="0.5"/>
<path d="M259.3 87.1273C262.069 84.793 264.838 82.4587 267.594 80.1336C270.05 77.855 271.506 78.0374 272.606 81.5806C275.211 89.9687 271.907 97.5158 269.488 105.146C269.213 106.012 266.503 106.853 265.273 106.494C263.438 105.96 261.837 104.448 260.277 103.177C251.919 96.3873 251.863 95.1784 259.304 87.1243L259.3 87.1273Z" fill="#FF4D00" fill-opacity="0.5"/>
<path d="M69.0478 119.267C69.6565 120.504 70.2652 121.743 70.8709 122.974C76.612 132.88 82.3561 142.789 88.1003 152.702C87.8284 153.227 87.5534 153.753 87.2815 154.275C84.1916 152.612 79.8811 151.734 78.2156 149.152C69.7832 136.055 62.0398 122.516 53.9844 109.017C57.5275 107.927 62.5497 111.343 69.0509 119.264L69.0478 119.267Z" fill="#FF4D00" fill-opacity="0.5"/>
<path d="M25.5842 101.161C25.7881 101 25.9828 100.834 26.1713 100.66C28.1427 100.391 30.114 100.119 32.0885 99.8503C31.9958 101.727 32.1318 103.65 31.7641 105.474C30.695 110.795 28.8935 116.033 28.4609 121.391C28.2508 124.004 30.4416 126.811 31.5478 129.529C32.5118 131.653 33.4759 133.78 34.4276 135.892C34.4523 137.153 34.4863 138.43 34.5203 139.704C32.9012 139.327 30.9885 139.376 29.7062 138.501C17.8903 130.431 15.9282 112.1 25.5811 101.164L25.5842 101.161Z" fill="#FF4D00" fill-opacity="0.5"/>
<path d="M183.965 125.636C190.682 133.662 198.688 139.772 208.969 142.502C211.601 144.239 214.234 145.977 216.87 147.715C206.574 151.335 199.152 144.533 190.84 141.083C187.447 138.832 184.058 136.581 180.686 134.349C177.519 130.28 174.334 126.192 170.953 121.855C176.731 119.035 180.214 122.801 183.962 125.636H183.965Z" fill="#FF4D00" fill-opacity="0.5"/>
<path d="M245.28 332.59C243.923 328.06 245.527 325.559 250.168 324.202C261.082 321.014 271.89 317.471 282.924 314.014C282.89 323.234 258.693 334.77 245.28 332.593V332.59Z" fill="#FF4D00" fill-opacity="0.5"/>
<path d="M334.16 83.7327C339.419 84.6943 341.901 88.6425 341.987 93.2029C342.102 99.4175 341.32 105.737 340.081 111.84C339.596 114.224 336.827 116.141 334.003 117.941C335.316 108.73 333.975 100.902 327.057 95.1291C329.705 90.9274 332.035 87.2296 334.361 83.5317L334.157 83.7296L334.16 83.7327Z" fill="#FF4D00" fill-opacity="0.5"/>
<path d="M273.261 74.1634C275.195 72.0208 277.148 69.9802 280.049 72.8494C280.133 72.9112 280.226 72.9669 280.324 73.0163C283.51 77.9509 286.69 82.8854 289.882 87.8169C292.295 91.5456 290.469 93.4192 286.943 94.5199C278.492 97.1603 275.028 94.7951 274.42 86.0576C274.138 82.0228 273.755 77.9942 273.415 73.9686C273.415 73.9748 273.258 74.1603 273.258 74.1603L273.261 74.1634Z" fill="#FF4D00" fill-opacity="0.5"/>
<path d="M209.529 352.183C215.192 354.733 220.856 357.284 226.557 359.85C221.62 368.019 201.084 363.836 191.465 352.718C197.694 350.42 203.676 350.291 209.745 352.362C209.739 352.362 209.529 352.183 209.529 352.183Z" fill="#FF4D00" fill-opacity="0.5"/>
<path d="M294.826 110.669C297.78 112.193 300.737 113.714 303.691 115.238C306.892 117.656 310.223 119.925 313.211 122.584C314.064 123.342 314.404 125.379 314.042 126.536C313.826 127.231 311.471 128.045 310.634 127.643C298.759 121.935 286.981 116.03 274.812 109.055C278.978 108.764 283.143 108.476 287.308 108.186L287.117 108.059C289.687 108.928 292.258 109.797 294.829 110.665L294.826 110.669Z" fill="#FF4D00" fill-opacity="0.5"/>
<path d="M143.648 67.5439C141.775 66.434 139.9 65.3271 138.027 64.2171C138.324 60.0463 140.712 58.3891 144.427 60.1359C146.957 61.3263 149.231 63.0639 151.62 64.5541C152.405 65.2529 153.19 65.9516 153.962 66.6411C160.958 72.3764 167.963 78.1241 175.459 84.2707C170.71 87.347 167.193 84.9818 164.109 82.8051C159.305 79.4165 154.92 75.4312 150.254 71.8323C148.181 70.2338 145.857 68.9631 143.645 67.5439H143.648Z" fill="#FF4D00" fill-opacity="0.5"/>
<path d="M41.5132 146.302C33.0746 150.983 14.8842 147.421 10.5799 141.064C9.48609 139.447 9.61895 136.995 9.18945 134.927C11.0063 134.723 13.1168 133.82 14.5968 134.432C23.3537 138.059 31.9654 142.041 41.5132 146.299V146.302Z" fill="#FF4D00" fill-opacity="0.5"/>
<path d="M243.471 67.8127C241.478 72.9946 239.485 78.1765 237.609 83.0616C232.326 77.1964 226.856 71.1271 221.529 65.2156C225.212 62.3649 237.47 63.2894 243.434 67.992C243.449 67.9611 243.471 67.8127 243.471 67.8127Z" fill="#FF4D00" fill-opacity="0.5"/>
<path d="M208.218 67.9302C208.218 67.9302 208.218 67.9704 208.221 67.9704C207.776 66.9532 207.331 65.9329 206.883 64.9126C208.156 64.6004 209.744 63.6481 210.643 64.0902C214.598 66.0411 218.872 67.8282 222.067 70.7345C227.434 75.6134 232.214 81.1787 236.902 86.7439C237.838 87.8539 237.257 90.247 237.374 92.0495C235.786 91.5826 233.787 91.5765 232.678 90.5778C224.424 83.1389 216.347 75.5052 208.215 67.9333L208.218 67.9302Z" fill="#FF4D00" fill-opacity="0.5"/>
<path d="M287.305 108.189C282.627 107.669 277.952 107.153 273.273 106.634C274.655 97.2313 279.759 93.8798 290.024 96.0194C293.763 96.7985 297.387 98.1094 301.067 99.1792C301.145 99.7728 301.219 100.366 301.296 100.957C296.562 103.322 291.828 105.691 287.107 108.059C287.116 108.062 287.308 108.189 287.308 108.189H287.305Z" fill="#FF4D00" fill-opacity="0.5"/>
<path d="M156.029 358.196C158.43 360.228 160.831 362.259 163.278 364.327C155.056 369.515 138.568 362.101 133.355 349.632C140.784 351.799 147.118 353.645 153.449 355.488C154.308 356.387 155.167 357.29 156.029 358.196Z" fill="#FF4D00" fill-opacity="0.5"/>
<path d="M328.252 145.795C323.203 147.909 318.151 150.024 312.361 152.448C311.035 143.374 319.366 143.977 321.387 139.515C321.393 139.512 321.192 139.719 321.198 139.716C326.096 135.712 330.987 131.715 335.851 127.735C339.046 132.265 337.346 136.603 328.061 145.98C328.058 145.98 328.252 145.795 328.252 145.795Z" fill="#FF4D00" fill-opacity="0.5"/>
<path d="M170.666 354.019C183.857 350.699 193.766 356.446 203.262 363.573C196.371 368.727 181.629 364.534 170.666 354.019Z" fill="#FF4D00" fill-opacity="0.5"/>
<path d="M135.321 343.813C135.627 342.913 135.933 341.228 136.236 341.228C150.57 341.299 164.911 341.469 178.16 348.132C178.296 348.2 178.321 348.491 178.93 349.96C163.455 351.505 149.347 347.127 135.133 343.658L135.324 343.816L135.321 343.813Z" fill="#FF4D00" fill-opacity="0.5"/>
<path d="M240.691 117.059C244.349 121.261 248.011 125.463 251.666 129.658C252.636 133.619 255.699 137.867 250.155 140.965C250.155 140.965 250.353 141.129 250.353 141.132C243.49 132.37 236.628 123.605 229.762 114.839C229.935 114.311 230.105 113.782 230.275 113.256C233.745 114.524 237.215 115.792 240.685 117.059H240.691Z" fill="#FF4D00" fill-opacity="0.5"/>
<path d="M16.8437 52.9999C17.6935 52.8392 18.5463 52.6784 19.396 52.5176C25.5666 48.9991 31.7341 45.4806 37.9047 41.9622L37.7224 42.0951C42.6323 43.9904 41.5292 48.2045 38.532 49.2032C25.959 53.3957 15.6479 60.6677 5.91463 71.7518C5.65816 61.6756 13.1451 58.4972 16.8437 53.003V52.9999Z" fill="#FF4D00" fill-opacity="0.5"/>
<path d="M52.1183 25.3343C52.6343 25.6094 53.1472 25.8846 53.6632 26.1598C54.1916 31.6941 50.8359 29.2361 48.2219 28.9764C41.8813 28.3457 35.5191 27.8603 29.157 27.6439C27.7758 27.5975 26.3451 28.927 24.9361 29.6226C23.5796 29.6628 22.2232 29.703 20.8667 29.7432C18.3824 30.3492 15.8981 30.9552 13.25 31.6045C14.3716 26.101 18.0239 23.3957 24.2069 22.1899C33.8969 20.2977 43.0802 21.9395 52.1183 25.3343Z" fill="#FF4D00" fill-opacity="0.5"/>
<path d="M156.03 358.196C155.168 357.293 154.306 356.388 153.45 355.488C151.568 351.193 153.444 349.913 157.217 351.496C165.615 355.018 173.85 358.935 181.794 363.703C171.566 368.674 163.931 362.837 156.03 358.196Z" fill="#FF4D00" fill-opacity="0.5"/>
<path d="M122.244 357.046C120.689 355.006 119.138 352.965 117.473 350.776C125.043 348.185 129.23 349.564 133.537 354.573C136.633 358.175 140.493 361.121 144.967 365.239C135.234 367.833 129.156 362.488 122.874 357.887C122.67 357.553 122.457 357.266 122.247 357.043L122.244 357.046Z" fill="#FF4D00" fill-opacity="0.5"/>
<path d="M280.327 73.0163C280.228 72.9669 280.136 72.9112 280.052 72.8494C278.887 71.3715 277.725 69.8936 276.561 68.4126C276.941 67.7974 277.321 67.1821 277.704 66.5637C279.814 67.4758 282.496 67.8561 283.933 69.3958C289.164 75.0013 294.022 80.9592 298.929 86.8584C300.6 88.8681 302.006 91.1035 303.542 93.2616C303.551 93.2863 303.542 93.1843 303.551 93.2121C298.53 96.6564 295.557 94.7766 292.61 89.9224C289.007 83.9892 284.462 78.6249 280.327 73.0163Z" fill="#FF4D00" fill-opacity="0.5"/>
<path d="M135.129 343.658C138.105 345.105 141.08 346.555 144.056 348.002C143.911 348.503 143.765 349.001 143.62 349.502C131.242 350.157 119.794 346.181 108.518 341.327C107.91 341.021 107.298 340.715 106.689 340.409C105.914 339.596 105.138 338.783 104.359 337.969L105.082 335.981C115.165 338.594 125.247 341.207 135.324 343.819C135.317 343.819 135.126 343.662 135.126 343.662L135.129 343.658Z" fill="#FF4D00" fill-opacity="0.5"/>
<path d="M83.4692 49.0115C81.9768 36.5391 87.9712 24.2894 85.1687 11.7799C85.9875 11.5047 86.8063 11.2295 87.6252 10.9543C88.8024 13.2114 91.1353 15.5642 90.9592 17.7131C90.1002 28.25 88.5707 38.7312 87.2791 49.231L83.4661 49.0146L83.4692 49.0115Z" fill="#FF4D00" fill-opacity="0.5"/>
<path d="M34.172 196.349C33.2945 197.236 32.522 198.733 31.524 198.906C26.8211 199.716 18.7502 194.924 17.2763 190.295C16.7325 188.588 17.0476 186.276 17.8263 184.653C18.1044 184.071 20.9131 184.68 22.5601 184.804C22.9401 184.832 23.2893 185.209 23.6755 185.259C30.2756 186.127 33.9681 189.717 34.2616 196.525C34.2616 196.534 34.172 196.346 34.172 196.346V196.349Z" fill="#FF4D00" fill-opacity="0.5"/>
<path d="M309.926 174.221C314.851 165.499 325.518 167.391 330.78 160.713C335.041 167.212 331.484 173.881 324.603 174.184C320.234 174.375 315.849 174.221 309.926 174.221Z" fill="#FF4D00" fill-opacity="0.5"/>
<path d="M122.244 357.046C122.454 357.269 122.667 357.556 122.871 357.89C123.396 358.852 123.937 359.838 125.058 361.888C115.866 361.251 109.856 356.666 104.118 351.577C103.46 350.773 102.774 349.95 102.088 349.125C102.724 347.91 103.858 345.606 103.926 345.637C108.317 347.647 114.302 346.225 117.006 352.084C117.942 354.112 120.451 355.414 122.24 357.046H122.244Z" fill="#FF4D00" fill-opacity="0.5"/>
<path d="M297.547 32.2662C296.849 30.9831 296.151 29.6969 295.455 28.4138C293.462 26.1939 291.466 23.9739 289.461 21.7447C294.42 18.4118 298.746 19.0518 301.119 24.8335C303.872 31.552 305.121 38.8888 307.024 45.9598C306.023 46.3556 305.019 46.7513 304.018 47.1502C301.861 42.1909 299.704 37.2285 297.55 32.2693L297.547 32.2662Z" fill="#FF4D00" fill-opacity="0.5"/>
<path d="M311.323 200.835C313.442 199.957 315.562 199.076 317.66 198.213C320.506 196.887 323.373 195.548 326.287 194.185C328.657 202.294 318.309 209.978 306.555 209.198C304.695 204.462 307.355 202.291 311.323 200.832V200.835Z" fill="#FF4D00" fill-opacity="0.5"/>
<path d="M102.092 349.125C102.778 349.95 103.461 350.776 104.122 351.577C104.638 352.711 105.179 353.868 105.812 355.228C95.8998 355.596 85.9997 346.589 86.3426 337.639C92.6986 340.152 99.5181 341.612 102.092 349.125Z" fill="#FF4D00" fill-opacity="0.5"/>
<path d="M5.67974 91.1838C1.43109 86.4286 3.07493 74.1726 8.42051 71.3189C9.17137 70.9169 10.4877 70.7933 11.1767 71.1859C15.5181 73.6532 15.9939 82.907 12.0574 86.0081C9.86042 87.7395 7.70983 89.5328 5.52525 91.3106C5.5098 91.3229 5.67974 91.1838 5.67974 91.1838Z" fill="#FF4D00" fill-opacity="0.5"/>
<path d="M34.6136 72.3115C32.8585 68.2921 31.1034 64.2728 29.3483 60.2534C26.8362 55.4734 30.402 53.8781 33.7051 52.9783C38.0928 51.7818 38.0619 55.5847 38.1979 58.2592C38.4173 62.665 38.3926 67.1079 38.0527 71.5045C37.8487 74.1727 36.6035 75.6383 34.6167 72.3084L34.6136 72.3115Z" fill="#FF4D00" fill-opacity="0.5"/>
<path d="M73.377 325.877C80.9103 329.19 85.366 332.135 86.7441 334.714C84.4236 334.065 82.7797 333.604 81.278 333.183C83.0053 337.487 84.7573 341.859 86.6112 346.481C78.6176 344.441 72.7621 335.335 73.374 325.877H73.377Z" fill="#FF4D00" fill-opacity="0.5"/>
<path d="M326.055 58.7909C323.327 62.4083 320.598 66.0258 317.873 69.6432C317.345 69.3897 316.819 69.133 316.291 68.8795C319.588 58.7353 322.885 48.5941 326.074 38.7776C330.492 42.7877 330.594 46.6679 325.873 59.0043C325.873 58.9981 326.055 58.7909 326.055 58.7909Z" fill="#FF4D00" fill-opacity="0.5"/>
<path d="M137.062 271.449C141.178 272.578 145.671 272.686 146.187 274.173C147.519 278.01 147.259 282.462 147.136 286.655C147.12 287.146 143.95 287.981 142.309 287.848C141.064 287.746 139.099 286.528 138.886 285.511C138.039 281.442 137.755 277.259 137.062 271.449Z" fill="#FF4D00" fill-opacity="0.5"/>
<path d="M39.1561 229.642C35.7324 227.542 31.8947 225.876 29.0458 223.17C27.4699 221.671 27.4298 218.449 27.0435 215.948C27.0003 215.667 29.5525 214.331 30.3003 214.699C32.9855 216.025 36.4276 217.33 37.6791 219.664C39.1684 222.447 38.6957 226.284 39.0881 229.66C39.1004 229.66 39.1591 229.642 39.1591 229.642H39.1561Z" fill="#FF4D00" fill-opacity="0.5"/>
<path d="M302.563 271.663C303.181 277.726 297.085 283.019 286.712 285.424C285.797 278.53 292.74 272.5 302.563 271.663Z" fill="#FF4D00" fill-opacity="0.5"/>
<path d="M63.2037 5.25907C66.2627 10.0978 70.1869 14.6613 68.2897 21.3891C64.3531 12.8649 58.7511 6.48961 48.6562 4.59433C53.9617 0.528587 54.4653 0.590424 63.4107 5.4724L63.2037 5.25907Z" fill="#FF4D00" fill-opacity="0.5"/>
<path d="M282.213 303.388C284.914 303.561 287.611 303.734 290.312 303.91C288.424 306.368 286.959 309.435 284.534 311.114C281.917 312.926 278.4 313.439 275.208 314.54C272.52 306.544 279.306 306.214 282.408 303.215C282.417 303.208 282.213 303.388 282.213 303.388Z" fill="#FF4D00" fill-opacity="0.5"/>
<path d="M199.542 257.994C204.103 257.44 204.95 259.787 204.879 263.479C204.792 268.101 202.156 268.388 198.467 268.441C194.113 268.503 193.582 266.277 193.514 262.73C193.424 257.91 196.156 257.431 199.539 257.994H199.542Z" fill="#FF4D00" fill-opacity="0.5"/>
<path d="M200.573 294.591C201.611 298.979 199.519 300.726 195.527 300.893C190.472 301.103 191.696 297.303 191.461 294.48C191.155 290.779 191.983 287.455 196.553 288.633C198.617 289.165 200.144 291.775 201.914 293.444C201.466 293.828 201.018 294.208 200.573 294.591Z" fill="#FF4D00" fill-opacity="0.5"/>
<path d="M212.548 341.312C214.297 341.256 216.043 341.2 217.791 341.145C221.645 340.279 225.498 339.416 229.351 338.551C229.521 339.413 229.688 340.279 229.858 341.142C220.591 344.401 211.262 347.362 201.062 346.11L201.242 346.277C202.753 345.192 204.134 343.801 205.809 343.099C207.931 342.208 210.292 341.881 212.548 341.309V341.312Z" fill="#FF4D00" fill-opacity="0.5"/>
<path d="M334.364 83.5347C329.806 85.2166 325.258 86.9233 320.685 88.5527C320.194 88.729 319.548 88.4723 318.117 88.3332C324.773 82.7772 330.9 77.6572 337.031 72.5371C337.031 72.5371 336.83 72.7319 336.833 72.7319C337.649 73.6502 339.339 75.0044 339.135 75.4156C337.698 78.2941 335.872 80.9809 334.166 83.7295C334.163 83.7295 334.367 83.5316 334.367 83.5316L334.364 83.5347Z" fill="#FF4D00" fill-opacity="0.5"/>
<path d="M244.512 283.096C242.723 272.856 244.429 270.648 253.276 271.752C254.617 281.154 252.874 283.411 244.512 283.096Z" fill="#FF4D00" fill-opacity="0.5"/>
<path d="M313.476 99.4761C311.245 100.026 309.014 100.577 306.783 101.127C310.244 91.8331 318.12 90.4573 325.799 88.7444C326.179 89.2793 326.556 89.8142 326.936 90.349C322.387 93.4439 317.839 96.5419 313.284 99.6399C313.278 99.6399 313.476 99.4761 313.476 99.4761Z" fill="#FF4D00" fill-opacity="0.5"/>
<path d="M201.061 346.11C201.033 347.044 201.036 348.791 200.968 348.794C192.962 349.125 184.827 350.139 175.779 344.62C185.59 342.703 193.441 343.931 201.243 346.28C201.24 346.28 201.061 346.11 201.061 346.11Z" fill="#FF4D00" fill-opacity="0.5"/>
<path d="M59.5557 271.489C53.1534 271.724 51.5219 268.945 50.8359 257.378C57.5813 256.466 59.1633 258.955 59.5557 271.489Z" fill="#FF4D00" fill-opacity="0.5"/>
<path d="M86.0574 263.689C78.4624 262.233 77.5725 260.965 77.6188 252.339C85.9647 250.855 88.5078 254.181 86.0574 263.689Z" fill="#FF4D00" fill-opacity="0.5"/>
<path d="M250.476 255.273C249.033 245.382 250.692 243.474 259.409 245.005C259.838 254.166 258.559 255.638 250.476 255.273Z" fill="#FF4D00" fill-opacity="0.5"/>
<path d="M203.804 230.096C205.114 231.948 207.28 233.679 207.564 235.677C208.197 240.163 204.354 240.516 201.48 239.928C199.546 239.535 196.394 236.923 196.61 235.89C197.064 233.717 199.369 231.926 200.914 229.982C201.879 230.019 202.843 230.059 203.804 230.096Z" fill="#FF4D00" fill-opacity="0.5"/>
<path d="M231.945 338.894C233.793 334.494 229.708 328.459 237.245 328.221C238.592 328.178 240.98 330.713 241.252 332.333C242.358 338.913 237.275 338.204 231.945 338.894Z" fill="#FF4D00" fill-opacity="0.5"/>
<path d="M208.44 198.977C206.339 199.892 204.173 201.62 202.158 201.457C200.638 201.333 198.407 198.952 198.11 197.289C197.634 194.611 198.889 191.705 202.516 192.602C204.67 193.137 206.549 194.797 208.548 195.953C208.511 196.961 208.477 197.969 208.44 198.977Z" fill="#FF4D00" fill-opacity="0.5"/>
<path d="M106.693 340.409C107.302 340.715 107.913 341.021 108.522 341.327C107.778 342.205 106.81 343.958 106.322 343.835C99.4594 342.091 93.2888 339.067 87.3809 332.899C96.1285 332.25 100.819 337.821 106.693 340.409Z" fill="#FF4D00" fill-opacity="0.5"/>
<path d="M309.111 147.044C308.91 151.01 310.983 155.367 304.733 155.97C301.538 156.279 300.444 154.99 300.438 151.864C300.425 145.739 304.383 146.515 309.111 147.044Z" fill="#FF4D00" fill-opacity="0.5"/>
<path d="M262.472 220.147C263.5 224.88 262.666 227.984 257.97 227.607C256.428 227.484 253.746 225.013 253.844 223.804C254.336 217.914 258.964 220.799 262.468 220.147H262.472Z" fill="#FF4D00" fill-opacity="0.5"/>
<path d="M143.479 330.741C148.2 329.922 151.738 329.977 151.228 335.165C151.083 336.637 148.917 339.077 147.681 339.074C141.39 339.061 144.421 334.198 143.482 330.741H143.479Z" fill="#FF4D00" fill-opacity="0.5"/>
<path d="M275.52 289.907C275.93 284.342 276.542 279.655 283.454 280.214C284.397 287.276 282.892 289.208 275.52 289.907Z" fill="#FF4D00" fill-opacity="0.5"/>
<path d="M241.635 312.712C240.037 310.502 238.486 309.336 238.468 308.146C238.4 304.034 241.82 304.108 244.502 304.318C245.924 304.429 247.231 306.037 248.587 306.968C246.545 308.656 244.499 310.347 241.635 312.716V312.712Z" fill="#FF4D00" fill-opacity="0.5"/>
<path d="M140.177 165.4C139.185 165.489 138.107 165.876 137.22 165.613C135.289 165.041 133.456 164.138 131.584 163.371C132.177 162.24 132.684 160.202 133.376 160.137C136.006 159.89 138.694 160.283 141.361 160.434C140.912 162.132 140.464 163.829 140.01 165.526C140.007 165.526 140.174 165.397 140.174 165.397L140.177 165.4Z" fill="#FF4D00" fill-opacity="0.5"/>
<path d="M264.328 316.97C265.805 312.583 265.172 307.153 272.059 308.48C272.439 315.47 271.046 317.146 264.328 316.97Z" fill="#FF4D00" fill-opacity="0.5"/>
<path d="M297.975 203.296H303.147C303.472 211.329 302.885 212.049 295.883 211.517C296.661 208.63 297.4 205.89 298.145 203.148C298.148 203.148 297.975 203.296 297.975 203.296Z" fill="#FF4D00" fill-opacity="0.5"/>
<path d="M300.61 178.2C299.93 174.029 299.213 170.783 303.617 170.266C305.112 170.093 308.06 171.41 308.193 172.35C308.959 177.844 304.157 176.425 300.61 178.2Z" fill="#FF4D00" fill-opacity="0.5"/>
<path d="M151.132 310.391C147.931 311.937 146.064 313.572 145.069 313.152C143.481 312.478 141.949 310.589 141.457 308.903C141.244 308.171 143.954 305.533 144.844 305.753C146.633 306.195 148.082 308.004 151.129 310.391H151.132Z" fill="#FF4D00" fill-opacity="0.5"/>
<path d="M267.186 191.102C264.563 191.257 261.905 191.717 259.328 191.445C257.922 191.297 256.649 189.912 255.314 189.083C255.506 188.517 255.698 187.948 255.886 187.383C258.605 187.005 261.315 186.489 264.047 186.288C268.135 185.988 269.429 187.574 267.007 191.269C267.004 191.269 267.186 191.105 267.186 191.105V191.102Z" fill="#FF4D00" fill-opacity="0.5"/>
<path d="M315.699 224.311C312.89 230.251 308.086 232.223 301.578 229.373C305.972 227.799 310.363 226.222 315.699 224.311Z" fill="#FF4D00" fill-opacity="0.5"/>
<path d="M293.176 252.301C290.911 255.446 289.15 257.895 286.635 261.385C284.314 252.867 285.247 251.621 293.176 252.301Z" fill="#FF4D00" fill-opacity="0.5"/>
<path d="M291.461 233.24C292.851 231.725 294.094 229.991 295.744 228.847C296.148 228.566 297.891 230.223 299.019 230.99C297.369 232.597 295.719 234.205 294.069 235.813C293.201 234.956 292.332 234.097 291.461 233.24Z" fill="#FF4D00" fill-opacity="0.5"/>
<path d="M83.75 283.999C92.4822 283.449 94.9078 286.995 93.7459 297.859C86.3239 299.566 85.4927 297.093 83.75 283.999Z" fill="#FF4D00" fill-opacity="0.5"/>
</g>
<defs>
<clipPath id="clip0_161_14">
<rect width="342" height="366" fill="white"/>
</clipPath>
</defs>
</svg>
