<svg width="174" height="298" viewBox="0 0 174 298" fill="none" xmlns="http://www.w3.org/2000/svg">
<g clip-path="url(#clip0_30_2)">
<path d="M102.446 289.661L97.4028 289.672L97.4079 292.159C95.8717 292.169 94.4357 292.181 93.0008 292.187C91.5162 292.193 90.0326 292.193 88.548 292.196L79.8157 292.214C79.5522 293.085 79.719 293.927 79.6903 294.754C79.6626 295.557 79.6876 296.362 79.6894 297.226L69.6172 297.247L69.607 292.293L67.0115 292.299L66.9903 282.089L64.4779 282.094L64.4622 274.541L61.9214 274.546C61.8597 271.134 61.9075 267.807 61.8669 264.376L59.4173 264.381L59.4015 256.779L56.8121 256.784L56.7805 241.534L54.3217 241.539C54.204 238.996 54.3133 236.513 54.2331 233.95L51.7328 233.955L51.7274 231.389L49.219 231.394L49.1508 198.453L44.1289 198.463C44.0886 197.575 44.0525 196.785 44.0111 195.871L36.4971 195.887L36.4919 193.391L38.7886 193.386C39.0351 192.591 39.0714 189.57 38.8673 188.342L36.447 188.347L36.452 190.758L33.9456 190.764L33.9509 193.336L28.8815 193.347L28.892 198.432L26.335 198.437L26.356 208.575L23.8739 208.58L23.8896 216.165L21.2982 216.171L21.314 223.813L19.0122 223.818C18.7738 224.581 18.7347 235.079 18.9523 236.448L36.503 236.412L36.4981 234.035L39.0197 234.03L39.03 239.017C38.2544 239.054 37.497 239.09 36.6039 239.131C36.4468 244.976 36.6007 250.808 36.5411 256.747L34.0813 256.752L34.0866 259.286L21.4281 259.312L21.4229 256.836L18.9135 256.841L18.9083 254.332L16.3179 254.338L16.3125 251.735L13.8071 251.74L13.802 249.298L11.2977 249.303L11.3023 251.552C10.4745 251.794 4.9119 251.844 3.68409 251.63L3.67922 249.282L1.31158 249.287C1.08106 248.49 1.00251 237.945 1.21127 236.553L3.64879 236.548L3.63831 231.488L6.12039 231.483L6.09416 218.82L8.66535 218.815L8.65486 213.751L11.1521 213.746L11.1468 211.174L13.6765 211.169L13.6711 208.571C14.4912 208.5 15.2081 208.437 15.9847 208.37C16.0277 208.135 16.1022 207.913 16.1058 207.691C16.1444 205.325 16.1699 202.959 16.2035 200.593C16.2237 199.111 16.251 197.629 16.2771 196.043C17.1064 195.993 17.8628 195.948 18.7548 195.894L18.7341 185.875C19.5978 185.832 20.3289 185.796 21.0539 185.76C21.2722 185.044 21.3378 177.631 21.1373 175.65L18.7322 175.655C18.6902 172.522 18.7072 169.493 18.6969 166.465C18.6866 163.42 18.6843 160.375 18.678 157.33L18.6212 129.919L16.1179 129.924L16.0917 117.276L18.5393 117.271L18.5288 112.213L21.0707 112.208L21.0601 107.113L23.6161 107.108L23.5951 96.9703L26.0701 96.9652L26.028 76.6224C26.8542 76.5557 27.5791 76.4963 28.4276 76.4275C28.4942 75.3344 28.6064 74.2686 28.6154 73.203C28.6382 70.5305 28.6134 67.857 28.6079 65.1835L28.6053 63.9666L31.0469 63.9616L31.0417 61.4526L33.6291 61.4472L33.6237 58.8428L36.1311 58.8376L36.1259 56.3266L38.6809 56.3214L38.6757 53.7901L41.1486 53.7849L41.1435 51.2902C42.0325 51.2498 42.8203 51.2136 43.7043 51.1722L43.6834 41.0978L46.1787 41.0926L46.1629 33.4672L43.7719 33.4722L43.7667 30.9632L41.1783 30.9686L41.1729 28.3642L38.6757 28.3693L38.6652 23.3128L36.093 23.3182L36.0774 15.8106C35.2176 15.7738 34.4641 15.7419 33.6397 15.706L33.6239 8.0989L36.0108 8.09395L36.0056 5.57586L41.0832 5.56534L41.0779 3.00764L43.642 3.00233L43.6369 0.548235C44.0014 0.514975 44.2595 0.472793 44.5178 0.471243C46.137 0.458746 47.7563 0.471644 49.3755 0.441879C50.1462 0.428094 50.9146 0.319846 51.6852 0.291839C52.2897 0.269256 52.8974 0.29136 53.502 0.318549C53.9365 0.337964 54.3691 0.430519 54.8025 0.432669C56.9251 0.440461 59.0467 0.429971 61.2806 0.425343L61.2857 2.88249L63.8751 2.87712L63.8805 5.48155L66.3879 5.47636L66.3931 7.9528L68.9015 7.9476C69.0309 8.8534 68.9567 9.68954 68.9726 10.5184C68.9885 11.3299 68.979 12.1426 68.9807 12.9542L68.9862 15.5901L71.4379 15.585L71.4431 18.093L74.0051 18.0876L74.0156 23.1523L76.3407 23.1474C76.6027 23.9483 76.6936 31.6548 76.4803 33.3404L74.134 33.3453L74.1392 35.8715L71.6024 35.8768L71.6077 38.4121C72.7947 38.4645 73.9946 38.4255 75.1936 38.4291C76.3744 38.4337 77.5552 38.4252 78.736 38.4227L96.8123 38.3853L96.8176 40.9186L99.3756 40.9133L99.3808 43.4294L101.883 43.4242L101.889 46.0235L104.446 46.0183L104.451 48.4947L106.957 48.4895L106.962 51.0533L109.52 51.048L109.526 53.559L112.013 53.5538C112.053 54.41 112.088 55.1698 112.129 56.0534C114.612 56.2016 117.08 56.1356 119.677 56.1292L119.651 43.4433L122.118 43.4381L122.112 40.917L124.668 40.9117L124.663 38.3459L127.167 38.3407L127.157 33.2862L129.722 33.2809L129.717 30.8065L132.205 30.8014L132.221 38.2327L137.316 38.2222L137.311 35.8199L142.455 35.8092C142.512 35.3063 142.586 34.8887 142.605 34.4681C142.649 33.503 142.69 33.4542 143.668 33.4562C143.803 33.4559 143.938 33.4628 144.073 33.4635C144.496 33.4657 144.682 33.6918 144.682 34.0991C144.682 34.1672 144.684 34.2342 144.689 34.3023C144.744 35.2885 145.253 35.7811 146.216 35.7801L149.985 35.7723L149.995 40.8156L152.416 40.8106L152.421 43.3429L139.921 43.3688L139.927 45.9031C138.213 46.0042 136.574 45.904 134.811 45.9848L134.816 48.4338L129.835 48.4441L129.845 53.522L132.268 53.5169L132.274 56.0818L134.796 56.0765L134.801 58.555L137.302 58.5498C137.435 60.2804 137.302 61.9222 137.401 63.6407L139.873 63.6355L139.879 66.2024L142.427 66.1971C142.446 69.6263 142.445 72.9499 142.454 76.3832L139.976 76.3884L139.986 81.4184L134.937 81.4289L134.942 83.9683L132.386 83.9736L132.391 86.5364L119.749 86.5626L119.754 89.0025L117.244 89.0077L117.239 86.6369L114.729 86.6421C114.607 84.9155 114.732 83.2738 114.636 81.5553L112.152 81.5604L112.147 79.0291L107.21 79.0393C107 79.7315 106.982 100.559 107.213 101.914C107.709 101.935 108.234 101.96 108.759 101.978C109.097 101.99 109.366 102.093 109.391 102.482C109.477 103.856 109.556 105.23 109.632 106.604C109.636 106.662 109.583 106.723 109.499 106.911L107.129 106.916L107.134 109.393L104.617 109.398L104.628 114.492L102.111 114.497L102.117 117.053L107.116 117.043L107.121 119.547L114.7 119.531L114.706 122.098L117.216 122.092L117.232 129.677L119.822 129.672L119.838 137.35L122.288 137.345L122.293 139.841L119.913 139.846L119.919 142.392L122.311 142.387C122.391 143.549 122.346 144.652 122.357 145.751C122.368 146.868 122.364 147.985 122.366 149.101L122.373 152.558L124.925 152.553L124.935 157.614L127.418 157.609L127.433 165.196L129.99 165.191L130.001 170.276L132.468 170.27L132.483 177.879L135.073 177.873L135.089 185.467L137.593 185.462C137.671 188.047 137.591 190.532 137.662 193.137L140.183 193.132L140.204 203.275C141.042 203.312 141.796 203.346 142.536 203.379C142.747 204.402 142.835 217.231 142.631 218.5L140.317 218.504L140.338 228.621L142.73 228.616C142.776 231.164 142.822 233.612 142.869 236.186L145.311 236.181L145.322 241.289L147.841 241.284L147.856 248.923L150.415 248.918L150.431 256.51L152.91 256.505L152.921 261.56L155.477 261.555L155.487 266.62L157.979 266.614L157.985 269.212L165.642 269.196L165.647 271.711L173.153 271.695L173.158 274.276L170.739 274.281L170.744 276.769L165.703 276.779L165.708 279.373L147.941 279.409L147.951 284.425L140.429 284.441L140.424 281.987L137.863 281.992L137.847 274.398L135.346 274.403C135.25 270.974 135.348 267.647 135.262 264.235L132.757 264.24L132.746 259.145L130.24 259.15L130.229 254.093L127.665 254.098L127.654 248.959C126.825 248.909 126.097 248.866 125.235 248.814C125.183 246.347 125.132 243.929 125.078 241.387L122.583 241.392L122.573 236.329L120.091 236.334L120.086 233.826L117.496 233.831L117.491 231.236L107.391 231.257L107.381 226.222L104.876 226.228L104.865 221.13L102.309 221.136L102.298 216.042L99.7911 216.047L99.7806 210.989L97.2236 210.995L97.2131 205.931L94.7229 205.936L94.7072 198.349L92.1147 198.355L92.1094 195.8L89.6132 195.805L89.6236 200.814L87.0676 200.819L87.1201 226.183L84.6259 226.188L84.6312 228.754L82.0803 228.759L82.0908 233.852L79.6229 233.858L79.6806 261.731L82.0746 261.726L82.1061 276.932L84.6895 276.927L84.6948 279.523L89.741 279.513L89.7462 281.991L94.7863 281.981L94.7917 284.584L104.91 284.563L104.916 287.065L102.447 287.07L102.452 289.654L102.446 289.661ZM43.9114 122.301L41.3979 122.306L41.4031 124.792L43.8619 124.787L43.8778 132.468L41.3238 132.473L41.329 134.974L36.3061 134.985L36.3132 138.407C36.3155 139.523 36.3229 140.639 36.3181 141.756C36.3133 142.857 36.354 143.961 36.2937 145.16L33.7965 145.165L33.807 150.226L31.2499 150.232L31.2604 155.287L28.909 155.292C28.6971 156.631 28.7664 162.243 28.9764 162.907L31.3501 162.902L31.3447 160.295L33.9139 160.289L33.9087 157.782L36.3806 157.776L36.3757 155.393C37.5054 155.183 40.6174 155.205 41.4433 155.44L41.4532 160.242L44.0193 160.237L44.0037 152.702L46.4453 152.697C46.4946 150.111 46.4085 147.624 46.4801 145.056L48.9865 145.051C49.0483 141.639 48.9482 138.314 49.0202 134.931C49.5276 134.93 49.8952 134.933 50.2618 134.927C50.6516 134.92 51.0415 134.904 51.486 134.891L51.4808 132.364L54.0844 132.359L54.0791 129.833L56.4812 129.828L56.4761 127.334L54.0092 127.339L53.9989 122.383L51.5563 122.388C51.5175 123.211 51.4816 123.967 51.4457 124.708L48.9464 124.713L48.9413 122.243L46.3772 122.248L46.3668 117.259L43.8979 117.264L43.9084 122.303L43.9114 122.301Z" fill="#46712C"/>
</g>
<defs>
<clipPath id="clip0_30_2">
<rect width="172" height="297" fill="white" transform="translate(0.590454 0.389648) rotate(-0.118694)"/>
</clipPath>
</defs>
</svg>
