<svg width="238" height="330" viewBox="0 0 238 330" fill="none" xmlns="http://www.w3.org/2000/svg">
<g clip-path="url(#clip0_30_2)">
<path d="M100.132 305.269L95.2341 304.068L94.6418 306.483C93.1481 306.124 91.7513 305.791 90.3569 305.452C88.9143 305.101 87.4741 304.745 86.0323 304.391L77.5513 302.311C77.0862 303.093 77.046 303.95 76.8195 304.746C76.5996 305.52 76.4306 306.306 76.2247 307.146L66.4425 304.747L67.6225 299.935L65.1017 299.317L67.5337 289.402L65.0935 288.803L66.8928 281.467L64.4251 280.862C65.185 277.534 66.0305 274.316 66.8154 270.976L64.4362 270.392L66.2471 263.009L63.7322 262.392L67.3647 247.582L64.9767 246.996C65.4734 244.499 66.1759 242.115 66.7138 239.607L64.2855 239.012L64.8967 236.52L62.4605 235.922L70.3073 203.929L65.43 202.733C65.6043 201.86 65.7589 201.086 65.9383 200.188L58.6405 198.398L59.235 195.974L61.4656 196.522C61.896 195.808 62.6569 192.884 62.7537 191.644L60.4031 191.067L59.8287 193.409L57.3944 192.812L56.7816 195.311L51.858 194.103L50.6467 199.042L48.1633 198.433L45.7485 208.279L43.3379 207.687L41.5309 215.055L39.0141 214.437L37.1936 221.86L34.958 221.312C34.5434 221.994 31.9837 232.176 31.8658 233.558L48.9114 237.738L49.4776 235.43L51.9266 236.031L50.7386 240.874C49.977 240.723 49.2331 240.576 48.3562 240.402C46.7997 246.038 45.548 251.737 44.0637 257.487L41.6747 256.901L41.071 259.362L28.7768 256.347L29.3667 253.942L26.9295 253.344L27.5272 250.907L25.0113 250.29L25.6312 247.763L23.198 247.166L23.7799 244.793L21.3476 244.197L20.8119 246.381C19.95 246.417 14.5383 245.13 13.3978 244.627L13.9572 242.347L11.6577 241.783C11.6254 240.954 14.0821 230.699 14.6191 229.398L16.9865 229.978L18.192 225.064L20.6026 225.655L23.6189 213.357L26.1161 213.969L27.3222 209.051L29.7476 209.646L30.3603 207.148L32.8171 207.751L33.4358 205.228C34.2492 205.356 34.9601 205.467 35.7302 205.588C35.8283 205.371 35.9539 205.173 36.0108 204.958C36.6166 202.671 37.2096 200.381 37.8105 198.092C38.1862 196.658 38.5687 195.226 38.9752 193.692C39.7921 193.843 40.5372 193.981 41.416 194.143L43.8027 184.412C44.6513 184.579 45.3697 184.719 46.0821 184.858C46.4661 184.215 48.3104 177.036 48.5917 175.064L46.2558 174.491C46.9676 171.441 47.7117 168.504 48.4291 165.562C49.1505 162.604 49.8799 159.647 50.6053 156.69L57.1346 130.068L54.7033 129.472L57.7162 117.187L60.0934 117.77L61.2981 112.859L63.7668 113.464L64.9805 108.516L67.4629 109.124L69.8777 99.2788L72.2814 99.8684L77.1272 80.1111C77.9452 80.2448 78.6632 80.3613 79.5034 80.4984C79.8306 79.4533 80.1956 78.4457 80.4602 77.4134C81.1244 74.8246 81.7425 72.2235 82.3794 69.6269L82.6692 68.4451L85.0405 69.0267L85.6382 66.5899L88.1511 67.2063L88.7715 64.6768L91.2067 65.2741L91.8049 62.8354L94.2863 63.444L94.8893 60.9856L97.2911 61.5746L97.8853 59.1517C98.7581 59.326 99.5315 59.4802 100.4 59.6523L102.799 49.8679L105.223 50.4622L107.039 43.0563L104.717 42.4868L105.315 40.0501L102.801 39.4335L103.421 36.904L100.996 36.3092L102.2 31.3982L99.7021 30.7855L101.49 23.4941C100.665 23.2518 99.9408 23.0397 99.1492 22.8069L100.961 15.4187L103.279 15.9873L103.879 13.5417L108.811 14.7512L109.42 12.2671L111.91 12.8779L112.495 10.4945C112.857 10.5497 113.117 10.5708 113.368 10.6313C114.943 11.0082 116.512 11.4097 118.091 11.7697C118.842 11.9415 119.614 12.021 120.369 12.1789C120.961 12.3022 121.546 12.4696 122.126 12.6413C122.543 12.7645 122.941 12.9582 123.361 13.0644C125.42 13.5819 127.482 14.0813 129.651 14.6135L129.066 16.9999L131.581 17.6167L130.961 20.1462L133.396 20.7435L132.806 23.1486L135.242 23.7461C135.15 24.6565 134.877 25.4503 134.694 26.2587C134.514 27.0503 134.31 27.8369 134.116 28.6251L133.489 31.1852L135.87 31.7692L135.272 34.2049L137.761 34.8153L136.554 39.7341L138.812 40.2879C138.874 41.1283 137.111 48.631 136.499 50.216L134.221 49.6571L133.619 52.1106L131.155 51.5063L130.551 53.9687C131.691 54.3047 132.865 54.555 134.028 54.8466C135.173 55.1347 136.321 55.4101 137.468 55.6914L155.024 59.9972L154.421 62.4576L156.905 63.067L156.306 65.5106L158.736 66.1067L158.117 68.6312L160.6 69.2403L160.01 71.6455L162.445 72.2425L161.834 74.7325L164.318 75.3419L163.72 77.7806L166.136 78.373C165.969 79.2138 165.821 79.9597 165.648 80.8274C168.023 81.5676 170.434 82.0963 172.957 82.714L175.979 70.3933L178.375 70.9809L178.975 68.5323L181.458 69.1412L182.069 66.6492L184.501 67.2457L185.705 62.3368L188.196 62.9478L188.786 60.5446L191.202 61.1373L189.432 68.3548L194.381 69.5686L194.954 67.2355L199.949 68.4606C200.126 67.9863 200.297 67.5985 200.417 67.1949C200.692 66.2687 200.743 66.231 201.692 66.468C201.823 66.5001 201.952 66.5391 202.084 66.5724C202.493 66.6759 202.62 66.9403 202.522 67.3357C202.506 67.4018 202.492 67.4674 202.479 67.5344C202.297 68.5051 202.672 69.1054 203.607 69.3358L207.268 70.2337L206.066 75.1318L208.417 75.7083L207.814 78.1678L195.674 75.1903L195.07 77.6517C193.383 77.3383 191.815 76.8471 190.084 76.5021L189.501 78.8806L184.663 77.694L183.454 82.6257L185.807 83.2029L185.196 85.6939L187.646 86.2948L187.056 88.702L189.484 89.2975C189.198 91.0095 188.674 92.5711 188.358 94.2633L190.759 94.8521L190.147 97.3451L192.622 97.952C191.817 101.285 191.017 104.511 190.201 107.846L187.795 107.256L186.597 112.141L181.693 110.939L181.088 113.405L178.605 112.796L177.995 115.285L165.716 112.274L165.135 114.643L162.697 114.045L163.262 111.743L160.825 111.145C161.121 109.44 161.636 107.876 161.956 106.185L159.543 105.593L160.146 103.135L155.351 101.959C154.981 102.58 149.961 122.793 149.859 124.164C150.336 124.304 150.84 124.454 151.345 124.598C151.671 124.69 151.907 124.855 151.837 125.239C151.591 126.593 151.337 127.946 151.082 129.298C151.071 129.355 151.005 129.402 150.879 129.565L148.576 129L147.986 131.405L145.542 130.806L144.329 135.753L141.885 135.154L141.276 137.636L146.132 138.827L145.535 141.258L152.896 143.064L152.285 145.557L154.723 146.155L152.916 153.521L155.432 154.138L153.603 161.595L155.982 162.179L155.388 164.603L153.076 164.036L152.47 166.509L154.794 167.079C154.592 168.226 154.283 169.286 154.03 170.356C153.773 171.442 153.5 172.526 153.234 173.61L152.41 176.967L154.889 177.575L153.683 182.491L156.094 183.082L154.287 190.45L156.77 191.059L155.559 195.998L157.955 196.586L156.142 203.975L158.657 204.592L156.848 211.967L159.281 212.563C158.736 215.092 158.061 217.484 157.503 220.03L159.952 220.631L157.536 230.482C158.34 230.719 159.065 230.934 159.774 231.143C159.734 232.188 156.737 244.662 156.235 245.844L153.987 245.293L151.577 255.119L153.9 255.688C153.334 258.172 152.79 260.56 152.217 263.069L154.589 263.651L153.373 268.613L155.819 269.212L153.999 276.632L156.484 277.242L154.676 284.615L157.084 285.206L155.879 290.116L158.362 290.724L157.155 295.643L159.576 296.237L158.957 298.759L166.394 300.583L165.794 303.026L173.084 304.814L172.47 307.321L170.12 306.744L169.527 309.161L164.631 307.96L164.014 310.478L146.758 306.246L145.563 311.117L138.257 309.326L138.842 306.942L136.354 306.332L138.163 298.957L135.734 298.361C136.464 295.009 137.359 291.802 138.095 288.47L135.662 287.873L136.876 282.925L134.441 282.328L135.646 277.416L133.156 276.805L134.38 271.814C133.587 271.566 132.89 271.349 132.066 271.092C132.609 268.684 133.139 266.325 133.698 263.844L131.275 263.25L132.481 258.333L130.07 257.742L130.668 255.305L128.153 254.689L128.771 252.168L118.963 249.762L120.162 244.873L117.729 244.276L118.943 239.326L116.46 238.717L117.674 233.77L115.238 233.172L116.443 228.26L113.96 227.651L115.166 222.733L112.747 222.14L114.555 214.772L112.037 214.154L112.645 211.673L110.221 211.079L109.028 215.943L106.545 215.334L100.504 239.968L98.0812 239.374L97.47 241.866L94.9925 241.258L93.7793 246.205L91.3824 245.617L84.7427 272.688L87.0678 273.258L83.4456 288.027L85.9546 288.642L85.3362 291.164L90.2371 292.366L89.6467 294.773L94.5418 295.973L93.9216 298.502L103.749 300.912L103.153 303.342L100.755 302.754L100.14 305.264L100.132 305.269ZM83.5142 128.748L81.0731 128.15L80.481 130.564L82.869 131.149L81.0393 138.61L78.5588 138.001L77.9631 140.43L73.0848 139.233L72.2696 142.557C72.0037 143.641 71.7427 144.727 71.4699 145.809C71.2007 146.877 70.9751 147.958 70.6286 149.108L68.2032 148.513L66.9975 153.429L64.5141 152.82L63.3099 157.73L61.0261 157.169C60.4987 158.418 59.2179 163.883 59.2623 164.578L61.5677 165.143L62.1888 162.611L64.684 163.223L65.2814 160.787L67.6822 161.376L68.2499 159.061C69.3971 159.128 72.4127 159.897 73.1579 160.324L72.0139 164.988L74.5062 165.599L76.3011 158.281L78.6724 158.863C79.3415 156.364 79.8551 153.93 80.5416 151.454L82.9758 152.051C83.8554 148.754 84.5571 145.502 85.4396 142.235C85.9323 142.356 86.2884 142.448 86.6456 142.53C87.0257 142.617 87.408 142.695 87.8427 142.789L88.4447 140.335L90.9734 140.955L91.5749 138.502L93.9078 139.075L94.5021 136.652L92.1062 136.064L93.2867 131.251L90.9144 130.669C90.6791 131.458 90.4627 132.183 90.2497 132.895L87.8223 132.299L88.4108 129.9L85.9205 129.289L87.109 124.444L84.7111 123.855L83.5108 128.75L83.5142 128.748Z" fill="#46712C"/>
</g>
<defs>
<clipPath id="clip0_30_2">
<rect width="172" height="297" fill="white" transform="translate(70.7468) rotate(13.7806)"/>
</clipPath>
</defs>
</svg>
