<svg width="224" height="379" viewBox="0 0 224 379" fill="none" xmlns="http://www.w3.org/2000/svg">
<path d="M69.6784 293.715C69.0888 293.771 68.5021 293.874 67.9125 293.88C65.9224 293.901 63.9324 293.889 61.9394 293.889C61.282 293.889 60.6216 293.889 59.9701 293.889C59.1092 295.313 59.8757 296.884 59.2242 298.335C58.9264 298.423 58.5638 298.615 58.1923 298.633C55.48 298.751 52.7647 298.872 50.0494 298.922C47.396 298.969 44.7427 298.93 42.0863 298.939C41.4348 298.939 40.7803 298.981 40.0108 299.007C39.66 300.552 40.0315 302.088 39.7455 303.656C38.693 303.996 37.6316 303.807 36.5968 303.839C35.5355 303.872 34.4741 303.845 33.4128 303.845H30.1491C30.0518 304.314 29.9221 304.677 29.9103 305.045C29.872 306.227 29.8779 307.412 29.8632 308.662C28.1856 309.069 26.5995 308.833 25.034 308.872C23.4479 308.913 21.8559 308.881 20.1784 308.881C20.0899 309.338 19.9631 309.706 19.9543 310.075C19.9278 311.195 19.9455 312.318 19.9455 313.518C18.3092 314.031 16.7496 313.751 15.1045 313.722C15.0397 313.203 14.9365 312.758 14.9335 312.312C14.9158 310.255 14.9276 308.2 14.9217 306.142C14.9217 305.484 14.9011 304.827 14.8864 304.087C14.4235 303.993 14.055 303.866 13.6835 303.857C12.5602 303.827 11.434 303.848 10.2548 303.848C9.70935 302.28 10.1368 300.764 9.96289 299.16C10.4965 299.075 10.9269 298.972 11.3633 298.939C12.4718 298.86 13.598 299.057 14.7566 298.78C15.0692 297.141 14.8716 295.555 14.9188 293.98C14.963 292.4 14.8539 290.817 14.9984 289.175C16.5757 288.75 18.1146 289.151 19.7067 288.859C19.7804 288.509 19.916 288.143 19.9278 287.772C19.9631 286.586 19.9543 285.398 19.9631 284.122C20.5262 284.048 20.9714 283.942 21.4137 283.939C23.669 283.921 25.9244 283.939 28.1827 283.924C28.6957 283.921 29.2057 283.842 29.8484 283.789V279.248C30.4086 279.157 30.839 279.045 31.2753 279.024C32.3868 278.974 33.5071 279.077 34.6599 278.921C34.9812 277.223 34.7866 275.637 34.8309 274.063C34.8751 272.482 34.7689 270.899 34.9105 269.245C36.4907 268.847 38.0267 269.225 39.6187 268.95C39.6954 268.594 39.831 268.228 39.8428 267.86C39.8782 266.674 39.8693 265.489 39.8782 264.266C41.4643 263.753 43.0121 264.227 44.607 263.879C44.666 263.455 44.7751 263.016 44.781 262.576C44.8134 260.389 44.8105 258.198 44.8429 256.008C44.8517 255.427 44.6955 254.805 45.1937 254.221C46.6 253.87 48.1508 254.333 49.7398 253.906C49.79 252.358 49.8371 250.86 49.8873 249.31C51.4734 248.929 53.0153 249.342 54.5424 249.015C55.0436 247.44 54.454 245.804 54.9493 244.242C56.4882 243.882 58.0301 244.292 59.5927 243.944C59.9317 242.364 59.7254 240.777 59.7607 239.209C59.7991 237.623 59.7696 236.034 59.7696 234.424C61.3557 233.846 62.9094 234.377 64.3953 234.02C64.867 233.531 64.6547 232.906 64.7019 232.334C64.7815 231.358 64.5456 230.356 64.9525 229.274C66.4561 229.241 67.9596 229.209 69.5281 229.173C69.8701 228.03 69.6932 226.968 69.7227 225.93C69.7521 224.869 69.7286 223.808 69.7286 222.746C69.7286 221.691 69.7286 220.638 69.7286 219.515C71.294 219.011 72.8389 219.48 74.4398 219.135C74.5105 218.725 74.6432 218.292 74.6491 217.858C74.6727 215.668 74.655 213.48 74.6668 211.29C74.6697 210.706 74.7316 210.125 74.767 209.503C76.3443 209.073 77.8891 209.515 79.5106 209.176C79.5667 208.678 79.6728 208.173 79.6757 207.669C79.6905 203.955 79.6816 200.237 79.6875 196.522C79.6875 195.871 79.7318 195.222 79.7583 194.485C81.3326 194.105 82.8745 194.506 84.4695 194.187C84.5196 193.716 84.6081 193.276 84.611 192.834C84.6257 190.644 84.6081 188.456 84.6258 186.266C84.6316 185.685 84.4783 185.066 84.9559 184.452C86.3622 184.128 87.9041 184.529 89.4814 184.187C89.5286 183.63 89.6052 183.117 89.6082 182.604C89.6259 178.954 89.6229 175.304 89.6465 171.657C89.6495 171.003 89.7467 170.345 89.7969 169.685C90.9054 169.614 92.0198 169.561 93.1313 169.481C93.5705 169.449 94.0039 169.358 94.5434 169.278C94.511 167.668 94.738 166.165 94.3931 164.587C92.8482 164.349 91.3624 164.414 89.7733 164.534C89.5993 166.353 89.4667 168.043 89.8381 169.735C88.2107 169.231 86.5657 169.579 84.8203 169.502C84.7407 170.042 84.6228 170.478 84.6169 170.917C84.5933 173.108 84.6051 175.298 84.5874 177.486C84.5815 178.064 84.5137 178.642 84.4695 179.281C82.8834 179.62 81.3444 179.237 79.7524 179.579C79.6993 181.145 79.6492 182.639 79.5991 184.178C77.9894 184.567 76.4475 184.166 74.8614 184.473C74.7906 184.93 74.6668 185.372 74.6609 185.814C74.6402 187.872 74.6491 189.93 74.6491 191.985C74.6491 192.645 74.6491 193.306 74.6491 193.931C73.343 194.403 71.8689 194.441 69.8141 194.063C69.7875 193.716 69.7374 193.335 69.7286 192.952C69.475 181.083 69.6077 136.883 69.9113 134.755C71.3501 134.339 72.8949 134.761 74.4132 134.466C74.8083 133.767 74.6432 133.021 74.6461 132.317C74.6609 125.615 74.652 118.911 74.6579 112.21C74.6579 111.491 74.6963 110.768 74.7198 109.981C75.5335 109.607 76.3354 109.784 77.1049 109.742C77.8862 109.701 78.6793 109.819 79.5726 109.577C79.6079 108.884 79.6728 108.239 79.6728 107.593C79.6816 102.484 79.6728 97.3747 79.6787 92.2626C79.6787 91.5432 79.7141 90.8238 79.7347 89.9807C81.2825 89.6357 82.8156 89.9866 84.2012 89.7537C84.7967 89.1817 84.5963 88.5449 84.5992 87.9759C84.6199 84.326 84.6051 80.6762 84.614 77.0263C84.614 76.3777 84.6729 75.7291 84.7083 75.0098C86.3033 74.6088 87.8452 75.0216 89.4195 74.7032C89.8175 73.235 89.5905 71.7343 89.5699 70.1217C89.0864 70.048 88.65 69.9271 88.2137 69.9212C85.9583 69.9006 83.7 69.9183 81.4447 69.9065C80.9287 69.9065 80.4128 69.8416 79.8438 69.8062C79.4517 68.2201 79.8733 66.6782 79.5696 65.2277C79.1156 64.7412 78.5554 64.8828 78.0424 64.8798C74.3277 64.868 70.6101 64.8798 66.8924 64.868C66.2409 64.868 65.5687 64.9948 64.8523 64.6498C64.4277 63.2259 64.9289 61.6722 64.5309 60.1096C63.4902 59.8384 62.4318 59.9888 61.3881 59.9652C60.3268 59.9416 59.2654 59.9622 58.2041 59.9593C57.1516 59.9563 56.0991 59.9475 54.9552 59.9416C54.8697 59.3814 54.7488 58.9392 54.7459 58.497C54.7252 56.4391 54.7341 54.3813 54.7341 52.3264C54.7341 51.666 54.7341 51.0056 54.7341 50.2244C54.2211 50.1448 53.7877 50.0416 53.3484 50.015C52.2399 49.9443 51.1166 50.1153 49.9669 49.8794C49.902 49.5433 49.8165 49.2927 49.8165 49.0421C49.8077 44.4695 49.8106 39.8939 49.8106 35.2918C51.379 34.711 52.9327 35.2476 54.4186 34.8967C54.8962 34.4073 54.684 33.7794 54.7282 33.2104C54.8078 32.2345 54.5719 31.2321 54.9463 30.2268C56.4853 30.0234 57.9859 30.044 59.6133 30.215C59.9435 31.7274 59.5956 33.2634 59.858 34.8319C60.9164 35.1562 61.9778 34.9793 63.0126 35.0058C64.1388 35.0353 65.2679 35.0324 66.3971 35.0058C67.4378 34.9822 68.4962 35.1355 69.6578 34.8319V30.33C70.215 30.2386 70.6484 30.1118 71.0847 30.1059C73.2752 30.0853 75.4657 30.1 77.6533 30.0912C78.237 30.0882 78.8208 30.0352 79.5018 29.9998C79.9145 28.3989 79.4281 26.7804 79.8585 25.1323C81.4004 25.0822 82.8952 25.0321 84.4548 24.982C84.7967 23.3811 84.4105 21.8392 84.7643 20.2384C86.9194 20.0467 89.0303 20.1676 91.1324 20.147C93.2551 20.1263 95.3807 20.1411 97.5034 20.1411H128.981C129.597 19.575 129.444 19.0149 129.447 18.5048C129.462 14.7901 129.453 11.0724 129.459 7.35477C129.459 6.70322 129.5 6.05167 129.527 5.32052C131.101 4.92841 132.643 5.33526 134.253 5.01096C134.58 3.52213 134.217 1.98612 134.462 0.650595C134.609 0.470755 134.642 0.408843 134.692 0.373465C134.745 0.338087 134.816 0.308605 134.878 0.308605C139.055 0.279123 143.233 0.249641 147.41 0.229004C147.873 0.229004 148.336 0.252589 148.799 0.287968C148.917 0.296812 149.026 0.394102 149.274 0.517926C149.512 3.59289 149.235 6.76513 149.427 10.0081C150.998 10.3767 152.534 10.017 154.029 10.2705C154.43 10.9221 154.286 11.6002 154.286 12.2399C154.297 17.4169 154.286 22.591 154.297 27.768C154.297 28.4815 154.176 29.2215 154.53 29.9556C156.04 30.2917 157.582 29.8996 159.15 30.2327C159.498 31.8129 159.253 33.402 159.333 34.9704C159.412 36.5507 159.401 38.1338 159.43 39.7612C160.993 40.2506 162.546 39.7789 164.121 40.1386C164.165 40.631 164.239 41.0761 164.242 41.5213C164.253 43.7118 164.236 45.9023 164.256 48.0899C164.262 48.6707 164.106 49.2898 164.637 49.9561C166.022 49.9856 167.526 50.018 169.127 50.0504C169.183 50.6843 169.265 51.1943 169.265 51.7073C169.277 55.3572 169.265 59.007 169.274 62.6569C169.274 63.3084 169.318 63.96 169.348 64.7C170.899 65.0655 172.435 64.7147 173.944 64.9653C174.324 65.7053 174.195 66.4453 174.195 67.1529C174.206 73.7214 174.183 80.2929 174.212 86.8615C174.224 89.1139 174.354 91.3634 174.442 93.6158C174.451 93.8693 174.551 94.117 174.625 94.4295C176.055 94.8599 177.55 94.3617 178.9 94.7656C179.383 95.3375 179.218 95.9625 179.221 96.5374C179.236 100.252 179.227 103.97 179.227 107.687C179.227 115.851 179.227 124.012 179.224 132.175C179.224 132.892 179.177 133.608 179.148 134.442C177.538 134.678 176.037 134.528 174.454 134.54C174.363 134.077 174.233 133.711 174.224 133.34C174.195 132.216 174.215 131.09 174.215 129.858C173.682 129.781 173.245 129.672 172.806 129.66C171.751 129.634 170.695 129.651 169.539 129.651C169.442 129.197 169.304 128.832 169.295 128.466C169.256 127.281 169.265 126.096 169.256 124.872C167.626 124.306 165.996 124.881 164.395 124.424C164.059 122.927 164.448 121.385 164.112 119.819C163.743 119.775 163.428 119.704 163.109 119.704C160.521 119.693 157.932 119.684 155.344 119.704C154.89 119.707 154.439 119.852 153.988 119.928C154.604 118.608 154.203 117.213 154.283 115.857C154.303 115.5 154.147 115.135 154.053 114.675C150.671 114.666 147.399 114.657 144.129 114.648C144.477 112.744 144.43 111.04 143.973 109.795C142.505 109.775 141.01 109.58 139.48 109.937C139.397 111.526 139.294 113.015 139.562 114.592C141.166 114.698 142.67 114.695 144.179 114.598C144.273 116.228 144.365 117.859 144.465 119.578C145.096 119.625 145.609 119.69 146.122 119.692C148.239 119.704 150.359 119.687 152.475 119.707C152.991 119.713 153.507 119.831 154.02 119.896C154.471 120.486 154.244 121.172 154.286 121.818C154.339 122.667 154.203 123.531 154.43 124.43C155.96 124.846 157.505 124.418 159.109 124.74C159.177 125.167 159.28 125.598 159.306 126.037C159.374 127.151 159.206 128.281 159.451 129.478C160.948 129.867 162.487 129.48 164.044 129.761C164.362 130.542 164.206 131.338 164.242 132.113C164.274 132.833 164.289 133.555 164.312 134.324C165.135 134.711 165.937 134.528 166.706 134.572C167.488 134.616 168.284 134.487 169.112 134.728C169.489 136.279 169.065 137.821 169.398 139.38C170.848 139.914 172.402 139.38 173.888 139.728C174.369 140.215 174.153 140.843 174.201 141.412C174.28 142.388 174.044 143.39 174.448 144.478C175.952 144.51 177.455 144.546 179.027 144.581C179.375 145.725 179.192 146.783 179.221 147.821C179.251 148.883 179.227 149.944 179.227 151.008V154.245C180.793 154.746 182.338 154.284 183.941 154.626C184.009 155.038 184.127 155.469 184.148 155.902C184.201 157.017 184.089 158.14 184.269 159.357C185.861 159.77 187.476 159.287 189.104 159.705C189.331 162.916 189.042 166.085 189.269 169.334C190.843 169.676 192.379 169.308 193.977 169.605C194.024 170.089 194.104 170.531 194.107 170.973C194.121 173.164 194.104 175.354 194.121 177.545C194.127 178.126 193.971 178.745 194.508 179.396C195.899 179.426 197.4 179.458 198.962 179.494C199.257 180.655 199.107 181.714 199.13 182.757C199.154 183.819 199.133 184.88 199.136 185.944C199.136 187 199.145 188.055 199.151 189.149C200.734 189.662 202.282 189.199 203.877 189.517C203.939 189.954 204.051 190.39 204.054 190.829C204.072 193.02 204.054 195.21 204.069 197.401C204.072 197.982 204.145 198.562 204.19 199.202C205.787 199.562 207.326 199.182 208.915 199.479C208.974 199.936 209.078 200.378 209.081 200.824C209.098 202.946 209.083 205.072 209.092 207.195C209.092 207.849 209.137 208.501 209.163 209.223C210.614 209.813 212.12 209.229 213.612 209.68C214.187 214.394 213.966 219.147 214.039 223.92C214.906 224.33 215.708 224.147 216.478 224.188C217.259 224.232 218.055 224.105 218.919 224.353C219.178 226.841 219.01 229.283 219.04 231.718C219.069 234.103 219.045 236.488 219.045 238.976C219.594 239.056 220.03 239.168 220.472 239.18C221.528 239.206 222.583 239.188 223.736 239.188C223.827 239.645 223.934 240.011 223.966 240.382C224.004 240.845 223.978 241.311 223.978 241.777C223.978 259.961 223.981 278.149 223.975 296.333C223.975 297.114 224.11 297.919 223.754 298.792C222.315 299.143 220.77 298.73 219.252 299.045C218.913 299.774 219.057 300.511 219.054 301.221C219.04 307.925 219.048 314.627 219.042 321.331C219.042 322.05 219.001 322.767 218.975 323.566C217.403 323.984 215.861 323.566 214.39 323.852C213.83 324.415 214.028 325.113 214.028 325.753C214.013 330.93 214.022 336.107 214.016 341.284C214.016 342.001 213.972 342.717 213.945 343.522C212.362 343.858 210.826 343.492 209.234 343.796C209.184 344.359 209.098 344.866 209.095 345.376C209.084 349.026 209.089 352.676 209.089 356.326C209.089 356.986 209.089 357.647 209.089 358.395C208.641 358.499 208.276 358.643 207.907 358.655C206.719 358.693 205.531 358.681 204.446 358.69C203.93 359.348 204.077 359.967 204.075 360.551C204.06 364.136 204.069 367.718 204.06 371.303C204.06 371.957 204.019 372.609 203.992 373.372C202.45 373.744 200.911 373.369 199.313 373.655C198.889 375.2 199.346 376.813 198.977 378.443C198.558 378.49 198.181 378.555 197.801 378.573C197.338 378.596 196.872 378.579 196.406 378.579C173.31 378.579 150.214 378.579 127.115 378.576C126.325 378.576 125.535 378.576 124.736 378.576C124.067 376.945 124.724 375.3 124.252 373.785C123.548 373.363 122.799 373.546 122.088 373.546C112.067 373.531 102.044 373.537 92.0228 373.534C91.3034 373.534 90.587 373.496 89.7556 373.472C89.4342 371.901 89.7821 370.368 89.5109 368.832C88.7768 368.505 88.0427 368.629 87.3351 368.626C80.4983 368.617 73.6644 368.623 66.8275 368.62C66.0315 368.62 65.2355 368.599 64.4395 368.587L64.4955 368.643C64.8906 367.069 64.5869 365.492 64.6606 363.829C64.183 363.732 63.8145 363.593 63.446 363.59C61.1906 363.569 58.9352 363.584 56.6769 363.572C56.0961 363.57 55.5183 363.508 54.8844 363.469C54.5218 361.883 54.9169 360.341 54.569 358.737C53.0153 358.687 51.5206 358.64 49.9698 358.59C49.5747 356.98 49.9816 355.438 49.6661 353.829C49.2534 353.764 48.8171 353.661 48.3778 353.628C47.2634 353.549 46.1313 353.749 44.9549 353.463C44.5894 351.889 44.8193 350.3 44.7751 348.725C44.7309 347.139 44.7427 345.553 44.7309 343.94C43.1624 343.36 41.6058 343.905 40.0108 343.51C39.9578 343.118 39.8457 342.679 39.8428 342.236C39.8251 340.046 39.8428 337.858 39.828 335.668C39.8251 335.087 39.7602 334.509 39.719 333.861C38.1299 333.498 36.585 333.899 35.0372 333.569C34.9665 333.327 34.8338 333.082 34.8338 332.838C34.822 328.46 34.822 324.079 34.8309 319.7C34.8309 319.512 34.9075 319.32 34.9724 319.028C35.7006 318.698 36.4995 318.878 37.269 318.834C38.0503 318.792 38.8433 318.916 39.6777 318.68C40.0492 317.133 39.6335 315.588 39.9578 314.031C41.4053 313.483 42.959 314.028 44.4243 313.689C44.9137 313.268 44.725 312.704 44.7604 312.197C44.8341 311.154 44.6188 310.089 44.9844 308.925C46.5882 308.901 48.1655 308.881 49.7457 308.857C51.2641 308.836 52.7824 308.816 54.1946 308.795C54.8019 308.303 54.6309 307.737 54.6633 307.23C54.7282 306.186 54.5513 305.125 54.8402 303.993C56.4116 303.595 58.0272 304.075 59.6811 303.651V299.193C60.1676 299.087 60.5332 298.939 60.9017 298.933C63.0922 298.91 65.2797 298.925 67.4702 298.916C68.1218 298.916 68.7733 298.869 69.5251 298.842C69.8199 297.055 69.7403 295.354 69.5988 293.659C69.9202 293.733 70.2386 293.863 70.5599 293.866C73.2133 293.883 75.8637 293.88 78.5171 293.871C78.8326 293.871 79.1451 293.792 79.5667 293.733C79.5991 293.005 79.6256 292.359 79.661 291.71C79.7082 290.855 79.7612 290.003 79.8114 289.148C80.4629 289.086 81.1174 288.977 81.769 288.969C83.8917 288.945 86.0143 288.969 88.137 288.951C88.5793 288.948 89.0185 288.842 89.5846 288.768C89.5964 287.489 89.5905 286.303 89.6259 285.121C89.6377 284.753 89.7674 284.39 89.8617 283.921C91.0174 283.921 92.0729 283.921 93.1283 283.921C94.1838 283.921 95.251 283.945 96.3124 283.915C97.3472 283.886 98.4085 284.075 99.461 283.733C99.7411 282.161 99.3814 280.625 99.7175 279.08C100.487 279.054 101.141 279.013 101.793 279.013C105.443 279.004 109.09 279.007 112.74 278.992C113.253 278.992 113.763 278.906 114.267 278.859C114.576 277.627 114.373 276.495 114.456 275.377C114.488 274.938 114.603 274.502 114.7 273.968C115.464 273.968 116.124 273.968 116.782 273.968C120.431 273.968 124.078 273.974 127.728 273.962C128.238 273.962 128.745 273.88 129.323 273.83C129.597 272.241 129.267 270.707 129.562 269.186C131.142 268.862 132.681 269.257 134.176 268.912C134.648 267.311 134.058 265.675 134.651 264.036C135.853 264.027 137.039 264.036 138.221 263.994C138.589 263.983 138.952 263.844 139.397 263.747C139.397 262.523 139.379 261.4 139.406 260.28C139.415 259.908 139.545 259.54 139.633 259.095C140.848 259.095 141.974 259.112 143.1 259.083C143.469 259.074 143.837 258.944 144.327 258.844C144.327 258.104 144.327 257.447 144.327 256.792C144.327 254.734 144.318 252.679 144.338 250.621C144.341 250.176 144.444 249.731 144.518 249.168C145.792 249.159 146.98 249.168 148.168 249.133C148.537 249.121 148.902 248.976 149.353 248.873C149.353 247.597 149.333 246.406 149.365 245.215C149.374 244.846 149.521 244.477 149.592 244.162C151.113 243.761 152.602 244.28 154.082 243.776C154.141 242.137 154.15 240.553 154.265 238.979C154.38 237.417 154.032 235.819 154.527 234.271C156.084 233.944 157.629 234.377 159.076 234C159.353 232.39 159.427 227.419 159.238 224.008C160.863 224.327 162.476 224.268 164.147 224.017C164.233 222.345 164.389 220.786 164.056 219.241C163.086 218.637 162.075 218.87 161.105 218.843C160.515 218.825 159.902 218.822 159.33 219.462C159.318 220.904 159.306 222.484 159.295 224.064C158.039 224.108 156.786 224.141 155.53 224.203C155.158 224.22 154.793 224.33 154.424 224.394C154.061 225.992 154.504 227.537 154.085 229.147C152.953 229.291 151.833 229.191 150.721 229.241C150.288 229.262 149.854 229.371 149.341 229.456V232.741C149.341 233.802 149.368 234.863 149.336 235.922C149.303 236.957 149.501 238.018 149.15 239.062C147.578 239.383 146.036 238.97 144.503 239.348C144.17 240.403 144.386 241.467 144.312 242.511C144.276 243.018 144.471 243.581 143.99 243.991C142.513 244.348 140.96 243.793 139.382 244.395C139.382 245.604 139.403 246.795 139.371 247.98C139.362 248.345 139.209 248.708 139.132 249.027C137.537 249.342 135.995 248.894 134.474 249.342C134.191 250.902 134.544 252.435 134.214 253.994C133.374 254.018 132.658 254.027 131.941 254.065C131.166 254.103 130.361 253.926 129.58 254.271C129.182 255.834 129.718 257.455 129.191 259.047C125.974 259.224 122.808 258.947 119.597 259.218C119.305 260.807 119.65 262.341 119.338 263.909C118.668 263.95 118.088 264.009 117.51 264.015C115.322 264.027 113.135 264.009 110.947 264.03C110.508 264.033 110.069 264.151 109.653 264.213C109.314 265.816 109.733 267.358 109.349 268.953C108.783 268.992 108.27 269.054 107.754 269.057C105.502 269.068 103.247 269.054 100.994 269.071C100.555 269.074 100.118 269.183 99.6969 269.239C99.3519 270.831 99.8237 272.379 99.3549 273.841C97.8012 274.18 96.2622 273.762 94.6938 274.139C94.3105 275.714 94.7999 277.335 94.3164 278.954C92.6802 279.08 91.097 278.986 89.5197 279.024C87.9483 279.06 86.3652 278.901 84.723 279.157C84.3899 280.708 84.7761 282.25 84.4194 283.856C82.8834 283.907 81.3886 283.96 79.7996 284.013C79.5991 285.832 79.49 287.518 79.8556 289.207C79.5342 289.131 79.2188 288.995 78.9033 288.995C76.0701 288.983 73.2369 288.992 70.4037 289.007C70.2239 289.007 70.047 289.122 69.7521 289.225C69.7168 290.72 69.6843 292.22 69.649 293.721L69.6784 293.715ZM134.111 54.7056C133.365 55.1184 132.554 54.8648 131.776 54.9356C131.069 55.0004 130.326 54.797 129.606 55.1478C129.217 56.7045 129.742 58.323 129.25 59.8502C127.675 60.1804 126.133 59.7441 124.583 60.1539C124.235 61.6604 124.627 63.2023 124.297 64.7619C122.761 65.0714 121.227 64.7206 119.786 64.9948C119.423 66.5603 119.406 68.4442 119.706 70.16C119.388 70.0863 119.066 69.9507 118.748 69.9507C115.962 69.9359 113.173 69.9389 110.387 69.9566C110.145 69.9566 109.904 70.0804 109.618 70.16C109.562 71.7284 109.402 73.2232 109.718 74.6855C111.947 74.9626 117.855 74.9125 119.42 74.5911C119.45 73.9809 119.473 73.3323 119.509 72.6866C119.556 71.8316 119.609 70.9767 119.662 70.1246C120.311 70.0627 120.959 69.9536 121.608 69.9477C123.784 69.9242 125.959 69.9448 128.138 69.93C128.515 69.93 128.893 69.8504 129.311 69.8003C129.677 68.1759 129.241 66.578 129.621 65.0213C131.21 64.7265 132.737 65.0832 134.253 64.7678C134.309 64.4228 134.382 64.1722 134.382 63.9216C134.394 61.283 134.406 58.6444 134.382 56.0087C134.379 55.5665 134.191 55.1243 134.093 54.6879C134.91 55.0918 135.789 54.9562 136.638 54.9267C137.531 54.8972 138.477 55.1803 139.371 54.6378C139.371 53.1047 139.621 51.6041 139.194 50.1005C137.602 50.0209 136.098 49.9119 134.562 50.1742C134.276 51.1589 134.462 52.0906 134.391 53.0016C134.347 53.5765 134.577 54.2015 134.117 54.7115L134.111 54.7056ZM84.8822 30.2062C84.7938 30.4243 84.6582 30.6042 84.6582 30.7811C84.6434 33.632 84.6405 36.4829 84.6523 39.3338C84.6523 39.5136 84.7879 39.6934 84.8528 39.8556C86.5775 40.1534 92.7952 40.1386 94.4285 39.8232C94.6378 38.296 94.7085 36.7541 94.3842 35.1444C92.8247 34.8437 91.2857 35.2151 89.7556 34.882C89.4755 33.3047 89.8234 31.7717 89.5079 30.2298C87.9041 30.0381 86.4006 30.0588 84.8822 30.2062ZM169.212 214.099C169.242 213.294 169.286 212.584 169.286 211.876C169.286 211.101 169.248 210.326 169.221 209.447C167.546 209.267 166.013 209.22 164.43 209.474C164.171 210.314 164.265 211.104 164.271 211.879C164.277 212.59 164.144 213.321 164.457 214.09C166.013 214.326 167.546 214.303 169.209 214.096L169.212 214.099Z" fill="#DB6939"/>
<path d="M64.4637 368.591C64.5403 369.307 64.6406 370.02 64.6877 370.737C64.7437 371.586 64.614 372.447 64.8351 373.393C65.3953 373.446 65.9024 373.535 66.4124 373.535C70.0593 373.546 73.7092 373.541 77.3561 373.541C78.0135 373.541 78.671 373.541 79.2783 373.541C79.7677 374.85 79.8178 376.07 79.4965 378.405C79.1545 378.461 78.7801 378.547 78.4027 378.573C77.9398 378.603 77.474 378.582 77.0112 378.582C60.4954 378.582 43.9797 378.582 27.461 378.579C26.6826 378.579 25.8866 378.67 25.0641 378.432C24.6248 376.899 25.0936 375.348 24.728 373.762C24.3742 373.691 24.0086 373.555 23.6372 373.552C21.3818 373.532 19.1264 373.546 16.8711 373.535C16.2932 373.532 15.7124 373.47 15.0786 373.429C14.716 371.842 15.111 370.303 14.7631 368.7C13.2124 368.65 11.7147 368.602 10.161 368.552C9.76594 366.945 10.1669 365.407 9.85734 363.794C9.44754 363.726 9.01416 363.623 8.57193 363.59C7.45456 363.514 6.32541 363.708 5.14613 363.425C4.77466 361.857 5.00167 360.265 4.96629 358.693C4.92797 357.037 4.96629 355.377 4.9545 353.72C4.94271 352.14 5.01346 350.554 4.88964 348.894C3.333 348.505 1.79699 348.876 0.210868 348.602C-0.122278 347.016 0.00449447 345.471 0.148956 343.82C1.68496 343.475 3.22391 343.855 4.81888 343.549C4.86606 343.065 4.94566 342.623 4.9486 342.181C4.96335 339.993 4.94566 337.803 4.96335 335.615C4.96924 335.037 4.81004 334.415 5.24048 333.905C7.02413 333.634 28.0594 333.658 29.7547 333.949C30.1261 335.391 29.7134 336.933 30.0259 338.522C30.3738 338.593 30.7423 338.722 31.1138 338.731C32.237 338.761 33.3573 338.74 34.5926 338.74C34.6781 339.268 34.802 339.701 34.8078 340.138C34.8285 342.26 34.8108 344.383 34.8255 346.506C34.8285 347.154 34.8845 347.803 34.9169 348.534C36.5031 348.926 38.042 348.534 39.6281 348.829C39.6959 349.18 39.8286 349.548 39.8316 349.92C39.8522 352.107 39.8434 354.298 39.8434 356.485C39.8434 357.143 39.8434 357.797 39.8434 358.54C40.321 358.652 40.6836 358.803 41.0521 358.814C42.1076 358.847 43.166 358.826 44.2538 358.826C44.9408 360.442 44.4013 362.06 44.7108 363.608C45.0056 365.082 44.9703 366.621 45.0764 368.057C45.6041 368.661 46.238 368.502 46.8099 368.508C51.981 368.555 57.1551 368.591 62.3262 368.629C63.0544 368.635 63.7856 368.644 64.5138 368.65L64.4548 368.591H64.4637Z" fill="#DB6939"/>
</svg>
