<svg width="177" height="299" viewBox="0 0 177 299" fill="none" xmlns="http://www.w3.org/2000/svg">
<path d="M55.057 231.906C54.5911 231.951 54.1275 232.032 53.6616 232.037C52.0891 232.053 50.5166 232.044 48.9418 232.044C48.4223 232.044 47.9005 232.044 47.3857 232.044C46.7054 233.169 47.3111 234.411 46.7963 235.557C46.561 235.627 46.2744 235.778 45.9809 235.792C43.8377 235.885 41.6921 235.981 39.5466 236.02C37.4499 236.058 35.3533 236.027 33.2543 236.034C32.7395 236.034 32.2223 236.067 31.6143 236.088C31.3371 237.309 31.6306 238.522 31.4046 239.762C30.573 240.03 29.7343 239.88 28.9166 239.906C28.078 239.932 27.2393 239.911 26.4007 239.911H23.8218C23.7449 240.281 23.6424 240.568 23.6331 240.859C23.6028 241.793 23.6075 242.73 23.5958 243.717C22.2703 244.039 21.017 243.852 19.78 243.883C18.5267 243.915 17.2687 243.89 15.9431 243.89C15.8732 244.251 15.7731 244.542 15.7661 244.833C15.7451 245.718 15.7591 246.606 15.7591 247.554C14.4662 247.96 13.2338 247.738 11.9339 247.715C11.8827 247.305 11.8011 246.953 11.7988 246.601C11.7848 244.975 11.7941 243.352 11.7895 241.726C11.7895 241.206 11.7732 240.687 11.7615 240.102C11.3958 240.027 11.1046 239.927 10.811 239.92C9.92347 239.897 9.03356 239.913 8.10172 239.913C7.67075 238.674 8.00854 237.476 7.87109 236.209C8.29275 236.141 8.63287 236.06 8.97765 236.034C9.85358 235.971 10.7435 236.127 11.659 235.909C11.9059 234.613 11.7499 233.36 11.7871 232.116C11.8221 230.867 11.7359 229.616 11.85 228.319C13.0964 227.983 14.3124 228.3 15.5704 228.069C15.6286 227.792 15.7358 227.503 15.7451 227.21C15.7731 226.273 15.7661 225.334 15.7731 224.326C16.218 224.268 16.5698 224.184 16.9192 224.181C18.7014 224.167 20.4835 224.181 22.268 224.17C22.6733 224.167 23.0763 224.104 23.5842 224.063V220.475C24.0268 220.403 24.3669 220.314 24.7117 220.298C25.59 220.258 26.4752 220.34 27.3861 220.216C27.64 218.875 27.4863 217.621 27.5212 216.377C27.5562 215.129 27.4723 213.878 27.5841 212.571C28.8328 212.256 30.0465 212.554 31.3045 212.338C31.365 212.056 31.4722 211.767 31.4815 211.476C31.5095 210.539 31.5025 209.603 31.5095 208.636C32.7628 208.231 33.9858 208.606 35.2461 208.331C35.2927 207.995 35.3789 207.648 35.3836 207.301C35.4092 205.573 35.4069 203.842 35.4325 202.111C35.4395 201.652 35.316 201.16 35.7097 200.699C36.8209 200.422 38.0463 200.788 39.302 200.45C39.3416 199.227 39.3788 198.043 39.4184 196.818C40.6718 196.517 41.8901 196.844 43.0969 196.585C43.4929 195.341 43.027 194.048 43.4184 192.813C44.6344 192.529 45.8528 192.853 47.0875 192.578C47.3554 191.329 47.1923 190.076 47.2202 188.837C47.2505 187.583 47.2272 186.328 47.2272 185.056C48.4806 184.599 49.7083 185.019 50.8824 184.737C51.2551 184.35 51.0874 183.856 51.1246 183.404C51.1875 182.633 51.0012 181.841 51.3227 180.986C52.5108 180.96 53.6988 180.935 54.9382 180.907C55.2084 180.003 55.0686 179.164 55.0919 178.344C55.1152 177.506 55.0966 176.667 55.0966 175.828C55.0966 174.994 55.0966 174.163 55.0966 173.275C56.3336 172.877 57.5543 173.247 58.8193 172.975C58.8752 172.651 58.98 172.308 58.9847 171.966C59.0033 170.235 58.9894 168.506 58.9987 166.776C59.001 166.314 59.0499 165.855 59.0779 165.364C60.3242 165.024 61.5449 165.373 62.8262 165.105C62.8705 164.712 62.9543 164.313 62.9566 163.915C62.9683 160.98 62.9613 158.042 62.966 155.107C62.966 154.592 63.0009 154.079 63.0219 153.497C64.2659 153.196 65.4843 153.513 66.7446 153.262C66.7842 152.889 66.8541 152.542 66.8564 152.192C66.868 150.461 66.8541 148.733 66.868 147.002C66.8727 146.543 66.7516 146.054 67.1289 145.569C68.2402 145.313 69.4585 145.63 70.7049 145.36C70.7421 144.919 70.8027 144.514 70.805 144.109C70.819 141.225 70.8167 138.341 70.8353 135.459C70.8377 134.942 70.9145 134.422 70.9541 133.9C71.8301 133.844 72.7106 133.802 73.5889 133.74C73.936 133.714 74.2785 133.642 74.7048 133.579C74.6792 132.307 74.8585 131.119 74.586 129.872C73.3653 129.684 72.1912 129.735 70.9355 129.831C70.7981 131.268 70.6932 132.603 70.9868 133.94C69.7008 133.542 68.4009 133.816 67.0218 133.756C66.9589 134.182 66.8657 134.527 66.861 134.874C66.8424 136.605 66.8517 138.336 66.8378 140.064C66.8331 140.521 66.7795 140.978 66.7446 141.483C65.4912 141.751 64.2752 141.448 63.0172 141.718C62.9753 142.955 62.9357 144.137 62.8961 145.353C61.6241 145.66 60.4057 145.343 59.1524 145.586C59.0965 145.947 58.9987 146.296 58.994 146.646C58.9777 148.272 58.9847 149.898 58.9847 151.521C58.9847 152.043 58.9847 152.565 58.9847 153.059C57.9527 153.432 56.7879 153.462 55.1642 153.164C55.1432 152.889 55.1036 152.588 55.0966 152.285C54.8963 142.907 55.0011 107.981 55.241 106.299C56.3779 105.971 57.5986 106.304 58.7983 106.071C59.1105 105.519 58.98 104.93 58.9824 104.373C58.994 99.0776 58.987 93.7801 58.9917 88.4849C58.9917 87.9165 59.022 87.3457 59.0406 86.7237C59.6836 86.4279 60.3172 86.5677 60.9252 86.535C61.5426 86.5024 62.1692 86.5956 62.8751 86.4046C62.9031 85.8571 62.9543 85.3469 62.9543 84.8368C62.9613 80.7996 62.9543 76.7624 62.959 72.7229C62.959 72.1545 62.9869 71.586 63.0032 70.9198C64.2263 70.6472 65.4377 70.9244 66.5326 70.7404C67.0032 70.2885 66.8447 69.7853 66.8471 69.3357C66.8634 66.4516 66.8517 63.5676 66.8587 60.6836C66.8587 60.171 66.9053 59.6585 66.9333 59.0901C68.1936 58.7733 69.4119 59.0994 70.6559 58.8478C70.9704 57.6877 70.7911 56.5019 70.7748 55.2277C70.3927 55.1694 70.0479 55.0739 69.7031 55.0692C67.921 55.0529 66.1365 55.0669 64.3544 55.0576C63.9467 55.0576 63.539 55.0063 63.0894 54.9784C62.7796 53.7251 63.1127 52.5067 62.8728 51.3605C62.514 50.9761 62.0714 51.088 61.6661 51.0856C58.7308 51.0763 55.7931 51.0856 52.8555 51.0763C52.3407 51.0763 51.8095 51.1765 51.2435 50.9039C50.908 49.7787 51.304 48.551 50.9895 47.3164C50.1672 47.102 49.3309 47.2208 48.5062 47.2022C47.6675 47.1836 46.8289 47.1999 45.9902 47.1975C45.1586 47.1952 44.3269 47.1882 43.423 47.1836C43.3555 46.7409 43.2599 46.3915 43.2576 46.0421C43.2413 44.416 43.2483 42.79 43.2483 41.1662C43.2483 40.6444 43.2483 40.1226 43.2483 39.5052C42.8429 39.4423 42.5005 39.3608 42.1534 39.3398C41.2775 39.2839 40.3899 39.419 39.4813 39.2327C39.4301 38.9671 39.3625 38.7691 39.3625 38.5711C39.3555 34.9579 39.3579 31.3423 39.3579 27.7058C40.5972 27.2469 41.8249 27.6709 42.999 27.3937C43.3764 27.007 43.2087 26.5108 43.2436 26.0612C43.3065 25.2901 43.1202 24.498 43.416 23.7036C44.6321 23.5429 45.8178 23.5592 47.1038 23.6943C47.3647 24.8894 47.0898 26.1031 47.2971 27.3424C48.1334 27.5987 48.9721 27.4589 49.7898 27.4799C50.6797 27.5032 51.5719 27.5008 52.4642 27.4799C53.2865 27.4612 54.1228 27.5824 55.0407 27.3424V23.7851C55.481 23.7129 55.8234 23.6128 56.1682 23.6081C57.8991 23.5918 59.63 23.6034 61.3585 23.5964C61.8198 23.5941 62.2811 23.5522 62.8192 23.5242C63.1453 22.2593 62.761 20.9803 63.1011 19.6781C64.3195 19.6385 65.5006 19.5989 66.7329 19.5593C67.0031 18.2943 66.698 17.0759 66.9775 15.8109C68.6805 15.6595 70.3484 15.755 72.0094 15.7387C73.6867 15.7224 75.3664 15.7341 77.0437 15.7341H101.917C102.404 15.2868 102.283 14.8442 102.285 14.4411C102.296 11.5059 102.289 8.56824 102.294 5.63063C102.294 5.11579 102.327 4.60094 102.348 4.02321C103.592 3.71337 104.81 4.03485 106.082 3.7786C106.341 2.60215 106.054 1.38844 106.247 0.333132C106.364 0.191027 106.39 0.142105 106.429 0.11415C106.471 0.0861949 106.527 0.062899 106.576 0.062899C109.877 0.0396031 113.178 0.0163071 116.479 0C116.845 0 117.211 0.0186367 117.576 0.0465919C117.669 0.0535806 117.756 0.130457 117.951 0.2283C118.14 2.65807 117.921 5.16471 118.072 7.72726C119.314 8.01846 120.528 7.73425 121.709 7.93459C122.026 8.44943 121.912 8.98524 121.912 9.49076C121.921 13.5815 121.912 17.67 121.921 21.7607C121.921 22.3245 121.825 22.9092 122.105 23.4893C123.298 23.7549 124.516 23.445 125.755 23.7083C126.03 24.9569 125.837 26.2126 125.9 27.4519C125.963 28.7006 125.953 29.9516 125.977 31.2375C127.211 31.6242 128.439 31.2515 129.683 31.5357C129.718 31.9247 129.776 32.2765 129.779 32.6283C129.788 34.3592 129.774 36.09 129.79 37.8186C129.795 38.2775 129.672 38.7667 130.091 39.2932C131.186 39.3165 132.374 39.3422 133.639 39.3678C133.683 39.8686 133.748 40.2717 133.748 40.677C133.758 43.5611 133.748 46.4451 133.755 49.3291C133.755 49.844 133.79 50.3588 133.814 50.9435C135.039 51.2324 136.253 50.9552 137.445 51.1532C137.746 51.7379 137.643 52.3226 137.643 52.8818C137.653 58.0721 137.634 63.2647 137.657 68.4551C137.667 70.2349 137.769 72.0124 137.839 73.7922C137.846 73.9925 137.925 74.1882 137.984 74.4351C139.113 74.7753 140.294 74.3816 141.361 74.7007C141.743 75.1526 141.613 75.6465 141.615 76.1008C141.627 79.0361 141.62 81.9737 141.62 84.9113C141.62 91.362 141.62 97.8103 141.618 104.261C141.618 104.827 141.58 105.393 141.557 106.052C140.285 106.239 139.099 106.12 137.848 106.129C137.776 105.763 137.674 105.475 137.667 105.181C137.643 104.294 137.66 103.404 137.66 102.43C137.238 102.369 136.893 102.283 136.546 102.274C135.712 102.253 134.878 102.267 133.965 102.267C133.888 101.908 133.779 101.619 133.772 101.33C133.741 100.394 133.748 99.4573 133.741 98.4905C132.453 98.0432 131.165 98.4975 129.9 98.1364C129.634 96.953 129.942 95.7346 129.676 94.4976C129.385 94.4626 129.136 94.4067 128.884 94.4067C126.839 94.3974 124.793 94.3904 122.748 94.4067C122.389 94.4091 122.033 94.5232 121.676 94.5838C122.163 93.5401 121.846 92.4382 121.909 91.3666C121.926 91.0847 121.802 90.7959 121.728 90.4325C119.056 90.4255 116.47 90.4185 113.886 90.4115C114.161 88.9066 114.124 87.5601 113.763 86.577C112.603 86.5607 111.421 86.4069 110.212 86.6888C110.147 87.9444 110.066 89.1209 110.278 90.3672C111.545 90.4511 112.733 90.4488 113.926 90.3719C114 91.6601 114.073 92.9484 114.152 94.3066C114.65 94.3438 115.056 94.3951 115.461 94.3974C117.134 94.4067 118.809 94.3928 120.481 94.4091C120.889 94.4137 121.297 94.5069 121.702 94.5582C122.058 95.0241 121.879 95.5669 121.912 96.0771C121.954 96.748 121.846 97.4305 122.026 98.1411C123.235 98.4695 124.456 98.1318 125.723 98.3857C125.776 98.7235 125.858 99.0636 125.879 99.4107C125.933 100.291 125.8 101.184 125.993 102.129C127.177 102.437 128.393 102.132 129.623 102.353C129.874 102.97 129.751 103.599 129.779 104.212C129.804 104.78 129.816 105.351 129.835 105.959C130.485 106.264 131.118 106.12 131.726 106.155C132.344 106.19 132.973 106.087 133.627 106.278C133.925 107.504 133.59 108.722 133.853 109.954C134.999 110.376 136.227 109.954 137.401 110.229C137.781 110.614 137.611 111.11 137.648 111.56C137.711 112.331 137.525 113.123 137.844 113.982C139.032 114.008 140.22 114.036 141.462 114.064C141.736 114.968 141.592 115.804 141.615 116.624C141.639 117.463 141.62 118.301 141.62 119.142V121.7C142.857 122.096 144.078 121.731 145.345 122.001C145.399 122.327 145.492 122.667 145.508 123.009C145.55 123.89 145.462 124.778 145.604 125.74C146.862 126.066 148.138 125.684 149.424 126.015C149.604 128.552 149.375 131.056 149.555 133.623C150.799 133.893 152.012 133.602 153.275 133.837C153.312 134.219 153.375 134.569 153.377 134.918C153.389 136.649 153.375 138.38 153.389 140.111C153.394 140.57 153.27 141.059 153.694 141.574C154.794 141.597 155.98 141.623 157.214 141.651C157.447 142.569 157.328 143.405 157.347 144.23C157.366 145.068 157.349 145.907 157.352 146.748C157.352 147.582 157.359 148.416 157.363 149.28C158.614 149.686 159.837 149.32 161.098 149.571C161.147 149.916 161.235 150.261 161.238 150.608C161.251 152.339 161.238 154.07 161.249 155.801C161.251 156.26 161.31 156.719 161.345 157.224C162.607 157.508 163.823 157.208 165.079 157.443C165.126 157.804 165.207 158.154 165.209 158.505C165.223 160.183 165.212 161.862 165.219 163.54C165.219 164.057 165.254 164.572 165.275 165.142C166.421 165.608 167.611 165.147 168.79 165.504C169.244 169.229 169.07 172.984 169.128 176.756C169.813 177.079 170.446 176.935 171.054 176.967C171.672 177.002 172.301 176.902 172.983 177.098C173.188 179.064 173.056 180.993 173.079 182.917C173.102 184.802 173.083 186.687 173.083 188.653C173.517 188.716 173.862 188.804 174.211 188.813C175.045 188.834 175.879 188.82 176.79 188.82C176.862 189.182 176.946 189.47 176.972 189.764C177.002 190.13 176.981 190.498 176.981 190.866C176.981 205.235 176.983 219.606 176.979 233.975C176.979 234.592 177.086 235.228 176.804 235.918C175.667 236.195 174.446 235.869 173.247 236.118C172.979 236.694 173.093 237.276 173.09 237.837C173.079 243.135 173.086 248.43 173.081 253.728C173.081 254.296 173.049 254.862 173.028 255.493C171.786 255.824 170.568 255.493 169.405 255.719C168.962 256.164 169.119 256.716 169.119 257.222C169.107 261.313 169.114 265.404 169.109 269.494C169.109 270.06 169.074 270.626 169.053 271.262C167.802 271.528 166.589 271.239 165.331 271.479C165.291 271.924 165.223 272.325 165.221 272.728C165.212 275.612 165.216 278.496 165.216 281.38C165.216 281.902 165.216 282.423 165.216 283.015C164.862 283.097 164.573 283.211 164.282 283.22C163.343 283.25 162.405 283.241 161.547 283.248C161.14 283.768 161.256 284.257 161.254 284.718C161.242 287.551 161.249 290.381 161.242 293.214C161.242 293.731 161.21 294.246 161.189 294.85C159.97 295.143 158.754 294.847 157.492 295.073C157.156 296.294 157.517 297.568 157.226 298.856C156.895 298.894 156.597 298.945 156.296 298.959C155.931 298.978 155.563 298.964 155.195 298.964C136.945 298.964 118.694 298.964 100.442 298.961C99.8178 298.961 99.1935 298.961 98.5621 298.961C98.0333 297.673 98.5528 296.373 98.1801 295.176C97.6233 294.843 97.0316 294.987 96.4702 294.987C88.5519 294.975 80.6313 294.98 72.713 294.978C72.1446 294.978 71.5785 294.947 70.9215 294.929C70.6676 293.687 70.9425 292.476 70.7282 291.262C70.1481 291.003 69.568 291.101 69.0089 291.099C63.6066 291.092 58.2066 291.097 52.8043 291.094C52.1753 291.094 51.5463 291.078 50.9173 291.069L50.9616 291.113C51.2737 289.869 51.0338 288.623 51.092 287.309C50.7146 287.232 50.4234 287.122 50.1322 287.12C48.3501 287.104 46.568 287.115 44.7835 287.106C44.3246 287.104 43.868 287.055 43.3671 287.024C43.0806 285.771 43.3927 284.553 43.1178 283.285C41.8901 283.246 40.709 283.209 39.4837 283.169C39.1715 281.897 39.493 280.679 39.2437 279.407C38.9176 279.355 38.5728 279.274 38.2257 279.248C37.3451 279.185 36.4505 279.344 35.521 279.118C35.2322 277.874 35.4139 276.618 35.3789 275.374C35.344 274.121 35.3533 272.868 35.344 271.593C34.1046 271.134 32.8746 271.565 31.6143 271.253C31.5724 270.943 31.4838 270.596 31.4815 270.247C31.4675 268.516 31.4815 266.787 31.4699 265.056C31.4675 264.597 31.4163 264.141 31.3837 263.628C30.128 263.342 28.9073 263.659 27.6843 263.398C27.6284 263.207 27.5235 263.013 27.5235 262.82C27.5142 259.361 27.5142 255.899 27.5212 252.439C27.5212 252.29 27.5818 252.139 27.633 251.908C28.2084 251.647 28.8398 251.789 29.4478 251.754C30.0651 251.722 30.6918 251.82 31.3511 251.633C31.6446 250.41 31.3161 249.19 31.5724 247.96C32.7162 247.526 33.9439 247.957 35.1017 247.689C35.4884 247.356 35.3393 246.911 35.3673 246.511C35.4255 245.686 35.2555 244.845 35.5443 243.925C36.8116 243.906 38.058 243.89 39.3066 243.871C40.5064 243.855 41.7061 243.838 42.822 243.822C43.3019 243.433 43.1668 242.986 43.1924 242.585C43.2436 241.76 43.1039 240.922 43.3322 240.027C44.5738 239.713 45.8504 240.092 47.1573 239.757V236.235C47.5417 236.151 47.8306 236.034 48.1218 236.03C49.8527 236.011 51.5812 236.023 53.3121 236.016C53.827 236.016 54.3418 235.978 54.9359 235.957C55.1688 234.546 55.1059 233.202 54.9941 231.862C55.248 231.92 55.4996 232.023 55.7535 232.025C57.8502 232.039 59.9445 232.037 62.0411 232.03C62.2904 232.03 62.5373 231.967 62.8705 231.92C62.8961 231.345 62.917 230.835 62.945 230.322C62.9823 229.647 63.0242 228.973 63.0638 228.298C63.5786 228.249 64.0958 228.163 64.6107 228.156C66.288 228.137 67.9653 228.156 69.6426 228.142C69.992 228.139 70.3391 228.055 70.7864 227.997C70.7957 226.986 70.7911 226.05 70.819 225.116C70.8283 224.824 70.9308 224.538 71.0054 224.167C71.9186 224.167 72.7526 224.167 73.5866 224.167C74.4206 224.167 75.2639 224.186 76.1025 224.163C76.9202 224.139 77.7589 224.289 78.5905 224.018C78.8118 222.777 78.5276 221.563 78.7932 220.342C79.4012 220.321 79.9184 220.289 80.4332 220.289C83.3173 220.282 86.199 220.284 89.083 220.272C89.4884 220.272 89.8914 220.205 90.2898 220.167C90.5344 219.194 90.3736 218.299 90.4389 217.416C90.4645 217.069 90.5553 216.724 90.6322 216.303C91.2356 216.303 91.7574 216.303 92.2769 216.303C95.1609 216.303 98.0426 216.307 100.927 216.298C101.33 216.298 101.73 216.233 102.187 216.193C102.404 214.938 102.143 213.726 102.376 212.524C103.624 212.268 104.84 212.58 106.021 212.307C106.394 211.042 105.928 209.75 106.397 208.454C107.347 208.447 108.284 208.454 109.218 208.422C109.509 208.412 109.795 208.303 110.147 208.226C110.147 207.259 110.133 206.372 110.154 205.486C110.161 205.193 110.264 204.902 110.334 204.55C111.293 204.55 112.183 204.564 113.073 204.541C113.364 204.534 113.656 204.431 114.042 204.352C114.042 203.767 114.042 203.248 114.042 202.73C114.042 201.104 114.035 199.481 114.052 197.855C114.054 197.503 114.135 197.151 114.194 196.706C115.2 196.699 116.139 196.706 117.078 196.678C117.369 196.669 117.658 196.555 118.014 196.473C118.014 195.464 117.998 194.523 118.024 193.582C118.031 193.291 118.147 193 118.203 192.75C119.405 192.434 120.581 192.844 121.751 192.445C121.797 191.15 121.804 189.899 121.895 188.655C121.986 187.42 121.711 186.158 122.103 184.935C123.333 184.676 124.553 185.019 125.697 184.72C125.916 183.448 125.974 179.521 125.825 176.825C127.109 177.077 128.383 177.03 129.704 176.832C129.772 175.512 129.895 174.279 129.632 173.058C128.865 172.581 128.066 172.765 127.3 172.744C126.834 172.73 126.35 172.728 125.898 173.233C125.888 174.372 125.879 175.621 125.87 176.87C124.877 176.905 123.887 176.93 122.895 176.979C122.601 176.993 122.312 177.079 122.021 177.131C121.735 178.393 122.084 179.614 121.753 180.886C120.859 181 119.973 180.921 119.095 180.96C118.753 180.977 118.41 181.063 118.005 181.13V183.726C118.005 184.564 118.026 185.403 118 186.239C117.975 187.057 118.131 187.896 117.853 188.72C116.612 188.974 115.393 188.648 114.182 188.946C113.919 189.78 114.089 190.621 114.031 191.446C114.003 191.847 114.156 192.292 113.777 192.615C112.61 192.897 111.382 192.459 110.136 192.935C110.136 193.89 110.152 194.831 110.126 195.767C110.119 196.056 109.998 196.343 109.938 196.594C108.677 196.844 107.459 196.489 106.257 196.844C106.033 198.076 106.313 199.287 106.052 200.52C105.388 200.538 104.822 200.545 104.256 200.576C103.643 200.606 103.007 200.466 102.39 200.739C102.075 201.973 102.499 203.255 102.082 204.513C99.5406 204.652 97.0386 204.433 94.5017 204.648C94.271 205.903 94.5436 207.115 94.2967 208.354C93.7678 208.387 93.3089 208.433 92.8523 208.438C91.1237 208.447 89.3952 208.433 87.6666 208.45C87.3195 208.452 86.9724 208.545 86.6439 208.594C86.376 209.861 86.7068 211.08 86.404 212.34C85.9567 212.37 85.5514 212.419 85.1437 212.422C83.3639 212.431 81.5817 212.419 79.8019 212.433C79.4548 212.436 79.11 212.522 78.7769 212.566C78.5043 213.824 78.8771 215.047 78.5067 216.202C77.279 216.47 76.0629 216.14 74.8236 216.438C74.5207 217.682 74.9075 218.963 74.5254 220.242C73.2325 220.342 71.9815 220.268 70.7352 220.298C69.4935 220.326 68.2425 220.2 66.9449 220.403C66.6817 221.628 66.9868 222.846 66.705 224.116C65.4912 224.156 64.3101 224.198 63.0545 224.24C62.8961 225.677 62.8099 227.009 63.0987 228.344C62.8448 228.284 62.5956 228.177 62.3463 228.177C60.1076 228.167 57.8688 228.174 55.6301 228.186C55.488 228.186 55.3482 228.277 55.1152 228.358C55.0873 229.539 55.0617 230.725 55.0337 231.911L55.057 231.906ZM105.97 43.0462C105.381 43.3724 104.74 43.172 104.125 43.2279C103.566 43.2792 102.979 43.1184 102.411 43.3956C102.103 44.6257 102.518 45.9046 102.129 47.1113C100.885 47.3723 99.6664 47.0275 98.441 47.3513C98.1661 48.5417 98.4759 49.7601 98.215 50.9925C97.0013 51.2371 95.7899 50.9598 94.6508 51.1765C94.3642 52.4135 94.3502 53.9021 94.5879 55.2579C94.3363 55.1997 94.0823 55.0925 93.8307 55.0925C91.6293 55.0809 89.4255 55.0832 87.224 55.0972C87.033 55.0972 86.842 55.195 86.616 55.2579C86.5717 56.4973 86.4459 57.6784 86.6952 58.8339C88.4564 59.0528 93.1249 59.0132 94.3619 58.7593C94.3852 58.2771 94.4038 57.7646 94.4318 57.2544C94.469 56.5788 94.511 55.9032 94.5529 55.23C95.0654 55.1811 95.5779 55.0949 96.0904 55.0902C97.8097 55.0716 99.5289 55.0879 101.25 55.0762C101.549 55.0762 101.847 55.0133 102.178 54.9737C102.467 53.6901 102.122 52.4275 102.422 51.1975C103.678 50.9645 104.885 51.2464 106.082 50.9971C106.126 50.7245 106.185 50.5265 106.185 50.3285C106.194 48.2435 106.203 46.1585 106.185 44.0759C106.182 43.7265 106.033 43.377 105.956 43.0322C106.602 43.3514 107.296 43.2442 107.967 43.2209C108.673 43.1976 109.42 43.4213 110.126 42.9926C110.126 41.7812 110.324 40.5955 109.986 39.4074C108.728 39.3445 107.54 39.2583 106.327 39.4656C106.101 40.2437 106.247 40.9799 106.192 41.6997C106.157 42.154 106.338 42.6479 105.975 43.0509L105.97 43.0462ZM67.0707 23.6873C67.0008 23.8597 66.8937 24.0018 66.8937 24.1416C66.882 26.3943 66.8797 28.647 66.889 30.8997C66.889 31.0418 66.9962 31.1839 67.0474 31.3121C68.4102 31.5473 73.3233 31.5357 74.6139 31.2864C74.7793 30.0797 74.8352 28.8613 74.579 27.5894C73.3466 27.3517 72.1306 27.6453 70.9215 27.382C70.7002 26.1357 70.9751 24.9243 70.7258 23.7059C69.4585 23.5545 68.2705 23.5708 67.0707 23.6873ZM133.706 168.996C133.73 168.36 133.765 167.798 133.765 167.239C133.765 166.626 133.734 166.014 133.713 165.32C132.39 165.177 131.179 165.14 129.928 165.34C129.723 166.004 129.797 166.629 129.802 167.241C129.807 167.803 129.702 168.381 129.949 168.989C131.179 169.175 132.39 169.156 133.704 168.993L133.706 168.996Z" fill="#DB6939"/>
<path d="M50.9378 291.071C50.9983 291.637 51.0775 292.201 51.1148 292.767C51.1591 293.438 51.0566 294.118 51.2313 294.866C51.6739 294.908 52.0746 294.978 52.4776 294.978C55.3593 294.987 58.2434 294.982 61.1251 294.982C61.6446 294.982 62.1641 294.982 62.644 294.982C63.0307 296.017 63.0703 296.981 62.8164 298.826C62.5461 298.871 62.2503 298.938 61.9521 298.959C61.5863 298.982 61.2183 298.966 60.8525 298.966C47.8021 298.966 34.7518 298.966 21.699 298.964C21.084 298.964 20.455 299.036 19.8051 298.847C19.458 297.636 19.8284 296.41 19.5395 295.157C19.26 295.101 18.9711 294.994 18.6776 294.992C16.8954 294.975 15.1133 294.987 13.3312 294.978C12.8746 294.975 12.4156 294.927 11.9148 294.894C11.6282 293.641 11.9404 292.425 11.6655 291.157C10.4401 291.118 9.25669 291.08 8.029 291.041C7.71683 289.771 8.03366 288.555 7.78905 287.281C7.46524 287.227 7.12279 287.146 6.77335 287.12C5.89043 287.059 4.9982 287.213 4.06636 286.99C3.77283 285.75 3.95221 284.492 3.92426 283.251C3.89397 281.941 3.92426 280.63 3.91494 279.321C3.90562 278.072 3.96153 276.819 3.86369 275.507C2.63366 275.2 1.41994 275.493 0.166623 275.276C-0.0966211 274.023 0.00355143 272.802 0.117701 271.498C1.33142 271.225 2.54747 271.526 3.80778 271.284C3.84505 270.901 3.90795 270.552 3.91028 270.203C3.92193 268.474 3.90795 266.743 3.92193 265.015C3.92659 264.558 3.80079 264.066 4.14091 263.663C5.55031 263.449 22.172 263.468 23.5115 263.698C23.805 264.838 23.4789 266.056 23.7258 267.312C24.0007 267.367 24.2919 267.47 24.5854 267.477C25.473 267.5 26.3582 267.484 27.3343 267.484C27.4019 267.901 27.4997 268.243 27.5044 268.588C27.5207 270.265 27.5067 271.943 27.5184 273.62C27.5207 274.133 27.565 274.645 27.5906 275.223C28.8439 275.533 30.06 275.223 31.3133 275.456C31.3669 275.733 31.4717 276.024 31.474 276.318C31.4903 278.046 31.4833 279.777 31.4833 281.506C31.4833 282.025 31.4833 282.542 31.4833 283.13C31.8607 283.218 32.1473 283.337 32.4385 283.346C33.2725 283.372 34.1088 283.355 34.9684 283.355C35.5112 284.632 35.0849 285.911 35.3295 287.134C35.5625 288.299 35.5345 289.515 35.6184 290.649C36.0354 291.127 36.5362 291.001 36.9882 291.006C41.0743 291.043 45.1627 291.071 49.2488 291.101C49.8242 291.106 50.402 291.113 50.9774 291.118L50.9308 291.071H50.9378Z" fill="#DB6939"/>
</svg>
