<svg width="223" height="447" viewBox="0 0 223 447" fill="none" xmlns="http://www.w3.org/2000/svg">
<g clip-path="url(#clip0_143_378)">
<path d="M98.7031 221.812C99.965 221.521 101.1 221.824 102.184 221.575C102.533 221.072 102.387 220.522 102.39 220.004C102.403 216.322 102.396 212.639 102.399 208.956C102.399 208.428 102.417 207.899 102.428 207.31C102.766 207.243 103.037 207.151 103.31 207.145C104.135 207.125 104.961 207.137 105.738 207.137C106.174 206.583 106.006 206.028 106.008 205.518C106.021 200.623 106.012 195.729 106.011 190.836C106.011 190.309 106.011 189.781 106.011 189.169C106.402 189.107 106.719 189.03 107.039 189.01C107.858 188.959 108.685 189.081 109.484 188.922C109.836 188.394 109.702 187.845 109.703 187.329C109.714 183.646 109.708 179.964 109.706 176.281C109.706 175.752 109.706 175.225 109.706 174.665C110.862 174.263 112.002 174.636 113.064 174.39C113.434 174.074 113.323 173.662 113.324 173.291C113.335 170.577 113.328 167.863 113.332 165.15C113.332 164.674 113.364 164.198 113.384 163.679C114.539 163.355 115.675 163.664 116.72 163.459C117.128 163.135 117.016 162.72 117.017 162.352C117.026 159.736 117.019 157.118 117.017 154.502C117.017 153.97 117.017 153.44 117.017 152.845C117.346 152.776 117.616 152.679 117.889 152.673C118.713 152.652 119.539 152.666 120.434 152.666C120.512 152.34 120.609 152.076 120.632 151.808C120.664 151.424 120.643 151.034 120.643 150.646C120.643 137.417 120.643 124.188 120.643 110.96C120.643 110.386 120.625 109.813 120.614 109.188C119.791 108.923 119.012 109.059 118.25 109.038C117.423 109.015 116.592 109.018 115.764 109.038C114.998 109.054 114.221 108.948 113.411 109.145C113.168 110.236 113.42 111.31 113.23 112.458C112.945 112.508 112.628 112.608 112.311 112.611C110.752 112.628 109.191 112.616 107.631 112.623C107.152 112.627 106.675 112.66 106.127 112.683C105.807 113.86 106.168 115.041 105.857 116.247C104.726 116.283 103.627 116.32 102.483 116.358C102.189 117.516 102.521 118.65 102.225 119.765C101.035 119.978 99.8705 119.851 98.7137 119.877C97.4961 119.904 96.2768 119.881 95.0576 119.893C93.8963 119.904 92.7335 119.842 91.5234 119.948C91.1638 121.123 91.5387 122.306 91.2308 123.512C89.9933 123.626 88.7817 123.553 87.5762 123.568C86.4058 123.584 85.2369 123.573 84.0664 123.573C82.8472 123.573 81.6295 123.573 80.4103 123.573C79.1911 123.573 78.0694 123.562 76.9005 123.576C75.695 123.59 74.4834 123.515 73.2368 123.633C72.9655 124.797 73.2703 125.925 72.999 127.056C72.6272 127.093 72.2995 127.151 71.9703 127.157C62.1724 127.345 38.1966 127.246 36.6711 127.003C36.4272 125.956 36.7229 124.829 36.4882 123.786C35.9838 123.456 35.4854 123.579 35.013 123.577C31.2105 123.567 27.4081 123.573 23.6057 123.57C23.1256 123.57 22.6471 123.538 22.1076 123.518C21.751 122.349 22.1579 121.158 21.8135 120.01C20.6857 119.727 19.5503 120.046 18.4073 119.789C18.0796 118.716 18.4058 117.588 18.1741 116.464C17.6148 116.202 17.025 116.335 16.4581 116.306C15.9308 116.279 15.4004 116.273 14.806 116.256C14.457 115.072 14.739 113.905 14.6018 112.769C14.4647 111.63 14.4006 110.481 14.3016 109.3C13.2165 108.97 12.1085 109.368 11.0524 108.991C10.7963 107.823 11.0996 106.647 10.836 105.451C9.70973 105.222 8.58043 105.479 7.43437 105.264C7.17986 104.14 7.474 103.013 7.21796 101.898C6.41633 101.67 5.63756 101.791 4.87098 101.771C4.0922 101.751 3.31038 101.774 2.53161 101.763C1.76046 101.753 0.984737 101.816 0.148053 101.695C-0.0866458 100.499 -0.00130098 99.3624 0.099284 98.1778C1.12495 97.693 2.24662 98.1839 3.31343 97.8097C3.603 96.8265 3.5207 95.8419 3.35611 94.8072C2.32892 94.4467 1.2804 94.8072 0.297406 94.5452C-0.0561655 93.6787 -0.100362 92.491 0.177009 90.9625C1.00912 90.7156 1.88848 90.8716 2.75107 90.8474C3.67615 90.8201 4.60275 90.8413 5.52935 90.8413C6.40718 90.8413 7.28502 90.8292 8.16133 90.8444C9.02697 90.8595 9.90023 90.7656 10.7887 90.9231C11.0768 92.0835 10.7704 93.2106 11.0112 94.3755C11.3374 94.424 11.6589 94.5088 11.982 94.5134C13.4939 94.5285 15.0042 94.5209 16.516 94.5209C17.0021 94.5209 17.4868 94.5209 18.0415 94.5209C18.1101 94.8406 18.2092 95.1072 18.2168 95.3768C18.2381 96.1964 18.2244 97.0174 18.2244 97.9082C18.5521 97.9839 18.8188 98.0884 19.0885 98.099C19.9572 98.1293 20.8274 98.1248 21.7083 98.1339C22.1518 99.3306 21.7007 100.529 22.068 101.685C22.8513 101.876 23.6301 101.771 24.3982 101.788C25.1785 101.804 25.9588 101.779 26.7376 101.797C27.5072 101.815 28.2875 101.706 29.0967 101.91C29.3482 103.074 29.1912 104.234 29.2217 105.384C29.2522 106.54 29.2446 107.697 29.2537 108.87C30.4211 109.268 31.5626 108.898 32.7254 109.168C33.0043 110.232 32.7208 111.356 32.9281 112.499C33.6962 112.773 34.4765 112.623 35.237 112.646C36.0645 112.67 36.8951 112.661 37.7227 112.648C38.4908 112.636 39.2665 112.716 40.126 112.549C40.1657 111.406 40.2022 110.315 40.2419 109.153C42.121 108.961 43.9147 109.086 45.7039 109.065C47.5068 109.044 49.3113 109.061 51.1157 109.061C52.9201 109.061 54.723 109.07 56.5275 109.058C58.3213 109.047 60.1181 109.104 61.9941 109.009C62.305 107.832 61.9576 106.653 62.2547 105.452C63.4922 105.314 64.7038 105.401 65.9078 105.385C67.0782 105.37 68.2472 105.382 69.4176 105.382H73.0737C74.2442 105.382 75.4131 105.385 76.5835 105.382C77.7982 105.378 79.0113 105.367 80.2396 105.358C80.6648 104.213 80.2716 103.075 80.5536 101.939C81.6646 101.582 82.8564 101.977 83.9887 101.698C84.5374 100.706 83.9979 99.5578 84.5038 98.4883C85.5478 98.1263 86.6893 98.3823 87.785 98.199C88.8778 98.0172 90.0162 98.1051 91.2065 98.0718C91.2659 97.7839 91.3619 97.5143 91.3695 97.2431C91.3909 96.4236 91.3771 95.604 91.3771 94.7118C91.7109 94.6406 91.9791 94.5467 92.2489 94.5346C93.1176 94.4967 93.9923 94.5588 94.8885 94.477C95.3137 93.3075 94.8641 92.1108 95.2481 90.9141C96.4171 90.7959 97.5799 90.8777 98.7381 90.8489C99.8964 90.8201 101.058 90.8777 102.256 90.805C102.536 89.6128 102.242 88.4857 102.492 87.3526C103.618 87.1163 104.749 87.389 105.877 87.1572C106.171 86.0226 105.86 84.8955 106.101 83.7245C106.407 83.6761 106.727 83.6033 107.052 83.5806C107.87 83.5215 108.701 83.6761 109.556 83.4503C109.894 82.3672 109.513 81.2311 109.815 80.0873C110.58 79.895 111.357 80.0025 112.122 79.9859C112.902 79.9692 113.683 79.9859 114.461 79.9843C115.234 79.9828 116.008 79.9768 116.792 79.9722C117.25 78.7755 116.801 77.5772 117.159 76.4062C118.252 76.1593 119.385 76.4487 120.538 76.2002C120.762 75.0868 120.512 73.9658 120.722 72.8009C123.087 72.5933 125.416 72.8327 127.792 72.6509C128.138 71.4966 127.772 70.315 128.072 69.1107C128.578 69.0849 129.052 69.041 129.526 69.0395C133.085 69.0334 136.643 69.0531 140.202 69.0289C142.051 69.0168 143.899 68.9365 145.685 68.888C146.13 68.579 146.054 68.1654 146.077 67.7882C146.118 67.0717 146.002 66.34 146.252 65.5538C146.643 65.5159 147.014 65.4493 147.388 65.4478C150.117 65.4402 152.848 65.4478 155.578 65.4417C156.055 65.4417 156.533 65.4023 157.09 65.3766C157.276 64.4055 157.178 63.4921 157.193 62.5862C157.209 61.7136 157.196 60.8411 157.196 59.97C157.196 59.049 157.21 58.128 157.192 57.2084C157.175 56.3495 157.282 55.4815 157.097 54.5877C155.95 54.3166 154.816 54.612 153.735 54.3878C153.673 54.1848 153.597 54.0515 153.597 53.9182C153.589 44.6624 153.586 35.4081 153.589 26.1523C153.589 25.9675 153.658 25.7827 153.702 25.5585C154.801 25.2328 155.939 25.5827 157.026 25.3297C157.292 24.8404 157.192 24.3481 157.192 23.877C157.199 20.1459 157.196 16.4148 157.198 12.6837C157.198 12.158 157.213 11.6309 157.222 11.0734C158.409 10.6568 159.609 11.0855 160.785 10.7417C161.038 9.65247 160.747 8.52541 160.996 7.38927C162.137 7.17113 163.263 7.39684 164.332 7.24384C164.873 6.84695 164.822 6.28796 164.816 5.76837C164.798 3.90055 164.929 4.02325 166.694 3.88691C168.331 3.75966 169.965 3.5794 171.668 3.59454C171.982 2.4478 171.691 1.32226 171.897 0.20429C172.409 -0.0714141 172.953 0.0331111 173.471 0.0331111C179.078 0.024022 184.683 0.0270517 190.29 0.0270517C191.359 0.0270517 192.429 0.0270517 193.564 0.0270517C193.628 0.364865 193.718 0.63451 193.724 0.90567C193.744 1.72369 193.732 2.54323 193.732 3.44154C194.128 3.5082 194.446 3.60515 194.765 3.60818C196.374 3.62484 197.982 3.61121 199.591 3.6203C200.02 3.62333 200.446 3.66574 200.914 3.69301C201.218 4.84733 200.897 5.97439 201.147 7.14537C201.454 7.19385 201.774 7.26808 202.097 7.2908C202.915 7.34837 203.744 7.20294 204.602 7.41199C204.858 8.57389 204.698 9.73427 204.73 10.884C204.762 12.0399 204.755 13.1988 204.764 14.3713C205.927 14.7712 207.068 14.3985 208.153 14.6515C208.489 15.0923 208.351 15.5922 208.353 16.0603C208.364 20.3246 208.359 24.589 208.359 28.8533C208.359 33.1661 208.359 37.4789 208.359 41.7917V43.4399C208.012 43.5081 207.739 43.602 207.466 43.6095C206.641 43.6308 205.817 43.6171 204.933 43.6171C204.858 43.9034 204.753 44.1246 204.752 44.3458C204.741 47.4952 204.743 50.6446 204.749 53.7955C204.749 53.9788 204.808 54.1605 204.848 54.3893C205.969 54.6604 207.103 54.3544 208.254 54.6059C208.476 56.1344 208.327 57.6281 208.354 59.1141C208.382 60.6154 208.361 62.1181 208.361 63.6208C208.361 65.0751 208.359 66.5278 208.358 67.9821C208.358 69.4803 208.358 70.977 208.358 72.5494C208.769 72.6146 209.088 72.6948 209.411 72.71C210.231 72.7463 211.057 72.6767 211.822 72.7615C212.161 73.2917 212.047 73.7886 212.047 74.2627C212.055 77.9938 212.047 81.7249 212.047 85.456C212.047 85.9847 212.067 86.5134 212.079 87.0602C213.228 87.4768 214.371 87.086 215.557 87.3738C215.592 87.7132 215.662 88.0813 215.664 88.4509C215.673 91.1155 215.667 93.7817 215.671 96.4463C215.671 96.9235 215.7 97.4022 215.719 97.9551C216.874 98.3081 218.062 97.9415 219.186 98.2172C219.457 98.761 219.359 99.3033 219.359 99.8229C219.365 105.881 219.359 111.937 219.362 117.995C219.362 118.569 219.385 119.143 219.399 119.775C220.551 120.081 221.682 119.793 222.854 120.008C222.898 120.302 222.959 120.573 222.976 120.846C222.997 121.184 222.982 121.525 222.982 121.864C222.982 142.362 222.982 162.859 222.982 183.357C222.982 183.932 222.982 184.508 222.982 185.141C221.834 185.508 220.699 185.178 219.663 185.379C219.234 185.77 219.369 186.234 219.365 186.649C219.352 189.313 219.361 191.979 219.355 194.644C219.355 195.12 219.315 195.594 219.292 196.133C218.133 196.441 217 196.127 215.833 196.362C215.781 196.61 215.685 196.878 215.679 197.148C215.658 197.968 215.671 198.789 215.671 199.675C215.336 199.743 215.065 199.843 214.793 199.846C212.942 199.86 211.089 199.857 209.235 199.849C209.002 199.849 208.771 199.792 208.49 199.755C208.231 198.628 208.519 197.504 208.304 196.454C207.137 196.233 195.553 196.183 193.875 196.386C193.575 197.548 193.762 198.755 193.741 199.948C193.719 201.096 193.663 202.252 193.808 203.441C194.987 203.715 196.121 203.415 197.203 203.65C197.535 204.1 197.411 204.601 197.412 205.071C197.423 208.85 197.415 212.63 197.42 216.41C197.42 216.932 197.453 217.455 197.473 218.005C198.593 218.391 199.689 218.018 200.797 218.303C200.841 218.499 200.933 218.723 200.939 218.948C200.983 220.691 201.038 222.434 201.039 224.176C201.047 237.26 201.044 250.344 201.048 263.426C201.048 263.996 200.978 264.577 201.161 265.179C202.289 265.456 203.423 265.146 204.575 265.397C204.628 265.676 204.724 265.95 204.727 266.226C204.744 267.438 204.732 268.648 204.732 269.86C204.732 278.631 204.732 287.402 204.738 296.173C204.738 296.742 204.647 297.329 204.9 297.953C205.974 298.213 207.109 297.91 208.228 298.151C208.441 298.697 208.351 299.234 208.351 299.753C208.359 308.233 208.356 316.713 208.359 325.193C208.359 325.767 208.379 326.341 208.39 326.959C209.58 327.346 210.775 326.938 211.908 327.258C212.123 327.853 212.04 328.438 212.04 329.01C212.046 337.442 212.041 345.874 212.049 354.306C212.049 354.878 211.951 355.464 212.207 356.089C213.263 356.399 214.403 356.042 215.559 356.32C215.595 356.554 215.662 356.782 215.662 357.01C215.668 364.908 215.667 372.807 215.664 380.705C215.664 380.938 215.626 381.17 215.6 381.472C214.463 381.734 213.33 381.443 212.235 381.673C211.956 382.215 212.052 382.755 212.05 383.273C212.041 387.876 212.044 392.48 212.044 397.084C212.044 398.683 212.047 400.282 212.041 401.881C212.04 402.311 212.006 402.74 211.985 403.231C210.852 403.579 209.717 403.236 208.527 403.492C208.475 403.764 208.383 404.076 208.364 404.394C208.309 405.253 208.435 406.123 208.263 407.024C207.175 407.341 206.082 407.014 204.997 407.276C204.657 408.316 205.018 409.409 204.724 410.495C203.6 410.876 202.408 410.481 201.214 410.766C200.809 411.86 201.24 413.049 200.922 414.233C199.765 414.444 198.601 414.315 197.447 414.336C196.229 414.358 195.01 414.349 193.791 414.338C192.633 414.327 191.47 414.389 190.286 414.285C189.961 413.112 190.303 411.981 190.056 410.951C189.713 410.554 189.297 410.667 188.923 410.666C186.194 410.654 183.463 410.66 180.733 410.651C180.258 410.651 179.781 410.613 179.263 410.59C178.979 409.434 179.281 408.309 179.058 407.259C177.912 407.033 173.656 406.989 171.959 407.177C171.912 407.332 171.81 407.507 171.81 407.685C171.804 410.931 171.809 414.177 171.815 417.424C171.815 417.515 171.862 417.605 171.917 417.801C172.19 417.845 172.505 417.922 172.827 417.943C173.644 417.996 174.47 417.869 175.332 418.049C175.625 419.226 175.448 420.387 175.475 421.534C175.503 422.689 175.481 423.847 175.481 425.039C176.65 425.415 177.787 425.069 178.961 425.322C179.008 425.633 179.093 425.951 179.096 426.269C179.11 427.869 179.098 429.467 179.107 431.067C179.11 431.492 179.154 431.918 179.182 432.374C180.334 432.686 181.472 432.359 182.606 432.621C182.874 433.743 182.801 434.828 182.66 436.014C182.247 436.053 181.875 436.119 181.504 436.122C178.824 436.137 176.141 436.141 173.461 436.147C172.979 436.147 172.496 436.147 171.988 436.147C171.586 437.306 171.953 438.439 171.684 439.615C170.631 439.891 169.498 439.609 168.326 439.819C168.271 440.151 168.178 440.469 168.175 440.786C168.159 442.386 168.171 443.984 168.16 445.583C168.157 446.009 168.111 446.433 168.082 446.889C166.888 447.063 165.789 447.047 164.609 446.907C164.352 445.799 164.64 444.673 164.408 443.52C163.297 443.281 162.169 443.526 161.035 443.34C160.775 442.54 160.91 441.766 160.889 441.007C160.868 440.233 160.889 439.456 160.883 438.682C160.878 437.914 160.863 437.146 160.854 436.493C160.456 436.025 160.04 436.15 159.668 436.149C156.939 436.138 154.208 436.149 151.478 436.143C151.003 436.143 150.527 436.1 149.988 436.075C149.8 435.241 149.898 434.47 149.88 433.708C149.863 432.933 149.864 432.157 149.867 431.383C149.869 430.617 149.881 429.85 149.889 429.031C151.071 428.725 152.204 429.028 153.394 428.799C153.449 428.511 153.548 428.196 153.56 427.879C153.59 427.061 153.58 426.243 153.587 425.412C154.762 425.025 155.902 425.38 157.007 425.134C157.317 424.631 157.183 424.085 157.184 423.571C157.196 418.289 157.192 413.008 157.192 407.726C157.192 405.641 157.192 403.558 157.192 401.475V399.994C156.043 399.6 154.904 399.965 153.728 399.697C153.677 399.403 153.598 399.089 153.577 398.771C153.522 397.959 153.656 397.135 153.453 396.24C153.053 396.199 152.681 396.129 152.309 396.128C149.579 396.119 146.848 396.128 144.119 396.119C143.646 396.117 143.149 396.223 142.605 395.916C142.579 394.89 142.554 393.837 142.526 392.713C141.371 392.376 140.234 392.568 139.041 392.579C138.762 393.743 139.061 394.871 138.801 396.032C137.619 396.204 136.458 396.093 135.304 396.119C134.144 396.144 132.98 396.079 131.773 396.167C131.387 397.35 131.815 398.544 131.457 399.695C130.336 399.954 129.203 399.657 128.104 399.894C127.778 400.397 127.92 400.945 127.92 401.46C127.909 408.777 127.914 416.094 127.911 423.412C127.911 423.938 127.885 424.463 127.873 424.963C126.844 425.245 122.847 425.313 120.763 425.093C120.721 424.795 120.643 424.475 120.635 424.153C120.615 423.383 120.629 422.614 120.629 421.794C119.358 421.453 118.143 421.656 116.947 421.621C115.789 421.588 114.624 421.558 113.399 421.668C113.149 422.821 113.417 423.944 113.203 425.089C112.081 425.349 110.949 425.057 109.825 425.295C109.458 426.44 109.851 427.631 109.527 428.828C108.317 428.925 107.155 428.868 105.997 428.878C104.778 428.887 103.56 428.871 102.341 428.882C101.18 428.893 100.015 428.828 98.7854 428.943C98.505 430.074 98.8037 431.2 98.569 432.356C96.9566 432.586 95.3579 432.433 93.7668 432.46C92.2077 432.487 90.6471 432.466 89.0865 432.466C87.4833 432.466 85.88 432.466 84.2493 432.463C84.1731 432.194 84.0786 432.015 84.0786 431.838C84.0695 428.64 84.071 425.442 84.0786 422.242C84.0786 422.106 84.1381 421.968 84.1899 421.749C85.2689 421.473 86.4012 421.768 87.5854 421.546C87.6403 421.249 87.7378 420.934 87.75 420.614C87.7789 419.796 87.7698 418.978 87.7759 418.148C88.9479 417.745 90.0909 418.124 91.243 417.848C91.4899 416.762 91.3619 415.668 91.3284 414.618C90.9763 414.233 90.5618 414.349 90.1884 414.347C87.5077 414.336 84.8254 414.341 82.1447 414.341C81.6646 414.341 81.183 414.341 80.6191 414.341C80.5521 413.936 80.456 413.62 80.453 413.303C80.4362 411.704 80.45 410.105 80.4393 408.506C80.4362 408.08 80.389 407.654 80.36 407.214C79.1911 406.897 78.0557 407.226 76.8868 406.973C76.8411 406.694 76.7649 406.423 76.7588 406.149C76.7405 405.422 76.7512 404.694 76.7512 403.969C76.7512 394.713 76.7527 385.457 76.7481 376.203C76.7481 375.632 76.8304 375.049 76.6094 374.412C75.5228 374.17 74.392 374.45 73.252 374.225C73.0737 373.623 73.1408 373.044 73.1377 372.476C73.1347 371.955 73.1713 371.433 73.1926 370.857C74.3615 370.613 75.4923 370.881 76.6445 370.652C76.87 368.922 76.7192 367.236 76.7466 365.556C76.774 363.91 76.7527 362.262 76.7527 360.613C76.7527 358.965 76.7527 357.222 76.7527 355.525C76.7527 353.877 76.7527 352.23 76.7527 350.582C76.7527 348.89 76.7527 347.196 76.7527 345.427C77.1474 345.363 77.4659 345.289 77.7906 345.265C78.6105 345.207 79.441 345.356 80.2488 345.153C80.5734 344.638 80.4393 344.091 80.4408 343.571C80.4515 337.465 80.4469 331.36 80.4484 325.254C80.4484 324.725 80.4682 324.198 80.4789 323.649C81.628 323.239 82.771 323.625 83.879 323.357C84.2036 322.878 84.0573 322.328 84.0588 321.815C84.0725 317.26 84.068 312.705 84.0664 308.149C84.0664 305.339 84.0634 302.528 84.0619 299.718C84.0619 299.241 84.0619 298.763 84.0619 298.221C85.2628 297.862 86.4515 298.221 87.5762 297.948C87.8521 297.408 87.753 296.867 87.753 296.347C87.7607 290.241 87.7576 284.136 87.7607 278.029C87.7607 277.504 87.7805 276.977 87.7911 276.378C88.9418 276.092 90.0726 276.381 91.1927 276.168C91.4732 275.653 91.371 275.112 91.371 274.597C91.3802 269.654 91.3771 264.711 91.3787 259.769C91.3787 258.461 91.3787 257.153 91.3787 255.844C91.3787 255.463 91.3787 255.079 91.3787 254.611C91.7673 254.548 92.0843 254.467 92.4028 254.448C93.2212 254.395 94.0487 254.522 94.8458 254.355C95.1948 253.825 95.0622 253.277 95.0637 252.76C95.0759 248.981 95.0531 245.201 95.079 241.421C95.0881 240.022 95.1933 238.622 95.271 237.222C95.2984 236.745 95.5057 236.56 96.0284 236.524C96.4658 236.494 96.9063 236.522 97.3437 236.492C97.7231 236.466 98.0981 236.394 98.4349 236.347C98.8052 235.845 98.6817 235.348 98.6833 234.885C98.6924 231.105 98.6894 227.326 98.6894 223.546C98.6894 223.016 98.6894 222.486 98.6894 221.827L98.7031 221.812ZM200.814 170.746C201.237 170.32 201.074 169.809 201.076 169.347C201.088 165.039 201.083 160.732 201.083 156.424C201.083 153.181 201.088 149.938 201.076 146.696C201.074 146.278 201.202 145.82 200.777 145.369C200.027 145.369 199.204 145.381 198.381 145.361C198.107 145.355 197.836 145.267 197.496 145.204C197.485 144.616 197.482 144.087 197.462 143.56C197.441 142.99 197.542 142.407 197.308 141.783C196.143 141.657 195.009 141.589 193.802 141.838C193.64 144.195 193.844 146.506 193.683 148.847C192.511 149.106 191.378 148.81 190.211 149.08C190.178 149.541 190.124 149.963 190.123 150.384C190.112 151.981 190.126 153.579 190.111 155.176C190.107 155.496 190.021 155.815 189.975 156.124C188.803 156.383 187.668 156.055 186.511 156.364C186.482 156.833 186.436 157.257 186.433 157.681C186.424 159.278 186.436 160.876 186.422 162.473C186.419 162.793 186.332 163.112 186.275 163.5C185.369 163.5 184.543 163.486 183.719 163.508C183.446 163.515 183.176 163.611 182.815 163.683C182.899 164.868 182.597 166.01 183.041 167.204C183.912 167.204 184.737 167.19 185.558 167.211C185.83 167.219 186.099 167.313 186.432 167.38C186.432 168.267 186.418 169.088 186.439 169.906C186.447 170.178 186.543 170.446 186.604 170.746H200.812H200.814ZM98.5949 410.689C97.9472 410.671 97.4183 410.631 96.8926 410.649C96.3226 410.667 95.7297 410.519 95.1354 410.845C95.0454 411.976 94.9311 413.108 95.2192 414.333C96.3881 414.283 97.4854 414.491 98.6665 414.194C98.6924 413.05 98.7793 411.954 98.5949 410.689Z" fill="#9B1B0E"/>
</g>
<defs>
<clipPath id="clip0_143_378">
<rect width="223" height="447" fill="white"/>
</clipPath>
</defs>
</svg>
