<svg width="557" height="548" viewBox="0 0 557 548" fill="none" xmlns="http://www.w3.org/2000/svg">
<g clip-path="url(#clip0_149_64)">
<path d="M303.039 482.721L289.346 479.485C289.088 479.341 288.847 479.142 288.569 479.059C284.377 477.806 280.177 476.582 275.989 475.319C270.438 473.649 264.981 471.724 259.55 469.72C253.08 467.331 246.71 464.722 240.427 461.924C227.906 456.346 215.794 450.054 204.095 443.073C180.658 429.083 159.244 412.817 139.854 394.282C139.507 393.949 139.116 393.648 138.816 393.285C138.227 392.571 137.532 392.464 136.692 392.739C136.296 392.869 135.868 392.924 135.454 393.012C131.543 393.843 127.58 394.417 123.535 394.585C118.057 394.813 112.639 394.389 107.314 392.734C103.379 391.511 99.7476 389.77 96.5738 387.275C91.6244 383.383 87.5747 378.801 84.4081 373.6C78.3028 363.571 77.5402 353.373 81.8202 343.012C83.303 339.421 85.2409 336.073 87.4963 332.874C87.8488 332.375 88.3201 331.932 88.4398 331.279C88.2017 330.874 87.9706 330.47 87.7278 330.071C81.4555 319.749 75.9845 309.11 71.3597 298.131C62.3621 276.778 56.7312 254.831 54.4706 232.291C53.3542 221.164 53.1098 210.053 53.7095 198.964C53.9689 194.154 54.356 189.355 55.0166 184.589C55.439 181.544 55.9709 178.514 56.3515 175.463C56.8311 171.632 57.9456 167.931 58.4408 164.1C58.6901 162.171 59.4674 160.337 59.9779 158.457C61.2231 153.871 62.5304 149.31 64.0245 144.796C65.6415 139.91 67.4733 135.099 69.5206 130.37C73.3307 121.563 77.913 113.127 83.3675 105.119C91.4934 93.1874 101.181 82.4566 112.415 72.9212C122.85 64.0644 134.343 56.5094 146.889 50.26C163.248 42.112 180.719 36.8139 199.466 34.6924C215.248 32.9081 231.056 33.1562 246.916 35.9358C252.626 36.9374 258.29 38.1658 263.949 39.4228C265.994 39.8778 268.004 40.4898 270.048 40.9601C275.586 42.2343 281.012 43.8898 286.403 45.6394C292.087 47.4848 297.681 49.5722 303.165 51.9232C309.498 54.6384 315.649 57.6715 321.508 61.2148C333.181 68.2768 344.097 76.2367 354.335 84.994C364.86 93.9954 374.607 103.63 383.01 114.35C383.22 114.619 383.481 114.853 383.754 115.143C384.092 114.995 384.366 114.891 384.622 114.758C390.133 111.905 395.854 109.424 401.748 107.26C416.124 101.982 431.105 98.5751 446.629 96.8982C461.41 95.3008 476.257 95.2635 491.181 97.3197C497.17 98.1446 503.084 99.3076 508.947 100.816C514.331 102.202 519.626 103.823 524.866 105.646C529.114 107.124 533.302 108.745 537.425 110.51C546.473 114.381 555.211 118.807 563.605 123.828C576.921 131.796 589.17 140.951 599.992 151.693C607.293 158.941 613.763 166.738 619.098 175.285C623.206 181.869 626.48 188.776 629.35 195.834C634.696 208.987 638.106 222.483 639.65 236.299C640.447 243.428 640.77 250.559 640.513 257.683C640.289 263.903 639.951 270.109 638.735 276.211C638.618 276.796 638.363 277.395 638.678 278.018L633.278 300.869C632.644 301.448 632.624 302.267 632.384 302.996C631.723 305.014 631.164 307.066 630.418 309.053C628.689 313.661 626.8 318.209 624.687 322.671C620.819 330.842 616.462 338.772 611.249 346.249C604.946 355.292 598.551 364.281 592.019 373.182C584.638 383.238 576.521 392.77 567.582 401.69C560.433 408.823 552.848 415.543 544.886 421.912C544.395 422.304 543.92 422.713 543.421 423.127C543.694 423.742 543.928 424.266 544.165 424.791C545.211 427.115 546.142 429.472 546.732 431.914C547.915 436.804 547.846 441.653 546.774 446.454C545.454 452.374 542.549 457.502 538.009 461.788C532.854 466.655 526.513 469.696 519.259 471.221C508.746 473.43 498.363 472.288 488.122 468.688C484.634 467.463 481.215 466.083 477.923 464.433C477.002 463.971 476.239 464.068 475.331 464.445C470.718 466.364 466.112 468.305 461.42 470.067C445.733 475.96 429.468 480.307 412.71 483.298C402.441 485.132 392.065 486.439 381.596 487.266C373.08 487.94 364.538 488.345 355.951 488.28C343.481 488.186 331.054 487.136 318.674 485.257C313.865 484.529 309.084 483.588 304.288 482.758C303.881 482.687 303.456 482.725 303.04 482.714L303.039 482.721ZM479.666 350.776C480.155 350.425 480.54 350.167 480.903 349.886C492.605 340.798 503.42 330.913 512.956 319.882C519.266 312.584 524.888 304.859 529.525 296.524C532.787 290.658 535.453 284.555 537.375 278.171C539.201 272.098 540.205 265.867 540.295 259.495C540.379 253.461 539.598 247.481 537.87 241.575C535.451 233.312 531.458 225.662 526.109 218.564C521.126 211.953 514.858 206.584 507.374 202.389C499.353 197.892 490.676 195.24 481.602 193.749C475.447 192.737 469.251 192.408 463.051 192.544C450.706 192.817 438.81 194.904 427.296 198.535C421.158 200.471 415.282 202.905 409.644 205.788C408.984 206.125 408.537 206.555 408.276 207.231C407.808 208.439 407.449 209.662 407.295 210.949C407.195 211.782 407.089 212.616 406.915 213.433C406.344 216.112 405.759 218.788 405.149 221.457C403.64 228.07 401.336 234.43 398.525 240.617C394.991 248.397 390.559 255.712 385.342 262.606C385.005 263.051 384.69 263.509 384.318 264.025C384.741 264.514 385.106 264.969 385.509 265.396C393.787 274.181 402.324 282.754 411.075 291.149C426.324 305.779 442.209 319.811 458.621 333.34C465.377 338.909 472.271 344.338 478.818 350.121C479.04 350.316 479.29 350.485 479.669 350.777L479.666 350.776ZM297.434 153.946C297.31 153.681 297.253 153.462 297.123 153.288C292.105 146.54 285.884 140.957 278.043 137.033C270.146 133.082 261.815 130.335 253.036 128.867C247.731 127.98 242.418 127.501 237.073 127.543C221.307 127.665 206.876 131.452 193.9 139.189C187.507 143 181.932 147.645 177.215 153.136C172.858 158.206 169.163 163.672 165.997 169.454C162.448 175.934 159.709 182.723 157.715 189.786C156.302 194.793 155.315 199.89 154.688 205.064C153.939 211.24 153.727 217.449 154.026 223.694C154.51 233.793 156.299 243.749 159.244 253.589C161.775 262.051 165.172 270.24 169.309 278.204C169.518 278.606 169.785 278.982 170.081 279.463C170.722 279.289 171.303 279.163 171.855 278.971C172.929 278.598 173.98 278.177 175.049 277.792C189.386 272.622 203.714 267.44 218.06 262.289C229.031 258.351 239.897 254.198 250.745 250.004C251.233 249.815 251.697 249.579 252.285 249.313C251.771 248.347 251.308 247.484 250.849 246.618C247.156 239.656 244.125 232.495 242.238 224.995C239.656 214.731 239.701 204.654 243.218 194.792C245.189 189.268 247.99 184.165 251.689 179.513C260.584 168.324 272.426 160.749 286.795 156.291C289.557 155.434 292.423 154.944 295.294 154.457C295.991 154.339 296.73 154.307 297.436 153.943L297.434 153.946ZM311.173 320.399C310.529 320.644 310.024 320.818 309.534 321.023C299.491 325.239 289.2 328.937 278.763 332.328C272.035 334.514 265.392 336.869 258.889 339.543C251.239 342.689 243.501 345.67 235.793 348.703C234.297 349.293 232.747 349.777 231.237 350.338C230.884 350.469 230.592 350.721 230.197 350.964C230.715 351.413 231.107 351.782 231.532 352.116C233.816 353.907 236.082 355.72 238.402 357.471C252.727 368.279 268.065 377.588 284.786 384.851C290.937 387.522 297.21 389.892 303.649 391.819C308.191 393.177 312.753 394.487 317.438 395.353C321.562 396.115 325.686 396.867 329.848 397.327C335.111 397.906 340.386 398.17 345.661 398.239C358.77 398.413 371.672 397.217 384.386 394.81C384.97 394.699 385.541 394.547 386.313 394.369C385.71 393.775 385.261 393.304 384.781 392.864C378.439 387.06 372.12 381.234 365.738 375.465C353.77 364.646 342.198 353.495 331.314 341.754C325.228 335.189 319.055 328.688 312.916 322.161C312.387 321.598 311.826 321.059 311.174 320.401L311.173 320.399Z" fill="#CC7722" fill-opacity="0.4"/>
</g>
<defs>
<clipPath id="clip0_149_64">
<rect width="590.949" height="422.429" fill="white" transform="translate(97.1543) rotate(13.2965)"/>
</clipPath>
</defs>
</svg>
