<svg width="367" height="419" viewBox="0 0 367 419" fill="none" xmlns="http://www.w3.org/2000/svg">
<path d="M147.091 213.158V220.553H139.706V235.256H132.464V264.454C133.471 264.742 145.216 264.811 147.019 264.504V257.388H161.617C161.915 254.886 161.564 252.495 161.855 249.989H169.035V242.689H176.376V235.299H183.709V176.493H191.095V154.448H198.383V147.091H205.774V139.745H213.064V132.388H220.377V117.63C218.024 117.498 215.699 117.636 213.205 117.541V88.3296C210.666 88.1885 208.311 88.2576 205.793 88.2767V95.5658H198.491C198.36 98.0431 198.491 100.375 198.4 102.909H191.115V110.262H176.517C176.28 112.735 176.517 115.072 176.355 117.602H169.098V124.958H154.443C154.321 127.436 154.444 129.766 154.359 132.281C151.964 132.47 149.587 132.263 147.104 132.407C146.792 134.792 147.161 137.136 146.867 139.584H139.927C139.52 140.899 139.761 142.122 139.716 143.319C139.674 144.489 139.708 145.661 139.708 147.034H146.957V154.374H139.775V161.628C137.278 161.974 134.889 161.572 132.385 161.896V169.017H125.081V161.847C122.603 161.655 120.27 161.847 117.967 161.724C117.632 160.653 117.573 156.193 117.886 154.439H124.983V139.78H132.297C132.495 134.817 132.276 129.997 132.429 125.034H139.664V117.682H154.393V110.343H161.68V102.992H169.065V95.6496H183.747V88.2473H191.077V80.9464H198.373V73.5926H205.762V58.8952H213.105V51.4958H220.447V22.1467H227.74V14.7885H235.123V7.44203H242.43C242.464 4.8604 242.495 2.4302 242.526 0H271.887V7.32735H279.067C279.268 9.04893 279.148 10.6485 279.17 12.2377C279.192 13.8549 279.176 15.4721 279.176 17.0893V22.0585H293.817V29.4388H301.129V36.697C301.68 36.7412 302.098 36.8029 302.516 36.8029C305.452 36.8117 308.389 36.7838 311.324 36.8147C314.746 36.8499 318.167 36.9264 321.587 37.0014C322.896 37.0293 323.005 37.1381 323.028 38.4421C323.053 39.7653 323.025 41.0885 323.04 42.4116C323.046 42.9409 323.106 43.4687 323.152 44.1464H330.514V51.4341H337.821C338.002 53.9304 337.81 56.3107 337.946 58.8129H352.543C352.623 63.7674 352.534 68.5852 352.598 73.5382H359.845V95.5746H367V102.933H359.967V110.284H352.571V124.985H345.286V139.687H337.9V147.043H330.613V154.383H323.212V161.658H315.906V154.523H308.562C308.49 164.219 308.6 173.894 308.527 183.754C310.953 183.931 313.33 183.735 315.779 183.876V205.753H301.24C301.147 200.997 301.248 196.218 301.181 191.29C299.526 191.046 297.926 191.201 296.337 191.173C294.722 191.145 293.107 191.164 291.493 191.164H286.609V183.867H293.848V176.468H301.112V154.463H293.918V139.947C292.637 139.498 291.462 139.745 290.314 139.702C289.145 139.659 287.971 139.693 286.587 139.693C286.457 134.815 286.603 129.999 286.474 125.088H271.875V191.14H264.489V198.499H257.206V205.841H249.816V220.547H242.531V227.807C240.026 228.092 237.642 227.752 235.141 228.039V235.237H227.862V249.859C225.365 250.139 222.983 249.833 220.478 250.064V257.282H213.167C213.042 259.759 213.167 262.09 213.082 264.623C210.618 264.733 208.195 264.661 205.777 264.674C203.391 264.687 201.006 264.677 198.463 264.677V271.975H191.131V279.374H169.109V286.671H139.822C139.548 289.173 139.838 291.555 139.627 294.064H132.47V301.405H139.624V389.538H132.4C132.339 384.767 132.407 379.989 132.36 375.001C129.931 374.848 127.557 375.008 125.025 374.899V360.436C122.488 360.152 120.105 360.35 117.735 360.287C115.348 360.224 112.959 360.274 110.395 360.274V345.64C107.912 345.424 105.577 345.635 103.104 345.494C102.869 343.108 103.148 340.723 102.922 338.206H95.7654V323.546H102.959V308.935C105.454 308.669 107.793 308.963 110.089 308.752C110.423 307.659 110.47 303.135 110.158 301.529H95.714V308.763H80.9804V316.116H66.3556V323.387C64.616 323.561 63.016 323.456 61.4248 323.475C59.8101 323.494 58.1954 323.481 56.5807 323.481H51.6264V330.817H44.3374V338.167H36.9795V352.789C34.5214 352.998 32.1442 352.767 29.642 352.939V374.921H22.2576V382.272H14.9731V404.316H7.58572V419H0V374.895H7.51226C7.66799 373.423 7.56662 371.969 7.58425 370.524C7.60188 369.054 7.58866 367.584 7.58866 366.113V361.85C7.58866 360.38 7.59012 358.91 7.59012 357.439V352.914H14.8776V338.209H22.265V323.515H29.5554V316.21C32.0237 316.047 34.3583 316.208 36.8898 316.098C37.0441 311.241 36.8663 306.421 36.9927 301.461H44.2346V294.11H51.622V286.765H66.2512V279.408H73.5637V250.008H66.3482V242.664C61.4204 242.557 56.6482 242.667 51.7395 242.597C51.4589 240.188 51.8071 237.799 51.5103 235.285H36.975V227.94C32.0428 227.879 27.2721 227.946 22.5309 227.901C22.2091 226.736 22.1606 214.812 22.4795 213.224H29.573V205.976H66.2674V213.196H80.9261V220.432C81.4286 220.49 81.7988 220.557 82.1691 220.569C86.1184 220.685 90.0677 220.787 94.0156 220.901C95.216 220.936 95.3159 221.035 95.335 222.295C95.3555 223.618 95.3232 224.941 95.3497 226.263C95.3599 226.78 95.4672 227.298 95.5451 227.933H110.302V235.165H117.678V227.965H125.017V220.565H132.348V213.252C137.379 213.231 142.254 213.211 147.129 213.19L147.091 213.152V213.158Z" fill="#1B7862"/>
</svg>
