<svg width="531" height="742" viewBox="0 0 531 742" fill="none" xmlns="http://www.w3.org/2000/svg">
<path opacity="0.56" d="M-23.1275 599.694V654.501L-7.87653 696.261L12.4651 718.272L48.0369 742H99.174L142.937 725.057L175.136 703.026L188.983 670.858L159.885 631.883L139.585 599.694L115.829 584.448L125.989 569.202H145.576H172.517L198.871 584.448L272.822 569.202L322.241 559.338L412.386 528.552L453.048 498.059L507.286 448.928H439.012L485.247 421.828L507.286 365.66L531 318.476L486.944 338.811L437.797 369.304L415.779 376.089L462.957 318.476L508.982 242.244L449.654 264.276L393.741 298.161L280.196 384.55L222.586 433.682L292.074 343.9L337.827 276.13L363.239 199.898L380.187 98.2632L339.524 123.667L286.984 164.316L285.287 128.756L263.269 135.52L253.947 139.667L236.14 62.6815L214.122 76.2314L192.084 111.813L180.226 121.97L159.885 37.278L141.24 28.7962L115.829 60.9852L78.539 115.206L17.5349 0L-1.08896 37.278L-9.57339 59.2888L-23.1275 55.8542L-45.1661 108.42V141.154L-60.4171 132.128L-75.6682 120.274L-148.53 32.1889L-173.941 83.0169V130.682L-180.728 144.002L-187.495 130.452V151.646L-195.979 174.495V193.552V217.49L-307.827 111.813L-336.632 96.5668L-324.754 152.463L-306.13 215.144L-285.789 271.04H-306.13L-290.879 304.926L-267.605 371L-252.752 406.896L-145.136 498.059L-305.041 461.598L-367.135 450.624L-431.511 438.771L-501 415.043V429.996L-472.195 452.321L-438.299 479.42L-399.333 499.756L-367.135 537.013L-324.503 559.338L-268.841 567.505L-224.785 575.987L-151.923 597.998L-85.8286 603.087L-23.1275 599.694Z" fill="#90A91E"/>
</svg>
