<svg width="193" height="299" viewBox="0 0 193 299" fill="none" xmlns="http://www.w3.org/2000/svg">
<g clip-path="url(#clip0_147_4)">
<path d="M76.1864 296.311C76.0164 297.245 76.1938 298.056 76.0386 298.895C75.8556 298.928 75.6671 298.98 75.475 298.993C75.207 299.009 74.9391 298.998 74.6693 298.998C64.7371 298.998 54.8068 298.998 44.8747 298.998C44.4737 298.998 44.0745 298.998 43.7475 298.998C43.4241 298.734 43.5091 298.448 43.4962 298.191C43.4647 297.597 43.5479 296.995 43.4315 296.38C42.9954 296.248 42.5944 296.291 42.199 296.291C37.6015 296.287 33.0059 296.291 28.4085 296.287C28.0463 296.287 27.6842 296.263 27.285 296.248C27.0651 295.371 27.2906 294.524 27.1058 293.639C26.8582 293.615 26.6013 293.569 26.3445 293.567C24.2971 293.561 22.2515 293.563 20.2041 293.563C19.8733 293.563 19.5407 293.563 19.1748 293.563C18.9087 292.697 19.1674 291.848 18.9919 291.022C18.7073 290.767 18.3562 290.858 18.0366 290.856C16.0242 290.849 14.0101 290.854 11.9978 290.849C11.6689 290.849 11.34 290.819 10.9741 290.801C10.756 289.932 10.9815 289.084 10.8059 288.235C9.99843 287.975 9.14842 288.247 8.28363 288.054C8.02493 287.262 8.30026 286.411 8.10623 285.556C7.71818 285.329 7.2747 285.449 6.85339 285.423C6.42469 285.397 5.9886 285.476 5.52664 285.327C5.32707 284.491 5.54881 283.645 5.36957 282.795C4.55837 282.544 3.71021 282.804 2.91009 282.636C2.66618 282.361 2.75303 282.047 2.75118 281.756C2.74379 279.744 2.74748 277.73 2.74563 275.717C2.74563 275.386 2.72716 275.055 2.71422 274.695C2.28552 274.455 1.84389 274.569 1.42258 274.544C0.993877 274.518 0.555938 274.595 0.0754979 274.446C-0.0575469 273.777 0.0219104 273.11 0.00897551 272.45C-0.00580725 271.779 0.00527982 271.108 0.00527982 270.437C0.00527982 269.8 0.00158413 269.162 0.00527982 268.525C0.00897551 267.859 0.0200626 267.194 0.027454 266.484C0.923659 266.252 1.80508 266.497 2.69944 266.3C2.78444 265.572 2.73639 264.871 2.74379 264.176C2.75118 263.472 2.74379 262.766 2.74379 262.062V259.848C2.74379 259.144 2.74009 258.438 2.74379 257.734C2.74748 257.036 2.75672 256.339 2.76596 255.581C3.64369 255.428 4.48261 255.587 5.36033 255.457C5.38805 255.204 5.43425 254.982 5.43425 254.759C5.44164 253.517 5.43425 252.275 5.44164 251.035C5.44349 250.741 5.36773 250.429 5.60055 250.13C6.39328 249.974 7.23774 250.178 8.11917 250C8.25776 249.165 8.10623 248.324 8.22819 247.467C9.07081 247.239 9.91897 247.476 10.7653 247.291C11.0351 246.448 10.7172 245.556 10.9963 244.66C11.837 244.645 12.663 244.632 13.5001 244.617C13.7052 244.14 13.6091 243.702 13.6294 243.277C13.6479 242.882 13.6535 242.486 13.6645 242.033C13.9454 242.002 14.169 241.956 14.3926 241.954C15.566 241.939 16.7412 241.939 17.9146 241.928C18.2454 241.924 18.5743 241.9 18.9568 241.886C19.1674 241.028 18.9549 240.185 19.0972 239.382C19.319 239.141 19.6017 239.208 19.8604 239.208C21.9078 239.202 23.9534 239.204 26.0008 239.204C26.3334 239.204 26.666 239.204 26.9265 239.204C27.2536 238.945 27.1668 238.659 27.1778 238.402C27.2019 237.805 27.1464 237.205 27.2203 236.658C27.6453 236.414 28.0223 236.497 28.3845 236.497C32.1079 236.489 35.8331 236.493 39.5566 236.491C39.9206 236.491 40.2846 236.469 40.6967 236.456C40.911 235.591 40.6967 234.747 40.8408 233.937C41.4617 233.725 42.2378 233.697 43.4296 233.847C43.7475 234.604 43.4278 235.44 43.6532 236.205C43.8694 236.441 44.1484 236.399 44.4108 236.403C46.7909 236.436 49.1727 236.482 51.5528 236.489C55.679 236.504 59.8071 236.493 63.9333 236.495C64.3288 236.495 64.7298 236.454 65.1603 236.576C65.3488 237.41 65.1437 238.258 65.3063 239.084C65.6943 239.25 66.0657 239.188 66.4242 239.188C70.1476 239.197 73.8729 239.197 77.5963 239.202C77.9603 239.202 78.3243 239.213 78.7216 239.219C78.9877 240.08 78.7253 240.928 78.8972 241.74C79.1041 241.989 79.3887 241.921 79.6437 241.923C80.9187 241.932 82.1937 241.926 83.4687 241.926C86.052 241.926 88.6353 241.926 91.2186 241.928C91.5789 241.928 91.9485 241.887 92.3421 242.022C92.5066 242.86 92.307 243.706 92.4567 244.454C92.5454 244.534 92.5675 244.562 92.5953 244.576C92.6248 244.593 92.6581 244.604 92.6913 244.606C92.9925 244.619 93.2937 244.637 93.5949 244.635C96.7141 244.632 99.8351 244.624 102.954 244.615C103.015 244.615 103.074 244.571 103.206 244.519C103.226 244.403 103.276 244.246 103.276 244.088C103.279 240.834 103.279 237.578 103.276 234.324C103.276 234.191 103.246 234.059 103.222 233.876C103.037 233.839 102.851 233.775 102.662 233.771C102.027 233.758 101.393 233.765 100.798 233.765C100.486 233.429 100.591 233.078 100.591 232.756C100.583 229.87 100.587 226.985 100.583 224.099C100.583 223.736 100.559 223.374 100.547 222.971C99.6688 222.788 98.8262 222.979 98.0094 222.836C97.7415 222.5 97.8524 222.118 97.8505 221.761C97.8413 218.909 97.8468 216.056 97.8413 213.205C97.8413 212.844 97.8986 212.473 97.7341 212.074C96.9137 211.926 96.0729 212.107 95.1989 211.953C95.1065 211.22 95.1582 210.521 95.1508 209.825C95.1416 209.12 95.149 208.415 95.149 207.71V205.497C95.149 204.792 95.1508 204.087 95.149 203.382C95.1453 202.684 95.136 201.985 95.1286 201.237C94.2565 201.026 93.412 201.233 92.5472 201.087C92.5066 200.939 92.4271 200.788 92.4252 200.636C92.4142 198.287 92.4123 195.939 92.416 193.59C92.416 193.429 92.4715 193.268 92.5029 193.102C93.3455 192.869 94.1992 193.12 95.0566 192.919C95.2081 192.561 95.1471 192.191 95.1471 191.834C95.1527 187.473 95.1508 183.11 95.1508 178.749C95.1508 177.54 95.1508 176.333 95.1508 175.125V174.086C94.238 173.892 93.388 173.953 92.5029 174.029C92.3125 174.923 92.4345 175.794 92.4123 176.657C92.3883 177.523 92.4012 178.392 92.3975 179.283C91.5272 179.547 90.6772 179.292 89.8826 179.456C89.6332 179.734 89.72 180.05 89.7182 180.34C89.7108 182.352 89.7145 184.366 89.7145 186.379C89.7145 186.712 89.7145 187.046 89.7145 187.401C88.8441 187.763 87.9461 187.401 87.0739 187.663C87.0406 187.854 86.9797 188.044 86.9778 188.234C86.9723 192.328 86.9741 196.421 86.9778 200.516C86.9778 200.679 87.0092 200.841 87.0295 201.054C87.8925 201.279 88.7739 201.034 89.6664 201.231C89.7551 201.996 89.7015 202.73 89.7108 203.458C89.72 204.196 89.7126 204.935 89.7126 205.672V210.202C89.7126 210.939 89.7126 211.678 89.7126 212.415C89.7126 213.149 89.72 213.883 89.7237 214.618C90.6033 214.892 91.457 214.628 92.2793 214.818C92.4844 215.176 92.4012 215.555 92.4012 215.912C92.4086 220.408 92.4049 224.904 92.4049 229.4C92.4049 231.38 92.4049 233.361 92.4049 235.34C92.4049 235.671 92.3864 236.003 92.3735 236.369C92.1758 236.414 92.0206 236.478 91.8635 236.48C89.5149 236.486 87.1663 236.486 84.8177 236.482C84.6865 236.482 84.5571 236.447 84.3742 236.423C84.1506 235.601 84.3853 234.756 84.2264 233.937C83.9473 233.666 83.5944 233.773 83.2729 233.773C80.3865 233.766 77.5021 233.769 74.6157 233.765C74.2535 233.765 73.8914 233.743 73.4848 233.729C73.313 232.862 73.4848 232.021 73.3703 231.254C73.0543 230.982 72.7383 231.062 72.4482 231.06C70.7704 231.051 69.0925 231.054 67.4147 231.054C64.362 231.054 61.3075 231.054 58.2549 231.051C57.8927 231.051 57.5176 231.112 57.1148 230.91V228.475C56.8764 228.419 56.6935 228.358 56.505 228.338C56.3054 228.316 56.1022 228.331 55.9007 228.331C49.4592 228.331 43.0176 228.331 36.5741 228.331C36.212 228.331 35.8479 228.351 35.4433 228.364C35.2418 229.229 35.4469 230.075 35.3028 230.886C34.9628 231.147 34.5803 231.047 34.2237 231.047C31.3725 231.056 28.5194 231.034 25.6682 231.062C24.5336 231.073 23.399 231.182 22.2663 231.252C22.2071 231.256 22.1499 231.311 22.0316 231.374C21.7507 232.08 22.1166 232.932 21.784 233.651C20.897 233.808 19.9731 233.804 19.0972 233.642C19.0806 233.398 19.0492 233.139 19.0492 232.88C19.0436 231.638 19.0381 230.397 19.0529 229.157C19.0566 228.793 19.1416 228.428 19.1711 228.063C19.2136 227.528 19.2358 226.993 19.2765 226.46C19.3171 225.958 19.452 225.826 19.9694 225.802C20.4997 225.777 21.0301 225.767 21.5918 225.749C21.6491 225.503 21.7175 225.316 21.7322 225.124C21.7544 224.823 21.7415 224.52 21.7415 224.219C21.7415 217.876 21.7415 211.534 21.7452 205.193C21.7452 204.798 21.6916 204.391 21.8283 203.994C22.6857 203.7 23.5875 204.064 24.4726 203.732V195.848C24.7091 195.798 24.8939 195.728 25.0824 195.722C25.7162 195.708 26.3519 195.717 26.9321 195.717C27.261 195.43 27.1705 195.109 27.1723 194.822C27.1797 192.775 27.1723 190.729 27.1797 188.682C27.1797 188.353 27.1076 188.011 27.3053 187.667C28.1221 187.418 29.0164 187.715 29.9071 187.458V179.539C30.1436 179.488 30.3284 179.417 30.5169 179.414C31.1507 179.399 31.7864 179.408 32.4812 179.408C32.5292 179.15 32.6031 178.931 32.605 178.713C32.6161 177.505 32.6087 176.298 32.6142 175.089C32.6142 174.761 32.6419 174.432 32.6586 174.071C33.5233 173.846 34.3697 174.071 35.179 173.92C35.4377 173.663 35.3472 173.345 35.3472 173.055C35.3564 171.007 35.3509 168.961 35.3546 166.914C35.3546 166.587 35.3823 166.26 35.3971 165.922C36.2766 165.691 37.1303 165.964 38.0062 165.711C38.0894 164.846 38.021 163.977 38.0487 163.113C38.0764 162.248 37.9619 161.377 38.13 160.501C38.993 160.237 39.8873 160.535 40.7872 160.276V155.122C41.2455 154.861 41.6871 154.987 42.1084 154.954C42.5353 154.92 42.9788 155.04 43.4075 154.826C43.6052 154.009 43.3576 153.157 43.5682 152.3C44.4108 152.132 45.2535 152.318 46.1275 152.165C46.1589 151.941 46.218 151.72 46.2199 151.496C46.2291 150.254 46.2199 149.012 46.2273 147.772C46.2273 147.48 46.2624 147.186 46.2827 146.856C47.153 146.7 47.9938 146.883 48.8383 146.73C49.0268 145.872 48.8216 145.024 48.9824 144.206C49.862 143.908 50.7619 144.261 51.6027 143.958C51.756 143.121 51.562 142.276 51.7357 141.415C52.5617 141.273 53.3692 141.421 54.2248 141.308C54.2654 141.095 54.3375 140.877 54.3412 140.659C54.3559 139.451 54.3504 138.244 54.3596 137.035C54.3615 136.706 54.3892 136.377 54.4058 136.013C55.2743 135.81 56.1188 136.017 56.9263 135.873C57.1832 135.609 57.0778 135.291 57.0963 135.001C57.1351 134.441 57.0298 133.87 57.1795 133.297C58.0276 133.084 58.8813 133.347 59.7036 133.112C59.929 132.282 59.6667 131.43 59.8792 130.571C60.7088 130.371 61.5533 130.584 62.3516 130.44C62.6029 130.212 62.5216 129.928 62.5308 129.669C62.553 129.074 62.4994 128.474 62.5789 127.871C63.4603 127.646 64.314 127.912 65.1381 127.677C65.3617 126.849 65.1049 125.995 65.3137 125.132C66.1415 124.936 66.9841 125.143 67.7861 125.003C68.0337 124.779 67.9542 124.497 67.9672 124.238C67.9949 123.643 67.9173 123.042 68.0282 122.434C68.8929 122.209 69.7467 122.479 70.5726 122.244C70.7925 121.416 70.5468 120.564 70.7463 119.699C71.5742 119.498 72.4186 119.708 73.2206 119.566C73.4664 119.344 73.3924 119.062 73.4017 118.803C73.422 118.208 73.3703 117.607 73.4497 116.992C74.3275 116.798 75.1756 116.997 76.033 116.835C76.1661 115.929 76.07 115.061 76.1014 114.196C76.1328 113.331 76.0182 112.461 76.179 111.583C77.0382 111.293 77.9381 111.64 78.7808 111.342C78.9378 110.507 78.742 109.663 78.9157 108.801C79.7675 108.652 80.6101 108.833 81.4472 108.681C81.6652 107.826 81.4102 106.974 81.6209 106.15C82.4783 105.856 83.3782 106.214 84.2171 105.906C84.3686 105.069 84.1765 104.224 84.3502 103.365C85.2131 103.228 86.0539 103.376 86.9076 103.257C87.3455 102.518 86.9593 101.672 87.2217 100.859C88.0181 100.515 88.9051 100.801 89.7551 100.644C90.5645 100.495 91.4126 100.552 92.27 100.517C92.5269 99.6668 92.27 98.8149 92.4641 97.9611C92.8946 97.8022 93.3307 97.8872 93.7557 97.8668C94.1825 97.8465 94.6186 97.9167 95.0806 97.7855C95.1915 97.3346 95.1342 96.9003 95.149 96.4716C95.1619 96.0761 95.1693 95.6806 95.1804 95.2556C96.0544 95.0302 96.9063 95.2722 97.7433 95.0763C97.9854 94.2207 97.7193 93.3337 97.9207 92.4873C98.7911 92.2803 99.6392 92.5224 100.513 92.3117C100.585 91.4894 100.572 90.7021 100.522 89.8761C99.6633 89.6173 98.8077 89.889 97.9595 89.6654C97.6879 88.8264 97.9854 87.9375 97.7544 87.056C96.9248 86.8934 96.0803 87.0856 95.3227 86.9451C95.2469 86.8638 95.2173 86.8435 95.2026 86.8139C95.1878 86.7862 95.1822 86.7492 95.1804 86.716C95.1693 86.448 95.1508 86.1801 95.1508 85.9121C95.1564 77.3226 95.1619 68.733 95.1711 60.1435C95.1711 60.0807 95.2099 60.0197 95.2524 59.8959C96.0304 59.6833 96.8767 59.9125 97.6694 59.7628C97.9226 59.4801 97.8394 59.164 97.8413 58.8739C97.8487 56.8614 97.8431 54.8471 97.8468 52.8346C97.8468 52.5038 97.869 52.173 97.8819 51.8293C98.3143 51.5613 98.7578 51.6889 99.1791 51.663C99.6097 51.6371 100.046 51.7018 100.521 51.5743C100.545 51.2934 100.583 51.0365 100.583 50.7778C100.589 48.7302 100.583 46.6845 100.587 44.6369C100.587 44.3061 100.606 43.9753 100.617 43.6038C101.465 43.3691 102.311 43.602 103.18 43.4375C103.372 42.6115 103.265 41.7891 103.246 40.9926C102.976 40.7062 102.659 40.8023 102.368 40.7875C101.805 40.7616 101.236 40.8244 100.687 40.7265C100.646 40.5694 100.598 40.4752 100.598 40.3809C100.595 27.0605 100.595 13.7382 100.598 0.41778C100.598 0.323532 100.646 0.231132 100.685 0.0814431C101.232 -0.0516133 101.801 0.029699 102.361 0.0149149C102.965 0.000130881 103.57 0.00937091 104.172 0.00937091C104.737 0.00937091 105.303 0.0149149 105.9 0.0186109C106.153 0.892718 105.905 1.74095 106.083 2.61876C106.286 2.65572 106.504 2.72409 106.722 2.72779C107.931 2.73888 109.137 2.73148 110.346 2.73703C110.675 2.73703 111.002 2.76475 111.362 2.78138C111.558 3.65918 111.355 4.50372 111.523 5.38522C112.352 5.52567 113.191 5.37228 114.032 5.4924C114.289 6.34064 114.032 7.19072 114.217 8.05929C114.433 8.09625 114.657 8.16277 114.878 8.16462C116.019 8.17571 117.16 8.17201 118.301 8.17201C118.668 8.17201 119.036 8.17201 119.337 8.17201C119.635 8.43997 119.566 8.72087 119.577 8.98144C119.605 9.5765 119.52 10.1789 119.646 10.8017C120.246 10.9477 120.816 10.8664 121.375 10.8812C121.98 10.896 122.584 10.8812 123.186 10.8867C123.75 10.8923 124.317 10.8535 124.92 10.9292C125.127 11.7849 124.92 12.6313 125.069 13.4721C125.91 13.7992 126.81 13.4444 127.677 13.7179C127.839 14.5864 127.73 15.4569 127.752 16.3199C127.775 17.1866 127.767 18.0533 127.775 18.957C128.671 19.0919 129.493 19.0752 130.35 18.9792C130.583 18.1402 130.341 17.2919 130.526 16.4123C130.714 16.3827 130.901 16.3402 131.09 16.3254C131.289 16.3106 131.492 16.3199 131.694 16.3199C139.915 16.3199 148.134 16.3199 156.355 16.3199C156.721 16.3199 157.085 16.3199 157.379 16.3199C157.699 16.5878 157.612 16.8743 157.625 17.1293C157.656 17.7244 157.573 18.325 157.68 18.8941C158.543 19.1011 159.55 19.0956 160.367 18.8775V13.7345C160.646 13.6865 160.864 13.6162 161.082 13.6144C162.29 13.6033 163.497 13.6107 164.706 13.6052C165.034 13.6052 165.363 13.5756 165.726 13.559C165.903 12.6811 165.714 11.8385 165.87 10.9644C166.688 10.7703 167.533 10.9699 168.383 10.8294C168.575 10.4026 168.479 9.96458 168.497 9.54139C168.516 9.14406 168.518 8.7449 168.529 8.29213C168.795 8.24593 169.013 8.17756 169.233 8.17571C170.441 8.16277 171.648 8.17017 172.856 8.16093C173.185 8.15908 173.527 8.22006 173.854 8.03896C174.054 7.22214 173.802 6.36836 174.019 5.51828C174.898 5.34087 175.774 5.53491 176.698 5.37968C176.763 5.13944 176.846 4.89365 176.888 4.64047C176.922 4.44459 176.903 4.23946 176.909 4.03802C176.936 2.94216 176.957 2.92368 178.056 2.91074C178.557 2.9052 179.05 2.88487 179.551 2.78138C180.035 2.68159 180.553 2.74812 181.055 2.73148C181.384 2.7204 181.728 2.79247 182.053 2.59104C182.201 1.77606 182.025 0.933374 182.157 0.155363C182.284 0.0906832 182.341 0.037091 182.399 0.037091C183.942 0.026003 185.485 0.0167629 187.028 0.0149149C187.155 0.0149149 187.284 0.0518751 187.465 0.0814431C187.493 0.286572 187.532 0.476916 187.539 0.669109C187.552 0.970334 187.543 1.27341 187.543 1.57463C187.543 16.8761 187.543 32.1776 187.543 47.4773V48.8004C188.406 49.0906 189.258 48.8078 190.104 49.0037C190.32 49.3216 190.232 49.7004 190.232 50.0534C190.241 52.9049 190.234 55.7582 190.241 58.6096C190.241 58.9719 190.178 59.3451 190.346 59.7369C191.167 59.9051 192.011 59.7148 192.88 59.87C192.913 60.064 192.957 60.2525 192.974 60.4429C192.991 60.6425 192.979 60.8457 192.979 61.0472C192.979 69.2689 192.979 77.4889 192.979 85.7107V86.8675C192.713 86.9119 192.495 86.9747 192.275 86.9821C191.643 87.0043 191.01 86.9691 190.335 87.0135C190.298 87.2925 190.243 87.518 190.241 87.7435C190.232 88.9169 190.237 90.0923 190.237 91.2676C190.237 91.6003 190.237 91.9329 190.237 92.3191C189.956 92.3598 189.735 92.4171 189.511 92.4189C188.338 92.4282 187.162 92.4245 185.987 92.4245C185.655 92.4245 185.32 92.4245 184.928 92.4245C184.88 92.6887 184.821 92.9049 184.805 93.1249C184.758 93.755 184.875 94.3963 184.718 95.0431C183.899 95.2963 183.044 95.0172 182.179 95.2464C182.009 96.0595 182.199 96.9022 182.048 97.7634C181.194 97.9925 180.312 97.7412 179.451 97.9297C179.241 98.789 179.488 99.6409 179.285 100.471C178.72 100.674 178.147 100.559 177.585 100.578C176.983 100.598 176.377 100.57 175.774 100.585C175.209 100.6 174.636 100.509 174.048 100.672C173.769 101.482 174.059 102.337 173.858 103.187C173.056 103.442 172.206 103.174 171.336 103.365C171.304 103.544 171.252 103.731 171.243 103.921C171.227 104.222 171.238 104.525 171.238 104.826C171.238 112.913 171.238 121 171.238 129.087C171.238 129.488 171.238 129.889 171.238 130.336C171.014 130.388 170.831 130.462 170.645 130.468C169.977 130.486 169.31 130.482 168.68 130.488C168.405 130.885 168.501 131.266 168.501 131.624C168.494 136.289 168.497 140.953 168.495 145.617C168.495 145.983 168.479 146.347 168.47 146.726C167.699 147.177 166.836 146.767 166.123 147.066C165.855 147.34 165.914 147.656 165.908 147.951C165.87 150.062 165.836 152.174 165.799 154.285C165.796 154.451 165.774 154.615 165.759 154.806C164.918 155.138 164.018 154.774 163.168 155.05C162.969 155.61 163.085 156.183 163.067 156.744C163.046 157.347 163.067 157.953 163.059 158.555C163.054 159.121 163.089 159.69 163.02 160.259C162.159 160.522 161.304 160.246 160.444 160.47C160.419 160.697 160.371 160.923 160.371 161.148C160.363 162.322 160.367 163.497 160.367 164.672C160.367 165.005 160.367 165.338 160.367 165.668C159.471 166.001 158.569 165.639 157.756 165.918C157.56 166.262 157.632 166.603 157.63 166.932C157.623 168.912 157.628 170.893 157.623 172.872C157.623 173.199 157.593 173.526 157.575 173.896C156.703 174.056 155.86 173.873 154.991 174.027C154.834 175.792 155.019 177.529 154.882 179.31C154.016 179.519 153.136 179.284 152.24 179.477C152.14 180.378 152.212 181.245 152.19 182.11C152.168 182.975 152.246 183.843 152.133 184.762C151.286 184.93 150.444 184.749 149.574 184.895C149.546 185.109 149.514 185.3 149.5 185.49C149.487 185.656 149.496 185.825 149.496 185.993C149.496 195.187 149.496 204.38 149.496 213.574V214.589C150.359 214.908 151.213 214.607 152.033 214.803C152.299 215.117 152.185 215.504 152.185 215.858C152.194 219.617 152.188 223.374 152.194 227.133C152.194 227.493 152.127 227.869 152.307 228.253C153.127 228.425 153.97 228.225 154.764 228.375C155.015 228.663 154.927 228.977 154.927 229.269C154.934 231.282 154.93 233.296 154.93 235.309V236.358C155.204 236.406 155.422 236.471 155.642 236.477C156.244 236.491 156.847 236.482 157.386 236.482C157.706 236.785 157.621 237.103 157.621 237.393C157.628 239.441 157.621 241.486 157.626 243.534C157.626 243.863 157.656 244.19 157.673 244.552C158.554 244.73 159.397 244.541 160.271 244.696C160.302 244.922 160.359 245.146 160.361 245.367C160.371 246.541 160.367 247.716 160.367 248.891C160.367 249.226 160.367 249.56 160.367 249.939C160.592 249.987 160.777 250.059 160.964 250.063C161.597 250.078 162.233 250.069 162.928 250.069C162.976 250.327 163.05 250.544 163.054 250.762C163.065 251.97 163.057 253.177 163.063 254.386C163.063 254.715 163.091 255.045 163.107 255.411C163.972 255.624 164.816 255.411 165.696 255.565C165.729 255.775 165.788 255.995 165.796 256.217C165.818 256.849 165.779 257.483 165.831 258.143C166.755 258.314 167.627 258.205 168.492 258.228C169.36 258.252 170.231 258.204 171.11 258.257C171.389 259.124 171.118 259.976 171.306 260.837C172.106 261.088 172.956 260.824 173.828 261.013C174.083 261.829 173.793 262.718 174.015 263.572C174.468 263.722 174.906 263.651 175.334 263.666C175.733 263.679 176.131 263.681 176.576 263.688C176.613 263.975 176.667 264.2 176.669 264.424C176.678 265.597 176.674 266.773 176.674 267.948C176.674 268.281 176.674 268.613 176.674 268.955C177.543 269.268 178.398 268.964 179.231 269.175C179.474 269.567 179.35 270.012 179.361 270.435C179.372 270.861 179.42 271.297 179.278 271.751C178.454 271.899 177.646 271.735 176.787 271.862C176.75 272.069 176.693 272.287 176.678 272.507C176.637 273.137 176.733 273.775 176.608 274.451C175.732 274.629 174.861 274.514 173.998 274.534C173.13 274.555 172.26 274.538 171.374 274.538C171.084 275.414 171.356 276.264 171.188 277.077C170.898 277.349 170.545 277.244 170.225 277.244C167.305 277.251 164.388 277.249 161.468 277.249C160.494 277.249 159.522 277.253 158.549 277.247C158.286 277.247 158.024 277.216 157.734 277.199C157.499 276.353 157.734 275.505 157.562 274.63C156.741 274.42 155.895 274.636 155.03 274.475C154.805 273.647 155.039 272.803 154.868 271.923C154.668 271.89 154.452 271.833 154.23 271.818C153.598 271.777 152.961 271.877 152.345 271.755C152.112 271.43 152.197 271.084 152.196 270.757C152.188 268.778 152.194 266.797 152.19 264.818C152.19 264.487 152.168 264.156 152.155 263.788C151.292 263.489 150.394 263.842 149.5 263.526V258.381C148.616 258.048 147.722 258.372 146.829 258.135C146.805 257.828 146.765 257.538 146.763 257.246C146.756 255.234 146.757 253.219 146.756 251.207C146.756 250.876 146.743 250.545 146.735 250.191C145.872 249.924 145.024 250.183 144.226 250.015C143.982 249.74 144.069 249.424 144.067 249.135C144.06 247.123 144.063 245.109 144.061 243.096C144.061 242.765 144.043 242.434 144.03 242.043C143.173 241.764 142.284 242.057 141.395 241.83C141.369 241.586 141.327 241.363 141.325 241.137C141.317 239.964 141.325 238.788 141.319 237.613C141.319 237.284 141.293 236.955 141.277 236.571C140.425 236.375 139.579 236.582 138.705 236.408C138.679 236.138 138.632 235.883 138.631 235.63C138.623 233.583 138.625 231.537 138.623 229.489C138.623 229.157 138.623 228.826 138.623 228.44C138.346 228.395 138.126 228.343 137.904 228.329C137.274 228.29 136.639 228.386 135.981 228.258C135.787 227.371 135.912 226.501 135.89 225.638C135.866 224.769 135.879 223.901 135.875 223.014C135.007 222.735 134.155 223.005 133.274 222.811C133.246 222.565 133.196 222.312 133.194 222.057C133.187 220.009 133.191 217.963 133.191 215.916C133.191 215.585 133.191 215.254 133.191 214.914C132.734 214.644 132.291 214.764 131.871 214.738C131.442 214.713 131.005 214.788 130.524 214.644C130.498 214.406 130.456 214.182 130.454 213.959C130.447 212.785 130.454 211.61 130.448 210.434C130.448 210.105 130.422 209.777 130.406 209.385C129.556 209.194 128.71 209.396 127.834 209.228C127.806 208.96 127.758 208.705 127.758 208.452C127.752 206.404 127.754 204.358 127.754 202.311C127.754 201.978 127.754 201.645 127.754 201.257C127.483 201.213 127.265 201.157 127.043 201.144C126.413 201.104 125.775 201.204 125.112 201.072C124.909 200.196 125.042 199.326 125.018 198.465C124.994 197.596 125.012 196.726 125.012 195.841C124.14 195.549 123.288 195.822 122.427 195.643C122.17 194.843 122.421 193.995 122.27 193.154C121.873 192.882 121.425 193.002 121.008 192.997C120.577 192.991 120.137 192.919 119.672 193.102C119.64 193.279 119.583 193.47 119.579 193.662C119.568 194.567 119.574 195.473 119.574 196.38C119.574 202.085 119.574 207.79 119.574 213.493C119.574 213.857 119.585 214.219 119.592 214.596C120.485 214.91 121.381 214.57 122.229 214.84C122.366 215.254 122.31 215.659 122.312 216.054C122.316 225.148 122.314 234.24 122.316 243.334C122.316 243.73 122.273 244.131 122.392 244.565C123.233 244.713 124.073 244.55 124.921 244.68C125.073 245.284 124.992 245.851 125.005 246.411C125.019 247.016 125.005 247.62 125.008 248.222C125.012 248.788 125.025 249.352 125.032 249.96C125.927 250.192 126.808 249.947 127.678 250.139C127.85 250.996 127.647 251.843 127.81 252.645C128.139 252.857 128.482 252.785 128.811 252.785C130.757 252.793 132.703 252.785 134.648 252.791C135.011 252.791 135.375 252.811 135.689 252.822C135.953 253.147 135.872 253.46 135.872 253.752C135.881 255.764 135.875 257.779 135.879 259.791C135.879 260.122 135.903 260.453 135.918 260.846C136.143 260.879 136.332 260.929 136.52 260.931C137.729 260.939 138.936 260.935 140.144 260.937C140.475 260.937 140.807 260.937 141.164 260.937C141.221 261.109 141.297 261.229 141.297 261.347C141.303 262.89 141.299 264.433 141.292 265.976C141.292 266.069 141.238 266.161 141.194 266.303C140.643 266.423 140.076 266.351 139.514 266.362C138.91 266.375 138.305 266.359 137.703 266.372C137.139 266.385 136.57 266.313 135.973 266.44C135.783 267.285 135.912 268.109 135.89 268.892C136.284 269.19 136.666 269.09 137.023 269.09C139.841 269.099 142.659 269.096 145.479 269.096H146.554C146.866 269.548 146.728 269.998 146.741 270.419C146.754 270.846 146.8 271.282 146.656 271.749C145.819 271.895 144.978 271.718 144.128 271.866C143.954 272.729 144.148 273.573 143.993 274.411C143.149 274.695 142.254 274.387 141.399 274.621C141.188 275.477 141.436 276.327 141.225 277.184C140.386 277.332 139.543 277.155 138.692 277.303C138.518 278.166 138.712 279.008 138.557 279.846C137.714 280.141 136.814 279.797 135.948 280.088C135.837 280.928 135.833 281.749 135.951 282.605C136.809 282.778 137.653 282.59 138.516 282.743C138.721 283.575 138.57 284.403 138.61 285.186C138.28 285.489 137.928 285.399 137.607 285.401C135.628 285.412 133.647 285.406 131.668 285.417C131.304 285.419 130.929 285.345 130.546 285.537C130.297 286.325 130.581 287.18 130.354 288.047C130.095 288.069 129.837 288.112 129.578 288.114C127.531 288.119 125.485 288.113 123.438 288.119C123.109 288.119 122.78 288.143 122.407 288.156C122.192 289.012 122.407 289.856 122.264 290.671C121.93 290.939 121.547 290.836 121.191 290.837C118.339 290.847 115.486 290.841 112.635 290.845C112.275 290.845 111.903 290.791 111.504 290.95C111.34 291.767 111.536 292.612 111.379 293.452C111.002 293.608 110.63 293.55 110.27 293.55C105.639 293.554 101.01 293.552 96.3796 293.554C96.0156 293.554 95.6497 293.569 95.2709 293.578C95.0436 294.023 95.1527 294.465 95.136 294.886C95.1194 295.286 95.1323 295.687 95.1323 296.143C94.8699 296.193 94.6519 296.265 94.4339 296.269C93.7298 296.285 93.0239 296.276 92.3199 296.276C87.3585 296.276 82.3951 296.276 77.4337 296.276C77.0364 296.276 76.6391 296.291 76.1642 296.3L76.1864 296.311ZM130.337 57.2588C130.567 57.6284 130.428 58.0386 130.461 58.4304C130.496 58.8554 130.389 59.2953 130.58 59.7462C131.441 59.8238 132.287 59.8755 133.194 59.6944C133.168 58.8259 133.303 58.0035 133.098 57.1312C132.244 57.0758 131.417 57.0388 130.587 57.1497C130.495 57.1627 130.408 57.2347 130.319 57.2809C130.369 56.9871 130.459 56.6914 130.461 56.3976C130.474 55.0227 130.469 53.6459 130.458 52.271C130.458 52.0825 130.382 51.8958 130.347 51.7314C129.484 51.5281 128.63 51.8275 127.828 51.5281C127.667 50.6725 127.898 49.8261 127.669 48.9815C125.903 48.8448 124.166 49.0277 122.395 48.8743C122.24 48.0076 122.432 47.1649 122.253 46.3223C121.364 46.1264 120.494 46.2354 119.633 46.2317C118.744 46.228 117.844 46.1153 116.918 46.3389C116.909 46.7879 116.889 47.1853 116.898 47.5826C116.909 48.0076 116.819 48.4456 117.003 48.878C117.848 49.0333 118.692 48.8097 119.522 49.0277C119.655 49.9296 119.563 50.8 119.589 51.6667C119.614 52.5297 119.535 53.3983 119.64 54.2835C120.538 54.4978 121.422 54.2317 122.27 54.4683C122.418 55.335 122.235 56.1777 122.408 57.0518C122.778 57.0684 123.107 57.0943 123.438 57.0943C125.417 57.098 127.398 57.0906 129.377 57.0998C129.7 57.0998 130.053 56.9945 130.337 57.2606V57.2588ZM154.943 57.1978C154.999 58.0977 154.834 58.9238 155.067 59.8035C155.67 59.8035 156.235 59.8035 156.8 59.8035C157.405 59.8035 158.009 59.8145 158.611 59.7979C159.169 59.7831 159.739 59.8681 160.317 59.7221C160.478 58.8573 160.282 58.0146 160.461 57.1423C160.827 57.1238 161.156 57.0961 161.483 57.0943C162.656 57.0887 163.832 57.0943 165.005 57.0887C165.265 57.0887 165.546 57.146 165.779 56.9002C165.914 56.1056 165.709 55.2611 165.908 54.4258C166.773 54.2816 167.616 54.4627 168.427 54.3001C168.647 53.426 168.374 52.5722 168.621 51.7609C169.475 51.4819 170.377 51.8533 171.258 51.4967V49.7836C171.258 49.1793 171.278 48.575 171.252 47.9725C171.228 47.4163 171.371 46.8415 171.114 46.2502C170.281 46.2225 169.455 46.1448 168.612 46.3038C168.385 47.152 168.64 48.0039 168.425 48.8817C168.083 48.8984 167.756 48.9261 167.431 48.9261C165.352 48.9298 163.272 48.9261 161.193 48.9316C160.934 48.9316 160.651 48.8633 160.38 49.1682V51.5041C159.495 51.8367 158.593 51.4745 157.728 51.7665C157.556 52.6332 157.674 53.5055 157.647 54.3685C157.621 55.2352 157.674 56.1037 157.614 56.9705C156.736 57.2236 155.882 56.9631 154.947 57.1941L154.943 57.1978Z" fill="#DB5E1A"/>
</g>
<defs>
<clipPath id="clip0_147_4">
<rect width="193" height="299" fill="white"/>
</clipPath>
</defs>
</svg>
