<svg width="243" height="330" viewBox="0 0 243 330" fill="none" xmlns="http://www.w3.org/2000/svg">
<g clip-path="url(#clip0_147_2)">
<path d="M95.9236 327.033C95.7095 328.063 95.9329 328.958 95.7374 329.884C95.5071 329.921 95.2698 329.978 95.0278 329.992C94.6905 330.011 94.3531 329.998 94.0135 329.998C81.5082 329.998 69.0053 329.998 56.5 329.998C55.9951 329.998 55.4926 329.998 55.0808 329.998C54.6736 329.707 54.7807 329.391 54.7644 329.107C54.7248 328.452 54.8295 327.788 54.6829 327.108C54.1339 326.964 53.629 327.01 53.1311 327.01C47.3426 327.006 41.5565 327.01 35.768 327.006C35.312 327.006 34.856 326.98 34.3535 326.964C34.0766 325.995 34.3604 325.061 34.1278 324.084C33.816 324.057 33.4926 324.006 33.1692 324.004C30.5914 323.998 28.0159 324 25.4381 324C25.0216 324 24.6028 324 24.1422 324C23.8071 323.043 24.1329 322.107 23.9118 321.195C23.5536 320.914 23.1115 321.014 22.709 321.012C20.1754 321.004 17.6394 321.01 15.1058 321.004C14.6917 321.004 14.2776 320.971 13.8169 320.951C13.5424 319.992 13.8262 319.056 13.6052 318.12C12.5885 317.832 11.5183 318.132 10.4294 317.92C10.1037 317.045 10.4504 316.107 10.2061 315.162C9.7175 314.911 9.15912 315.044 8.62866 315.016C8.0889 314.987 7.53983 315.075 6.95819 314.909C6.70693 313.988 6.98611 313.053 6.76044 312.115C5.73908 311.838 4.67119 312.125 3.66378 311.94C3.35668 311.636 3.46603 311.289 3.4637 310.969C3.45439 308.748 3.45905 306.525 3.45672 304.303C3.45672 303.938 3.43345 303.573 3.41717 303.176C2.87741 302.91 2.32136 303.037 1.7909 303.008C1.25114 302.98 0.699745 303.065 0.0948394 302.9C-0.072673 302.162 0.0273691 301.426 0.0110832 300.697C-0.0075293 299.957 0.00643007 299.217 0.00643007 298.476C0.00643007 297.773 0.00177695 297.069 0.00643007 296.365C0.0110832 295.631 0.0250426 294.897 0.0343488 294.114C1.16273 293.857 2.2725 294.128 3.39856 293.91C3.50558 293.106 3.44509 292.333 3.45439 291.566C3.4637 290.789 3.45439 290.01 3.45439 289.233V286.789C3.45439 286.012 3.44974 285.233 3.45439 284.456C3.45905 283.685 3.47068 282.916 3.48231 282.08C4.58743 281.911 5.64369 282.086 6.7488 281.943C6.7837 281.664 6.84187 281.419 6.84187 281.172C6.85117 279.802 6.84187 278.431 6.85117 277.063C6.8535 276.738 6.75811 276.394 7.05126 276.063C8.04935 275.892 9.11259 276.116 10.2224 275.92C10.3969 274.998 10.2061 274.07 10.3596 273.124C11.4205 272.873 12.4884 273.134 13.554 272.93C13.8937 272 13.4935 271.015 13.8448 270.026C14.9034 270.01 15.9434 269.995 16.9973 269.979C17.2556 269.453 17.1346 268.969 17.1602 268.5C17.1834 268.064 17.1904 267.627 17.2044 267.128C17.558 267.093 17.8395 267.042 18.121 267.04C19.5984 267.024 21.0781 267.024 22.5555 267.011C22.9719 267.007 23.386 266.981 23.8676 266.964C24.1329 266.018 23.8653 265.088 24.0445 264.201C24.3236 263.936 24.6796 264.009 25.0053 264.009C27.5832 264.003 30.1587 264.005 32.7365 264.005C33.1553 264.005 33.5741 264.005 33.9021 264.005C34.3139 263.719 34.2046 263.403 34.2185 263.12C34.2488 262.461 34.179 261.798 34.272 261.194C34.8071 260.925 35.2817 261.017 35.7378 261.017C40.4258 261.009 45.1161 261.013 49.8041 261.011C50.2625 261.011 50.7208 260.986 51.2396 260.972C51.5095 260.018 51.2396 259.085 51.4211 258.192C52.2028 257.958 53.18 257.927 54.6806 258.092C55.0808 258.928 54.6783 259.85 54.9621 260.695C55.2343 260.956 55.5856 260.909 55.916 260.913C58.9126 260.95 61.9116 261.001 64.9082 261.009C70.1034 261.025 75.3009 261.013 80.4961 261.015C80.994 261.015 81.4989 260.97 82.041 261.105C82.2783 262.025 82.02 262.961 82.2248 263.872C82.7134 264.056 83.181 263.987 83.6323 263.987C88.3204 263.997 93.0107 263.997 97.6987 264.003C98.1571 264.003 98.6154 264.015 99.1156 264.021C99.4506 264.972 99.1203 265.908 99.3366 266.803C99.5972 267.079 99.9555 267.003 100.277 267.005C101.882 267.015 103.487 267.009 105.093 267.009C108.345 267.009 111.598 267.009 114.85 267.011C115.304 267.011 115.769 266.966 116.265 267.115C116.472 268.039 116.22 268.973 116.409 269.799C116.521 269.887 116.549 269.918 116.583 269.934C116.621 269.952 116.663 269.965 116.704 269.967C117.084 269.981 117.463 270.001 117.842 269.999C121.769 269.995 125.699 269.987 129.626 269.977C129.703 269.977 129.777 269.928 129.943 269.871C129.968 269.742 130.031 269.569 130.031 269.396C130.036 265.804 130.036 262.21 130.031 258.618C130.031 258.472 129.994 258.327 129.963 258.125C129.731 258.084 129.496 258.013 129.259 258.009C128.458 257.994 127.66 258.002 126.911 258.002C126.518 257.631 126.65 257.244 126.65 256.889C126.641 253.703 126.646 250.519 126.641 247.333C126.641 246.933 126.611 246.534 126.595 246.089C125.489 245.887 124.429 246.097 123.4 245.94C123.063 245.569 123.202 245.147 123.2 244.753C123.189 241.606 123.196 238.457 123.189 235.31C123.189 234.912 123.261 234.502 123.054 234.062C122.021 233.898 120.962 234.098 119.862 233.929C119.745 233.119 119.81 232.348 119.801 231.579C119.789 230.802 119.799 230.023 119.799 229.246V226.803C119.799 226.025 119.801 225.246 119.799 224.469C119.794 223.698 119.782 222.927 119.773 222.101C118.675 221.869 117.612 222.097 116.523 221.936C116.472 221.773 116.372 221.606 116.369 221.438C116.355 218.846 116.353 216.254 116.358 213.661C116.358 213.484 116.428 213.307 116.467 213.123C117.528 212.866 118.603 213.143 119.682 212.921C119.873 212.525 119.796 212.117 119.796 211.724C119.803 206.91 119.801 202.095 119.801 197.281C119.801 195.947 119.801 194.616 119.801 193.282V192.135C118.652 191.921 117.582 191.989 116.467 192.072C116.227 193.059 116.381 194.02 116.353 194.972C116.323 195.929 116.339 196.888 116.334 197.871C115.239 198.162 114.168 197.881 113.168 198.062C112.854 198.368 112.963 198.717 112.961 199.037C112.952 201.259 112.956 203.482 112.956 205.703C112.956 206.07 112.956 206.439 112.956 206.831C111.861 207.231 110.73 206.831 109.632 207.12C109.59 207.33 109.513 207.541 109.511 207.751C109.504 212.268 109.506 216.786 109.511 221.306C109.511 221.485 109.55 221.665 109.576 221.899C110.662 222.148 111.772 221.877 112.896 222.095C113.007 222.94 112.94 223.749 112.952 224.553C112.963 225.367 112.954 226.183 112.954 226.996V231.995C112.954 232.809 112.954 233.625 112.954 234.439C112.954 235.249 112.963 236.058 112.968 236.87C114.075 237.172 115.15 236.88 116.186 237.09C116.444 237.486 116.339 237.904 116.339 238.298C116.348 243.26 116.344 248.222 116.344 253.185C116.344 255.369 116.344 257.556 116.344 259.74C116.344 260.105 116.321 260.472 116.304 260.876C116.055 260.925 115.86 260.997 115.662 260.999C112.705 261.005 109.748 261.005 106.791 261.001C106.626 261.001 106.463 260.962 106.233 260.935C105.951 260.028 106.247 259.096 106.046 258.192C105.695 257.892 105.251 258.011 104.846 258.011C101.212 258.002 97.5801 258.006 93.946 258.002C93.49 258.002 93.034 257.978 92.5221 257.962C92.3058 257.005 92.5221 256.077 92.3779 255.231C91.98 254.931 91.5822 255.018 91.2169 255.016C89.1044 255.006 86.9919 255.01 84.8794 255.01C81.0359 255.01 77.1901 255.01 73.3466 255.006C72.8906 255.006 72.4183 255.074 71.9111 254.851V252.163C71.611 252.102 71.3807 252.035 71.1434 252.012C70.8921 251.988 70.6362 252.004 70.3826 252.004C62.2722 252.004 54.1618 252.004 46.0491 252.004C45.5931 252.004 45.1347 252.026 44.6252 252.041C44.3716 252.995 44.6299 253.929 44.4484 254.825C44.0203 255.112 43.5387 255.002 43.0897 255.002C39.4998 255.012 35.9076 254.988 32.3177 255.018C30.8892 255.031 29.4607 255.151 28.0345 255.229C27.9601 255.233 27.8879 255.294 27.739 255.363C27.3854 256.142 27.8461 257.083 27.4273 257.876C26.3105 258.049 25.1472 258.045 24.0445 257.866C24.0235 257.597 23.984 257.311 23.984 257.025C23.977 255.655 23.97 254.284 23.9886 252.916C23.9933 252.514 24.1003 252.112 24.1375 251.708C24.191 251.119 24.219 250.527 24.2701 249.94C24.3213 249.385 24.4912 249.24 25.1426 249.214C25.8103 249.185 26.478 249.175 27.1853 249.155C27.2574 248.883 27.3435 248.677 27.3621 248.465C27.3901 248.133 27.3738 247.798 27.3738 247.466C27.3738 240.466 27.3738 233.466 27.3784 226.468C27.3784 226.032 27.3109 225.583 27.4831 225.144C28.5626 224.82 29.698 225.222 30.8124 224.855V216.154C31.1102 216.099 31.3429 216.021 31.5802 216.015C32.3782 215.999 33.1785 216.009 33.9091 216.009C34.3232 215.693 34.2092 215.338 34.2115 215.022C34.2208 212.762 34.2115 210.504 34.2208 208.244C34.2208 207.881 34.1301 207.504 34.379 207.124C35.4074 206.849 36.5334 207.177 37.6548 206.894V198.154C37.9526 198.097 38.1853 198.02 38.4226 198.016C39.2206 197.999 40.021 198.009 40.8957 198.009C40.9562 197.724 41.0493 197.483 41.0516 197.243C41.0656 195.909 41.0563 194.577 41.0633 193.243C41.0633 192.88 41.0982 192.517 41.1191 192.119C42.2079 191.87 43.2735 192.119 44.2925 191.952C44.6182 191.668 44.5042 191.318 44.5042 190.997C44.5159 188.737 44.5089 186.48 44.5135 184.22C44.5135 183.859 44.5484 183.498 44.5671 183.124C45.6745 182.869 46.7494 183.171 47.8522 182.892C47.9569 181.937 47.8708 180.979 47.9057 180.024C47.9406 179.07 47.7963 178.109 48.008 177.142C49.0945 176.851 50.2206 177.179 51.3536 176.893V171.205C51.9306 170.917 52.4867 171.056 53.0171 171.019C53.5546 170.983 54.1129 171.115 54.6527 170.879C54.9016 169.977 54.5899 169.037 54.8551 168.09C55.916 167.905 56.9769 168.111 58.0774 167.942C58.1169 167.695 58.1914 167.45 58.1937 167.203C58.2054 165.833 58.1937 164.462 58.203 163.093C58.203 162.771 58.2472 162.447 58.2728 162.082C59.3686 161.91 60.4272 162.112 61.4905 161.943C61.7278 160.997 61.4695 160.061 61.6719 159.157C62.7794 158.829 63.9124 159.218 64.971 158.884C65.1641 157.96 64.9198 157.028 65.1385 156.077C66.1785 155.92 67.1952 156.083 68.2724 155.959C68.3236 155.724 68.4143 155.484 68.419 155.243C68.4376 153.909 68.4306 152.577 68.4422 151.243C68.4445 150.88 68.4794 150.517 68.5004 150.115C69.5939 149.891 70.6571 150.12 71.6738 149.96C71.9972 149.669 71.8646 149.318 71.8879 148.998C71.9367 148.38 71.8041 147.75 71.9926 147.117C73.0604 146.883 74.1353 147.172 75.1706 146.913C75.4545 145.997 75.1241 145.057 75.3917 144.109C76.4363 143.889 77.4995 144.123 78.5046 143.964C78.821 143.713 78.7186 143.399 78.7303 143.113C78.7582 142.457 78.6907 141.794 78.7908 141.129C79.9005 140.88 80.9754 141.174 82.0131 140.915C82.2946 140.001 81.9712 139.059 82.2341 138.106C83.2764 137.89 84.3373 138.118 85.347 137.963C85.6588 137.717 85.5587 137.405 85.575 137.119C85.6099 136.462 85.5122 135.799 85.6518 135.128C86.7406 134.88 87.8155 135.177 88.8555 134.918C89.1323 134.005 88.8229 133.064 89.0742 132.11C90.1165 131.887 91.1797 132.12 92.1894 131.963C92.4989 131.718 92.4058 131.406 92.4174 131.121C92.443 130.464 92.3779 129.801 92.4779 129.122C93.583 128.908 94.6509 129.128 95.7305 128.948C95.898 127.949 95.777 126.99 95.8165 126.036C95.8561 125.081 95.7119 124.121 95.9143 123.152C96.9961 122.832 98.1291 123.215 99.1901 122.887C99.3878 121.965 99.1412 121.033 99.3599 120.082C100.432 119.917 101.493 120.117 102.547 119.95C102.822 119.005 102.501 118.065 102.766 117.155C103.846 116.831 104.979 117.227 106.035 116.886C106.226 115.962 105.984 115.03 106.202 114.082C107.289 113.931 108.347 114.094 109.422 113.963C109.974 113.148 109.487 112.213 109.818 111.316C110.821 110.937 111.937 111.253 113.008 111.079C114.027 110.914 115.094 110.977 116.174 110.939C116.497 110 116.174 109.06 116.418 108.118C116.96 107.943 117.509 108.036 118.045 108.014C118.582 107.991 119.131 108.069 119.713 107.924C119.852 107.427 119.78 106.947 119.799 106.474C119.815 106.038 119.824 105.601 119.838 105.132C120.939 104.883 122.011 105.15 123.065 104.934C123.37 103.99 123.035 103.011 123.289 102.077C124.384 101.848 125.452 102.115 126.553 101.883C126.643 100.975 126.627 100.106 126.564 99.1947C125.483 98.9091 124.405 99.2089 123.337 98.9622C122.995 98.0362 123.37 97.0551 123.079 96.0822C122.035 95.9027 120.971 96.1149 120.017 95.9599C119.922 95.8701 119.885 95.8477 119.866 95.815C119.848 95.7844 119.841 95.7437 119.838 95.7069C119.824 95.4112 119.801 95.1155 119.801 94.8197C119.808 85.3396 119.815 75.8595 119.827 66.3795C119.827 66.3101 119.875 66.2428 119.929 66.1061C120.908 65.8716 121.974 66.1245 122.972 65.9593C123.291 65.6472 123.186 65.2985 123.189 64.9782C123.198 62.7571 123.191 60.5339 123.196 58.3128C123.196 57.9477 123.223 57.5826 123.24 57.2033C123.784 56.9075 124.342 57.0483 124.873 57.0197C125.415 56.9911 125.964 57.0625 126.562 56.9218C126.592 56.6118 126.641 56.3283 126.641 56.0427C126.648 53.7828 126.641 51.525 126.646 49.2651C126.646 48.9 126.669 48.5349 126.683 48.125C127.751 47.866 128.816 48.1229 129.91 47.9414C130.152 47.0297 130.017 46.1221 129.994 45.243C129.654 44.9269 129.254 45.0329 128.889 45.0166C128.179 44.9881 127.462 45.0574 126.771 44.9493C126.72 44.776 126.66 44.6719 126.66 44.5679C126.655 29.8664 126.655 15.1629 126.66 0.461448C126.66 0.357428 126.72 0.255448 126.769 0.0902398C127.458 -0.0566118 128.174 0.0331309 128.879 0.016814C129.64 0.000497188 130.401 0.0106952 131.159 0.0106952C131.871 0.0106952 132.583 0.016814 133.335 0.0208932C133.653 0.985627 133.342 1.92181 133.565 2.89062C133.821 2.93141 134.095 3.00688 134.37 3.01095C135.892 3.02319 137.411 3.01503 138.932 3.02115C139.346 3.02115 139.758 3.05175 140.212 3.0701C140.459 4.03892 140.203 4.97102 140.414 5.94391C141.459 6.09892 142.515 5.92963 143.574 6.0622C143.897 6.99838 143.574 7.9366 143.807 8.89522C144.079 8.93601 144.36 9.00943 144.639 9.01147C146.075 9.02371 147.513 9.01963 148.948 9.01963C149.411 9.01963 149.874 9.01963 150.253 9.01963C150.628 9.31538 150.542 9.62539 150.556 9.91298C150.591 10.5697 150.484 11.2346 150.642 11.922C151.398 12.0831 152.115 11.9934 152.82 12.0097C153.58 12.026 154.341 12.0097 155.1 12.0158C155.809 12.0219 156.523 11.9791 157.282 12.0627C157.543 13.0071 157.282 13.9412 157.47 14.8692C158.529 15.2302 159.662 14.8386 160.753 15.1405C160.958 16.0991 160.821 17.0598 160.849 18.0123C160.876 18.9688 160.867 19.9254 160.876 20.9228C162.005 21.0717 163.04 21.0533 164.12 20.9472C164.413 20.0213 164.108 19.0851 164.341 18.1142C164.578 18.0816 164.813 18.0347 165.05 18.0184C165.302 18.0021 165.558 18.0123 165.811 18.0123C176.162 18.0123 186.511 18.0123 196.861 18.0123C197.322 18.0123 197.78 18.0123 198.15 18.0123C198.553 18.308 198.443 18.6241 198.46 18.9056C198.499 19.5624 198.395 20.2252 198.53 20.8534C199.616 21.0819 200.884 21.0757 201.912 20.8351V15.1588C202.264 15.1058 202.538 15.0283 202.813 15.0263C204.334 15.014 205.854 15.0222 207.375 15.0161C207.789 15.0161 208.203 14.9834 208.659 14.9651C208.883 13.9963 208.645 13.0662 208.841 12.1015C209.872 11.8873 210.935 12.1076 212.005 11.9526C212.247 11.4814 212.126 10.998 212.149 10.531C212.173 10.0925 212.175 9.65191 212.189 9.15221C212.524 9.10122 212.798 9.02575 213.075 9.02371C214.597 9.00943 216.116 9.01759 217.638 9.00739C218.052 9.00535 218.482 9.07266 218.894 8.87278C219.145 7.97128 218.829 7.02898 219.101 6.09076C220.208 5.89496 221.311 6.10912 222.475 5.93779C222.556 5.67264 222.661 5.40137 222.714 5.12195C222.756 4.90575 222.733 4.67935 222.74 4.45704C222.775 3.24755 222.8 3.22715 224.185 3.21288C224.815 3.20676 225.436 3.18432 226.067 3.0701C226.676 2.95996 227.328 3.03339 227.961 3.01503C228.375 3.0028 228.807 3.08234 229.217 2.86002C229.403 1.96056 229.182 1.0305 229.347 0.171824C229.508 0.100438 229.58 0.0412893 229.652 0.0412893C231.595 0.0290517 233.537 0.0188536 235.48 0.016814C235.641 0.016814 235.803 0.0576061 236.031 0.0902398C236.066 0.316636 236.115 0.526715 236.124 0.738834C236.141 1.07129 236.129 1.40579 236.129 1.73824C236.129 18.6262 236.129 35.5141 236.129 52.4V53.8604C237.216 54.1806 238.288 53.8685 239.354 54.0847C239.626 54.4355 239.514 54.8536 239.514 55.2432C239.526 58.3903 239.517 61.5395 239.526 64.6866C239.526 65.0863 239.447 65.4983 239.658 65.9307C240.691 66.1163 241.755 65.9063 242.848 66.0776C242.89 66.2918 242.946 66.4998 242.967 66.7099C242.988 66.9302 242.974 67.1545 242.974 67.3768C242.974 76.451 242.974 85.5232 242.974 94.5974V95.8742C242.639 95.9231 242.364 95.9925 242.087 96.0006C241.292 96.0251 240.494 95.9864 239.645 96.0353C239.598 96.3433 239.528 96.5921 239.526 96.841C239.514 98.1361 239.521 99.4333 239.521 100.73C239.521 101.098 239.521 101.465 239.521 101.891C239.168 101.936 238.888 101.999 238.607 102.001C237.13 102.011 235.65 102.007 234.17 102.007C233.751 102.007 233.33 102.007 232.837 102.007C232.777 102.299 232.702 102.538 232.681 102.78C232.623 103.476 232.77 104.184 232.572 104.897C231.541 105.177 230.464 104.869 229.375 105.122C229.161 106.019 229.401 106.949 229.21 107.9C228.135 108.153 227.025 107.875 225.941 108.083C225.676 109.032 225.988 109.972 225.732 110.888C225.02 111.112 224.299 110.986 223.591 111.006C222.833 111.028 222.07 110.998 221.311 111.014C220.599 111.03 219.878 110.931 219.138 111.11C218.787 112.003 219.152 112.948 218.899 113.886C217.889 114.167 216.819 113.872 215.723 114.082C215.683 114.28 215.618 114.486 215.607 114.696C215.586 115.028 215.6 115.363 215.6 115.695C215.6 124.62 215.6 133.546 215.6 142.471C215.6 142.914 215.6 143.356 215.6 143.85C215.318 143.907 215.088 143.988 214.853 143.995C214.013 144.015 213.173 144.011 212.38 144.017C212.033 144.456 212.154 144.876 212.154 145.271C212.145 150.419 212.149 155.567 212.147 160.715C212.147 161.119 212.126 161.521 212.114 161.939C211.144 162.437 210.058 161.984 209.16 162.314C208.822 162.616 208.897 162.965 208.89 163.291C208.841 165.621 208.799 167.952 208.752 170.281C208.748 170.465 208.72 170.646 208.701 170.856C207.643 171.223 206.51 170.822 205.439 171.125C205.188 171.743 205.335 172.376 205.311 172.996C205.286 173.661 205.311 174.33 205.302 174.995C205.295 175.619 205.339 176.247 205.253 176.875C204.169 177.165 203.092 176.861 202.01 177.108C201.978 177.358 201.917 177.607 201.917 177.856C201.908 179.151 201.912 180.448 201.912 181.746C201.912 182.113 201.912 182.48 201.912 182.845C200.784 183.212 199.649 182.812 198.625 183.12C198.378 183.5 198.469 183.877 198.467 184.24C198.457 186.425 198.464 188.611 198.457 190.795C198.457 191.156 198.42 191.517 198.397 191.925C197.299 192.103 196.238 191.901 195.144 192.07C194.947 194.018 195.179 195.935 195.007 197.901C193.916 198.132 192.809 197.873 191.68 198.085C191.555 199.08 191.645 200.037 191.617 200.991C191.589 201.946 191.687 202.905 191.545 203.918C190.48 204.104 189.419 203.904 188.323 204.065C188.288 204.302 188.248 204.512 188.23 204.722C188.214 204.905 188.225 205.091 188.225 205.277C188.225 215.424 188.225 225.571 188.225 235.718V236.837C189.312 237.19 190.387 236.858 191.42 237.074C191.755 237.421 191.61 237.847 191.61 238.239C191.622 242.387 191.615 246.534 191.622 250.682C191.622 251.08 191.538 251.494 191.764 251.918C192.797 252.108 193.858 251.888 194.858 252.053C195.175 252.371 195.063 252.718 195.063 253.04C195.072 255.261 195.068 257.484 195.068 259.705V260.864C195.412 260.917 195.686 260.988 195.963 260.995C196.722 261.011 197.48 261.001 198.16 261.001C198.562 261.335 198.455 261.686 198.455 262.006C198.464 264.266 198.455 266.524 198.462 268.784C198.462 269.147 198.499 269.508 198.52 269.908C199.63 270.103 200.691 269.895 201.791 270.067C201.831 270.315 201.903 270.562 201.905 270.807C201.917 272.102 201.912 273.399 201.912 274.697C201.912 275.066 201.912 275.435 201.912 275.853C202.196 275.906 202.429 275.986 202.664 275.99C203.462 276.006 204.262 275.996 205.137 275.996C205.197 276.281 205.291 276.52 205.295 276.761C205.309 278.095 205.3 279.426 205.307 280.76C205.307 281.123 205.342 281.488 205.363 281.892C206.451 282.127 207.515 281.892 208.622 282.062C208.664 282.294 208.738 282.537 208.748 282.782C208.776 283.479 208.727 284.179 208.792 284.907C209.955 285.097 211.053 284.976 212.142 285.001C213.236 285.027 214.332 284.974 215.439 285.033C215.79 285.99 215.448 286.93 215.686 287.881C216.693 288.158 217.763 287.866 218.861 288.074C219.182 288.976 218.817 289.957 219.096 290.899C219.666 291.064 220.218 290.987 220.758 291.003C221.26 291.018 221.76 291.02 222.321 291.028C222.368 291.344 222.435 291.593 222.437 291.839C222.449 293.135 222.444 294.432 222.444 295.729C222.444 296.096 222.444 296.463 222.444 296.841C223.538 297.185 224.615 296.851 225.664 297.083C225.969 297.516 225.813 298.007 225.827 298.474C225.841 298.943 225.902 299.425 225.722 299.926C224.685 300.09 223.668 299.908 222.586 300.049C222.54 300.277 222.468 300.518 222.449 300.761C222.398 301.456 222.519 302.16 222.361 302.906C221.258 303.102 220.162 302.976 219.075 302.998C217.982 303.021 216.886 303.002 215.772 303.002C215.406 303.969 215.748 304.907 215.537 305.805C215.171 306.104 214.727 305.988 214.325 305.988C210.649 305.996 206.975 305.994 203.299 305.994C202.073 305.994 200.849 305.998 199.623 305.992C199.293 305.992 198.962 305.958 198.597 305.939C198.302 305.005 198.597 304.069 198.381 303.104C197.348 302.872 196.282 303.11 195.193 302.933C194.909 302.019 195.205 301.087 194.989 300.116C194.737 300.079 194.465 300.016 194.186 300C193.39 299.955 192.588 300.065 191.813 299.931C191.52 299.572 191.627 299.19 191.624 298.829C191.615 296.645 191.622 294.458 191.617 292.274C191.617 291.909 191.589 291.544 191.573 291.138C190.487 290.807 189.356 291.197 188.23 290.848V285.17C187.118 284.803 185.992 285.16 184.868 284.899C184.838 284.56 184.787 284.24 184.784 283.918C184.775 281.697 184.777 279.473 184.775 277.252C184.775 276.887 184.759 276.522 184.749 276.13C183.663 275.837 182.595 276.122 181.59 275.937C181.283 275.633 181.392 275.284 181.39 274.966C181.38 272.745 181.385 270.521 181.383 268.3C181.383 267.935 181.36 267.57 181.343 267.138C180.264 266.83 179.145 267.154 178.026 266.903C177.993 266.634 177.939 266.387 177.937 266.138C177.928 264.843 177.937 263.546 177.93 262.249C177.93 261.886 177.898 261.523 177.877 261.099C176.804 260.882 175.739 261.111 174.638 260.919C174.606 260.621 174.547 260.34 174.545 260.06C174.536 257.801 174.538 255.543 174.536 253.283C174.536 252.916 174.536 252.551 174.536 252.124C174.187 252.075 173.91 252.018 173.631 252.002C172.837 251.959 172.037 252.065 171.209 251.924C170.964 250.945 171.123 249.985 171.095 249.032C171.064 248.074 171.081 247.115 171.076 246.136C169.983 245.828 168.91 246.126 167.8 245.912C167.765 245.64 167.703 245.361 167.7 245.079C167.691 242.82 167.696 240.562 167.696 238.302C167.696 237.937 167.696 237.572 167.696 237.196C167.121 236.899 166.563 237.031 166.034 237.003C165.495 236.974 164.943 237.058 164.338 236.899C164.306 236.635 164.252 236.389 164.25 236.142C164.241 234.847 164.25 233.55 164.243 232.252C164.243 231.889 164.21 231.526 164.189 231.094C163.119 230.884 162.054 231.106 160.951 230.921C160.916 230.625 160.856 230.343 160.856 230.064C160.849 227.804 160.851 225.546 160.851 223.286C160.851 222.919 160.851 222.552 160.851 222.124C160.509 222.075 160.234 222.014 159.955 221.999C159.162 221.954 158.359 222.065 157.524 221.92C157.268 220.953 157.436 219.992 157.405 219.042C157.375 218.083 157.398 217.123 157.398 216.146C156.3 215.823 155.228 216.125 154.143 215.927C153.82 215.044 154.136 214.108 153.946 213.18C153.445 212.88 152.882 213.013 152.357 213.007C151.815 213.001 151.261 212.921 150.675 213.123C150.635 213.319 150.563 213.529 150.558 213.741C150.544 214.74 150.551 215.74 150.551 216.741C150.551 223.037 150.551 229.334 150.551 235.628C150.551 236.03 150.565 236.43 150.574 236.846C151.698 237.192 152.827 236.817 153.894 237.115C154.067 237.572 153.997 238.018 153.999 238.455C154.004 248.492 154.001 258.527 154.004 268.563C154.004 269 153.95 269.443 154.099 269.922C155.158 270.085 156.216 269.906 157.284 270.048C157.475 270.715 157.373 271.341 157.389 271.959C157.408 272.626 157.389 273.293 157.394 273.958C157.398 274.582 157.415 275.204 157.424 275.875C158.55 276.132 159.66 275.861 160.756 276.073C160.972 277.02 160.716 277.954 160.921 278.839C161.335 279.074 161.768 278.994 162.182 278.994C164.632 279.002 167.081 278.994 169.531 279C169.987 279 170.446 279.023 170.841 279.035C171.174 279.394 171.071 279.738 171.071 280.061C171.083 282.282 171.076 284.505 171.081 286.726C171.081 287.091 171.111 287.456 171.13 287.891C171.413 287.927 171.651 287.983 171.888 287.985C173.41 287.993 174.929 287.989 176.45 287.991C176.867 287.991 177.286 287.991 177.735 287.991C177.807 288.18 177.902 288.313 177.902 288.444C177.909 290.147 177.905 291.85 177.895 293.553C177.895 293.655 177.828 293.757 177.772 293.914C177.079 294.046 176.364 293.967 175.657 293.979C174.896 293.993 174.136 293.975 173.377 293.989C172.668 294.003 171.951 293.924 171.199 294.065C170.96 294.997 171.123 295.906 171.095 296.771C171.59 297.1 172.072 296.989 172.521 296.989C176.069 297 179.617 296.996 183.167 296.996H184.521C184.915 297.495 184.74 297.991 184.756 298.456C184.773 298.927 184.831 299.408 184.649 299.924C183.595 300.086 182.537 299.89 181.467 300.053C181.248 301.005 181.492 301.938 181.297 302.861C180.233 303.176 179.107 302.835 178.03 303.094C177.765 304.038 178.077 304.977 177.812 305.923C176.755 306.086 175.694 305.89 174.622 306.053C174.403 307.006 174.647 307.936 174.452 308.86C173.391 309.186 172.258 308.807 171.167 309.127C171.027 310.055 171.023 310.961 171.172 311.905C172.251 312.097 173.314 311.889 174.401 312.058C174.659 312.976 174.468 313.89 174.519 314.754C174.103 315.089 173.661 314.989 173.256 314.991C170.764 315.003 168.27 314.997 165.779 315.009C165.32 315.011 164.848 314.93 164.366 315.142C164.052 316.011 164.411 316.955 164.124 317.912C163.799 317.936 163.473 317.983 163.147 317.985C160.569 317.991 157.994 317.985 155.416 317.991C155.002 317.991 154.588 318.018 154.118 318.032C153.848 318.976 154.118 319.909 153.939 320.808C153.518 321.104 153.036 320.99 152.587 320.992C148.997 321.002 145.405 320.996 141.815 321C141.361 321 140.894 320.941 140.391 321.116C140.184 322.017 140.431 322.95 140.233 323.878C139.758 324.049 139.291 323.986 138.837 323.986C133.007 323.99 127.179 323.988 121.348 323.99C120.89 323.99 120.429 324.006 119.952 324.016C119.666 324.508 119.803 324.995 119.782 325.46C119.761 325.901 119.778 326.343 119.778 326.847C119.447 326.902 119.173 326.982 118.898 326.986C118.012 327.004 117.123 326.994 116.237 326.994C109.99 326.994 103.741 326.994 97.494 326.994C96.9938 326.994 96.4936 327.01 95.8956 327.021L95.9236 327.033ZM164.103 63.1956C164.392 63.6035 164.217 64.0563 164.259 64.4887C164.304 64.9578 164.169 65.4433 164.408 65.9409C165.492 66.0266 166.558 66.0837 167.7 65.8838C167.668 64.9252 167.838 64.0176 167.579 63.0549C166.504 62.9937 165.462 62.9529 164.418 63.0753C164.301 63.0896 164.192 63.1691 164.08 63.2201C164.143 62.8958 164.257 62.5695 164.259 62.2452C164.276 60.7277 164.269 59.2082 164.255 57.6907C164.255 57.4827 164.159 57.2767 164.115 57.0952C163.029 56.8708 161.954 57.2012 160.944 56.8708C160.742 55.9265 161.032 54.9923 160.744 54.0602C158.52 53.9093 156.333 54.1112 154.104 53.9419C153.908 52.9854 154.15 52.0553 153.925 51.1252C152.806 50.909 151.71 51.0294 150.626 51.0253C149.507 51.0212 148.374 50.8968 147.208 51.1436C147.196 51.6392 147.171 52.0777 147.182 52.5163C147.196 52.9854 147.082 53.4688 147.315 53.946C148.378 54.1173 149.441 53.8706 150.486 54.1112C150.654 55.1066 150.537 56.0672 150.57 57.0238C150.602 57.9763 150.502 58.9349 150.635 59.9119C151.766 60.1485 152.878 59.8548 153.946 60.1158C154.132 61.0724 153.901 62.0025 154.12 62.9672C154.585 62.9856 155 63.0141 155.416 63.0141C157.908 63.0182 160.402 63.01 162.894 63.0202C163.301 63.0202 163.745 62.904 164.103 63.1977V63.1956ZM195.084 63.1283C195.154 64.1216 194.947 65.0333 195.24 66.0042C195.998 66.0042 196.71 66.0042 197.422 66.0042C198.183 66.0042 198.944 66.0164 199.702 65.998C200.405 65.9817 201.121 66.0756 201.85 65.9144C202.052 64.9599 201.805 64.0298 202.031 63.0671C202.492 63.0467 202.906 63.0161 203.318 63.0141C204.795 63.008 206.275 63.0141 207.752 63.008C208.08 63.008 208.434 63.0712 208.727 62.7999C208.897 61.9229 208.638 60.9908 208.89 60.0689C209.979 59.9098 211.039 60.1097 212.061 59.9302C212.338 58.9655 211.993 58.0232 212.305 57.1278C213.38 56.8198 214.515 57.2298 215.625 56.8361V54.9454C215.625 54.2785 215.651 53.6115 215.618 52.9466C215.588 52.3327 215.767 51.6984 215.444 51.0457C214.394 51.0151 213.354 50.9294 212.293 51.1049C212.007 52.041 212.328 52.9813 212.059 53.9501C211.628 53.9685 211.216 53.9991 210.807 53.9991C208.189 54.0031 205.57 53.9991 202.952 54.0052C202.627 54.0052 202.271 53.9297 201.929 54.2662V56.8443C200.814 57.2114 199.679 56.8117 198.59 57.1339C198.374 58.0905 198.523 59.0532 198.488 60.0057C198.455 60.9623 198.523 61.9209 198.446 62.8775C197.341 63.1569 196.266 62.8693 195.089 63.1242L195.084 63.1283Z" fill="#DB5E1A"/>
</g>
<defs>
<clipPath id="clip0_147_2">
<rect width="243" height="330" fill="white"/>
</clipPath>
</defs>
</svg>
