<svg width="269" height="267" viewBox="0 0 269 267" fill="none" xmlns="http://www.w3.org/2000/svg">
<path d="M71.8436 0.183595C71.8788 0.970023 71.911 1.66907 71.9447 2.41104C72.702 2.87554 73.5604 2.44936 74.408 2.76056C74.4571 2.98131 74.5705 3.26185 74.5736 3.54239C74.5904 4.95275 74.5766 6.36464 74.5736 7.82559C73.1909 8.18124 71.8773 7.96815 70.5821 7.99575C69.3282 8.02334 68.0682 8.0586 66.7668 7.95282C66.4909 7.03609 66.6396 6.17455 66.6151 5.3314C66.589 4.47139 66.5967 3.60831 66.612 2.7483C66.6273 1.89902 66.5384 1.04207 66.6841 0.226519C67.9165 -0.0555524 70.2939 -0.0785474 71.842 0.182062L71.8436 0.183595Z" fill="#2B5F0D"/>
<path d="M181.272 72.1226C181.016 71.2396 181.126 70.3536 181.194 69.4062C182.003 69.1486 182.78 69.2345 183.596 69.3295C183.936 70.1711 183.775 70.9821 183.698 71.813C182.793 71.9111 182.014 71.9954 181.237 72.0828C181.24 72.0874 181.27 72.1226 181.27 72.1226H181.272Z" fill="#2B5F0D"/>
<path d="M7.9411 79.9087H5.53762C5.15441 78.9827 5.32149 78.1672 5.39506 77.3256C6.26111 77.1631 6.99688 77.1937 7.81541 77.2842C8.08059 78.181 7.98709 79.067 7.89665 79.9546L7.93957 79.9087H7.9411Z" fill="#2B5F0D"/>
<path d="M37.2046 103.938C36.711 103.895 36.2159 103.862 35.7238 103.803C35.4357 103.77 35.1521 103.698 34.8164 103.633V101.504C35.6104 101.096 36.4443 101.436 37.2046 101.214L37.1494 101.176C37.1494 102.108 37.1494 103.038 37.1494 103.97L37.203 103.938H37.2046Z" fill="#2B5F0D"/>
<path d="M242.48 181.463C241.647 180.861 240.758 181.155 239.873 181.247C239.485 182.003 239.816 182.799 239.571 183.574C238.871 184.001 237.998 183.548 237.214 183.904C236.858 184.643 237.235 185.5 236.89 186.358C236.124 186.41 235.339 186.463 234.473 186.521C234.413 187.373 234.358 188.161 234.297 189.036C233.45 189.096 232.663 189.151 231.79 189.213C231.726 190.045 231.663 190.83 231.6 191.644C229.9 191.957 228.222 191.61 226.493 191.888C226.438 192.68 226.387 193.419 226.329 194.25C226.076 194.304 225.845 194.397 225.612 194.397C219.937 194.405 214.264 194.405 208.589 194.399C208.35 194.399 208.111 194.327 207.818 194.279C207.595 192.622 207.802 191 207.627 189.369C206.897 188.892 206.017 189.371 205.187 188.96C205.134 188.207 205.079 187.419 205.016 186.535C204.169 186.476 203.384 186.421 202.526 186.363C202.489 186.009 202.438 185.717 202.432 185.426C202.243 177.846 202.346 158.778 202.594 157.25C203.355 157.195 204.14 157.138 204.961 157.078C205.211 156.164 205.073 155.303 205.098 154.455C205.122 153.594 205.085 152.732 205.107 151.87C205.128 151.021 205.003 150.161 205.229 149.257C206.014 149.195 206.756 149.137 207.569 149.074C207.624 148.746 207.708 148.461 207.711 148.176C207.726 147.061 207.739 145.945 207.705 144.831C207.693 144.443 207.542 144.06 207.46 143.678C208.402 143.902 209.337 143.884 210.248 143.71C210.564 142.867 210.197 142.021 210.582 141.21C211.371 141.155 212.156 141.101 213.012 141.041C213.036 140.454 213.062 139.959 213.078 139.464C213.116 138.305 213.15 137.148 213.182 135.986C213.97 135.918 214.759 135.854 215.633 135.782C215.676 135.343 215.706 134.954 215.755 134.566C215.811 134.126 215.884 133.689 215.945 133.248C216.444 133.218 216.946 133.206 217.446 133.162C217.731 133.136 218.012 133.059 218.298 133.004C218.374 132.139 218.496 131.35 218.19 130.54C217.382 130.476 216.646 130.401 215.861 130.614C215.755 131.541 215.558 132.424 215.988 133.289C215.053 133.11 214.123 133.087 213.154 133.307C213.071 134.259 212.96 135.147 213.222 136.03C212.296 135.765 211.376 135.745 210.435 136.045C210.397 136.847 210.361 137.587 210.323 138.394C209.457 138.467 208.672 138.535 207.834 138.605C207.788 139.016 207.722 139.357 207.717 139.698C207.702 140.755 207.716 141.809 207.708 142.866C207.706 143.16 207.759 143.477 207.48 143.698C206.779 143.762 206.079 143.827 205.285 143.899C205.228 144.143 205.13 144.42 205.105 144.702C205.055 145.246 205.159 145.809 204.943 146.419C204.137 146.479 203.352 146.537 202.509 146.6C202.303 148.325 202.536 149.997 202.346 151.746C201.949 151.797 201.56 151.847 201.17 151.898C200.78 151.949 200.389 152.001 199.937 152.059C199.559 155.507 199.854 158.895 199.673 162.35C198.819 162.414 198.034 162.474 197.211 162.537C196.946 163.441 197.093 164.305 197.067 165.151C197.039 166.011 197.059 166.874 197.059 167.735C197.059 168.597 197.064 169.459 197.059 170.32C197.055 171.174 197.041 172.028 197.03 172.943C195.315 173.28 193.643 172.943 191.95 173.17C191.569 173.943 191.937 174.792 191.626 175.643C190.001 176 188.273 175.59 186.507 175.892C186.438 176.719 186.374 177.507 186.305 178.333C185.106 178.601 183.941 178.431 182.79 178.463C181.676 178.494 180.56 178.469 179.446 178.471C178.287 178.473 177.126 178.477 175.873 178.482C175.796 179.369 175.727 180.157 175.656 180.982C175.364 181.033 175.123 181.1 174.878 181.112C171.866 181.246 153.272 181.146 152.019 180.987C151.602 180.288 152.031 179.42 151.663 178.571C151.264 178.54 150.826 178.477 150.389 178.476C146.994 178.466 143.599 178.473 140.203 178.468C139.705 178.468 139.207 178.433 138.695 178.413C138.318 177.593 138.677 176.745 138.364 175.902C138.044 175.863 137.706 175.791 137.368 175.788C135.594 175.776 133.821 175.788 132.047 175.779C131.601 175.778 131.155 175.735 130.626 175.707C130.56 174.855 130.497 174.068 130.43 173.193C129.53 173.129 128.695 173.069 127.807 173.004C127.677 172.258 127.558 171.574 127.427 170.823C126.71 170.722 126.031 170.625 125.283 170.518C125.24 170.053 125.175 169.661 125.174 169.268C125.165 166.684 125.172 164.099 125.166 161.515C125.166 161.018 125.13 160.521 125.111 160.054C123.787 159.712 123.368 159.722 122.254 160.095C122.335 159.701 122.479 159.31 122.482 158.916C122.505 156.837 122.499 154.757 122.482 152.678C122.479 152.399 122.354 152.122 122.28 151.831C121.454 151.811 120.704 151.659 119.899 151.998C119.892 153.272 119.852 154.536 119.884 155.798C119.916 157.092 119.719 158.404 120.031 159.75C120.608 159.776 121.107 159.799 121.607 159.821C121.858 159.831 122.116 159.825 122.271 160.083C122.341 160.317 122.464 160.55 122.472 160.788C122.499 161.599 122.491 162.411 122.491 163.222C122.491 173.877 122.491 184.529 122.491 195.184C122.491 195.739 122.491 196.292 122.491 196.826C121.682 197.339 120.81 196.888 120.06 197.21C119.766 197.699 119.881 198.218 119.88 198.71C119.869 202.058 119.876 205.406 119.87 208.754C119.87 209.251 119.824 209.746 119.797 210.336C118.931 210.397 118.146 210.452 117.304 210.512C117.117 211.417 117.223 212.275 117.205 213.124C117.186 213.986 117.2 214.849 117.2 215.712C117.2 216.575 117.2 217.437 117.2 218.3C117.2 219.163 117.2 220.024 117.2 220.887C117.2 221.748 117.2 222.608 117.2 223.432C116.379 224.041 115.417 223.458 114.584 223.972C114.433 225.192 114.533 226.455 114.515 227.714C114.496 228.977 114.51 230.24 114.51 231.488C113.678 231.979 112.813 231.542 111.943 231.897C111.877 232.67 111.805 233.504 111.728 234.404C111.319 234.461 110.98 234.513 110.64 234.551C110.292 234.589 109.942 234.612 109.522 234.648C109.246 236.256 109.237 237.864 109.098 239.544C108.221 239.789 107.361 239.641 106.522 239.687C105.718 239.731 104.91 239.723 104.088 239.739C103.624 240.536 104.035 241.394 103.728 242.238C103.49 242.284 103.207 242.379 102.922 242.383C101.856 242.403 100.791 242.383 99.7258 242.397C99.3824 242.402 99.0391 242.458 98.6452 242.497C98.5915 243.306 98.5424 244.053 98.4965 244.749C98.0596 245.15 97.5814 245.032 97.1384 245.034C94.7042 245.046 92.2686 245.04 89.8344 245.04C89.2811 245.04 88.7277 245.04 88.2893 245.04C87.7988 245.451 87.9459 245.885 87.9122 246.272C87.8785 246.668 87.8678 247.065 87.8432 247.533C86.1326 247.845 84.4603 247.528 82.7757 247.739C82.3097 248.485 82.7159 249.341 82.4339 250.192C82.2055 250.24 81.925 250.343 81.6414 250.349C80.5761 250.372 79.5108 250.355 78.4454 250.369C78.1005 250.373 77.7572 250.431 77.3633 250.47C77.2912 251.319 77.2253 252.107 77.1533 252.972C76.3194 253.015 75.5714 253.053 74.7912 253.094C74.339 253.842 74.7728 254.704 74.4723 255.489C73.758 255.95 72.8812 255.496 72.075 255.86C71.658 256.551 72.1041 257.422 71.7377 258.254C71.0096 258.297 70.2647 258.34 69.4431 258.389C69.371 258.673 69.2714 258.947 69.2361 259.231C69.1702 259.772 69.3159 260.338 69.0599 260.939C68.3088 260.985 67.5654 261.031 66.802 261.078C66.3912 261.865 66.7851 262.725 66.4541 263.523C65.729 263.923 64.8737 263.512 64.0168 263.859C63.9601 264.595 63.9003 265.38 63.8421 266.155C63.6413 266.224 63.5003 266.315 63.3577 266.316C60.315 266.332 57.2708 266.339 54.2281 266.342C53.9814 266.342 53.7346 266.292 53.3928 266.255C53.1613 264.566 53.3207 262.915 53.287 261.253C54.0871 260.767 54.9501 261.204 55.7457 260.886C56.1994 260.184 55.7349 259.311 56.1197 258.449C57.6924 258.144 59.3662 258.466 61.0355 258.254C61.4739 257.508 61.0263 256.637 61.4187 255.798C62.1698 255.736 62.9577 255.668 63.7808 255.599C64.0674 254.819 63.8237 254.042 64.0015 253.251C64.7097 252.809 65.5665 253.218 66.4326 252.926C66.4816 252.648 66.5644 252.319 66.5951 251.983C66.6411 251.492 66.6503 250.997 66.6794 250.433C67.524 250.385 68.2674 250.344 69.1135 250.295C69.1794 249.458 69.2408 248.672 69.3067 247.845C70.1099 247.496 70.9545 247.824 71.701 247.577C71.9477 246.447 71.9738 244.186 71.7531 242.494C70.9943 242.326 70.2095 242.356 69.3128 242.495C69.2438 243.289 69.1748 244.077 69.1013 244.933C68.6521 244.968 68.2551 245.02 67.8581 245.028C55.6445 245.233 25.7404 245.138 24.1324 244.88C23.8274 243.614 24.0175 242.3 24.0037 241.003C23.9899 239.745 23.8902 238.477 24.088 237.234C24.6383 236.878 25.2131 237.028 25.7542 237.027C32.7546 237.015 39.7551 237.019 46.754 237.019C51.8768 237.019 57.001 237.022 62.1238 237.015C62.6695 237.015 63.2305 237.099 63.8467 236.866C63.8973 236.118 63.9463 235.377 64.0015 234.559C65.657 234.163 67.3385 234.576 69.0108 234.3C69.4538 233.555 69.0246 232.687 69.371 231.876C70.0976 231.56 70.9437 231.893 71.7745 231.615C71.9907 230.818 71.8665 230.033 71.8558 229.152C70.979 229.086 70.1926 229.026 69.3159 228.96C69.2484 228.125 69.1825 227.335 69.1151 226.495C67.4243 226.192 65.7459 226.526 64.0092 226.264C63.9525 225.442 63.8988 224.654 63.8421 223.837C62.95 223.76 62.1575 223.691 61.3896 223.625C61.1719 222.166 61.1888 219.752 61.4248 218.487C61.7912 218.459 62.1836 218.429 62.5744 218.399C62.9684 218.37 63.3608 218.344 63.8375 218.312C63.8988 217.458 63.954 216.669 64.0153 215.83C64.8231 215.643 65.5681 215.706 66.3912 215.776C66.4586 216.063 66.5537 216.341 66.5874 216.624C66.6503 217.165 66.5077 217.73 66.7637 218.332C67.5163 218.375 68.2613 218.416 69.0231 218.459C69.4247 219.255 69.0369 220.115 69.3818 220.944C70.1083 221.254 70.9514 220.935 71.7991 221.205C71.8573 221.991 71.9171 222.776 71.9784 223.593C73.6844 223.95 75.3721 223.538 77.0199 223.845C77.5058 224.593 77.0352 225.47 77.4154 226.261C77.5932 226.291 77.7848 226.356 77.9779 226.356C80.2097 226.359 82.4415 226.356 84.6733 226.345C84.8113 226.345 84.9493 226.255 85.1761 226.176C85.2114 225.445 85.2466 224.7 85.285 223.914C86.0897 223.569 86.9419 223.898 87.7421 223.599C88.0931 222.845 87.7498 221.994 88.0425 221.163C88.4518 221.139 88.8457 221.111 89.2412 221.09C89.5892 221.071 89.9371 221.056 90.3816 221.036C90.4338 220.596 90.5181 220.211 90.5196 219.827C90.5318 217.239 90.5227 214.653 90.5303 212.065C90.5318 211.567 90.4475 211.053 90.7143 210.494C91.4485 210.459 92.1965 210.422 92.8955 210.388C93.3078 210.028 93.1929 209.597 93.1944 209.208C93.2051 206.62 93.1975 204.034 93.2051 201.446C93.2051 200.949 93.245 200.454 93.2695 199.876C94.1355 199.815 94.9219 199.758 95.7864 199.697C95.9903 197.923 95.8585 196.208 95.883 194.498C95.9075 192.782 95.8922 191.065 95.8937 189.354C96.7368 188.92 97.5921 189.32 98.4152 188.974C98.731 187.715 98.5057 186.398 98.5562 185.098C98.6068 183.841 98.5072 182.579 98.6222 181.237C99.4836 181.158 100.265 181.089 101.07 181.016C101.279 179.612 101.122 178.293 101.182 176.984C101.239 175.735 101.015 174.468 101.349 173.168C102.143 173.124 102.891 173.081 103.679 173.037C103.999 172.187 103.809 171.321 103.841 170.476C103.874 169.672 103.848 168.865 103.848 168.033C103.018 167.619 102.168 167.996 101.369 167.692C100.94 166.978 101.357 166.114 101.043 165.304C100.339 164.902 99.4729 165.324 98.6543 164.987C98.59 164.194 98.5256 163.406 98.4551 162.539C97.5998 162.474 96.8134 162.416 95.9443 162.352C95.906 161.542 95.8692 160.799 95.8355 160.067C95.0093 159.542 94.0574 160.078 93.2542 159.574C93.2158 158.846 93.176 158.096 93.1331 157.257C92.2931 157.198 91.5083 157.141 90.63 157.078C90.5625 156.233 90.4981 155.444 90.4307 154.599C89.5999 154.374 88.7844 154.542 87.9919 154.45L88.0226 154.493C87.9843 153.994 87.9214 153.494 87.9122 152.994C87.8938 152.036 87.9168 151.076 87.8969 150.118C87.8908 149.838 87.7927 149.559 87.7497 149.344C86.9113 148.95 86.0376 149.418 85.285 148.919C85.2482 148.165 85.2129 147.423 85.1777 146.72C84.3147 146.247 83.375 146.808 82.65 146.306C82.3787 145.498 82.7604 144.652 82.3296 143.856C81.4544 143.834 80.6021 143.815 79.7499 143.795L79.7959 143.841C79.9139 142.993 79.9583 142.147 79.7361 141.221C78.916 141.166 78.122 141.112 77.328 141.058L77.3648 141.095C77.2973 140.299 77.2284 139.504 77.1579 138.679C76.2627 138.405 75.4242 138.429 74.5812 138.63L74.6256 138.679C74.5168 137.787 74.6854 136.872 74.4846 135.955C73.5496 135.782 72.6942 135.849 71.8404 135.887L71.8803 135.929C71.8481 135.04 72.0428 134.132 71.7255 133.209C70.8027 133.186 69.9489 133.165 69.0936 133.145L69.135 133.185C69.2653 132.334 69.2377 131.489 69.1289 130.563C68.295 130.513 67.5516 130.467 66.7054 130.416C66.6273 129.605 66.5522 128.825 66.4709 127.979C64.7695 127.698 63.0895 128.008 61.3896 127.763C61.0677 126.975 61.3742 126.134 61.1182 125.308C60.2614 125.117 59.403 125.241 58.5553 125.207C57.7537 125.176 56.9443 125.264 56.1335 125.133C55.7487 124.329 56.1197 123.472 55.7978 122.655C55.0482 122.354 54.2082 122.658 53.356 122.397C53.2993 121.595 53.2425 120.807 53.1828 119.961C51.4859 119.659 49.809 119.972 48.1428 119.756C47.6339 119.024 48.1305 118.143 47.7213 117.303C46.9962 117.235 46.2145 117.162 45.3592 117.082C45.3132 116.27 45.2703 115.525 45.2258 114.723C44.4303 114.373 43.5857 114.698 42.7963 114.447C42.4054 113.691 42.7963 112.837 42.4851 112.036C41.7585 111.643 40.9032 112.048 40.0816 111.721C39.7137 111.01 40.1046 110.156 39.795 109.35C39.0791 108.947 38.2146 109.374 37.37 109.012C37.068 107.363 37.4007 105.637 37.1876 103.94L37.134 103.972C38.0261 103.903 38.9197 103.77 39.8057 104.038C39.8793 104.82 39.9498 105.605 40.0295 106.5C40.9262 106.481 41.7539 106.754 42.6184 106.271C42.5495 105.505 42.7349 104.758 42.459 103.917C41.5363 103.967 40.6457 103.721 39.7643 104.075C39.9988 103.143 40.0279 102.218 39.7398 101.249C38.8354 101.225 37.9847 101.2 37.134 101.177L37.1891 101.216C37.2673 100.366 37.3501 99.5186 37.1033 98.6126C36.2878 98.5497 35.5015 98.4884 34.6707 98.4256C34.6017 97.6039 34.5389 96.8634 34.4699 96.031C32.7347 95.959 31.0838 95.8884 29.3441 95.8164C29.3027 94.9732 29.2644 94.2297 29.226 93.4494C28.4734 93.0079 27.6181 93.4188 26.8226 93.1367C26.3474 92.4331 26.7873 91.5654 26.4639 90.713C26.2385 90.6671 25.9596 90.5689 25.6791 90.5628C24.6168 90.5429 23.5546 90.5597 22.4908 90.549C22.1489 90.5459 21.8071 90.5 21.3963 90.4678C21.335 89.6062 21.2783 88.8213 21.2185 87.9843C20.3049 87.7743 19.4465 87.8923 18.5989 87.8693C17.7942 87.8479 16.9894 87.8647 16.2245 87.8647C15.6972 87.04 16.1632 86.1646 15.7693 85.3414C14.963 85.1375 14.1046 85.2663 13.26 85.2387C12.4583 85.2111 11.6551 85.208 10.8397 85.1942C10.4749 84.3557 10.8151 83.5095 10.5224 82.674C9.72223 82.6188 8.93589 82.5636 8.08516 82.5054C7.8583 81.6132 8.03918 80.747 7.92575 79.91L7.8813 79.956H13.119C13.188 80.2457 13.2784 80.5217 13.3167 80.8038C13.3888 81.3434 13.2064 81.9136 13.5283 82.4977C15.1454 82.7338 16.8177 82.464 18.5437 82.6617C18.5882 83.4834 18.6295 84.2269 18.6755 85.0578C19.0235 85.1191 19.3546 85.2249 19.6872 85.228C21.4101 85.2464 23.1346 85.2341 24.8575 85.2402C25.3587 85.2418 25.8584 85.2709 26.3734 85.2893C26.8149 86.0757 26.4087 86.9434 26.7475 87.7544C28.4351 88.0564 30.1641 87.6838 31.8426 87.972C32.2488 88.7263 31.8763 89.5342 32.2166 90.3252C34.6661 90.7115 37.1937 90.4586 39.7321 90.6042C40.1184 91.4075 39.7536 92.2568 40.0678 93.1061C40.3575 93.1474 40.6947 93.2333 41.032 93.2364C42.8054 93.2532 44.5805 93.2394 46.354 93.2594C46.8016 93.264 47.2491 93.3513 47.6998 93.3973C48.1458 94.1102 47.6492 94.9778 48.0983 95.7781C48.3988 95.8133 48.736 95.8823 49.0747 95.8884C50.1247 95.9038 51.1747 95.8915 52.2247 95.8992C52.5681 95.9022 52.9329 95.8532 53.2103 96.1445C53.2548 96.8834 53.2946 97.6269 53.3376 98.4317C54.2695 98.5927 55.1279 98.5375 55.974 98.5114C56.811 98.4853 57.6801 98.7122 58.4925 98.3167C58.563 97.5272 58.6381 96.7822 58.4159 95.9835C56.7589 95.8394 55.1524 95.8471 53.546 95.9666C53.4142 95.9758 53.2931 96.1138 53.1659 96.192C53.3054 95.2476 53.3483 94.3049 53.1153 93.264C51.3571 93.2486 49.6511 93.1827 47.9435 93.3207C47.847 93.3283 47.7565 93.3943 47.663 93.4326C48.0937 92.5603 47.8822 91.6635 47.8163 90.6839C46.144 90.3896 44.4701 90.6947 42.8177 90.4892C42.3962 89.7013 42.8039 88.8459 42.459 88.0058C40.8296 87.6317 39.0945 88.0824 37.3164 87.7421C37.2612 86.9771 37.2075 86.2367 37.1493 85.4181C36.7768 85.3644 36.4411 85.2786 36.1039 85.274C34.3794 85.251 32.655 85.2525 30.9306 85.2356C30.4339 85.231 29.9358 85.1927 29.3456 85.1651C29.3012 84.3235 29.2628 83.5785 29.2184 82.7415C28.8812 82.6909 28.547 82.605 28.2098 82.5974C27.195 82.5774 26.1803 82.5974 25.1671 82.5836C24.8237 82.579 24.4804 82.5192 24.0818 82.4793C24.0113 81.6316 23.947 80.8436 23.8749 79.9744C22.1459 79.8012 20.4781 79.9974 18.8058 79.8502C18.4287 79.0316 18.7828 78.1823 18.4885 77.3698C17.6761 77.0663 16.8101 77.2579 15.9639 77.2211C15.1607 77.1859 14.356 77.2027 13.5712 77.1951C13.0899 76.3841 13.5467 75.5072 13.1451 74.7285C11.4804 74.336 9.73603 74.8297 8.02998 74.4249C7.98553 73.6125 7.94568 72.8659 7.90122 72.0258C7.0597 71.966 6.27488 71.9108 5.39963 71.848C5.33066 71.0018 5.26628 70.2123 5.19423 69.3201C4.41095 69.2756 3.66906 69.2342 2.84439 69.1882C2.47038 67.5372 2.79534 65.8524 2.48878 64.1339C1.69323 64.045 0.914553 63.9592 0.163463 63.8749C-0.0434699 62.5948 -0.0541997 60.1773 0.132806 58.7684C0.857838 58.3637 1.71929 58.793 2.5225 58.4435C2.82447 57.6448 2.6298 56.7771 2.66965 55.9293C2.70644 55.126 2.69571 54.3212 2.70644 53.5149C3.51424 53.0504 4.38796 53.4765 5.18044 53.0887C5.45175 51.479 5.18044 49.7928 5.54679 48.1187C7.18845 47.8642 8.81173 48.0451 10.4457 47.8688C10.8887 47.1069 10.4687 46.2469 10.7692 45.4605C11.2428 45.088 11.8238 45.2643 12.3587 45.2627C18.2923 45.2474 24.2275 45.2566 30.1611 45.2489C30.7068 45.2489 31.2678 45.3333 31.884 45.0987C31.9315 44.3491 31.9806 43.6071 32.0296 42.8391C32.7914 42.3991 33.659 42.8191 34.4561 42.462C34.8669 41.7552 34.4438 40.8906 34.7994 40.0567C35.1535 40.0276 35.5444 39.9908 35.9368 39.9632C36.2848 39.9402 36.6327 39.9279 37.0696 39.908C37.1309 39.5861 37.2244 39.3055 37.2305 39.0204C37.255 37.9549 37.2428 36.8895 37.2596 35.8256C37.2642 35.4792 37.3133 35.1342 37.3501 34.6943C38.1977 34.6329 38.9826 34.5762 39.8455 34.5149C39.8762 34.0611 39.9038 33.6687 39.9268 33.2762C39.9467 32.9283 39.9605 32.5787 39.9804 32.1464C40.3085 32.0836 40.589 31.987 40.8741 31.9809C41.8888 31.9609 42.9035 31.9793 43.9168 31.9655C44.3107 31.9594 44.7046 31.9073 45.0894 31.8751C45.471 31.0841 45.1568 30.293 45.3975 29.4775C45.6351 29.4315 45.9156 29.3334 46.1976 29.3288C47.2629 29.3088 48.3283 29.3257 49.392 29.315C49.7339 29.3119 50.0757 29.2629 50.4911 29.2276C50.6689 27.4922 50.557 25.8381 50.5739 24.1917C49.7538 23.7027 48.8877 24.1396 48.037 23.7901C47.7182 22.2019 48.0615 20.5263 47.8347 18.8523C47.0805 18.4414 46.2129 18.8676 45.3821 18.4905C45.3239 17.7255 45.2641 16.9376 45.1997 16.0959C44.2862 15.8844 43.4278 16.0024 42.5817 15.981C41.7769 15.961 40.9706 15.9764 40.1153 15.9764C39.7566 14.5905 39.9728 13.2752 39.9421 11.9798C39.9115 10.7243 39.89 9.46267 39.9697 8.2378C41.2466 7.93733 43.9275 7.93273 45.2243 8.22094C45.2718 8.93685 45.3208 9.68035 45.3699 10.4269C46.1164 10.8562 46.9196 10.4959 47.7289 10.781C47.7795 11.0064 47.8899 11.2839 47.896 11.5644C47.919 12.5777 47.8991 13.5926 47.9129 14.6074C47.9175 15.0029 47.9665 15.3984 48.0033 15.8905C48.8494 15.9457 49.6342 15.9978 50.4942 16.0546C50.5555 16.9161 50.6107 17.7041 50.672 18.5733C51.5258 18.6346 52.3152 18.6898 53.192 18.7526C53.2379 19.5529 53.2824 20.2979 53.3268 21.0736C54.0917 21.6025 55.0497 21.0445 55.8683 21.5565C55.9204 22.2739 55.9741 23.0159 56.0246 23.7395C57.1743 23.9878 59.5548 24.0185 61.1198 23.8054C61.4064 22.1911 61.106 20.5202 61.2961 18.8707C62.0947 18.4491 62.9485 18.8492 63.7885 18.5119C64.1441 16.8778 63.7348 15.147 64.0383 13.3856C64.866 13.3212 65.6524 13.2614 66.52 13.194C66.5721 12.3846 66.6211 11.6411 66.6717 10.8454C67.5286 10.5158 68.3946 10.6998 69.2361 10.6722C70.0424 10.6461 70.8518 10.6799 71.5753 10.6875C72.0029 11.1704 71.8772 11.6487 71.8788 12.0887C71.8895 16.2983 71.8864 20.5094 71.888 24.7191C71.888 25.2709 71.888 25.8228 71.888 26.4375C72.2022 26.5142 72.4336 26.6184 72.6666 26.62C76.6229 26.6292 80.5791 26.6261 84.5354 26.62C84.6841 26.62 84.8312 26.574 85.0274 26.5418C85.4811 25.8151 85.0443 24.9521 85.3647 24.1089C85.5961 24.0629 85.8782 23.9618 86.1617 23.9572C87.2271 23.9372 88.2924 23.9556 89.3562 23.9434C89.6995 23.9388 90.0413 23.8851 90.4445 23.8483C90.4997 23.0358 90.5518 22.2954 90.6054 21.5044C91.9497 21.1364 93.2664 21.3511 94.5617 21.3342C95.8201 21.3173 97.0878 21.2085 98.3233 21.4277C98.6145 22.487 98.6513 24.8294 98.4014 26.4989C97.681 26.807 96.8379 26.4881 95.9734 26.761C95.9198 27.5444 95.8661 28.3308 95.8079 29.1755C94.9771 29.4131 94.1938 29.3426 93.3645 29.2414C93.0181 28.4442 93.3492 27.598 93.0994 26.8453C92.0494 26.5801 89.8344 26.5433 88.0778 26.7625C87.6823 27.48 88.0916 28.3415 87.7452 29.1586C87.0354 29.5357 86.1817 29.1371 85.3202 29.479C85.265 30.2087 85.2068 30.9936 85.1409 31.8628C84.3009 31.9318 83.5084 31.9977 82.7297 32.0621C82.3542 32.8378 82.6868 33.6288 82.4308 34.4367C81.7426 34.8537 80.8765 34.4137 80.038 34.7724C79.9921 35.0545 79.9001 35.3918 79.8924 35.729C79.8664 36.7423 79.8802 37.7572 79.8618 38.772C79.8556 39.1154 79.7974 39.4588 79.7529 39.8942C78.9605 39.9417 78.2186 39.9862 77.4414 40.0322C77.0368 40.7987 77.446 41.6602 77.0674 42.5095C76.3225 42.5754 75.5346 42.6459 74.7176 42.7195C74.4876 43.5044 74.5796 44.2525 74.6317 45.0941C74.9736 45.1478 75.3062 45.2413 75.6403 45.2443C77.4154 45.2597 79.1904 45.2443 80.9654 45.2581C81.4636 45.2612 81.9802 45.1539 82.535 45.4544C82.6132 46.1458 82.696 46.8816 82.788 47.6971C86.2138 48.131 89.6014 47.8182 92.9982 47.9915C93.4013 48.7902 93.0196 49.6425 93.3523 50.5087C93.6849 50.5439 94.0727 50.6175 94.4605 50.619C97.0479 50.6298 99.6338 50.6221 102.221 50.6282C102.716 50.6282 103.211 50.6727 103.779 50.7003C103.825 51.5342 103.864 52.2808 103.91 53.1056C104.268 53.1638 104.603 53.2635 104.939 53.2665C106.663 53.2834 108.388 53.2696 110.112 53.2773C110.61 53.2788 111.11 53.314 111.616 53.334C112.044 54.1342 111.621 55.0049 112.001 55.796C113.644 56.0566 115.318 55.7791 116.999 55.9723C117.386 56.7694 117.021 57.6202 117.332 58.4664C117.626 58.5048 117.965 58.583 118.304 58.586C120.079 58.5998 121.854 58.5891 123.629 58.5968C124.075 58.5983 124.521 58.6351 125.056 58.6596C125.117 59.5196 125.174 60.306 125.237 61.1768C125.684 61.2151 126.074 61.2703 126.463 61.2749C126.859 61.2795 127.256 61.2335 127.749 61.2028C127.809 60.3582 127.864 59.5702 127.924 58.7317C128.808 58.4787 129.67 58.6243 130.516 58.5998C131.377 58.5753 132.24 58.5814 133.102 58.5998C133.951 58.6182 134.809 58.5078 135.717 58.7025C135.778 59.5457 135.835 60.3321 135.899 61.209C137.228 61.3485 138.488 61.2626 139.744 61.2795C140.961 61.2948 142.178 61.2826 143.395 61.2826H162.345C162.394 61.767 162.439 62.1564 162.471 62.5458C162.505 62.9428 162.526 63.3414 162.551 63.7016C163.081 64.0389 163.599 63.9255 164.094 63.9285C166.528 63.9408 168.964 63.9316 171.398 63.9362C171.898 63.9362 172.398 63.9607 172.859 63.973C173.363 64.7993 172.926 65.6715 173.296 66.5086C174.934 66.6557 176.602 66.4672 178.31 66.6281C178.351 67.0635 178.409 67.4038 178.411 67.7457C178.411 68.1902 178.368 68.6348 178.339 69.1499C176.558 69.3461 174.842 69.222 173.132 69.2434C171.357 69.2664 169.582 69.2388 167.807 69.2526C166.095 69.2664 164.378 69.1974 162.618 69.2971C162.408 70.1801 162.419 70.9619 162.586 71.7453C163.139 72.0687 163.711 71.9292 164.254 71.9308C169.376 71.943 174.499 71.9308 179.622 71.9461C180.168 71.9461 180.713 72.0641 181.259 72.127L181.228 72.0902C181.004 72.8368 181.118 73.5864 181.153 74.3008C181.584 74.6994 182.059 74.5798 182.496 74.5813C185.03 74.592 187.565 74.5813 190.099 74.589C190.594 74.589 191.087 74.6334 191.679 74.6626C191.728 75.5026 191.771 76.2446 191.819 77.0648C192.127 77.1169 192.412 77.2043 192.697 77.2089C193.761 77.2273 194.826 77.2089 195.89 77.2242C196.233 77.2288 196.575 77.2978 196.971 77.3422C197.02 78.1547 197.066 78.9028 197.118 79.7352C198.818 80.1384 200.547 79.7107 202.309 80.0296C202.371 80.8436 202.43 81.6285 202.495 82.4977C203.335 82.5606 204.123 82.6203 204.98 82.6847C205.05 83.5233 205.116 84.3097 205.187 85.1498C205.666 85.1851 206.063 85.2142 206.462 85.2433C206.808 85.2694 207.155 85.297 207.588 85.3292C207.664 86.1539 207.734 86.9388 207.809 87.7544C209.524 88.0318 211.198 87.7252 212.892 87.9536C213.242 88.7431 212.914 89.5863 213.171 90.3988C213.919 90.7498 214.768 90.3896 215.628 90.7054C215.691 91.4688 215.757 92.2583 215.829 93.1122C217.498 93.428 219.174 93.0953 220.874 93.3191C221.2 94.0964 220.874 94.9395 221.169 95.7903C221.947 95.8562 222.739 95.9237 223.527 95.9896C223.898 96.7531 223.582 97.5441 223.82 98.3734C224.108 98.4179 224.442 98.5083 224.776 98.516C225.789 98.5359 226.804 98.516 227.817 98.5298C228.161 98.5344 228.504 98.5957 228.904 98.6356C228.975 99.4818 229.039 100.27 229.113 101.139C230.904 101.28 232.618 101.186 234.329 101.209C236.043 101.232 237.758 101.177 239.56 101.251C239.628 102.132 239.689 102.919 239.757 103.802C240.6 103.862 241.384 103.917 242.267 103.98C242.292 104.527 242.333 105.021 242.333 105.514C242.339 108.911 242.333 112.307 242.344 115.704C242.346 116.309 242.415 116.915 242.45 117.518C241.614 116.952 240.735 117.229 239.898 117.312C239.557 117.764 239.703 118.232 239.662 118.67C239.629 119.008 239.757 119.38 239.447 119.656C238.679 119.765 237.911 119.875 237.142 119.984C237.017 120.85 236.967 121.627 237.184 122.461C238.037 122.509 238.811 122.661 239.596 122.327C239.64 121.393 239.844 120.499 239.43 119.638C240.589 119.9 240.922 119.903 242.266 119.651C242.319 118.948 242.373 118.22 242.428 117.491C242.628 117.188 242.946 117.226 243.245 117.206C243.793 117.171 244.358 117.289 244.974 116.999C245.114 115.364 244.945 113.699 245.089 111.962C245.954 111.898 246.739 111.839 247.602 111.776C247.671 110.929 247.735 110.139 247.804 109.301C249.504 109.031 251.176 109.31 252.913 109.107C252.965 108.304 253.013 107.564 253.065 106.744C253.318 106.679 253.549 106.57 253.782 106.57C256.825 106.56 259.869 106.561 262.912 106.57C263.103 106.57 263.293 106.642 263.565 106.696C263.615 107.469 263.664 108.211 263.716 109.008C264.49 109.373 265.338 109.028 266.152 109.295C266.555 110.029 266.155 110.884 266.457 111.709C267.164 112.103 268.024 111.688 268.85 112.014C268.894 112.264 268.992 112.554 268.992 112.845C269.002 117.562 269.002 122.281 268.997 126.998C268.997 127.197 268.951 127.396 268.925 127.606C268.18 128.103 267.306 127.667 266.52 127.986C266.186 128.468 266.344 129.043 266.342 129.581C266.328 134.603 266.334 139.625 266.333 144.647C266.333 145.197 266.316 145.748 266.307 146.307C265.471 146.73 264.619 146.352 263.755 146.669C263.722 147.014 263.657 147.403 263.655 147.794C263.644 150.33 263.647 152.867 263.647 155.402C263.647 155.907 263.647 156.411 263.647 156.899C262.847 157.441 261.975 156.965 261.123 157.32C261.08 157.593 260.985 157.926 260.982 158.257C260.965 159.982 260.976 161.706 260.966 163.431C260.963 163.931 260.933 164.429 260.916 164.913C260.139 165.338 259.34 164.97 258.529 165.258C258.48 165.487 258.373 165.767 258.367 166.051C258.345 167.116 258.362 168.182 258.35 169.247C258.345 169.59 258.292 169.932 258.253 170.363C257.407 170.438 256.621 170.509 255.79 170.582C255.525 172.281 255.821 173.956 255.589 175.693C254.751 175.755 253.964 175.811 253.086 175.876C253.026 176.717 252.97 177.507 252.907 178.388C252.074 178.453 251.287 178.514 250.44 178.578C250.178 180.269 250.436 181.942 250.244 183.68C249.435 183.731 248.695 183.777 247.919 183.826C247.471 184.591 247.891 185.455 247.537 186.302C246.855 186.662 246.001 186.271 245.154 186.597C244.843 188.183 245.154 189.858 244.942 191.518C244.14 192.01 243.19 191.514 242.352 192.004C242.347 194.408 242.152 196.832 242.861 199.289C243.51 199.427 244.183 199.57 244.91 199.723C245.117 200.629 244.997 201.489 245.022 202.335C245.046 203.188 245.045 204.04 245.056 204.977C245.943 205.041 246.726 205.099 247.594 205.162C247.663 206.017 247.727 206.805 247.796 207.664C248.244 207.698 248.638 207.737 249.032 207.754C249.378 207.77 249.726 207.757 250.06 207.757C250.548 208.59 250.117 209.454 250.485 210.288C251.172 210.665 252.027 210.265 252.835 210.569C253.206 211.282 252.799 212.139 253.157 212.989C253.906 213.054 254.699 213.121 255.488 213.189C255.865 213.951 255.536 214.743 255.782 215.557C256.475 215.96 257.334 215.548 258.14 215.847C258.538 216.584 258.263 217.382 258.335 218.192C257.496 218.6 256.645 218.248 255.864 218.507C255.46 219.264 255.864 220.119 255.528 220.956C254.28 221.263 252.965 221.061 251.667 221.085C250.413 221.11 249.151 221.14 247.87 221.03C247.602 220.093 247.747 219.23 247.714 218.384C247.681 217.581 247.692 216.776 247.684 215.97C246.851 215.497 245.992 215.905 245.125 215.577C245.066 214.847 245.003 214.061 244.935 213.2C244.088 213.126 243.3 213.057 242.413 212.98C242.372 212.179 242.333 211.435 242.292 210.652C241.544 210.204 240.687 210.623 239.888 210.336C239.419 209.629 239.853 208.761 239.54 207.928C238.814 207.615 238.035 207.767 237.181 207.823C236.942 208.723 237.077 209.583 237.051 210.429C237.027 211.234 237.037 212.039 237.033 212.815C236.2 213.333 235.33 212.904 234.504 213.247C234.465 213.494 234.382 213.785 234.382 214.075C234.375 220.516 234.375 226.96 234.379 233.401C234.379 233.699 234.427 233.998 234.45 234.287C235.092 234.822 235.877 234.424 236.614 234.758C237.152 237.176 237.094 239.674 237.002 242.178C236.173 242.627 235.317 242.224 234.464 242.561C234.407 243.301 234.347 244.086 234.287 244.85C232.972 245.133 227.698 245.126 226.468 244.836C226.425 244.114 226.381 243.367 226.334 242.575C225.533 242.228 224.689 242.552 223.824 242.276C223.791 241.84 223.729 241.402 223.729 240.964C223.722 237.565 223.728 234.166 223.722 230.768C223.722 230.269 223.685 229.771 223.663 229.19C223.259 229.143 222.921 229.072 222.583 229.069C220.808 229.057 219.033 229.069 217.258 229.06C216.813 229.058 216.37 229.014 215.85 228.983C215.677 227.252 215.722 225.605 215.815 223.857C216.657 223.773 217.437 223.693 218.232 223.613C218.533 221.896 218.176 220.213 218.496 218.481C219.284 218.439 220.03 218.401 220.874 218.357C220.927 218.021 221.021 217.688 221.028 217.354C221.05 216.339 221.028 215.324 221.042 214.311C221.047 213.966 221.102 213.623 221.136 213.249C221.983 213.005 222.762 213.014 223.605 213.238C223.838 214.665 223.689 216.08 223.715 217.487C223.743 218.957 223.722 220.429 223.722 221.901V226.106C224.44 226.322 225.279 226.369 226.238 226.247C226.284 226.034 226.381 225.796 226.383 225.56C226.393 220.792 226.393 216.023 226.39 211.256C226.39 211.059 226.347 210.862 226.317 210.613C225.553 210.224 224.698 210.595 223.855 210.284C223.818 209.963 223.751 209.626 223.748 209.287C223.731 207.512 223.735 205.737 223.722 203.962C223.719 203.517 223.673 203.073 223.648 202.656C222.842 202.472 222.009 202.454 221.149 202.602C220.774 203.276 221.151 204.084 220.821 204.88C219.241 205.179 217.566 204.924 215.834 205.174C215.774 206.001 215.717 206.789 215.653 207.67C214.799 207.724 214.011 207.773 213.133 207.828C213.059 208.669 212.992 209.453 212.915 210.316C211.194 210.406 209.552 210.534 207.814 210.348C207.743 209.497 207.677 208.709 207.607 207.851C207.158 207.817 206.765 207.783 206.371 207.757C206.023 207.734 205.675 207.722 205.266 207.702C204.946 206.836 205.13 205.971 205.096 205.131C205.064 204.327 205.09 203.519 205.09 202.643C205.453 202.565 205.732 202.459 206.014 202.453C207.027 202.43 208.044 202.45 209.057 202.435C209.454 202.429 209.849 202.372 210.317 202.334C210.357 201.517 210.395 200.768 210.43 200.048C210.921 199.652 211.447 199.801 211.936 199.8C216.145 199.787 220.355 199.795 224.565 199.79C225.11 199.79 225.656 199.757 226.286 199.737C226.36 198.851 226.424 198.063 226.493 197.223C228.184 196.95 229.856 197.232 231.591 197.029C231.652 196.182 231.709 195.395 231.774 194.517C232.615 194.454 233.403 194.396 234.274 194.331C234.343 193.504 234.407 192.717 234.476 191.891C235.334 191.814 236.122 191.745 236.961 191.672C236.994 191.176 237.024 190.779 237.048 190.384C237.071 190.034 237.091 189.686 237.119 189.239C237.932 189.173 238.717 189.108 239.562 189.039C239.632 188.186 239.698 187.398 239.77 186.522C240.589 186.479 241.337 186.44 242.175 186.395C242.229 186.056 242.316 185.724 242.329 185.388C242.379 184.074 242.407 182.76 242.439 181.437C242.707 180.984 243.156 181.186 243.535 181.137C244.015 181.076 244.551 181.279 244.976 180.829C245.017 180.093 245.06 179.351 245.103 178.601C245.966 178.351 246.801 178.635 247.585 178.345C247.911 176.61 247.462 174.878 247.874 173.176C248.696 173.125 249.435 173.081 250.224 173.033C250.474 171.298 250.152 169.623 250.444 167.921C251.27 167.86 252.056 167.801 252.937 167.735C252.957 167.107 252.983 166.561 252.991 166.015C253.02 164.042 253.045 162.069 253.066 160.089C253.362 159.699 253.791 159.865 254.17 159.825C254.651 159.775 255.171 159.943 255.654 159.52C255.674 157.875 255.693 156.186 255.712 154.495C256.515 154.475 257.32 154.457 258.103 154.438C258.44 153.177 258.439 150.38 258.108 149.277C257.338 149.125 256.563 149.088 255.732 149.324C255.654 151.121 255.643 152.832 255.758 154.542C255.304 154.523 254.85 154.477 254.398 154.493C253.963 154.509 253.486 154.357 253.014 154.792C253.017 156.529 252.875 158.335 253.106 160.142C252.266 159.571 251.385 159.837 250.439 159.962C250.394 160.346 250.325 160.688 250.321 161.03C250.304 162.092 250.324 163.156 250.302 164.219C250.296 164.502 250.197 164.783 250.149 165.013C249.338 165.299 248.546 164.951 247.775 165.335C247.565 166.97 247.832 168.638 247.603 170.363C246.751 170.438 245.966 170.507 245.125 170.582C245.088 170.979 245.031 171.324 245.028 171.669C245.016 172.681 245.034 173.694 245.016 174.706C245.01 175.043 244.924 175.377 244.882 175.664C244.029 175.968 243.178 175.584 242.356 176.015C242.373 177.852 242.208 179.662 242.468 181.471L242.48 181.463ZM234.571 128.172C233.68 127.637 232.765 127.838 231.784 127.997C231.626 128.912 231.68 129.765 231.708 130.605C231.735 131.433 231.498 132.297 231.915 133.111C232.736 133.162 233.524 133.297 234.387 132.97C234.387 131.831 234.37 130.732 234.395 129.633C234.405 129.142 234.499 128.652 234.551 128.156C234.71 127.802 235.039 127.887 235.325 127.858C235.859 127.804 236.426 127.988 236.971 127.615C237.091 126.855 237.163 126.082 236.901 125.296C236.072 125.15 235.298 125.15 234.424 125.304C234.409 126.315 234.249 127.247 234.573 128.172H234.571ZM117.261 143.796C117.214 142.961 117.166 142.125 117.117 141.247C116.233 141.098 115.459 141.09 114.556 141.259C114.57 142.13 114.328 142.948 114.718 143.75H117.315C117.113 146.022 117.114 148.286 117.491 150.546C117.648 151.484 117.786 151.637 118.777 151.591C119.009 151.581 119.234 151.444 119.478 151.36C119.614 150.107 119.827 148.912 119.855 147.711C119.884 146.464 120.021 145.197 119.712 143.888C118.871 143.856 118.069 143.825 117.263 143.798L117.261 143.796ZM98.8015 58.4603C98.3953 59.3341 98.567 60.2202 98.6819 61.0909C99.9542 61.3408 107.698 61.35 109.015 61.1185C109.317 59.8921 109.308 59.6208 108.907 58.5922C108.435 58.5922 107.931 58.5922 107.427 58.5922C105.043 58.5922 102.658 58.5983 100.275 58.5876C99.7718 58.586 99.269 58.5262 98.7678 58.4925C98.4382 58.0387 98.6237 57.5145 98.5654 57.0239C98.5256 56.6866 98.4643 56.3524 98.406 55.9784C98.032 55.9508 97.7362 55.9094 97.4403 55.9094C94.4069 55.9155 91.3734 55.9293 88.3399 55.9477C88.2525 55.9477 88.1667 56.0382 88.0272 56.1148C87.8432 56.8675 87.857 57.6463 88.0379 58.5017C88.3751 58.5339 88.6664 58.586 88.9592 58.5876C91.8915 58.5922 94.8253 58.5937 97.7576 58.583C98.1071 58.583 98.4566 58.5002 98.8 58.4603H98.8015ZM42.5219 74.6917C42.5617 75.1056 42.6184 75.4505 42.623 75.7954C42.6368 76.8088 42.6154 77.8236 42.6368 78.8369C42.643 79.1726 42.7349 79.5053 42.7886 79.8456C43.6271 79.8901 44.3735 79.9284 45.1982 79.9713C45.2687 80.8405 45.3331 81.63 45.4036 82.4854C46.2436 82.5544 47.0284 82.6204 47.7596 82.6801C48.1121 83.5264 47.6799 84.391 48.1091 85.0946C49.4319 85.2816 58.911 85.3675 62.904 85.2295C63.1998 85.2188 63.4926 85.1513 63.8482 85.1023C63.908 84.2745 63.9647 83.4911 64.023 82.6909C65.7612 82.4134 67.4381 82.7829 69.135 82.4517C69.1687 82.0072 69.2178 81.6116 69.2239 81.2161C69.2362 80.2534 69.2162 79.2891 69.2361 78.3264C69.2438 77.9876 69.3327 77.6519 69.391 77.2763C69.8677 77.2518 70.2678 77.2411 70.6663 77.2089C71.0495 77.1782 71.4312 77.1276 71.9125 77.0755C71.8297 75.2742 72.0351 73.5695 71.7991 71.9599C71.2794 71.4969 70.7414 71.6196 70.2524 71.5414C69.8416 71.4755 69.6086 71.2394 69.5933 70.8347C69.5473 69.5745 69.0721 68.3604 69.1932 67.0819C69.2055 66.9547 69.0875 66.8167 69.0353 66.7002C68.2674 66.3338 67.3891 66.8289 66.6564 66.3261C66.6395 65.9521 66.6319 65.598 66.6073 65.2454C66.5797 64.8544 66.5353 64.4651 66.4939 64.0282C65.6202 63.9454 64.8323 63.8718 64.1011 63.8028C63.7379 62.9489 64.2054 62.0797 63.6857 61.278C62.8841 61.278 62.0747 61.2933 61.2669 61.2734C60.4239 61.2534 59.567 61.3684 58.6703 61.1645C58.6013 60.2999 58.54 59.5135 58.471 58.632C57.1283 58.5569 55.8683 58.5692 54.6129 58.5998C53.3146 58.6305 52.0025 58.4373 50.7486 58.7286C50.4114 59.5625 50.8115 60.418 50.3899 61.212C48.7345 61.4083 47.0621 61.117 45.4588 61.3853C45.1124 62.2024 45.5232 63.0624 45.1124 63.7982C44.3107 64.0757 43.46 63.7507 42.689 64.1048C42.5035 65.8156 42.7917 67.4881 42.5111 69.0809C41.665 69.432 40.8082 69.0242 40.0831 69.4105C39.8716 70.8592 39.89 73.2568 40.1291 74.4801C40.894 74.5476 41.6834 74.6181 42.5234 74.6917H42.5219ZM111.89 63.7216C113.353 64.0144 115.991 63.9883 117.085 63.7016C117.198 62.7634 117.142 61.9566 116.918 61.281C115.546 61.281 114.141 61.2718 112.735 61.2902C112.456 61.2933 112.18 61.4067 111.89 61.4711V63.7231V63.7216ZM18.5498 61.1247C18.6525 60.2662 18.7185 59.4828 18.5161 58.7332C16.922 58.5186 14.6043 58.5416 13.4486 58.7792C13.2891 59.5441 13.2769 60.3229 13.4593 61.0894C14.5982 61.3301 16.9419 61.3515 18.5498 61.1247ZM226.58 141.193C226.307 142.813 226.346 145.343 226.658 146.476C227.362 146.503 228.093 146.575 228.883 146.431C229.14 145.545 229.028 144.69 229.014 143.853C229.001 142.976 229.208 142.064 228.783 141.139C228.348 141.139 227.951 141.133 227.554 141.141C227.258 141.147 226.964 141.172 226.582 141.193H226.58ZM77.5595 53.2987C77.1747 54.286 77.1686 54.5818 77.4751 55.7745C78.9375 55.9738 81.2168 55.9554 82.4829 55.7147C82.5672 54.9559 82.6515 54.1817 82.3802 53.3294C80.7432 53.2267 79.1398 53.2696 77.5579 53.2972L77.5595 53.2987ZM63.7379 101.147C64.0306 100.287 64.0383 99.445 63.7271 98.5758C62.8841 98.5421 62.0962 98.3734 61.2501 98.749C61.3037 99.5416 61.1075 100.326 61.4141 101.148H63.7379V101.147ZM226.281 154.369C226.442 153.508 226.554 152.686 226.16 151.806C225.395 151.823 224.65 151.713 223.786 151.901C223.774 152.773 223.564 153.595 223.93 154.426C224.73 154.495 225.474 154.55 226.281 154.369ZM114.447 135.92C113.494 135.871 112.707 135.742 111.897 136.027C111.861 136.872 111.677 137.652 112.051 138.428C112.885 138.509 113.667 138.651 114.447 138.299V135.918V135.92ZM229.155 138.431C229.994 138.492 230.806 138.684 231.645 138.294C231.682 137.474 231.841 136.688 231.51 135.91C230.675 135.875 229.887 135.736 229.091 136.028C229.01 136.838 228.959 137.572 229.155 138.429V138.431ZM223.673 127.996C222.731 127.819 221.95 127.764 221.116 128.031C221.022 128.834 221.002 129.57 221.137 130.382C222.028 130.484 222.849 130.64 223.671 130.277V127.996H223.673ZM45.4082 109.114C46.3018 109.18 47.0376 109.247 47.8286 109.065C47.9451 108.228 48.0079 107.458 47.7672 106.645C46.9364 106.532 46.1654 106.429 45.3821 106.737C45.2733 107.533 45.2565 108.266 45.4082 109.114Z" fill="#2B5F0D"/>
<path d="M88.002 154.452C87.9407 155.298 87.8809 156.146 87.815 157.061C86.8999 157.251 86.043 157.147 85.1969 157.164C84.3355 157.182 83.474 157.167 82.611 157.167C81.7496 157.167 80.8866 157.179 80.0251 157.164C79.1729 157.149 78.3129 157.238 77.4668 157.09C77.0591 156.289 77.4392 155.43 77.1066 154.584C75.4113 154.362 73.6991 154.51 71.9961 154.484C70.2226 154.457 68.4476 154.478 66.6726 154.478C64.8976 154.478 63.2314 154.478 61.4425 154.478C61.3674 154.826 61.277 155.104 61.2525 155.387C61.2049 155.93 61.3092 156.49 61.1007 157.104C60.3297 157.15 59.5847 157.195 58.7493 157.244C58.6926 157.595 58.5976 157.924 58.593 158.256C58.5746 159.569 58.5853 160.883 58.5853 162.195C57.7683 162.68 56.9007 162.255 56.0791 162.592C55.7358 164.26 56.1681 165.994 55.8094 167.749C55.0154 167.791 54.2689 167.831 53.4273 167.874C53.3768 168.214 53.2909 168.547 53.2863 168.881C53.2695 170.194 53.2802 171.508 53.2802 172.888C52.9843 172.966 52.7544 173.081 52.5245 173.081C49.4328 173.092 46.3395 173.089 43.2478 173.081C43.1052 173.081 42.9627 173.017 42.7373 172.963C42.5273 172.137 42.6561 171.278 42.6346 170.434C42.6132 169.572 42.6162 168.709 42.6346 167.847C42.6515 167 42.5503 166.141 42.7343 165.229C43.6325 165.054 44.4909 165.169 45.3386 165.128C46.1356 165.09 46.9434 165.192 47.788 165.03C48.09 163.324 47.7405 161.643 48.0563 159.922C48.8671 159.85 49.6566 159.778 50.4904 159.703C50.7495 157.995 50.4567 156.322 50.6882 154.578C51.5159 154.517 52.3022 154.458 53.0671 154.402C53.343 153.286 53.3737 151.011 53.1346 149.304C52.3436 149.019 51.4791 149.194 50.6406 149.165C49.7792 149.134 48.9177 149.151 48.0547 149.16C47.204 149.168 46.3533 149.191 45.4152 149.208C45.337 150.088 45.268 150.87 45.1991 151.656C44.2671 151.887 43.4057 151.754 42.5534 151.786C41.7517 151.817 40.9455 151.737 40.1009 151.863C39.779 152.677 40.0779 153.517 39.8234 154.348C38.1863 154.674 36.5094 154.305 34.8126 154.567C34.4738 155.335 34.8003 156.183 34.5305 156.974C33.7779 157.383 32.9241 156.977 32.0657 157.32C32.0105 158.053 31.9508 158.84 31.8849 159.718C30.1926 159.936 28.5172 159.706 26.8878 159.864C26.3482 160.649 26.8342 161.528 26.4203 162.369C24.8369 162.569 23.1676 162.321 21.4861 162.508C21.1581 163.324 21.4646 164.165 21.2163 164.969C20.4453 165.307 19.6007 164.973 18.7914 165.244C18.4465 166 18.7929 166.848 18.4925 167.717C17.7322 167.775 16.9443 167.835 16.0598 167.903C15.9924 168.723 15.9296 169.512 15.8636 170.319C15.6077 170.372 15.413 170.447 15.2183 170.449C12.1266 170.454 9.03332 170.449 5.94159 170.44C5.80057 170.44 5.65802 170.36 5.42196 170.29C5.1997 168.655 5.32846 167.01 5.34225 165.32C6.17612 164.953 7.01918 165.274 7.79786 165.038C8.20099 164.273 7.79479 163.417 8.13968 162.58C8.3834 162.54 8.67004 162.457 8.95975 162.453C10.0235 162.436 11.0889 162.453 12.1526 162.439C12.4945 162.434 12.8363 162.375 13.2609 162.33C13.3145 161.533 13.3651 160.791 13.4203 159.968C13.7866 159.914 14.1223 159.831 14.4596 159.824C15.4728 159.802 16.4875 159.821 17.5007 159.801C17.8425 159.795 18.1813 159.716 18.563 159.666C18.609 158.853 18.6503 158.108 18.6979 157.259C19.5394 157.201 20.3273 157.147 21.1167 157.094C21.5413 156.296 21.1397 155.441 21.4861 154.572C22.2218 154.517 23.0082 154.457 23.888 154.391C23.9555 153.563 24.0214 152.772 24.0873 151.96C24.9595 151.648 25.8255 151.832 26.6732 151.795C27.4764 151.76 28.2812 151.776 29.1809 151.766C29.2576 150.945 29.3265 150.209 29.3894 149.467C29.6009 149.064 29.9872 149.192 30.3214 149.157C30.8517 149.102 31.4281 149.3 31.9278 148.884C31.9738 148.132 32.0458 147.391 31.8619 146.615C31.0127 146.47 30.234 146.458 29.371 146.631C29.3419 146.965 29.2867 147.256 29.2959 147.546C29.3189 148.199 29.3741 148.849 29.417 149.501C29.1165 149.142 28.6981 149.171 28.2965 149.168C27.2327 149.16 26.1689 149.16 25.1036 149.16C21.7589 149.16 18.4143 149.162 15.0696 149.157C14.5209 149.157 13.9737 149.122 13.4678 149.105C12.8976 148.363 13.3268 147.511 12.8976 146.752C12.3259 146.563 11.6851 146.615 11.0245 146.723C10.5631 147.405 10.9846 148.237 10.6658 148.913C9.6112 149.222 7.17859 149.268 5.49247 149.008C5.0786 148.302 5.5032 147.437 5.14298 146.605C4.79656 146.576 4.40569 146.533 4.01328 146.514C3.66533 146.499 3.31584 146.511 2.92803 146.511C2.50804 145.625 2.73796 144.756 2.70117 143.92C2.66439 143.067 2.70424 142.208 2.70884 141.394C3.54117 140.9 4.41029 141.333 5.23342 140.985C5.27941 140.238 5.32692 139.498 5.37138 138.791C6.45509 138.432 9.15135 138.399 10.5784 138.722C10.606 139.088 10.6413 139.479 10.6658 139.873C10.6888 140.221 10.7026 140.569 10.724 141.014C11.1471 141.058 11.5334 141.132 11.9212 141.133C14.5056 141.144 17.0899 141.133 19.6743 141.141C20.1678 141.141 20.6614 141.186 21.2286 141.213C21.2914 142.093 21.3481 142.88 21.411 143.75C23.1339 143.899 24.7802 143.793 26.5077 143.824C26.5828 142.899 26.6456 142.113 26.7177 141.236C27.1698 141.199 27.5577 141.143 27.9455 141.141C30.4792 141.133 33.013 141.141 35.5468 141.135C36.0465 141.135 36.5462 141.104 37.0612 141.087C37.4858 140.304 37.0551 139.432 37.4199 138.708C37.9595 138.388 38.5297 138.515 39.0739 138.514C43.2294 138.503 47.3849 138.514 51.5404 138.503C52.0861 138.503 52.6594 138.629 53.225 138.268C53.2633 137.552 53.3016 136.806 53.3446 135.99C55.0246 135.688 56.6953 135.984 58.3493 135.802C58.8045 135.017 58.3861 134.154 58.7432 133.303C59.433 132.984 60.2791 133.321 61.0655 133.071C61.4701 132.32 61.0624 131.465 61.3996 130.631C62.1354 130.366 62.9217 130.479 63.7464 130.559C64.1373 131.344 63.7633 132.196 64.0698 133.024C64.8592 133.318 65.7238 133.13 66.5668 133.165C67.4267 133.2 68.2897 133.18 69.1512 133.185L69.1098 133.145C69.4348 133.991 68.9672 134.954 69.4746 135.805C70.2931 135.848 71.0948 135.889 71.8965 135.93L71.8566 135.889C71.8888 136.689 71.921 137.49 71.9578 138.382C72.3855 138.428 72.7733 138.468 73.1611 138.511C73.6546 138.566 74.1482 138.622 74.6418 138.679L74.5973 138.63C74.6081 139.412 74.5391 140.2 74.6694 141.055C75.6167 141.195 76.4981 141.143 77.381 141.095L77.3442 141.058C77.2292 141.949 77.2231 142.835 77.3595 143.781C78.2286 143.939 79.0196 143.89 79.8121 143.841L79.7661 143.795C79.8948 145.533 79.7446 147.292 80.0113 148.981C80.859 149.356 81.7189 148.95 82.5037 149.381C82.5405 150.135 82.5773 150.876 82.6126 151.585C83.4679 152.055 84.409 151.501 85.1356 151.999C85.4146 152.801 85.0283 153.65 85.4575 154.446C86.3343 154.463 87.185 154.478 88.0373 154.494L88.0066 154.451L88.002 154.452Z" fill="#2B5F0D"/>
<path d="M53.3409 77.0373C53.298 76.2447 53.2566 75.5012 53.2137 74.6903C52.3384 74.6152 51.549 74.5462 50.6661 74.4695C50.6247 73.6662 50.5864 72.9243 50.5465 72.1378C49.7985 71.6902 48.9417 72.1194 48.1262 71.8144C47.7537 71.0877 47.9377 70.2936 47.9913 69.4444C48.189 69.3784 48.3699 69.265 48.5508 69.265C52.6021 69.2573 56.6518 69.2619 60.7031 69.2681C60.7982 69.2681 60.8947 69.3171 61.071 69.3662C61.4711 70.0683 61.0695 70.9206 61.353 71.7301C62.0735 72.2344 63.0177 71.6672 63.8408 72.1256C63.8684 72.3019 63.9221 72.495 63.9236 72.6882C63.9313 74.1016 63.9282 75.5166 63.9282 76.9744C63.6998 77.0603 63.522 77.1875 63.3442 77.1875C60.1544 77.1952 56.9645 77.1891 53.7747 77.1814C53.6812 77.1814 53.5892 77.1216 53.3409 77.0388V77.0373Z" fill="#2B5F0D"/>
</svg>
