<svg width="318" height="314" viewBox="0 0 318 314" fill="none" xmlns="http://www.w3.org/2000/svg">
<path d="M84.6994 0.216446C84.741 1.14359 84.7789 1.96772 84.8187 2.84246C85.7114 3.39007 86.7234 2.88764 87.7227 3.25452C87.7805 3.51477 87.9143 3.84551 87.9179 4.17624C87.9378 5.83896 87.9215 7.50348 87.9179 9.22584C86.2879 9.64514 84.7392 9.39392 83.2122 9.42645C81.7339 9.45899 80.2485 9.50055 78.7143 9.37585C78.389 8.29508 78.5643 7.27938 78.5354 6.28536C78.5046 5.27147 78.5137 4.25396 78.5317 3.24006C78.5498 2.23882 78.445 1.22854 78.6167 0.267051C80.0696 -0.0654926 82.8724 -0.0926021 84.6976 0.214639L84.6994 0.216446Z" fill="#E8793E"/>
<path d="M213.706 85.0276C213.404 83.9866 213.534 82.942 213.614 81.8251C214.568 81.5215 215.484 81.6227 216.446 81.7347C216.847 82.727 216.657 83.683 216.567 84.6626C215.499 84.7782 214.581 84.8776 213.664 84.9807C213.668 84.9861 213.704 85.0276 213.704 85.0276H213.706Z" fill="#E8793E"/>
<path d="M9.36186 94.2065H6.52831C6.07653 93.1149 6.2735 92.1534 6.36025 91.1612C7.38126 90.9696 8.24868 91.0058 9.21368 91.1124C9.52631 92.1697 9.41607 93.2143 9.30945 94.2607L9.36005 94.2065H9.36186Z" fill="#E8793E"/>
<path d="M43.8614 122.536C43.2795 122.485 42.6958 122.446 42.1157 122.377C41.776 122.337 41.4417 122.252 41.0459 122.176V119.666C41.982 119.185 42.9651 119.587 43.8614 119.324L43.7963 119.279C43.7963 120.378 43.7963 121.475 43.7963 122.574L43.8596 122.536H43.8614Z" fill="#E8793E"/>
<path d="M285.868 213.933C284.885 213.223 283.837 213.57 282.794 213.678C282.337 214.569 282.727 215.507 282.438 216.422C281.612 216.924 280.584 216.391 279.659 216.81C279.24 217.681 279.684 218.692 279.278 219.704C278.374 219.765 277.449 219.827 276.428 219.895C276.357 220.9 276.292 221.829 276.22 222.861C275.223 222.932 274.294 222.997 273.265 223.069C273.19 224.05 273.115 224.976 273.041 225.935C271.037 226.304 269.059 225.896 267.02 226.223C266.955 227.157 266.895 228.028 266.827 229.008C266.529 229.071 266.256 229.181 265.981 229.181C259.291 229.19 252.603 229.19 245.913 229.183C245.631 229.183 245.349 229.098 245.004 229.042C244.74 227.088 244.984 225.176 244.778 223.253C243.918 222.691 242.881 223.255 241.901 222.771C241.84 221.883 241.775 220.954 241.701 219.912C240.701 219.843 239.776 219.778 238.764 219.709C238.721 219.292 238.661 218.948 238.654 218.605C238.432 209.668 238.553 187.189 238.845 185.387C239.742 185.322 240.667 185.255 241.636 185.184C241.93 184.107 241.767 183.092 241.796 182.092C241.825 181.076 241.782 180.061 241.807 179.045C241.833 178.044 241.684 177.03 241.952 175.964C242.877 175.891 243.752 175.823 244.709 175.748C244.775 175.362 244.874 175.026 244.878 174.689C244.896 173.375 244.91 172.06 244.87 170.746C244.856 170.289 244.679 169.837 244.581 169.387C245.693 169.651 246.795 169.629 247.868 169.425C248.241 168.431 247.809 167.433 248.262 166.477C249.193 166.412 250.118 166.349 251.127 166.278C251.155 165.586 251.186 165.002 251.204 164.418C251.249 163.052 251.289 161.688 251.327 160.318C252.256 160.238 253.187 160.162 254.217 160.077C254.267 159.56 254.303 159.101 254.361 158.644C254.426 158.125 254.513 157.61 254.585 157.09C255.173 157.056 255.765 157.041 256.354 156.989C256.691 156.958 257.021 156.868 257.359 156.803C257.448 155.783 257.592 154.852 257.231 153.898C256.279 153.822 255.411 153.734 254.486 153.985C254.361 155.078 254.128 156.119 254.636 157.139C253.534 156.927 252.437 156.9 251.295 157.16C251.197 158.283 251.065 159.329 251.374 160.37C250.283 160.057 249.198 160.034 248.089 160.388C248.044 161.333 248.002 162.206 247.957 163.157C246.936 163.244 246.011 163.323 245.022 163.406C244.968 163.891 244.89 164.292 244.885 164.695C244.867 165.94 244.883 167.184 244.874 168.429C244.872 168.776 244.934 169.15 244.605 169.41C243.779 169.486 242.953 169.562 242.017 169.647C241.95 169.934 241.834 170.261 241.805 170.594C241.746 171.236 241.869 171.899 241.614 172.618C240.663 172.689 239.738 172.757 238.744 172.831C238.502 174.865 238.777 176.836 238.553 178.899C238.085 178.958 237.626 179.018 237.167 179.077C236.706 179.137 236.245 179.199 235.712 179.267C235.267 183.332 235.614 187.326 235.401 191.4C234.394 191.476 233.469 191.546 232.499 191.62C232.186 192.686 232.36 193.704 232.329 194.702C232.296 195.716 232.32 196.733 232.32 197.749C232.32 198.764 232.325 199.78 232.32 200.796C232.314 201.803 232.298 202.809 232.286 203.888C230.263 204.286 228.292 203.888 226.297 204.156C225.847 205.066 226.281 206.068 225.914 207.071C223.998 207.492 221.962 207.009 219.88 207.365C219.798 208.34 219.723 209.268 219.641 210.243C218.228 210.559 216.855 210.358 215.497 210.396C214.184 210.432 212.868 210.403 211.554 210.405C210.188 210.407 208.82 210.412 207.342 210.418C207.252 211.464 207.17 212.393 207.087 213.366C206.742 213.425 206.458 213.505 206.169 213.519C202.618 213.676 180.698 213.559 179.22 213.371C178.728 212.547 179.234 211.524 178.8 210.523C178.331 210.487 177.814 210.412 177.299 210.411C173.296 210.4 169.293 210.407 165.29 210.402C164.703 210.402 164.116 210.36 163.512 210.337C163.068 209.37 163.491 208.37 163.122 207.376C162.744 207.331 162.347 207.246 161.947 207.242C159.856 207.228 157.766 207.242 155.675 207.232C155.149 207.23 154.623 207.179 154 207.147C153.922 206.142 153.848 205.215 153.768 204.183C152.708 204.107 151.723 204.036 150.676 203.96C150.523 203.08 150.382 202.274 150.228 201.389C149.382 201.269 148.582 201.156 147.7 201.029C147.649 200.481 147.574 200.019 147.572 199.556C147.561 196.509 147.57 193.462 147.563 190.415C147.563 189.829 147.519 189.244 147.498 188.692C145.936 188.289 145.443 188.302 144.129 188.741C144.225 188.277 144.395 187.816 144.398 187.351C144.426 184.901 144.418 182.448 144.398 179.997C144.395 179.668 144.247 179.341 144.16 178.998C143.186 178.974 142.302 178.796 141.353 179.195C141.344 180.697 141.297 182.188 141.335 183.675C141.373 185.201 141.14 186.748 141.509 188.334C142.188 188.365 142.777 188.392 143.367 188.418C143.663 188.43 143.967 188.423 144.149 188.727C144.232 189.003 144.377 189.278 144.386 189.558C144.418 190.514 144.409 191.472 144.409 192.428C144.409 204.989 144.409 217.548 144.409 230.108C144.409 230.763 144.409 231.415 144.409 232.044C143.455 232.65 142.427 232.118 141.543 232.498C141.196 233.074 141.332 233.685 141.33 234.265C141.317 238.212 141.326 242.16 141.319 246.107C141.319 246.692 141.265 247.276 141.232 247.972C140.211 248.044 139.286 248.109 138.294 248.18C138.074 249.246 138.198 250.258 138.177 251.259C138.155 252.275 138.171 253.293 138.171 254.31C138.171 255.328 138.171 256.343 138.171 257.361C138.171 258.378 138.171 259.394 138.171 260.411C138.171 261.425 138.171 262.439 138.171 263.412C137.203 264.129 136.069 263.442 135.086 264.048C134.909 265.486 135.027 266.976 135.005 268.459C134.983 269.949 135 271.438 135 272.909C134.018 273.487 132.999 272.972 131.973 273.392C131.895 274.302 131.81 275.286 131.72 276.346C131.237 276.413 130.838 276.475 130.437 276.52C130.026 276.565 129.614 276.592 129.119 276.634C128.794 278.53 128.783 280.426 128.619 282.406C127.585 282.695 126.571 282.52 125.583 282.574C124.634 282.627 123.682 282.618 122.713 282.636C122.166 283.576 122.65 284.588 122.288 285.582C122.008 285.636 121.674 285.748 121.338 285.753C120.082 285.777 118.826 285.753 117.57 285.77C117.165 285.775 116.76 285.842 116.296 285.887C116.233 286.841 116.175 287.722 116.121 288.542C115.606 289.016 115.042 288.876 114.52 288.878C111.65 288.893 108.778 288.886 105.909 288.886C105.256 288.886 104.604 288.886 104.087 288.886C103.509 289.37 103.682 289.881 103.643 290.339C103.603 290.805 103.59 291.273 103.561 291.824C101.545 292.193 99.573 291.819 97.587 292.068C97.0377 292.947 97.5165 293.957 97.184 294.96C96.9148 295.016 96.5841 295.137 96.2498 295.144C94.9938 295.171 93.7379 295.151 92.4819 295.168C92.0753 295.173 91.6705 295.242 91.2061 295.287C91.1212 296.288 91.0435 297.217 90.9585 298.236C89.9755 298.287 89.0936 298.332 88.1738 298.381C87.6407 299.263 88.1521 300.279 87.7979 301.204C86.9558 301.748 85.9221 301.213 84.9716 301.641C84.48 302.457 85.0059 303.483 84.574 304.464C83.7156 304.515 82.8374 304.566 81.8688 304.623C81.7838 304.958 81.6664 305.281 81.6248 305.616C81.5471 306.254 81.7188 306.921 81.417 307.629C80.5315 307.683 79.6551 307.737 78.7551 307.793C78.2708 308.721 78.7352 309.735 78.3449 310.676C77.4901 311.148 76.4818 310.663 75.4716 311.072C75.4047 311.939 75.3343 312.865 75.2656 313.779C75.0288 313.861 74.8626 313.967 74.6945 313.969C71.1074 313.987 67.5185 313.996 63.9314 314C63.6404 314 63.3495 313.94 62.9465 313.897C62.6736 311.905 62.8616 309.959 62.8218 308C63.7651 307.427 64.7825 307.942 65.7204 307.568C66.2553 306.74 65.7078 305.71 66.1613 304.694C68.0154 304.334 69.9888 304.714 71.9567 304.464C72.4736 303.584 71.9459 302.558 72.4085 301.569C73.294 301.495 74.2229 301.416 75.1933 301.334C75.5312 300.414 75.2439 299.498 75.4535 298.565C76.2884 298.045 77.2986 298.527 78.3196 298.182C78.3774 297.855 78.475 297.467 78.5112 297.071C78.5654 296.492 78.5762 295.909 78.6105 295.244C79.6063 295.188 80.4827 295.139 81.4802 295.081C81.5579 294.094 81.6302 293.167 81.7079 292.193C82.6549 291.781 83.6506 292.168 84.5306 291.877C84.8216 290.545 84.8523 287.879 84.5921 285.884C83.6976 285.687 82.7723 285.721 81.7152 285.885C81.6338 286.822 81.5525 287.751 81.4658 288.759C80.9363 288.801 80.4683 288.862 80.0002 288.871C65.6011 289.113 30.3462 289.001 28.4505 288.698C28.0909 287.205 28.315 285.656 28.2987 284.127C28.2825 282.643 28.165 281.148 28.3981 279.683C29.0469 279.263 29.7245 279.441 30.3625 279.439C38.6155 279.424 46.8686 279.43 55.1199 279.43C61.1593 279.43 67.2004 279.433 73.2398 279.424C73.8831 279.424 74.5445 279.524 75.271 279.249C75.3306 278.367 75.3885 277.494 75.4535 276.529C77.4052 276.063 79.3876 276.549 81.3592 276.224C81.8814 275.345 81.3754 274.322 81.7838 273.366C82.6404 272.994 83.6379 273.386 84.6174 273.059C84.8722 272.119 84.7258 271.194 84.7132 270.155C83.6795 270.077 82.7524 270.006 81.7188 269.929C81.6393 268.944 81.5616 268.013 81.482 267.023C79.4888 266.665 77.51 267.059 75.4626 266.75C75.3957 265.781 75.3324 264.852 75.2656 263.889C74.2138 263.798 73.2796 263.717 72.3742 263.639C72.1176 261.919 72.1375 259.072 72.4158 257.581C72.8477 257.549 73.3103 257.513 73.7711 257.478C74.2355 257.444 74.6981 257.413 75.2602 257.375C75.3324 256.369 75.3975 255.438 75.4698 254.449C76.4221 254.229 77.3004 254.303 78.2708 254.386C78.3503 254.724 78.4624 255.051 78.5021 255.385C78.5762 256.023 78.4081 256.688 78.7099 257.399C79.5972 257.449 80.4755 257.498 81.3736 257.549C81.8471 258.487 81.3899 259.501 81.7965 260.478C82.6531 260.843 83.647 260.467 84.6463 260.786C84.715 261.713 84.7854 262.638 84.8577 263.601C86.869 264.022 88.8587 263.536 90.8013 263.898C91.3742 264.78 90.8194 265.814 91.2676 266.746C91.4772 266.782 91.7031 266.858 91.9308 266.858C94.5619 266.862 97.1931 266.858 99.8242 266.845C99.9869 266.845 100.15 266.739 100.417 266.647C100.459 265.785 100.5 264.906 100.545 263.979C101.494 263.572 102.499 263.961 103.442 263.609C103.856 262.719 103.451 261.716 103.796 260.737C104.279 260.708 104.743 260.675 105.209 260.65C105.62 260.628 106.03 260.61 106.554 260.587C106.615 260.068 106.715 259.614 106.717 259.161C106.731 256.11 106.72 253.061 106.729 250.01C106.731 249.423 106.632 248.818 106.946 248.158C107.812 248.116 108.694 248.073 109.518 248.033C110.004 247.609 109.868 247.101 109.87 246.642C109.883 243.591 109.874 240.542 109.883 237.491C109.883 236.906 109.93 236.322 109.959 235.641C110.98 235.568 111.907 235.501 112.926 235.429C113.166 233.338 113.011 231.316 113.04 229.301C113.069 227.276 113.05 225.252 113.052 223.235C114.046 222.724 115.055 223.196 116.025 222.787C116.397 221.303 116.132 219.751 116.191 218.218C116.251 216.736 116.133 215.249 116.269 213.666C117.285 213.573 118.206 213.492 119.155 213.405C119.401 211.75 119.216 210.196 119.287 208.652C119.354 207.179 119.09 205.686 119.484 204.154C120.42 204.101 121.302 204.051 122.231 203.998C122.608 202.997 122.384 201.976 122.422 200.98C122.46 200.031 122.429 199.081 122.429 198.099C121.452 197.611 120.449 198.056 119.507 197.698C119.001 196.856 119.493 195.837 119.122 194.882C118.293 194.409 117.272 194.906 116.307 194.508C116.231 193.574 116.155 192.645 116.072 191.622C115.064 191.546 114.137 191.477 113.112 191.401C113.067 190.447 113.023 189.571 112.984 188.709C112.01 188.089 110.887 188.721 109.94 188.127C109.895 187.268 109.848 186.384 109.798 185.396C108.807 185.325 107.882 185.258 106.847 185.184C106.767 184.189 106.691 183.258 106.612 182.262C105.632 181.996 104.671 182.195 103.737 182.087L103.773 182.137C103.728 181.548 103.653 180.959 103.643 180.37C103.621 179.24 103.648 178.109 103.625 176.979C103.617 176.648 103.502 176.32 103.451 176.067C102.463 175.602 101.433 176.153 100.545 175.566C100.502 174.677 100.46 173.802 100.419 172.972C99.4014 172.416 98.2936 173.077 97.4388 172.484C97.119 171.532 97.569 170.534 97.0611 169.596C96.0293 169.571 95.0245 169.548 94.0198 169.524L94.074 169.578C94.2131 168.579 94.2656 167.581 94.0035 166.49C93.0367 166.425 92.1006 166.361 91.1646 166.298L91.2079 166.341C91.1284 165.403 91.0471 164.465 90.964 163.493C89.9086 163.17 88.9201 163.199 87.9262 163.435L87.9786 163.493C87.8503 162.441 88.0491 161.362 87.8124 160.282C86.71 160.077 85.7017 160.157 84.6951 160.202L84.7421 160.251C84.7041 159.203 84.9336 158.133 84.5596 157.045C83.4717 157.018 82.4651 156.992 81.4567 156.969L81.5055 157.016C81.6591 156.013 81.6266 155.017 81.4983 153.925C80.5152 153.866 79.6388 153.811 78.6413 153.752C78.5491 152.796 78.4606 151.876 78.3648 150.878C76.3589 150.547 74.3783 150.913 72.3742 150.623C71.9947 149.694 72.3561 148.704 72.0543 147.73C71.0442 147.504 70.0322 147.65 69.0328 147.611C68.0877 147.574 67.1336 147.677 66.1776 147.524C65.724 146.575 66.1613 145.565 65.7819 144.601C64.8982 144.247 63.9079 144.605 62.9031 144.298C62.8363 143.353 62.7694 142.424 62.6989 141.426C60.6984 141.07 58.7215 141.439 56.7571 141.184C56.1572 140.322 56.7427 139.283 56.2602 138.292C55.4054 138.213 54.4838 138.126 53.4754 138.032C53.4212 137.074 53.3706 136.196 53.3182 135.25C52.3803 134.838 51.3846 135.222 50.4539 134.925C49.9931 134.034 50.4539 133.027 50.0871 132.082C49.2305 131.62 48.2221 132.097 47.2535 131.712C46.8198 130.873 47.2806 129.866 46.9156 128.916C46.0717 128.441 45.0525 128.945 44.0567 128.518C43.7007 126.574 44.0929 124.539 43.8417 122.538L43.7785 122.576C44.8302 122.495 45.8837 122.337 46.9282 122.654C47.015 123.575 47.0981 124.501 47.1921 125.556C48.2493 125.534 49.2251 125.856 50.2443 125.287C50.163 124.383 50.3816 123.503 50.0564 122.511C48.9685 122.57 47.9185 122.279 46.8795 122.697C47.1559 121.598 47.1903 120.508 46.8505 119.366C45.7843 119.337 44.7814 119.308 43.7785 119.281L43.8435 119.326C43.9357 118.325 44.0333 117.326 43.7423 116.258C42.7809 116.183 41.8539 116.111 40.8744 116.037C40.7931 115.068 40.719 114.195 40.6377 113.214C38.592 113.129 36.6458 113.046 34.5947 112.961C34.5459 111.967 34.5007 111.09 34.4556 110.171C33.5683 109.65 32.5599 110.134 31.622 109.802C31.0618 108.972 31.5804 107.949 31.1991 106.944C30.9335 106.89 30.6046 106.775 30.2739 106.767C29.0216 106.744 27.7692 106.764 26.5151 106.751C26.1121 106.747 25.7091 106.693 25.2248 106.655C25.1525 105.64 25.0857 104.714 25.0152 103.727C23.9382 103.48 22.9262 103.619 21.9269 103.592C20.9781 103.567 20.0294 103.587 19.1276 103.587C18.506 102.614 19.0553 101.582 18.5909 100.612C17.6404 100.371 16.6284 100.523 15.6327 100.491C14.6876 100.458 13.7406 100.454 12.7792 100.438C12.3492 99.4496 12.7503 98.452 12.4052 97.467C11.4619 97.4019 10.5348 97.3369 9.53187 97.2682C9.26442 96.2163 9.47765 95.1952 9.34393 94.2084L9.29152 94.2627H15.4664C15.5477 94.6042 15.6544 94.9296 15.6995 95.2621C15.7845 95.8983 15.5694 96.5706 15.9489 97.2592C17.8554 97.5375 19.827 97.2194 21.8618 97.4525C21.9142 98.4213 21.963 99.2978 22.0172 100.277C22.4274 100.35 22.8178 100.474 23.2099 100.478C25.2411 100.5 27.2741 100.485 29.3053 100.492C29.8962 100.494 30.4853 100.529 31.0925 100.55C31.613 101.477 31.1341 102.5 31.5335 103.456C33.5231 103.812 35.5615 103.373 37.5403 103.713C38.0192 104.602 37.5801 105.555 37.9812 106.487C40.869 106.943 43.8489 106.644 46.8415 106.816C47.2969 107.763 46.8668 108.764 47.2373 109.766C47.5788 109.814 47.9764 109.916 48.3739 109.919C50.4648 109.939 52.5574 109.923 54.6482 109.946C55.1759 109.952 55.7036 110.055 56.2349 110.109C56.7607 110.949 56.1752 111.972 56.7047 112.916C57.0589 112.957 57.4565 113.039 57.8559 113.046C59.0937 113.064 60.3316 113.05 61.5695 113.059C61.9743 113.062 62.4044 113.004 62.7314 113.348C62.7839 114.219 62.8308 115.095 62.8814 116.044C63.9802 116.234 64.9921 116.169 65.9897 116.138C66.9764 116.108 68.001 116.375 68.9588 115.909C69.0419 114.978 69.1304 114.1 68.8684 113.158C66.9149 112.988 65.0211 112.997 63.1272 113.138C62.9718 113.149 62.829 113.312 62.679 113.404C62.8435 112.29 62.8941 111.179 62.6194 109.952C60.5466 109.934 58.5353 109.856 56.5222 110.019C56.4084 110.028 56.3017 110.105 56.1915 110.151C56.6993 109.122 56.4499 108.065 56.3722 106.91C54.4007 106.563 52.4273 106.923 50.4792 106.681C49.9823 105.752 50.463 104.743 50.0564 103.753C48.1354 103.312 46.0897 103.843 43.9935 103.442C43.9284 102.54 43.8652 101.667 43.7965 100.702C43.3574 100.639 42.9616 100.538 42.5641 100.532C40.5311 100.505 38.4981 100.507 36.4651 100.487C35.8796 100.482 35.2923 100.436 34.5965 100.404C34.5441 99.4117 34.4989 98.5333 34.4465 97.5465C34.049 97.4869 33.655 97.3857 33.2574 97.3766C32.0611 97.3531 30.8648 97.3766 29.6703 97.3604C29.2655 97.3549 28.8607 97.2845 28.3909 97.2375C28.3078 96.238 28.2319 95.3091 28.1469 94.2843C26.1085 94.0801 24.1424 94.3115 22.1708 94.1379C21.7263 93.1729 22.1437 92.1716 21.7967 91.2137C20.839 90.8559 19.818 91.0818 18.8204 91.0384C17.8735 90.9969 16.9248 91.0167 15.9995 91.0077C15.4321 90.0516 15.9706 89.0179 15.4971 88.0998C13.5346 87.6371 11.4781 88.219 9.46681 87.7419C9.41441 86.784 9.36742 85.9039 9.31501 84.9135C8.32291 84.843 7.39767 84.7779 6.36581 84.7038C6.28449 83.7062 6.20859 82.7754 6.12365 81.7236C5.20022 81.6712 4.32558 81.6224 3.35335 81.5682C2.91242 79.6217 3.29552 77.6355 2.9341 75.6095C1.99621 75.5047 1.0782 75.4035 0.192712 75.3041C-0.0512481 73.795 -0.0638978 70.9449 0.15657 69.2839C1.01133 68.8068 2.02693 69.3129 2.97386 68.9008C3.32986 67.9592 3.10036 66.9363 3.14734 65.9368C3.19071 64.9898 3.17806 64.041 3.19071 63.0903C4.14306 62.5427 5.17311 63.0451 6.10739 62.5879C6.42725 60.6902 6.10739 58.7022 6.53929 56.7286C8.47471 56.4286 10.3884 56.6419 12.3148 56.434C12.8371 55.5358 12.3419 54.5219 12.6961 53.5948C13.2545 53.1556 13.9394 53.3634 14.5701 53.3616C21.5654 53.3435 28.5626 53.3544 35.5579 53.3454C36.2012 53.3454 36.8626 53.4448 37.5891 53.1682C37.6451 52.2845 37.7029 51.4097 37.7608 50.5043C38.6589 49.9856 39.6817 50.4808 40.6214 50.0597C41.1057 49.2265 40.607 48.2072 41.0262 47.224C41.4437 47.1897 41.9045 47.1463 42.3671 47.1138C42.7773 47.0867 43.1875 47.0722 43.7026 47.0487C43.7748 46.6692 43.8851 46.3384 43.8923 46.0023C43.9212 44.7462 43.9068 43.4901 43.9266 42.2359C43.9321 41.8274 43.9899 41.4208 44.0333 40.9021C45.0326 40.8298 45.9578 40.7629 46.9752 40.6906C47.0114 40.1557 47.0439 39.693 47.071 39.2303C47.0945 38.8201 47.1108 38.408 47.1343 37.8984C47.521 37.8243 47.8517 37.7104 48.1878 37.7032C49.3841 37.6797 50.5804 37.7014 51.7749 37.6851C52.2394 37.6779 52.7038 37.6164 53.1574 37.5785C53.6073 36.6459 53.2369 35.7133 53.5206 34.7518C53.8007 34.6976 54.1314 34.582 54.4639 34.5765C55.7199 34.553 56.9758 34.5729 58.2299 34.5603C58.6329 34.5567 59.0359 34.4988 59.5256 34.4573C59.7353 32.4114 59.6033 30.4613 59.6232 28.5203C58.6564 27.9437 57.6354 28.4588 56.6324 28.0468C56.2566 26.1744 56.6614 24.199 56.3939 22.2254C55.5048 21.7411 54.482 22.2435 53.5025 21.7989C53.4339 20.8971 53.3634 19.9681 53.2875 18.9759C52.2104 18.7265 51.1985 18.8657 50.2009 18.8404C49.2522 18.8169 48.3017 18.8349 47.2933 18.8349C46.8704 17.2011 47.1252 15.6505 47.0891 14.1233C47.0529 12.6431 47.0276 11.1557 47.1216 9.71168C48.6269 9.35745 51.7876 9.35203 53.3164 9.6918C53.3724 10.5358 53.4302 11.4124 53.4881 12.2925C54.3681 12.7986 55.3151 12.3738 56.2692 12.71C56.3288 12.9757 56.459 13.3028 56.4662 13.6335C56.4933 14.8282 56.4698 16.0246 56.4861 17.221C56.4915 17.6873 56.5493 18.1536 56.5927 18.7337C57.5902 18.7988 58.5155 18.8602 59.5292 18.9271C59.6015 19.9428 59.6666 20.8718 59.7389 21.8965C60.7454 21.9688 61.6761 22.0339 62.7098 22.108C62.764 23.0514 62.8164 23.9297 62.8688 24.8442C63.7705 25.4677 64.9 24.8099 65.865 25.4135C65.9264 26.2593 65.9897 27.1341 66.0493 27.9871C67.4046 28.2799 70.2111 28.316 72.0561 28.0648C72.3941 26.1617 72.0399 24.1918 72.264 22.2471C73.2055 21.7501 74.212 22.2218 75.2023 21.8242C75.6216 19.8976 75.1391 17.8572 75.4969 15.7806C76.4727 15.7047 77.3998 15.6342 78.4226 15.5547C78.484 14.6004 78.5419 13.7239 78.6015 12.7859C79.6117 12.3973 80.6327 12.6142 81.6248 12.5817C82.5753 12.551 83.5295 12.5907 84.3825 12.5998C84.8866 13.1691 84.7385 13.7329 84.7403 14.2516C84.7529 19.2145 84.7493 24.1791 84.7511 29.142C84.7511 29.7926 84.7511 30.4432 84.7511 31.168C85.1216 31.2583 85.3944 31.3812 85.6691 31.383C90.3333 31.3939 94.9974 31.3903 99.6616 31.383C99.8369 31.383 100.01 31.3288 100.242 31.2909C100.777 30.4342 100.262 29.4167 100.639 28.4227C100.912 28.3685 101.245 28.2492 101.579 28.2438C102.835 28.2203 104.091 28.2419 105.345 28.2275C105.75 28.2221 106.153 28.1588 106.628 28.1154C106.693 27.1576 106.755 26.2846 106.818 25.3521C108.403 24.9183 109.955 25.1713 111.482 25.1515C112.966 25.1316 114.46 25.0033 115.917 25.2617C116.26 26.5105 116.303 29.2721 116.009 31.2403C115.159 31.6035 114.165 31.2276 113.146 31.5493C113.083 32.4728 113.02 33.4 112.951 34.3958C111.972 34.6759 111.048 34.5928 110.071 34.4735C109.662 33.5337 110.052 32.5361 109.758 31.6487C108.52 31.336 105.909 31.2927 103.838 31.5511C103.372 32.3969 103.854 33.4126 103.446 34.3759C102.609 34.8205 101.602 34.3506 100.587 34.7536C100.522 35.6139 100.453 36.5393 100.375 37.564C99.3851 37.6453 98.4508 37.723 97.5328 37.799C97.0901 38.7134 97.4822 39.646 97.1804 40.5985C96.369 41.09 95.348 40.5714 94.3595 40.9943C94.3053 41.3268 94.1969 41.7244 94.1878 42.122C94.1571 43.3166 94.1734 44.5131 94.1517 45.7095C94.1445 46.1143 94.0758 46.5192 94.0234 47.0325C93.0891 47.0885 92.2145 47.1409 91.2983 47.1951C90.8212 48.0988 91.3037 49.1145 90.8573 50.1157C89.9791 50.1934 89.0502 50.2766 88.087 50.3633C87.816 51.2886 87.9244 52.1706 87.9858 53.1628C88.3888 53.2261 88.781 53.3363 89.1749 53.3399C91.2676 53.358 93.3602 53.3399 95.4528 53.3562C96.0401 53.3598 96.6491 53.2333 97.3033 53.5875C97.3955 54.4026 97.493 55.2701 97.6015 56.2316C101.64 56.7431 105.634 56.3744 109.639 56.5786C110.114 57.5202 109.664 58.5251 110.056 59.5462C110.448 59.5878 110.905 59.6745 111.363 59.6763C114.413 59.689 117.462 59.6799 120.512 59.6872C121.096 59.6872 121.679 59.7396 122.348 59.7721C122.402 60.7553 122.449 61.6354 122.503 62.6078C122.925 62.6765 123.32 62.7939 123.716 62.7975C125.749 62.8174 127.782 62.8012 129.815 62.8102C130.402 62.812 130.991 62.8536 131.588 62.8771C132.092 63.8205 131.593 64.847 132.041 65.7796C133.979 66.0868 135.952 65.7597 137.934 65.9874C138.39 66.9272 137.96 67.9303 138.327 68.9279C138.674 68.9731 139.073 69.0653 139.472 69.0689C141.565 69.0851 143.658 69.0725 145.75 69.0815C146.276 69.0833 146.802 69.1267 147.433 69.1556C147.505 70.1695 147.572 71.0967 147.646 72.1232C148.174 72.1684 148.633 72.2335 149.092 72.2389C149.558 72.2443 150.026 72.1901 150.608 72.1539C150.678 71.1581 150.743 70.2292 150.814 69.2406C151.856 68.9424 152.872 69.1141 153.87 69.0851C154.885 69.0562 155.903 69.0635 156.918 69.0851C157.919 69.1068 158.931 68.9767 160.001 69.2062C160.073 70.2002 160.14 71.1274 160.216 72.1612C161.783 72.3256 163.268 72.2244 164.748 72.2443C166.183 72.2624 167.618 72.2479 169.053 72.2479H191.394C191.452 72.819 191.504 73.2781 191.542 73.7371C191.582 74.2052 191.607 74.6751 191.636 75.0998C192.262 75.4974 192.872 75.3637 193.456 75.3673C196.326 75.3818 199.197 75.3709 202.067 75.3764C202.656 75.3764 203.245 75.4053 203.789 75.4197C204.384 76.3939 203.869 77.4222 204.304 78.409C206.236 78.5825 208.202 78.3602 210.215 78.55C210.264 79.0632 210.333 79.4645 210.335 79.8675C210.335 80.3916 210.284 80.9157 210.25 81.523C208.15 81.7543 206.128 81.6079 204.111 81.6332C202.018 81.6603 199.926 81.6278 197.833 81.6441C195.814 81.6603 193.79 81.579 191.716 81.6965C191.468 82.7375 191.481 83.6592 191.678 84.5827C192.33 84.9641 193.004 84.7996 193.644 84.8014C199.683 84.8159 205.723 84.8014 211.762 84.8195C212.406 84.8195 213.049 84.9587 213.692 85.0328L213.656 84.9894C213.392 85.8695 213.526 86.7533 213.567 87.5955C214.075 88.0654 214.635 87.9244 215.151 87.9263C218.138 87.9389 221.127 87.9263 224.114 87.9353C224.697 87.9353 225.279 87.9877 225.977 88.022C226.035 89.0124 226.085 89.8872 226.141 90.8541C226.505 90.9155 226.841 91.0186 227.177 91.024C228.431 91.0457 229.687 91.024 230.941 91.042C231.346 91.0475 231.749 91.1288 232.215 91.1812C232.273 92.1391 232.327 93.021 232.389 94.0024C234.393 94.4777 236.431 93.9735 238.509 94.3494C238.582 95.3091 238.652 96.2344 238.728 97.2592C239.718 97.3333 240.647 97.4037 241.657 97.4796C241.74 98.4682 241.818 99.3954 241.901 100.386C242.467 100.427 242.935 100.462 243.405 100.496C243.813 100.527 244.222 100.559 244.733 100.597C244.822 101.57 244.905 102.495 244.993 103.456C247.015 103.784 248.989 103.422 250.986 103.691C251.398 104.622 251.011 105.616 251.314 106.574C252.196 106.988 253.197 106.563 254.211 106.935C254.285 107.835 254.363 108.766 254.448 109.773C256.416 110.145 258.391 109.753 260.395 110.017C260.78 110.933 260.395 111.927 260.744 112.93C261.66 113.008 262.594 113.088 263.523 113.165C263.961 114.065 263.588 114.998 263.868 115.976C264.208 116.028 264.602 116.135 264.996 116.144C266.191 116.167 267.387 116.144 268.581 116.16C268.986 116.165 269.391 116.238 269.863 116.285C269.946 117.282 270.022 118.211 270.108 119.236C272.221 119.402 274.241 119.292 276.258 119.319C278.278 119.346 280.301 119.281 282.426 119.368C282.505 120.407 282.578 121.334 282.657 122.375C283.651 122.446 284.576 122.511 285.617 122.585C285.646 123.23 285.695 123.812 285.695 124.394C285.702 128.399 285.695 132.402 285.707 136.407C285.709 137.121 285.791 137.835 285.832 138.545C284.847 137.878 283.81 138.205 282.823 138.303C282.422 138.836 282.594 139.387 282.545 139.904C282.507 140.302 282.657 140.741 282.292 141.066C281.387 141.195 280.481 141.325 279.574 141.453C279.428 142.474 279.368 143.391 279.625 144.374C280.629 144.43 281.542 144.609 282.467 144.215C282.52 143.114 282.76 142.06 282.272 141.045C283.638 141.354 284.03 141.357 285.615 141.061C285.678 140.231 285.742 139.373 285.807 138.514C286.042 138.157 286.418 138.202 286.77 138.178C287.415 138.137 288.082 138.276 288.808 137.934C288.973 136.006 288.774 134.043 288.944 131.995C289.963 131.92 290.888 131.851 291.906 131.777C291.987 130.777 292.063 129.847 292.144 128.858C294.148 128.54 296.12 128.869 298.167 128.63C298.229 127.683 298.285 126.81 298.346 125.843C298.645 125.768 298.917 125.639 299.192 125.639C302.779 125.627 306.368 125.628 309.955 125.639C310.181 125.639 310.405 125.724 310.725 125.787C310.785 126.698 310.843 127.573 310.904 128.513C311.817 128.943 312.816 128.536 313.775 128.851C314.251 129.716 313.779 130.725 314.135 131.697C314.968 132.162 315.982 131.672 316.956 132.057C317.008 132.352 317.124 132.693 317.124 133.036C317.135 138.598 317.135 144.16 317.129 149.721C317.129 149.956 317.075 150.191 317.045 150.439C316.166 151.025 315.136 150.511 314.209 150.887C313.815 151.455 314.001 152.132 314 152.767C313.983 158.688 313.991 164.608 313.989 170.529C313.989 171.178 313.969 171.827 313.958 172.486C312.973 172.985 311.968 172.539 310.949 172.913C310.911 173.319 310.833 173.778 310.832 174.239C310.819 177.229 310.823 180.22 310.823 183.209C310.823 183.804 310.823 184.398 310.823 184.973C309.879 185.613 308.851 185.051 307.846 185.47C307.796 185.792 307.684 186.184 307.68 186.574C307.66 188.607 307.673 190.641 307.662 192.674C307.658 193.263 307.622 193.85 307.602 194.421C306.686 194.922 305.745 194.488 304.789 194.828C304.731 195.097 304.604 195.428 304.597 195.763C304.572 197.019 304.592 198.275 304.577 199.531C304.572 199.936 304.509 200.339 304.463 200.846C303.466 200.935 302.539 201.018 301.559 201.105C301.247 203.107 301.596 205.083 301.323 207.13C300.334 207.203 299.407 207.27 298.372 207.346C298.301 208.338 298.234 209.268 298.16 210.308C297.179 210.384 296.25 210.456 295.253 210.532C294.944 212.525 295.247 214.497 295.021 216.546C294.067 216.606 293.194 216.66 292.28 216.718C291.752 217.62 292.247 218.639 291.83 219.637C291.026 220.062 290.019 219.601 289.02 219.986C288.653 221.855 289.02 223.83 288.77 225.787C287.825 226.367 286.705 225.782 285.716 226.36C285.711 229.194 285.482 232.051 286.316 234.948C287.083 235.111 287.876 235.279 288.733 235.46C288.977 236.528 288.836 237.542 288.864 238.54C288.893 239.544 288.892 240.549 288.904 241.653C289.951 241.729 290.874 241.798 291.897 241.872C291.978 242.881 292.054 243.81 292.135 244.822C292.663 244.861 293.127 244.908 293.592 244.928C294 244.946 294.41 244.932 294.804 244.932C295.379 245.913 294.871 246.933 295.305 247.916C296.115 248.36 297.123 247.889 298.075 248.247C298.513 249.087 298.034 250.097 298.455 251.1C299.338 251.176 300.273 251.256 301.203 251.335C301.648 252.233 301.259 253.168 301.55 254.127C302.367 254.603 303.379 254.117 304.33 254.469C304.8 255.338 304.474 256.278 304.559 257.234C303.571 257.715 302.568 257.299 301.646 257.605C301.171 258.498 301.646 259.506 301.25 260.493C299.779 260.854 298.229 260.616 296.698 260.645C295.22 260.674 293.733 260.71 292.222 260.58C291.906 259.475 292.077 258.458 292.038 257.46C292 256.513 292.012 255.564 292.003 254.614C291.02 254.057 290.008 254.538 288.986 254.151C288.917 253.291 288.843 252.364 288.761 251.348C287.764 251.261 286.835 251.18 285.789 251.089C285.74 250.144 285.695 249.268 285.646 248.344C284.764 247.816 283.754 248.31 282.812 247.972C282.259 247.139 282.771 246.116 282.402 245.133C281.546 244.764 280.628 244.943 279.621 245.01C279.339 246.071 279.498 247.084 279.467 248.082C279.439 249.031 279.451 249.98 279.446 250.894C278.465 251.505 277.438 250.999 276.464 251.404C276.419 251.695 276.321 252.038 276.321 252.38C276.312 259.974 276.312 267.57 276.318 275.164C276.318 275.515 276.374 275.868 276.401 276.209C277.158 276.84 278.083 276.37 278.952 276.764C279.587 279.614 279.518 282.56 279.41 285.511C278.432 286.041 277.424 285.565 276.417 285.963C276.35 286.836 276.28 287.761 276.209 288.661C274.659 288.996 268.44 288.987 266.991 288.645C266.941 287.794 266.888 286.914 266.832 285.979C265.889 285.571 264.893 285.952 263.874 285.627C263.834 285.114 263.762 284.597 263.762 284.08C263.753 280.073 263.76 276.066 263.753 272.06C263.753 271.472 263.709 270.885 263.684 270.2C263.207 270.144 262.81 270.061 262.41 270.057C260.317 270.043 258.225 270.057 256.132 270.046C255.608 270.044 255.086 269.992 254.473 269.956C254.269 267.915 254.321 265.973 254.432 263.912C255.424 263.813 256.344 263.719 257.282 263.625C257.636 261.601 257.215 259.616 257.592 257.574C258.521 257.525 259.401 257.48 260.395 257.428C260.458 257.032 260.569 256.64 260.578 256.246C260.603 255.049 260.578 253.853 260.594 252.658C260.599 252.252 260.664 251.847 260.704 251.406C261.704 251.118 262.622 251.129 263.615 251.393C263.89 253.076 263.715 254.744 263.746 256.403C263.778 258.136 263.753 259.871 263.753 261.606V266.564C264.6 266.819 265.589 266.874 266.72 266.73C266.774 266.479 266.888 266.198 266.89 265.92C266.903 260.299 266.903 254.677 266.899 249.056C266.899 248.825 266.848 248.592 266.812 248.299C265.912 247.84 264.904 248.277 263.91 247.91C263.867 247.533 263.787 247.135 263.784 246.736C263.764 244.643 263.769 242.55 263.753 240.457C263.749 239.933 263.695 239.409 263.666 238.917C262.716 238.7 261.734 238.679 260.72 238.854C260.278 239.649 260.722 240.602 260.334 241.54C258.471 241.892 256.495 241.592 254.453 241.887C254.383 242.861 254.316 243.79 254.24 244.829C253.234 244.892 252.305 244.95 251.269 245.015C251.183 246.007 251.103 246.931 251.013 247.948C248.983 248.055 247.048 248.205 244.999 247.986C244.915 246.983 244.838 246.054 244.755 245.042C244.225 245.002 243.763 244.963 243.298 244.932C242.888 244.905 242.478 244.89 241.995 244.867C241.617 243.846 241.834 242.826 241.795 241.836C241.757 240.887 241.787 239.935 241.787 238.903C242.216 238.811 242.545 238.686 242.877 238.679C244.072 238.652 245.27 238.675 246.464 238.657C246.932 238.65 247.398 238.583 247.95 238.538C247.997 237.574 248.042 236.692 248.083 235.843C248.662 235.377 249.281 235.552 249.858 235.55C254.82 235.536 259.784 235.545 264.747 235.539C265.39 235.539 266.033 235.5 266.776 235.476C266.863 234.432 266.939 233.503 267.02 232.512C269.013 232.19 270.985 232.523 273.031 232.284C273.103 231.285 273.17 230.358 273.246 229.322C274.238 229.248 275.167 229.18 276.193 229.104C276.274 228.128 276.35 227.201 276.431 226.226C277.443 226.136 278.372 226.055 279.361 225.968C279.401 225.384 279.435 224.916 279.464 224.45C279.491 224.038 279.514 223.627 279.547 223.1C280.507 223.022 281.432 222.946 282.428 222.865C282.511 221.858 282.588 220.929 282.673 219.897C283.638 219.847 284.52 219.8 285.509 219.747C285.572 219.348 285.675 218.956 285.689 218.56C285.749 217.011 285.782 215.462 285.819 213.902C286.136 213.367 286.665 213.606 287.112 213.548C287.677 213.476 288.31 213.716 288.81 213.185C288.859 212.317 288.91 211.443 288.96 210.559C289.978 210.264 290.962 210.599 291.886 210.257C292.271 208.211 291.741 206.169 292.227 204.163C293.196 204.103 294.067 204.051 294.998 203.995C295.292 201.949 294.913 199.974 295.256 197.967C296.23 197.895 297.157 197.826 298.196 197.749C298.22 197.008 298.251 196.364 298.26 195.721C298.294 193.395 298.323 191.069 298.348 188.734C298.697 188.275 299.203 188.47 299.649 188.423C300.217 188.363 300.829 188.562 301.399 188.063C301.422 186.124 301.446 184.133 301.467 182.139C302.414 182.116 303.363 182.094 304.286 182.072C304.684 180.585 304.682 177.288 304.292 175.987C303.385 175.808 302.47 175.765 301.491 176.043C301.399 178.161 301.386 180.178 301.521 182.195C300.987 182.172 300.452 182.117 299.919 182.137C299.405 182.155 298.843 181.976 298.287 182.49C298.29 184.537 298.122 186.666 298.395 188.797C297.405 188.123 296.366 188.438 295.251 188.584C295.198 189.038 295.117 189.441 295.112 189.844C295.092 191.096 295.115 192.35 295.09 193.603C295.083 193.937 294.965 194.268 294.909 194.539C293.953 194.877 293.019 194.467 292.11 194.918C291.862 196.847 292.177 198.813 291.908 200.846C290.903 200.935 289.978 201.016 288.986 201.105C288.942 201.573 288.875 201.98 288.872 202.386C288.857 203.579 288.879 204.774 288.857 205.967C288.85 206.364 288.749 206.758 288.7 207.096C287.693 207.454 286.69 207.002 285.722 207.51C285.742 209.675 285.547 211.81 285.854 213.942L285.868 213.933ZM276.544 151.106C275.494 150.475 274.415 150.712 273.258 150.9C273.072 151.979 273.135 152.984 273.168 153.974C273.2 154.95 272.92 155.969 273.412 156.929C274.38 156.989 275.309 157.148 276.327 156.763C276.327 155.42 276.307 154.124 276.336 152.828C276.348 152.25 276.459 151.672 276.52 151.088C276.708 150.67 277.095 150.77 277.433 150.735C278.062 150.672 278.73 150.889 279.373 150.45C279.514 149.553 279.599 148.643 279.29 147.715C278.313 147.544 277.4 147.544 276.37 147.724C276.352 148.917 276.164 150.016 276.545 151.106H276.544ZM138.243 169.526C138.187 168.541 138.131 167.556 138.074 166.52C137.031 166.345 136.118 166.336 135.054 166.535C135.07 167.561 134.785 168.526 135.245 169.472H138.307C138.068 172.15 138.07 174.82 138.514 177.483C138.699 178.59 138.861 178.77 140.031 178.716C140.304 178.703 140.569 178.543 140.857 178.443C141.017 176.967 141.269 175.557 141.301 174.142C141.335 172.671 141.496 171.178 141.133 169.634C140.141 169.596 139.196 169.56 138.245 169.528L138.243 169.526ZM116.48 68.9207C116.002 69.9508 116.204 70.9955 116.339 72.022C117.839 72.3166 126.969 72.3274 128.521 72.0545C128.877 70.6087 128.866 70.2888 128.395 69.0761C127.838 69.0761 127.244 69.0761 126.649 69.0761C123.839 69.0761 121.027 69.0833 118.217 69.0707C117.624 69.0689 117.032 68.9984 116.441 68.9586C116.052 68.4237 116.271 67.8056 116.202 67.2272C116.155 66.8296 116.083 66.4356 116.014 65.9947C115.573 65.9621 115.224 65.9133 114.876 65.9133C111.299 65.9206 107.723 65.9368 104.147 65.9585C104.044 65.9585 103.943 66.0651 103.778 66.1555C103.561 67.0429 103.578 67.961 103.791 68.9695C104.188 69.0074 104.532 69.0689 104.877 69.0707C108.334 69.0761 111.793 69.0779 115.25 69.0653C115.662 69.0653 116.074 68.9677 116.479 68.9207H116.48ZM50.1305 88.0564C50.1774 88.5444 50.2443 88.951 50.2497 89.3576C50.266 90.5523 50.2407 91.7487 50.266 92.9433C50.2732 93.3391 50.3816 93.7313 50.4449 94.1325C51.4334 94.1849 52.3134 94.2301 53.2857 94.2807C53.3688 95.3055 53.4447 96.2362 53.5278 97.2447C54.5181 97.326 55.4434 97.4037 56.3054 97.4742C56.721 98.4719 56.2114 99.4912 56.7174 100.321C58.2769 100.541 69.4521 100.642 74.1596 100.48C74.5084 100.467 74.8536 100.388 75.2728 100.33C75.3433 99.3538 75.4101 98.4303 75.4788 97.4869C77.5281 97.1598 79.5051 97.5953 81.5055 97.2049C81.5453 96.6808 81.6031 96.2145 81.6104 95.7483C81.6248 94.6133 81.6013 93.4765 81.6248 92.3415C81.6338 91.9421 81.7387 91.5463 81.8073 91.1035C82.3693 91.0746 82.841 91.0619 83.3108 91.024C83.7626 90.9878 84.2126 90.9282 84.78 90.8667C84.6824 88.7432 84.9246 86.7334 84.6463 84.8358C84.0337 84.29 83.3994 84.4346 82.8229 84.3424C82.3386 84.2647 82.0639 83.9863 82.0459 83.5092C81.9917 82.0236 81.4314 80.5922 81.5742 79.0849C81.5887 78.9349 81.4495 78.7723 81.3881 78.6349C80.4827 78.203 79.4472 78.7867 78.5834 78.1939C78.5636 77.753 78.5545 77.3355 78.5256 76.9198C78.4931 76.4589 78.4407 75.9999 78.3919 75.4848C77.3618 75.3872 76.433 75.3005 75.571 75.2191C75.1427 74.2125 75.6939 73.1877 75.0813 72.2425C74.1361 72.2425 73.182 72.2606 72.2296 72.2371C71.2357 72.2136 70.2255 72.3491 69.1684 72.1088C69.0871 71.0894 69.0148 70.1623 68.9335 69.1231C67.3504 69.0345 65.865 69.049 64.385 69.0851C62.8543 69.1213 61.3074 68.8936 59.8292 69.237C59.4317 70.2201 59.9033 71.2286 59.4064 72.1648C57.4547 72.3961 55.4831 72.0527 53.5929 72.369C53.1845 73.3323 53.6688 74.3462 53.1845 75.2137C52.2394 75.5408 51.2364 75.1577 50.3274 75.5752C50.1088 77.5921 50.4485 79.5639 50.1178 81.4417C49.1203 81.8555 48.1101 81.3748 47.2553 81.8302C47.006 83.5381 47.0276 86.3647 47.3096 87.807C48.2113 87.8865 49.142 87.9696 50.1323 88.0564H50.1305ZM131.911 75.1233C133.635 75.4685 136.745 75.4378 138.036 75.0998C138.168 73.9938 138.102 73.0425 137.839 72.2461C136.221 72.2461 134.564 72.2353 132.907 72.257C132.578 72.2606 132.253 72.3943 131.911 72.4702V75.1251V75.1233ZM21.869 72.0618C21.9901 71.0497 22.0678 70.1261 21.8293 69.2424C19.9499 68.9894 17.2175 69.0165 15.855 69.2966C15.667 70.1984 15.6526 71.1165 15.8676 72.0202C17.2103 72.3039 19.9734 72.3292 21.869 72.0618ZM267.123 166.457C266.801 168.367 266.847 171.349 267.215 172.685C268.045 172.718 268.907 172.803 269.837 172.633C270.141 171.588 270.009 170.58 269.993 169.593C269.977 168.559 270.22 167.484 269.72 166.394C269.207 166.394 268.739 166.387 268.271 166.396C267.922 166.403 267.575 166.432 267.125 166.457H267.123ZM91.4374 62.8355C90.9838 63.9994 90.9766 64.3482 91.338 65.7543C93.062 65.9892 95.7492 65.9675 97.2419 65.6838C97.3413 64.7892 97.4407 63.8765 97.1208 62.8716C95.1908 62.7505 93.3006 62.8012 91.4356 62.8337L91.4374 62.8355ZM75.1427 119.245C75.4879 118.231 75.4969 117.239 75.13 116.214C74.1361 116.174 73.2073 115.976 72.2098 116.418C72.273 117.353 72.0417 118.278 72.4031 119.247H75.1427V119.245ZM266.771 181.991C266.96 180.975 267.092 180.006 266.628 178.969C265.726 178.989 264.848 178.859 263.829 179.081C263.814 180.109 263.567 181.078 263.999 182.058C264.942 182.139 265.818 182.204 266.771 181.991ZM134.926 160.24C133.802 160.182 132.875 160.03 131.919 160.367C131.877 161.362 131.66 162.282 132.101 163.197C133.084 163.293 134.006 163.461 134.926 163.045V160.238V160.24ZM270.159 163.2C271.148 163.273 272.105 163.499 273.094 163.04C273.137 162.073 273.325 161.145 272.935 160.229C271.95 160.188 271.021 160.023 270.083 160.368C269.987 161.323 269.928 162.188 270.159 163.199V163.2ZM263.695 150.898C262.585 150.69 261.664 150.625 260.681 150.94C260.57 151.887 260.547 152.754 260.706 153.712C261.756 153.831 262.725 154.016 263.693 153.587V150.898H263.695ZM53.5332 128.638C54.5868 128.715 55.4542 128.795 56.3867 128.58C56.524 127.593 56.5981 126.686 56.3144 125.728C55.3349 125.594 54.426 125.473 53.5025 125.836C53.3742 126.774 53.3543 127.638 53.5332 128.638Z" fill="#E8793E"/>
<path d="M103.748 182.089C103.676 183.086 103.605 184.086 103.528 185.165C102.449 185.389 101.439 185.266 100.441 185.286C99.4255 185.308 98.4099 185.289 97.3925 185.289C96.3769 185.289 95.3595 185.304 94.3439 185.286C93.3392 185.268 92.3254 185.373 91.3278 185.199C90.8471 184.254 91.2953 183.242 90.9032 182.244C88.9045 181.982 86.8859 182.157 84.8783 182.127C82.7874 182.094 80.6948 182.119 78.6021 182.119C76.5095 182.119 74.5452 182.119 72.4363 182.119C72.3477 182.53 72.2411 182.857 72.2122 183.191C72.1562 183.831 72.2791 184.491 72.0333 185.215C71.1243 185.27 70.2461 185.322 69.2612 185.38C69.1943 185.794 69.0823 186.182 69.0769 186.573C69.0552 188.121 69.0678 189.67 69.0678 191.217C68.1046 191.789 67.0818 191.288 66.1132 191.685C65.7084 193.652 66.218 195.696 65.7951 197.765C64.8591 197.814 63.979 197.861 62.9869 197.912C62.9273 198.313 62.8261 198.705 62.8206 199.099C62.8008 200.648 62.8134 202.197 62.8134 203.823C62.4646 203.916 62.1936 204.051 61.9225 204.051C58.2776 204.064 54.6308 204.06 50.9859 204.051C50.8178 204.051 50.6497 203.975 50.3841 203.912C50.1365 202.938 50.2883 201.926 50.263 200.93C50.2377 199.914 50.2413 198.897 50.263 197.881C50.2829 196.881 50.1636 195.869 50.3805 194.794C51.4394 194.588 52.4514 194.724 53.4508 194.675C54.3905 194.63 55.3428 194.751 56.3385 194.559C56.6945 192.548 56.2825 190.567 56.6548 188.537C57.6107 188.452 58.5414 188.367 59.5245 188.279C59.8299 186.265 59.4847 184.294 59.7576 182.237C60.7334 182.165 61.6605 182.096 62.5622 182.029C62.8875 180.713 62.9236 178.031 62.6417 176.02C61.7093 175.684 60.6901 175.89 59.7016 175.855C58.686 175.819 57.6704 175.839 56.653 175.85C55.65 175.859 54.6471 175.886 53.5411 175.906C53.449 176.943 53.3676 177.865 53.2863 178.792C52.1876 179.065 51.172 178.908 50.1672 178.946C49.2221 178.982 48.2716 178.888 47.2759 179.036C46.8964 179.996 47.2488 180.986 46.9488 181.966C45.0188 182.351 43.0418 181.915 41.0413 182.224C40.642 183.13 41.0269 184.129 40.7088 185.062C39.8215 185.544 38.815 185.065 37.803 185.47C37.7379 186.334 37.6674 187.261 37.5897 188.297C35.5947 188.553 33.6195 188.282 31.6986 188.469C31.0625 189.394 31.6353 190.431 31.1474 191.422C29.2806 191.658 27.3127 191.366 25.3303 191.586C24.9436 192.548 25.305 193.54 25.0122 194.487C24.1033 194.886 23.1075 194.492 22.1534 194.812C21.7468 195.703 22.1552 196.703 21.801 197.727C20.9047 197.796 19.9758 197.866 18.9331 197.946C18.8536 198.913 18.7795 199.844 18.7018 200.794C18.4 200.858 18.1705 200.946 17.941 200.948C14.2961 200.953 10.6493 200.948 7.00437 200.937C6.83811 200.937 6.67005 200.843 6.39175 200.76C6.12972 198.833 6.28152 196.894 6.29779 194.901C7.28085 194.469 8.27477 194.846 9.19278 194.568C9.66805 193.666 9.18917 192.658 9.59577 191.671C9.8831 191.624 10.221 191.526 10.5626 191.521C11.8167 191.501 13.0726 191.521 14.3268 191.505C14.7298 191.499 15.1328 191.429 15.6333 191.376C15.6966 190.437 15.7562 189.562 15.8213 188.591C16.2532 188.528 16.6489 188.431 17.0465 188.422C18.241 188.396 19.4373 188.418 20.6318 188.394C21.0348 188.387 21.4342 188.295 21.8841 188.235C21.9383 187.277 21.9871 186.399 22.0432 185.398C23.0353 185.329 23.9641 185.266 24.8948 185.203C25.3953 184.263 24.9219 183.254 25.3303 182.23C26.1977 182.165 27.1248 182.094 28.162 182.016C28.2415 181.04 28.3193 180.108 28.397 179.15C29.4252 178.783 30.4462 179 31.4456 178.957C32.3925 178.915 33.3412 178.933 34.402 178.922C34.4923 177.954 34.5737 177.086 34.6478 176.211C34.8971 175.736 35.3525 175.888 35.7465 175.846C36.3717 175.781 37.0512 176.014 37.6403 175.525C37.6946 174.637 37.7795 173.764 37.5626 172.85C36.5615 172.678 35.6435 172.664 34.6261 172.868C34.5917 173.262 34.5267 173.605 34.5375 173.947C34.5646 174.717 34.6297 175.483 34.6803 176.251C34.3261 175.828 33.8328 175.863 33.3593 175.859C32.1052 175.85 30.851 175.85 29.5951 175.85C25.652 175.85 21.7088 175.852 17.7657 175.846C17.1188 175.846 16.4736 175.805 15.8773 175.785C15.205 174.91 15.711 173.905 15.205 173.011C14.531 172.788 13.7756 172.85 12.9967 172.976C12.4528 173.781 12.9498 174.762 12.5739 175.559C11.3306 175.922 8.46271 175.976 6.47488 175.671C5.98696 174.838 6.48753 173.819 6.06286 172.837C5.65445 172.803 5.19364 172.752 4.73102 172.731C4.3208 172.712 3.90878 172.727 3.45158 172.727C2.95643 171.682 3.2275 170.658 3.18413 169.673C3.14076 168.666 3.18774 167.654 3.19317 166.694C4.17443 166.112 5.19906 166.622 6.16948 166.212C6.22369 165.331 6.27971 164.458 6.33212 163.625C7.60975 163.202 10.7885 163.163 12.4709 163.544C12.5034 163.976 12.545 164.437 12.5739 164.901C12.601 165.312 12.6173 165.722 12.6426 166.246C13.1413 166.298 13.5967 166.385 14.0539 166.387C17.1007 166.4 20.1475 166.387 23.1943 166.396C23.7762 166.396 24.3581 166.448 25.0267 166.481C25.1008 167.518 25.1677 168.445 25.2417 169.472C27.2729 169.647 29.2138 169.523 31.2504 169.559C31.3389 168.469 31.413 167.542 31.498 166.508C32.0311 166.465 32.4883 166.398 32.9455 166.396C35.9326 166.387 38.9198 166.396 41.9069 166.389C42.496 166.389 43.0852 166.353 43.6924 166.333C44.1929 165.409 43.6851 164.381 44.1152 163.528C44.7513 163.15 45.4236 163.3 46.0651 163.298C50.9642 163.286 55.8633 163.298 60.7623 163.286C61.4057 163.286 62.0815 163.434 62.7484 163.009C62.7935 162.165 62.8387 161.285 62.8893 160.323C64.8699 159.967 66.8397 160.316 68.7895 160.101C69.3262 159.176 68.8329 158.158 69.254 157.155C70.0672 156.779 71.0647 157.177 71.9917 156.882C72.4688 155.997 71.9881 154.988 72.3857 154.005C73.2531 153.692 74.1801 153.826 75.1524 153.92C75.6132 154.845 75.1722 155.85 75.5337 156.826C76.4643 157.173 77.4836 156.951 78.4775 156.993C79.4912 157.034 80.5087 157.011 81.5242 157.016L81.4755 156.969C81.8586 157.967 81.3074 159.102 81.9056 160.105C82.8706 160.155 83.8157 160.204 84.7608 160.253L84.7138 160.204C84.7518 161.148 84.7897 162.091 84.8331 163.143C85.3373 163.197 85.7945 163.244 86.2517 163.295C86.8335 163.36 87.4154 163.427 87.9973 163.493L87.9449 163.436C87.9576 164.357 87.8763 165.286 88.0299 166.295C89.1467 166.459 90.1857 166.398 91.2266 166.342L91.1833 166.298C91.0477 167.348 91.0405 168.393 91.2013 169.508C92.226 169.694 93.1584 169.636 94.0927 169.579L94.0385 169.524C94.1903 171.574 94.0132 173.647 94.3276 175.638C95.327 176.081 96.3408 175.602 97.266 176.11C97.3094 176.999 97.3528 177.872 97.3943 178.709C98.4027 179.262 99.5122 178.61 100.369 179.197C100.698 180.142 100.242 181.143 100.748 182.081C101.782 182.101 102.785 182.119 103.79 182.138L103.754 182.087L103.748 182.089Z" fill="#E8793E"/>
<path d="M62.8851 90.822C62.8345 89.8877 62.7857 89.0111 62.7351 88.0551C61.7032 87.9665 60.7725 87.8852 59.7316 87.7948C59.6829 86.8478 59.6377 85.9731 59.5907 85.0459C58.7088 84.5182 57.6986 85.0242 56.7373 84.6646C56.2981 83.8079 56.515 82.8717 56.5782 81.8705C56.8114 81.7928 57.0246 81.659 57.2378 81.659C62.014 81.65 66.7884 81.6554 71.5646 81.6626C71.6767 81.6626 71.7905 81.7205 71.9983 81.7783C72.47 82.6061 71.9965 83.6109 72.3308 84.5652C73.1802 85.1598 74.2934 84.4911 75.2638 85.0315C75.2963 85.2393 75.3596 85.467 75.3614 85.6947C75.3704 87.3611 75.3668 89.0292 75.3668 90.7479C75.0975 90.8492 74.8879 90.9992 74.6783 90.9992C70.9177 91.0082 67.1571 91.001 63.3965 90.9919C63.2862 90.9919 63.1778 90.9214 62.8851 90.8239V90.822Z" fill="#E8793E"/>
</svg>
