<svg width="152" height="305" viewBox="0 0 152 305" fill="none" xmlns="http://www.w3.org/2000/svg">
<g clip-path="url(#clip0_49_11)">
<path d="M67.2773 151.348C68.1374 151.15 68.9113 151.356 69.6499 151.187C69.8878 150.844 69.7881 150.468 69.7902 150.115C69.7995 147.602 69.7943 145.089 69.7964 142.577C69.7964 142.216 69.8089 141.855 69.8161 141.453C70.0467 141.408 70.2316 141.345 70.4176 141.34C70.9796 141.327 71.5426 141.335 72.0724 141.335C72.3695 140.957 72.2552 140.579 72.2562 140.23C72.2656 136.891 72.2594 133.551 72.2583 130.212C72.2583 129.853 72.2583 129.493 72.2583 129.075C72.5253 129.033 72.7414 128.98 72.9595 128.967C73.5173 128.932 74.0814 129.016 74.6257 128.907C74.8657 128.546 74.7743 128.172 74.7753 127.82C74.7826 125.307 74.7784 122.794 74.7774 120.281C74.7774 119.921 74.7774 119.561 74.7774 119.178C75.5648 118.905 76.3418 119.159 77.0658 118.991C77.3183 118.775 77.2424 118.494 77.2435 118.241C77.2508 116.39 77.2456 114.537 77.2487 112.686C77.2487 112.362 77.2705 112.037 77.284 111.683C78.0714 111.461 78.8453 111.672 79.5579 111.533C79.8363 111.312 79.7594 111.028 79.7605 110.777C79.7667 108.992 79.7615 107.206 79.7605 105.421C79.7605 105.058 79.7605 104.696 79.7605 104.29C79.9848 104.244 80.1687 104.177 80.3547 104.173C80.9166 104.159 81.4797 104.168 82.0894 104.168C82.1424 103.946 82.2089 103.766 82.2245 103.583C82.2463 103.321 82.2318 103.055 82.2318 102.79C82.2318 93.7636 82.2318 84.7369 82.2318 75.7113C82.2318 75.3195 82.2193 74.9288 82.212 74.5019C81.6511 74.3211 81.1202 74.4141 80.6009 74.3996C80.0368 74.3841 79.4706 74.3862 78.9066 74.3996C78.3841 74.411 77.8543 74.3386 77.3027 74.473C77.1365 75.2172 77.3089 75.95 77.1791 76.7335C76.9848 76.7676 76.7688 76.8359 76.5527 76.8379C75.49 76.8493 74.4263 76.841 73.3626 76.8462C73.0364 76.8483 72.7112 76.871 72.3373 76.8865C72.1191 77.6896 72.3653 78.4959 72.1534 79.3186C71.3826 79.3435 70.6337 79.3683 69.8535 79.3941C69.653 80.1848 69.8795 80.958 69.678 81.7187C68.8667 81.8645 68.073 81.7776 67.2846 81.7952C66.4546 81.8138 65.6236 81.7983 64.7925 81.8066C64.001 81.8138 63.2084 81.7714 62.3836 81.8438C62.1384 82.6459 62.394 83.4532 62.1841 84.2759C61.3406 84.3534 60.5148 84.3038 59.6931 84.3142C58.8953 84.3245 58.0986 84.3173 57.3008 84.3173C56.4697 84.3173 55.6398 84.3173 54.8087 84.3173C53.9777 84.3173 53.2131 84.31 52.4164 84.3193C51.5947 84.3286 50.7689 84.278 49.9191 84.3586C49.7342 85.1524 49.942 85.9225 49.7571 86.6936C49.5036 86.7194 49.2803 86.7587 49.0559 86.7628C42.3775 86.891 26.0353 86.8238 24.9954 86.6574C24.8292 85.9432 25.0307 85.1741 24.8708 84.463C24.5269 84.2377 24.1872 84.3214 23.8652 84.3204C21.2734 84.3131 18.6817 84.3173 16.0899 84.3152C15.7627 84.3152 15.4365 84.2935 15.0687 84.2801C14.8257 83.4821 15.103 82.6697 14.8683 81.8862C14.0995 81.6929 13.3256 81.911 12.5466 81.7353C12.3232 81.0035 12.5455 80.2334 12.3876 79.4665C12.0064 79.2876 11.6044 79.3786 11.2179 79.359C10.8585 79.3403 10.497 79.3362 10.0919 79.3248C9.85401 78.5165 10.0462 77.7206 9.95269 76.9454C9.8592 76.1681 9.81557 75.3847 9.74805 74.5784C9.00843 74.3531 8.25323 74.6249 7.53335 74.3676C7.35883 73.5706 7.56555 72.7685 7.38584 71.952C6.61818 71.7959 5.84843 71.9716 5.06726 71.8248C4.89378 71.0579 5.09427 70.2889 4.91975 69.5281C4.37335 69.372 3.84253 69.4547 3.32002 69.4413C2.78919 69.4278 2.25629 69.4434 1.72547 69.4361C1.19984 69.4289 0.671099 69.4723 0.100803 69.3896C-0.0591707 68.573 -0.000998436 67.7978 0.0675618 66.9895C0.766668 66.6588 1.53122 66.9937 2.25837 66.7383C2.45574 66.0675 2.39965 65.3957 2.28746 64.6897C1.58731 64.4437 0.872625 64.6897 0.202605 64.5109C-0.0383949 63.9196 -0.0685198 63.1093 0.12054 62.0663C0.68772 61.8979 1.2871 62.0043 1.87506 61.9878C2.5056 61.9692 3.13719 61.9837 3.76877 61.9837C4.36712 61.9837 4.96546 61.9754 5.56277 61.9857C6.1528 61.9961 6.74802 61.932 7.35364 62.0395C7.54997 62.8312 7.34117 63.6003 7.5053 64.3951C7.7276 64.4282 7.94679 64.4861 8.16701 64.4892C9.19749 64.4995 10.2269 64.4943 11.2574 64.4943C11.5888 64.4943 11.9191 64.4943 12.2972 64.4943C12.344 64.7124 12.4115 64.8944 12.4167 65.0783C12.4312 65.6375 12.4219 66.1978 12.4219 66.8055C12.6452 66.8572 12.827 66.9285 13.0109 66.9358C13.603 66.9564 14.1962 66.9533 14.7966 66.9595C15.0989 67.7761 14.7914 68.5937 15.0417 69.3824C15.5757 69.5126 16.1065 69.4413 16.63 69.4527C17.1619 69.464 17.6938 69.4465 18.2246 69.4589C18.7492 69.4713 19.281 69.3968 19.8326 69.5364C20.004 70.3302 19.897 71.122 19.9178 71.9065C19.9386 72.6951 19.9334 73.4848 19.9396 74.2849C20.7353 74.5567 21.5134 74.3045 22.306 74.4885C22.4961 75.2141 22.3029 75.9811 22.4442 76.7614C22.9677 76.9485 23.4996 76.8462 24.0179 76.8617C24.582 76.8782 25.1481 76.872 25.7122 76.8627C26.2357 76.8545 26.7645 76.9092 27.3504 76.7955C27.3774 76.0152 27.4023 75.271 27.4293 74.4782C28.7101 74.3469 29.9328 74.4327 31.1523 74.4182C32.3812 74.4037 33.6112 74.4151 34.8411 74.4151C36.071 74.4151 37.2999 74.4213 38.5298 74.413C39.7525 74.4058 40.9772 74.4451 42.256 74.38C42.4679 73.5768 42.231 72.7727 42.4336 71.953C43.2771 71.8589 44.1029 71.9179 44.9236 71.9075C45.7214 71.8972 46.5181 71.9055 47.3159 71.9055H49.808C50.6058 71.9055 51.4025 71.9075 52.2003 71.9055C53.0282 71.9024 53.8551 71.8951 54.6924 71.8889C54.9822 71.1075 54.7142 70.3312 54.9064 69.556C55.6636 69.3121 56.476 69.5819 57.2478 69.3917C57.6218 68.7146 57.254 67.9312 57.5989 67.2014C58.3105 66.9544 59.0885 67.1291 59.8354 67.004C60.5802 66.88 61.3562 66.9399 62.1675 66.9172C62.208 66.7208 62.2735 66.5368 62.2787 66.3518C62.2932 65.7926 62.2839 65.2334 62.2839 64.6246C62.5114 64.576 62.6942 64.5119 62.878 64.5036C63.4702 64.4778 64.0664 64.5202 64.6772 64.4644C64.967 63.6664 64.6606 62.8498 64.9224 62.0333C65.7191 61.9526 66.5117 62.0085 67.3012 61.9888C68.0907 61.9692 68.8823 62.0085 69.6987 61.9588C69.8899 61.1454 69.6894 60.3764 69.8598 59.6032C70.6274 59.442 71.3982 59.628 72.1669 59.4699C72.3674 58.6957 72.1555 57.9267 72.3196 57.1277C72.5284 57.0946 72.7466 57.045 72.9678 57.0295C73.5257 56.9892 74.0918 57.0946 74.6746 56.9406C74.9052 56.2015 74.6455 55.4263 74.8512 54.6459C75.3726 54.5147 75.9024 54.588 76.4239 54.5767C76.9557 54.5653 77.4876 54.5767 78.0184 54.5756C78.5451 54.5746 79.0728 54.5705 79.6067 54.5674C79.9194 53.7508 79.613 52.9332 79.8571 52.1342C80.6019 51.9657 81.3747 52.1631 82.1601 51.9936C82.3128 51.2339 82.1424 50.469 82.2858 49.6742C83.898 49.5326 85.4853 49.6959 87.1047 49.5718C87.3405 48.7842 87.0912 47.978 87.2959 47.1563C87.6407 47.1387 87.9638 47.1087 88.2869 47.1077C90.7124 47.1035 93.138 47.117 95.5636 47.1004C96.8237 47.0922 98.0837 47.0374 99.3012 47.0043C99.6045 46.7934 99.5526 46.5113 99.5681 46.2539C99.5962 45.765 99.5172 45.2657 99.6876 44.7293C99.9535 44.7034 100.207 44.658 100.461 44.6569C102.322 44.6518 104.183 44.6569 106.044 44.6528C106.369 44.6528 106.695 44.6259 107.074 44.6084C107.201 43.9458 107.135 43.3225 107.145 42.7044C107.155 42.109 107.147 41.5137 107.147 40.9193C107.147 40.2909 107.157 39.6624 107.144 39.035C107.133 38.449 107.205 37.8567 107.08 37.2469C106.297 37.0618 105.525 37.2634 104.788 37.1104C104.745 36.9719 104.694 36.881 104.694 36.79C104.688 30.4745 104.686 24.1601 104.688 17.8446C104.688 17.7185 104.735 17.5924 104.765 17.4394C105.514 17.2172 106.29 17.456 107.031 17.2834C107.213 16.9495 107.144 16.6136 107.144 16.2921C107.149 13.7463 107.147 11.2004 107.148 8.65462C107.148 8.29595 107.159 7.93625 107.165 7.55587C107.974 7.27162 108.792 7.56414 109.594 7.32951C109.766 6.58633 109.568 5.81731 109.737 5.04209C110.515 4.89324 111.283 5.04725 112.011 4.94286C112.38 4.67205 112.345 4.29064 112.341 3.9361C112.329 2.66164 112.418 2.74536 113.621 2.65234C114.737 2.56551 115.85 2.44251 117.012 2.45285C117.226 1.67039 117.027 0.902403 117.167 0.139585C117.516 -0.048535 117.887 0.0227854 118.24 0.0227854C122.062 0.0165836 125.883 0.0186509 129.704 0.0186509C130.433 0.0186509 131.162 0.0186509 131.936 0.0186509C131.979 0.24915 132.041 0.433136 132.045 0.618155C132.058 1.17631 132.05 1.73551 132.05 2.34845C132.32 2.39393 132.537 2.46008 132.754 2.46215C133.851 2.47352 134.947 2.46422 136.044 2.47042C136.336 2.47249 136.627 2.50143 136.946 2.52003C137.153 3.30766 136.934 4.07668 137.105 4.87567C137.314 4.90875 137.532 4.9594 137.752 4.9749C138.31 5.01418 138.875 4.91495 139.46 5.05759C139.634 5.85038 139.525 6.64214 139.547 7.42667C139.569 8.21533 139.564 9.00605 139.57 9.80608C140.362 10.079 141.141 9.82469 141.88 9.9973C142.109 10.2981 142.015 10.6392 142.016 10.9586C142.024 13.8682 142.02 16.7779 142.02 19.6876C142.02 22.6303 142.02 25.5731 142.02 28.5158V29.6404C141.784 29.6869 141.598 29.751 141.412 29.7561C140.85 29.7706 140.288 29.7613 139.685 29.7613C139.634 29.9567 139.563 30.1076 139.562 30.2585C139.554 32.4074 139.555 34.5563 139.56 36.7063C139.56 36.8313 139.6 36.9554 139.627 37.1115C140.392 37.2965 141.164 37.0877 141.949 37.2593C142.1 38.3022 141.999 39.3214 142.017 40.3353C142.036 41.3597 142.021 42.385 142.021 43.4104C142.021 44.4027 142.02 45.3939 142.019 46.3862C142.019 47.4085 142.019 48.4297 142.019 49.5026C142.3 49.547 142.517 49.6018 142.737 49.6122C143.296 49.637 143.859 49.5894 144.381 49.6473C144.612 50.0091 144.534 50.3481 144.534 50.6716C144.539 53.2175 144.534 55.7633 144.534 58.3091C144.534 58.6698 144.548 59.0306 144.556 59.4037C145.339 59.688 146.118 59.4213 146.927 59.6177C146.951 59.8492 146.998 60.1004 146.999 60.3526C147.006 62.1707 147.001 63.9899 147.005 65.8081C147.005 66.1337 147.024 66.4603 147.037 66.8376C147.824 67.0784 148.634 66.8283 149.4 67.0164C149.585 67.3875 149.518 67.7575 149.518 68.112C149.523 72.2455 149.518 76.378 149.52 80.5114C149.52 80.9032 149.536 81.2949 149.545 81.726C150.331 81.9348 151.102 81.7384 151.9 81.8851C151.93 82.0857 151.972 82.2707 151.983 82.4567C151.998 82.6872 151.988 82.9198 151.988 83.1513C151.988 97.1374 151.988 111.123 151.988 125.109C151.988 125.502 151.988 125.895 151.988 126.327C151.205 126.577 150.431 126.352 149.725 126.489C149.433 126.756 149.525 127.072 149.523 127.355C149.513 129.174 149.519 130.993 149.515 132.811C149.515 133.136 149.488 133.459 149.473 133.827C148.682 134.037 147.91 133.823 147.115 133.983C147.079 134.153 147.014 134.336 147.01 134.52C146.995 135.079 147.005 135.639 147.005 136.244C146.776 136.29 146.591 136.358 146.406 136.36C145.144 136.37 143.881 136.368 142.618 136.363C142.459 136.363 142.301 136.323 142.11 136.298C141.933 135.529 142.129 134.762 141.983 134.046C141.187 133.895 133.291 133.861 132.148 134C131.943 134.792 132.071 135.616 132.056 136.43C132.042 137.213 132.003 138.002 132.102 138.813C132.906 139 133.679 138.796 134.416 138.956C134.643 139.263 134.558 139.605 134.559 139.925C134.566 142.504 134.561 145.083 134.564 147.662C134.564 148.019 134.587 148.375 134.6 148.751C135.364 149.014 136.111 148.76 136.866 148.954C136.896 149.088 136.958 149.241 136.963 149.395C136.993 150.583 137.03 151.773 137.031 152.962C137.036 161.889 137.034 170.816 137.037 179.743C137.037 180.132 136.99 180.528 137.114 180.939C137.883 181.128 138.656 180.916 139.441 181.088C139.477 181.278 139.543 181.465 139.545 181.653C139.556 182.48 139.548 183.306 139.548 184.133C139.548 190.117 139.548 196.102 139.552 202.087C139.552 202.475 139.49 202.876 139.662 203.301C140.395 203.479 141.169 203.272 141.931 203.437C142.077 203.809 142.015 204.176 142.015 204.529C142.02 210.316 142.018 216.102 142.02 221.888C142.02 222.28 142.034 222.672 142.041 223.093C142.852 223.357 143.667 223.079 144.44 223.297C144.586 223.703 144.529 224.102 144.529 224.493C144.533 230.246 144.53 235.999 144.535 241.752C144.535 242.143 144.469 242.543 144.643 242.969C145.363 243.181 146.14 242.937 146.928 243.127C146.953 243.286 146.998 243.442 146.998 243.597C147.002 248.987 147.001 254.376 146.999 259.765C146.999 259.925 146.973 260.083 146.956 260.288C146.181 260.467 145.409 260.269 144.662 260.426C144.472 260.796 144.537 261.164 144.536 261.517C144.53 264.659 144.532 267.8 144.532 270.941C144.532 272.033 144.534 273.123 144.53 274.214C144.529 274.508 144.506 274.801 144.492 275.135C143.72 275.373 142.946 275.139 142.135 275.313C142.099 275.499 142.037 275.712 142.024 275.929C141.986 276.515 142.072 277.109 141.955 277.724C141.213 277.94 140.468 277.716 139.729 277.895C139.497 278.605 139.743 279.351 139.543 280.092C138.776 280.352 137.964 280.082 137.151 280.277C136.874 281.023 137.168 281.834 136.951 282.643C136.163 282.786 135.369 282.698 134.583 282.713C133.753 282.727 132.922 282.721 132.091 282.714C131.301 282.707 130.509 282.749 129.701 282.678C129.48 281.878 129.713 281.106 129.545 280.403C129.311 280.132 129.027 280.21 128.773 280.208C126.912 280.2 125.051 280.204 123.19 280.198C122.866 280.198 122.541 280.172 122.188 280.157C121.995 279.368 122.2 278.6 122.049 277.884C121.267 277.73 118.366 277.7 117.21 277.828C117.178 277.933 117.108 278.053 117.108 278.174C117.104 280.389 117.107 282.604 117.111 284.82C117.111 284.882 117.143 284.944 117.181 285.077C117.367 285.107 117.582 285.16 117.801 285.174C118.358 285.21 118.921 285.123 119.509 285.246C119.708 286.05 119.588 286.841 119.606 287.624C119.625 288.412 119.611 289.202 119.611 290.016C120.407 290.272 121.182 290.036 121.982 290.209C122.014 290.421 122.073 290.638 122.075 290.855C122.084 291.946 122.076 293.037 122.082 294.128C122.084 294.419 122.114 294.709 122.133 295.02C122.918 295.233 123.694 295.01 124.467 295.189C124.65 295.955 124.6 296.695 124.503 297.504C124.222 297.531 123.968 297.576 123.716 297.578C121.889 297.588 120.06 297.591 118.233 297.595C117.905 297.595 117.576 297.595 117.23 297.595C116.955 298.386 117.206 299.159 117.022 299.961C116.304 300.149 115.532 299.957 114.733 300.101C114.696 300.327 114.633 300.544 114.631 300.76C114.619 301.852 114.627 302.942 114.62 304.034C114.618 304.324 114.587 304.613 114.567 304.925C113.753 305.043 113.004 305.032 112.2 304.937C112.024 304.18 112.221 303.412 112.063 302.626C111.305 302.463 110.537 302.63 109.764 302.503C109.586 301.957 109.679 301.429 109.664 300.911C109.65 300.383 109.664 299.853 109.66 299.324C109.657 298.8 109.646 298.276 109.64 297.831C109.369 297.511 109.086 297.597 108.832 297.596C106.972 297.589 105.11 297.596 103.25 297.592C102.926 297.592 102.601 297.563 102.234 297.546C102.106 296.977 102.172 296.451 102.16 295.931C102.148 295.402 102.15 294.873 102.152 294.344C102.153 293.821 102.161 293.298 102.166 292.739C102.972 292.53 103.744 292.737 104.555 292.581C104.593 292.385 104.66 292.17 104.669 291.954C104.689 291.395 104.682 290.837 104.687 290.27C105.488 290.006 106.265 290.248 107.018 290.081C107.229 289.738 107.138 289.364 107.139 289.014C107.147 285.41 107.144 281.806 107.144 278.202C107.144 276.78 107.144 275.359 107.144 273.937V272.927C106.361 272.658 105.585 272.907 104.783 272.724C104.749 272.523 104.695 272.309 104.68 272.092C104.643 271.538 104.734 270.976 104.596 270.365C104.323 270.337 104.069 270.29 103.816 270.289C101.955 270.283 100.094 270.289 98.2333 270.283C97.9113 270.282 97.5726 270.354 97.2018 270.144C97.1841 269.444 97.1665 268.726 97.1478 267.959C96.3604 267.728 95.5854 267.86 94.772 267.867C94.5819 268.662 94.7855 269.431 94.6089 270.224C93.8028 270.34 93.0113 270.265 92.2249 270.283C91.4344 270.3 90.6408 270.256 89.818 270.316C89.5552 271.123 89.8471 271.937 89.603 272.723C88.8385 272.9 88.0666 272.697 87.3177 272.858C87.0954 273.202 87.192 273.576 87.192 273.927C87.1847 278.92 87.1878 283.912 87.1857 288.905C87.1857 289.264 87.1681 289.623 87.1598 289.964C86.4586 290.156 83.7338 290.203 82.3138 290.053C82.2847 289.849 82.2318 289.631 82.2266 289.411C82.2131 288.886 82.2224 288.361 82.2224 287.802C81.3561 287.569 80.5281 287.707 79.7127 287.684C78.9232 287.661 78.1296 287.64 77.2944 287.716C77.124 288.502 77.3068 289.268 77.1604 290.05C76.3958 290.227 75.624 290.028 74.8584 290.19C74.6081 290.972 74.8761 291.784 74.6548 292.601C73.83 292.667 73.0385 292.629 72.249 292.635C71.4179 292.641 70.588 292.631 69.7569 292.638C68.9654 292.645 68.1717 292.601 67.3334 292.679C67.1423 293.451 67.3459 294.219 67.1859 295.008C66.0869 295.165 64.9972 295.061 63.9127 295.079C62.85 295.098 61.7863 295.083 60.7226 295.083C59.6297 295.083 58.5369 295.083 57.4254 295.081C57.3735 294.897 57.3091 294.775 57.3091 294.654C57.3029 292.473 57.3039 290.291 57.3091 288.107C57.3091 288.014 57.3496 287.92 57.3849 287.771C58.1204 287.582 58.8922 287.784 59.6993 287.632C59.7367 287.429 59.8032 287.214 59.8115 286.996C59.8313 286.438 59.825 285.88 59.8292 285.314C60.628 285.039 61.4071 285.297 62.1924 285.109C62.3607 284.368 62.2735 283.622 62.2506 282.905C62.0107 282.643 61.7281 282.721 61.4736 282.72C59.6464 282.713 57.8181 282.716 55.9909 282.716C55.6636 282.716 55.3354 282.716 54.951 282.716C54.9053 282.44 54.8399 282.224 54.8378 282.008C54.8264 280.917 54.8357 279.826 54.8285 278.735C54.8264 278.444 54.7942 278.154 54.7744 277.853C53.9777 277.637 53.2038 277.861 52.407 277.689C52.3759 277.498 52.3239 277.313 52.3198 277.126C52.3073 276.63 52.3146 276.134 52.3146 275.639C52.3146 269.323 52.3156 263.008 52.3125 256.693C52.3125 256.304 52.3686 255.906 52.218 255.472C51.4773 255.306 50.7065 255.498 49.9295 255.344C49.808 254.933 49.8537 254.538 49.8516 254.151C49.8495 253.795 49.8745 253.439 49.889 253.046C50.6858 252.879 51.4565 253.062 52.2419 252.906C52.3956 251.726 52.2928 250.575 52.3115 249.429C52.3302 248.306 52.3156 247.181 52.3156 246.056C52.3156 244.932 52.3156 243.742 52.3156 242.584C52.3156 241.46 52.3156 240.336 52.3156 239.212C52.3156 238.057 52.3156 236.902 52.3156 235.694C52.5847 235.651 52.8018 235.6 53.023 235.584C53.5819 235.544 54.148 235.646 54.6986 235.507C54.9199 235.156 54.8285 234.783 54.8295 234.428C54.8368 230.261 54.8336 226.096 54.8347 221.929C54.8347 221.569 54.8482 221.209 54.8555 220.835C55.6387 220.555 56.4178 220.818 57.173 220.635C57.3943 220.309 57.2945 219.933 57.2956 219.583C57.3049 216.475 57.3018 213.367 57.3008 210.259C57.3008 208.341 57.2987 206.423 57.2977 204.506C57.2977 204.18 57.2977 203.854 57.2977 203.484C58.1162 203.239 58.9265 203.484 59.6931 203.298C59.8811 202.929 59.8136 202.56 59.8136 202.206C59.8188 198.039 59.8167 193.874 59.8188 189.707C59.8188 189.348 59.8323 188.989 59.8396 188.58C60.6239 188.385 61.3946 188.583 62.1582 188.437C62.3493 188.085 62.2797 187.716 62.2797 187.365C62.2859 183.992 62.2839 180.619 62.2849 177.248C62.2849 176.355 62.2849 175.463 62.2849 174.57C62.2849 174.309 62.2849 174.048 62.2849 173.728C62.5498 173.685 62.7659 173.63 62.983 173.617C63.5408 173.58 64.1049 173.667 64.6481 173.554C64.886 173.192 64.7957 172.818 64.7967 172.465C64.805 169.886 64.7894 167.307 64.8071 164.728C64.8133 163.773 64.885 162.818 64.938 161.863C64.9567 161.538 65.0979 161.411 65.4542 161.387C65.7524 161.366 66.0526 161.386 66.3507 161.365C66.6094 161.347 66.8649 161.298 67.0945 161.266C67.3469 160.924 67.2628 160.585 67.2638 160.268C67.2701 157.689 67.268 155.11 67.268 152.532C67.268 152.17 67.268 151.808 67.268 151.358L67.2773 151.348ZM136.877 116.504C137.166 116.214 137.055 115.866 137.056 115.55C137.064 112.611 137.061 109.672 137.061 106.733C137.061 104.52 137.064 102.307 137.056 100.095C137.055 99.8093 137.142 99.4971 136.852 99.1891C136.341 99.1891 135.78 99.1974 135.219 99.184C135.032 99.1798 134.848 99.1199 134.616 99.0765C134.609 98.6754 134.607 98.3147 134.593 97.955C134.579 97.5663 134.647 97.1684 134.488 96.7425C133.693 96.6567 132.921 96.6102 132.098 96.7797C131.988 98.3881 132.127 99.9654 132.017 101.562C131.218 101.739 130.446 101.538 129.65 101.722C129.628 102.036 129.591 102.324 129.59 102.611C129.583 103.701 129.592 104.791 129.582 105.881C129.58 106.099 129.521 106.317 129.489 106.528C128.691 106.705 127.917 106.48 127.128 106.691C127.109 107.012 127.077 107.301 127.075 107.59C127.069 108.68 127.077 109.77 127.068 110.86C127.066 111.078 127.007 111.296 126.967 111.561C126.35 111.561 125.787 111.551 125.225 111.566C125.039 111.571 124.855 111.636 124.609 111.686C124.666 112.494 124.461 113.273 124.763 114.088C125.357 114.088 125.919 114.079 126.479 114.093C126.664 114.098 126.848 114.162 127.074 114.208C127.074 114.813 127.065 115.374 127.079 115.932C127.085 116.117 127.15 116.3 127.192 116.504H136.876H136.877ZM67.2036 280.224C66.7621 280.212 66.4016 280.185 66.0432 280.197C65.6547 280.21 65.2506 280.108 64.8455 280.33C64.7842 281.103 64.7063 281.875 64.9026 282.711C65.6994 282.677 66.4473 282.818 67.2524 282.616C67.2701 281.835 67.3293 281.087 67.2036 280.224Z" fill="#E87433"/>
</g>
<defs>
<clipPath id="clip0_49_11">
<rect width="152" height="305" fill="white"/>
</clipPath>
</defs>
</svg>
