<svg width="239" height="296" viewBox="0 0 239 296" fill="none" xmlns="http://www.w3.org/2000/svg">
<g clip-path="url(#clip0_35_137)">
<path d="M90.1919 296C90.1989 294.764 90.224 293.528 90.2059 292.292C90.1949 291.531 90.0685 291.423 89.3335 291.378C89.0337 291.359 88.7319 291.369 88.4311 291.369C83.4847 291.369 78.5374 291.37 73.591 291.365C73.1668 291.365 72.7427 291.321 72.2143 291.291C72.1792 289.829 72.1471 288.446 72.11 286.923H67.68V282.678H72.0298C72.0809 282.115 72.1511 281.693 72.1521 281.271C72.1631 277.763 72.1621 274.255 72.1651 270.747C72.1651 270.513 72.1591 270.278 72.1681 270.045C72.1982 269.254 72.2574 269.179 73.0295 269.16C73.8316 269.14 74.6338 269.165 75.436 269.149C75.7939 269.142 76.1509 269.083 76.564 269.042V237.299C75.1261 237.262 73.7414 237.226 72.2554 237.188C72.2223 236.663 72.1702 236.21 72.1691 235.757C72.1641 227.805 72.1661 219.854 72.1641 211.902C72.1641 210.181 72.1591 210.181 70.4706 210.179C69.5741 210.179 68.6787 210.179 67.6379 210.179C67.5727 207.874 67.6128 205.682 67.6058 203.492C67.5978 201.292 67.6038 199.092 67.6038 196.806C66.1398 196.554 64.7361 196.81 63.244 196.624C63.2089 196.236 63.1447 195.854 63.1437 195.471C63.1357 191.93 63.1387 188.389 63.1387 184.846C63.1387 184.613 63.1427 184.378 63.1337 184.145C63.0996 183.23 63.0094 183.133 62.0628 183.12C60.9649 183.106 59.8669 183.117 58.6436 183.117C58.5202 181.932 58.5934 180.839 58.5804 179.752C58.5674 178.65 58.5784 177.547 58.5784 176.445C58.5784 175.342 58.5784 174.239 58.5784 173.137C58.5784 172.038 58.5784 170.939 58.5784 169.741C57.1255 169.494 55.7227 169.734 54.2216 169.574C54.1855 169.222 54.1244 168.876 54.1174 168.528C54.1003 167.66 54.1294 166.79 54.0983 165.923C54.0732 165.228 53.9579 165.119 53.251 165.095C52.4168 165.066 51.5795 165.09 50.7442 165.078C50.3873 165.073 50.0303 165.036 49.553 165.006V151.613H45.1862C45.1481 151.13 45.098 150.777 45.097 150.424C45.0899 148.252 45.098 146.081 45.0899 143.909C45.0889 143.517 45.0348 143.125 44.9957 142.599C43.4465 142.54 41.9635 142.562 40.4133 142.584C39.9992 144.03 40.4434 145.488 40.1015 146.948H36.1047C36.0776 145.5 36.0515 144.117 36.0234 142.59H31.5233C31.4932 141.127 31.5002 139.811 31.5193 138.397C33.0033 138.175 34.4402 138.423 35.8239 138.246C36.1458 137.372 36.1648 116.56 35.8279 115.525H31.6115C31.3508 114.021 31.6416 112.581 31.415 111.094C30.0473 110.736 28.6284 111.119 27.1424 110.839C27.1103 110.469 27.0492 110.086 27.0472 109.702C27.0251 106.128 27.0171 102.553 26.994 98.9781C26.991 98.522 26.9299 98.0649 26.8867 97.4876H22.6663C22.4457 96.6476 22.3826 85.7319 22.5711 84.2664C22.8288 84.2374 23.1115 84.1822 23.3963 84.1782C24.3318 84.1662 25.2684 84.1862 26.2039 84.1662C26.9128 84.1512 27.0051 84.0649 27.0301 83.3443C27.0592 82.5103 27.0422 81.6743 27.0422 80.8383C27.0422 79.2015 27.0512 77.5636 27.0351 75.9268C27.0261 74.9866 26.9198 74.8853 26.0003 74.8663C25.1982 74.8493 24.396 74.8693 23.5938 74.8603C23.269 74.8563 22.9451 74.8162 22.4868 74.7831V52.4325C21.9985 52.4014 21.6436 52.3593 21.2886 52.3583C19.0155 52.3503 16.7433 52.3543 14.4702 52.3463C13.4735 52.3433 13.4725 52.3342 13.4614 51.3329C13.4504 50.2974 13.4434 49.262 13.4294 48.2276C13.4294 48.1654 13.3842 48.1043 13.3281 47.9599C11.9925 47.5439 10.5305 48.0201 9.01041 47.6442C9.00439 46.9445 9.00239 46.2539 8.99136 45.5643C8.98033 44.8727 8.95927 44.18 8.93922 43.3471H4.44006V38.8755C3.91965 38.8254 3.5316 38.7633 3.14255 38.7553C2.30729 38.7362 1.47203 38.7432 0.635772 38.7412C0.236693 38.7402 0.001056 38.5638 0.001056 38.1438C5.32902e-05 35.5096 0.001056 32.8754 0.001056 30.2663C0.741056 30.0107 2.66225 29.9605 4.00287 30.153C4.04298 30.3755 4.12019 30.6251 4.12521 30.8767C4.14225 31.6786 4.13022 32.4805 4.13423 33.2824C4.14125 34.5483 4.18336 34.5985 5.41369 34.6015C7.55247 34.6075 9.69225 34.5975 11.831 34.6035C12.2221 34.6045 12.6121 34.6486 13.1195 34.6797C13.1516 36.1391 13.1817 37.5223 13.2148 39.0419C14.785 39.0971 16.243 39.065 17.6999 39.07C19.1298 39.075 20.5606 39.071 22.0868 39.071C22.1239 39.5281 22.173 39.8799 22.178 40.2327C22.191 41.0677 22.165 41.9037 22.191 42.7386C22.2131 43.4453 22.3374 43.5936 23.0002 43.6117C24.0691 43.6418 25.14 43.6398 26.2079 43.6087C26.8907 43.5896 27.0081 43.4563 27.0321 42.7547C27.0592 41.9538 27.0422 41.1509 27.0432 40.349C27.0432 39.9872 27.0432 39.6243 27.0432 39.1793C28.5171 38.9427 29.9209 39.1722 31.409 39.0129C31.4431 38.6701 31.5012 38.3523 31.5012 38.0346C31.5062 31.1183 31.5062 24.202 31.5012 17.2867C31.5012 16.995 31.4531 16.7033 31.417 16.2833H27.2547C26.981 15.3301 26.969 8.60726 27.2006 7.70914C28.0619 7.46958 34.7721 7.46056 35.7748 7.7332V11.9812H40.1456C40.1827 12.4653 40.2328 12.8182 40.2338 13.172C40.2408 15.3441 40.2318 17.5152 40.2398 19.6874C40.2408 20.0793 40.295 20.4722 40.3321 20.9583C40.7492 20.9874 41.1022 21.0285 41.4561 21.0325C42.3255 21.0435 43.1948 21.0486 44.0632 21.0325C44.5695 21.0235 44.8112 21.232 44.7841 21.7452C44.7721 21.9787 44.7841 22.2133 44.7841 22.4468C44.7871 27.4917 44.7891 32.5366 44.7921 37.5815C44.7921 38.0105 44.7921 38.4395 44.7921 38.8304C45.5853 39.1111 52.2954 39.1953 53.9529 38.9657C54.364 37.6186 53.9028 36.1611 54.2317 34.7378C55.6405 34.386 57.0994 34.829 58.5794 34.4341V32.1918C58.5794 31.9242 58.5794 31.6575 58.5794 31.3899C58.5801 30.4971 59.0109 30.0504 59.8719 30.0498C60.5738 30.0498 61.2757 30.0538 61.9776 30.0467C62.2754 30.0437 62.5722 30.0187 62.9582 29.9996C63.3944 28.6023 62.9322 27.1459 63.254 25.7015C64.6609 25.3858 66.1168 25.7847 67.6058 25.4289V21.1237C68.793 20.9433 69.889 21.0506 70.9769 21.0325C72.113 21.0135 73.2501 21.0285 74.3861 21.0285C75.4891 21.0285 76.5921 21.0275 77.6951 21.0275C78.791 21.0275 79.888 21.0275 81.0251 21.0275C81.3881 19.548 81.0171 18.1287 81.2808 16.7765C82.0308 16.5169 101.931 16.4467 103.342 16.7154C103.453 17.9603 103.401 19.2393 103.364 20.6226C102.9 20.6616 102.515 20.7198 102.129 20.7208C98.5194 20.7318 94.9096 20.7298 91.2999 20.7428C90.8777 20.7438 90.4556 20.811 89.9261 20.8571V25.2154C89.4649 25.2444 89.1119 25.2825 88.759 25.2865C86.5199 25.3096 84.2809 25.3196 82.0418 25.3447C81.0221 25.3557 80.9599 25.4209 80.9449 26.4242C80.9338 27.1589 80.9499 27.8947 80.9389 28.6294C80.9338 28.9532 80.8917 29.2759 80.8596 29.6809C80.3272 29.7089 79.87 29.745 79.4127 29.7551C78.8452 29.7671 78.2767 29.7551 77.7081 29.7591C76.3745 29.7661 76.3414 29.7972 76.3304 31.0872C76.3244 31.7888 76.3354 32.4905 76.3254 33.1922C76.3214 33.5169 76.2853 33.8417 76.2562 34.2988H72.0779C71.8282 35.1568 71.7661 51.1935 71.9866 52.5217C72.3085 52.5608 72.6605 52.6389 73.0124 52.6399C78.3599 52.647 83.7083 52.648 89.0558 52.6399C90.1137 52.6389 90.1899 52.5517 90.2079 51.4932C90.2209 50.7254 90.2039 49.9566 90.2159 49.1878C90.2209 48.8651 90.2641 48.5423 90.2952 48.1594H103.169C103.457 48.838 103.516 51.0181 103.254 52.3212H98.9937V56.6614C98.6146 56.7276 98.365 56.8038 98.1133 56.8088C97.278 56.8248 96.4418 56.8098 95.6065 56.8178C94.4724 56.8288 94.3992 56.9 94.3852 57.9986C94.3762 58.7333 94.3872 59.469 94.3802 60.2038C94.3772 60.5335 94.3511 60.8623 94.3301 61.3284C93.195 61.4186 92.102 61.3625 91.0141 61.3725C89.9111 61.3825 88.8081 61.3745 87.7051 61.3745C86.6022 61.3745 85.4992 61.3745 84.3962 61.3735C83.2972 61.3735 82.1983 61.3735 81.003 61.3735C80.7554 62.8299 81.003 64.2332 80.8235 65.7278C80.4385 65.7649 80.0575 65.832 79.6764 65.834C77.5036 65.845 75.3317 65.834 73.1588 65.845C72.7688 65.8471 72.3797 65.9122 71.9325 65.9543V79.5233C73.3092 79.9683 74.7692 79.4942 76.2472 79.834C76.2762 80.1948 76.3274 80.5497 76.3284 80.9035C76.3364 82.9413 76.3324 84.9801 76.3324 87.0179C76.3324 87.2855 76.3244 87.5532 76.3394 87.8198C76.3815 88.5776 76.4808 88.6959 77.2238 88.7199C78.025 88.746 78.8281 88.7289 79.6303 88.7309C79.9913 88.7309 80.3513 88.7309 80.8536 88.7309V93.1163C82.4369 93.2746 83.8969 93.1784 85.3498 93.1954C86.8127 93.2125 88.2767 93.1995 89.875 93.1995C89.9031 94.72 89.9282 96.1364 89.9562 97.6489C90.4927 97.686 90.9489 97.7442 91.4041 97.7452C97.9218 97.7552 104.439 97.7572 110.957 97.7612C111.934 97.7619 112.424 98.2587 112.426 99.2517C112.426 99.8862 112.413 100.522 112.432 101.156C112.442 101.478 112.511 101.799 112.566 102.221C112.976 102.221 113.304 102.221 113.631 102.221C123.458 102.221 133.284 102.221 143.112 102.221C143.245 102.221 143.38 102.224 143.513 102.218C144.26 102.184 144.359 102.103 144.383 101.322C144.41 100.454 144.383 99.5845 144.399 98.7155C144.414 97.8644 144.474 97.8013 145.318 97.7893C146.888 97.7662 148.459 97.7542 150.031 97.7532C167.044 97.7512 184.057 97.7532 201.07 97.7532C201.533 97.7532 201.996 97.7532 202.568 97.7532C202.612 98.1972 202.669 98.5471 202.676 98.8979C202.692 99.7328 202.664 100.569 202.691 101.404C202.715 102.118 202.805 102.2 203.524 102.212C204.56 102.23 205.597 102.218 206.633 102.224C206.763 102.224 206.893 102.259 207.117 102.292C207.157 102.533 207.229 102.782 207.233 103.032C207.248 104 207.228 104.969 207.247 105.938C207.26 106.619 207.349 106.752 207.969 106.755C212.08 106.772 216.191 106.772 220.303 106.753C220.923 106.75 221.005 106.615 221.02 105.931C221.038 105.096 221.026 104.261 221.026 103.426C221.026 103.096 221.026 102.766 221.026 102.332C221.378 102.289 221.66 102.229 221.942 102.225C222.878 102.212 223.814 102.232 224.75 102.213C225.458 102.199 225.549 102.112 225.575 101.39C225.604 100.589 225.579 99.786 225.591 98.9841C225.596 98.6272 225.634 98.2704 225.665 97.7993C227.125 97.7662 228.509 97.7361 230.003 97.7021C230.123 94.701 229.984 91.8092 230.086 88.8633C230.402 88.8131 230.654 88.743 230.907 88.738C231.709 88.7229 232.512 88.7229 233.314 88.7339C234.321 88.748 234.361 88.7911 234.372 89.8355C234.38 90.6374 234.359 91.4393 234.381 92.2412C234.402 93.002 234.501 93.1062 235.266 93.1213C236.364 93.1433 237.463 93.1263 238.666 93.1263C238.71 93.5814 238.775 93.9322 238.775 94.283C238.782 102.468 238.783 110.655 238.78 118.84C238.78 119.165 238.731 119.488 238.696 119.925C237.242 119.956 235.859 119.986 234.385 120.017C234.355 120.485 234.316 120.839 234.312 121.192C234.302 122.027 234.319 122.863 234.304 123.698C234.29 124.446 234.237 124.502 233.507 124.516C232.672 124.532 231.836 124.52 231.001 124.521C230.671 124.521 230.342 124.521 229.909 124.521C229.85 124.979 229.765 125.359 229.761 125.74C229.744 127.176 229.754 128.613 229.754 130.05C229.755 145.72 229.756 161.39 229.757 177.059C229.757 179.093 229.657 178.932 231.684 178.939C232.51 178.942 233.335 178.961 234.3 178.975C234.325 187.993 234.297 196.895 234.316 205.829C235.78 206.223 237.202 205.824 238.558 206.095C238.824 206.818 238.889 213.391 238.623 214.703H234.556C234.266 215.551 234.213 218.052 234.433 219.397C235.776 219.628 237.18 219.376 238.659 219.555C238.699 219.839 238.776 220.121 238.776 220.404C238.766 224.747 238.742 229.09 238.734 233.433C238.733 233.96 238.602 234.374 238.212 234.773C237.592 235.407 237.621 236.086 238.261 236.692C238.639 237.051 238.781 237.447 238.774 237.937C238.769 238.305 238.777 238.672 238.777 239.04C238.777 249.966 238.777 260.89 238.777 271.816V273.177C237.297 273.525 235.843 273.132 234.323 273.472V282.248C233.874 282.289 233.553 282.338 233.233 282.343C232.464 282.356 231.695 282.34 230.926 282.35C229.858 282.364 229.773 282.445 229.755 283.482C229.742 284.249 229.758 285.018 229.748 285.787C229.744 286.111 229.705 286.436 229.677 286.826H225.613C225.603 286.117 225.593 285.461 225.586 284.805C225.581 284.27 225.601 283.734 225.572 283.201C225.535 282.508 225.42 282.384 224.73 282.358C223.895 282.327 223.058 282.353 222.223 282.34C221.866 282.335 221.509 282.295 221.091 282.267V269.264C221.433 269.227 221.78 269.164 222.129 269.158C222.997 269.142 223.867 269.172 224.736 269.144C225.425 269.121 225.523 268.998 225.572 268.298C225.588 268.065 225.581 267.831 225.581 267.596C225.581 258.041 225.583 248.485 225.581 238.93C225.581 237.244 225.576 237.243 223.858 237.242C222.964 237.242 222.07 237.242 221.032 237.242C221.001 234.151 221.027 231.19 221.022 228.23C221.017 225.296 221.021 222.362 221.021 219.365C219.558 219.01 218.14 219.377 216.647 219.101C216.613 218.736 216.546 218.353 216.545 217.971C216.54 215.934 216.551 213.896 216.555 211.857C216.555 211.556 216.564 211.253 216.536 210.956C216.478 210.333 216.371 210.213 215.724 210.189C214.89 210.158 214.054 210.182 213.217 210.171C212.859 210.166 212.502 210.133 212.008 210.105V201.29C211.556 201.235 211.233 201.164 210.91 201.163C208.537 201.153 206.164 201.148 203.791 201.159C202.789 201.164 202.692 201.264 202.678 202.244C202.663 203.341 202.675 204.437 202.675 205.671H198.27C198.141 207.991 198.225 210.182 198.209 212.368C198.194 214.569 198.206 216.77 198.206 218.936C197.43 219.247 190.982 219.312 189.58 219.033C189.553 218.711 189.502 218.358 189.5 218.005C189.487 215.8 189.49 213.595 189.476 211.39C189.469 210.26 189.397 210.191 188.284 210.181C187.349 210.173 186.412 210.163 185.476 210.193C184.784 210.215 184.681 210.339 184.634 211.034C184.614 211.334 184.625 211.635 184.625 211.936C184.625 228.909 184.625 245.881 184.623 262.854C184.623 263.279 184.583 263.704 184.561 264.156C183.098 264.528 181.635 264.062 180.148 264.492V277.683C179.326 277.913 168.294 277.972 166.956 277.768C166.724 276.388 167.008 274.949 166.786 273.462C165.411 273.124 163.993 273.488 162.479 273.206C162.341 271.942 162.415 270.66 162.444 269.287C163.883 268.95 165.339 269.347 166.855 269.002V260.23C167.304 260.19 167.625 260.143 167.946 260.137C168.781 260.123 169.618 260.145 170.453 260.119C171.31 260.092 171.406 259.983 171.428 259.1C171.444 258.499 171.433 257.897 171.433 257.296C171.433 255.659 171.43 254.021 171.435 252.384C171.436 252.023 171.466 251.663 171.489 251.164C172.96 251.122 174.37 251.082 175.832 251.04V237.411C174.441 236.999 172.984 237.449 171.502 237.116C171.476 236.651 171.427 236.196 171.427 235.741C171.426 226.253 171.431 216.763 171.429 207.275C171.429 206.787 171.373 206.3 171.336 205.712H166.905V201.341C165.404 200.934 163.982 201.333 162.526 201.046C162.193 199.664 162.612 198.208 162.26 196.759H148.592C148.556 198.187 148.522 199.572 148.484 201.055C148.105 201.095 147.787 201.149 147.467 201.155C146.732 201.169 145.996 201.173 145.261 201.157C144.41 201.139 144.335 201.068 144.313 200.243C144.293 199.475 144.317 198.706 144.302 197.937C144.295 197.578 144.239 197.22 144.195 196.748C138.159 196.647 132.191 196.699 126.124 196.686C125.861 198.133 126.121 199.536 125.94 201.034C125.564 201.072 125.183 201.142 124.803 201.144C122.631 201.155 120.459 201.144 118.286 201.155C117.896 201.157 117.506 201.22 117.008 201.264V214.591C115.501 214.911 114.057 214.566 112.524 214.827C112.491 215.306 112.43 215.791 112.43 216.276C112.424 224.529 112.426 232.781 112.427 241.034C112.427 245.277 112.429 249.52 112.431 253.764C112.431 254.194 112.431 254.624 112.431 255.146C110.955 255.48 109.503 255.099 107.995 255.422C107.932 256.939 107.949 258.422 107.98 259.968C109.422 260.333 110.842 259.96 112.322 260.24C112.355 260.546 112.418 260.863 112.418 261.182C112.423 267.864 112.423 274.547 112.419 281.228C112.419 281.525 112.384 281.822 112.36 282.204C110.939 282.548 109.481 282.128 107.966 282.498V291.278C107.447 291.312 107.058 291.358 106.67 291.36C104.464 291.367 102.258 291.357 100.053 291.367C98.9726 291.372 98.9295 291.416 98.9365 292.51C98.9445 293.672 98.9826 294.833 99.0067 295.994H90.1818L90.1919 296ZM85.5734 277.883C85.4851 278.15 85.3889 278.305 85.3889 278.461C85.3769 281.132 85.3758 283.804 85.3748 286.476C85.3748 286.983 85.6676 287.188 86.1409 287.189C87.2098 287.192 88.2797 287.213 89.3486 287.186C90.0735 287.167 90.1859 287.036 90.2069 286.26C90.23 285.392 90.2039 284.523 90.2199 283.655C90.226 283.339 90.2901 283.025 90.3292 282.697C91.8223 282.544 93.2241 282.774 94.681 282.536C94.681 281.469 94.681 280.504 94.681 279.539C94.68 278.537 94.664 277.535 94.678 276.533C94.692 275.583 94.6048 274.625 94.7502 273.585H99.0107C99.3466 272.562 99.3236 251.76 98.9676 250.786H94.681V226.713C94.681 224.742 94.695 222.772 94.677 220.801C94.6589 218.814 94.7612 216.823 94.6108 214.77C93.0105 214.719 91.5285 214.711 89.9171 214.773C89.9171 215.328 89.9171 215.753 89.9171 216.178C89.9171 221.222 89.9171 226.265 89.9161 231.309C89.9161 231.576 89.9051 231.843 89.9161 232.111C89.9332 232.572 89.7276 232.783 89.2593 232.777C88.391 232.766 87.5217 232.775 86.6533 232.777C86.2923 232.777 85.9324 232.777 85.4721 232.777C85.431 233.342 85.3688 233.798 85.3678 234.254C85.3608 239.398 85.3628 244.541 85.3628 249.685C85.3628 249.885 85.3558 250.087 85.3718 250.286C85.425 250.962 85.5303 251.081 86.2372 251.104C87.0714 251.131 87.9077 251.104 88.743 251.118C89.0969 251.123 89.4509 251.17 89.9191 251.208C89.9191 251.658 89.9191 252.015 89.9191 252.374C89.9191 260.457 89.9191 268.54 89.9191 276.623C89.9191 276.824 89.9111 277.024 89.9191 277.225C89.9372 277.689 89.7176 277.892 89.2553 277.887C88.387 277.878 87.5176 277.887 86.6493 277.887C86.2893 277.887 85.9293 277.887 85.5784 277.887L85.5734 277.883Z" fill="#AE4307"/>
<path d="M18.6234 0C18.5973 0.996346 18.5682 1.99269 18.5462 2.99004C18.5371 3.38297 18.5451 3.77689 18.5451 4.13073C17.7259 4.44046 6.6149 4.5036 5.32742 4.21893C5.28129 2.83167 5.23316 1.41634 5.18604 0C9.66514 0 14.1443 0 18.6234 0Z" fill="#AE4307"/>
<path d="M18.6233 7.96464V3.96522C18.9652 3.93214 19.252 3.88102 19.5398 3.88002C21.7768 3.871 24.0139 3.86799 26.2509 3.871C27.2516 3.87301 27.2647 3.88804 27.2717 4.87236C27.2787 5.89978 27.2737 6.9282 27.2737 7.91853C26.4454 8.18316 19.7082 8.21222 18.6243 7.96564L18.6233 7.96464Z" fill="#AE4307"/>
<path d="M102.992 24.5529C102.917 23.1716 102.926 21.8585 102.989 20.4131C104.353 20.3229 105.634 20.37 106.881 20.376C107.181 21.2361 107.202 23.5655 106.932 24.5529H102.992Z" fill="#AE4307"/>
</g>
<defs>
<clipPath id="clip0_35_137">
<rect width="238.798" height="296" fill="white"/>
</clipPath>
</defs>
</svg>
