<svg width="321" height="398" viewBox="0 0 321 398" fill="none" xmlns="http://www.w3.org/2000/svg">
<g clip-path="url(#clip0_27_199)">
<path d="M121.239 397.893C121.248 396.232 121.282 394.571 121.258 392.909C121.243 391.885 121.073 391.741 120.085 391.68C119.682 391.655 119.276 391.668 118.872 391.668C112.223 391.668 105.573 391.67 98.9235 391.663C98.3533 391.663 97.7832 391.604 97.0729 391.563C97.0257 389.599 96.9826 387.739 96.9327 385.691H90.9778V379.985H96.8249C96.8936 379.229 96.9879 378.662 96.9893 378.095C97.0041 373.379 97.0028 368.663 97.0068 363.947C97.0068 363.633 96.9987 363.318 97.0109 363.004C97.0513 361.94 97.1308 361.839 98.1687 361.814C99.247 361.787 100.325 361.82 101.404 361.799C101.885 361.79 102.365 361.71 102.92 361.655V318.985C100.987 318.935 99.1257 318.887 97.1281 318.836C97.0836 318.131 97.0136 317.522 97.0122 316.913C97.0055 306.224 97.0082 295.535 97.0055 284.846C97.0055 282.532 96.9987 282.532 94.7289 282.53C93.5239 282.53 92.3202 282.53 90.9211 282.53C90.8335 279.431 90.8874 276.485 90.878 273.541C90.8672 270.583 90.8753 267.626 90.8753 264.554C88.9074 264.214 87.0204 264.559 85.0147 264.309C84.9676 263.787 84.8813 263.274 84.88 262.759C84.8692 257.999 84.8732 253.238 84.8732 248.477C84.8732 248.163 84.8786 247.847 84.8665 247.533C84.8206 246.305 84.6993 246.174 83.4269 246.156C81.951 246.137 80.4751 246.152 78.8307 246.152C78.6649 244.56 78.7633 243.09 78.7458 241.629C78.7282 240.147 78.7431 238.665 78.7431 237.183C78.7431 235.7 78.7431 234.218 78.7431 232.736C78.7431 231.259 78.7431 229.781 78.7431 228.171C76.79 227.84 74.9043 228.162 72.8865 227.947C72.838 227.475 72.7558 227.008 72.7464 226.541C72.7234 225.374 72.7625 224.204 72.7207 223.039C72.687 222.105 72.532 221.958 71.5818 221.926C70.4603 221.887 69.3349 221.919 68.2121 221.903C67.7322 221.896 67.2524 221.846 66.6108 221.806V203.803H60.7408C60.6896 203.154 60.6222 202.68 60.6208 202.205C60.6114 199.285 60.6222 196.367 60.6114 193.447C60.61 192.92 60.5373 192.393 60.4847 191.686C58.4022 191.607 56.4087 191.636 54.3249 191.666C53.7682 193.61 54.3653 195.569 53.9057 197.532H48.5331C48.4967 195.585 48.4616 193.727 48.4239 191.674H42.3746C42.3342 189.708 42.3436 187.939 42.3692 186.038C44.3641 185.74 46.2956 186.073 48.1556 185.834C48.5883 184.661 48.6139 156.684 48.161 155.293H42.4932C42.1428 153.27 42.5336 151.335 42.229 149.336C40.3905 148.855 38.4833 149.369 36.4857 148.993C36.4426 148.496 36.3604 147.982 36.3577 147.465C36.328 142.661 36.3172 137.856 36.2862 133.05C36.2822 132.436 36.2 131.822 36.142 131.046H30.4688C30.1722 129.917 30.0873 115.244 30.3407 113.274C30.6871 113.235 31.0672 113.16 31.45 113.155C32.7076 113.139 33.9665 113.166 35.2241 113.139C36.177 113.119 36.3011 113.003 36.3348 112.034C36.3738 110.913 36.3509 109.789 36.3509 108.666C36.3509 106.465 36.3631 104.264 36.3415 102.063C36.3294 100.799 36.1865 100.663 34.9505 100.638C33.8722 100.615 32.7939 100.642 31.7156 100.63C31.2789 100.624 30.8435 100.57 30.2275 100.526V70.4813C29.5711 70.4396 29.0939 70.383 28.6168 70.3816C25.5612 70.3708 22.5069 70.3762 19.4512 70.3654C18.1114 70.3614 18.1101 70.3493 18.0953 69.0032C18.0804 67.6113 18.071 66.2195 18.0521 64.829C18.0521 64.7454 17.9915 64.6632 17.916 64.4692C16.1206 63.91 14.1554 64.55 12.112 64.0448C12.1039 63.1043 12.1012 62.1759 12.0864 61.2489C12.0716 60.3192 12.0433 59.3881 12.0163 58.2684H5.96839V52.2576C5.26884 52.1903 4.74721 52.1067 4.22424 52.0959C3.10145 52.0703 1.97867 52.0798 0.854539 52.0771C0.318083 52.0757 0.00133148 51.8386 0.00133148 51.274C-1.63996e-05 47.733 0.00133148 44.1921 0.00133148 40.6848C0.996066 40.3412 3.5786 40.2738 5.38072 40.5325C5.43463 40.8316 5.53842 41.1671 5.54516 41.5053C5.56807 42.5832 5.5519 43.6612 5.55729 44.7391C5.56672 46.4409 5.62333 46.5082 7.27718 46.5123C10.1522 46.5204 13.0286 46.5069 15.9036 46.515C16.4293 46.5163 16.9536 46.5756 17.6356 46.6174C17.6788 48.5792 17.7192 50.4386 17.7637 52.4813C19.8745 52.5554 21.8343 52.5123 23.7927 52.519C25.7148 52.5258 27.6382 52.5204 29.6897 52.5204C29.7396 53.1348 29.8056 53.6077 29.8124 54.082C29.8299 55.2044 29.7948 56.3282 29.8299 57.4505C29.8595 58.4005 30.0267 58.5999 30.9176 58.6241C32.3545 58.6646 33.794 58.6619 35.2295 58.6201C36.1474 58.5945 36.3051 58.4153 36.3374 57.4721C36.3738 56.3955 36.3509 55.3163 36.3523 54.2383C36.3523 53.7519 36.3523 53.2641 36.3523 52.6659C38.3337 52.3479 40.2207 52.6565 42.2209 52.4422C42.2668 51.9814 42.3449 51.5543 42.3449 51.1272C42.3517 41.83 42.3517 32.5329 42.3449 23.2372C42.3449 22.8451 42.2802 22.453 42.2317 21.8884H36.6367C36.2687 20.607 36.2525 11.57 36.5639 10.3627C37.7217 10.0407 46.7417 10.0285 48.0896 10.395V16.1053H53.965C54.0149 16.7561 54.0823 17.2304 54.0836 17.7061C54.0931 20.6259 54.0809 23.5444 54.0917 26.4642C54.0931 26.991 54.1658 27.5192 54.2157 28.1727C54.7764 28.2118 55.2509 28.267 55.7267 28.2724C56.8953 28.2873 58.0639 28.294 59.2312 28.2724C59.9118 28.2603 60.2367 28.5406 60.2003 29.2304C60.1841 29.5444 60.2003 29.8597 60.2003 30.1736C60.2043 36.9551 60.207 43.7366 60.2111 50.5181C60.2111 51.0948 60.2111 51.6715 60.2111 52.197C61.2772 52.5743 70.2972 52.6875 72.5253 52.3789C73.0779 50.568 72.4579 48.6089 72.9 46.6955C74.7938 46.2226 76.7549 46.8181 78.7444 46.2873V43.2731C78.7444 42.9134 78.7444 42.555 78.7444 42.1952C78.7453 40.9951 79.3244 40.3946 80.4818 40.3937C81.4253 40.3937 82.3689 40.3991 83.3124 40.3897C83.7127 40.3856 84.1117 40.3519 84.6306 40.3263C85.2169 38.4481 84.5956 36.4903 85.0282 34.5487C86.9193 34.1242 88.8764 34.6605 90.878 34.1822V28.395C92.4739 28.1525 93.9471 28.2967 95.4096 28.2724C96.9367 28.2468 98.4652 28.267 99.9924 28.267C101.475 28.267 102.958 28.2657 104.44 28.2657C105.914 28.2657 107.388 28.2657 108.917 28.2657C109.405 26.2769 108.906 24.369 109.26 22.5513C110.269 22.2024 137.019 22.108 138.916 22.4691C139.065 24.1426 138.995 25.8619 138.946 27.7213C138.322 27.7739 137.804 27.852 137.285 27.8534C132.433 27.8682 127.581 27.8655 122.728 27.883C122.161 27.8844 121.593 27.9747 120.882 28.0366V33.8952C120.262 33.9342 119.787 33.9854 119.313 33.9908C116.303 34.0218 113.293 34.0353 110.283 34.069C108.913 34.0838 108.829 34.1714 108.809 35.5201C108.794 36.5078 108.816 37.4968 108.801 38.4844C108.794 38.9196 108.737 39.3535 108.694 39.8979C107.979 39.9356 107.364 39.9841 106.749 39.9976C105.986 40.0137 105.222 39.9976 104.458 40.003C102.665 40.0124 102.621 40.0542 102.606 41.7883C102.598 42.7315 102.613 43.6747 102.599 44.6178C102.594 45.0544 102.545 45.491 102.506 46.1054H96.8895C96.5539 47.2588 96.4704 68.8159 96.7669 70.6012C97.1996 70.6538 97.6727 70.7589 98.1458 70.7602C105.334 70.7697 112.524 70.771 119.712 70.7602C121.134 70.7589 121.236 70.6417 121.261 69.2188C121.278 68.1867 121.255 67.1532 121.271 66.1198C121.278 65.6859 121.336 65.252 121.378 64.7373H138.683C139.07 65.6495 139.15 68.5801 138.798 70.3318H133.071V76.166C132.561 76.255 132.226 76.3574 131.887 76.3641C130.764 76.3857 129.64 76.3655 128.518 76.3762C126.993 76.3911 126.895 76.4867 126.876 77.9635C126.864 78.9511 126.879 79.9401 126.869 80.9278C126.865 81.3711 126.83 81.813 126.802 82.4396C125.276 82.5608 123.807 82.4854 122.344 82.4989C120.862 82.5123 119.379 82.5015 117.896 82.5015C116.414 82.5015 114.931 82.5015 113.448 82.5002C111.971 82.5002 110.494 82.5002 108.887 82.5002C108.554 84.458 108.887 86.3444 108.646 88.3533C108.128 88.4032 107.616 88.4935 107.104 88.4962C104.183 88.511 101.263 88.4962 98.3426 88.511C97.8182 88.5137 97.2953 88.6013 96.6941 88.6579V106.898C98.5447 107.496 100.507 106.859 102.494 107.315C102.533 107.8 102.602 108.277 102.603 108.753C102.614 111.492 102.609 114.233 102.609 116.972C102.609 117.332 102.598 117.692 102.618 118.05C102.675 119.069 102.808 119.228 103.807 119.26C104.884 119.295 105.963 119.272 107.042 119.275C107.527 119.275 108.011 119.275 108.686 119.275V125.17C110.814 125.383 112.777 125.253 114.73 125.276C116.697 125.299 118.665 125.282 120.813 125.282C120.851 127.326 120.884 129.23 120.922 131.263C121.643 131.313 122.257 131.391 122.869 131.392C131.63 131.406 140.391 131.408 149.152 131.414C150.466 131.415 151.124 132.083 151.127 133.417C151.127 134.27 151.109 135.125 151.135 135.977C151.148 136.41 151.241 136.841 151.316 137.408C151.867 137.408 152.308 137.408 152.747 137.408C165.956 137.408 179.165 137.408 192.376 137.408C192.555 137.408 192.736 137.412 192.915 137.404C193.919 137.359 194.053 137.251 194.085 136.2C194.121 135.033 194.085 133.865 194.107 132.697C194.127 131.553 194.206 131.468 195.341 131.452C197.452 131.421 199.564 131.404 201.676 131.403C224.546 131.4 247.415 131.403 270.285 131.403C270.907 131.403 271.53 131.403 272.298 131.403C272.358 132 272.435 132.47 272.444 132.942C272.466 134.064 272.428 135.188 272.464 136.31C272.497 137.271 272.618 137.38 273.584 137.396C274.977 137.421 276.37 137.404 277.763 137.412C277.938 137.412 278.113 137.46 278.414 137.504C278.468 137.829 278.565 138.163 278.57 138.498C278.59 139.8 278.563 141.103 278.589 142.406C278.607 143.321 278.725 143.5 279.559 143.504C285.086 143.527 290.612 143.527 296.138 143.501C296.973 143.497 297.083 143.315 297.102 142.397C297.126 141.274 297.11 140.15 297.11 139.028C297.11 138.585 297.11 138.141 297.11 137.558C297.583 137.5 297.963 137.419 298.342 137.414C299.6 137.396 300.859 137.423 302.116 137.398C303.068 137.379 303.19 137.263 303.225 136.291C303.265 135.215 303.231 134.136 303.247 133.058C303.254 132.578 303.305 132.098 303.347 131.465C305.309 131.421 307.169 131.38 309.178 131.334C309.34 127.3 309.152 123.413 309.29 119.453C309.714 119.385 310.053 119.291 310.394 119.284C311.472 119.264 312.55 119.264 313.628 119.279C314.983 119.298 315.036 119.356 315.05 120.76C315.061 121.838 315.033 122.916 315.063 123.994C315.091 125.016 315.224 125.156 316.253 125.177C317.729 125.206 319.206 125.183 320.823 125.183C320.883 125.795 320.969 126.267 320.969 126.738C320.978 137.741 320.98 148.745 320.976 159.748C320.976 160.185 320.911 160.62 320.864 161.208C318.909 161.249 317.049 161.289 315.068 161.33C315.028 161.96 314.976 162.435 314.971 162.911C314.957 164.033 314.98 165.157 314.96 166.279C314.941 167.284 314.87 167.36 313.889 167.379C312.766 167.4 311.642 167.384 310.519 167.386C310.075 167.386 309.633 167.386 309.051 167.386C308.973 168.001 308.858 168.512 308.853 169.024C308.83 170.955 308.843 172.886 308.843 174.818C308.845 195.882 308.846 216.946 308.848 238.009C308.848 240.742 308.713 240.527 311.438 240.536C312.547 240.54 313.657 240.566 314.955 240.585C314.988 252.706 314.951 264.672 314.976 276.682C316.944 277.211 318.855 276.675 320.678 277.04C321.035 278.012 321.123 286.848 320.765 288.61H315.298C314.909 289.75 314.837 293.114 315.133 294.92C316.939 295.232 318.826 294.892 320.814 295.133C320.868 295.515 320.97 295.895 320.97 296.275C320.957 302.113 320.926 307.951 320.915 313.788C320.914 314.497 320.737 315.053 320.213 315.59C319.38 316.443 319.419 317.355 320.279 318.17C320.787 318.652 320.977 319.185 320.968 319.843C320.961 320.338 320.972 320.831 320.972 321.326C320.972 336.012 320.972 350.698 320.972 365.384V367.214C318.982 367.682 317.028 367.154 314.986 367.61V379.407C314.382 379.462 313.951 379.528 313.519 379.535C312.487 379.552 311.453 379.531 310.419 379.544C308.984 379.563 308.869 379.672 308.845 381.066C308.827 382.098 308.849 383.131 308.835 384.165C308.83 384.6 308.777 385.036 308.74 385.562H303.277C303.263 384.608 303.25 383.727 303.24 382.844C303.234 382.126 303.261 381.405 303.221 380.688C303.172 379.757 303.018 379.59 302.089 379.555C300.968 379.513 299.842 379.548 298.72 379.531C298.24 379.524 297.76 379.47 297.198 379.432V361.954C297.657 361.904 298.124 361.819 298.593 361.811C299.76 361.79 300.93 361.83 302.097 361.792C303.025 361.761 303.155 361.597 303.221 360.655C303.243 360.342 303.234 360.027 303.234 359.712C303.234 346.867 303.236 334.022 303.234 321.177C303.234 318.911 303.227 318.91 300.918 318.908C299.716 318.908 298.515 318.908 297.118 318.908C297.078 314.754 297.112 310.774 297.105 306.795C297.098 302.85 297.103 298.906 297.103 294.877C295.137 294.4 293.231 294.893 291.224 294.523C291.178 294.032 291.089 293.518 291.088 293.004C291.081 290.265 291.096 287.526 291.101 284.785C291.101 284.381 291.113 283.974 291.076 283.574C290.998 282.737 290.853 282.575 289.984 282.543C288.863 282.501 287.738 282.534 286.614 282.519C286.133 282.512 285.652 282.468 284.989 282.43V270.581C284.381 270.507 283.947 270.411 283.513 270.41C280.322 270.396 277.133 270.389 273.943 270.404C272.596 270.411 272.466 270.546 272.447 271.864C272.426 273.338 272.443 274.812 272.443 276.47H266.521C266.348 279.588 266.461 282.534 266.439 285.472C266.419 288.431 266.435 291.39 266.435 294.301C265.392 294.72 256.725 294.807 254.839 294.431C254.804 293.999 254.736 293.524 254.733 293.05C254.715 290.086 254.719 287.122 254.701 284.157C254.691 282.639 254.594 282.546 253.098 282.532C251.84 282.522 250.581 282.508 249.324 282.548C248.392 282.578 248.255 282.745 248.192 283.679C248.165 284.082 248.179 284.487 248.179 284.892C248.179 307.707 248.179 330.522 248.177 353.337C248.177 353.909 248.123 354.48 248.093 355.088C246.127 355.587 244.16 354.961 242.161 355.539V373.271C241.056 373.581 226.227 373.659 224.429 373.385C224.116 371.53 224.497 369.596 224.199 367.597C222.351 367.143 220.446 367.632 218.41 367.253C218.224 365.554 218.324 363.831 218.363 361.985C220.297 361.532 222.254 362.066 224.292 361.602V349.81C224.896 349.756 225.328 349.693 225.759 349.684C226.882 349.666 228.006 349.695 229.129 349.66C230.281 349.625 230.41 349.478 230.44 348.291C230.46 347.483 230.447 346.674 230.447 345.866C230.447 343.666 230.443 341.464 230.449 339.264C230.451 338.779 230.49 338.293 230.521 337.624C232.498 337.567 234.395 337.513 236.36 337.457V319.136C234.489 318.582 232.531 319.187 230.538 318.74C230.503 318.115 230.439 317.503 230.439 316.891C230.437 304.137 230.444 291.381 230.441 278.626C230.441 277.97 230.366 277.315 230.316 276.526H224.36V270.65C222.342 270.102 220.431 270.639 218.474 270.253C218.025 268.395 218.588 266.438 218.115 264.491H199.742C199.694 266.409 199.648 268.271 199.598 270.266C199.088 270.318 198.66 270.391 198.23 270.399C197.242 270.418 196.252 270.423 195.264 270.402C194.121 270.377 194.02 270.283 193.991 269.173C193.964 268.141 193.996 267.107 193.976 266.074C193.966 265.591 193.891 265.11 193.832 264.476C185.717 264.34 177.696 264.41 169.54 264.392C169.187 266.336 169.536 268.223 169.294 270.237C168.788 270.288 168.276 270.381 167.765 270.384C164.844 270.399 161.925 270.384 159.004 270.399C158.48 270.402 157.955 270.486 157.287 270.546V288.461C155.261 288.891 153.32 288.427 151.259 288.778C151.214 289.422 151.132 290.074 151.132 290.726C151.124 301.819 151.127 312.912 151.128 324.006C151.128 329.709 151.131 335.413 151.134 341.118C151.134 341.696 151.134 342.274 151.134 342.976C149.15 343.424 147.198 342.912 145.171 343.348C145.086 345.386 145.109 347.379 145.15 349.458C147.089 349.949 148.997 349.447 150.987 349.823C151.031 350.234 151.116 350.661 151.116 351.09C151.123 360.072 151.123 369.055 151.117 378.037C151.117 378.435 151.07 378.834 151.038 379.348C149.128 379.811 147.168 379.247 145.131 379.744V391.546C144.433 391.591 143.912 391.653 143.39 391.656C140.425 391.666 137.459 391.652 134.494 391.666C133.042 391.672 132.984 391.732 132.994 393.202C133.005 394.763 133.056 396.325 133.088 397.885H121.226L121.239 397.893ZM115.031 373.54C114.912 373.899 114.783 374.108 114.783 374.316C114.766 377.907 114.765 381.499 114.764 385.09C114.764 385.772 115.157 386.048 115.794 386.05C117.23 386.054 118.669 386.082 120.105 386.046C121.08 386.02 121.231 385.843 121.259 384.801C121.29 383.634 121.255 382.466 121.277 381.299C121.285 380.874 121.371 380.452 121.424 380.011C123.431 379.806 125.315 380.114 127.273 379.795C127.273 378.36 127.273 377.062 127.273 375.766C127.272 374.419 127.251 373.071 127.269 371.725C127.288 370.448 127.171 369.16 127.366 367.763H133.094C133.545 366.387 133.514 338.424 133.036 337.114H127.273V304.755C127.273 302.106 127.292 299.457 127.268 296.808C127.244 294.138 127.381 291.46 127.179 288.701C125.028 288.632 123.036 288.621 120.87 288.705C120.87 289.451 120.87 290.023 120.87 290.594C120.87 297.374 120.87 304.153 120.868 310.933C120.868 311.293 120.853 311.651 120.868 312.011C120.891 312.631 120.615 312.915 119.985 312.907C118.818 312.892 117.65 312.904 116.482 312.907C115.997 312.907 115.513 312.907 114.895 312.907C114.839 313.667 114.756 314.279 114.754 314.892C114.745 321.807 114.748 328.72 114.748 335.635C114.748 335.904 114.738 336.175 114.76 336.443C114.831 337.352 114.973 337.512 115.923 337.543C117.044 337.579 118.169 337.543 119.291 337.562C119.767 337.569 120.243 337.632 120.872 337.682C120.872 338.287 120.872 338.768 120.872 339.25C120.872 350.116 120.872 360.981 120.872 371.847C120.872 372.116 120.862 372.386 120.872 372.655C120.897 373.279 120.601 373.552 119.98 373.546C118.813 373.534 117.644 373.546 116.477 373.546C115.993 373.546 115.509 373.546 115.037 373.546L115.031 373.54Z" fill="#63A10D"/>
<path d="M25.0341 0C24.9991 1.33932 24.96 2.67865 24.9303 4.01932C24.9182 4.5475 24.929 5.07703 24.929 5.55267C23.8278 5.96902 8.89192 6.0539 7.16124 5.67124C7.09924 3.80643 7.03454 1.90389 6.97119 0C12.9922 0 19.0131 0 25.0341 0Z" fill="#63A10D"/>
<path d="M25.0342 10.7065V5.33032C25.4938 5.28586 25.8793 5.21714 26.2661 5.21579C29.2733 5.20366 32.2804 5.19962 35.2875 5.20366C36.6327 5.20636 36.6502 5.22657 36.6596 6.54973C36.6691 7.93082 36.6623 9.31326 36.6623 10.6445C35.549 11.0002 26.4926 11.0393 25.0355 10.7078L25.0342 10.7065Z" fill="#63A10D"/>
<path d="M138.446 33.0046C138.345 31.1478 138.357 29.3827 138.442 27.4398C140.275 27.3185 141.996 27.3818 143.673 27.3899C144.076 28.546 144.104 31.6774 143.742 33.0046H138.446Z" fill="#63A10D"/>
</g>
<defs>
<clipPath id="clip0_27_199">
<rect width="321" height="397.894" fill="white"/>
</clipPath>
</defs>
</svg>
