<svg width="587" height="400" viewBox="0 0 587 400" fill="none" xmlns="http://www.w3.org/2000/svg">
<path d="M586.768 45.1131L584.527 39.4686L563.134 18.1212L541.917 0.409988L537.955 0.0255824L531.85 4.29669L513.897 15.0285L497.009 29.3759L487.251 44.5562L481.54 63.4519L381.41 123.618L337.265 150.473L290.733 177.542L254.19 200.179L231.884 216.133L210.969 235.12L187.661 254.318L173.048 263.075L155.784 244.601L148.755 240.785L140.355 242.292L124.895 249.829L106.255 263.226L74.9124 281.86L40.2226 302.465L3.46208 322.706L0.918656 327.391L4.57067 328.111L14.512 325.163L28.1323 319.161L87.9053 288.656L144.71 254.775L152.007 259.495L153.186 265.698L146.002 272.412L127.284 285.007L67.6451 320.387L18.571 346.077L16.7851 348.896L19.482 351.375L42.1055 343.682L72.6336 328.402L143.075 288.016L164.59 274.917L172.319 284.419L168.201 291.535L158.876 299.869L129.731 318.177L56.1535 357.365L34.9569 369.877L36.2197 373.6L42.2942 373.109L140.53 322.025L180.936 296.937L183.365 298.512L191.311 310.41L190.272 314.65L182.076 321.83L165.276 333.691L139.21 349.123L103.438 369.397L74.1098 384.321L56.3108 393.37L52.2764 398.006L54.6216 399.279L59.108 398.933L67.736 396.534L84.4959 391.724L106.527 380.928L182.551 340.031L195.883 330.835L204.143 321.667L207.508 313.127L203.629 304.452L186.831 280.923L240.698 242.665L289.005 213.266L378.898 156.135L461.215 105.515L496.414 84.4264L514.246 83.2357L535.69 78.187L558.753 69.2133L576.424 58.0728L583.789 53.3507L586.932 48.4872L586.748 45.1024L586.768 45.1131ZM553.352 55.924L538.224 62.3788L514.197 67.5357L493.42 64.8498L498.283 50.2974L508.259 37.5133L523.053 23.3003L531.587 17.8223L564.654 50.9413L553.355 55.9342L553.352 55.924Z" fill="#764914"/>
</svg>
