<svg width="617" height="709" viewBox="0 0 617 709" fill="none" xmlns="http://www.w3.org/2000/svg">
<g opacity="0.3" clip-path="url(#clip0_205_2)">
<path d="M115.837 700.986L104.054 656.67L67.7263 580.299L0 406.83L50.0691 501.112L28.4727 300.287L65.7797 462.456L40.2557 243.719L81.4904 428.508L57.9244 243.719L91.3037 372.882V307.83L103.087 430.4L115.849 452.314L125.662 381.366L117.807 308.771L110.931 228.633L134.497 312.548L119.776 111.722L159.848 324.507L183.587 528.449L190.463 549.195V530.606L196.349 526.566L202.234 437.943L192.421 436.06L188.493 427.575L184.566 291.812L177.206 289.457L169.35 284.739L165.423 270.595L153.64 148.976L158.546 141.433L169.35 137.666L167.392 103.727L173.278 139.559L183.091 141.442L187.998 152.752L196.832 257.402V275.313L195.853 281.914L202.234 282.413V247.43L205.667 281.914H207.625L216.459 128.23L202.718 43.3743L218.429 93.3405L228.242 0L232.17 133.88L262.601 243.248L268.486 188.564L234.139 14.1442L272.425 135.764L277.332 107.475L318.567 303.583L369.615 518.543L384.335 577.945L388.263 538.347L342.121 324.328L318.555 227.221L296.959 115.028L334.266 231.939L325.432 171.595L312.67 125.396L298.928 37.7148L348.998 209.31L337.215 138.598L336.236 105.601L355.874 99.0001L348.018 47.1411L360.781 97.1073L369.615 101.825L374.522 107.485L384.335 139.54L400.046 284.73V305.306L393.169 312.077L387.284 314.902L400.046 406.086L409.859 304.534V277.818L402.004 209.31L390.221 49.0339L419.672 189.516L439.311 26.405L433.425 288.506L442.259 357.334L464.835 99.0001V352.146L531.594 50.9173L518.832 175.371L519.811 214.028L531.594 222.437V238.267L529.635 280.031L516.873 355.461L510.988 371.488L502.153 377.148L499.205 376.206L500.184 527.056L534.542 391.292L617 143.326L583.621 305.494L546.314 429.007L501.151 624.172L578.702 399.777L561.034 474.255L554.157 511.028L550.23 528.939L540.416 560.994L528.633 606.252L556.115 543.083L580.661 481.798L594.402 452.568L572.805 534.589L547.281 599.641L518.808 685.439L510.953 707.126H495.012L485.429 702.408H471.688L466.781 697.69L476.595 682.604L488.378 446.899L472.667 530.813L457.947 616.611L445.185 700.525L434.75 707.126L419.661 704.301L420.87 671.681L406.899 701.476H402.971L400.023 693.933L405.908 657.16L406.887 616.62L385.291 686.39L381.363 692.991L374.487 689.224L364.674 685.458L355.839 682.633L345.035 615.688L346.993 644.918L350.921 679.798L347.972 699.602L346.256 707.145L335.21 700.544L334.231 685.458L326.376 686.399L323.427 694.884L321.469 702.427L313.614 699.602L308.465 674.732L313.315 662.509C313.315 662.509 320.502 656.237 319.511 646.801C318.532 637.375 305.033 608.926 305.033 608.926L299.884 601.543C299.884 601.543 296.936 613.804 296.936 618.513C296.936 623.221 293.987 641.142 293.987 643.025C293.987 644.908 294.966 655.286 294.966 658.111C294.966 660.936 292.018 676.022 292.018 676.022V690.166C292.018 690.166 295.945 695.826 295.945 699.592C295.945 703.359 295.531 707.135 295.531 707.135L290.06 709.019H277.321L266.505 685.448L254.722 643.967C254.722 643.967 255.701 618.513 253.743 640.2C251.785 661.887 248.836 656.228 251.785 665.654C254.734 675.08 261.598 689.224 262.589 692.991C263.568 696.758 262.589 697.709 262.589 700.534C262.589 703.359 258.684 709.019 258.684 709.019C258.684 709.019 252.764 707.135 248.836 704.301C244.909 701.466 235.095 684.497 235.095 684.497L229.21 698.641L224.303 700.525L218.417 687.322L228.231 635.463L207.613 705.233L187.134 709C187.134 709 165.399 703.34 163.43 702.399C161.46 701.457 151.647 698.632 151.647 698.632L147.719 693.914C147.719 693.914 157.533 670.344 157.533 669.402C157.533 668.46 151.647 653.374 149.677 644.89C147.719 636.405 143.792 604.35 143.792 604.35C143.792 604.35 144.771 585.497 142.813 578.896C140.854 572.295 134.957 548.724 134.957 548.724L131.03 701.457L115.814 700.986H115.837Z" fill="#006248"/>
<path d="M230.212 207.417L226.18 352.146L223.335 381.847L219.408 431.813L211.564 578.896V601.402L202.718 631.687L200.76 667.518L215.48 605.574L223.335 556.267L224.326 531.755L227.263 430.871L234.139 466.693L240.025 443.123L228.242 412.951L240.025 430.24L248.295 352.146V420.663L259.663 329.988L230.212 207.417Z" fill="#006248"/>
<path d="M275.374 416.727L270.456 497.807L287.146 521.377L295.98 491.205L275.374 416.727Z" fill="#006248"/>
<path d="M279.302 236.647V315.297L299.908 407.301L281.26 236.647H279.302Z" fill="#006248"/>
<path d="M270.456 523.11L268.498 535.521L274.384 559.092L279.302 589.744V596.411L285.187 557.209L270.456 523.11Z" fill="#006248"/>
<path d="M369.615 305.476L378.449 312.077L390.094 400.464L398.087 461.043L394.16 471.411L383.851 427.331L388.263 405.417L381.398 368.644L369.615 305.476Z" fill="#006248"/>
<path d="M482.515 375.245H489.403L459.928 549.666L458.615 521.377L482.515 375.245Z" fill="#006248"/>
</g>
<defs>
<clipPath id="clip0_205_2">
<rect width="617" height="709" fill="white"/>
</clipPath>
</defs>
</svg>
