<svg width="374" height="454" viewBox="0 0 374 454" fill="none" xmlns="http://www.w3.org/2000/svg">
<g opacity="0.5" clip-path="url(#clip0_34_130)">
<path d="M362.986 234.801L367.843 227.304L373.14 213.419L337.818 218.051L302.057 218.929L283.956 204.814L243.336 178.362L227.005 173.071L213.322 158.517L192.572 149.703L180.648 140.439L159.899 132.943L136.94 114.865L119.279 95.0204L107.805 59.7433L100.299 38.5811L96.3211 4.19241L91.9034 0.668701L77.7805 14.3343L65.4168 37.7026L55.262 79.1487L54.3824 115.304L62.3284 140.879L69.8346 154.105L84.4072 173.061L73.3728 182.325L48.2056 209.217L42.4685 236.109L49.5349 258.599L58.8102 278.004V299.166L33.643 332.237L5.38732 373.683L0.529785 404.987L10.2449 426.15L21.719 436.291L34.9623 444.227L48.6453 450.396L72.923 453.481H91.9034L107.356 442.9L130.754 423.494L154.592 399.248L193.882 352.95L206.245 346.781L221.697 348.548L249.953 353.839L270.263 350.754L287.044 341.491L298.968 334.433L314.86 316.355L325.895 298.278L332.521 287.697L351.501 280.639L369.602 274.909L373.13 267.852L360.767 266.524L366.944 259.028V253.298C366.944 251.97 364.735 248.007 364.735 248.007L373.12 237.426L362.966 234.781L362.986 234.801ZM37.601 409.849H29.655L24.7975 406.325L20.3797 399.268V390.892L22.5886 386.92H32.7434L37.601 398.828V409.849ZM88.3752 434.545L76.901 438.068L68.955 434.095L62.7782 430.122V422.187L72.933 419.541H83.9674L88.3852 428.356V434.525L88.3752 434.545ZM144.447 237.446L112.213 250.673L93.2327 246.7L76.901 238.325L80.879 216.723L90.1543 204.814L99.4295 197.757L105.606 200.842H119.739L138.28 206.132L148.435 220.686L144.457 237.446H144.447ZM271.152 302.261L255.7 310.636L230.973 315.487L204.926 320.778L186.825 316.365L182.847 299.166L174.901 281.967L180.199 270.507L186.825 258.159L195.651 250.663H205.366L215.96 244.933H236.71L263.636 252.869L277.319 264.777L280.408 287.707L271.132 302.261H271.152Z" fill="#8D5513" stroke="#8D5513" stroke-miterlimit="10"/>
</g>
<defs>
<clipPath id="clip0_34_130">
<rect width="374" height="454" fill="white"/>
</clipPath>
</defs>
</svg>
