<svg width="421" height="510" viewBox="0 0 421 510" fill="none" xmlns="http://www.w3.org/2000/svg">
<path d="M217.043 481.338V500.99L231.767 510H258.768H264.492L248.948 490.339L235.862 481.338L225.224 473.968L221.138 467.408L217.043 412.544L226.862 389.613L224.405 369.141L226.862 347.85L247.31 291.336H264.492L285.759 285.044L289.845 292.156L329.112 310.997L334.836 325.738L342.198 329.829L335.655 382.242L331.026 399.986L328.293 404.353L316.569 407.081L308.664 412.268L301.845 423.738L299.664 430.832L300.207 444.486L303.759 448.3L311.388 444.209L331.836 432.739L345.198 426.465L350.922 421.554L352.293 409.54L354.741 380.335L359.922 357.127L367.561 333.109V318.911L361.56 311.817L353.379 304.447L337.569 287.789L322.293 259.671L327.474 238.38L328.836 203.444L324.75 188.15L314.112 172.589L320.112 141.476L326.112 117.725L330.75 105.167L337.836 123.455L348.198 132.466L359.656 135.193L367.561 140.656L364.284 153.214L362.656 159.488L365.646 165.771L373.828 174.229L380.647 175.592L386.923 172.045L390.466 166.591L397.552 170.138L407.371 169.318L416.914 163.035L421 152.394L419.638 140.656L411.19 101.068L403.009 77.3255H406.828L409.69 82.5125L412.138 86.1977L409.69 71.4567L408.052 59.1665L401.509 44.0202L394.966 30.0992L393.328 25.9993L392.104 24.5713L391.69 16.1782L390.052 8.19044L388.423 1.02265L384.742 6.34782L383.306 13.101L382.69 16.1782L374.306 14.1237L370.827 15.9663L371.242 8.59582L371.039 0L365.103 3.48255L358.156 11.673L355.293 15.5609L343.836 13.3129L331.367 17.4035L328.293 18.8408L315.207 15.7636L294.759 20.2688L283.918 29.2792L273.694 43.2002L266.949 46.8854L259.375 55.2786L241.991 60.401L224.405 75.5474L214.595 90.7029L204.776 110.76L201.5 109.534L175.052 87.6994L152.699 78.1455L136.612 75.962L122.431 78.1455L117.25 79.7762L113.155 79.509L93.5259 65.3116L74.4397 58.7611L52.6296 58.4847L39.2674 62.0318L25.9053 71.8621L16.0861 84.1432L9.00013 100.257L4.90498 123.732L1.63806 149.934L0 165.495L4.90498 256.944L7.90502 285.044L15.0002 321.638L16.0861 342.828L19.9052 321.915L20.4481 308.261L21.2672 342.828L20.4481 360.674L24.5433 345.113L29.7244 325.462L40.3533 313.724L42.5344 297.887L45.2675 282.059L40.9055 194.7L40.3533 157.848L43.0865 141.743L47.1725 122.368L55.0775 103.528L63.8015 98.8841L55.8965 111.442L50.9915 125.915L47.1725 145.023L46.3534 165.495L48.2676 182.963L53.4486 198.524L59.7156 214.905L63.2586 228.826L68.1728 244.11L67.6206 267.594L61.8966 279.599L51.8106 291.613L49.0774 297.62L50.1725 316.451L50.9915 326.005L54.5345 340.746L56.1726 352.484L56.9916 358.491L56.7155 368.588L57.2585 374.052L60.5346 381.146L57.8107 395.343L60.5346 406.537L66.5347 417.187L72.5348 424.005L94.3449 426.465L103.345 423.738L88.8878 399.986L77.4398 383.329L74.1637 359.854L72.8017 330.649L76.0778 316.184L78.2588 307.994L78.8018 294.883L89.4399 277.692L100.345 255L102.25 248.754L103.888 270.045L99.8021 297.887L95.983 304.99V311.264L107.164 323.278L121.612 338.563L132.793 352.76L137.698 361.494L147.784 375.692L148.879 383.062L145.603 386.609L145.879 394.523L151.06 403.81L155.699 406.813L178.052 410.084L191.147 408.72L190.871 405.173L173.69 377.055L167.69 371.048L151.88 347.85L140.698 335.016L124.336 316.995L117.526 311.541L116.155 305.81L131.698 293.796L145.603 279.055L149.156 275.776L166.061 285.044L192.509 288.886L194.69 308.814L198.233 327.369L202.871 359.034L202.052 365.594L198.509 372.688L196.319 380.335L197.69 389.069L201.233 397.259L201.776 405.173L201.233 444.486L200.138 464.137L217.043 481.338Z" fill="#008BA9" fill-opacity="0.3"/>
</svg>
