<svg width="162" height="297" viewBox="0 0 162 297" fill="none" xmlns="http://www.w3.org/2000/svg">
<g clip-path="url(#clip0_159_2)">
<path d="M38.2263 182.491C37.3184 182.204 36.4131 182.251 35.4713 182.465C35.226 183.413 35.3773 184.345 35.3434 185.265C35.3121 186.185 35.3799 187.112 35.2808 188.113C34.3155 188.167 33.4493 188.219 32.5753 188.269C32.2492 189.251 32.4318 190.186 32.4031 191.101C32.3718 192.08 32.4136 193.063 32.3901 194.042C32.3692 194.967 32.4971 195.9 32.2675 196.918C31.4065 196.978 30.543 197.038 29.6403 197.101C29.2933 198.038 29.4889 198.971 29.455 199.88C29.4211 200.805 29.4368 201.733 29.4289 202.652C28.5054 203.176 27.5009 202.639 26.5747 203.119C26.5513 203.53 26.5252 203.96 26.5017 204.393C26.4782 204.822 26.4547 205.255 26.4286 205.763C25.9069 205.792 25.4738 205.818 25.0407 205.841C24.6076 205.865 24.1745 205.888 23.6866 205.917C23.3657 207.832 23.7362 209.699 23.4492 211.63C22.5674 211.69 21.7012 211.747 20.8298 211.807C20.3681 212.672 20.8142 213.599 20.4776 214.49C19.6689 214.946 18.6644 214.402 17.7722 214.873C17.4826 216.694 17.8426 218.56 17.5321 220.451C16.6138 220.508 15.7502 220.566 14.7953 220.626C14.7458 221.582 14.6988 222.447 14.6492 223.406C13.7178 223.46 12.8543 223.512 11.9725 223.567C11.5968 224.526 11.842 225.464 11.7637 226.375C11.6881 227.248 11.6985 228.129 11.6698 229.059C10.7958 229.426 9.95575 229.319 9.01392 229.147C8.94608 228.285 8.88347 227.47 8.81825 226.636C7.92077 226.209 6.94241 226.62 5.98493 226.276C5.95362 225.831 5.9197 225.406 5.89622 224.979C5.87013 224.547 5.85187 224.114 5.82839 223.635C4.93091 223.335 4.023 223.635 3.12552 223.372C2.74722 222.548 3.1203 221.634 2.8281 220.72C2.01933 220.326 1.03836 220.74 0.200891 220.433C-0.0573948 219.219 -0.0626126 216.041 0.198282 214.756C1.03315 214.704 1.89932 214.649 2.86202 214.587C2.91941 213.672 2.97681 212.813 3.0316 211.943C3.90821 211.507 4.83438 211.914 5.73186 211.599C6.09711 210.799 5.73708 209.882 6.00841 208.991C6.84849 208.538 7.84511 209.019 8.78172 208.592C8.80259 208.183 8.82085 207.751 8.84434 207.318C8.86782 206.888 8.8939 206.456 8.92521 205.932C9.43917 205.901 9.86965 205.872 10.3001 205.849C10.7332 205.823 11.1689 205.802 11.6985 205.773C11.7585 204.849 11.8133 203.989 11.8681 203.121C12.7447 202.686 13.6735 203.095 14.5684 202.78C14.931 201.978 14.5736 201.063 14.8423 200.172C15.685 199.714 16.6816 200.203 17.6208 199.766C17.78 197.955 17.5843 196.095 17.7435 194.172C18.7114 194.112 19.5775 194.06 20.475 194.003C20.7385 193.029 20.5976 192.099 20.6185 191.182C20.642 190.202 20.6133 189.22 20.6263 188.24C20.6394 187.318 20.5637 186.391 20.6916 185.479C21.5864 185.036 22.5152 185.445 23.4362 185.117C23.4779 184.812 23.5614 184.489 23.564 184.166C23.5771 182.157 23.5666 180.146 23.5745 178.137C23.5745 177.653 23.6084 177.171 23.6266 176.676C24.5293 176.168 25.5338 176.689 26.4808 176.215C26.4913 175.717 26.5147 175.183 26.5147 174.651C26.5147 167.055 26.5147 159.455 26.52 151.858C26.52 151.283 26.3921 150.683 26.7287 150.037C27.5557 149.988 28.4219 149.938 29.3063 149.886C29.5568 148.946 29.455 148.089 29.4028 147.198C28.5028 146.836 27.5896 147.185 26.7026 146.903C26.3686 146.322 26.546 145.674 26.5173 145.059C26.4913 144.473 26.5069 143.884 26.5121 143.295C26.5173 142.665 26.533 142.034 26.5434 141.391C27.4644 140.883 28.4636 141.378 29.3063 140.982C29.5594 140.448 29.4524 139.9 29.4524 139.369C29.4602 132.702 29.4524 126.035 29.4628 119.369C29.4628 118.84 29.3402 118.29 29.6768 117.688C30.4908 117.639 31.3543 117.587 32.197 117.535C32.4553 116.417 32.484 113.434 32.257 111.85C31.4561 111.543 30.5456 111.868 29.6298 111.597C29.3428 110.761 29.4785 109.907 29.5229 108.966C29.849 108.904 30.1203 108.812 30.3942 108.807C31.6204 108.786 32.8493 108.799 34.0755 108.784C34.4564 108.779 34.8347 108.719 35.2286 108.682C35.406 107.731 35.3799 106.872 35.2599 105.934C34.3259 105.874 33.4624 105.819 32.5518 105.759C32.2936 104.991 32.4318 104.256 32.4084 103.537C32.3849 102.852 32.4031 102.164 32.4031 101.479C32.4031 100.744 32.3849 100.007 32.4084 99.2721C32.4292 98.5947 32.3014 97.9044 32.5284 97.2166C33.3658 96.8023 34.2946 97.2114 35.213 96.8831C35.2547 96.5809 35.3382 96.2579 35.3408 95.9348C35.3539 93.9262 35.346 91.915 35.3539 89.9063C35.3539 89.4218 35.3878 88.9398 35.406 88.45C36.3087 87.9342 37.3158 88.4709 38.2002 88.0123C38.4663 86.1835 38.1037 84.3155 38.422 82.4033C39.3403 82.3486 40.2065 82.2991 41.0205 82.2522C41.3414 81.7077 41.2344 81.2075 41.2344 80.7282C41.2422 76.9532 41.2344 73.1782 41.2449 69.4059C41.2449 68.877 41.1353 68.3273 41.3988 67.788C42.2128 67.3894 43.1416 67.8063 44.0547 67.4598C44.0938 67.155 44.1721 66.8293 44.1747 66.5037C44.1878 64.4951 44.1799 62.4838 44.1877 60.4752C44.1877 59.9932 44.2217 59.5087 44.2373 59.1075C44.6939 58.6854 45.1557 58.8313 45.5809 58.8C46.0166 58.7688 46.4523 58.7584 46.9298 58.7375C47.3341 57.8752 46.9663 56.9582 47.2559 56.0255C47.5429 55.9708 47.8611 55.8926 48.1794 55.8561C48.756 55.7936 49.3561 55.9578 50.0005 55.6503C50.1883 53.8449 49.9535 51.9848 50.157 50.0621C51.1041 50.0048 51.9702 49.9501 52.9303 49.8902C52.9877 48.9732 53.0425 48.1108 53.0999 47.2225C54.0104 46.876 54.8766 47.1 55.7506 47.0557C56.168 47.9649 55.7871 48.882 56.0846 49.7886C56.2724 49.8407 56.4968 49.9553 56.7237 49.9579C59.1788 49.971 61.6312 49.9684 64.0862 49.9579C64.274 49.9579 64.4619 49.8824 64.7254 49.8225C64.775 48.9445 64.8219 48.0822 64.8663 47.2876C65.4115 46.9203 65.9177 47.0375 66.3951 47.0349C68.2605 47.0219 70.1259 47.0349 71.9913 47.0271C72.474 47.0271 72.9592 46.9932 73.4341 46.975C73.8567 46.071 73.4445 45.1461 73.7915 44.2212C74.6707 43.9738 75.5995 44.1196 76.5126 44.0936C77.4388 44.0649 78.365 44.0675 79.3459 44.0545C79.6303 43.0776 79.5677 42.1866 79.4059 41.2226C78.9155 41.194 78.4824 41.1705 78.0519 41.1445C77.6214 41.1158 77.1909 41.0846 76.7292 41.0533C76.4187 40.1441 76.7292 39.2375 76.4604 38.323C74.6185 38.0156 72.7505 38.3804 70.8251 38.1016C70.7808 37.703 70.7025 37.3304 70.6999 36.9579C70.6894 34.0661 70.6947 31.1743 70.6894 28.2825C70.6894 27.7485 70.6634 27.217 70.6477 26.6412C69.7424 26.2218 68.7588 26.6491 67.924 26.3052C67.6761 25.0442 67.6813 21.8555 67.9422 20.6362C68.3466 20.6128 68.7797 20.5893 69.2128 20.5633C69.6459 20.5372 70.0789 20.5138 70.5355 20.4851C70.8147 19.5003 70.6503 18.5703 70.6842 17.6532C70.7181 16.731 70.6503 15.8035 70.7364 14.9099C71.66 14.4566 72.5888 14.8709 73.4706 14.5452C73.8489 13.735 73.4549 12.8154 73.7523 11.9374C74.595 11.4711 75.5969 11.9869 76.5204 11.531C76.5413 11.1141 76.5596 10.6791 76.5804 10.2466C76.6039 9.81675 76.63 9.38688 76.6561 8.99089C77.4179 8.66784 78.1145 8.84239 78.7928 8.7929C79.5573 8.73558 79.7086 8.5949 79.779 7.81854C79.826 7.2949 79.6955 6.74259 80.0138 6.16423C80.7208 6.10431 81.4435 6.04179 82.2601 5.97405C82.3306 5.65621 82.4349 5.34098 82.461 5.01794C82.508 4.39008 82.4245 3.7518 82.5471 3.12655C83.4289 2.68627 84.3551 3.09789 85.2604 2.77745C85.6074 1.97765 85.2709 1.06582 85.5083 0.224335C85.6518 0.143573 85.777 0.0185228 85.8996 0.0159176C88.5946 0.00549675 91.2923 0.00810197 94.0787 0.00810197C94.1387 0.362412 94.2143 0.680248 94.243 1.00329C94.2952 1.57644 94.1647 2.16783 94.4074 2.82434C95.2788 2.87905 96.1423 2.93376 96.9876 2.98847C97.332 3.53296 97.1964 4.08527 97.199 4.60892C97.2094 8.33438 97.199 12.0598 97.199 15.7853C97.199 16.3168 97.2146 16.8508 97.2224 17.3797C98.1382 17.8304 99.0565 17.4605 99.9984 17.734C100.043 18.0102 100.111 18.3332 100.139 18.6589C100.189 19.232 100.058 19.8234 100.306 20.4747C101.18 20.5294 102.044 20.5841 102.96 20.6414C103.006 20.9228 103.072 21.1547 103.082 21.3891C103.2 24.0256 103.119 31.0362 102.957 32.1435C102.153 32.5551 101.222 32.12 100.335 32.4613C99.907 33.2507 100.34 34.1781 100.009 35.0874C99.2105 35.525 98.2112 35.0196 97.272 35.4755C97.0711 37.2757 97.3268 39.1385 97.1207 41.0637C96.1867 41.1184 95.3205 41.1679 94.483 41.2174C94.1987 42.2856 94.1621 45.3467 94.3943 46.8134C94.77 47.1365 95.2292 47.0062 95.6597 47.0245C96.0954 47.0453 96.5337 47.0297 96.8885 47.0297C97.3138 47.4986 97.1703 47.9597 97.1937 48.387C97.2172 48.8221 97.199 49.2623 97.199 49.7417C97.499 49.8303 97.7234 49.9527 97.9477 49.9553C101.384 49.9684 104.82 49.9658 108.256 49.9605C108.444 49.9605 108.634 49.8876 108.908 49.8329C108.96 48.9601 109.01 48.0978 109.062 47.2199C109.993 46.8864 110.857 47.087 111.72 47.0687C112.143 47.9832 111.736 48.9028 112.052 49.7808C112.855 50.1976 113.776 49.8146 114.718 50.0934C114.762 50.3696 114.859 50.69 114.862 51.0104C114.877 53.0686 114.867 55.1267 114.875 57.1874C114.875 57.6642 114.919 58.1409 114.948 58.7063C115.905 58.7662 116.769 58.8209 117.684 58.8808C117.731 59.1596 117.799 59.3914 117.81 59.6259C117.924 62.192 117.846 69.2834 117.687 70.388C116.881 70.7658 115.96 70.3959 115.065 70.6824C115.008 70.8466 114.898 71.0211 114.895 71.1957C114.888 73.7436 114.895 76.2941 114.901 78.842C114.901 78.9358 114.95 79.0296 114.989 79.1676C115.809 79.6496 116.805 79.1468 117.742 79.561C117.768 79.931 117.817 80.3113 117.815 80.6917C117.81 81.1763 117.906 81.6738 117.632 82.2444C116.821 82.2965 115.957 82.3486 115.12 82.4033C114.822 83.4141 114.77 86.3502 115.01 88.0254C115.819 88.4214 116.74 88.0514 117.604 88.3093C117.982 88.7679 117.812 89.3306 117.815 89.849C117.828 95.5831 117.82 101.32 117.823 107.054C117.823 107.583 117.849 108.114 117.862 108.633C118.749 109.154 119.699 108.69 120.586 109.078C120.912 112.822 120.672 116.584 120.81 120.356C121.778 120.718 122.714 120.533 123.628 120.557C124.554 120.58 125.483 120.544 126.432 120.531C126.925 119.619 126.411 118.621 126.871 117.691C127.711 117.641 128.577 117.592 129.453 117.542C129.733 116.545 129.573 115.612 129.599 114.692C129.628 113.713 129.592 112.731 129.61 111.751C129.628 110.831 129.513 109.901 129.719 108.945C129.996 108.891 130.226 108.818 130.46 108.805C132.613 108.69 137.21 108.776 138.329 108.956C138.512 109.787 138.459 110.646 138.355 111.537C137.505 111.939 136.584 111.569 135.665 111.861C135.61 112.116 135.511 112.387 135.506 112.658C135.485 113.736 135.496 114.815 135.493 115.893C135.493 116.378 135.493 116.863 135.493 117.428C135.086 117.501 134.77 117.579 134.45 117.608C133.873 117.66 133.275 117.527 132.733 117.746C132.391 119.395 132.527 124.428 132.97 126.166C133.703 126.231 134.468 126.299 135.287 126.369C135.67 127.341 135.446 128.325 135.485 129.282C135.524 130.206 135.493 131.134 135.493 132.059C134.559 132.585 133.557 132.067 132.722 132.483C132.48 133.684 132.485 136.863 132.743 138.092C134.549 138.361 136.411 138.072 138.298 138.275C138.694 140.096 138.162 141.818 138.201 143.623C135.391 144.189 132.628 144.097 129.842 144.064C129.393 143.154 129.761 142.24 129.508 141.336C128.645 140.95 127.742 141.213 126.745 141.174C126.688 142.172 126.638 143.035 126.581 143.998C125.663 144.058 124.802 144.116 123.907 144.176C123.57 145.127 123.758 146.059 123.722 146.971C123.685 147.896 123.701 148.821 123.695 149.738C122.774 150.173 121.851 149.8 120.961 150.087C120.562 150.921 120.875 151.791 120.755 152.718C121.173 152.794 121.493 152.874 121.817 152.903C122.394 152.95 122.983 152.846 123.633 153.049C123.779 154.031 123.693 155.008 123.708 155.975C123.724 156.905 123.711 157.837 123.711 158.767C123.711 159.747 123.703 160.729 123.711 161.709C123.719 162.628 123.662 163.553 123.766 164.468C124.687 164.884 125.608 164.491 126.453 164.791C126.758 165.171 126.646 165.63 126.649 166.057C126.659 168.949 126.654 171.84 126.654 174.732C126.654 175.217 126.654 175.701 126.654 176.168C127.572 176.663 128.496 176.272 129.362 176.527C129.751 176.918 129.592 177.434 129.594 177.9C129.607 181.871 129.599 185.841 129.599 189.811C129.599 190.84 129.592 191.869 129.605 192.898C129.607 193.229 129.662 193.56 129.704 193.985C130.625 194.045 131.488 194.102 132.323 194.154C132.657 194.647 132.54 195.152 132.542 195.629C132.553 199.06 132.548 202.491 132.548 205.922C132.548 215.04 132.548 224.156 132.548 233.274C132.548 233.858 132.532 234.441 132.522 235.033C131.595 235.436 130.727 235.16 129.803 235.251C129.725 234.887 129.628 234.616 129.615 234.345C129.589 233.759 129.607 233.172 129.607 232.537C129.328 232.453 129.106 232.334 128.885 232.331C127.413 232.313 125.939 232.318 124.468 232.326C124.28 232.326 124.089 232.401 123.93 232.435C123.857 232.558 123.763 232.641 123.763 232.724C123.742 235.223 123.727 237.724 123.719 240.222C123.719 240.459 123.774 240.694 123.805 240.957C124.684 241.324 125.6 240.983 126.437 241.238C126.764 241.624 126.649 242.085 126.651 242.512C126.664 245.404 126.659 248.296 126.662 251.188C126.662 251.672 126.662 252.159 126.662 252.623C127.596 253.165 128.592 252.667 129.534 253.084C129.558 253.504 129.579 253.933 129.605 254.363C129.628 254.793 129.654 255.223 129.686 255.749C130.622 255.809 131.486 255.867 132.334 255.921C132.681 256.455 132.54 257.01 132.542 257.534C132.555 261.259 132.548 264.985 132.55 268.71C132.55 269.244 132.566 269.776 132.574 270.305C133.479 270.771 134.4 270.396 135.313 270.659C135.629 271.519 135.524 272.417 135.368 273.415C134.476 273.465 133.609 273.514 132.72 273.564C132.446 274.496 132.529 275.354 132.639 276.239C133.505 276.638 134.423 276.268 135.324 276.555C135.702 277.349 135.324 278.269 135.621 279.207C135.892 279.256 136.213 279.342 136.537 279.368C137.113 279.415 137.703 279.319 138.36 279.501C138.413 280.387 138.465 281.247 138.517 282.117C139.407 282.528 140.327 282.14 141.222 282.448C141.595 283.245 141.209 284.162 141.515 285.094C141.791 285.144 142.115 285.243 142.438 285.248C143.615 285.269 144.794 285.248 145.973 285.261C146.354 285.264 146.732 285.311 147.194 285.345C147.252 286.285 147.304 287.142 147.353 287.994C147.927 288.296 148.475 288.195 149.002 288.195C152.733 288.205 156.464 288.197 160.195 288.202C160.727 288.202 161.259 288.231 161.846 288.249C162.097 289.179 162.008 290.039 161.924 290.98C161.572 291.034 161.249 291.123 160.925 291.128C159.748 291.146 158.569 291.128 157.39 291.144C157.012 291.149 156.636 291.219 156.195 291.266C156.138 292.209 156.086 293.069 156.033 293.905C154.755 294.14 145.887 294.213 136.821 294.077C136.44 294.072 136.057 294.017 135.644 293.983C135.331 293.079 135.644 292.173 135.404 291.355C134.309 291.084 131.28 291.055 129.826 291.292C129.493 291.66 129.644 292.123 129.613 292.548C129.579 292.983 129.571 293.418 129.547 293.921C128.6 294.207 127.669 294.054 126.758 294.077C125.777 294.103 124.794 294.085 123.813 294.082C122.887 294.08 121.96 294.069 120.964 294.062C120.891 293.712 120.802 293.444 120.781 293.171C120.732 292.548 120.841 291.91 120.653 291.224C119.745 291.167 118.882 291.112 117.935 291.053C117.744 290.078 117.846 289.153 117.831 288.239C117.815 287.259 117.815 286.277 117.831 285.298C117.844 284.375 117.763 283.445 117.901 282.536C118.791 282.096 119.719 282.507 120.625 282.177C120.886 281.343 120.753 280.483 120.708 279.577C119.821 279.155 118.835 279.595 117.919 279.204C117.669 277.357 117.977 275.494 117.729 273.574C116.816 273.514 115.955 273.457 115.002 273.392C114.736 271.508 115.01 269.651 114.807 267.78C113.93 267.426 113.017 267.775 112.088 267.481C112.039 267.181 111.945 266.861 111.942 266.537C111.929 264.479 111.942 262.419 111.929 260.361C111.926 259.884 112.041 259.381 111.718 258.865C110.891 258.813 110.027 258.758 109.083 258.698C109.046 258.188 108.991 257.763 108.991 257.336C108.984 254.345 108.999 251.354 108.984 248.366C108.978 247.048 108.918 245.732 108.884 244.391C108.034 243.898 107.087 244.378 106.187 243.968C106.142 243.69 106.051 243.364 106.049 243.041C106.035 240.983 106.049 238.925 106.038 236.864C106.038 236.385 105.996 235.905 105.968 235.345C105.023 235.285 104.162 235.228 103.213 235.168C103.168 234.733 103.1 234.36 103.1 233.985C103.09 231.289 103.103 228.592 103.093 225.896C103.087 224.427 103.051 222.957 103.017 221.488C103.012 221.254 102.949 221.022 102.902 220.722C102.031 220.662 101.214 220.607 100.39 220.553C99.8966 219.651 100.364 218.667 99.9984 217.713C99.6801 217.679 99.3513 217.617 99.0226 217.617C90.9714 217.611 82.9228 217.611 74.8716 217.617C74.535 217.617 74.1985 217.674 73.8045 217.71C73.7471 218.023 73.6715 218.297 73.6506 218.578C73.6245 218.919 73.6428 219.263 73.6428 219.607C73.6428 238.87 73.6428 258.136 73.6428 277.399C73.6428 277.98 73.6584 278.561 73.6689 279.139C74.582 279.592 75.5029 279.22 76.4396 279.498C76.4839 279.78 76.5778 280.103 76.5778 280.426C76.5883 285.574 76.5883 290.719 76.5804 295.867C76.5804 296.2 76.5152 296.531 76.4787 296.883C76.2361 296.933 76.0482 297.008 75.8604 297.008C69.4293 297.008 62.9983 297.008 56.5698 296.998C56.4342 296.998 56.2985 296.914 56.1759 296.878C55.915 295.765 55.8967 292.61 56.1367 291.342C56.5229 291.053 56.9794 291.18 57.4099 291.149C57.8456 291.118 58.2787 291.102 58.7248 291.079C59.1344 290.195 58.7352 289.273 59.0431 288.398C59.8597 287.984 60.7859 288.387 61.7199 288.064C61.7616 287.833 61.8529 287.562 61.8555 287.291C61.866 283.959 61.8842 280.624 61.8555 277.292C61.8451 276.174 61.7068 275.057 61.626 273.934C60.8615 273.418 59.951 273.908 59.2101 273.538C58.8161 273.168 58.9283 272.704 58.9257 272.277C58.9153 269.286 58.9231 266.298 58.91 263.307C58.91 262.83 59.0222 262.327 58.6961 261.819C57.8665 261.765 57.0055 261.71 56.1419 261.653C55.8863 261.048 55.9802 260.504 55.9776 259.98C55.9698 251.55 55.9724 243.117 55.9724 234.686C55.9724 234.196 55.9802 233.707 55.9672 233.217C55.9619 232.977 55.915 232.737 55.8889 232.49C55.054 232.008 54.107 232.487 53.2382 232.091C52.9095 231.216 53.1182 230.278 53.0608 229.364C53.0008 228.387 53.0112 227.405 53.0373 226.425C53.0608 225.508 52.8938 224.573 53.2017 223.58C54.0731 223.528 54.9392 223.478 55.7793 223.429C56.0298 222.254 56.0454 219.177 55.8106 217.726C55.4636 217.692 55.0879 217.627 54.7122 217.625C52.7477 217.612 50.7858 217.619 48.8212 217.611C48.3386 217.611 47.8559 217.578 47.3446 217.557C46.9298 216.666 47.3211 215.746 47.0054 214.824C46.7263 214.78 46.4027 214.691 46.0792 214.686C44.9026 214.668 43.7234 214.686 42.5441 214.67C42.1658 214.665 41.7849 214.602 41.3205 214.556C41.2709 213.626 41.2266 212.766 41.177 211.82C40.2378 211.76 39.3768 211.705 38.4768 211.648C38.1089 210.768 38.4689 209.853 38.1872 208.952C37.3523 208.556 36.3635 209.017 35.4373 208.6C35.3852 207.733 35.333 206.873 35.2782 205.94C34.339 205.88 33.478 205.825 32.6458 205.771C32.3562 204.664 32.3223 201.602 32.5623 200.185C32.9354 199.862 33.3971 200.003 33.8224 199.972C34.2555 199.94 34.6912 199.927 35.2104 199.901C35.2652 199.529 35.3486 199.208 35.3512 198.885C35.3643 196.877 35.3539 194.865 35.3617 192.857C35.3617 192.372 35.3956 191.89 35.4139 191.387C36.3113 190.882 37.3158 191.393 38.1976 190.96C38.2289 190.728 38.2915 190.489 38.2915 190.249C38.2994 187.847 38.2994 185.445 38.2941 183.043C38.2941 182.853 38.2394 182.66 38.2107 182.47C39.1734 182.381 40.1387 182.295 41.1822 182.199C41.2057 181.714 41.2422 181.282 41.2449 180.849C41.2527 179.185 41.2553 177.517 41.2449 175.852C41.2396 175.12 41.1927 174.388 41.164 173.654C42.1241 173.562 43.0842 173.471 44.0573 173.38C44.3156 172.416 44.193 171.484 44.1799 170.566C44.1669 169.613 44.3782 168.631 43.9973 167.685C43.092 167.63 42.2258 167.482 41.3049 167.815C41.284 168.331 41.2553 168.811 41.2475 169.29C41.224 170.754 41.2083 172.218 41.1901 173.682C40.2926 173.367 39.3899 173.458 38.4768 173.625C38.2185 174.11 38.3072 174.602 38.302 175.079C38.2733 177.551 38.2576 180.026 38.2367 182.498L38.2263 182.491ZM52.9825 141.047C52.9956 140.468 53.0138 139.986 53.0164 139.504C53.019 136.662 53.0138 133.82 53.0243 130.978C53.0243 130.498 52.9173 129.995 53.2486 129.446C54.0548 129.399 54.921 129.347 55.8863 129.289C56.0245 128.31 55.9515 127.385 55.9619 126.468C55.9724 125.488 55.9541 124.509 55.9672 123.529C55.9802 122.607 55.8967 121.68 56.0376 120.778C56.9507 120.281 57.9578 120.83 58.8005 120.361C59.0796 119.491 58.7013 118.572 59.1188 117.688C59.9901 117.634 60.8563 117.582 61.7173 117.527C61.9677 116.511 61.8268 115.578 61.8503 114.653C61.8738 113.674 61.8321 112.692 61.866 111.715C61.8973 110.798 61.7251 109.862 62.0382 108.867C62.4765 108.841 62.9096 108.818 63.34 108.792C63.7731 108.766 64.2036 108.739 64.6654 108.711C64.848 107.718 64.9132 106.822 64.6341 105.952C63.7288 105.684 62.8104 106.04 61.8842 105.616C61.8738 105.084 61.8582 104.555 61.8555 104.024C61.8555 99.319 61.8582 94.6166 61.8477 89.9115C61.8477 89.3879 61.9521 88.8408 61.6755 88.2807C60.7989 88.1713 59.9406 88.1087 58.9779 88.3588C58.9283 89.229 58.8813 90.0913 58.8344 90.9432C57.9108 91.3653 56.9168 90.8807 56.0141 91.3705C55.9958 91.8733 55.9645 92.3552 55.9619 92.8398C55.9489 94.8484 55.9515 96.8571 55.9332 98.8657C55.9306 99.1913 55.8393 99.5144 55.7976 99.7957C54.8688 100.103 53.94 99.7098 53.0556 100.174C53.0425 100.658 53.019 101.143 53.019 101.627C53.0164 104.519 53.0216 107.408 53.0138 110.3C53.0138 110.725 52.9616 111.152 52.9277 111.639C51.965 111.699 51.1015 111.754 50.2875 111.806C49.9587 112.41 50.0788 112.96 50.0761 113.489C50.0657 118.978 50.0761 124.465 50.0657 129.954C50.0631 131.423 50.0161 132.892 49.9718 134.359C49.964 134.588 49.8648 134.815 49.797 135.099C49.1656 135.117 48.5786 135.112 47.9968 135.164C47.7255 135.188 47.462 135.318 47.2376 135.386C47.1933 135.568 47.1489 135.662 47.1489 135.756C47.1411 140.263 47.1359 144.772 47.1411 149.279C47.1411 149.509 47.2533 149.735 47.3185 149.977C48.229 150.165 49.0821 150.228 50.0187 149.899C50.0396 149.391 50.0709 148.909 50.0735 148.43C50.0788 146.372 50.0735 144.314 50.084 142.256C50.084 141.93 50.1701 141.604 50.2222 141.221C51.1562 141.164 52.0198 141.109 52.9851 141.049L52.9825 141.047ZM47.0106 161.581C47.0524 161.36 47.1176 161.172 47.1176 160.982C47.1254 159.515 47.128 158.046 47.1124 156.579C47.1124 156.355 46.9976 156.134 46.9402 155.936C45.2679 155.779 45.2183 155.782 44.3104 156.1C44.0703 157.749 44.1199 160.643 44.4199 161.636C45.2652 161.756 46.1236 161.805 47.008 161.581H47.0106Z" fill="#0D5F46"/>
</g>
<defs>
<clipPath id="clip0_159_2">
<rect width="162" height="297" fill="white"/>
</clipPath>
</defs>
</svg>
