<svg width="551" height="407" viewBox="0 0 551 407" fill="none" xmlns="http://www.w3.org/2000/svg">
<path opacity="0.3" d="M329.585 208.341L420.645 296.184L443.65 340.325L413.373 371.75L335.692 398.796L282.257 396.91L243.356 406.373L199.378 391.279L173.425 387.658L143.767 358.176L119.247 357.31L83.4625 327.612L47.9775 289.794L13.0042 237.114L0.0197175 170.302L21.9154 110.39L49.0931 84.023L99.4832 47.8834L145.056 20.6645L216.005 7.31423L299.972 10.278L348.72 11.9986L357.267 0.382388L387.612 14.7241L421.276 30.414L467.66 51.4093L500.804 68.826L524.561 91.3224L539.823 128.67L550.863 172.145L549.451 212.164L329.585 208.341Z" fill="#00320E" fill-opacity="0.5"/>
</svg>
