<svg width="593" height="444" viewBox="0 0 593 444" fill="none" xmlns="http://www.w3.org/2000/svg">
<path opacity="0.3" d="M236.381 225.237L132.268 312.372L104.304 357.879L134.334 393.805L215.434 428.631L272.772 430.655L313.694 443.727L361.908 430.898L389.962 428.985L423.936 399.673L450.247 400.601L490.796 371.521L531.639 333.726L573.059 279.985L592.011 209.455L573.108 143.671L546.013 113.393L494.811 70.8983L448.091 38.3164L373.161 18.6593L283.06 15.4791L230.753 13.6329L222.483 0.552725L188.918 13.6078L151.698 27.8549L100.462 46.8183L63.6684 62.9529L36.5381 85.2348L17.3772 124.056L2.27069 169.755L0.754997 212.696L236.381 225.237Z" fill="#00320E" fill-opacity="0.5"/>
</svg>
