<svg width="45" height="31" viewBox="0 0 45 31" fill="none" xmlns="http://www.w3.org/2000/svg">
<rect x="18.0049" y="21.5039" width="9" height="9" transform="rotate(179.97 18.0049 21.5039)" fill="#D9D9D9"/>
<rect x="9.00488" y="21.5088" width="9" height="9" transform="rotate(179.97 9.00488 21.5088)" fill="#D9D9D9"/>
<rect x="18.0093" y="30.5039" width="9" height="9" transform="rotate(179.97 18.0093 30.5039)" fill="#D9D9D9"/>
<rect x="45.0054" y="21.4902" width="9" height="9" transform="rotate(179.97 45.0054 21.4902)" fill="#D9D9D9"/>
<rect x="36.0098" y="30.4941" width="9" height="9" transform="rotate(179.97 36.0098 30.4941)" fill="#D9D9D9"/>
<path d="M26.9985 9L17.9985 9.00471L17.9938 0.00471538L26.9938 1.07288e-06L26.9985 9Z" fill="#D9D9D9"/>
<rect x="27.0098" y="30.499" width="9" height="9" transform="rotate(179.97 27.0098 30.499)" fill="#D9D9D9"/>
<rect x="36.0049" y="21.4951" width="9" height="9" transform="rotate(179.97 36.0049 21.4951)" fill="#D9D9D9"/>
</svg>
