<svg width="207" height="300" viewBox="0 0 207 300" fill="none" xmlns="http://www.w3.org/2000/svg">
<path d="M31.6001 182.88C31.59 182.976 31.5717 183.074 31.5717 183.17C31.5686 186.912 31.5656 190.652 31.5676 194.393C31.5676 194.612 31.6143 194.831 31.6417 195.071C32.3983 195.329 33.166 195.057 33.9225 195.271C34.081 195.998 34.0992 196.723 33.9063 197.48H29.3498C29.3092 197.245 29.2513 197.034 29.2401 196.819C29.2147 196.305 29.2127 195.79 29.2005 195.251C28.4155 194.943 27.6072 195.252 26.8578 195.01C26.6547 194.247 26.8831 193.487 26.6851 192.726C25.8768 192.54 25.0674 192.651 24.2662 192.639C23.4955 192.627 22.7196 192.584 21.9001 192.688C21.8686 192.959 21.824 193.176 21.8219 193.394C21.8138 194.403 21.8209 195.411 21.8158 196.419C21.8148 196.739 21.7935 197.059 21.7793 197.43C21.0238 197.621 20.2662 197.41 19.5188 197.582C19.2659 198.323 19.5401 199.092 19.3187 199.846C18.5977 200.164 17.7864 199.821 17.0247 200.09C16.8328 200.803 17.0359 201.528 16.8785 202.273C16.2012 202.516 15.4954 202.326 14.7632 202.39C14.7114 202.193 14.6383 202.044 14.6373 201.895C14.6292 199.814 14.6312 197.732 14.6333 195.651C14.6333 195.555 14.6647 195.46 14.6922 195.302C14.8902 195.267 15.1014 195.207 15.3157 195.196C15.8285 195.171 16.3433 195.168 16.8937 195.154C17.1253 194.337 17.0024 193.569 16.9892 192.817C16.3464 192.587 15.6955 192.566 14.6333 192.742C14.3936 193.438 14.6637 194.205 14.4535 194.959C13.7376 195.298 12.9232 194.934 12.1615 195.208C11.9544 195.914 12.1666 196.64 12.0092 197.406C11.8224 197.438 11.6111 197.5 11.3979 197.506C10.882 197.522 10.3662 197.512 9.93863 197.512C9.60453 197.775 9.68069 198.053 9.66445 198.302C9.63195 198.813 9.73045 199.336 9.56087 199.88C9.04804 200.061 8.52709 199.961 8.01935 199.977C7.53293 199.994 7.04448 199.986 6.55805 199.98C6.04421 199.973 5.53037 199.957 4.97896 199.944C4.93733 199.731 4.88147 199.58 4.88147 199.428C4.8764 196.566 4.87741 193.703 4.88147 190.841C4.88147 190.715 4.91702 190.589 4.94342 190.411C5.65528 190.175 6.42198 190.427 7.18664 190.217C7.35217 189.44 7.28413 188.676 7.22625 187.909C6.84747 187.663 6.44736 187.77 6.0696 187.76C5.68778 187.749 5.29681 187.713 4.90077 187.834C4.65807 188.579 4.91296 189.346 4.70072 190.099C4.20719 190.325 3.68218 190.199 3.17646 190.218C2.65755 190.239 2.1366 190.239 1.61768 190.219C1.10689 190.201 0.581877 190.325 0.0213254 190.069C0.0132014 189.697 0 189.31 0 188.924C0 188.604 0.0162479 188.283 0.0253873 187.941C0.798177 187.691 1.56183 187.955 2.31735 187.747C2.53365 187.024 2.29095 186.263 2.47882 185.521C3.22622 185.3 3.98987 185.551 4.73728 185.333C5.04192 184.597 4.72306 183.787 4.98201 183.004C6.51134 182.887 8.03255 182.968 9.57711 182.886C9.80966 182.076 9.66648 181.291 9.71624 180.522C9.766 179.75 9.75787 178.974 9.77615 178.162C10.552 177.953 11.3106 178.178 12.0752 177.994C12.26 177.257 12.0509 176.499 12.2235 175.759C12.9658 175.512 13.7345 175.787 14.485 175.548C14.685 174.776 14.6272 174.019 14.5124 173.198C13.7092 173.068 12.9333 173.145 12.1646 173.127C11.4202 173.109 10.6749 173.123 9.98128 173.123C9.65632 172.796 9.76803 172.455 9.74975 172.143C9.72335 171.696 9.78935 171.24 9.66749 170.817C8.88658 170.566 8.11684 170.845 7.36943 170.598C7.15415 169.86 7.39787 169.099 7.19781 168.342C6.48189 168.105 5.72129 168.339 4.95662 168.168C4.81547 167.644 4.8896 167.125 4.87538 166.615C4.86015 166.095 4.84187 165.573 4.85203 165.054C4.86218 164.544 4.76875 164.021 4.98099 163.464C5.70301 163.445 6.40776 163.427 7.16735 163.406C7.20695 163.165 7.26585 162.953 7.27296 162.738C7.29226 162.223 7.28718 161.707 7.29225 161.164C8.05997 160.883 8.82565 161.152 9.60859 160.942C9.64921 160.756 9.7203 160.547 9.73756 160.333C9.78326 159.787 9.68171 159.231 9.82997 158.648C10.5439 158.414 11.3075 158.682 12.0793 158.466C12.258 157.746 12.0539 156.989 12.2174 156.247C12.9628 156.002 13.7295 156.269 14.5043 156.031C14.5368 155.782 14.5936 155.533 14.5977 155.283C14.614 154.308 14.6089 153.332 14.6201 152.356C14.6231 152.038 14.6495 151.719 14.6668 151.371C15.4284 151.142 16.1941 151.394 16.9567 151.17C17.1324 149.602 16.9181 148.045 17.0877 146.49C17.8503 146.266 18.614 146.518 19.3807 146.291C19.4172 146.071 19.4822 145.856 19.4843 145.639C19.4964 144.631 19.4873 143.623 19.4934 142.614C19.4954 142.295 19.5188 141.974 19.534 141.617C20.2875 141.377 21.0552 141.64 21.8108 141.411C21.8412 141.175 21.891 140.959 21.893 140.741C21.9022 139.7 21.895 138.659 21.9011 137.618C21.9032 137.331 21.9296 137.046 21.9458 136.736C22.7115 136.506 23.4741 136.749 24.2165 136.549C24.5445 135.809 24.2063 134.997 24.4663 134.227C25.1731 134.045 25.8981 134.244 26.6526 134.08C26.6872 133.878 26.7461 133.664 26.7542 133.45C26.7755 132.935 26.7725 132.42 26.7796 131.877C27.5534 131.612 28.317 131.869 29.102 131.667C29.1426 131.477 29.2157 131.268 29.2289 131.054C29.2614 130.507 29.2046 129.954 29.2858 129.38C30.0363 129.138 30.7999 129.403 31.5686 129.19C31.7514 128.469 31.5422 127.711 31.7128 126.97C32.4633 126.743 33.2269 126.998 33.9946 126.772C34.0322 126.557 34.0992 126.342 34.1023 126.126C34.1145 125.118 34.1053 124.11 34.1104 123.101C34.1124 122.781 34.1348 122.461 34.149 122.1C34.8994 121.852 35.6682 122.124 36.4075 121.898C36.6461 121.159 36.4075 120.397 36.5821 119.637C37.3143 119.353 38.1175 119.664 38.8771 119.418C39.1107 118.711 38.871 117.979 39.064 117.222C39.2529 117.19 39.4651 117.13 39.6804 117.12C40.1942 117.094 40.7081 117.092 41.2656 117.08C41.5286 116.289 41.2666 115.491 41.4727 114.718C42.2242 114.526 42.9838 114.748 43.7545 114.551C43.787 114.339 43.847 114.121 43.849 113.902C43.8602 112.894 43.8541 111.886 43.8581 110.877C43.8591 110.555 43.8734 110.232 43.8825 109.86C44.1425 109.823 44.3577 109.767 44.574 109.765C45.5814 109.754 46.5878 109.76 47.5951 109.757C47.9171 109.755 48.239 109.744 48.5639 109.738C48.897 108.983 48.5903 108.209 48.8198 107.444C49.0321 107.416 49.2484 107.363 49.4657 107.361C50.473 107.352 51.4794 107.36 52.4868 107.354C52.8046 107.352 53.1225 107.325 53.4586 107.309C53.7592 106.517 53.4535 105.709 53.7165 104.91C55.2499 104.834 56.7701 104.926 58.3401 104.853C58.3878 104.607 58.4538 104.396 58.464 104.184C58.4873 103.668 58.4843 103.152 58.4924 102.609C59.25 102.334 60.0177 102.6 60.7701 102.389C61.0118 101.656 60.7701 100.894 60.9529 100.105C61.1398 100.074 61.352 100.008 61.5653 100.006C62.6051 99.9944 63.644 100.006 64.6839 99.9985C65.0017 99.9964 65.3185 99.968 65.677 99.9487C65.8395 99.2002 65.677 98.4793 65.7928 97.803C66.001 97.5356 66.2792 97.6149 66.528 97.5986C67.0398 97.5661 67.5607 97.6627 68.1081 97.4949C68.3731 96.7516 68.0695 95.9442 68.3345 95.153C69.0616 95.1317 69.7664 95.1113 70.4986 95.09C70.7667 94.3456 70.5158 93.583 70.6864 92.8366C71.4156 92.564 72.1823 92.8447 72.9307 92.6352C73.3023 91.9204 72.9175 91.1018 73.1947 90.3371C73.5542 90.1723 73.9472 90.2638 74.328 90.2425C74.6773 90.2232 75.0267 90.215 75.4085 90.2018C75.5567 89.6354 75.4826 89.1168 75.4938 88.6063C75.506 88.0857 75.4918 87.565 75.4978 87.0454C75.5039 86.5309 75.4633 86.0123 75.5435 85.4682C76.2991 85.2364 77.0587 85.4682 77.8375 85.2903C78.0691 84.5439 77.9645 83.7863 77.8954 83.0043C77.1267 82.7104 76.3153 83.0338 75.5801 82.7674C75.3872 81.9986 75.6156 81.238 75.4105 80.4845C74.8804 80.3309 74.3605 80.4113 73.8497 80.3991C73.3308 80.3858 72.8098 80.4041 72.2909 80.394C71.7791 80.3848 71.2612 80.4448 70.725 80.3289C70.5169 79.5815 70.7575 78.8178 70.5483 78.0734C69.8009 77.8752 69.0352 78.1101 68.3234 77.8935C68.0979 77.1349 68.366 76.3671 68.1213 75.6217C67.3759 75.4062 66.6174 75.6329 65.8547 75.4621C65.6222 74.7442 65.8547 73.9846 65.6861 73.2178C65.0312 72.7958 64.2269 73.2005 63.5059 72.8934C63.2479 72.2243 63.5435 71.481 63.2876 70.7651C62.5483 70.4946 61.7501 70.7763 60.9519 70.5688C60.7783 69.8448 60.9824 69.0862 60.8077 68.3388C60.0634 68.108 59.2946 68.3775 58.5614 68.1395C58.3919 67.3484 58.4975 66.5705 58.4762 65.7976C58.4558 65.0177 58.4721 64.2367 58.4416 63.4568C58.4112 62.6829 58.3431 61.9101 58.2893 61.1047C57.5033 60.8159 56.7163 61.004 55.9547 60.9268C55.2205 60.8525 54.4761 60.8759 53.7551 60.8576C53.5622 60.0705 53.5541 59.6018 53.7094 58.6489C54.4 58.4242 55.1687 58.6957 55.9161 58.4608C56.0786 57.6758 56.0115 56.9101 55.9547 56.0844C55.7272 56.0406 55.517 55.9745 55.3027 55.9654C54.8204 55.944 54.336 55.9501 53.9308 55.9461C53.6008 55.641 53.679 55.3319 53.6769 55.0492C53.6475 51.7321 53.6241 48.416 53.6018 45.099C53.5957 44.2529 53.5977 43.4079 53.6008 42.5618C53.6018 42.2395 53.616 41.9171 53.6251 41.5795C54.3827 41.2979 55.1474 41.5714 55.846 41.3853C56.0826 41.1138 56.0024 40.8077 56.0034 40.526C56.0115 38.7699 56.0055 37.0127 56.0095 35.2565C56.0095 34.9383 56.0359 34.619 56.0522 34.2732C56.8148 34.0312 57.5805 34.2956 58.3259 34.0749C58.665 33.3499 58.3106 32.5343 58.5777 31.7656C59.2825 31.5856 60.0065 31.7839 60.7041 31.6364C60.957 31.4046 60.8747 31.0944 60.8758 30.8148C60.8839 29.0261 60.8778 27.2364 60.8819 25.4477C60.8819 25.1294 60.9093 24.8121 60.9235 24.4969C61.6597 24.1786 62.4051 24.4867 63.0692 24.2549C63.3312 24.0098 63.2683 23.7017 63.2713 23.417C63.2997 21.011 63.3312 18.6051 63.3424 16.1991C63.3546 13.6295 63.3444 11.0598 63.3465 8.49012C63.3465 8.13726 63.3647 7.78441 63.3749 7.39291C63.6145 7.35528 63.7994 7.30342 63.9842 7.30037C64.7316 7.2902 65.479 7.30749 66.2254 7.29223C67.4907 7.26681 68.755 7.22614 70.0193 7.18444C70.1421 7.18038 70.263 7.12953 70.4072 7.09496C70.661 6.42382 70.393 5.71403 70.6367 5.00221C70.8245 4.96865 71.0388 4.89951 71.2541 4.89646C72.294 4.88425 73.3328 4.89239 74.3727 4.88629C74.6915 4.88425 75.0104 4.85781 75.3739 4.84154C75.639 4.06058 75.3719 3.26131 75.5862 2.47526C76.8058 2.35221 78.002 2.43356 79.1942 2.41628C80.359 2.39899 81.5258 2.43051 82.6896 2.39696C83.0348 1.63734 82.7048 0.857393 82.9587 0.120152C83.3049 -0.0130595 83.6644 0.0337171 84.0138 0.0327003C88.2362 0.0225314 92.4596 0.0154132 96.682 0.0113457C99.7681 0.00829504 102.854 0.00829504 105.94 0.0143963C106.29 0.0143963 106.652 -0.0578024 107.009 0.121169C107.248 0.808583 107.013 1.54176 107.19 2.29527C107.346 2.33086 107.524 2.40102 107.705 2.40611C108.255 2.42136 108.805 2.41221 109.409 2.41221C109.454 2.67151 109.521 2.88404 109.523 3.09657C109.534 4.13786 109.524 5.17813 109.53 6.21942C109.532 6.53669 109.562 6.85497 109.58 7.20275C110.356 7.40511 111.111 7.20275 111.845 7.34816C112.172 8.10676 111.832 8.92027 112.104 9.68496C112.8 9.93206 113.533 9.68191 114.282 9.87919C114.312 10.0754 114.371 10.29 114.374 10.5056C114.391 11.5133 114.391 12.5221 114.403 13.5298C114.407 13.8491 114.428 14.1684 114.441 14.4999C115.207 14.8029 115.974 14.5274 116.728 14.7246C117.04 15.4202 116.727 16.193 116.954 16.9475C117.652 17.1946 118.413 16.9445 119.202 17.1265C119.242 17.3126 119.315 17.5221 119.327 17.7346C119.355 18.2502 119.354 18.7668 119.363 19.2121C119.67 19.5162 119.974 19.4623 120.261 19.4664C121.982 19.4928 123.702 19.5111 125.424 19.5345C125.744 19.5386 126.065 19.5548 126.422 19.567C126.768 20.2931 126.468 21.071 126.68 21.8296C127.387 22.0655 128.145 21.8276 128.909 21.9974C129.174 22.7275 128.883 23.5298 129.114 24.2945C129.85 24.5518 130.617 24.2783 131.354 24.4857C131.642 25.1965 131.352 25.9683 131.576 26.7381C132.294 26.9181 133.052 26.7157 133.823 26.8805C133.964 28.0662 133.873 29.2305 133.89 30.3897C133.906 31.5581 133.894 32.7276 133.894 33.9458C133.634 33.9966 133.424 34.0648 133.21 34.0749C132.694 34.0993 132.178 34.0963 131.619 34.1044C131.57 34.323 131.506 34.503 131.493 34.6861C131.473 34.9779 131.485 35.2708 131.485 35.5636C131.485 41.126 131.485 46.6883 131.483 52.2507C131.483 52.6371 131.469 53.0246 131.463 53.3337C131.209 53.653 130.933 53.5849 130.681 53.5991C130.17 53.6286 129.649 53.532 129.159 53.6835C128.977 54.4543 128.967 57.6087 129.147 58.5025C129.801 58.7435 130.536 58.4944 131.191 58.6683C131.449 58.9398 131.387 59.2469 131.391 59.5306C131.426 62.3595 131.456 65.1875 131.484 68.0165C131.49 68.6673 131.49 69.3181 131.48 69.9679C131.477 70.158 131.433 70.3482 131.404 70.5699C130.656 70.7621 129.9 70.5434 129.205 70.7112C128.946 70.9827 129.025 71.2898 129.024 71.5715C129.016 73.3277 129.02 75.0848 129.02 76.841C129.02 77.1644 129.02 77.4877 129.02 77.8599C128.76 77.9118 128.549 77.9829 128.337 77.9901C127.821 78.0073 127.304 77.9962 126.842 77.9962C126.529 78.3358 126.639 78.6754 126.613 78.9886C126.576 79.4361 126.698 79.8998 126.478 80.3442C125.754 80.517 124.994 80.2913 124.24 80.4967C124.027 81.2471 124.257 82.0088 124.086 82.7491C123.367 83.0257 122.599 82.7562 121.841 82.9565C121.601 83.6826 121.871 84.4524 121.642 85.2089C120.919 85.4042 120.161 85.1764 119.406 85.3625C119.117 86.0763 119.399 86.8431 119.215 87.5772C118.963 87.8396 118.622 87.7532 118.311 87.7542C116.232 87.7613 114.153 87.7562 112.074 87.7582C110.774 87.7593 109.475 87.7633 108.175 87.7715C107.887 87.7735 107.598 87.7959 107.27 87.8101C107.222 87.983 107.146 88.1314 107.145 88.2809C107.133 91.2085 107.129 94.1361 107.129 97.0638C107.129 97.1898 107.174 97.3159 107.202 97.4624C107.913 97.7685 108.685 97.4705 109.457 97.6932C109.633 98.4081 109.429 99.1677 109.608 99.9426C110.405 100.062 111.18 99.9863 111.949 100.004C112.722 100.022 113.498 99.9741 114.327 100.041C114.356 100.305 114.397 100.521 114.398 100.739C114.405 101.748 114.398 102.755 114.404 103.764C114.406 104.084 114.428 104.405 114.442 104.778C114.694 104.817 114.907 104.877 115.121 104.88C116.129 104.891 117.135 104.886 118.142 104.886C118.464 104.886 118.787 104.886 119.042 104.886C119.363 105.124 119.292 105.401 119.308 105.652C119.342 106.163 119.24 106.684 119.422 107.248C120.197 107.4 120.977 107.297 121.745 107.337C122.49 107.376 123.235 107.371 124.037 107.386C124.077 107.626 124.135 107.839 124.144 108.054C124.165 108.57 124.163 109.085 124.171 109.652C124.434 109.694 124.648 109.755 124.862 109.759C125.869 109.77 126.876 109.765 127.883 109.765C128.205 109.765 128.527 109.765 128.783 109.765C129.092 110.019 129.004 110.296 129.02 110.546C129.053 111.058 128.958 111.58 129.098 112.062C129.413 112.315 129.751 112.234 130.066 112.235C131.788 112.243 133.51 112.237 135.231 112.24C135.553 112.24 135.875 112.257 136.204 112.267C136.531 113.016 136.224 113.787 136.449 114.547C137.152 114.768 137.91 114.547 138.674 114.705C138.925 115.431 138.661 116.196 138.868 116.977C139.062 117.016 139.273 117.09 139.487 117.096C140.071 117.115 140.656 117.103 141.241 117.106C144.132 117.111 147.023 117.117 149.914 117.122C150.204 117.122 150.493 117.122 150.804 117.122C151.153 117.88 150.845 118.652 151.046 119.374C151.355 119.625 151.728 119.517 152.072 119.518C154.606 119.528 157.139 119.523 159.673 119.526C159.991 119.526 160.309 119.549 160.643 119.563C160.964 120.315 160.628 121.099 160.923 121.848C161.174 121.876 161.426 121.926 161.679 121.929C163.756 121.957 165.834 121.978 167.913 121.998C168.563 122.004 169.213 121.997 169.862 122.004C170.02 122.006 170.177 122.045 170.313 122.064C170.524 122.389 170.466 122.723 170.468 123.043C170.475 123.987 170.468 124.929 170.473 125.873C170.475 126.16 170.504 126.447 170.522 126.751C171.337 126.983 172.117 126.84 172.886 126.877C173.658 126.913 174.437 126.81 175.214 126.951C175.497 127.682 175.203 128.455 175.437 129.199C175.573 129.227 175.695 129.273 175.817 129.273C178.806 129.273 181.795 129.27 184.782 129.262C184.87 129.262 184.958 129.201 185.079 129.158C185.292 128.47 185.062 127.74 185.235 127.038C185.548 126.781 185.921 126.885 186.264 126.885C189.707 126.877 193.151 126.876 196.593 126.882C198.152 126.885 199.711 126.904 201.27 126.922C201.492 126.924 201.714 126.956 201.975 126.977C202.192 127.76 202.048 128.541 202.098 129.308C202.147 130.049 202.132 130.794 202.097 131.487C201.737 131.741 201.403 131.669 201.084 131.67C199.363 131.676 197.64 131.67 195.919 131.675C195.602 131.675 195.284 131.707 194.943 131.725C194.788 132.145 194.846 132.537 194.837 132.917C194.827 133.273 194.835 133.629 194.835 134.025C195.061 134.077 195.24 134.148 195.421 134.154C195.971 134.169 196.52 134.16 197.001 134.16C197.311 134.416 197.225 134.694 197.241 134.944C197.274 135.456 197.178 135.978 197.34 136.533C197.561 136.568 197.777 136.63 197.995 136.632C199.002 136.643 200.008 136.635 201.016 136.639C201.336 136.64 201.656 136.66 202.018 136.673C202.243 137.429 202.001 138.193 202.198 138.95C202.717 139.11 203.236 139.023 203.744 139.038C204.263 139.052 204.784 139.04 205.303 139.042C205.818 139.044 206.332 139.049 206.902 139.054C207.039 139.846 207.019 140.571 206.924 141.324C206.129 141.53 205.348 141.395 204.577 141.431C203.805 141.467 203.026 141.359 202.222 141.517C202.033 142.265 202.126 143.001 202.159 143.799C202.382 143.841 202.593 143.914 202.804 143.916C203.875 143.928 204.948 143.919 206.02 143.925C206.306 143.926 206.59 143.953 206.936 143.973C207.015 144.728 207.007 145.431 206.945 146.162C206.231 146.491 205.459 146.177 204.708 146.392C204.381 147.11 204.778 147.933 204.425 148.705C202.918 148.754 201.397 148.695 199.872 148.742C199.637 149.158 199.728 149.554 199.71 149.932C199.693 150.286 199.691 150.641 199.68 151.037C199.466 151.095 199.287 151.183 199.109 151.184C197.095 151.196 195.08 151.195 193.067 151.19C192.909 151.19 192.753 151.15 192.555 151.123C192.303 150.384 192.565 149.62 192.381 148.906C192.144 148.649 191.835 148.73 191.554 148.729C189.801 148.72 188.046 148.726 186.292 148.721C185.972 148.721 185.651 148.702 185.283 148.691C185.038 147.951 185.295 147.183 185.086 146.441C184.337 146.152 183.528 146.464 182.794 146.22C182.621 145.806 182.706 145.413 182.683 145.031C182.661 144.682 182.738 144.32 182.556 143.93C181.021 143.769 179.468 143.938 177.906 143.782C177.731 143.039 177.918 142.316 177.761 141.567C177.588 141.528 177.408 141.452 177.228 141.452C176.516 141.455 175.805 141.405 175.092 141.54C174.652 141.624 174.185 141.566 173.732 141.591C173.287 141.615 173.154 141.745 173.116 142.179C173.094 142.437 173.114 142.699 173.092 142.959C173.069 143.212 173.016 143.462 172.967 143.768C172.647 143.792 172.366 143.83 172.083 143.831C170.297 143.84 168.51 143.839 166.724 143.847C166.404 143.848 166.085 143.871 165.709 143.886C165.669 144.136 165.607 144.35 165.605 144.563C165.594 145.605 165.604 146.645 165.596 147.686C165.594 148.007 165.653 148.34 165.452 148.662C164.747 148.834 163.989 148.608 163.216 148.819C163.188 149.056 163.142 149.274 163.14 149.492C163.132 150.501 163.139 151.509 163.134 152.517C163.132 152.837 163.109 153.156 163.096 153.494C162.719 153.664 162.358 153.6 162.012 153.6C158.731 153.607 155.45 153.604 152.169 153.604C149.765 153.604 147.361 153.604 144.958 153.604C144.602 153.604 144.247 153.604 143.849 153.604C143.801 153.379 143.737 153.199 143.731 153.017C143.711 152.468 143.713 151.919 143.705 151.418C143.418 151.124 143.11 151.199 142.83 151.198C141.044 151.189 139.257 151.198 137.47 151.19C137.153 151.189 136.818 151.265 136.519 151.037C136.311 150.326 136.593 149.556 136.324 148.81C135.585 148.609 134.826 148.832 134.069 148.653C133.849 147.927 134.095 147.165 133.913 146.467C133.576 146.244 133.243 146.32 132.928 146.318C131.207 146.31 129.484 146.316 127.763 146.311C127.443 146.311 127.113 146.363 126.784 146.185C126.566 145.475 126.82 144.709 126.595 143.936C126.023 143.767 125.439 143.867 124.866 143.851C124.25 143.833 123.631 143.835 123.015 143.847C122.431 143.857 121.848 143.892 121.264 143.909C120.685 143.925 120.105 143.932 119.6 143.941C119.287 144.251 119.358 144.559 119.355 144.843C119.327 148.193 119.306 151.541 119.28 154.891C119.277 155.243 119.324 155.601 119.201 155.968C118.422 156.171 117.642 156.036 116.871 156.071C116.099 156.107 115.32 156 114.504 156.159C114.471 156.39 114.416 156.607 114.416 156.825C114.409 159.59 114.41 162.355 114.414 165.12C114.414 165.339 114.459 165.558 114.487 165.798C115.242 166.061 116.01 165.787 116.718 165.987C116.929 166.293 116.868 166.628 116.871 166.947C116.878 167.858 116.871 168.768 116.875 169.679C116.876 170 116.893 170.32 116.903 170.636C117.672 170.963 118.446 170.651 119.21 170.893C119.234 171.109 119.278 171.328 119.279 171.545C119.287 172.554 119.279 173.562 119.285 174.571C119.287 174.889 119.312 175.206 119.328 175.537C120.102 175.819 120.869 175.556 121.652 175.758C121.682 175.998 121.738 176.247 121.742 176.497C121.757 177.472 121.753 178.448 121.76 179.424C121.762 179.745 121.779 180.065 121.789 180.377C122.553 180.725 123.333 180.38 124.067 180.648C124.214 180.989 124.153 181.351 124.153 181.7C124.158 185.767 124.155 189.832 124.159 193.899C124.159 194.281 124.1 194.674 124.261 195.078C124.982 195.335 125.748 195.067 126.452 195.257C126.672 195.526 126.616 195.829 126.618 196.114C126.624 197.058 126.618 198.001 126.62 198.944C126.62 199.266 126.636 199.586 126.645 199.907C127.408 200.241 128.181 199.937 128.945 200.163C128.972 200.376 129.02 200.593 129.023 200.81C129.035 201.819 129.03 202.827 129.038 203.836C129.041 204.154 129.065 204.472 129.079 204.802C129.851 205.09 130.62 204.822 131.358 205.022C131.651 205.733 131.366 206.504 131.574 207.27C132.293 207.472 133.052 207.249 133.831 207.425C133.856 207.654 133.898 207.871 133.9 208.088C133.907 209.097 133.9 210.105 133.903 211.113C133.904 211.434 133.925 211.754 133.938 212.108C134.688 212.379 135.449 212.123 136.16 212.294C136.403 212.493 136.359 212.767 136.361 213.02C136.368 214.029 136.361 215.037 136.368 216.045C136.37 216.363 136.398 216.68 136.416 217.024C137.167 217.224 137.889 217.025 138.657 217.174C138.693 217.358 138.764 217.569 138.767 217.78C138.78 218.69 138.774 219.601 138.774 220.512C138.774 223.863 138.773 227.214 138.775 230.563C138.775 230.914 138.8 231.266 138.814 231.651C139.587 231.881 140.347 231.643 141.102 231.823C141.143 231.97 141.212 232.119 141.225 232.274C141.247 232.565 141.239 232.858 141.239 233.151C141.239 237.965 141.237 242.78 141.242 247.594C141.242 247.975 141.169 248.371 141.364 248.766C142.052 249 142.782 248.758 143.528 248.943C143.561 249.068 143.636 249.215 143.636 249.363C143.645 252.259 143.644 255.154 143.641 258.049C143.641 258.172 143.599 258.295 143.572 258.436C142.839 258.685 142.07 258.406 141.309 258.644C141.286 258.813 141.247 258.968 141.247 259.122C141.243 261.331 141.244 263.54 141.244 265.76C142.014 266.063 142.777 265.785 143.531 265.979C143.728 266.289 143.646 266.657 143.647 267.001C143.654 270.222 143.65 273.442 143.65 276.663C143.65 276.956 143.644 277.248 143.658 277.54C143.665 277.696 143.707 277.849 143.743 278.058C144.534 278.219 145.313 278.103 146.081 278.15C146.849 278.198 147.627 278.11 148.408 278.224C148.617 278.971 148.405 279.697 148.577 280.438C149.295 280.678 150.053 280.453 150.748 280.584C151.026 280.787 150.974 281.063 150.984 281.315C151.004 281.831 150.952 282.351 151.041 282.896C151.26 282.942 151.443 283.013 151.626 283.013C153.705 283.021 155.785 283.026 157.863 283.016C158.544 283.013 159.225 282.975 159.906 282.938C160.126 282.926 160.343 282.869 160.548 282.834C160.889 282.099 160.491 281.296 160.872 280.621C161.791 280.51 164.708 280.521 165.46 280.638C165.686 280.988 165.599 281.388 165.6 281.77C165.608 285.055 165.605 288.341 165.605 291.626C165.605 292.472 165.611 293.317 165.603 294.163C165.599 294.45 165.563 294.736 165.541 295.027C164.756 295.209 163.999 295.009 163.243 295.18C163.025 295.936 163.239 296.695 163.078 297.454C162.929 297.493 162.778 297.554 162.624 297.566C162.366 297.586 162.105 297.576 161.845 297.576C146.48 297.576 131.115 297.576 115.75 297.573C115.368 297.573 114.974 297.634 114.564 297.452C114.408 296.448 114.515 295.445 114.496 294.447C114.477 293.472 114.492 292.496 114.492 291.519C114.492 290.511 114.482 289.503 114.495 288.494C114.508 287.523 114.442 286.55 114.547 285.542C115.3 285.27 116.103 285.577 116.884 285.316C116.91 285.05 116.95 284.798 116.955 284.546C117.053 279.328 117 274.192 116.833 273.293C116.125 273.012 115.313 273.343 114.529 273.062C114.516 272.711 114.495 272.393 114.494 272.075C114.49 270.351 114.494 268.626 114.489 266.903C114.489 266.586 114.457 266.27 114.439 265.928C113.683 265.718 112.959 265.924 112.21 265.767C111.987 265.063 112.078 264.342 112.15 263.586C112.887 263.381 113.615 263.598 114.355 263.409C114.6 262.654 114.461 261.888 114.44 261.073C114.199 261.032 113.985 260.968 113.77 260.965C112.763 260.951 111.756 260.952 110.749 260.949C110.426 260.948 110.103 260.949 109.727 260.949C109.686 260.686 109.632 260.473 109.623 260.257C109.603 259.742 109.605 259.225 109.598 258.762C109.305 258.465 108.996 258.546 108.717 258.545C106.963 258.536 105.208 258.542 103.454 258.537C103.134 258.537 102.815 258.51 102.465 258.495C102.171 257.717 102.51 256.906 102.205 256.118C100.68 255.994 99.1578 256.141 97.5929 256.036C97.5503 255.85 97.4822 255.671 97.4731 255.49C97.4538 255.101 97.464 254.71 97.464 254.32C97.464 248.042 97.467 241.763 97.4619 235.486C97.4619 235.073 97.5594 234.64 97.3228 234.238C96.6049 234.01 95.8351 234.285 95.1161 234.052C94.9344 233.724 95.0004 233.393 95.0004 233.077C94.9953 230.572 95.0004 228.068 94.9984 225.563C94.9984 225.212 95.0359 224.855 94.9171 224.494C94.1809 224.235 93.4071 224.543 92.6414 224.258C92.5155 222.716 92.6759 221.16 92.547 219.632C91.7467 219.365 90.978 219.64 90.2326 219.409C90.0671 219.062 90.1321 218.7 90.1311 218.354C90.126 215.068 90.1291 211.782 90.127 208.497C90.127 208.143 90.1118 207.789 90.1027 207.419C89.3085 207.117 88.5104 207.405 87.7579 207.213C87.501 206.907 87.5853 206.535 87.5609 206.186C87.5365 205.834 87.6188 205.469 87.3974 205.084C86.7698 204.895 86.1077 204.947 85.4263 205.059C85.1135 205.827 85.3278 206.622 85.2242 207.388C85.1207 208.155 85.1877 208.945 85.1775 209.725C85.1674 210.498 85.212 211.273 85.141 212.078C84.3631 212.259 83.6055 212.051 82.8906 212.231C82.715 212.61 82.7718 212.971 82.7718 213.321C82.7667 216.607 82.7688 219.892 82.7657 223.178C82.7657 223.531 82.8094 223.89 82.6611 224.271C81.9482 224.537 81.1795 224.253 80.4656 224.462C80.2057 224.78 80.3092 225.155 80.3092 225.499C80.3011 229.371 80.3042 233.241 80.3042 237.112C80.3042 237.695 80.3042 238.277 80.3042 238.856C79.5375 239.195 78.7637 238.882 78.0274 239.109C77.8203 239.43 77.9005 239.797 77.8995 240.143C77.8914 242.615 77.8964 245.087 77.8934 247.56C77.8934 247.911 77.8721 248.263 77.8599 248.63C77.0922 248.942 76.3224 248.65 75.5425 248.875C75.509 249.062 75.441 249.274 75.4389 249.488C75.4268 250.496 75.4328 251.504 75.4318 252.513C75.4318 252.836 75.4318 253.158 75.4318 253.49C74.6783 253.843 73.9066 253.526 73.1521 253.741C72.824 254.453 73.216 255.276 72.8931 256.008C72.1609 256.184 71.4013 255.953 70.6184 256.171C70.462 257.734 70.6458 259.289 70.5077 260.87C69.7522 261.061 68.9936 260.844 68.2482 261.029C68.0177 261.775 68.2746 262.54 68.0756 263.228C67.8065 263.497 67.4978 263.416 67.2165 263.417C65.4952 263.425 63.773 263.421 62.0517 263.425C61.6973 263.425 61.3429 263.44 60.9367 263.449C60.892 263.708 60.8311 263.92 60.823 264.136C60.8026 264.651 60.8077 265.168 60.8016 265.733C60.5325 265.77 60.3172 265.824 60.1019 265.826C59.0946 265.835 58.0882 265.828 57.0809 265.832C56.76 265.833 56.4391 265.849 56.0654 265.86C56.0197 266.111 55.9496 266.323 55.9476 266.537C55.9354 267.577 55.9445 268.618 55.9384 269.659C55.9364 269.978 55.91 270.296 55.8937 270.641C55.1646 270.881 54.4325 270.639 53.685 270.843C53.6505 271.093 53.5896 271.339 53.5855 271.586C53.5601 273.05 53.5358 274.513 53.5337 275.976C53.5276 281.116 53.5337 286.255 53.5287 291.395C53.5287 291.779 53.5886 292.172 53.4241 292.585C52.7112 292.851 51.9425 292.565 51.194 292.781C50.9067 293.48 51.194 294.249 50.9828 295.034C50.2842 295.218 49.5266 295.007 48.7711 295.175C48.5152 295.909 48.7883 296.677 48.5903 297.368C48.3761 297.631 48.1009 297.56 47.849 297.574C47.3382 297.603 46.8173 297.506 46.2862 297.673C46.0678 298.385 46.2912 299.112 46.1338 299.829C45.8373 300.091 45.4626 299.974 45.1214 299.975C41.8728 299.987 38.6243 299.984 35.3757 299.986C35.0203 299.986 34.6649 299.986 34.3592 299.986C34.0454 299.71 34.146 299.399 34.1226 299.12C34.083 298.642 34.2059 298.147 33.9936 297.676C33.2655 297.439 32.4958 297.718 31.7484 297.472C31.525 296.736 31.7788 295.973 31.5747 295.215C30.8618 294.977 30.1002 295.213 29.3427 295.041C29.1101 294.313 29.3782 293.544 29.1457 292.809C28.4145 292.556 27.6458 292.836 26.8974 292.607C26.7197 292.275 26.7867 291.912 26.7857 291.566C26.7796 288.443 26.7816 285.32 26.7816 282.198C26.7816 281.189 26.7785 280.181 26.7826 279.172C26.7836 278.884 26.805 278.595 26.8182 278.258C27.5513 277.988 28.317 278.249 29.0147 278.068C29.3153 277.797 29.2289 277.452 29.231 277.139C29.2432 275.252 29.2442 273.365 29.2472 271.479C29.2492 269.983 29.2462 268.486 29.2503 266.99C29.2503 266.671 29.2756 266.352 29.2909 265.993C30.0627 265.801 30.8192 266.011 31.5828 265.833C31.7453 265.112 31.5768 264.391 31.6966 263.711C31.9007 263.445 32.1779 263.524 32.4277 263.508C32.9395 263.476 33.4605 263.574 33.9388 263.426C34.1967 263.108 34.1155 262.77 34.1165 262.454C34.1256 260.763 34.1216 259.071 34.1246 257.38C34.1246 257.025 34.1399 256.669 34.149 256.271C34.3683 256.226 34.5491 256.165 34.7309 256.158C35.2782 256.138 35.8266 256.139 36.4044 256.132C36.6359 255.289 36.4968 254.477 36.5202 253.679C36.5435 252.903 36.5181 252.126 36.5131 251.337C35.7413 251.048 34.9776 251.307 34.2059 251.125C34.1764 250.899 34.1267 250.683 34.1246 250.467C34.1155 249.458 34.1246 248.45 34.1185 247.442C34.1165 247.121 34.0931 246.801 34.0769 246.444C33.298 246.16 32.4988 246.441 31.7311 246.23C31.7057 246.081 31.6661 245.958 31.6661 245.835C31.6621 243.658 31.6631 241.481 31.6631 239.361C31.8946 239.049 32.1728 239.129 32.4227 239.112C32.9345 239.08 33.4564 239.176 33.9987 239.012C34.2749 238.269 33.9733 237.462 34.2353 236.666C34.9583 236.644 35.6631 236.624 36.3943 236.603C36.6745 235.861 36.4105 235.096 36.6024 234.333C37.3184 234.085 38.084 234.358 38.8335 234.146C39.199 233.432 38.8294 232.615 39.0863 231.854C39.457 231.686 39.85 231.775 40.2308 231.755C40.5801 231.736 40.9305 231.729 41.3184 231.714C41.4971 230.96 41.3194 230.238 41.4453 229.553C41.6423 229.289 41.9206 229.364 42.1694 229.352C42.6822 229.328 43.2011 229.396 43.6601 229.295C43.9434 228.957 43.8612 228.618 43.8622 228.303C43.8703 226.547 43.8632 224.789 43.8703 223.033C43.8713 222.717 43.8043 222.385 44.0237 222.028C44.7061 222.007 45.4108 221.986 46.1582 221.965C46.1999 221.751 46.2547 221.569 46.2659 221.386C46.2841 221.094 46.273 220.8 46.273 220.508C46.273 214.133 46.273 207.757 46.276 201.382C46.276 200.996 46.2923 200.612 46.3024 200.195C47.0671 199.935 47.8338 200.207 48.5913 199.99C48.634 199.857 48.7223 199.709 48.7234 199.561C48.7335 198.227 48.7294 196.893 48.7234 195.56C48.7234 195.468 48.6777 195.375 48.6391 195.23C47.915 194.955 47.1108 195.253 46.3258 195.012C46.0658 194.304 46.3603 193.529 46.1054 192.792C45.3275 192.591 44.5446 192.74 43.7769 192.674C43.0376 192.61 42.2902 192.634 41.5194 192.617C41.2686 191.867 41.5093 191.105 41.3285 190.332C41.1061 190.299 40.8919 190.241 40.6766 190.239C39.6042 190.229 38.5329 190.237 37.4605 190.23C37.1752 190.228 36.8715 190.293 36.5842 190.047C36.4664 189.307 36.5476 188.529 36.5283 187.756C36.51 187.012 36.5598 186.267 36.4867 185.49C35.7494 185.203 34.9787 185.484 34.2302 185.27C33.9682 184.527 34.2658 183.721 34.017 182.963C33.1812 182.816 32.3831 182.879 31.5859 182.915C31.6316 182.152 31.6935 181.388 31.5371 180.599C30.7664 180.466 30.0474 180.474 29.2391 180.596C29.2411 181.393 29.0624 182.141 29.3528 182.891H31.6092L31.6001 182.88ZM48.7579 160.998C49.5571 160.989 50.3136 161.154 51.062 160.899C51.2479 160.133 51.0173 159.374 51.2215 158.631C51.9811 158.448 52.7376 158.665 53.5175 158.461C53.5449 158.215 53.5916 157.965 53.5977 157.715C53.684 154.071 53.6424 152.066 53.4606 151.271C52.6909 151.151 51.911 151.108 51.0783 151.32C51.0702 151.877 51.0702 152.391 51.0498 152.905C51.0417 153.119 50.9869 153.332 50.9453 153.597C50.3461 153.597 49.7977 153.587 49.2504 153.603C49.0696 153.608 48.8909 153.678 48.7284 153.714C48.6096 154.65 48.6188 160.073 48.7569 160.996L48.7579 160.998Z" fill="#228BAC"/>
</svg>
