<svg width="141" height="300" viewBox="0 0 141 300" fill="none" xmlns="http://www.w3.org/2000/svg">
<g clip-path="url(#clip0_163_171)">
<path d="M3.23244 154.944C3.2558 152.368 3.27138 149.789 3.30837 147.212C3.31616 146.642 3.1935 146.055 3.47386 145.466C4.3753 145.037 5.40718 145.476 6.45074 145.116C6.69995 144.18 6.54614 143.186 6.5773 142.209C6.60845 141.217 6.60455 140.225 6.61624 139.231C7.64617 138.672 8.76177 139.227 9.72941 138.764C9.97862 137.775 9.82481 136.774 9.85012 135.782C9.87737 134.73 9.83259 133.676 9.86569 132.625C9.89684 131.639 9.70604 130.638 10.0507 129.569C11.0202 129.514 11.984 129.46 12.9672 129.404C13.2417 128.395 13.1405 127.472 13.0587 126.455C12.5739 126.407 12.1553 126.332 11.7367 126.33C9.55223 126.317 7.36581 126.324 5.18133 126.317C4.64398 126.315 4.10662 126.281 3.51864 126.26C3.43881 126.003 3.32784 125.814 3.32784 125.623C3.31421 122.939 3.31421 120.255 3.32005 117.572C3.32005 117.422 3.39014 117.272 3.43881 117.069C4.36946 116.568 5.48506 117.122 6.50331 116.64C6.55783 115.724 6.61234 114.798 6.67075 113.783C7.74157 113.723 8.70531 113.669 9.68268 113.615C9.99809 112.604 9.81118 111.681 9.81897 110.717C8.79487 110.346 7.77856 110.7 6.79341 110.408C6.41765 109.781 6.61624 109.087 6.58508 108.425C6.55588 107.795 6.57924 107.163 6.57924 106.531C6.57924 105.851 6.57924 105.17 6.57924 104.397C7.00952 104.311 7.35997 104.208 7.71821 104.176C8.35681 104.118 9.01488 104.238 9.72941 103.998C9.78392 103.094 9.83649 102.218 9.89295 101.303C10.8917 100.802 11.9937 101.295 13.0528 100.868C13.1093 99.9712 13.1658 99.0467 13.2242 98.1071C14.258 97.7395 15.2198 97.9683 16.2303 97.9383C16.5398 99.0017 16.3763 99.9994 16.4055 100.982C16.4347 101.974 16.4211 102.968 16.425 103.99C17.5308 104.341 18.5296 104.277 19.5226 104.078C19.7737 102.651 19.7523 89.8629 19.4856 88.5107C18.5549 88.3945 17.6009 88.3532 16.6255 88.5558C16.1446 89.4634 16.6352 90.4593 16.2575 91.4157C15.3347 91.7195 14.3748 91.5864 13.3293 91.4945C12.9672 90.5174 13.2028 89.5122 13.1171 88.5407C13.0295 87.5562 13.0139 86.566 12.9633 85.4839C11.9606 85.4126 11.0553 85.3488 10.1422 85.2832C9.55808 84.3305 10.0935 83.2728 9.69436 82.2376C7.69095 81.9169 5.6155 82.2788 3.48749 82.0106C3.42519 81.6993 3.3181 81.4068 3.31421 81.1142C3.29474 79.7996 3.31421 78.483 3.29669 77.1665C3.29279 76.7596 3.2266 76.3526 3.18182 75.8838C2.14215 75.8219 1.18035 75.7637 0.2575 75.7075C-0.0442769 74.436 -0.0481708 74.1359 0.210773 72.81C1.11026 72.4049 2.1402 72.8363 3.12146 72.4912C3.542 71.6191 3.10394 70.6308 3.45828 69.6293C3.85546 69.5806 4.26821 69.4887 4.68291 69.4868C6.86739 69.4699 9.05382 69.4793 11.2383 69.4699C11.7776 69.4681 12.3169 69.4343 12.9574 69.4099C13.0217 69.0142 13.1229 68.6729 13.1268 68.3297C13.1444 66.173 13.1346 64.0144 13.1444 61.8559C13.1463 61.3364 13.1794 60.815 13.1989 60.2637C14.1918 59.7292 15.3035 60.2562 16.2926 59.8192C16.4873 58.8421 16.4912 57.8669 16.2848 56.8711C15.4554 56.3929 14.5189 56.798 13.7109 56.4791C13.2612 55.3089 13.0801 52.1639 13.4072 50.6673C13.853 50.6411 14.332 50.6129 14.8109 50.5829C15.2899 50.5529 15.7669 50.5173 16.1913 50.4892C16.5398 49.8328 16.4133 49.2439 16.4133 48.6775C16.423 40.4671 16.4191 32.2585 16.425 24.0481C16.425 23.478 16.3471 22.8947 16.5554 22.3208C17.4938 21.8745 18.5277 22.3133 19.5673 21.9514C19.8185 21.0137 19.6627 20.0179 19.6939 19.0408C19.725 18.0487 19.7211 17.0566 19.7328 16.0627C20.7589 15.4982 21.8784 16.0571 22.8441 15.5901C23.0894 14.6018 22.9083 13.5984 22.9726 12.6063C23.0368 11.6218 22.8168 10.6184 23.177 9.54383C25.2291 9.36005 27.3026 9.59259 29.4442 9.39943C29.5046 8.38485 29.5591 7.45653 29.6194 6.42882C30.6611 6.35943 31.6209 6.29754 32.6041 6.2319C33.0247 5.29608 32.6294 4.31338 32.8923 3.47696C33.3634 3.03624 33.8813 3.1694 34.3525 3.16752C37.5766 3.15439 40.7988 3.16377 44.023 3.16002C44.5642 3.16002 45.1035 3.12626 45.6798 3.10563C46.2172 2.15106 45.6409 1.07834 46.149 0.0956367C48.1408 -0.148164 50.1364 0.148148 52.1534 0.133144C52.6499 1.08397 52.1554 2.09105 52.5856 3.00624C53.5981 3.2913 54.6377 3.13189 55.6618 3.15627C56.7541 3.18252 57.8463 3.16189 58.9405 3.16189H62.0459C62.554 4.1371 62.1237 5.12355 62.4489 6.11C62.6981 6.17001 62.9999 6.29754 63.3017 6.30317C64.612 6.32755 65.9242 6.31067 67.2345 6.3238C67.7154 6.32942 68.1943 6.37631 68.7726 6.41194C68.8368 7.40777 68.8952 8.33046 68.9536 9.2644C69.9407 9.70324 70.9668 9.29066 71.9656 9.6151C72.3783 10.4703 71.9558 11.4549 72.2907 12.4582C72.5983 12.5107 72.9546 12.6007 73.3187 12.627C73.9592 12.6757 74.6154 12.5688 75.3182 12.7751C75.3552 13.1633 75.4136 13.5197 75.4214 13.876C75.6161 23.3073 75.5149 45.6938 75.2579 47.2766C74.3253 47.3385 73.3635 47.4023 72.4659 47.4604C72.0279 47.9292 72.1622 48.4244 72.1583 48.8801C72.1427 51.9857 72.1486 55.0895 72.1408 58.1951C72.1408 58.7146 72.1097 59.236 72.0941 59.7592C71.0778 60.2637 69.97 59.7536 68.9556 60.1999C68.8952 61.1545 68.8349 62.0809 68.7687 63.1105C68.132 63.1293 67.5947 63.1574 67.0573 63.1593C64.9819 63.1649 62.9045 63.1536 60.829 63.1668C60.2936 63.1705 59.7348 63.058 59.2364 63.3468C58.9619 64.5414 58.9502 67.9509 59.2286 69.333C60.1301 69.6819 61.1503 69.3087 62.1354 69.6068C62.5326 70.4977 62.1199 71.4804 62.4528 72.4724C62.7838 72.5249 63.144 72.6243 63.508 72.63C64.6548 72.6506 65.8015 72.6375 66.9502 72.6375C67.4915 72.6375 68.0347 72.6375 68.6713 72.6375C68.7453 73.0594 68.829 73.4007 68.8602 73.7477C68.9167 74.3628 68.7745 74.9986 69.0413 75.7037C70.0108 75.7619 70.9707 75.82 71.9558 75.88C72.3608 76.8271 71.95 77.8098 72.2732 78.7494C73.1902 79.1826 74.2143 78.785 75.1605 79.055C75.5538 79.4414 75.4136 79.9402 75.4156 80.3941C75.4273 83.4997 75.4214 86.6035 75.4214 89.7091C75.4214 90.2323 75.4214 90.7537 75.4214 91.3426C75.7972 91.4363 76.0931 91.5489 76.3988 91.577C77.0958 91.6389 77.8084 91.5114 78.5657 91.7214C78.8383 93.2423 78.6456 94.7633 78.6981 96.273C78.7507 97.7883 78.6008 99.3111 78.7974 100.853C79.7651 101.278 80.7853 100.898 81.784 101.183C82.1637 102.115 81.932 103.118 81.969 104.099C82.0079 105.093 81.9768 106.091 81.9768 107.145C82.3662 107.235 82.666 107.343 82.9736 107.366C83.4623 107.402 83.9568 107.379 84.4475 107.379C92.7512 107.379 101.057 107.379 109.361 107.383C110.005 107.383 110.659 107.321 111.391 107.516C111.454 108.47 111.512 109.391 111.568 110.26C112.133 110.667 112.698 110.528 113.229 110.532C116.453 110.547 119.676 110.537 122.9 110.543C124.155 110.545 125.413 110.56 126.669 110.578C126.988 110.584 127.308 110.631 127.674 110.663C128.053 111.601 127.656 112.585 128.001 113.515C128.937 113.898 129.957 113.532 131.001 113.827C131.048 114.134 131.147 114.483 131.149 114.832C131.163 116.988 131.157 119.147 131.157 121.306C131.157 121.829 131.157 122.35 131.157 122.962C131.595 123.042 131.949 123.14 132.309 123.164C132.952 123.207 133.596 123.205 134.291 123.224C134.566 124.837 134.383 126.358 134.433 127.868C134.486 129.383 134.33 130.904 134.527 132.363C135.018 132.76 135.53 132.62 136.007 132.642C136.493 132.663 136.98 132.648 137.478 132.648C137.889 133.709 137.669 134.715 137.704 135.695C137.741 136.689 137.712 137.687 137.712 138.66C138.744 139.257 139.854 138.715 140.794 139.109C141.047 140.322 141.073 146.811 140.817 148.343C139.883 148.401 138.919 148.461 137.954 148.521C137.441 149.457 137.938 150.455 137.562 151.406C136.657 151.893 135.539 151.31 134.517 151.831C134.463 152.739 134.406 153.664 134.346 154.667C133.285 154.725 132.319 154.778 131.248 154.836C131.188 155.85 131.133 156.779 131.071 157.81C130.049 157.874 129.087 157.936 128.193 157.992C127.752 158.465 127.888 158.96 127.884 159.415C127.853 162.519 127.843 165.625 127.82 168.729C127.816 169.242 127.769 169.756 127.738 170.353C126.69 170.433 125.736 170.506 124.751 170.583C124.485 171.611 124.64 172.537 124.631 173.458C125.659 173.921 126.681 173.533 127.619 173.803C127.954 174.844 127.989 178.477 127.656 179.934C126.722 179.986 125.758 180.043 124.689 180.103C124.631 181.119 124.576 182.046 124.518 183.023C124.134 183.079 123.821 183.156 123.505 183.165C118.026 183.343 106.612 183.237 105.091 182.987C104.721 182.132 105.126 181.149 104.795 180.165C104.456 180.118 104.096 180.03 103.732 180.024C102.422 180.005 101.109 180.024 99.7992 180.009C99.3786 180.003 98.9581 179.93 98.4538 179.881C98.4051 178.916 98.3623 178.034 98.3136 177.057C97.1435 176.778 95.9929 176.69 94.8442 177.149C95.1557 176.615 95.0856 176.028 95.1012 175.452C95.1148 174.936 95.1421 174.422 95.1635 173.944C96.2187 173.432 97.3324 173.993 98.226 173.513C98.5998 172.547 98.1073 171.551 98.6213 170.634C99.6006 170.568 100.558 170.505 101.489 170.441C101.711 169.042 101.783 163.391 101.649 158.982C101.639 158.678 101.579 158.376 101.538 158.05C100.835 157.84 100.177 157.954 99.5363 157.902C99.1761 157.872 98.8198 157.782 98.3759 157.703C98.3759 157.096 98.3759 156.574 98.3759 156.053C98.3759 153.896 98.3818 151.739 98.3681 149.583C98.3662 149.232 98.2708 148.881 98.2241 148.572C97.1883 148.268 96.1681 148.645 95.181 148.229C95.1226 147.28 95.0681 146.355 95.0058 145.329C94.2601 145.309 93.6156 145.311 92.9751 145.266C92.6149 145.241 92.2606 145.144 91.9354 145.086C91.7349 143.161 91.7816 137.155 92.0153 135.909C92.9887 135.844 93.9953 135.774 94.998 135.707C95.4399 134.752 94.9668 133.736 95.4107 132.933C96.3725 132.537 97.3616 132.991 98.2143 132.543C98.6232 131.594 98.1053 130.538 98.6271 129.559C99.1294 129.535 99.6142 129.52 100.097 129.486C100.574 129.454 101.084 129.597 101.507 129.27C101.746 127.712 101.709 124.462 101.427 123.284C101.244 123.254 101.037 123.189 100.831 123.189C96.9547 123.189 93.0763 123.192 89.2 123.205C89.0481 123.205 88.8962 123.295 88.6276 123.38C88.573 124.278 88.5185 125.205 88.4601 126.18C88.0766 126.236 87.7631 126.32 87.4477 126.322C83.7894 126.33 80.1291 126.328 76.4708 126.311C76.1612 126.311 75.8536 126.197 75.5888 126.146C75.2228 125.171 75.6823 124.182 75.2481 123.295C74.2708 123.001 73.2506 123.374 72.2381 122.984C72.2089 122.506 72.1797 122.045 72.1505 121.583C72.1233 121.122 72.096 120.662 72.0629 120.111C70.9726 120.008 69.9816 119.878 68.9381 120.229C68.9108 120.554 68.8719 120.811 68.8719 121.066C68.8699 123.537 68.868 126.011 68.8836 128.483C68.8836 128.777 68.9906 129.07 69.0432 129.342C70.0692 129.659 71.0875 129.287 72.0766 129.67C72.0999 130.229 72.1389 130.746 72.1408 131.264C72.1486 133.421 72.1408 135.577 72.1505 137.734C72.1505 138.087 72.2206 138.437 72.2674 138.872C73.3109 138.936 74.2708 138.994 75.3065 139.058C75.3494 139.531 75.4136 139.939 75.4175 140.348C75.4331 141.663 75.4136 142.979 75.435 144.294C75.4389 144.587 75.5499 144.877 75.6064 145.147C76.6344 145.453 77.6526 145.087 78.5852 145.444C78.8617 146.408 78.5171 147.381 78.8714 148.349C79.878 148.411 80.8378 148.469 81.8541 148.532C82.1754 150.571 81.7938 152.57 82.0839 154.556C83.0827 155.006 84.1846 154.502 85.2204 154.984C85.234 155.67 85.2516 156.347 85.2593 157.022C85.2652 157.654 85.2457 158.285 85.2652 158.917C85.2847 159.582 85.1581 160.267 85.4326 160.983C86.445 161.045 87.4029 161.105 88.4231 161.169C88.7152 163.215 88.3647 165.212 88.647 167.204C89.6575 167.615 90.7536 167.157 91.7602 167.585C91.7816 168.155 91.8167 168.674 91.8186 169.192C91.8245 171.348 91.8147 173.505 91.8264 175.662C91.8264 176.011 91.9082 176.359 91.951 176.708C92.685 176.945 93.3431 176.828 93.9875 176.868C94.3029 176.886 94.6534 176.808 94.8675 177.138C94.9435 177.382 95.0817 177.625 95.0836 177.869C95.0973 180.448 95.0914 183.026 95.0836 185.605C95.0836 185.759 95.0233 185.911 94.9805 186.121C94.0557 186.623 92.9401 186.063 91.9023 186.565C91.877 186.999 91.8478 187.462 91.8206 187.925C91.7952 188.39 91.7719 188.855 91.7446 189.412C90.6913 189.47 89.7256 189.523 88.7483 189.575C88.3764 190.626 88.6061 191.629 88.5458 192.612C88.4854 193.604 88.6509 194.605 88.429 195.608C87.4925 196.064 86.4567 195.601 85.4774 195.969C84.9965 196.824 85.4949 197.821 85.1153 198.78C84.2177 199.26 83.1021 198.692 82.0663 199.202C82.041 199.639 82.0118 200.1 81.9846 200.563C81.9593 201.028 81.9359 201.492 81.9047 202.058C79.7631 202.23 77.6896 202.024 75.5343 202.199C75.4662 203.219 75.4039 204.145 75.3357 205.145C73.2467 205.503 71.1654 205.085 69.1737 205.387C68.7434 205.833 68.8797 206.328 68.8777 206.784C68.8641 209.89 68.8719 212.993 68.868 216.099C68.868 216.62 68.8388 217.14 68.8213 217.665C67.8186 218.222 66.6971 217.629 65.7645 218.109C65.4744 218.683 65.5991 219.272 65.5971 219.84C65.5854 223.893 65.5971 227.946 65.5854 231.998C65.5854 232.512 65.7081 233.049 65.346 233.63C64.4387 233.681 63.4749 233.735 62.5307 233.789C62.4431 234.029 62.3457 234.174 62.3457 234.32C62.3399 249.635 62.3399 264.949 62.3457 280.265C62.3457 280.466 62.4353 280.667 62.4859 280.882C63.5275 281.212 64.573 281.006 65.5971 281.068C66.6193 281.13 67.655 281.008 68.7784 281.179C68.8388 282.163 68.8972 283.088 68.9556 284.054C70.0206 284.384 71.0602 284.204 72.0785 284.235C73.1084 284.269 74.1403 284.264 75.1956 284.277C75.6531 285.239 75.2364 286.223 75.5519 287.169C76.4591 287.69 77.5669 287.152 78.6183 287.585C78.6767 288.494 78.7351 289.417 78.7994 290.439C80.9079 290.737 82.9834 290.39 85.0043 290.642C85.3236 291.728 85.382 294.721 85.127 296.667C84.2158 297.168 83.0963 296.591 82.0644 297.106C82.0391 297.545 82.0099 298.008 81.9846 298.472C81.9593 298.935 81.934 299.398 81.9086 299.874C81.601 299.936 81.3908 300.015 81.1805 300.015C75.1157 300.019 69.051 300.015 62.9862 300.004C62.8344 300.004 62.6825 299.917 62.4567 299.848C62.1315 298.965 62.4839 297.99 62.2016 297.056C61.6273 296.761 61.0159 296.877 60.4338 296.876C55.1887 296.864 49.9436 296.87 44.6986 296.868C44.1067 296.868 43.5129 296.844 42.8937 296.831C42.4187 295.863 42.8217 294.882 42.5219 293.881C42.2065 293.83 41.8482 293.725 41.488 293.721C39.7397 293.702 37.9913 293.727 36.243 293.706C34.8859 293.689 33.5231 293.834 32.1836 293.43C31.5294 293.234 30.6163 293.689 30.1802 293.085C29.8511 292.628 29.9504 291.887 29.8472 291.274C29.7752 290.848 29.5474 290.629 29.086 290.589C28.6518 290.552 28.2137 290.557 27.7757 290.557C23.5683 290.556 19.361 290.557 15.1536 290.554C14.5637 290.554 13.9718 290.52 13.3215 290.499C12.973 289.513 13.2826 288.543 13.0392 287.585C12.0813 287.152 10.9813 287.636 10.0545 287.24C9.77613 285.809 9.79755 279.264 10.0935 278.007C11.0261 277.955 11.9898 277.9 13.0042 277.842C13.3449 275.792 12.938 273.788 13.2592 271.819C14.2269 271.393 15.2548 271.792 16.2692 271.472C16.3179 271.173 16.3977 270.879 16.4113 270.579C16.4347 270.054 16.4211 269.527 16.4211 269C16.4211 248.526 16.4211 228.055 16.4211 207.581C16.4211 206.904 16.4425 206.229 16.4522 205.563C17.4919 204.999 18.6094 205.567 19.5751 205.092C19.7932 204.201 19.6958 203.314 19.6394 202.461C19.2831 202.045 18.8217 202.142 18.4011 202.14C16.1602 202.129 13.9212 202.14 11.6802 202.131C11.1448 202.129 10.6114 202.082 10.037 202.056C9.67684 201.071 10.0234 200.098 9.74498 199.136C8.8085 198.778 7.79025 199.145 6.90633 198.881C6.46437 198.517 6.59287 198.067 6.59092 197.666C6.57924 194.508 6.58508 191.349 6.58508 188.193C6.58508 183.983 6.58508 179.773 6.58703 175.562C6.58703 174.994 6.61624 174.426 6.62986 173.876C7.60723 173.289 8.68 173.813 9.67684 173.336C9.73719 171.95 9.84233 170.544 9.85401 169.135C9.88127 165.977 9.85791 162.819 9.86764 159.663C9.86764 159.147 9.75277 158.609 10.1091 158.011C11.0066 157.956 11.9684 157.896 12.9769 157.834C13.2943 156.42 13.0957 155.057 13.1327 153.707C13.1697 152.34 13.1502 150.971 13.1385 149.601C13.1249 148.244 13.1989 146.88 13.0879 145.554C11.8652 145.224 11.6413 145.217 10.0468 145.446C9.9903 145.704 9.87543 145.993 9.86959 146.286C9.84622 147.443 9.85791 148.602 9.85791 149.759C9.85791 150.28 9.85791 150.8 9.85791 151.407C9.40621 151.484 9.05382 151.569 8.69558 151.601C8.05308 151.657 7.39112 151.516 6.65712 151.794C6.6065 152.722 6.55588 153.65 6.50137 154.629C5.34877 154.734 4.276 154.83 3.20323 154.928L3.23828 154.961L3.23244 154.944ZM42.5433 280.884C42.5764 280.505 42.6328 280.145 42.6367 279.785C42.6484 278.523 42.6367 277.261 42.6445 275.997C42.6679 271.948 42.6913 267.897 42.7263 263.848C42.7302 263.34 42.6134 262.798 43.0183 262.282C43.91 262.224 44.8173 262.164 45.7538 262.102C46.0536 260.975 45.8842 259.925 45.9154 258.888C45.9446 257.888 45.9251 256.889 45.9212 255.889C45.9154 254.837 45.9699 253.779 45.8726 252.735C45.7772 251.707 46.042 250.642 45.635 249.674C44.7219 249.297 43.7192 249.734 42.8723 249.214C42.8334 248.973 42.7769 248.77 42.7711 248.566C42.7224 246.988 42.6562 245.413 42.6484 243.836C42.6309 240.26 42.6445 236.681 42.6445 233.105C42.6445 230.581 42.6387 228.054 42.6504 225.53C42.6504 225.129 42.5277 224.681 42.9872 224.309C43.8555 224.043 44.8796 224.441 45.8356 224.006C46.0108 222.468 45.8998 220.945 45.9193 219.426C45.9388 217.849 45.9232 216.27 45.9232 214.692C45.9232 213.115 45.9485 211.641 45.9154 210.116C45.8823 208.556 46.0673 206.985 45.7811 205.375C44.7511 205.25 43.7952 205.184 42.7224 205.45C42.6679 206.384 42.6153 207.311 42.555 208.339C42.0079 208.372 41.527 208.393 41.05 208.432C40.5262 208.475 39.9558 208.284 39.4184 208.761C39.4009 209.222 39.3639 209.741 39.362 210.259C39.3561 213.363 39.3639 216.467 39.3522 219.57C39.3522 220.028 39.4768 220.517 39.1128 220.964C38.2191 221.316 37.1794 220.855 36.1631 221.348C36.1456 221.896 36.1145 222.464 36.1125 223.034C36.0989 230.976 36.0891 238.92 36.0794 246.863C36.0794 247.442 36.095 248.022 36.0677 248.597C36.0541 248.896 35.9587 249.188 35.9139 249.417C34.9638 249.884 33.9514 249.355 33.0908 249.91C32.9935 251.114 32.8202 252.315 32.8144 253.515C32.7852 259.195 32.8008 264.878 32.8105 270.558C32.8105 270.855 32.8962 271.151 32.9507 271.502C34.0001 271.567 34.958 271.627 35.9782 271.691C36.243 273.75 35.9061 275.747 36.1826 277.703C37.2086 278.161 38.3145 277.647 39.214 278.086C39.5586 279.061 39.1205 280.046 39.5917 281.03C40.571 281.01 41.5328 281.222 42.5394 280.884H42.5433ZM117.814 132.83C118.116 133.859 117.779 134.784 118.153 135.656C118.404 135.705 118.613 135.78 118.821 135.782C122.699 135.787 126.579 135.787 130.458 135.776C130.654 135.776 130.853 135.664 131.018 135.611C131.266 133.829 131.219 130.688 130.923 129.561C129.983 129.503 129.021 129.441 127.968 129.375C127.911 128.353 127.862 127.431 127.812 126.515C126.764 126.075 125.659 126.596 124.611 126.028C124.611 125.582 124.631 125.113 124.605 124.646C124.58 124.19 124.738 123.699 124.377 123.303C123.349 123.168 110.609 123.063 108.981 123.185C108.777 123.2 108.576 123.288 108.329 123.354C108.002 125.349 108.422 127.352 108.068 129.394C107.53 129.424 107.05 129.45 106.567 129.479C106.086 129.505 105.605 129.533 105.153 129.557C104.863 130.849 104.851 134.246 105.126 135.669C106.103 135.851 107.096 135.915 108.054 135.628C108.44 134.658 107.939 133.661 108.481 132.685C111.557 132.588 114.649 132.616 117.812 132.83H117.814ZM29.3663 66.278C29.6116 64.5883 29.5805 61.3308 29.3196 60.1061C28.7141 59.9355 28.0599 60.0386 27.4194 59.9899C27.0573 59.9617 26.701 59.8717 26.2512 59.7929C26.2512 58.7165 26.2824 57.7206 26.2434 56.7267C26.2045 55.7496 26.4303 54.7463 26.0078 53.6886C25.5075 53.6886 25.0207 53.6717 24.536 53.6942C24.0609 53.7148 23.5508 53.576 23.029 54.0149C23.0115 54.4443 22.9726 54.9601 22.9706 55.4777C22.9609 57.6325 22.9706 59.7873 22.955 61.944C22.9531 62.2966 22.8733 62.6492 22.8226 63.0655C21.7927 63.1293 20.8329 63.1893 19.9042 63.2455C19.6199 64.5696 19.616 67.9809 19.8964 69.3799C20.8737 69.5712 21.9056 69.4887 22.9258 69.4699C23.9947 69.4512 25.085 69.6387 26.1149 69.3199C26.5121 68.3635 26.0078 67.3601 26.5316 66.4412C26.9735 66.4131 27.4019 66.3831 27.8321 66.3587C28.315 66.3305 28.7959 66.308 29.3683 66.278H29.3663ZM22.9862 138.809C24.1407 138.998 25.0947 139.011 26.1149 138.814C26.1617 138.477 26.2376 138.175 26.2376 137.871C26.2473 133.301 26.2493 128.73 26.2395 124.16C26.2395 123.864 26.1325 123.565 26.0721 123.25C25.0363 123.17 24.0765 123.031 22.9726 123.399C22.9726 128.488 22.955 133.569 22.9881 138.807L22.9862 138.809ZM19.7698 85.1444C20.901 85.2926 21.8531 85.347 22.9492 85.0807C22.8577 84.1111 23.2042 83.1434 22.7214 82.1888C21.7187 82.1326 20.7608 81.9881 19.7679 82.3088V85.1444H19.7698ZM13.1911 117.003C13.1619 117.956 12.9905 118.911 13.3021 119.905C14.3495 120.03 15.3074 120.1 16.2887 119.845C16.4853 118.881 16.4366 117.958 16.3315 116.942C15.2763 116.816 14.3223 116.777 13.1891 117.002L13.1911 117.003Z" fill="#CC7722"/>
<path d="M3.19693 154.909C3.36048 155.839 3.33711 156.766 3.18525 157.729C2.20788 158.015 1.25583 157.91 0.220049 157.812C-0.097304 156.833 -0.0330546 155.884 0.171375 154.89C1.22857 154.699 2.23125 154.611 3.23198 154.943L3.19888 154.909H3.19693Z" fill="#CC7722"/>
</g>
<defs>
<clipPath id="clip0_163_171">
<rect width="141" height="300" fill="white"/>
</clipPath>
</defs>
</svg>
