<svg width="315" height="426" viewBox="0 0 315 426" fill="none" xmlns="http://www.w3.org/2000/svg">
<path d="M29.1292 414.323H23.7385C23.337 413.181 23.2479 405.052 23.5794 403.221C25.3257 402.719 27.2121 403.347 29.1759 402.789C29.338 399.087 29.1526 395.363 29.2913 391.461C31.2303 391.386 33.0831 391.315 35.0002 391.242V385.369C34.0862 384.881 33.1488 385.137 32.2494 385.097C31.3354 385.058 30.417 385.089 29.5497 385.089C29.1861 383.974 29.0766 364.298 29.3774 362.42C30.3688 362.079 44.3814 361.985 46.2196 362.34C46.262 362.806 46.335 363.318 46.3481 363.832C46.3729 364.855 46.3685 365.877 46.37 366.899C46.37 367.623 46.7394 367.966 47.4505 367.971C47.7425 367.972 48.0345 367.987 48.3265 367.987C51.0525 367.99 53.7785 367.998 56.5031 367.987C57.074 367.984 57.6449 367.902 58.4129 367.841V362.302C59.1707 362.247 59.7328 362.169 60.2964 362.168C64.8227 362.153 69.349 362.158 73.8753 362.142C74.4944 362.14 75.1134 362.06 75.9019 362.004V356.426C76.5779 356.366 77.0904 356.283 77.6014 356.282C80.3274 356.279 83.052 356.308 85.778 356.302C86.346 356.302 86.9125 356.201 87.6119 356.134V350.638C88.2923 350.572 88.8471 350.475 89.4019 350.472C93.296 350.457 97.1901 350.469 101.083 350.459C103.807 350.451 106.533 350.426 109.258 350.394C109.734 350.388 110.21 350.311 110.867 350.251C110.921 348.407 110.972 346.64 111.029 344.742C111.752 344.695 112.365 344.622 112.978 344.622C119.403 344.616 125.827 344.628 132.251 344.619C132.911 344.619 133.571 344.521 134.371 344.457V342.575C134.374 336.198 134.379 329.822 134.382 323.446C134.382 323.106 134.37 322.764 134.386 322.424C134.431 321.447 134.523 321.332 135.484 321.298C136.456 321.265 137.43 321.303 138.404 321.279C138.927 321.266 139.448 321.192 140.096 321.133C140.33 318.19 140.177 315.333 140.204 312.485C140.232 309.564 140.212 306.644 140.212 303.723V286.325C142.193 286.248 144.05 286.175 145.973 286.099V268.42C144.154 268.041 142.298 268.444 140.355 268.156C140.004 266.348 140.387 264.494 140.099 262.566C138.277 262.204 136.421 262.607 134.412 262.276C134.306 258.507 134.43 254.738 134.341 250.79H128.624V239.543C130.518 239.504 132.333 239.465 134.271 239.424C134.51 235.522 134.26 231.793 134.424 228.021C136.302 227.484 138.188 228.113 140.113 227.564C140.145 227.053 140.203 226.539 140.207 226.023C140.225 223.347 140.228 220.669 140.235 217.992C140.24 216.782 140.867 216.174 142.12 216.17C142.948 216.167 143.776 216.186 144.602 216.161C145.922 216.123 146.019 216.017 146.052 214.746C146.058 214.552 146.054 214.356 146.054 214.162V186.665C144.091 186.28 142.235 186.683 140.231 186.357V174.859C138.219 174.82 136.401 174.785 134.487 174.747C134.442 174.198 134.382 173.777 134.376 173.355C134.344 170.581 134.323 167.808 134.298 165.034C134.282 163.216 134.268 163.204 132.389 163.19C129.614 163.168 126.842 163.144 124.068 163.114C123.688 163.109 123.308 163.06 122.72 163.016V157.336C120.699 157.293 118.881 157.257 116.898 157.216V151.575C116.233 151.52 115.725 151.441 115.215 151.439C112.441 151.431 109.667 151.442 106.892 151.447H105.188V145.774C103.261 145.366 101.405 145.774 99.4547 145.483C99.1408 143.676 99.4795 141.825 99.2561 140.054C98.164 139.692 83.893 139.575 81.6109 139.904C81.0414 141.636 81.6357 143.516 81.2035 145.511C79.3667 145.677 77.4861 145.564 75.6143 145.585C73.7702 145.606 71.9275 145.59 69.99 145.59C69.3578 147.495 69.9666 149.429 69.5096 151.432H58.1194C58.0522 153.437 57.9909 155.255 57.9237 157.255H52.2673C52.2031 159.256 52.1447 161.075 52.0804 163.083H46.5992C46.0181 165.048 46.6065 166.931 46.1306 168.911H40.7501C40.1807 170.875 40.734 172.752 40.3515 174.528C39.2856 174.864 25.1694 174.932 23.4158 174.579C23.3998 172.815 23.3837 170.999 23.3662 168.973C21.3192 168.968 19.4385 168.96 17.5579 168.957C15.6759 168.954 13.7924 168.957 11.7453 168.957V163.293C9.79462 162.905 7.9403 163.285 5.97209 163.014C5.72387 159.221 6.00567 155.446 5.79688 151.563C3.90897 151.274 2.06195 151.571 0.169668 151.358C0.115645 150.899 0.0324191 150.528 0.0324191 150.156C0.0353393 143.439 0.0440999 136.722 0.0616211 130.005C0.0645412 128.657 0.140466 128.587 1.44287 128.565C2.46494 128.548 3.48847 128.581 4.50907 128.549C5.74139 128.51 5.84652 128.403 5.86404 127.19C5.88448 125.785 5.86842 124.38 5.86842 122.765C7.83809 122.691 9.69387 122.621 11.6679 122.545V116.97C12.3381 116.904 12.8929 116.805 13.4478 116.802C16.1241 116.79 18.8019 116.814 21.4783 116.803C22.0463 116.802 22.6157 116.716 23.3633 116.653V111.093C24.0568 111.04 24.5722 110.967 25.0891 110.966C27.7655 110.958 30.4433 110.977 33.1196 110.969C33.6905 110.967 34.2629 110.887 35.0148 110.83C35.1287 108.819 35.0806 106.905 35.0397 104.824C34.3242 104.779 33.7154 104.707 33.105 104.707C24.6847 104.7 16.2643 104.704 7.84393 104.704H5.97209C5.79396 102.894 5.85528 101.226 5.93266 99.3468C7.84247 99.3001 9.65737 99.2563 11.6373 99.2066C11.7482 97.1171 11.7234 95.2057 11.6519 93.0855C9.61649 92.9701 7.70084 93.0271 5.71073 93.0534C5.11793 94.937 5.71511 96.8207 5.26832 98.7306H0.274795C-0.0216044 97.6574 -0.10775 89.9738 0.163828 87.7689C0.727425 87.7193 1.33044 87.6229 1.93492 87.6214C10.3071 87.6097 18.6778 87.6141 27.05 87.6039C27.7158 87.6039 28.3816 87.5221 29.1394 87.4725V75.5208H23.4217C23.4012 71.5461 23.3808 67.7832 23.3604 63.8596H17.7259C17.3419 61.9088 17.7288 60.0543 17.4324 58.0656C13.6551 57.8392 9.88222 58.0831 6.1619 57.9283C5.80564 56.8025 5.74431 48.4969 6.07721 46.8439C7.70814 46.6351 9.37119 46.6673 11.246 46.8498C11.2576 47.9975 11.2693 49.0518 11.281 50.1046C11.2854 50.4944 11.2693 50.8843 11.2941 51.2727C11.3628 52.3445 11.5132 52.5329 12.6243 52.5445C15.3985 52.5767 18.1726 52.5592 20.9468 52.5621H22.8114C22.8727 53.2381 22.9472 53.7507 22.9603 54.2661C22.9837 55.1904 22.9457 56.1162 22.9764 57.0405C23.0158 58.2043 23.1735 58.3547 24.3737 58.3926C25.2979 58.4218 26.2236 58.3897 27.1479 58.4072C27.6209 58.416 28.0925 58.4744 28.6751 58.5197C28.7218 59.0935 28.7832 59.5637 28.7934 60.0339C28.8124 61.0064 28.7759 61.9818 28.8138 62.9543C28.8562 64.029 29.0401 64.2145 30.125 64.2539C31.2434 64.2948 32.3648 64.2466 33.4832 64.2831C34.4571 64.3137 34.5783 64.432 34.6104 65.3928C34.6484 66.5595 34.5973 67.7306 34.6454 68.8973C34.6834 69.8187 34.882 70.0582 35.7785 70.0596C39.0871 70.0655 42.3956 70.0202 45.7042 69.9735C45.9772 69.9691 46.2488 69.8143 46.7102 69.6712V64.378C47.4213 64.3254 47.9382 64.2568 48.4565 64.2553C51.1328 64.2437 53.8107 64.2568 56.487 64.2437C57.0579 64.2407 57.6288 64.1604 58.264 64.1108C58.648 62.2505 58.2406 60.4442 58.5399 58.5226C59.1006 58.4744 59.6598 58.3868 60.2205 58.3868C64.795 58.3839 69.3709 58.4029 73.9454 58.3985C74.5615 58.3985 75.1777 58.3021 75.9282 58.2393V52.9695C77.0393 52.5051 84.9019 52.3781 87.0643 52.7636C87.1081 53.1797 87.2001 53.6426 87.2001 54.107C87.203 56.8813 87.1957 59.6557 87.1695 62.4301C87.1578 63.7355 87.0862 63.7954 85.724 63.8027C82.9498 63.8173 80.1756 63.8173 77.4014 63.8217H75.7179C75.6435 64.4539 75.55 64.9241 75.5398 65.3943C75.5164 66.4646 75.5135 67.5364 75.5398 68.6067C75.5719 69.8859 75.7223 70.0377 76.9736 70.0771C77.8482 70.1049 78.7257 70.0771 79.6018 70.0903C80.0836 70.0976 80.5654 70.1341 81.2123 70.1648C81.2692 70.781 81.3612 71.3388 81.3641 71.8966C81.3802 74.6227 81.3612 77.3475 81.3773 80.0737C81.386 81.6288 81.5116 81.747 83.0272 81.7704C84.0492 81.785 85.0713 81.7894 86.0934 81.7631C86.5635 81.7514 87.0322 81.6551 87.6367 81.5806V76.1019C88.3317 76.0421 88.8895 75.988 89.4487 75.9457C91.1862 75.8143 92.9222 75.6726 94.6597 75.5631C95.3898 75.5178 95.7417 75.1455 95.7008 74.449C95.6584 73.7291 95.5942 73.0019 95.438 72.2996C95.2306 71.3665 95.3226 71.073 96.1972 70.9971C96.9798 70.9284 97.6354 70.7678 98.3333 70.3035C98.8619 69.9516 99.7453 70.083 100.471 70.0815C107.139 70.0728 113.807 70.0859 120.474 70.0815C121.143 70.0815 121.81 70.0071 122.491 69.9676C122.889 68.6578 122.673 67.44 122.698 66.2441C122.739 64.3079 122.711 64.3137 124.618 64.2991C125.688 64.2904 126.757 64.2685 127.827 64.229C128.005 64.2217 128.179 64.0889 128.525 63.9399V58.527C129.264 58.4788 129.831 58.4087 130.396 58.4087C134.922 58.4014 139.448 58.4116 143.974 58.4014C144.594 58.4014 145.213 58.3182 146.022 58.2612V52.7285C147.88 52.4774 149.542 52.5285 151.414 52.6906C151.514 56.3673 151.434 59.9419 151.453 63.7151C149.457 63.9166 147.577 63.7895 145.708 63.8144C143.863 63.8377 142.019 63.8202 140.086 63.8202C139.403 65.7185 140.11 67.662 139.555 69.6683H128.306C127.995 71.6454 128.078 73.4341 128.22 75.2156C128.238 75.4448 128.624 75.7529 128.896 75.8303C129.305 75.9471 129.762 75.9106 130.2 75.9106C136.722 75.9209 143.244 75.9325 149.765 75.9282C150.425 75.9282 151.087 75.8303 151.875 75.769V70.3108C153.816 69.7647 155.755 70.3984 157.704 69.8508V64.4203C158.34 64.3561 158.847 64.2641 159.355 64.2612C162.081 64.2451 164.806 64.2612 167.532 64.2422C168.1 64.2393 168.668 64.1429 169.42 64.0728V58.5211C170.223 58.4773 170.839 58.4131 171.453 58.4131C177.83 58.4058 184.206 58.4131 190.582 58.4029C191.248 58.4029 191.914 58.3225 192.673 58.2729V52.2058C190.784 52.162 188.967 52.1196 187.049 52.0758V46.8804C187.65 46.8293 188.255 46.7344 188.861 46.733C195.333 46.7227 201.807 46.73 208.28 46.7198C208.895 46.7198 209.511 46.6264 210.264 46.5636V41.1302C212.208 40.5768 214.144 41.193 216.141 40.6512V35.3522C217.407 34.993 231.113 34.9097 233.033 35.2164C233.091 35.5376 233.207 35.9012 233.217 36.2677C233.246 37.2899 233.214 38.312 233.237 39.3341C233.268 40.7038 233.408 40.8469 234.746 40.8819C235.622 40.9053 236.498 40.879 237.374 40.8936C237.85 40.9009 238.326 40.9491 238.821 40.9798C239.259 42.1523 239.04 43.2781 239.059 44.3747C239.1 46.7213 239.075 46.73 241.394 46.7227C242.642 46.7198 243.89 46.6819 245.324 46.6556V41.0061C246.072 40.9564 246.637 40.8863 247.202 40.8849C251.728 40.879 256.254 40.8907 260.781 40.8834C261.4 40.8834 262.019 40.8031 262.826 40.7476V35.2879C264.79 34.7287 266.674 35.3493 268.655 34.8017C268.671 33.9139 268.694 33.01 268.703 32.1076C268.712 31.2403 268.705 30.3729 268.705 29.3172C270.692 29.2398 272.546 29.1668 274.532 29.0894V23.5231C275.167 23.4618 275.677 23.3727 276.186 23.3698C278.912 23.3552 281.638 23.3698 284.363 23.3537C284.931 23.3508 285.497 23.2515 286.198 23.1829V17.7568C288.137 17.1961 290.077 17.8502 292.057 17.2749V11.7276C294.047 11.6794 295.867 11.6342 297.88 11.586V5.90874C299.888 5.86348 301.704 5.82259 303.725 5.77586V0.196447C305.454 -0.105814 306.997 0.00808181 308.532 0.0971539C308.727 0.108835 308.977 0.43738 309.069 0.672472C309.17 0.929467 309.13 1.24779 309.13 1.53837C309.14 6.211 309.149 10.8836 309.151 15.5563C309.151 15.9856 309.095 16.4149 309.053 17.0369H303.541C303.452 17.6794 303.345 18.1423 303.331 18.6066C303.302 19.5791 303.331 20.5531 303.315 21.527C303.291 22.9872 303.212 23.0602 301.704 23.0894C301.022 23.1026 300.342 23.0894 299.66 23.0938C297.855 23.1084 297.82 23.1435 297.809 25.0125C297.803 25.8404 297.826 26.6684 297.798 27.4949C297.759 28.6528 297.669 28.7433 296.531 28.7667C295.509 28.7871 294.487 28.7725 293.465 28.7725H291.93C291.821 29.231 291.669 29.5902 291.66 29.9524C291.63 31.2169 291.618 32.4843 291.654 33.7489C291.686 34.828 291.865 35.0076 292.97 35.0266C294.818 35.0601 296.668 35.0412 298.518 35.0412C301.438 35.0412 304.359 35.0397 307.279 35.0382H309.005C309.065 35.7085 309.149 36.221 309.151 36.735C309.164 39.5094 309.143 42.2837 309.159 45.0581C309.168 46.584 309.3 46.6935 310.847 46.7213C312.147 46.7446 313.446 46.7592 314.692 46.7768C315.09 48.1537 315.108 56.471 314.712 57.9721H309.256C309.021 61.9161 309.265 65.6951 309.091 69.6624H303.462C303.388 71.679 303.32 73.494 303.246 75.4872H297.575C297.514 77.4833 297.458 79.3041 297.395 81.328C291.615 81.3776 285.945 81.3104 280.217 81.3616C279.633 83.2657 280.228 85.1479 279.762 87.1439C277.902 87.1571 276.023 87.1746 274.143 87.1819C272.197 87.1877 270.249 87.1819 268.303 87.1834C266.405 87.1834 264.507 87.1834 262.609 87.1848H256.857C256.755 87.6798 256.624 88.0463 256.615 88.4143C256.586 89.6307 256.577 90.8485 256.606 92.0648C256.635 93.2519 256.793 93.4257 257.977 93.4374C260.751 93.4651 263.526 93.4462 266.3 93.4564C266.872 93.4578 267.445 93.506 268.033 93.5338C268.483 94.6143 268.271 95.6452 268.283 96.6454C268.313 99.4023 268.169 99.2709 270.924 99.2738C277.105 99.2796 283.287 99.2884 289.467 99.2957H291.272C291.714 100.524 291.784 108.675 291.43 110.3C290.342 110.624 270.287 110.666 268.74 110.307V104.847C268.021 104.795 267.464 104.717 266.904 104.717C262.28 104.707 257.656 104.71 253.033 104.71H251.236V99.0475C249.23 98.6649 247.376 99.0475 245.418 98.7452C245.375 98.2721 245.305 97.8078 245.296 97.3434C245.274 96.2731 245.283 95.2013 245.276 94.131C245.273 93.598 245.14 93.1249 244.496 93.1176C242.804 93.0986 241.112 93.1118 239.228 93.1118C239.181 94.2697 239.111 95.2714 239.108 96.2731C239.098 99.2723 239.202 98.8445 236.502 98.8533C230.272 98.8722 224.042 98.8649 217.813 98.8693H215.91C215.833 99.5804 215.713 100.182 215.71 100.784C215.684 105.31 215.68 109.837 215.668 114.363V116.193C213.776 116.609 211.962 116.181 210.105 116.492C209.54 118.294 210.134 120.177 209.725 121.999C208.842 122.433 207.908 122.187 207.005 122.227C206.138 122.265 205.266 122.235 204.209 122.235C204.141 123.002 204.034 123.653 204.033 124.305C204.018 130.778 204.024 137.252 204.019 143.727C204.019 145.723 204.012 145.708 202.005 145.768C201.277 145.79 200.549 145.872 199.828 145.971C198.643 146.136 198.591 146.219 198.54 147.463C198.421 150.371 198.302 153.278 198.173 156.184C198.16 156.468 198.09 156.75 198.032 157.134C197.643 157.184 197.272 157.27 196.901 157.274C192.133 157.323 187.366 157.377 182.597 157.393C180.604 157.4 178.609 157.32 176.616 157.283C176.137 157.274 175.659 157.283 175.044 157.283C174.958 157.863 174.845 158.323 174.832 158.786C174.801 159.806 174.81 160.83 174.823 161.852C174.845 163.407 174.961 163.525 176.475 163.549C177.497 163.565 178.519 163.546 179.541 163.563C179.824 163.568 180.105 163.648 180.359 163.689C180.729 164.824 180.798 225.636 180.404 227.346H175.028C174.946 227.999 174.85 228.468 174.838 228.939C174.812 229.912 174.82 230.886 174.831 231.86C174.85 233.514 174.947 233.615 176.549 233.637C177.327 233.649 178.107 233.631 178.885 233.643C179.367 233.65 179.848 233.685 180.44 233.713C180.518 234.133 180.632 234.495 180.643 234.862C180.673 235.786 180.649 236.712 180.658 237.636C180.675 239.375 180.764 239.476 182.455 239.486C184.645 239.5 186.836 239.491 189.026 239.491H192.035C192.537 240.643 192.314 241.674 192.326 242.674C192.359 245.432 192.197 245.336 194.942 245.329C197.376 245.323 199.809 245.308 202.243 245.311C202.764 245.311 203.284 245.375 204.008 245.424C204.018 246.583 204.03 247.637 204.038 248.691C204.041 249.032 204.031 249.373 204.044 249.714C204.092 250.984 204.224 251.148 205.493 251.164C208.121 251.197 210.749 251.193 213.377 251.204C213.767 251.206 214.157 251.19 214.545 251.213C215.507 251.27 215.627 251.371 215.658 252.341C215.694 253.459 215.646 254.58 215.687 255.699C215.726 256.769 215.918 256.965 217.003 256.994C218.407 257.032 219.815 257.003 221.317 257.003C221.408 257.502 221.522 257.866 221.532 258.232C221.56 259.255 221.529 260.277 221.552 261.299C221.583 262.67 221.722 262.812 223.059 262.848C223.935 262.871 224.811 262.845 225.687 262.86C226.163 262.869 226.638 262.915 227.134 262.946C227.571 264.118 227.352 265.244 227.371 266.341C227.412 268.687 227.387 268.687 229.705 268.692C232.188 268.696 234.67 268.699 237.152 268.702H238.892C238.954 269.404 239.03 269.962 239.046 270.523C239.07 271.399 239.031 272.277 239.063 273.151C239.107 274.327 239.268 274.508 240.446 274.525C242.928 274.56 245.41 274.544 247.892 274.559C248.754 274.563 249.615 274.595 250.604 274.617C250.651 275.381 250.713 275.996 250.722 276.61C250.78 280.946 250.199 280.325 254.562 280.382C255.136 280.389 255.71 280.382 256.428 280.382C256.488 281.061 256.558 281.574 256.573 282.088C256.596 282.866 256.573 283.646 256.581 284.424C256.603 286.109 256.698 286.2 258.442 286.217C259.269 286.226 260.097 286.207 260.924 286.226C261.349 286.236 261.771 286.303 262.153 286.341C262.474 287.536 262.563 353.804 262.251 355.749C260.54 356.086 258.735 355.721 256.821 355.984C256.746 356.493 256.606 356.997 256.606 357.503C256.606 368.844 256.621 380.185 256.633 391.525C256.634 392.937 256.618 394.349 256.656 395.76C256.688 396.951 256.837 397.107 258.036 397.126C260.76 397.17 263.486 397.172 266.211 397.189C266.789 397.194 267.367 397.189 268.045 397.189C268.135 397.68 268.249 398.045 268.261 398.411C268.29 399.384 268.264 400.358 268.278 401.332C268.302 402.893 268.413 403.01 269.924 403.037C270.75 403.053 271.578 403.031 272.406 403.046C272.882 403.055 273.358 403.1 273.849 403.131C274.297 404.201 274.082 405.232 274.094 406.232C274.124 408.991 273.974 408.884 276.718 408.88C277.686 408.878 278.652 408.88 279.756 408.88C279.833 409.415 279.933 409.827 279.944 410.242C279.971 411.166 279.944 412.092 279.959 413.016C279.984 414.569 280.096 414.697 281.615 414.71C283.805 414.731 285.995 414.722 288.185 414.725C289.013 414.725 289.841 414.742 290.667 414.713C291.088 414.698 291.505 414.595 292.052 414.513V408.991C294.037 408.913 295.895 408.84 297.882 408.763V403.429C299.025 402.97 301.341 402.902 303.174 403.252C303.218 403.816 303.29 404.425 303.309 405.035C303.334 405.911 303.29 406.789 303.332 407.663C303.379 408.663 303.557 408.85 304.562 408.89C305.728 408.935 306.898 408.922 308.066 408.91C308.794 408.903 309.126 409.22 309.126 409.96C309.123 415.071 309.135 420.18 309.136 425.291C309.136 425.431 309.069 425.571 309 425.838C308.672 425.884 308.305 425.98 307.937 425.98C295.331 425.976 282.726 425.964 270.119 425.945C268.82 425.943 268.745 425.853 268.732 424.51C268.719 423.153 268.729 421.795 268.729 420.494C267.595 420.076 252.738 419.974 250.842 420.36C250.782 422.127 250.719 423.944 250.659 425.72C249.49 426.025 235.87 426.108 233.772 425.831C233.735 425.313 233.661 424.755 233.661 424.199C233.654 413.149 233.655 402.1 233.655 391.051V356.055C231.731 355.673 229.876 356.06 228.101 355.798C227.761 354.76 227.653 323.343 227.994 321.344C229.805 321.278 231.661 321.209 233.579 321.139V303.481C231.728 303.087 229.87 303.503 227.857 303.18V297.506H222.014C221.984 295.482 221.958 293.667 221.929 291.684H204.585C204.295 289.72 204.585 287.873 204.37 285.884C202.45 285.694 200.568 285.814 198.694 285.794C196.748 285.772 194.8 285.789 192.854 285.791H186.968V280.035C184.843 279.886 182.925 279.959 180.833 279.978C180.769 280.736 180.667 281.391 180.665 282.047C180.654 290.37 180.656 298.693 180.655 307.018V309.018C178.744 309.313 176.942 309.027 175.029 309.236C174.956 309.83 174.835 310.386 174.831 310.944C174.81 313.621 174.82 316.299 174.82 318.975V320.637C172.924 321.072 171.113 320.652 169.189 320.951C169.119 321.496 168.989 322.047 168.984 322.601C168.963 325.327 168.979 328.052 168.97 330.778C168.968 331.296 168.907 331.815 168.863 332.482H163.629C162.997 333.193 163.148 333.901 163.147 334.558C163.134 342.931 163.138 351.303 163.129 359.675C163.129 360.292 163.07 360.909 163.029 361.714H157.404C157.336 363.719 157.274 365.537 157.206 367.549C156.179 367.556 155.271 367.565 154.363 367.568C153.496 367.571 152.63 367.568 151.552 367.568C151.491 369.542 151.436 371.361 151.374 373.318C150.694 373.352 150.127 373.404 149.561 373.404C139.194 373.41 128.826 373.408 118.459 373.41C117.062 373.41 116.361 374.106 116.355 375.498C116.352 376.374 116.377 377.252 116.344 378.126C116.307 379.07 116.18 379.201 115.202 379.216C113.158 379.248 111.114 379.248 109.069 379.248C94.7108 379.251 80.3537 379.248 65.9952 379.248H63.9408C63.878 381.238 63.8211 383.057 63.7568 385.062H58.1063C58.0449 387.061 57.988 388.881 57.9267 390.887H52.4338C51.8439 392.847 52.4177 394.727 52.0089 396.551C51.1109 396.951 50.1779 396.725 49.2741 396.763C48.4068 396.799 47.5366 396.77 46.5511 396.77C46.462 397.312 46.3394 397.725 46.3364 398.14C46.3058 401.157 46.2839 404.175 46.2882 407.193C46.2912 408.715 46.4518 408.855 47.9659 408.877C48.988 408.891 50.01 408.896 51.0321 408.869C51.5037 408.858 51.9739 408.764 52.574 408.693V403.429C53.6895 402.983 61.6572 402.858 63.7335 403.233C63.7729 403.892 63.8313 404.597 63.8517 405.304C63.8766 406.13 63.8707 406.958 63.8722 407.786C63.8736 408.504 64.2328 408.861 64.9483 408.864C66.0682 408.869 67.1866 408.866 68.3065 408.89C68.6847 408.897 69.0599 408.974 69.5505 409.034C69.7651 410.762 69.7359 412.425 69.5636 414.288H52.2761C52.2089 416.296 52.1476 418.114 52.0848 420.031H46.9015C46.5335 418.239 46.9336 416.385 46.6708 414.608C45.6181 414.231 37.3627 414.11 34.898 414.437C34.2687 416.192 34.974 418.136 34.4469 420.036H29.3657C29.0372 418.234 29.3891 416.391 29.1204 414.326L29.1292 414.323Z" fill="#253F19"/>
</svg>
