<svg width="553" height="337" viewBox="0 0 553 337" fill="none" xmlns="http://www.w3.org/2000/svg">
<g clip-path="url(#clip0_164_178)">
<path d="M414.91 125.344C416.212 133.875 417.354 142.423 418.838 150.937C423.329 176.741 430.169 202.208 440.746 227.101C451.038 251.301 464.527 274.469 483.745 295.744C485.379 297.55 485.149 298.548 483.086 300.05C471.954 308.174 460.051 315.547 445.674 320.54C421.163 329.054 397.7 327.231 375.506 316.292C369.531 313.345 364.112 309.791 358.676 306.316C357.256 305.41 356.201 303.805 355.931 302.418C348.449 263.88 346.917 225.169 349.861 186.345C350.083 183.415 349.893 180.468 349.48 177.481C348.369 184.441 347.115 191.39 346.163 198.367C341.26 234.182 340.53 270.071 342.894 306.001C343.029 308.088 342.307 309.005 339.387 309.521C327.85 311.539 316.392 311.476 304.815 309.659C301.839 309.194 301.117 308.283 301.03 306.23C300.284 288.188 299.967 270.117 298.404 252.109C295.595 219.746 289.057 187.749 277.98 156.286C277.654 155.368 277.218 154.474 276.52 152.829C277.908 160.855 279.471 168.096 280.36 175.377C282.32 191.453 284.351 207.534 285.605 223.644C287.597 249.323 287.454 275.013 285.121 300.698C284.859 303.564 283.637 305.64 280.701 307.629C264.427 318.677 246.463 327.781 225.126 332.924C185.071 342.584 148.952 335.028 121.608 311.82C116.006 307.073 113.801 303.255 117.276 296.622C125.822 280.328 129.186 263.014 132.416 245.78C137.454 218.851 140.12 191.808 138.962 164.627C138.391 151.263 137.105 137.911 131.916 124.948C131.456 123.802 130.837 122.695 129.575 121.675C129.948 127.431 130.384 133.181 130.678 138.937C131.828 161.509 130.48 184.028 127.377 206.479C125.449 220.44 123.037 234.377 120.069 248.24C115.943 267.503 109.801 286.468 101.232 304.981C100.661 306.213 98.9943 307.692 97.3835 308.082C70.9527 314.503 43.9426 317.238 16.155 314.096C12.2669 313.655 8.34712 312.978 4.70505 311.929C-0.389094 310.456 -1.3254 307.91 1.80091 304.619C3.65765 302.664 5.9032 300.87 8.2519 299.207C19.5828 291.198 31.6199 283.665 42.2684 275.214C64.3827 257.671 77.5783 236.682 85.2274 213.749C92.7337 191.264 96.0029 168.365 96.8201 145.335C97.9866 112.484 98.2484 79.622 98.8911 46.7654C98.9149 45.7334 98.8911 44.7072 98.8911 43.3599C103.279 45.6589 107.064 47.9693 111.269 49.781C124.806 55.6288 139.787 58.7591 154.982 61.3906C185.452 66.6651 216.461 68.8494 247.7 69.6177C250.985 69.6979 251.858 70.5407 252.263 72.6964C254.342 83.8588 256.627 95.004 258.849 106.155C259.031 107.072 259.301 107.984 260.214 108.89C261.991 95.9901 263.76 83.0906 265.522 70.2999C273.972 71.7504 282.058 73.5277 290.334 74.4851C324.541 78.4295 358.954 79.4902 393.518 77.6154C408.182 76.8185 422.742 75.4884 436.525 71.5497C441.127 70.2311 445.396 68.322 450.276 66.516C450.276 68.4997 450.157 70.5464 450.292 72.5874C451.815 95.2907 452.49 118.046 455.14 140.68C458.465 169.03 466.455 196.762 481.404 223.272C495.385 248.062 515.238 270.077 540.875 289.392C544.708 292.282 548.318 295.343 551.722 298.496C552.714 299.419 553.309 301.099 552.833 302.12C552.524 302.79 549.881 303.329 548.398 303.215C530.163 301.787 512.326 299.316 496.599 291.915C495.211 291.261 493.957 290.321 492.997 289.335C464.606 260.113 445.372 227.967 435.001 193.098C428.392 170.894 422.401 148.592 416.124 126.33C416.021 125.974 415.91 125.619 415.807 125.264C415.506 125.298 415.212 125.338 414.91 125.373V125.344Z" fill="#D6541C" fill-opacity="0.5"/>
<path d="M312.797 9.98133C314.329 9.8724 315.924 9.92973 317.376 9.62587C327.27 7.56767 337.046 5.13108 347.068 3.46274C351.091 2.79196 355.669 3.60607 359.938 4.01312C380.553 5.95666 400.921 8.70283 420.353 14.2583C428.376 16.5515 436.08 19.3034 442.023 24.0333C446.427 27.5362 448.197 31.5322 446.03 36.1875C445.15 38.0737 443.515 39.1114 440.643 39.421C426.662 40.9288 412.696 42.5456 398.731 44.1394C397.485 44.2827 396.279 44.5637 395.137 45.3147C399.747 45.3147 404.365 45.2402 408.975 45.3606C410.371 45.395 412.847 45.8823 412.903 46.2951C413.046 47.3958 412.641 49.0355 411.57 49.6318C408.697 51.2313 405.563 53.0774 402.167 53.622C390.598 55.4853 378.934 57.2798 367.174 58.2487C354.328 59.3036 341.323 59.4068 328.389 59.9342C327.223 59.9801 326.056 60.089 324.89 60.1693C324.89 60.4674 324.89 60.7655 324.89 61.0579C336.673 61.0579 348.488 61.4764 360.232 60.949C374.435 60.3126 388.59 59.0054 402.714 57.6926C406.277 57.36 409.8 56.1331 413.061 54.9177C417.878 53.129 420.964 50.4 419.576 45.9396C430.589 44.8274 440.095 46.7594 447.681 52.5843C451.196 55.2846 450.807 58.9022 447.149 61.9351C442.135 66.0973 435.215 67.8402 428.193 69.2506C405.277 73.8486 381.727 74.4333 358.184 74.2957C333.317 74.1524 308.497 73.0459 284.073 69.2792C278.297 68.3906 272.647 67.0662 266.164 65.7878C273.377 58.7245 280.074 52.1601 286.771 45.6014C286.605 45.4466 286.438 45.286 286.271 45.1312C285.208 45.6873 284.105 46.2091 283.081 46.7996C273.099 52.613 263.181 58.4837 253.112 64.2226C251.707 65.0252 249.597 65.6387 247.851 65.5928C216.889 64.7615 186.15 62.4855 155.942 57.3027C141.263 54.7801 126.774 51.7415 113.713 46.06C110.135 44.5006 106.699 42.5857 103.818 40.4071C97.1929 35.3964 97.304 29.5027 103.66 24.2397C108.928 19.871 115.848 17.2395 123.029 15.0093C139.041 10.0387 155.942 7.27528 173.065 5.39481C177.033 4.95909 181.484 6.63317 185.674 7.44727C194.188 9.11562 202.678 10.8585 211.565 11.9937C204.94 9.29335 198.314 6.5873 190.673 3.47421C237.226 -0.642193 282.669 -0.81992 328.183 1.42747C328.357 1.68546 328.532 1.94919 328.707 2.20718C323.406 4.79283 318.114 7.37274 312.821 9.95839C312.099 10.1419 311.361 10.503 310.647 10.4801C306.687 10.3597 302.736 10.01 298.784 9.98706C287.089 9.91826 275.393 9.96413 263.697 9.96413C264.585 10.1304 265.498 10.1648 266.402 10.2107C287.763 11.3343 309.012 13.1403 329.833 16.8095C337.332 18.1281 344.751 20.1061 351.686 22.5541C359.359 25.2659 359.541 29.3536 352.963 33.2636C350.972 34.4504 348.718 35.4136 346.584 36.4799C346.719 36.7608 346.853 37.0418 346.988 37.3227C351.749 36.1761 356.772 35.4021 361.207 33.7911C366.73 31.7845 367.984 27.9375 364.199 24.4231C361.604 22.0152 358.081 19.9111 354.415 18.3575C345.639 14.6424 335.729 13.2607 325.818 11.9994C321.438 11.4433 317.114 10.6578 312.758 9.97559L312.797 9.98133ZM250.517 47.8717C250.517 47.6252 250.501 47.3786 250.493 47.1378C250.128 47.0633 249.771 46.9658 249.406 46.9142C231.989 44.621 214.469 42.6889 197.203 39.9083C187.896 38.412 178.731 35.941 170.066 33.0286C163.496 30.8213 163.599 27.1062 169.304 23.8326C171.661 22.4796 174.406 21.4705 176.985 20.3239C177.882 19.9226 178.826 19.5729 179.747 19.2002C176.454 19.4009 173.327 19.8309 170.431 20.6851C164.702 22.3707 158.838 23.9587 153.522 26.1947C147.714 28.6427 147.849 31.7902 153.538 34.3243C156.878 35.8091 160.552 37.0246 164.274 37.9132C182.436 42.2532 201.29 44.1795 220.198 45.7905C230.275 46.6505 240.408 47.1952 250.517 47.8831V47.8717Z" fill="#D6541C" fill-opacity="0.5"/>
</g>
<defs>
<clipPath id="clip0_164_178">
<rect width="553" height="337" fill="white"/>
</clipPath>
</defs>
</svg>
