<svg width="710" height="668" viewBox="0 0 710 668" fill="none" xmlns="http://www.w3.org/2000/svg">
<path d="M706.334 100.796L693.488 86.1377L665.947 63.2322L660.443 47.6561L632.902 32.08L583.335 18.3388L514.488 6.42218L442.894 0H309.796L239.121 5.49442L181.292 11.9063L121.626 25.6475L91.3381 35.7292L69.3116 47.6458L61.9695 58.645V66.8917L33.5096 76.9734L5.04967 96.2194L0 124.619L11.4728 142.948L72.9775 197.923L71.1394 208.922L51.8598 268.484L37.1755 325.294L32.5905 369.281L40.8517 419.679L60.1313 475.572L85.834 519.558L118.879 552.545L164.316 591.027L153.297 659.753L180.373 668L209.742 607.52L264.813 628.591L378.632 638.672L462.163 628.591L507.146 611.18L542.948 667.99L563.147 659.743L553.966 589.192L591.596 561.699L615.461 534.206L639.325 504.889L659.524 467.665L673.289 416.009L679.712 362.859L675.127 306.966L641.163 217.169L637.487 200.675L658.595 175.017L693.478 145.7L702.658 134.701L710 120.96L706.324 100.796H706.334ZM95.004 157.606L86.7428 169.523H72.0585L41.7708 139.288L35.3477 120.96L40.8517 108.136L54.617 101.724L74.8156 109.971L95.0143 131.959V157.617L95.004 157.606ZM610.876 87.9623L603.534 96.2091L579.669 101.703L490.634 111.785L421.787 117.28H350.193L243.716 111.785L170.284 105.373L135.401 96.2091L128.059 87.9623L133.563 77.8806L159.266 69.6338L205.157 63.2219L268.49 56.81H467.678L552.128 65.0568L596.191 72.3862L610.876 81.5504V87.9623ZM675.127 130.114L662.281 147.525L641.174 169.513H623.732L617.309 162.183V142.937L621.894 127.361L641.174 105.373L660.453 101.703L675.138 109.95V130.114H675.127Z" fill="#84180D" fill-opacity="0.3"/>
</svg>
