<svg width="216" height="300" viewBox="0 0 216 300" fill="none" xmlns="http://www.w3.org/2000/svg">
<g clip-path="url(#clip0_36_143)">
<path d="M106.482 209.33H103.321V212.459H100.193V234.318H97.032V243.687H94.1962C94.0311 243.82 93.9998 243.839 93.9789 243.866C93.959 243.892 93.9475 243.927 93.9392 243.959C93.9235 244.026 93.9089 244.094 93.9005 244.162C93.8932 244.231 93.8921 244.301 93.8921 244.37C93.8817 257.596 93.8723 270.823 93.8608 284.049C93.8608 284.08 93.8399 284.112 93.7751 284.292H90.7753V293.738C89.7367 293.786 88.8109 293.828 87.7473 293.877V296.799H81.4007V299.747C80.5282 300.004 74.5871 300.087 72.0188 299.896V296.865H56.399V293.754H59.4386V287.514H62.5648V281.239H65.6754V231.257H62.6024V221.896H59.4845C59.4062 217.69 59.4992 213.582 59.4302 209.374H56.3625V203.138H53.2059V200.053H50.042V203.028H37.5642V200.012H31.2751V196.9H28.1562V193.751H25.0362V190.659C23.915 190.543 22.8816 190.614 21.8545 190.602C20.8535 190.589 19.8526 190.599 18.7471 190.599V187.527H15.6281V184.379H12.5082V178.143H9.3516V175.032H6.23266V171.883H3.11372V153.15H0V109.42H2.86817C3.11267 108.58 3.15133 104.378 2.93609 103.143H0.0114936V90.658H3.05729V65.7447C4.1356 65.701 5.11569 65.6614 6.18773 65.6176V53.1813H9.29727C9.36623 52.0596 9.32339 51.0296 9.33175 50.0037C9.33906 48.9966 9.33384 47.9905 9.33384 46.9834V43.783H12.4308V34.4034C14.5331 34.395 16.533 34.394 18.6771 34.4065V37.4622H21.8441V34.4575H34.3533V37.5226H37.4712V40.6096H53.0157C53.2289 39.892 53.2832 35.8489 53.0826 34.4284H50.111C49.9772 32.3089 50.1308 30.2781 50.019 28.1951H43.7101V31.181H15.5999V28.1899H18.6907C18.7711 27.0693 18.722 26.0413 18.7304 25.0175C18.7398 24.0198 18.7325 23.021 18.7325 21.9191H21.8242V18.827C23.9495 18.6978 25.986 18.8499 28.1133 18.7311V15.6858H31.2406V12.5354H34.3616V9.40779H40.657V6.29376H43.754V3.17765H56.3081V0.0990243H68.7839V3.10891C71.9603 3.20056 75.0343 3.13286 78.2139 3.15786V0.219836C79.0518 -0.00824836 88.8381 -0.0821936 90.7251 0.112564V3.13703H93.8504V6.24065C94.983 6.25314 96.0111 6.26668 97.0403 6.27397C98.0497 6.28022 99.059 6.27918 100.068 6.27918H103.274V9.36926H106.393V12.5156H109.511V15.6254H112.665V18.7353H115.765C115.87 19.8539 115.806 20.8839 115.818 21.9087C115.829 22.9158 115.82 23.9219 115.82 24.929V28.0868H122.082V25.0831H144.05C144.089 26.0371 144.126 26.9807 144.166 27.9764C147.847 28.2076 151.457 28.1441 155.064 28.1482C158.642 28.1514 162.219 28.1482 165.902 28.1482V31.2518H175.321V34.3617H181.573V37.5091H187.823V40.6189H190.977V43.7288H197.228V46.8751H200.346V56.2328H203.5V62.4671H206.625C206.696 63.9346 206.653 65.3083 206.661 66.6789C206.668 68.0328 206.663 69.3868 206.663 70.7407V74.9868H209.726C209.89 77.0812 209.718 79.085 209.836 81.2211H212.892V103.115H216V109.347H213.004V118.751H215.988V121.843H212.975C212.879 131.256 212.952 140.54 212.924 149.966H215.992V156.198H212.957C212.9 157.535 212.935 158.771 212.929 160.004C212.923 161.254 212.927 162.504 212.927 163.753V174.973H209.822V187.425H206.702V190.578H203.573V203.063H200.413V215.557H197.317C197.186 218.724 197.33 221.792 197.228 224.958H194.164V234.286H191.093C190.907 235.545 191.024 236.714 191.004 237.874C190.982 239.054 190.998 240.235 190.998 241.415V259.309H187.887C187.838 262.452 187.889 265.487 187.854 268.67H184.756V274.773C183.878 274.994 171.055 275.069 169.253 274.891C169.042 274.107 169.022 266.691 169.249 265.603H172.202V259.395H175.322C175.406 255.187 175.319 251.081 175.373 246.873H178.452V237.505H181.611V221.894H184.567C184.799 221.031 184.834 198.05 184.613 196.868H178.526V193.933C177.693 193.678 173.589 193.63 172.229 193.847V196.81C170.783 196.883 169.438 196.836 168.097 196.844C166.705 196.853 165.312 196.846 163.92 196.846H159.883C159.631 197.621 159.568 201.48 159.774 203.08H162.75C162.877 206.213 162.806 209.236 162.631 212.395H159.678V224.964H156.569V234.292H153.497C153.328 235.413 153.431 236.444 153.413 237.466C153.395 238.508 153.409 239.549 153.409 240.591V246.819H150.321V259.304H147.162V268.673H144.042V271.826H140.913V274.76C140.036 275.006 130.806 275.091 128.4 274.892V271.863H125.314V268.751H128.36V265.638H131.488V259.363H134.608V249.994H137.768V240.634H140.86V225.019H143.972V209.404H140.959C140.816 207.284 140.981 205.252 140.859 203.167H131.511V206.164H128.39V203.219C127.303 202.992 126.319 203.133 125.226 203.112V206.192H122.138V209.287C121.013 209.398 119.983 209.33 118.958 209.342C117.957 209.355 116.956 209.345 115.845 209.345V212.424H112.725V215.53H106.46V209.304C107.479 209.399 108.494 209.413 109.514 209.297V206.29H106.484V209.328L106.482 209.33ZM103.271 87.4513H122.137V84.3456H125.257V78.1019H128.296V62.4901H125.208V59.3417H122.089V56.2308H118.932V53.1188H115.876C115.785 50.9952 115.9 48.9664 115.802 46.846H112.686V40.6085H109.528V37.4924H106.476C106.39 35.3688 106.501 33.34 106.406 31.2196H103.291V28.2055H96.9954V31.2602H93.8754V34.4117H90.7481V37.5632C88.6166 37.9954 86.6178 37.2685 84.4956 37.5278V34.4075C82.3672 34.3273 80.3328 34.4273 78.2065 34.343V31.2446H72.0575C71.7764 29.1324 72.3417 27.0984 71.9927 25.0748H65.6858V28.1555H62.5293V34.3971H59.5107V56.2985H62.5993V59.4448H65.7172V62.5546H68.8717V65.6645H71.9279C72.0272 67.786 71.8966 69.8158 72.0094 71.9353H81.3725V75.0451H84.527V78.1915H87.6804V81.294H90.7868V84.3779H103.273V87.4523H103.271V87.4513ZM81.3819 262.435V261.387C81.3641 242.03 81.3474 222.673 81.3276 203.316C81.3276 203.289 81.291 203.261 81.2691 203.236C81.2461 203.21 81.2199 203.187 81.1938 203.16H75.2025C75.0124 204.427 75.0573 208.568 75.2872 209.406H78.1637V218.72H75.1628V240.647H78.2598V262.435H81.3819ZM31.204 37.5872H28.1217C28.1164 38.6505 28.06 39.6306 28.1499 40.5846H31.204V37.5872Z" fill="#754C24"/>
</g>
<defs>
<clipPath id="clip0_36_143">
<rect width="216" height="300" fill="white"/>
</clipPath>
</defs>
</svg>
