<svg width="670" height="663" viewBox="0 0 670 663" fill="none" xmlns="http://www.w3.org/2000/svg">
<g opacity="0.3" clip-path="url(#clip0_34_111)">
<path d="M454.846 203.832L564.678 301.649L614.931 327.244L602.177 307.875L471.495 194.625L456.593 179.63L456.534 172.988L465.533 175.279L638.451 304.691L629.222 290.28L512.287 187.014L505.726 173.523L491.195 152.784L488.304 130.841L496.104 112.587L506.969 100.629L524.886 98.5872L538.449 85.3219L518.521 67.2096L492.664 59.7675L464.109 53.6335L439.907 58.7326L419.251 66.5506L412.695 78.2335L407.507 76.7084L402.357 56.9723L393.465 52.4035L386.679 59.0355L378.952 70.5744L362.569 55.1908L338.531 44.6412L313.522 41.2359L295.146 44.6072L291.957 49.4917L315.234 60.783L316.842 64.0782L322.013 81.5755L320.99 93.196L309.737 99.7774L310.492 112.758L307.742 118.542L289.417 117.447L276.825 123.568L266.031 128.821L263.947 115.381L273.504 100.726L292.025 83.9349L303.278 77.3534L284.565 70.8827L266.759 69.5375L248.879 78.2292L232.48 89.5419L219.356 103.707L208.348 129.074L201.929 143.311L195.266 138.762L199.008 123.594L205.717 111.822L192.887 111.003L169.634 116.75L151.135 125.749L134.873 140.332L126.194 156.786L118.357 174.944L116.85 192.465L127.582 193.919L111.382 201.796L93.7298 220.385L84.1515 237.279L76.3516 255.533L78.5057 277.838L86.6721 292.766L97.1291 277.672L108.297 263.344L122.405 256.486L136.424 253.009L131.468 286.556L133.092 301.334L116.177 293.995L101.43 293.381L104.358 306.272L111.413 320.772L94.4789 315.662L73.4767 313.636L57.7773 317.938L47.1381 309.772L43.6839 298.109L37.7241 311.017L42.7917 334.003L51.4835 351.883L59.5951 368.571L77.7222 374.97L58.7622 390.861L49.1333 412.221L62.5013 416.842L97.401 409.123L82.7725 416.231L73.9166 435.75L65.238 452.204L57.8676 471.357L60.217 501.343L78.2742 527.039L110.537 554.333L122.283 548.194L139.435 522.87L162.062 511.865L190.302 505.919L193.877 506.42L203.741 503.834L364.685 631.284L357.277 613.756L216.509 482.056L205.911 469.412L202.488 455.512L205.207 451.965L221.712 456.178L356.338 577.525L393.62 603.876L388.972 590.572L374.724 574.155L249.919 454.71L241.59 439.86L245.719 430.068L252.843 433.278L271.381 455.396L302.849 481.236L372.783 547.305L413.581 578.613L419.928 571.081L412.877 561.166L277.045 428.179L276.341 410.732L282.637 407.667L294.176 415.394L404.194 520.032L430.989 541.238L440.81 543.14L430.242 528.268L310.395 405.298L307.819 395.435L318.97 397.796L349.005 432.118L387.104 464.744L429.06 497.304L466.136 517.498L447.158 494.48L333.002 383.202L338.416 373.753L346.514 374.403L416.5 435.997L463.501 473.193L483.011 488.166L479.125 472.96L463.698 455.297L438.036 429.968L373.426 367.988L359.742 351.286L366.937 347.791L374.029 353.239L495.891 455.216L509.501 458.184L502.666 444.129L392.468 343.151L386.398 326.093L393.184 319.461L523.917 428.245L531.501 430.117L527.566 422.022L406.727 308.434L406.002 293.216L410.5 291.03L538.953 404.261L553.7 404.874L546.007 390.82L416.551 269.188L422.867 263.894L566.26 380.977L571.884 378.241L559.998 360.671L439.129 249.31L432.16 232.682L435.758 230.934L592.694 357.005L590.558 348.041L577.345 330.002L447.502 210.982L444.18 197.944L449.556 197.557L454.85 203.873L454.846 203.832ZM267.854 329.235L253.586 325.053L233.197 308.28L230.95 316.245L227.626 326.553L231.08 338.216L208.79 331.264L187.619 315.169L173.388 297.33L170.446 279.852L182.548 277.298L194.117 282.797L202.957 291.842L214.014 303.147L222.206 299.166L226.801 279.14L221.306 267.847L225.146 266.599L231.391 268.009L237.223 279.995L247.701 290.108L251.572 298.072L258.814 312.972L268.783 324.336L281.661 332.523L267.832 329.242L267.854 329.235ZM373.519 237.82L368.531 243.583L366.152 215.824L355.166 197.814L339.377 197.711L329.246 202.632L321.497 206.403L329.826 214.336L329.367 224.814L305.288 218.732L290.949 221.255L285.697 210.462L298.375 204.302L317.249 188.449L297.197 181.518L286.952 169.6L282.891 161.256L297.486 154.678L317.559 159.371L336.2 172.546L351.265 185.231L364.97 199.694L376.171 222.722L373.501 237.807L373.519 237.82Z" fill="#006FF2"/>
</g>
<defs>
<clipPath id="clip0_34_111">
<rect width="594.02" height="585.84" fill="white" transform="translate(81.3381) rotate(7.98074)"/>
</clipPath>
</defs>
</svg>
