<svg width="419" height="303" viewBox="0 0 419 303" fill="none" xmlns="http://www.w3.org/2000/svg">
<g clip-path="url(#clip0_102_88)">
<path d="M142.847 182.657C142.113 183.342 141.693 183.864 141.162 184.215C129.488 191.921 119.467 201.446 109.832 211.547C96.8036 225.206 83.6691 238.855 67.0313 248.377C59.5605 252.654 51.7158 255.959 43.0519 256.591C34.3648 257.226 26.7833 254.168 20.201 248.617C14.8513 244.105 11.6317 238.495 11.8094 231.271C12.0264 222.468 15.7144 215.127 21.602 208.861C26.2271 203.94 32.0223 200.589 38.3437 198.385C52.5882 193.419 66.9089 188.66 81.2227 183.891C84.9754 182.641 88.8204 181.667 92.9955 180.46C91.0083 179.289 89.2428 178.685 88.1211 177.48C86.6048 175.851 85.1693 176.084 83.4429 176.675C67.1859 182.237 50.8919 187.693 34.6787 193.379C28.6919 195.48 22.7836 197.944 18.0385 202.385C9.24299 210.613 4.95024 220.708 5.08872 232.836C5.19488 242.301 8.49753 250.002 15.599 256.354C22.569 262.59 30.8845 264.969 39.8161 265.438C46.4722 265.786 52.9875 264.302 59.3712 262.289C73.7266 257.764 85.5386 249.157 95.9635 238.732C106.49 228.206 116.19 216.858 126.58 206.186C132.817 199.782 139.678 193.986 146.542 187.656C145.674 186.479 144.34 184.674 142.849 182.657H142.847ZM302.082 95.0615C303.416 94.3438 304.423 93.7437 305.48 93.2429C317.529 87.5354 329.595 81.8578 341.643 76.1411C354.911 69.8428 368.255 63.6944 381.383 57.1145C387.889 53.8534 393.945 49.6553 398.923 44.2524C402.713 40.1397 405.598 35.4961 405.817 29.5463C406.011 24.3004 403.948 19.7999 401.76 15.311C400.603 12.9384 398.736 11.0252 396.024 10.7321C393.29 10.4343 390.296 10.0258 387.767 10.8036C379.929 13.2154 372.013 15.6387 364.586 19.0568C356.621 22.7218 349.134 27.4415 341.525 31.8519C338.082 33.8483 334.333 35.7154 331.647 38.5218C328.155 42.173 325.584 46.7011 322.618 50.8531C323.722 50.5392 324.566 49.9346 325.446 49.3853C336.741 42.3345 347.992 35.2076 359.358 28.2769C367.434 23.3518 375.943 19.3822 385.293 17.4066C389.745 16.465 394.19 17.9974 396.544 21.6186C400.356 27.483 399.366 35.2515 394.612 40.4005C389.747 45.6695 383.896 49.5791 377.6 52.6325C365.209 58.6401 352.58 64.1583 340.02 69.8128C332.757 73.0808 325.376 76.0903 318.157 79.4461C311.517 82.5318 305.023 85.929 298.309 89.2663C299.661 91.3434 300.838 93.1552 302.085 95.0684L302.082 95.0615ZM141.6 228.619C143.618 229.118 145.085 229.665 146.593 229.824C154.077 230.613 161.583 229.445 164.297 220.029C166.221 213.348 167.189 206.657 166.441 199.574C165.765 193.174 164.927 186.848 162.056 181.159C156.242 169.642 146.574 162.379 134.709 157.703C127.711 154.945 120.46 155.46 113.257 155.633C110.536 155.7 107.736 156.568 105.165 157.569C102.303 158.684 100.969 161.853 101.923 164.052C102.536 165.47 106.028 166.386 108.392 165.896C110.342 165.495 112.431 164.749 114.288 165.089C122.943 166.667 131.476 168.714 139.043 173.566C147.052 178.699 152.212 185.89 153.985 195.177C155.529 203.264 154.841 211.402 152.882 219.392C152.466 221.086 151.882 222.63 149.877 223.544C147.114 224.804 144.647 226.708 141.603 228.619H141.6ZM23.7183 293.627C24.233 293.954 25.3962 294.813 26.6609 295.478C36.9128 300.876 47.6954 303.147 59.3343 301.718C66.5558 300.832 73.3527 298.815 79.7757 295.614C90.6298 290.199 99.1738 282.073 105.735 271.951C111.992 262.296 117.739 252.308 124.134 242.751C129.671 234.477 135.173 226.002 144.596 221.356C147.65 219.851 149.053 217.144 149.554 213.92C149.771 212.524 149.784 211.095 149.932 209.142C143.781 213.664 137.615 217.714 132.009 222.429C123.652 229.459 118.429 238.973 112.742 248.112C106.368 258.357 100.092 268.616 90.9483 276.906C84.6431 282.622 77.9501 287.467 70.2993 291.035C62.0092 294.898 53.0821 296.539 44.1043 296.447C37.139 296.375 30.1898 294.584 23.7183 293.629V293.627ZM310.391 125.54C313.484 124.171 316.343 122.819 319.265 121.628C331.573 116.604 343.918 111.672 356.217 106.624C369.606 101.127 383.093 95.8393 396.267 89.8641C403.013 86.8037 409.24 82.6056 413.987 76.5542C419.404 69.6489 419.302 59.9717 414.292 52.7641C414.114 55.042 414.162 57.3361 413.722 59.5286C412.014 67.9872 406.272 73.6024 399.613 78.2759C389.897 85.0959 378.8 89.2571 367.951 93.8291C350.611 101.136 333.177 108.224 315.852 115.563C309.521 118.245 309.609 118.452 310.393 125.54H310.391ZM169.711 219.524C173.568 218.051 175.61 215.369 176.801 212.041C179.084 205.667 179.476 199.161 178.587 192.405C177.396 183.361 174.567 175.008 169.926 167.187C166.279 161.041 161.287 156.217 155.704 151.876C146.694 144.869 137.093 138.944 126.054 135.73C118.417 133.505 112.054 135.506 108.415 140.874C110.448 141.13 112.514 141.578 114.586 141.617C124.252 141.795 132.106 146.353 139.516 151.885C143.523 154.876 147.474 157.985 151.153 161.366C155.257 165.135 159.441 168.945 162.827 173.328C167.027 178.761 169.06 185.359 170.127 192.128C171.077 198.164 172.003 204.222 170.777 210.38C170.2 213.285 170.073 216.281 169.709 219.526L169.711 219.524ZM149.249 195.415C147.726 196.458 146.302 197.381 144.933 198.378C138.242 203.253 130.922 207.511 126.105 214.439C120.94 221.868 116.439 229.755 111.429 237.299C106.218 245.146 101.207 253.194 95.2711 260.475C88.3912 268.916 79.4849 274.962 69.2538 279.054C61.4507 282.175 53.3198 283.449 45.069 283.723C40.6747 283.869 36.165 283.077 31.8376 282.117C23.1252 280.185 15.1374 276.525 8.6037 270.3C5.58031 267.42 2.97235 264.101 -0.00488281 260.782C0.629798 263.019 1.08446 265.126 1.82069 267.132C5.31028 276.645 12.6149 282.645 21.3065 286.832C32.6016 292.276 44.6074 293.075 56.8671 290.532C71.4279 287.511 83.2768 279.721 92.3008 268.348C99.3054 259.522 104.736 249.457 110.99 240.025C115.045 233.909 118.962 227.645 123.594 221.981C130.257 213.835 139.41 208.575 148.063 202.844C150.02 201.547 150.389 200.28 150.114 198.394C149.978 197.451 149.586 196.546 149.249 195.415ZM0.82828 239.03C0.329767 245.432 1.05215 251.285 3.80089 256.612C9.15068 266.979 18.0593 273.164 28.9481 276.599C38.2721 279.539 47.79 279.694 57.3564 277.755C68.2845 275.539 77.807 270.561 86.1201 263.183C93.8586 256.312 99.4484 247.754 105.017 239.18C105.924 237.782 106.633 236.256 107.434 234.788C103.483 238.047 99.7508 241.405 96.1204 244.869C87.4911 253.104 77.9362 259.896 66.8235 264.445C56.0132 268.869 44.8636 271.237 33.2547 269.331C17.7985 266.795 4.3548 257.094 0.830588 239.03H0.82828ZM139.323 122.918C144.645 125.185 150.052 127.001 154.984 129.685C167.706 136.609 178.786 145.605 186.305 158.183C191.666 167.15 194.87 177.021 195.105 187.566C195.23 193.144 194.623 198.736 194.337 204.487C195.006 204.088 196.088 203.64 196.922 202.911C201.281 199.091 202.687 193.839 202.837 188.45C202.991 182.897 202.666 177.242 201.734 171.77C200.307 163.383 197.069 155.418 191.786 148.809C187.424 143.353 182.082 138.552 176.642 134.112C169.171 128.014 160.837 123.269 151.342 120.8C146.77 119.611 142.625 119.627 139.318 122.914L139.323 122.918ZM181.936 211.637C184.978 210.435 187.358 207.783 188.511 204.838C191.484 197.243 191.509 189.331 190.021 181.604C187.214 167.02 180.718 154.449 168.811 144.864C160.879 138.481 152.542 132.939 143.054 129.297C137.287 127.084 131.328 125.526 126.137 130.887C126.405 131.077 126.712 131.462 127.079 131.529C134.427 132.884 140.947 136.23 147.163 140.147C160.048 148.264 171.567 157.715 177.743 172.276C183.095 184.893 185.317 197.806 181.934 211.637H181.936ZM95.7327 219.505L95.2965 218.91C94.8372 218.91 94.3387 218.79 93.9233 218.926C77.02 224.481 60.059 229.87 43.2596 235.728C36.6912 238.019 30.619 241.546 26.5271 247.496C30.9214 250.503 35.7796 252.227 41.0694 252.144C46.7538 252.054 52.1451 250.427 57.3056 248.073C65.3649 244.396 72.7711 239.614 79.5933 234.029C85.1854 229.45 90.3667 224.366 95.7304 219.505H95.7327ZM200.972 96.0931C218.595 101.224 233.149 110.543 242.609 125.861C252.051 141.151 254.442 158.218 250.814 176.132C253.203 176.483 254.504 175.073 255.67 173.169C258.799 168.057 259.056 162.271 259.342 156.6C259.529 152.91 258.739 149.164 258.331 145.448C257.429 137.216 254.973 129.427 250.387 122.56C241.478 109.228 229.138 100.247 213.855 95.4608C209.74 94.173 205.406 93.6144 200.972 96.0931ZM308.328 112.168C308.591 112.168 308.902 112.253 309.138 112.156C319.842 107.744 330.507 103.234 341.248 98.9111C353.914 93.8152 366.728 89.0863 379.317 83.8104C388.66 79.8961 397.573 75.1071 404.624 67.5256C406.959 65.0146 409.03 60.6872 408.861 59.2494C403.781 62.7113 398.715 66.7963 393.096 69.8658C378.196 78.0082 362.098 83.3995 346.309 89.504C334.839 93.9375 323.509 98.7427 312.138 103.435C310.333 104.18 307.677 104.833 307.155 106.197C306.546 107.79 307.845 110.112 308.328 112.168ZM217.061 88.6501C245.981 97.014 271.855 123.052 264.484 165.486C267.133 164.581 269.402 163.155 270.157 160.42C271.279 156.349 272.719 152.197 272.802 148.054C272.913 142.628 272.412 137.036 271.117 131.776C269.707 126.048 267.378 120.481 264.915 115.087C262.021 108.748 257.124 103.908 251.73 99.5574C245.18 94.2745 238.213 89.7071 230.029 87.45C225.706 86.2568 221.21 85.4051 217.061 88.6455V88.6501ZM304.893 101.681C307.515 100.499 309.872 99.3335 312.302 98.3572C326.653 92.5851 340.983 86.7599 355.391 81.1378C368.888 75.8711 382.578 71.0706 394.981 63.3759C400.7 59.8287 406.002 55.8382 409.027 49.5976C411.215 45.0902 411.478 40.4328 409.572 35.2492C406.569 44.2409 400.696 50.38 393.32 54.9451C385.32 59.8979 377.058 64.4676 368.687 68.7719C360.951 72.7508 352.922 76.1665 345.017 79.8176C331.345 86.1321 317.67 92.4374 303.878 98.8004C304.213 99.5643 304.372 99.8689 304.478 100.19C304.619 100.617 304.72 101.055 304.889 101.681H304.893ZM251.576 71.4329C267.964 76.3373 281.253 85.4697 289.864 100.148C298.494 114.859 299.708 131.003 296.421 148.245C298.071 147.338 299.544 146.849 300.596 145.896C305.046 141.859 305.42 136.228 305.66 130.846C306.064 121.852 304.222 113.105 301.268 104.63C298.902 97.8426 295.145 91.7658 289.973 86.8384C283.702 80.8654 276.665 75.8157 268.435 72.7738C263.039 70.7821 257.597 68.4834 251.576 71.4283V71.4329ZM335.229 7.89099C320.133 38.7503 302.92 58.0792 281.54 74.0801C283.799 75.7903 286.082 77.5189 288.304 79.2014C312.214 60.0756 329.261 35.5931 343.787 9.25498C340.865 8.79108 338.199 8.36643 335.229 7.8933V7.89099ZM293.513 83.9857C293.55 84.2673 293.585 84.5489 293.622 84.8305C294.614 84.9066 295.805 85.3751 296.569 84.9943C301.025 82.7626 305.547 80.5908 309.731 77.9044C315.9 73.9439 321.707 69.425 327.841 65.4092C335.64 60.3041 343.595 55.439 351.509 50.5115C359.541 45.5126 367.923 41.2152 377.136 38.8773C380.626 37.991 384.344 37.1209 387.84 37.4556C390.405 37.7002 391.591 37.174 392.588 35.18C393.292 33.7721 393.963 32.3504 394.718 30.7972C393.416 30.2618 392.443 29.7886 391.422 29.454C386.687 27.9031 382.211 29.6017 377.875 30.9818C365.784 34.8292 354.724 40.9082 344.264 47.9659C331.571 56.5329 319.138 65.4877 306.634 74.3317C302.2 77.4659 297.884 80.7662 293.515 83.9904L293.513 83.9857ZM238.635 76.8289C238.755 77.1104 238.873 77.392 238.993 77.6736C265.513 82.3979 293.961 109.435 286.395 152.644C289.317 151.278 290.988 149.095 291.893 146.171C294.676 137.149 293.712 128.155 291.884 119.133C289.878 109.234 286.017 100.176 278.874 92.9498C272.308 86.3052 264.62 81.1308 255.818 77.7197C251.76 76.148 247.638 75.1164 243.286 75.5849C241.712 75.7534 240.186 76.3996 238.64 76.8289H238.635ZM275.887 159.021C278.872 157.533 280.402 155.439 281.406 152.619C284.196 144.781 283.633 136.743 282.248 128.933C279.977 116.128 275.223 104.45 264.687 95.7562C256.711 89.174 248.116 84.0019 237.982 81.7886C235.503 81.2486 232.785 81.8117 230.177 81.8671L230.204 82.5756C267.775 94.3022 281.948 128.73 275.89 159.021H275.887ZM22.659 244.595C27.6441 238.573 33.804 234.735 40.7624 231.806C57.9772 224.557 75.8614 219.401 93.8125 214.462C102.511 212.069 107.995 208.556 112.015 201.697C111.713 201.697 111.417 201.626 111.17 201.706C95.458 206.874 79.7087 211.935 64.054 217.269C53.276 220.943 42.5903 224.899 31.9369 228.921C26.4325 230.999 21.8189 234.502 17.6531 238.922C19.3933 240.893 20.9534 242.661 22.6613 244.595H22.659ZM127.478 150.066C126.717 149.478 126.46 149.192 126.14 149.044C121.376 146.851 116.287 145.781 111.124 145.644C107.577 145.552 104.048 144.052 100.355 145.944C96.8728 147.728 93.2609 149.413 91.2138 152.709C88.9612 156.335 86.4017 160.353 86.0048 164.399C85.5201 169.319 89.8336 174.175 94.8141 176.074C101.486 178.622 108.228 178.027 114.888 176.121C118.071 175.209 121.115 173.815 124.222 172.638C123.063 171.662 122.225 171.283 121.351 171.152C117.134 170.508 113.061 168.975 108.586 170.39C106.675 170.995 104.173 170.438 102.139 169.788C98.3314 168.574 95.5319 164.406 96.3743 161.518C97.579 157.376 100.208 154.456 104.27 152.741C109.649 150.47 115.274 151.301 120.829 151.059C122.922 150.966 124.995 150.452 127.481 150.069L127.478 150.066ZM122.085 179.675C122.015 179.435 121.946 179.195 121.877 178.952C119.112 179.666 116.382 180.568 113.578 181.046C109.906 181.674 106.035 181.475 102.497 182.488C88.6173 186.467 74.7974 190.667 61.0237 195.013C51.1204 198.138 41.1848 201.291 32.1538 206.583C29.4812 208.15 27.1202 210.246 24.6138 212.099C31.443 209.761 37.8082 206.652 44.4805 204.487C62.3415 198.692 80.3572 193.363 98.2691 187.716C106.259 185.198 114.15 182.361 122.085 179.668V179.675ZM84.6154 153.6C81.1235 151.423 77.5808 149.459 74.3128 147.112C71.0401 144.763 68.0421 142.035 64.9887 139.526C63.4309 140.285 60.8045 141.569 58.0396 142.919C62.637 152.914 71.7025 157.703 81.2827 161.648C82.5567 158.571 83.7222 155.755 84.6154 153.602V153.6ZM334.982 66.5009C352.266 58.9655 370.18 52.7295 385.837 41.8683C366.425 44.9956 350.833 56.0183 334.982 66.5009ZM392.932 25.2328C392.329 22.4379 390.317 21.7824 388.039 21.6993C386.982 21.6601 385.911 22.0525 384.842 22.214C380.24 22.9018 369.922 27.2938 366.37 30.2964C375.216 26.5414 383.543 23.0749 392.932 25.2328ZM345.818 2.1604C342.972 -0.786826 339.734 -0.687584 337.491 2.28272C340.11 5.3615 343.027 5.36842 345.818 2.1604ZM62.9901 133.179C60.2921 134.276 58.1711 135.136 55.5331 136.21C59.0989 138.423 61.2314 137.509 62.9901 133.179Z" fill="#21619C" fill-opacity="0.3"/>
<path d="M238.081 186.377C239.462 185.151 240.851 184.256 241.832 182.982C244.525 179.478 245.317 175.107 245.301 170.752C245.28 164.904 245.065 159 244.262 153.23C243.369 146.807 241.324 140.691 238.589 134.838C235.497 128.222 230.844 123.213 225.709 118.611C217.933 111.639 209.334 106.312 199.594 103.439C196.091 102.405 192.486 102.059 189.347 104.381C192.657 105.763 196.068 106.91 199.253 108.579C206.167 112.202 212.313 117.07 218.215 122.475C226.567 130.128 232.351 139.491 236.101 150.574C238.435 157.475 239.448 164.664 239.667 171.895C239.808 176.51 238.698 181.172 238.084 186.377H238.081Z" fill="#21619C" fill-opacity="0.3"/>
<path d="M222.48 191.787C226.168 173.136 222.972 156.674 215.023 141.497C210.707 133.255 204.386 126.941 197.725 121.201C192.661 116.839 187.307 113.119 181.422 110.527C179.368 109.622 177.205 109.052 175.098 108.332C175.848 105.736 180.413 104.284 182.823 104.822C192.235 106.92 200.4 112.205 207.707 119.149C212.468 123.675 217.128 128.603 220.934 134.19C225.593 141.033 228.481 149.24 229.678 157.95C230.438 163.471 230.756 169.151 230.632 174.74C230.507 180.259 229.295 185.634 225.506 189.562C224.774 190.321 223.837 190.806 222.482 191.787H222.48Z" fill="#21619C" fill-opacity="0.3"/>
<path d="M150.842 115.223C155.102 112.433 160.106 112.876 164.71 114.143C181.699 118.821 195.791 127.485 206.082 140.53C211.875 147.871 214.439 156.517 215.872 165.363C216.47 169.054 217.317 172.829 216.989 176.49C216.583 181.027 215.385 185.567 213.936 189.947C212.909 193.049 210.001 194.852 206.387 195.415C210.165 177.549 207.665 160.422 196.867 145.143C186.123 129.943 169.598 120.979 150.842 115.221V115.223Z" fill="#21619C" fill-opacity="0.3"/>
</g>
<defs>
<clipPath id="clip0_102_88">
<rect width="418.052" height="302.136" fill="white"/>
</clipPath>
</defs>
</svg>
