<svg width="258" height="258" viewBox="0 0 258 258" fill="none" xmlns="http://www.w3.org/2000/svg">
<path d="M141.313 231.222C141.017 231.188 140.722 231.124 140.426 231.124C136.959 231.117 133.493 231.122 130.026 231.116C129.704 231.116 129.364 231.193 129.009 230.944V225.096C128.717 224.84 128.43 224.919 128.165 224.918C126.129 224.912 124.093 224.915 122.057 224.915C120.544 224.915 119.031 224.917 117.517 224.913C117.249 224.913 116.981 224.889 116.676 224.875C116.588 224.34 116.637 223.847 116.629 223.358C116.62 222.836 116.627 222.313 116.627 221.791C116.627 221.295 116.635 220.8 116.625 220.305C116.614 219.818 116.676 219.324 116.567 218.824C116.215 218.702 115.885 218.742 115.562 218.742C111.462 218.739 107.363 218.74 103.264 218.74C101.833 218.74 100.402 218.742 98.9713 218.738C98.7004 218.738 98.4201 218.78 98.1672 218.643C98.0331 218.375 98.0838 218.096 98.0829 217.825C98.0778 216.367 98.0829 214.909 98.0786 213.45C98.0786 213.181 98.0511 212.912 98.0348 212.601C97.7751 212.576 97.5644 212.539 97.3528 212.538C96.0594 212.533 94.7668 212.534 93.4733 212.534C89.1536 212.534 84.8346 212.534 80.5149 212.534C80.2139 212.534 79.9137 212.534 79.5568 212.534C79.5293 212.281 79.488 212.071 79.4872 211.861C79.4811 210.376 79.4846 208.89 79.4829 207.404C79.4829 207.104 79.4691 206.805 79.4605 206.465C79.2782 206.426 79.1277 206.373 78.9737 206.365C78.6719 206.349 78.3683 206.357 78.0664 206.357C74.7649 206.357 71.4634 206.358 68.1618 206.354C67.8376 206.354 67.5039 206.405 67.1479 206.243C67.0627 205.592 67.1143 204.935 67.1066 204.283C67.098 203.595 67.11 202.907 67.1032 202.22C67.0963 201.566 67.1401 200.909 67.0653 200.248C66.7076 200.103 66.3756 200.156 66.0531 200.155C61.4865 200.15 56.919 200.15 52.3524 200.15C51.3342 200.15 50.3168 200.152 49.2986 200.149C49.0853 200.149 48.872 200.127 48.6089 200.113C48.5917 199.799 48.565 199.531 48.5641 199.264C48.5598 197.805 48.5659 196.348 48.559 194.889C48.5581 194.621 48.62 194.338 48.4558 194.087C48.2047 193.918 47.9217 193.981 47.6534 193.979C46.1957 193.972 44.7371 193.979 43.2786 193.974C42.9827 193.973 42.6723 194.029 42.3429 193.815V187.975C42.1064 187.724 41.8751 187.774 41.6618 187.774C40.149 187.77 38.6354 187.772 37.1227 187.772C36.8509 187.772 36.5792 187.772 36.267 187.772C36.2317 187.569 36.1905 187.416 36.1819 187.261C36.1681 187.014 36.1767 186.765 36.1767 186.518C36.1767 181.126 36.1767 175.733 36.175 170.34C36.175 170.014 36.1578 169.689 36.15 169.428C35.8981 169.147 35.634 169.223 35.3975 169.221C33.8848 169.214 32.3712 169.219 30.8585 169.215C30.5884 169.215 30.3098 169.254 30.0114 169.104C29.9942 168.898 29.9615 168.686 29.9606 168.474C29.9563 166.961 29.9598 165.448 29.9563 163.935C29.9563 163.665 29.9365 163.395 29.9271 163.163C29.6639 162.948 29.4059 163.016 29.1668 163.014C27.6816 163.007 26.1955 163.012 24.7095 163.009C24.4403 163.009 24.1702 162.988 23.8778 162.977C23.76 162.653 23.7979 162.35 23.7979 162.055C23.7944 158.588 23.7961 155.122 23.7944 151.655C23.7944 151.245 23.8039 150.839 23.6723 150.433C23.5906 150.181 23.6216 149.889 23.6207 149.614C23.6164 148.293 23.6207 146.973 23.6173 145.652C23.6173 145.353 23.5949 145.055 23.582 144.715C23.3618 144.666 23.1821 144.591 23.0024 144.59C21.4621 144.581 19.921 144.584 18.3807 144.585C18.2706 144.585 18.1597 144.588 18.0522 144.608C17.8716 144.642 17.7538 144.76 17.7349 144.939C17.7091 145.184 17.6987 145.433 17.6987 145.68C17.6953 146.973 17.7005 148.266 17.6944 149.559C17.6927 149.885 17.7426 150.222 17.5912 150.468C17.531 150.537 17.5164 150.562 17.4949 150.575C17.4726 150.589 17.4433 150.6 17.4167 150.6C15.6846 150.61 13.9517 150.619 12.2197 150.627C12.0012 150.628 11.7837 150.627 11.542 150.627C11.4956 150.499 11.4311 150.401 11.4302 150.303C11.4242 148.488 11.4242 146.672 11.4276 144.856C11.4276 144.779 11.468 144.703 11.5042 144.573C11.7372 144.556 11.9763 144.522 12.2154 144.521C13.7006 144.516 15.1867 144.521 16.6728 144.517C16.9411 144.517 17.2094 144.49 17.507 144.475C17.6351 143.939 17.568 143.445 17.5783 142.959C17.5895 142.436 17.5809 141.913 17.5809 141.391V138.375C17.8424 138.346 18.0505 138.303 18.2586 138.302C19.7989 138.296 21.34 138.3 22.8802 138.298C23.152 138.298 23.4229 138.281 23.6585 138.274C23.9054 137.997 23.8348 137.709 23.8366 137.444C23.8434 136.041 23.84 134.637 23.84 133.234C23.84 132.933 23.84 132.633 23.84 132.298C24.0361 132.254 24.1883 132.211 24.3431 132.189C24.4506 132.173 24.5624 132.184 24.6725 132.183C30.2289 132.168 35.7863 132.153 41.3427 132.139C41.6145 132.139 41.8862 132.155 42.2096 132.165C42.2354 132.409 42.2767 132.619 42.2775 132.829C42.2836 134.342 42.2793 135.855 42.2827 137.368C42.2827 137.638 42.3042 137.907 42.3171 138.223C42.5072 138.25 42.662 138.284 42.8185 138.292C43.0378 138.304 43.2588 138.297 43.479 138.297C48.9262 138.297 54.3734 138.297 59.8215 138.297C60.1492 138.297 60.4769 138.289 60.7555 138.285C60.992 138.024 60.9335 137.766 60.9344 137.525C60.9404 136.04 60.9361 134.554 60.9387 133.068C60.9387 132.798 60.9585 132.527 60.9671 132.306C61.0324 132.241 61.0496 132.217 61.072 132.202C61.0935 132.187 61.1201 132.172 61.1451 132.172C62.9046 132.16 64.6651 132.148 66.4246 132.14C66.5872 132.14 66.7497 132.165 66.9707 132.184C66.9948 132.401 67.0369 132.61 67.0378 132.82C67.0438 134.333 67.0395 135.847 67.043 137.359C67.043 137.629 67.0627 137.9 67.0739 138.179C67.3844 138.354 67.6923 138.293 67.9847 138.294C70.378 138.299 72.7714 138.298 75.1657 138.298C76.2665 138.298 77.3664 138.298 78.4672 138.298H79.2283C79.4811 138.519 79.4192 138.754 79.4201 138.965C79.4261 140.505 79.4218 142.046 79.4252 143.587C79.4252 143.857 79.4467 144.126 79.4562 144.348C79.7254 144.574 79.9825 144.514 80.2233 144.515C81.7085 144.521 83.1946 144.516 84.6807 144.52C84.9499 144.52 85.2199 144.545 85.5011 144.559C85.6568 144.877 85.6198 145.182 85.6207 145.477C85.6241 147.347 85.6224 149.219 85.6224 151.089C85.6224 152.684 85.6207 154.281 85.6241 155.876C85.6241 156.174 85.6456 156.472 85.6568 156.746C85.9191 156.952 86.1754 156.894 86.4127 156.895C87.898 156.901 89.384 156.897 90.8701 156.899C91.1419 156.899 91.4128 156.916 91.6759 156.923C91.8798 157.235 91.8006 157.546 91.8015 157.838C91.8084 160.975 91.8058 164.111 91.8058 167.248C91.8058 167.688 91.8015 168.128 91.8084 168.569C91.811 168.759 91.835 168.948 91.8488 169.122C92.136 169.358 92.4517 169.273 92.7441 169.275C94.532 169.285 96.3199 169.283 98.1079 169.286C98.0726 169.609 98.0081 169.932 98.0073 170.255C97.9995 173.197 98.0021 176.14 98.0021 179.082C98.0021 179.742 97.9978 180.402 98.0107 181.062C98.0141 181.243 98.0735 181.424 98.113 181.639C98.4545 181.647 98.7546 181.658 99.0539 181.659C100.512 181.66 101.968 181.656 103.426 181.663C103.663 181.664 103.923 181.596 104.185 181.847C104.185 182.068 104.185 182.339 104.185 182.61C104.185 184.397 104.185 186.185 104.185 187.972C104.185 189.704 104.182 191.437 104.189 193.169C104.19 193.434 104.118 193.718 104.319 193.979C104.42 193.997 104.526 194.032 104.631 194.032C106.418 194.036 108.206 194.038 109.993 194.032C110.121 194.032 110.249 193.978 110.428 193.938C110.44 193.612 110.46 193.315 110.46 193.018C110.463 190.626 110.461 188.233 110.46 185.842C110.46 184.659 110.462 183.477 110.457 182.294C110.457 182.08 110.499 181.851 110.264 181.614C110.026 181.607 109.726 181.592 109.428 181.592C107.943 181.59 106.458 181.594 104.973 181.588C104.737 181.587 104.473 181.653 104.246 181.366V175.401C104.246 174.384 104.256 173.367 104.243 172.349C104.23 171.34 104.302 170.326 104.189 169.276C103.968 169.252 103.783 169.217 103.599 169.217C101.949 169.213 100.299 169.212 98.6497 169.218C98.4622 169.218 98.2756 169.275 98.0881 169.306C98.0855 168.398 98.0812 167.49 98.0804 166.583C98.0804 157.505 98.0804 148.427 98.0786 139.348C98.0786 138.909 98.0898 138.474 97.9763 138.038C97.9084 137.778 97.9367 137.492 97.9359 137.216C97.9324 135.869 97.9367 134.52 97.9316 133.173C97.9307 132.876 97.9754 132.568 97.8069 132.276C97.5196 132.136 97.2135 132.182 96.9168 132.181C95.5692 132.176 94.2207 132.182 92.8731 132.176C92.5755 132.174 92.2668 132.232 91.9408 132.038C91.9193 131.915 91.8815 131.76 91.8686 131.602C91.8548 131.438 91.8643 131.272 91.8643 131.107C91.8643 123.542 91.8643 115.976 91.8651 108.411C91.8651 108.112 91.8789 107.814 91.8858 107.548C92.13 107.311 92.3915 107.383 92.628 107.382C94.1407 107.374 95.6543 107.382 97.167 107.375C97.4345 107.374 97.7174 107.436 98.0004 107.254C98.1259 106.989 98.0769 106.683 98.0769 106.388C98.0812 104.242 98.0795 102.097 98.0795 99.951C98.0795 96.5669 98.0795 93.1836 98.0795 89.7995C98.0795 89.4994 98.0898 89.1992 98.0967 88.8449C98.3461 88.82 98.5559 88.7804 98.7666 88.7796C100.279 88.7744 101.793 88.7778 103.306 88.7753C103.577 88.7753 103.848 88.7581 104.123 88.7486C104.311 88.4416 104.24 88.132 104.241 87.8404C104.247 85.4471 104.245 83.0537 104.245 80.6603C104.245 79.5595 104.245 78.4596 104.245 77.3588V76.5959C104.459 76.3293 104.695 76.3981 104.904 76.3973C106.445 76.3913 107.986 76.3947 109.526 76.393C109.796 76.393 110.067 76.381 110.321 76.3749C110.526 76.0146 110.457 75.6783 110.457 75.3567C110.462 71.9175 110.46 68.4793 110.46 65.0401C110.46 64.74 110.46 64.4398 110.46 64.0838C110.724 64.0563 110.934 64.0167 111.144 64.0159C112.656 64.0107 114.17 64.0141 115.683 64.0116C115.954 64.0116 116.225 63.9952 116.476 63.9866C116.695 63.7114 116.62 63.4259 116.621 63.1619C116.628 61.2088 116.625 59.2558 116.625 57.3018C116.625 55.7341 116.625 54.1654 116.625 52.5976C116.625 52.3242 116.625 52.0515 116.625 51.8365C116.839 51.5674 117.075 51.6362 117.285 51.6353C118.825 51.6293 120.366 51.6327 121.907 51.631C122.178 51.631 122.448 51.6198 122.747 51.6129C122.783 51.4048 122.823 51.2492 122.835 51.0918C122.849 50.9 122.84 50.7065 122.84 50.5147C122.84 40.9412 122.84 31.3677 122.836 21.7942C122.836 21.4441 122.907 21.0812 122.749 20.7596C122.474 20.5876 122.193 20.6469 121.924 20.6461C120.466 20.64 119.008 20.6461 117.55 20.6409C117.281 20.6409 117.011 20.6151 116.693 20.5988C116.668 20.3425 116.629 20.1326 116.628 19.9228C116.623 18.4376 116.626 16.9515 116.624 15.4663C116.624 15.167 116.611 14.8677 116.603 14.5134C116.354 14.4859 116.145 14.4429 115.936 14.442C114.423 14.436 112.909 14.4403 111.397 14.4377C111.126 14.4377 110.854 14.4214 110.556 14.4111C110.522 14.2846 110.471 14.184 110.471 14.0834C110.468 12.2679 110.47 10.4525 110.473 8.63703C110.473 8.58371 110.497 8.53039 110.51 8.47707C110.678 8.27755 110.912 8.33517 111.124 8.33431C112.334 8.32829 113.545 8.33087 114.755 8.33087C117.093 8.33087 119.432 8.32829 121.77 8.33345C122.065 8.33345 122.373 8.27841 122.65 8.41257C122.813 8.71615 122.758 9.02317 122.76 9.31901C122.766 10.7217 122.759 12.1252 122.766 13.5278C122.768 13.8245 122.706 14.1341 122.895 14.4713C123.88 14.5082 124.895 14.4842 125.91 14.4885C126.928 14.4928 127.946 14.4893 128.964 14.4885C129.955 14.4885 130.944 14.4876 131.935 14.4885C132.949 14.4893 133.963 14.4824 134.942 14.4936C135.2 14.7748 135.139 15.0612 135.139 15.3261C135.146 16.7838 135.14 18.2424 135.145 19.7001C135.145 19.9976 135.168 20.2952 135.178 20.5523C135.452 20.7647 135.707 20.7045 135.946 20.7054C137.431 20.7114 138.917 20.7071 140.403 20.7097C140.674 20.7097 140.944 20.7295 141.26 20.7415C141.284 20.9918 141.322 21.2025 141.323 21.414C141.328 22.9268 141.324 24.4404 141.327 25.9531C141.327 26.2223 141.351 26.4915 141.367 26.8114C141.646 26.8329 141.885 26.8664 142.124 26.8664C143.609 26.8716 145.095 26.8664 146.58 26.8707C146.849 26.8707 147.118 26.8922 147.382 26.9043C147.578 27.2534 147.517 27.5888 147.517 27.9105C147.522 31.212 147.521 34.5127 147.522 37.8142C147.522 38.117 147.52 38.4197 147.528 38.7224C147.531 38.8574 147.554 38.9916 147.573 39.1782C147.8 39.2031 148.008 39.2461 148.216 39.247C149.729 39.253 151.242 39.2504 152.755 39.2504C153.027 39.2504 153.298 39.2504 153.61 39.2504C153.647 39.4508 153.691 39.603 153.699 39.7578C153.713 40.0047 153.704 40.2532 153.704 40.5C153.704 47.9829 153.704 55.4657 153.706 62.9486C153.706 63.272 153.671 63.6013 153.777 63.9634C154.809 64.0606 155.822 63.9978 156.832 64.009C157.85 64.0202 158.868 64.0116 159.886 64.0116C160.904 64.0116 161.922 64.0055 162.94 64.0133C163.952 64.021 164.965 63.978 166.026 64.046C166.049 64.2945 166.084 64.5061 166.085 64.7168C166.09 66.202 166.087 67.6881 166.087 69.1733C166.087 69.4734 166.087 69.7736 166.087 70.1012C166.291 70.152 166.442 70.2113 166.597 70.2233C166.843 70.2423 167.091 70.2311 167.339 70.2311C170.723 70.2311 174.106 70.2311 177.49 70.2354C177.786 70.2354 178.09 70.1915 178.422 70.3205C178.51 70.8116 178.456 71.3044 178.465 71.792C178.473 72.2873 178.466 72.7827 178.466 73.2772V76.1788C178.683 76.448 178.919 76.3878 179.128 76.3878C180.641 76.3938 182.155 76.3913 183.668 76.3913C183.939 76.3913 184.212 76.3913 184.522 76.3913C184.574 76.583 184.639 76.731 184.651 76.8832C184.673 77.1291 184.663 77.3777 184.663 77.6254C184.663 91.2426 184.663 104.861 184.663 118.478C184.663 118.831 184.645 119.184 184.636 119.491C184.347 119.748 184.061 119.683 183.795 119.684C182.365 119.691 180.934 119.685 179.503 119.688C179.203 119.688 178.903 119.702 178.654 119.708C178.426 119.934 178.47 120.164 178.47 120.378C178.465 121.725 178.467 123.074 178.467 124.421C178.467 126.622 178.467 128.823 178.467 131.024V131.893C178.151 132.136 177.838 132.062 177.544 132.063C176.114 132.071 174.683 132.065 173.253 132.069C172.981 132.069 172.71 132.087 172.449 132.097C172.225 132.363 172.291 132.648 172.289 132.912C172.281 134.342 172.286 135.773 172.284 137.204C172.284 137.504 172.267 137.804 172.26 138.051C172.044 138.303 171.809 138.239 171.599 138.24C170.114 138.246 168.628 138.243 167.143 138.243C166.843 138.243 166.542 138.243 166.296 138.243C166.022 138.49 166.092 138.753 166.091 138.991C166.084 140.503 166.088 142.017 166.086 143.53C166.086 143.799 166.069 144.069 166.061 144.309C165.729 144.504 165.419 144.443 165.122 144.445C163.691 144.451 162.26 144.446 160.83 144.449C160.56 144.449 160.29 144.471 160.05 144.481C159.847 144.815 159.91 145.124 159.908 145.419C159.901 146.822 159.907 148.225 159.902 149.628C159.902 149.925 159.879 150.222 159.864 150.561C159.599 150.585 159.386 150.62 159.174 150.62C157.661 150.626 156.148 150.621 154.635 150.625C154.365 150.625 154.096 150.645 153.859 150.655C153.647 150.916 153.71 151.173 153.709 151.412C153.703 152.897 153.706 154.383 153.706 155.868C153.706 156.142 153.706 156.414 153.706 156.658C153.39 156.897 153.077 156.822 152.784 156.824C151.354 156.832 149.923 156.826 148.493 156.829C148.221 156.829 147.95 156.849 147.637 156.861C147.598 157.01 147.538 157.136 147.538 157.261C147.533 159.103 147.536 160.946 147.54 162.789C147.54 162.869 147.579 162.948 147.6 163.026L147.63 163.004C145.788 163.004 143.947 163.001 142.105 163.008C141.866 163.008 141.608 162.938 141.405 163.127C141.382 163.185 141.348 163.236 141.348 163.286C141.34 167.327 141.335 171.368 141.33 175.408L141.351 175.377C139.32 175.383 137.289 175.388 135.253 175.394C135.211 175.553 135.166 175.656 135.159 175.761C135.144 175.98 135.145 176.2 135.145 176.42C135.145 190.193 135.145 203.966 135.146 217.738C135.146 218.063 135.1 218.395 135.258 218.764C135.522 218.776 135.79 218.798 136.058 218.799C137.515 218.802 138.972 218.799 140.429 218.802C140.698 218.802 140.965 218.828 141.275 218.843C141.295 219.049 141.325 219.207 141.325 219.365C141.327 223.103 141.328 226.842 141.325 230.581C141.325 230.8 141.299 231.019 141.285 231.239L141.31 231.216L141.313 231.222ZM110.478 206.391C110.771 206.403 111.04 206.424 111.31 206.425C112.767 206.428 114.226 206.425 115.684 206.428C115.95 206.428 116.218 206.456 116.528 206.473C116.543 206.797 116.566 207.066 116.566 207.334C116.569 208.819 116.566 210.305 116.57 211.791C116.57 212.03 116.605 212.268 116.626 212.55C116.948 212.563 117.218 212.583 117.487 212.584C119 212.588 120.513 212.584 122.026 212.589C122.239 212.589 122.452 212.624 122.638 212.639C122.819 212.972 122.764 213.28 122.765 213.578C122.771 215.035 122.765 216.494 122.771 217.952C122.772 218.219 122.707 218.505 122.902 218.739C123.477 218.815 127.279 218.859 128.511 218.8C128.642 218.794 128.773 218.76 128.92 218.737C128.952 218.603 128.996 218.501 128.997 218.398C129 216.555 128.999 214.712 128.992 212.869C128.992 212.771 128.925 212.674 128.874 212.534C127.869 212.534 126.882 212.539 125.894 212.532C124.911 212.525 123.926 212.563 122.89 212.505C122.872 212.185 122.846 211.918 122.845 211.65C122.841 210.193 122.846 208.734 122.84 207.276C122.839 207.007 122.899 206.726 122.743 206.472C122.494 206.294 122.211 206.36 121.944 206.359C120.458 206.352 118.972 206.359 117.487 206.353C117.219 206.352 116.933 206.415 116.64 206.184C116.637 205.952 116.628 205.681 116.628 205.409C116.626 203.924 116.63 202.438 116.625 200.953C116.625 200.714 116.59 200.476 116.575 200.269C116.468 200.219 116.422 200.179 116.373 200.176C116.126 200.162 115.878 200.151 115.631 200.152C113.954 200.16 112.277 200.171 110.6 200.182C110.574 200.182 110.546 200.196 110.524 200.211C110.502 200.225 110.488 200.249 110.413 200.333C110.35 202.134 110.393 204 110.391 205.866C110.391 206.024 110.442 206.182 110.477 206.391L110.478 206.391Z" fill="#B8860B"/>
<path d="M147.603 163.033C149.309 163.042 151.014 163.053 152.719 163.062C153.02 163.064 153.32 163.062 153.565 163.062C153.825 162.849 153.766 162.614 153.767 162.403C153.773 160.89 153.77 159.377 153.77 157.863C153.77 157.592 153.77 157.32 153.77 157.099C154.024 156.834 154.286 156.907 154.522 156.906C156.036 156.898 157.548 156.905 159.062 156.899C159.33 156.898 159.612 156.958 159.855 156.811C160.047 156.585 159.981 156.327 159.982 156.087C159.989 154.629 159.986 153.171 159.986 151.713C159.986 151.412 159.986 151.111 159.986 150.845C160.306 150.591 160.62 150.687 160.911 150.686C164.24 150.678 167.569 150.681 170.898 150.681H172.155C172.432 150.431 172.361 150.169 172.362 149.932C172.369 148.474 172.365 147.016 172.366 145.558C172.366 145.258 172.366 144.959 172.366 144.722C172.598 144.466 172.831 144.526 173.043 144.525C174.199 144.518 175.354 144.521 176.51 144.521C178.903 144.521 181.297 144.521 183.691 144.52C183.99 144.52 184.29 144.508 184.534 144.502C184.807 144.258 184.742 143.995 184.743 143.757C184.749 142.243 184.745 140.73 184.748 139.217C184.748 138.947 184.767 138.677 184.779 138.368C185.007 138.342 185.191 138.303 185.375 138.303C191.125 138.299 196.876 138.3 202.626 138.302C202.787 138.302 202.949 138.322 203.162 138.336C203.187 138.568 203.229 138.777 203.23 138.986C203.236 140.527 203.23 142.068 203.236 143.609C203.237 143.877 203.175 144.158 203.363 144.468C203.571 144.484 203.811 144.518 204.051 144.519C205.097 144.525 206.142 144.521 207.188 144.521C211.7 144.521 216.212 144.521 220.724 144.524C221.048 144.524 221.379 144.485 221.704 144.592C221.853 144.896 221.809 145.202 221.81 145.497C221.815 146.901 221.809 148.304 221.815 149.707C221.817 150.005 221.76 150.313 221.914 150.617C222.392 150.746 222.889 150.666 223.379 150.679C223.901 150.693 224.425 150.682 224.947 150.682C225.442 150.682 225.937 150.676 226.433 150.684C226.921 150.692 227.413 150.645 227.939 150.727C228.051 151.775 227.978 152.788 227.994 153.797C228.009 154.785 227.982 155.773 228.008 156.707C228.267 156.958 228.528 156.898 228.768 156.9C230.226 156.906 231.684 156.902 233.142 156.904C233.441 156.904 233.74 156.92 234.04 156.929C234.247 157.232 234.189 157.542 234.191 157.834C234.198 159.238 234.192 160.64 234.195 162.044C234.195 162.343 234.214 162.642 234.225 162.992C234.473 163.018 234.681 163.059 234.89 163.06C236.404 163.066 237.916 163.064 239.43 163.064C239.702 163.064 239.973 163.064 240.285 163.064C240.321 163.267 240.363 163.421 240.372 163.575C240.385 163.822 240.377 164.071 240.377 164.319C240.377 169.738 240.376 175.159 240.378 180.579C240.378 180.903 240.331 181.235 240.443 181.527C240.689 181.72 240.946 181.662 241.187 181.663C242.673 181.669 244.158 181.664 245.644 181.668C245.913 181.668 246.182 181.695 246.49 181.71C246.521 181.911 246.558 182.066 246.567 182.224C246.58 182.443 246.574 182.664 246.574 182.884C246.574 188.249 246.574 193.614 246.573 198.979C246.573 199.333 246.557 199.687 246.547 200.089C246.284 200.115 246.073 200.153 245.861 200.153C244.347 200.158 242.835 200.155 241.321 200.157C241.05 200.157 240.779 200.174 240.47 200.186C240.436 200.375 240.393 200.529 240.384 200.684C240.371 200.931 240.379 201.18 240.379 201.428C240.379 206.82 240.378 212.213 240.378 217.605C240.378 217.933 240.378 218.261 240.378 218.552C240.098 218.802 239.813 218.737 239.547 218.738C238.061 218.744 236.576 218.738 235.089 218.744C234.82 218.745 234.538 218.685 234.281 218.852C234.143 219.194 234.198 219.555 234.197 219.909C234.192 223.265 234.195 226.622 234.192 229.979C234.192 230.305 234.174 230.631 234.163 230.952C233.856 231.17 233.547 231.117 233.254 231.118C231.823 231.124 230.393 231.121 228.962 231.122C228.689 231.122 228.417 231.134 228.202 231.138C227.947 231.355 228 231.587 227.999 231.799C227.994 233.285 227.996 234.771 227.995 236.257C227.995 236.558 227.995 236.858 227.995 237.128C227.721 237.381 227.433 237.294 227.17 237.294C224.831 237.301 222.492 237.298 220.154 237.298C218.943 237.298 217.733 237.296 216.522 237.3C216.254 237.301 215.986 237.326 215.672 237.342C215.65 237.632 215.616 237.871 215.616 238.111C215.611 239.597 215.615 241.082 215.613 242.568C215.613 242.84 215.604 243.112 215.6 243.398C215.423 243.438 215.293 243.483 215.16 243.493C214.941 243.508 214.72 243.502 214.5 243.502C204.953 243.502 195.406 243.503 185.86 243.499C185.51 243.499 185.145 243.58 184.765 243.358C184.76 243.105 184.748 242.833 184.748 242.561C184.747 241.103 184.751 239.645 184.744 238.186C184.743 237.919 184.81 237.635 184.612 237.353C183.844 237.24 183.049 237.314 182.258 237.302C181.432 237.289 180.608 237.299 179.782 237.299C178.984 237.299 178.186 237.299 177.389 237.299C176.563 237.299 175.737 237.299 174.913 237.299C174.088 237.299 173.32 237.299 172.483 237.299C172.442 237.12 172.378 236.97 172.376 236.817C172.364 236.102 172.369 235.387 172.369 234.672C172.369 231.783 172.369 228.894 172.369 226.005C172.369 225.704 172.369 225.404 172.369 225.113C172.489 225.055 172.56 224.992 172.631 224.991C174.527 224.985 176.425 224.986 178.294 224.986C178.532 225.171 178.47 225.408 178.47 225.618C178.477 227.131 178.472 228.644 178.475 230.158C178.475 230.456 178.489 230.755 178.496 231.082C178.697 231.123 178.851 231.168 179.008 231.184C179.171 231.2 179.337 231.19 179.502 231.19C185.032 231.19 190.563 231.19 196.093 231.189C196.391 231.189 196.689 231.172 196.931 231.165C197.189 230.907 197.126 230.646 197.126 230.407C197.132 228.894 197.128 227.381 197.132 225.867C197.132 225.599 197.155 225.33 197.169 225.021C197.433 225 197.646 224.971 197.858 224.97C199.372 224.966 200.885 224.97 202.398 224.966C202.667 224.966 202.935 224.94 203.226 224.924C203.252 224.774 203.288 224.671 203.288 224.568C203.288 212.407 203.286 200.247 203.28 188.085C203.28 188.011 203.231 187.936 203.189 187.817C202.708 187.732 202.215 187.784 201.727 187.776C201.231 187.767 200.736 187.774 200.241 187.774H197.317C197.064 187.532 197.135 187.27 197.133 187.034C197.126 185.521 197.133 184.007 197.126 182.494C197.126 182.225 197.187 181.942 197.017 181.696C196.758 181.546 196.477 181.601 196.207 181.6C194.776 181.595 193.346 181.6 191.915 181.595C191.617 181.594 191.311 181.637 190.973 181.495C190.953 181.291 190.916 181.082 190.916 180.871C190.911 179.385 190.915 177.9 190.913 176.414C190.913 176.115 190.899 175.816 190.891 175.484C190.694 175.449 190.539 175.407 190.382 175.397C190.163 175.383 189.942 175.392 189.722 175.392C180.175 175.392 170.628 175.392 161.081 175.394C160.728 175.394 160.367 175.342 160.023 175.455C159.852 175.744 159.913 176.054 159.912 176.351C159.905 177.782 159.91 179.212 159.907 180.643C159.907 180.915 159.891 181.186 159.883 181.418C159.636 181.659 159.376 181.592 159.138 181.593C157.624 181.6 156.111 181.593 154.598 181.6C154.331 181.601 154.048 181.537 153.79 181.713C153.767 181.787 153.73 181.863 153.723 181.94C153.71 182.104 153.711 182.269 153.71 182.434C153.689 185.9 153.669 189.365 153.646 192.831C153.644 193.129 153.697 193.436 153.555 193.701C153.296 193.919 153.009 193.848 152.744 193.85C151.34 193.857 149.937 193.85 148.534 193.857C148.237 193.859 147.926 193.8 147.618 194.011C147.594 194.114 147.544 194.243 147.538 194.374C147.523 194.676 147.526 194.978 147.526 195.281C147.526 200.646 147.526 206.011 147.523 211.376C147.523 211.728 147.581 212.089 147.428 212.465C146.786 212.608 146.128 212.519 145.477 212.534C144.817 212.549 144.156 212.537 143.496 212.537H141.488C141.45 212.339 141.404 212.185 141.396 212.029C141.381 211.754 141.391 211.478 141.391 211.203C141.391 199.647 141.391 188.092 141.389 176.537C141.389 176.152 141.367 175.769 141.355 175.384L141.334 175.415C143.136 175.511 146.866 175.472 147.523 175.345C147.658 175.044 147.603 174.711 147.603 174.388C147.608 170.925 147.605 167.462 147.608 163.998C147.608 163.668 147.626 163.339 147.635 163.01L147.605 163.032L147.603 163.033Z" fill="#B8860B"/>
<path d="M153.684 231.271C153.9 231.244 154.117 231.193 154.334 231.192C155.983 231.185 157.633 231.188 159.282 231.191C159.443 231.191 159.603 231.216 159.777 231.231C159.954 231.531 159.904 231.838 159.906 232.131C159.912 233.533 159.907 234.936 159.91 236.338C159.91 236.636 159.929 236.935 159.94 237.28C160.193 237.306 160.402 237.345 160.612 237.346C162.124 237.351 163.636 237.348 165.147 237.348C165.418 237.348 165.689 237.348 166.013 237.348C166.044 237.61 166.087 237.818 166.087 238.027C166.093 239.566 166.089 241.106 166.093 242.645C166.093 242.913 166.116 243.182 166.126 243.403C166.4 243.625 166.657 243.565 166.897 243.566C168.382 243.572 169.866 243.567 171.351 243.571C171.621 243.571 171.89 243.596 172.207 243.612C172.359 244.295 172.273 244.952 172.287 245.601C172.302 246.26 172.294 246.92 172.289 247.58C172.284 248.238 172.315 248.896 172.254 249.583C172.066 249.619 171.911 249.673 171.756 249.673C167.99 249.677 164.223 249.676 160.457 249.675C160.349 249.675 160.241 249.656 160.142 249.647C159.921 249.436 159.993 249.175 159.991 248.938C159.984 247.427 159.991 245.915 159.984 244.403C159.983 244.134 160.043 243.852 159.878 243.606C159.62 243.446 159.339 243.506 159.07 243.504C157.64 243.498 156.21 243.503 154.781 243.5C154.484 243.5 154.187 243.477 153.877 243.465C153.721 243.134 153.774 242.83 153.774 242.537C153.77 239.073 153.773 235.609 153.768 232.146C153.768 231.847 153.724 231.548 153.701 231.249L153.684 231.273V231.271Z" fill="#B8860B"/>
<path d="M172.41 206.484C172.372 206.612 172.309 206.737 172.301 206.867C172.283 207.169 172.29 207.472 172.29 207.774C172.29 213.111 172.29 218.447 172.287 223.783C172.287 224.133 172.334 224.492 172.212 224.805C172.122 224.849 172.074 224.892 172.026 224.893C170.238 224.902 168.451 224.909 166.663 224.913C166.529 224.913 166.395 224.888 166.256 224.875C166.082 224.575 166.154 224.266 166.154 223.973C166.149 219.187 166.15 214.401 166.15 209.615C166.15 208.817 166.149 208.019 166.152 207.221C166.153 207.005 166.17 206.788 166.182 206.528C166.324 206.493 166.45 206.436 166.575 206.435C168.363 206.429 170.151 206.428 171.939 206.434C172.101 206.434 172.264 206.481 172.427 206.507L172.409 206.485L172.41 206.484Z" fill="#B8860B"/>
<path d="M153.701 231.247C153.464 231.041 153.178 231.125 152.912 231.123C151.485 231.115 150.057 231.121 148.629 231.118C148.331 231.118 148.033 231.099 147.719 231.089C147.552 230.774 147.609 230.469 147.608 230.179C147.603 227.818 147.605 225.457 147.605 223.096C147.605 221.97 147.603 220.844 147.607 219.719C147.608 219.45 147.63 219.182 147.645 218.872C148.666 218.744 149.649 218.823 150.627 218.81C151.613 218.798 152.598 218.812 153.56 218.815C153.791 219.135 153.705 219.447 153.706 219.738C153.714 222.565 153.713 225.393 153.709 228.221C153.709 229.237 153.695 230.253 153.685 231.269C153.685 231.271 153.702 231.247 153.702 231.247H153.701Z" fill="#B8860B"/>
<path d="M172.428 206.506C172.302 204.45 172.401 202.394 172.369 200.349C172.493 200.291 172.564 200.228 172.637 200.228C174.529 200.223 176.423 200.224 178.355 200.224C178.394 200.357 178.462 200.481 178.462 200.606C178.467 202.418 178.463 204.23 178.46 206.042C178.46 206.096 178.436 206.148 178.417 206.229C178.167 206.423 177.856 206.353 177.565 206.355C176.11 206.362 174.654 206.355 173.199 206.362C172.933 206.363 172.647 206.282 172.41 206.484C172.412 206.486 172.428 206.507 172.428 206.507L172.428 206.506Z" fill="#B8860B"/>
<path d="M91.8662 8.4367C92.6643 8.29824 97.1819 8.30168 97.9215 8.43154C97.9439 8.5399 97.992 8.66804 97.9929 8.79618C97.998 10.5256 97.9972 12.2551 97.9937 13.9854C97.9937 14.0929 97.9611 14.2004 97.9396 14.3363C97.8424 14.369 97.7435 14.4309 97.6446 14.4309C95.8326 14.4369 94.0205 14.4352 92.2085 14.4326C92.1303 14.4326 92.0529 14.3982 91.9307 14.3698C91.8009 13.7291 91.8826 13.0738 91.8688 12.4245C91.8551 11.7658 91.8654 11.107 91.8654 10.4474V8.4367H91.8662Z" fill="#B8860B"/>
<path d="M141.288 231.245C141.479 231.226 141.669 231.19 141.859 231.19C143.533 231.186 145.207 231.187 146.88 231.19C147.042 231.19 147.203 231.213 147.405 231.227C147.444 231.364 147.511 231.489 147.511 231.613C147.518 233.369 147.517 235.124 147.514 236.88C147.514 236.985 147.472 237.089 147.443 237.222C146.786 237.365 146.13 237.278 145.48 237.292C144.795 237.307 144.108 237.302 143.422 237.294C142.772 237.286 142.119 237.333 141.429 237.251C141.414 236.93 141.393 236.662 141.392 236.393C141.388 234.939 141.393 233.485 141.386 232.031C141.385 231.761 141.34 231.49 141.314 231.221C141.313 231.221 141.288 231.244 141.288 231.244V231.245Z" fill="#B8860B"/>
</svg>
