<svg width="416" height="403" viewBox="0 0 416 403" fill="none" xmlns="http://www.w3.org/2000/svg">
<path d="M110.563 371.324C110.257 371.647 109.881 371.511 109.531 371.537C109.092 371.572 108.652 371.586 108.189 371.611C107.884 372.605 108.172 373.577 107.933 374.555C107.626 374.598 107.325 374.671 107.023 374.675C105.178 374.688 103.332 374.681 101.486 374.689C101.043 374.691 100.601 374.722 100.232 374.737C99.8266 375.219 99.9632 375.715 99.9435 376.171C99.9224 376.639 99.9393 377.11 99.9393 377.632C99.6732 377.709 99.4648 377.82 99.2565 377.822C97.0504 377.835 94.8443 377.835 92.6396 377.829C92.4242 377.829 92.2088 377.755 91.9047 377.699C91.8597 376.739 91.8174 375.815 91.7766 374.937C91.2994 374.571 90.8362 374.696 90.3969 374.694C86.9308 374.685 83.4647 374.689 79.9972 374.688C79.5073 374.688 79.0174 374.666 78.5317 374.655C78.1417 373.682 78.4824 372.697 78.2276 371.747C77.4617 371.265 76.5508 371.795 75.7836 371.381C75.5625 370.006 75.5752 366.644 75.8145 365.366C76.5551 365.07 77.3885 365.395 78.2543 365.115C78.3022 364.189 78.3501 363.27 78.4007 362.277C78.6893 362.212 78.9414 362.108 79.1948 362.105C80.3196 362.085 81.4459 362.104 82.5708 362.089C82.9185 362.084 83.2676 362.023 83.6661 361.982C83.7167 360.983 83.7618 360.062 83.8125 359.066C84.1996 359.02 84.5023 358.956 84.805 358.955C86.6507 358.943 88.4963 358.951 90.342 358.943C90.7841 358.941 91.2247 358.902 91.7583 358.876C91.8104 357.886 91.8583 356.967 91.9118 355.966C92.2496 355.906 92.5481 355.809 92.8466 355.807C94.6922 355.793 96.5379 355.799 98.3836 355.797C98.8285 355.797 99.2733 355.797 99.7478 355.797C100.086 354.754 99.9083 353.758 99.9364 352.785C99.966 351.792 99.9435 350.798 99.9435 349.742C100.259 349.651 100.504 349.532 100.756 349.513C101.33 349.47 101.906 349.475 102.483 349.46C102.728 348.812 102.639 348.228 102.641 347.667C102.648 340.53 102.645 333.394 102.647 326.258C102.647 325.69 102.668 325.124 102.679 324.544C103.525 324.098 104.364 324.477 105.219 324.188C105.258 323.882 105.34 323.534 105.34 323.186C105.348 317.676 105.348 312.167 105.341 306.657C105.341 306.302 105.278 305.949 105.236 305.498C104.396 305.444 103.602 305.393 102.845 305.346C102.535 304.727 102.654 304.136 102.652 303.572C102.641 299.584 102.648 295.597 102.645 291.608C102.645 291.037 102.625 290.466 102.616 289.906C101.779 289.439 100.932 289.857 100.083 289.525C100.042 289.204 99.9604 288.859 99.959 288.513C99.9449 286.362 99.9491 284.211 99.9435 282.059C99.9421 281.539 99.921 281.019 99.9055 280.41C99.562 280.344 99.2691 280.271 98.9735 280.236C98.4469 280.174 97.8979 280.349 97.301 280.015C97.1489 278.078 97.3291 276.091 97.1954 274.089C96.3127 273.863 95.5271 273.892 94.7063 274.042C94.3473 274.969 94.7007 275.95 94.4205 276.928C93.6279 277.174 92.8086 277.151 91.9357 276.926C91.6795 274.921 92.0061 272.924 91.7259 270.863C90.8953 270.811 90.1013 270.762 89.2481 270.707C88.975 268.674 89.2904 266.676 89.0553 264.7C88.2767 264.227 87.4236 264.702 86.5817 264.327C86.5409 264.08 86.4522 263.789 86.4493 263.495C86.4325 262.184 86.4465 260.872 86.4325 259.561C86.4282 259.157 86.3691 258.753 86.3297 258.279C85.4695 258.218 84.6769 258.162 83.8674 258.105C83.6295 257.042 83.7815 256.042 83.7364 255.059C83.69 254.073 83.842 253.074 83.6055 251.984C82.8143 251.929 82.0203 251.873 81.2235 251.817C80.8166 250.885 81.2206 249.892 80.9081 248.936C80.1634 248.468 79.2525 249 78.4007 248.54C78.3557 247.624 78.3106 246.702 78.26 245.675C77.3969 245.623 76.6015 245.573 75.7174 245.521C75.6639 244.533 75.6146 243.609 75.5625 242.664C74.7713 242.224 73.9266 242.633 73.0707 242.311C73.027 242.004 72.9609 241.663 72.9355 241.318C72.8891 240.703 73.0129 240.066 72.7863 239.417C71.0898 239.111 69.3751 239.487 67.5998 239.172C67.5548 238.214 67.5097 237.288 67.4661 236.368C66.6551 235.902 65.8034 236.363 64.9911 236.008C64.5842 235.13 65.053 234.066 64.6476 233.084C63.8578 233.028 63.0652 232.973 62.1923 232.912C62.1473 231.901 62.105 230.976 62.0586 229.945C61.2054 229.886 60.4114 229.832 59.6131 229.778C59.2049 228.846 59.6089 227.853 59.2978 226.896C58.5544 226.425 57.6422 226.964 56.8158 226.511C56.5638 224.55 56.8848 222.553 56.6116 220.487C55.7824 220.434 54.9898 220.383 54.1817 220.333C53.8931 219.294 54.0578 218.295 54.0282 217.313C53.9973 216.265 54.0184 215.215 54.0043 214.166C53.9902 213.18 53.9607 212.194 53.9367 211.194C53.1019 210.889 52.3515 211.001 51.5744 211.093C51.1281 211.98 51.5167 212.973 51.2506 213.926C50.4537 214.31 49.6203 214.028 48.8573 214.084C48.5236 213.469 48.6292 212.93 48.6264 212.418C48.6165 209.375 48.6222 206.332 48.6193 203.288C48.6193 202.77 48.6024 202.251 48.594 201.757C47.7493 201.268 46.8975 201.728 46.074 201.37C46.0317 201.213 45.9374 201.024 45.9374 200.834C45.929 197.109 45.9304 193.382 45.9346 189.657C45.9346 189.506 45.9839 189.354 46.0191 189.153C46.7821 188.64 47.693 189.167 48.5672 188.742C48.6771 187.245 48.5898 185.732 48.6222 184.224C48.6545 182.718 48.5377 181.201 48.7179 179.657C49.5372 179.296 50.3735 179.649 51.2112 179.362C51.2478 179.011 51.3139 178.66 51.3153 178.309C51.3252 176.157 51.3182 174.006 51.3238 171.855C51.3238 171.336 51.3477 170.819 51.359 170.388C51.7616 169.904 52.1896 170.063 52.5796 170.04C52.9822 170.015 53.3863 170.035 53.848 170.035C53.9128 169.682 54.0128 169.39 54.0142 169.098C54.024 164.48 54.0226 159.863 54.017 155.245C54.017 154.993 53.9579 154.74 53.9128 154.377C53.0977 154.322 52.3051 154.266 51.4913 154.21C51.1858 153.189 51.3618 152.19 51.3322 151.212C51.2999 150.163 51.321 149.113 51.3252 148.065C51.3294 147.077 51.3421 146.087 51.3505 145.095C52.1952 144.625 53.0343 145.009 53.8227 144.757C54.1451 144.315 54.017 143.769 54.0184 143.262C54.0297 139.222 54.0254 135.182 54.0268 131.14C54.0268 130.566 54.0268 129.993 54.0268 129.356C54.338 129.263 54.5829 129.142 54.8335 129.122C55.4079 129.078 55.9837 129.084 56.4976 129.071C56.5975 128.868 56.6778 128.779 56.6792 128.69C56.6989 126.068 56.713 123.446 56.72 120.822C56.72 120.512 56.6722 120.203 56.6454 119.879C55.8669 119.401 55.0151 119.875 54.1845 119.508C54.1437 119.368 54.0437 119.181 54.0437 118.994C54.0367 116.265 54.0437 113.538 54.0508 110.809C54.0508 110.709 54.0986 110.609 54.1465 110.417C54.3563 110.36 54.6026 110.253 54.8561 110.228C55.429 110.174 56.0119 110.277 56.6581 110.107C56.7045 109.134 56.7482 108.213 56.7932 107.271C57.6154 106.845 58.4573 107.247 59.2978 106.928C59.3358 106.672 59.4189 106.375 59.4189 106.078C59.4287 102.563 59.4273 99.047 59.4203 95.5321C59.4203 95.2318 59.3513 94.9315 59.3062 94.5541C58.4658 94.4951 57.6731 94.4393 56.7947 94.3785C56.7496 93.3743 56.7074 92.4488 56.6637 91.5069C55.7726 91.1673 54.9152 91.3593 54.0733 91.3281C53.1737 91.2953 52.2727 91.3232 51.3731 91.3199C50.5227 91.3166 49.671 91.31 48.8418 91.3035C48.4025 90.3189 48.8052 89.3261 48.4954 88.3646C47.7549 87.9002 46.8455 88.422 45.9867 87.9691C45.943 87.0584 45.8994 86.1329 45.8572 85.2386C45.2729 84.9006 44.7238 85.0302 44.1945 85.0302C36.3613 85.0204 28.5281 85.0237 20.6949 85.022C20.1613 85.022 19.6263 85.004 19.1139 84.9941C18.6971 84.003 19.0899 83.0102 18.7872 82.0651C18.0298 81.6023 17.119 82.1291 16.2785 81.6745C16.2306 80.7441 16.1813 79.8219 16.1292 78.8045C15.2606 78.7504 14.4666 78.7012 13.5825 78.647C13.5332 77.6493 13.4881 76.7238 13.4417 75.7655C12.6111 75.4472 11.8213 75.5752 11.0005 75.6638C10.5993 76.5762 10.9456 77.5574 10.7133 78.5338C9.92491 78.8669 9.09851 78.7553 8.26366 78.6076C8.20735 78.4238 8.12428 78.2794 8.12428 78.135C8.11443 75.4587 8.11302 72.784 8.11865 70.1076C8.11865 69.9074 8.17778 69.7089 8.21861 69.4513C9.007 69.1083 9.84044 69.4316 10.6612 69.1805C10.9794 68.2878 10.6612 67.3115 10.9146 66.3286C11.1356 66.2695 11.3848 66.1481 11.6368 66.1432C12.7617 66.1186 13.888 66.1317 15.0128 66.1186C15.362 66.1136 15.7097 66.0628 16.1264 66.0283C16.1785 65.029 16.2264 64.1101 16.2771 63.114C16.6516 63.0632 16.9514 62.991 17.2527 62.9893C19.0984 62.9778 20.9441 62.9877 22.7897 62.9811C23.2332 62.9811 23.6753 62.945 24.1483 62.9253C24.4988 61.9801 24.1497 61.0005 24.4045 60.1226C24.7424 59.7058 25.1718 59.8453 25.5618 59.842C28.2634 59.8273 30.9636 59.8355 33.6653 59.8256C34.1031 59.8256 34.541 59.7747 35.0464 59.7419C35.0703 59.1282 35.1069 58.6162 35.1055 58.1026C35.1055 57.694 35.0576 57.2838 35.0337 56.9228C34.548 56.5815 34.0876 56.698 33.647 56.6964C30.1809 56.6849 26.7148 56.6882 23.2473 56.6832C22.7602 56.6832 22.2716 56.6586 21.693 56.6439C21.6367 55.6166 21.586 54.6928 21.5339 53.7378C20.6695 53.3751 19.8122 53.5885 18.9745 53.5474C18.1242 53.5064 17.2724 53.5277 16.439 53.5212C15.9617 52.5186 16.439 51.452 16.0349 50.4871C14.3526 50.2016 12.6392 50.5839 10.8738 50.2525C10.8287 49.2827 10.7851 48.3588 10.7372 47.33C9.88408 47.2725 9.09006 47.2184 8.28618 47.1642C7.91592 46.2256 8.26084 45.2427 8.00039 44.2959C7.23453 43.8102 6.32225 44.3501 5.45361 43.8725C5.40152 41.9724 5.34943 40.0492 5.29594 38.0948C4.47798 37.6715 3.62483 38.0505 2.79562 37.6977C2.76464 37.3384 2.70833 36.9889 2.70692 36.6377C2.69848 34.4339 2.70974 32.2302 2.69707 30.0264C2.69425 29.5177 2.8111 28.9795 2.48167 28.4265C1.73129 28.374 0.940085 28.3166 0.174222 28.2624C-0.0594795 26.9021 -0.0566639 23.5087 0.174222 22.191C0.613467 21.9547 1.11466 22.0548 1.59614 22.0548C5.9182 22.045 10.2403 22.0483 14.5609 22.0433C15.048 22.0433 15.5351 22.0089 16.0546 21.9908C16.3714 21.0276 16.0518 20.0512 16.3249 19.0765C16.5615 19.0224 16.8121 18.9338 17.0669 18.9124C17.4259 18.8829 17.7863 18.9026 18.1467 18.9026C25.9348 18.9026 33.723 18.9026 41.5112 18.8993C42.0405 18.8993 42.5811 18.9781 43.1527 18.7549C43.2006 17.795 43.2456 16.8744 43.2921 15.9276C44.1396 15.5814 44.9716 15.9013 45.7825 15.6536C46.0979 14.7412 45.7642 13.7632 46.0402 12.7852C46.2725 12.7294 46.5245 12.6228 46.7765 12.6179C47.9013 12.5982 49.0276 12.6146 50.1525 12.6014C50.5002 12.5965 50.8479 12.5375 51.2534 12.4981C51.3027 11.4987 51.3477 10.5782 51.3956 9.62317C52.2431 9.28514 53.0751 9.60676 53.8945 9.35078C54.1916 8.44171 53.8818 7.46864 54.1367 6.47916C54.3605 6.41845 54.6083 6.30687 54.8589 6.29374C55.3953 6.2642 55.9331 6.28389 56.4779 6.28389C56.9073 5.33216 56.5384 4.34432 56.8172 3.36469C57.0255 3.30561 57.2733 3.19075 57.5253 3.1727C58.1011 3.13168 58.6783 3.1366 59.3457 3.12019C59.3977 2.1061 59.4456 1.18554 59.4893 0.328978C59.8806 -0.117353 60.3072 0.0204845 60.6972 0.0188436C63.4439 0.00571617 66.1892 0.0073571 68.9358 0.0073571C76.8592 0.0073571 84.7825 0.0106389 92.7058 0.0139208C93.2408 0.0139208 93.7757 0.0385347 94.3459 0.053303C94.7739 1.01817 94.3459 2.0782 94.7007 3.01845C95.5538 3.27936 96.4098 3.11691 97.2559 3.14973C98.1555 3.18419 99.0565 3.13988 99.9561 3.16778C100.801 3.19239 101.657 3.04471 102.573 3.3089C102.623 4.25735 102.67 5.17955 102.718 6.11324C103.536 6.52839 104.38 6.12636 105.202 6.43978C105.51 7.32424 105.221 8.29731 105.435 9.26381C106.22 9.71014 107.126 9.22443 107.982 9.65271C108.026 10.5683 108.071 11.4938 108.12 12.5178C108.98 12.5752 109.772 12.6277 110.578 12.6819C110.934 13.632 110.597 14.6132 110.851 15.5617C111.633 16.031 112.546 15.4895 113.39 15.967C113.431 16.8793 113.471 17.8048 113.516 18.8156C114.394 18.8763 115.186 18.9305 115.987 18.9863C116.318 19.9479 116.014 20.9242 116.246 21.8743C117.025 22.2419 117.861 21.9038 118.685 22.1549C119.08 23.0722 118.64 24.1322 119.025 25.1233C119.808 25.1742 120.601 25.2267 121.438 25.2809C121.721 27.332 121.4 29.3274 121.637 31.3014C122.439 31.7182 123.283 31.3129 124.094 31.6214C124.344 32.1531 124.25 32.7389 124.251 33.2968C124.26 38.3344 124.254 43.3721 124.258 48.4081C124.258 48.9791 124.284 49.5501 124.299 50.1638C125.127 50.6414 126.032 50.1573 126.86 50.5692C127.119 52.5415 126.797 54.5386 127.068 56.6045C127.89 56.6586 128.682 56.7095 129.555 56.7669C129.808 58.7935 129.532 60.7839 129.725 62.7793C130.522 63.1961 131.361 62.8154 132.203 63.1075C132.574 63.9968 132.163 65.052 132.524 66.0513C133.309 66.1054 134.1 66.1612 134.959 66.2203C135.217 68.255 134.921 70.2471 135.141 72.2392C135.943 72.6232 136.78 72.2753 137.628 72.5461C137.855 73.5093 137.785 74.4643 137.681 75.503C136.822 75.5621 136.032 75.6162 135.276 75.6671C135.018 76.9257 134.993 80.283 135.228 81.7845C135.594 81.8124 135.987 81.8452 136.378 81.8714C136.775 81.8977 137.172 81.9174 137.651 81.9453C137.914 83.9702 137.643 85.959 137.824 87.9576C138.649 88.4154 139.553 87.9461 140.41 88.3564C140.43 88.8322 140.446 89.2966 140.467 89.761C140.488 90.2221 140.513 90.6832 140.541 91.2313C141.407 91.292 142.198 91.3478 142.998 91.4036C143.354 92.3569 143.009 93.3399 143.278 94.2998C144.037 94.6559 144.87 94.3228 145.621 94.5476C145.928 95.5764 145.942 95.9046 145.749 97.5176C145.073 97.9984 144.252 97.5537 143.482 97.9377C143.143 98.7368 143.268 99.5918 143.413 100.565C144.186 100.629 144.931 100.69 145.697 100.754C146.059 101.758 145.69 102.8 146.018 103.834C146.408 103.861 146.802 103.889 147.195 103.916C147.592 103.942 147.987 103.966 148.396 103.993C148.753 104.948 148.413 105.929 148.673 106.884C149.43 107.271 150.269 106.897 151.11 107.184C151.484 108.077 151.069 109.132 151.432 110.131C152.216 110.186 153.009 110.24 153.865 110.3C154.127 112.337 153.827 114.331 154.048 116.313C154.849 116.73 155.691 116.331 156.515 116.634C156.874 117.545 156.486 118.595 156.82 119.586C157.635 119.636 158.429 119.685 159.297 119.737C159.349 120.758 159.396 121.68 159.444 122.617C160.268 123.003 161.104 122.648 161.915 122.916C162.249 123.823 161.932 124.801 162.173 125.768C162.947 126.219 163.857 125.712 164.711 126.157C164.753 127.069 164.797 127.995 164.845 129.015C165.709 129.074 166.5 129.13 167.306 129.184C167.662 130.134 167.323 131.116 167.582 132.071C168.336 132.464 169.177 132.08 170.036 132.384C170.078 132.643 170.165 132.932 170.168 133.224C170.185 134.535 170.171 135.848 170.182 137.159C170.186 137.568 170.235 137.976 170.269 138.472C171.122 138.531 171.915 138.585 172.793 138.646C172.844 139.64 172.892 140.561 172.94 141.501C173.756 141.913 174.598 141.522 175.416 141.818C175.816 142.727 175.356 143.79 175.764 144.784C176.148 144.804 176.547 144.824 176.945 144.848C177.341 144.873 177.735 144.903 178.209 144.935C178.236 145.485 178.259 145.945 178.281 146.406C178.304 146.868 178.326 147.331 178.349 147.797C179.172 148.216 180.016 147.81 180.832 148.125C181.157 149.01 180.841 149.988 181.081 150.954C181.856 151.406 182.765 150.899 183.62 151.343C183.662 152.256 183.706 153.181 183.753 154.202C184.618 154.261 185.409 154.315 186.214 154.371C186.569 155.321 186.231 156.302 186.485 157.244C187.266 157.728 188.183 157.172 189.022 157.659C189.062 158.572 189.105 159.499 189.15 160.505C190.031 160.564 190.824 160.618 191.615 160.67C191.972 161.635 191.619 162.62 191.903 163.566C192.661 163.941 193.5 163.571 194.325 163.85C194.697 164.763 194.293 165.816 194.646 166.819C195.051 166.842 195.45 166.861 195.847 166.886C196.242 166.911 196.638 166.94 197.11 166.973C197.162 167.981 197.21 168.903 197.259 169.836C198.075 170.252 198.917 169.851 199.773 170.173C199.811 170.562 199.863 170.959 199.884 171.359C199.906 171.778 199.879 172.199 199.904 172.618C199.939 173.213 200.136 173.443 200.663 173.506C201.149 173.561 201.637 173.583 202.096 173.619C202.618 174.556 202.305 175.549 202.502 176.458C202.693 177.347 202.614 178.315 202.659 179.347C204.395 179.643 206.102 179.346 207.808 179.547C208.219 180.514 207.785 181.572 208.163 182.559C208.961 182.606 209.755 182.655 210.621 182.708C210.673 183.732 210.719 184.654 210.767 185.581C211.591 185.998 212.434 185.591 213.249 185.911C213.572 186.795 213.258 187.773 213.497 188.742C214.284 189.158 215.176 188.722 216.003 189.062C216.358 189.944 215.973 190.949 216.356 191.912C217.978 192.104 219.635 192.015 221.309 192.12C221.713 193.101 221.309 194.155 221.658 195.146C222.461 195.197 223.255 195.248 224.087 195.3C224.371 197.356 224.046 199.353 224.288 201.324C225.093 201.739 225.937 201.332 226.759 201.649C227.066 202.534 226.777 203.507 226.992 204.471C227.777 204.924 228.685 204.427 229.539 204.862C229.584 205.774 229.631 206.698 229.679 207.675C231.434 208.004 233.146 207.637 234.845 207.912C235.171 208.853 234.875 209.827 235.097 210.776C235.873 211.17 236.712 210.797 237.548 211.081C237.927 211.977 237.506 213.034 237.876 214.033C238.661 214.086 239.453 214.136 240.336 214.196C240.384 215.195 240.427 216.117 240.474 217.064C241.292 217.451 242.128 217.107 242.949 217.366C243.302 218.255 242.96 219.236 243.232 220.236C243.446 220.285 243.694 220.388 243.943 220.393C245.068 220.421 246.194 220.415 247.319 220.438C247.669 220.444 248.018 220.505 248.339 220.538C248.676 221.519 248.296 222.512 248.669 223.478C249.457 223.529 250.251 223.582 251.045 223.633C251.406 224.597 251.054 225.582 251.333 226.53C252.09 226.908 252.929 226.535 253.789 226.831C253.83 227.108 253.907 227.4 253.91 227.692C253.924 229.003 253.913 230.316 253.923 231.627C253.926 232.036 253.969 232.444 253.995 232.869C254.796 233.294 255.656 232.859 256.389 233.25C256.611 234.472 256.678 237.717 256.52 239.208L256.551 239.182C255.722 239.257 254.894 239.333 254.03 239.41C253.872 240.424 253.886 241.332 254.01 242.295C254.889 242.536 255.724 242.459 256.558 242.37L256.513 242.318C256.577 243.345 256.64 244.372 256.706 245.439C257.586 245.708 258.422 245.626 259.259 245.518L259.207 245.45C259.242 246.075 259.274 246.702 259.312 247.327C259.336 247.736 259.367 248.145 259.395 248.55C260.22 248.959 261.064 248.542 261.907 248.898C262.19 250.836 261.904 252.829 262.122 254.813C262.915 255.23 263.76 254.831 264.559 255.133C264.967 256.054 264.503 257.12 264.921 258.118C266.56 258.179 268.212 258.24 269.886 258.302C270.274 259.245 269.902 260.238 270.189 261.142C271.001 261.595 271.908 261.08 272.765 261.539C272.808 262.452 272.849 263.379 272.895 264.393C273.765 264.455 274.556 264.511 275.381 264.57C275.667 265.598 275.457 266.602 275.561 267.576C275.661 268.509 275.699 269.449 275.766 270.407C276.481 270.885 277.293 270.473 278.06 270.796C278.436 271.712 278.074 272.752 278.328 273.743C279.099 274.134 279.938 273.763 280.77 274.045C281.149 274.946 280.731 276.003 281.103 277.008C281.491 277.031 281.888 277.053 282.284 277.079C282.679 277.105 283.074 277.135 283.519 277.166C283.803 279.206 283.482 281.201 283.716 283.18C284.517 283.595 285.36 283.195 286.169 283.495C286.572 284.411 286.109 285.474 286.523 286.472C286.904 286.493 287.303 286.511 287.701 286.537C288.095 286.564 288.488 286.595 288.892 286.626C289.136 287.702 288.994 288.702 289.026 289.686C289.06 290.735 289.02 291.785 289.043 292.834C289.065 293.818 288.934 294.816 289.167 295.882C289.979 295.94 290.769 295.996 291.611 296.056C291.861 297.625 291.699 299.14 291.735 300.643C291.77 302.154 291.702 303.67 291.775 305.198C292.612 305.621 293.451 305.249 294.31 305.544C294.352 305.874 294.432 306.217 294.433 306.562C294.445 308.765 294.435 310.969 294.443 313.173C294.445 313.688 294.366 314.221 294.615 314.788C295.399 314.837 296.193 314.886 297.063 314.938C297.115 315.954 297.163 316.876 297.213 317.812C298.026 318.232 298.87 317.828 299.688 318.138C299.947 318.778 299.814 319.466 299.835 320.129C299.855 320.757 299.838 321.387 299.844 322.017C299.849 322.693 299.864 323.368 299.875 324.07C300.718 324.571 301.628 324.055 302.451 324.492C302.707 326.461 302.381 328.46 302.657 330.514C303.482 330.572 304.273 330.627 305.127 330.686C305.337 331.723 305.219 332.716 305.243 333.694C305.267 334.682 305.267 335.672 305.277 336.676C306.113 337.107 306.952 336.733 307.809 337.027C307.852 337.299 307.922 337.59 307.936 337.884C307.96 338.407 307.933 338.934 307.959 339.457C307.988 340.058 308.185 340.289 308.706 340.356C308.974 340.391 309.245 340.374 309.516 340.396C310.262 340.455 310.394 340.598 310.439 341.405C310.521 342.865 310.595 344.326 310.677 345.786C310.683 345.885 310.732 345.98 310.79 346.173C311.525 346.61 312.436 346.093 313.286 346.546C313.329 347.458 313.373 348.382 313.421 349.373C314.791 349.603 316.09 349.445 317.383 349.493C318.679 349.541 319.98 349.396 321.287 349.595C321.643 350.532 321.292 351.515 321.579 352.519C322.397 352.745 323.246 352.611 324.084 352.637C324.933 352.663 325.782 352.662 326.658 352.672C327.074 353.659 326.658 354.716 327.011 355.676C328.709 355.976 330.423 355.597 332.188 355.919C332.237 356.88 332.283 357.803 332.334 358.786C332.601 358.843 332.813 358.927 333.024 358.927C337.931 358.933 342.838 358.933 347.745 358.928C347.92 358.928 348.095 358.882 348.318 358.851C348.666 357.949 348.307 356.967 348.593 356.003C349.412 355.574 350.319 355.842 351.196 355.802C352.039 355.765 352.893 355.732 353.799 355.868C353.851 356.894 353.896 357.817 353.946 358.772C354.804 359.043 355.594 358.935 356.409 358.874C356.775 357.937 356.408 356.953 356.705 355.973C356.92 355.919 357.171 355.806 357.423 355.801C358.548 355.779 359.674 355.797 360.799 355.784C361.148 355.781 361.496 355.725 361.908 355.689C361.958 354.69 362.004 353.771 362.055 352.773C362.429 352.722 362.729 352.65 363.03 352.647C364.876 352.635 366.722 352.645 368.567 352.637C369.009 352.637 369.453 352.599 369.988 352.576C370.023 352.063 370.06 351.611 370.082 351.159C370.106 350.693 370.116 350.227 370.129 349.846C370.475 349.391 370.857 349.498 371.204 349.496C373.05 349.486 374.896 349.496 376.741 349.486C377.179 349.485 377.618 349.439 378.115 349.409C378.166 348.389 378.211 347.468 378.26 346.477C380.016 346.147 381.725 346.513 383.457 346.237C383.744 345.315 383.44 344.341 383.695 343.397C384.451 342.964 385.29 343.354 386.154 343.084C386.195 342.783 386.261 342.44 386.286 342.094C386.332 341.479 386.219 340.845 386.417 340.191C387.204 339.851 388.039 340.192 388.887 339.912C389.146 337.949 388.847 335.955 389.075 333.963C389.864 333.524 390.703 333.912 391.563 333.627C391.602 333.327 391.666 332.984 391.69 332.637C391.733 332.024 391.621 331.389 391.825 330.741C392.622 330.429 393.455 330.752 394.289 330.476C394.566 328.507 394.244 326.512 394.48 324.517C395.268 324.08 396.108 324.462 396.934 324.198C397.254 323.274 397.058 322.273 397.092 321.299C397.125 320.306 397.099 319.312 397.099 318.256C397.413 318.161 397.658 318.041 397.908 318.022C398.483 317.977 399.06 317.984 399.689 317.968C399.958 315.905 399.652 313.911 399.881 311.919C400.677 311.493 401.516 311.881 402.35 311.588C402.686 310.741 402.361 309.763 402.598 308.793C403.38 308.371 404.205 308.565 405.04 308.652C405.387 309.609 405.035 310.592 405.322 311.537C406.078 311.916 406.918 311.537 407.774 311.837C407.815 312.119 407.891 312.411 407.894 312.705C407.908 314.016 407.895 315.329 407.908 316.64C407.912 317.047 407.966 317.452 408.001 317.923C408.87 317.977 409.662 318.028 410.493 318.081C410.763 320.147 410.446 322.144 410.698 324.11C411.502 324.521 412.348 324.098 413.187 324.456C413.225 324.792 413.297 325.14 413.299 325.49C413.31 327.641 413.303 329.792 413.309 331.943C413.31 332.46 413.339 332.979 413.358 333.528C414.164 333.958 415.005 333.568 415.858 333.875C415.9 334.078 415.993 334.318 415.995 334.557C416.003 338.23 416 341.904 415.995 345.576C415.995 345.775 415.94 345.972 415.899 346.257C415.065 346.377 414.273 346.382 413.507 346.254C413.125 345.844 413.259 345.345 413.237 344.89C413.216 344.475 413.232 344.058 413.232 343.686C412.343 343.221 412.281 343.216 410.895 343.472C410.843 343.676 410.735 343.914 410.727 344.157C410.673 345.519 410.614 346.881 410.611 348.244C410.598 353.282 410.608 358.32 410.603 363.357C410.603 363.922 410.567 364.486 410.545 365.146C409.671 365.257 408.882 365.294 408.074 365.116C407.694 364.211 408.085 363.219 407.78 362.258C407.025 361.923 406.233 362.1 405.377 362.161C405.318 362.473 405.216 362.765 405.213 363.059C405.195 364.37 405.209 365.682 405.199 366.993C405.197 367.4 405.154 367.806 405.125 368.301C404.258 368.395 403.469 368.452 402.582 368.236C402.534 367.305 402.486 366.38 402.437 365.42C401.614 365.09 400.822 365.231 400.004 365.312C399.568 366.249 400 367.305 399.657 368.314C399.264 368.342 398.87 368.369 398.477 368.398C398.083 368.428 397.69 368.459 397.232 368.495C396.965 370.533 397.217 372.523 397.017 374.575C396.172 374.637 395.384 374.694 394.573 374.755C394.218 375.707 394.548 376.685 394.291 377.653C393.497 377.979 392.641 377.786 391.804 377.819C390.953 377.852 390.102 377.825 389.201 377.825C389.122 378.211 389.029 378.498 389.011 378.792C388.968 379.46 389.044 380.139 388.909 380.892C388.072 380.946 387.282 380.997 386.475 381.05C386.108 382.01 386.457 382.991 386.198 383.907C385.812 384.253 385.346 384.112 384.911 384.113C381.4 384.126 377.887 384.123 374.376 384.125C373.931 384.125 373.486 384.125 372.989 384.125C372.912 384.514 372.825 384.801 372.804 385.096C372.757 385.762 372.851 386.443 372.688 387.197C371.49 387.338 370.327 387.249 369.167 387.265C367.997 387.28 366.826 387.259 365.656 387.272C364.496 387.285 363.333 387.211 362.162 387.328C361.803 388.317 362.138 389.297 361.883 390.224C361.437 390.549 360.928 390.406 360.45 390.406C354.327 390.419 348.204 390.414 342.082 390.418C341.592 390.418 341.103 390.434 340.612 390.442C340.164 391.404 340.525 392.387 340.285 393.38C340.077 393.434 339.831 393.524 339.579 393.555C339.311 393.588 339.039 393.565 338.769 393.565C330.846 393.565 322.921 393.565 314.998 393.562C314.509 393.562 314.011 393.636 313.439 393.404C313.391 392.49 313.342 391.566 313.296 390.682C312.841 390.293 312.376 390.429 311.941 390.428C308.475 390.414 305.008 390.419 301.542 390.414C301.052 390.414 300.56 390.395 300.08 390.383C299.61 389.397 300.092 388.329 299.683 387.366C298.387 387.165 297.084 387.313 295.789 387.269C294.497 387.224 293.197 387.366 291.826 387.162C291.778 386.159 291.735 385.236 291.687 384.207C290.832 384.151 290.038 384.098 289.237 384.046C288.864 383.104 289.215 382.118 288.949 381.174C288.183 380.694 287.27 381.23 286.424 380.767C286.378 379.848 286.331 378.925 286.279 377.902C285.413 377.848 284.619 377.801 283.766 377.746C283.49 375.715 283.803 373.715 283.565 371.711C282.758 371.404 281.969 371.522 281.11 371.624C281.055 371.944 280.966 372.238 280.962 372.533C280.944 373.897 280.956 375.262 280.942 376.626C280.938 377.033 280.882 377.44 280.851 377.822C280.155 378.359 279.357 377.911 278.64 378.36C278.452 380.185 278.176 382.019 278.222 383.982C277.323 384.222 276.472 384.094 275.633 384.117C274.783 384.14 273.933 384.13 273.091 384.135C272.602 385.129 273.051 386.189 272.696 387.193C272.302 387.218 271.908 387.243 271.514 387.269C271.12 387.295 270.724 387.325 270.254 387.357C270.076 388.404 270.074 389.395 270.214 390.364C270.375 391.465 270.364 392.536 270.224 393.639C270.107 394.564 270.13 395.514 270.091 396.446C269.684 396.855 269.215 396.706 268.781 396.707C264.729 396.72 260.678 396.719 256.626 396.72C255.231 396.72 253.834 396.711 252.439 396.72C252.043 396.724 251.648 396.78 251.311 396.806C250.907 397.482 251.085 398.133 251.028 398.744C250.971 399.371 250.812 399.597 250.274 399.617C248.659 399.676 247.054 399.906 245.431 399.881C241.604 399.822 237.778 399.866 233.951 399.856C233.466 399.856 232.963 399.973 232.394 399.648C232.352 398.777 232.307 397.853 232.263 396.965C231.754 396.566 231.244 396.722 230.764 396.722C224.822 396.711 218.879 396.714 212.935 396.714C209.154 396.714 205.372 396.714 201.589 396.714C201.098 396.714 200.608 396.694 200.127 396.683C199.659 395.698 200.134 394.632 199.727 393.654C198.934 393.544 198.149 393.508 197.277 393.701C197.226 394.684 197.179 395.605 197.134 396.468C196.982 396.563 196.906 396.653 196.828 396.653C193.632 396.678 190.436 396.696 187.241 396.707C187.021 396.707 186.801 396.645 186.569 396.611C186.192 395.698 186.566 394.707 186.282 393.772C185.541 393.314 184.687 393.796 183.848 393.414C183.808 393.227 183.714 392.987 183.714 392.748C183.708 388.025 183.714 383.303 183.72 378.58C183.72 378.427 183.766 378.275 183.804 378.037C184.035 377.973 184.284 377.851 184.535 377.845C185.66 377.82 186.786 377.835 187.911 377.822C188.26 377.817 188.609 377.769 189.029 377.737C189.081 376.737 189.127 375.817 189.178 374.824C190.919 374.483 192.628 374.837 194.277 374.609C194.608 374.148 194.487 373.659 194.5 373.206C194.512 372.74 194.474 372.272 194.456 371.734C194.218 371.662 194.014 371.545 193.81 371.544C191.559 371.532 189.307 371.537 187.056 371.544C186.924 371.544 186.792 371.593 186.586 371.632C186.528 371.898 186.428 372.185 186.411 372.477C186.375 373.145 186.379 373.818 186.365 374.561C185.971 374.606 185.668 374.671 185.365 374.671C181.277 374.657 177.186 374.735 173.119 374.602C173.04 374.348 172.957 374.202 172.955 374.058C172.933 370.333 172.917 366.608 172.909 362.883C172.909 362.684 172.972 362.486 173.013 362.243C173.813 361.895 174.648 362.243 175.48 361.971C175.863 361.122 175.451 360.123 175.794 359.156C176.572 358.817 177.434 359.04 178.267 358.973C179.112 358.904 179.961 358.915 180.815 358.891C181.098 358.28 180.993 357.693 180.994 357.135C181.004 352.097 181 347.06 181.001 342.022C181.001 341.453 181.017 340.883 181.024 340.307C181.854 339.807 182.695 340.209 183.561 339.938C183.603 339.641 183.669 339.3 183.694 338.955C183.739 338.34 183.627 337.706 183.825 337.052C184.612 336.709 185.447 337.056 186.206 336.804C186.447 335.711 186.488 332.595 186.289 330.844C185.915 330.45 185.444 330.611 185.013 330.609C181.502 330.595 177.99 330.603 174.479 330.595C173.996 330.595 173.496 330.688 172.968 330.404C172.92 329.474 172.872 328.55 172.824 327.644C172.622 327.567 172.496 327.48 172.371 327.478C169.13 327.467 165.889 327.462 162.647 327.465C162.522 327.465 162.398 327.551 162.222 327.615C161.908 328.497 162.242 329.475 161.998 330.366C161.018 330.686 157.887 330.695 156.765 330.363C156.532 328.43 156.853 326.435 156.572 324.38C155.738 324.326 154.945 324.277 154.062 324.22C154.014 323.223 153.969 322.298 153.924 321.373C153.119 320.9 152.267 321.366 151.427 320.997C151.384 320.747 151.297 320.455 151.293 320.162C151.276 318.85 151.29 317.538 151.275 316.227C151.27 315.823 151.211 315.421 151.173 314.968C150.35 314.784 149.597 314.879 148.786 314.889C148.712 315.235 148.61 315.523 148.6 315.815C148.573 316.548 148.587 317.283 148.587 318.018C148.587 324.735 148.587 331.453 148.581 338.169C148.581 338.735 148.546 339.3 148.525 339.953C147.657 340.015 146.868 340.071 146.045 340.13C145.985 340.383 145.901 340.576 145.901 340.77C145.893 344.495 145.893 348.221 145.897 351.946C145.897 352.096 145.954 352.245 145.998 352.457C146.747 352.845 147.588 352.466 148.448 352.765C148.722 353.697 148.543 354.655 148.545 355.699C147.649 355.758 146.86 355.812 146.004 355.868C145.959 356.298 145.891 356.647 145.888 356.999C145.878 359.15 145.885 361.301 145.88 363.452C145.88 363.969 145.85 364.485 145.831 365.092C144.099 365.42 142.391 365.065 140.683 365.316C140.267 366.217 140.626 367.2 140.388 368.191C140.179 368.246 139.93 368.36 139.681 368.365C138.556 368.387 137.43 368.369 136.305 368.382C135.956 368.385 135.607 368.442 135.241 368.477C134.996 369.087 135.082 369.67 135.082 370.233C135.075 375.27 135.079 380.308 135.075 385.346C135.075 385.913 135.047 386.483 135.031 387.078C134.209 387.479 133.368 387.085 132.519 387.41C132.474 387.727 132.384 388.071 132.381 388.417C132.367 390.516 132.374 392.615 132.374 394.714C132.374 395.288 132.374 395.861 132.374 396.504C132.065 396.583 131.816 396.694 131.565 396.699C130.44 396.72 129.314 396.702 128.189 396.716C127.84 396.72 127.491 396.78 127.115 396.816C126.826 397.785 127.096 398.755 126.87 399.761C126.47 399.794 126.079 399.855 125.687 399.855C123.031 399.863 120.374 399.856 117.719 399.861C117.275 399.861 116.832 399.892 116.377 399.91C115.969 400.869 116.308 401.848 116.073 402.833C115.858 402.884 115.606 402.995 115.352 402.995C111.436 403.004 107.519 403 103.602 402.99C103.343 402.99 103.083 402.915 102.741 402.862C102.694 401.894 102.649 400.97 102.6 399.963C100.847 399.699 99.1354 400.002 97.4403 399.778C97.0616 398.845 97.4164 397.859 97.1391 396.881C96.9054 396.829 96.6548 396.729 96.4028 396.724C95.2779 396.704 94.1516 396.72 93.0268 396.702C92.6804 396.698 92.3355 396.627 91.9329 396.579C91.8808 395.573 91.8329 394.651 91.7808 393.639C90.9108 393.585 90.1168 393.535 89.2763 393.483C89.2312 393.107 89.1622 392.805 89.1651 392.505C89.1693 391.885 89.082 391.253 89.2749 390.595C90.0422 390.201 90.8812 390.587 91.7104 390.288C91.9906 389.363 91.8245 388.365 91.8512 387.387C91.878 386.394 91.8569 385.401 91.8569 384.35C92.1807 384.258 92.4298 384.133 92.679 384.128C93.8039 384.105 94.9302 384.121 96.055 384.112C96.407 384.108 96.7575 384.067 97.1813 384.038C97.2348 383.037 97.2827 382.118 97.3277 381.268C97.7416 380.836 98.1668 380.977 98.5568 380.974C101.213 380.959 103.87 380.966 106.525 380.959C106.969 380.959 107.412 380.927 107.894 380.907C108.253 379.97 107.894 378.989 108.188 378.007C108.393 377.953 108.643 377.852 108.895 377.827C109.466 377.774 110.05 377.881 110.677 377.704C110.708 377.404 110.756 377.152 110.757 376.901C110.764 375.433 110.775 373.963 110.753 372.494C110.746 372.087 110.628 371.683 110.563 371.28C111.515 371.649 112.459 371.611 113.47 371.311C113.394 370.32 113.602 369.391 113.311 368.428C112.465 368.369 111.682 368.272 110.892 368.5C110.702 369.13 110.789 369.706 110.76 370.267C110.742 370.62 110.844 371.004 110.58 371.299L110.563 371.324Z" fill="#722D26"/>
</svg>
