<svg width="306" height="297" viewBox="0 0 306 297" fill="none" xmlns="http://www.w3.org/2000/svg">
<g clip-path="url(#clip0_137_5)">
<path d="M81.335 273.643C81.1103 273.882 80.8337 273.781 80.5759 273.801C80.2528 273.826 79.9297 273.837 79.589 273.855C79.3643 274.588 79.5766 275.304 79.4005 276.024C79.1747 276.056 78.9531 276.11 78.7315 276.113C77.3739 276.122 76.0162 276.117 74.6586 276.124C74.3324 276.125 74.0072 276.148 73.7359 276.159C73.4376 276.514 73.5381 276.879 73.5236 277.216C73.508 277.56 73.5205 277.907 73.5205 278.292C73.3247 278.349 73.1715 278.431 73.0182 278.432C71.3955 278.442 69.7727 278.442 68.151 278.437C67.9925 278.437 67.8341 278.382 67.6104 278.341C67.5773 277.634 67.5462 276.953 67.5162 276.306C67.1651 276.036 66.8244 276.128 66.5013 276.127C63.9517 276.12 61.4021 276.124 58.8514 276.122C58.4911 276.122 58.1307 276.107 57.7734 276.098C57.4866 275.381 57.7372 274.656 57.5497 273.955C56.9864 273.6 56.3163 273.99 55.752 273.686C55.5894 272.672 55.5987 270.195 55.7747 269.253C56.3195 269.035 56.9325 269.274 57.5694 269.068C57.6046 268.386 57.6398 267.708 57.6771 266.977C57.8894 266.928 58.0748 266.852 58.2612 266.85C59.0886 266.835 59.9171 266.849 60.7445 266.838C61.0003 266.834 61.2571 266.789 61.5502 266.759C61.5875 266.023 61.6206 265.344 61.6579 264.61C61.9427 264.576 62.1653 264.529 62.388 264.528C63.7456 264.52 65.1033 264.526 66.4609 264.52C66.7861 264.518 67.1102 264.489 67.5027 264.47C67.541 263.741 67.5762 263.064 67.6156 262.326C67.8641 262.281 68.0837 262.21 68.3032 262.209C69.6609 262.198 71.0185 262.203 72.3762 262.201C72.7034 262.201 73.0306 262.201 73.3796 262.201C73.6282 261.432 73.4977 260.698 73.5184 259.981C73.5401 259.25 73.5236 258.517 73.5236 257.739C73.7555 257.672 73.9357 257.584 74.1211 257.57C74.5436 257.539 74.9672 257.542 75.3918 257.531C75.572 257.054 75.5067 256.623 75.5078 256.21C75.5129 250.951 75.5109 245.691 75.5119 240.432C75.5119 240.014 75.5274 239.597 75.5357 239.17C76.1581 238.841 76.7753 239.12 77.4039 238.908C77.4329 238.681 77.493 238.425 77.493 238.169C77.4992 234.108 77.4992 230.049 77.494 225.988C77.494 225.727 77.4474 225.467 77.4163 225.134C76.7991 225.094 76.2151 225.057 75.6579 225.022C75.4301 224.566 75.5171 224.13 75.516 223.714C75.5078 220.776 75.5129 217.838 75.5109 214.898C75.5109 214.477 75.4964 214.056 75.4891 213.644C74.874 213.299 74.2506 213.608 73.6261 213.363C73.5961 213.126 73.536 212.872 73.535 212.617C73.5246 211.032 73.5277 209.447 73.5236 207.861C73.5225 207.478 73.507 207.095 73.4956 206.646C73.2429 206.598 73.0275 206.543 72.8101 206.518C72.4228 206.472 72.0189 206.601 71.5798 206.354C71.4679 204.928 71.6005 203.463 71.5021 201.988C70.8528 201.821 70.275 201.843 69.6712 201.953C69.4071 202.636 69.6671 203.359 69.461 204.08C68.878 204.261 68.2753 204.244 67.6332 204.079C67.4447 202.601 67.685 201.129 67.4789 199.61C66.8679 199.572 66.2838 199.535 65.6563 199.496C65.4554 197.997 65.6873 196.524 65.5144 195.068C64.9417 194.72 64.3141 195.07 63.6949 194.794C63.6648 194.611 63.5996 194.397 63.5975 194.181C63.5851 193.215 63.5955 192.247 63.5851 191.281C63.582 190.984 63.5385 190.686 63.5095 190.337C62.8768 190.292 62.2937 190.251 61.6983 190.208C61.5233 189.425 61.6351 188.688 61.602 187.964C61.5678 187.237 61.6796 186.501 61.5056 185.698C60.9236 185.657 60.3396 185.616 59.7534 185.575C59.4542 184.888 59.7514 184.156 59.5215 183.451C58.9737 183.107 58.3036 183.498 57.6771 183.16C57.644 182.485 57.6108 181.805 57.5735 181.048C56.9387 181.01 56.3536 180.973 55.7033 180.935C55.6639 180.207 55.6277 179.526 55.5894 178.829C55.0074 178.505 54.386 178.806 53.7564 178.569C53.7243 178.343 53.6756 178.092 53.657 177.838C53.6228 177.384 53.7139 176.915 53.5472 176.436C52.2993 176.211 51.038 176.488 49.7321 176.256C49.699 175.55 49.6658 174.868 49.6337 174.189C49.0372 173.846 48.4107 174.186 47.8132 173.925C47.5139 173.278 47.8587 172.493 47.5605 171.77C46.9795 171.729 46.3965 171.688 45.7544 171.643C45.7213 170.898 45.6902 170.216 45.6561 169.456C45.0285 169.413 44.4444 169.373 43.8573 169.333C43.5569 168.646 43.8542 167.915 43.6253 167.21C43.0785 166.863 42.4074 167.259 41.7996 166.926C41.6142 165.48 41.8503 164.009 41.6494 162.486C41.0394 162.448 40.4564 162.41 39.862 162.373C39.6497 161.607 39.7709 160.871 39.7491 160.148C39.7263 159.375 39.7419 158.601 39.7315 157.828C39.7211 157.102 39.6994 156.375 39.6818 155.638C39.0677 155.413 38.5157 155.496 37.9441 155.563C37.6158 156.218 37.9016 156.949 37.7059 157.652C37.1198 157.935 36.5067 157.727 35.9454 157.768C35.7 157.314 35.7776 156.918 35.7756 156.54C35.7683 154.297 35.7725 152.055 35.7704 149.812C35.7704 149.43 35.758 149.048 35.7518 148.684C35.1304 148.324 34.5039 148.662 33.8981 148.399C33.867 148.282 33.7976 148.143 33.7976 148.003C33.7914 145.258 33.7924 142.512 33.7955 139.767C33.7955 139.656 33.8318 139.543 33.8577 139.396C34.419 139.017 35.089 139.405 35.7321 139.092C35.8129 137.989 35.7487 136.874 35.7725 135.763C35.7963 134.653 35.7103 133.536 35.8429 132.398C36.4456 132.132 37.0607 132.392 37.6769 132.18C37.7038 131.921 37.7525 131.662 37.7535 131.404C37.7608 129.818 37.7556 128.233 37.7598 126.648C37.7598 126.266 37.7774 125.885 37.7856 125.567C38.0818 125.21 38.3966 125.327 38.6835 125.31C38.9797 125.292 39.2769 125.307 39.6166 125.307C39.6642 125.047 39.7377 124.831 39.7388 124.616C39.746 121.213 39.745 117.81 39.7408 114.408C39.7408 114.221 39.6973 114.035 39.6642 113.768C39.0646 113.727 38.4816 113.686 37.883 113.645C37.6583 112.892 37.7877 112.156 37.766 111.435C37.7421 110.663 37.7577 109.889 37.7608 109.116C37.7639 108.388 37.7732 107.659 37.7794 106.927C38.4008 106.581 39.018 106.864 39.5979 106.678C39.8351 106.353 39.7408 105.95 39.7419 105.576C39.7501 102.599 39.747 99.6221 39.7481 96.6437C39.7481 96.2205 39.7481 95.7984 39.7481 95.3292C39.9769 95.2603 40.1571 95.1708 40.3415 95.1563C40.764 95.1237 41.1875 95.1285 41.5655 95.1188C41.639 94.9689 41.6981 94.9036 41.6991 94.8383C41.7136 92.9059 41.724 90.9735 41.7291 89.0399C41.7291 88.8113 41.6939 88.584 41.6743 88.3446C41.1016 87.9927 40.475 88.3422 39.8641 88.0713C39.834 87.9685 39.7605 87.8306 39.7605 87.6928C39.7553 85.6818 39.7605 83.672 39.7657 81.661C39.7657 81.5873 39.8009 81.5135 39.8361 81.372C39.9904 81.3297 40.1716 81.2511 40.358 81.233C40.7795 81.1931 41.2082 81.2692 41.6836 81.1435C41.7178 80.4264 41.7499 79.748 41.783 79.0539C42.3878 78.7395 43.007 79.0357 43.6253 78.8011C43.6533 78.6125 43.7143 78.3936 43.7143 78.1748C43.7216 75.5845 43.7206 72.9931 43.7154 70.4029C43.7154 70.1816 43.6646 69.9603 43.6315 69.6822C43.0133 69.6386 42.4302 69.5975 41.784 69.5528C41.7509 68.8127 41.7198 68.1307 41.6877 67.4366C41.0322 67.1863 40.4015 67.3278 39.7822 67.3048C39.1205 67.2806 38.4577 67.3011 37.796 67.2987C37.1705 67.2963 36.544 67.2915 35.934 67.2866C35.6109 66.5611 35.9071 65.8295 35.6793 65.1209C35.1346 64.7786 34.4656 65.1632 33.8339 64.8294C33.8018 64.1583 33.7697 63.4763 33.7386 62.8172C33.3088 62.5681 32.9049 62.6637 32.5156 62.6637C26.7536 62.6564 20.9916 62.6588 15.2296 62.6576C14.8371 62.6576 14.4436 62.6443 14.0667 62.6371C13.7601 61.9067 14.0491 61.1751 13.8264 60.4785C13.2693 60.1375 12.5993 60.5257 11.981 60.1907C11.9458 59.5051 11.9096 58.8255 11.8712 58.0757C11.2323 58.0358 10.6482 57.9996 9.99787 57.9597C9.96163 57.2244 9.92849 56.5424 9.89431 55.8362C9.28332 55.6016 8.70236 55.6959 8.09861 55.7612C7.80347 56.4336 8.05823 57.1567 7.88736 57.8762C7.30743 58.1217 6.69954 58.0395 6.08544 57.9306C6.04402 57.7952 5.98292 57.6888 5.98292 57.5824C5.97567 55.6101 5.97464 53.639 5.97878 51.6667C5.97878 51.5192 6.02227 51.3728 6.05231 51.183C6.63223 50.9303 7.2453 51.1685 7.84904 50.9835C8.08308 50.3256 7.84904 49.6061 8.03544 48.8818C8.19803 48.8383 8.38133 48.7488 8.5667 48.7451C9.39413 48.727 10.2226 48.7367 11.05 48.727C11.3068 48.7234 11.5626 48.6859 11.8692 48.6605C11.9075 47.9241 11.9427 47.2469 11.98 46.5129C12.2554 46.4754 12.476 46.4222 12.6976 46.421C14.0553 46.4125 15.4129 46.4197 16.7706 46.4149C17.0968 46.4149 17.422 46.3883 17.7699 46.3738C18.0278 45.6773 17.771 44.9553 17.9584 44.3084C18.2069 44.0012 18.5228 44.104 18.8096 44.1016C20.7969 44.0907 22.7832 44.0968 24.7705 44.0895C25.0925 44.0895 25.4146 44.052 25.7864 44.0278C25.804 43.5756 25.8309 43.1983 25.8299 42.8198C25.8299 42.5187 25.7946 42.2164 25.777 41.9503C25.4198 41.6988 25.0811 41.7847 24.757 41.7835C22.2074 41.775 19.6578 41.7774 17.1071 41.7738C16.7488 41.7738 16.3895 41.7557 15.9639 41.7448C15.9224 40.9878 15.8852 40.307 15.8468 39.6032C15.211 39.3359 14.5803 39.4931 13.9642 39.4629C13.3387 39.4327 12.7121 39.4484 12.0991 39.4436C11.748 38.7047 12.0991 37.9187 11.8019 37.2076C10.5643 36.9972 9.30403 37.279 8.00541 37.0347C7.97227 36.3201 7.94017 35.6392 7.90496 34.881C7.2774 34.8387 6.69333 34.7988 6.10201 34.7589C5.82966 34.0672 6.08337 33.3429 5.89179 32.6451C5.32843 32.2872 4.65738 32.685 4.01842 32.3331C3.98011 30.9328 3.94179 29.5156 3.90244 28.0754C3.30076 27.7634 2.6732 28.0427 2.06324 27.7827C2.04046 27.5179 1.99904 27.2603 1.998 27.0015C1.99179 25.3775 2.00007 23.7535 1.99075 22.1295C1.98868 21.7546 2.07464 21.358 1.83231 20.9504C1.28034 20.9117 0.698347 20.8694 0.13499 20.8295C-0.0369162 19.827 -0.0348451 17.3263 0.13499 16.3553C0.458092 16.1811 0.826759 16.2549 1.18093 16.2549C4.36017 16.2477 7.5394 16.2501 10.7176 16.2464C11.0759 16.2464 11.4342 16.2211 11.8164 16.2077C12.0494 15.4979 11.8143 14.7784 12.0152 14.0601C12.1892 14.0202 12.3735 13.9549 12.5609 13.9392C12.825 13.9174 13.0901 13.9319 13.3552 13.9319C19.0841 13.9319 24.8129 13.9319 30.5417 13.9295C30.9311 13.9295 31.3288 13.9876 31.7492 13.8231C31.7844 13.1157 31.8176 12.4373 31.8518 11.7396C32.4752 11.4844 33.0872 11.7202 33.6837 11.5376C33.9157 10.8653 33.6702 10.1445 33.8732 9.42383C34.0441 9.38272 34.2295 9.30412 34.4148 9.30049C35.2423 9.28598 36.0707 9.29807 36.8981 9.2884C37.1539 9.28477 37.4097 9.24124 37.708 9.21221C37.7442 8.47578 37.7774 7.79739 37.8126 7.0936C38.436 6.8445 39.048 7.08151 39.6507 6.89287C39.8692 6.22294 39.6414 5.50585 39.8288 4.77667C39.9935 4.73193 40.1758 4.6497 40.3601 4.64003C40.7547 4.61826 41.1502 4.63277 41.551 4.63277C41.8669 3.9314 41.5956 3.20343 41.8006 2.48151C41.9539 2.43797 42.1361 2.35333 42.3215 2.34003C42.745 2.30979 43.1696 2.31342 43.6605 2.30133C43.6988 1.55401 43.734 0.875619 43.7661 0.244389C44.054 -0.0845285 44.3678 0.0170489 44.6547 0.0158396C46.6751 0.00616557 48.6945 0.00737482 50.7149 0.00737482C56.5431 0.00737482 62.3714 0.00979333 68.1997 0.0122118C68.5932 0.0122118 68.9867 0.0303506 69.4061 0.0412339C69.7209 0.752275 69.4061 1.53345 69.6671 2.22636C70.2946 2.41863 70.9243 2.29891 71.5467 2.3231C72.2084 2.34849 72.8712 2.31584 73.5329 2.3364C74.1542 2.35454 74.7839 2.2457 75.458 2.44039C75.4943 3.13934 75.5295 3.81894 75.5647 4.50701C76.1664 4.81295 76.7867 4.51668 77.3915 4.74765C77.6183 5.39944 77.406 6.11653 77.5634 6.82878C78.1402 7.15769 78.8071 6.79975 79.4368 7.11537C79.4689 7.79013 79.502 8.47215 79.5382 9.22673C80.171 9.26905 80.753 9.30775 81.3464 9.34765C81.6084 10.0478 81.3598 10.7709 81.5473 11.4699C82.122 11.8157 82.7941 11.4167 83.4144 11.7686C83.4445 12.4409 83.4745 13.1229 83.5076 13.8678C84.1528 13.9126 84.7358 13.9525 85.3251 13.9936C85.5684 14.7022 85.3447 15.4217 85.5156 16.1219C86.0883 16.3928 86.7034 16.1437 87.3092 16.3287C87.6002 17.0046 87.2761 17.7858 87.5599 18.5162C88.1356 18.5537 88.7187 18.5924 89.3348 18.6323C89.543 20.1439 89.3069 21.6143 89.4809 23.0691C90.0711 23.3762 90.6915 23.0775 91.2879 23.3049C91.4723 23.6967 91.4029 24.1284 91.4039 24.5395C91.4101 28.2519 91.406 31.9643 91.4091 35.6755C91.4091 36.0963 91.4277 36.5172 91.4391 36.9694C92.0481 37.3213 92.7139 36.9646 93.3229 37.2681C93.5134 38.7216 93.2763 40.1933 93.4761 41.7157C94.0809 41.7557 94.6629 41.7931 95.305 41.8355C95.4914 43.3289 95.2884 44.7957 95.4303 46.2662C96.0164 46.5733 96.6336 46.2928 97.2529 46.508C97.5263 47.1634 97.2239 47.941 97.489 48.6774C98.0669 48.7173 98.6489 48.7584 99.2806 48.802C99.4701 50.3015 99.2526 51.7695 99.4142 53.2375C100.004 53.5205 100.62 53.2641 101.244 53.4636C101.411 54.1735 101.359 54.8773 101.282 55.6427C100.651 55.6863 100.07 55.7262 99.5136 55.7637C99.3241 56.6912 99.3054 59.1653 99.4784 60.2717C99.7476 60.2923 100.037 60.3165 100.324 60.3358C100.616 60.3552 100.909 60.3697 101.261 60.3903C101.454 61.8825 101.254 63.3481 101.388 64.821C101.995 65.1583 102.66 64.8125 103.29 65.1148C103.305 65.4655 103.316 65.8077 103.332 66.1499C103.347 66.4897 103.366 66.8295 103.387 67.2334C104.024 67.2782 104.606 67.3193 105.194 67.3604C105.456 68.063 105.202 68.7873 105.4 69.4947C105.958 69.7571 106.571 69.5117 107.123 69.6773C107.349 70.4355 107.359 70.6774 107.217 71.8661C106.72 72.2204 106.116 71.8927 105.55 72.1756C105.3 72.7645 105.393 73.3946 105.499 74.1117C106.068 74.1588 106.616 74.2036 107.179 74.2507C107.445 74.9908 107.174 75.7587 107.415 76.5205C107.702 76.541 107.992 76.5616 108.281 76.581C108.573 76.6003 108.864 76.6184 109.164 76.6378C109.427 77.3416 109.177 78.0647 109.368 78.7685C109.925 79.0539 110.543 78.7782 111.161 78.9898C111.436 79.6476 111.131 80.4252 111.398 81.1616C111.975 81.2015 112.558 81.2414 113.187 81.2862C113.38 82.7868 113.159 84.2561 113.322 85.7169C113.911 86.024 114.531 85.7302 115.136 85.9539C115.4 86.625 115.116 87.3989 115.361 88.1293C115.961 88.1656 116.545 88.2019 117.183 88.2406C117.221 88.9927 117.256 89.6723 117.291 90.3628C117.897 90.647 118.512 90.3858 119.109 90.5829C119.354 91.2516 119.121 91.9723 119.298 92.6846C119.868 93.0171 120.537 92.6435 121.166 92.9712C121.197 93.6435 121.229 94.3255 121.264 95.0777C121.9 95.1212 122.482 95.1624 123.074 95.2023C123.336 95.9024 123.087 96.6255 123.277 97.3293C123.832 97.6196 124.45 97.3366 125.082 97.5603C125.113 97.7514 125.177 97.9642 125.179 98.1794C125.192 99.1456 125.182 100.113 125.19 101.079C125.193 101.38 125.229 101.681 125.254 102.047C125.882 102.09 126.465 102.13 127.111 102.175C127.148 102.908 127.183 103.586 127.218 104.279C127.819 104.582 128.438 104.295 129.04 104.512C129.334 105.182 128.996 105.966 129.296 106.699C129.579 106.713 129.872 106.728 130.165 106.746C130.456 106.764 130.746 106.786 131.095 106.81C131.114 107.215 131.131 107.554 131.148 107.893C131.164 108.234 131.181 108.575 131.197 108.919C131.803 109.227 132.423 108.928 133.024 109.161C133.263 109.812 133.03 110.533 133.207 111.245C133.777 111.578 134.446 111.204 135.074 111.532C135.105 112.204 135.138 112.886 135.173 113.639C135.809 113.682 136.391 113.722 136.983 113.763C137.244 114.463 136.995 115.186 137.182 115.881C137.757 116.237 138.431 115.827 139.048 116.186C139.078 116.859 139.109 117.542 139.142 118.283C139.79 118.327 140.374 118.367 140.955 118.405C141.219 119.116 140.959 119.842 141.168 120.54C141.725 120.815 142.342 120.543 142.949 120.749C143.222 121.421 142.925 122.198 143.185 122.936C143.483 122.953 143.776 122.968 144.068 122.986C144.359 123.004 144.65 123.026 144.997 123.05C145.036 123.793 145.071 124.472 145.107 125.16C145.708 125.466 146.327 125.171 146.957 125.408C146.985 125.695 147.023 125.987 147.038 126.283C147.054 126.591 147.034 126.902 147.053 127.21C147.079 127.649 147.224 127.818 147.611 127.864C147.968 127.905 148.328 127.921 148.665 127.948C149.05 128.638 148.819 129.37 148.964 130.04C149.104 130.695 149.046 131.409 149.08 132.169C150.357 132.387 151.612 132.168 152.867 132.317C153.169 133.029 152.85 133.809 153.128 134.536C153.715 134.571 154.299 134.607 154.936 134.646C154.974 135.4 155.008 136.08 155.044 136.763C155.649 137.07 156.27 136.77 156.869 137.006C157.106 137.658 156.876 138.379 157.052 139.092C157.63 139.399 158.287 139.078 158.895 139.328C159.156 139.979 158.873 140.719 159.155 141.428C160.348 141.57 161.567 141.505 162.798 141.582C163.095 142.305 162.798 143.081 163.055 143.812C163.645 143.849 164.229 143.887 164.841 143.926C165.05 145.441 164.811 146.912 164.989 148.365C165.582 148.671 166.202 148.371 166.807 148.604C167.032 149.256 166.82 149.973 166.979 150.684C167.555 151.018 168.223 150.651 168.852 150.972C168.885 151.644 168.919 152.325 168.955 153.044C170.246 153.288 171.505 153.017 172.755 153.22C172.994 153.913 172.777 154.631 172.94 155.33C173.511 155.62 174.128 155.346 174.743 155.555C175.022 156.215 174.712 156.994 174.985 157.73C175.562 157.769 176.145 157.807 176.794 157.85C176.829 158.587 176.861 159.266 176.895 159.964C177.497 160.249 178.112 159.995 178.716 160.186C178.976 160.842 178.724 161.565 178.924 162.301C179.081 162.338 179.264 162.414 179.447 162.417C180.274 162.438 181.103 162.433 181.93 162.45C182.188 162.455 182.445 162.5 182.681 162.524C182.929 163.247 182.649 163.979 182.923 164.691C183.503 164.728 184.087 164.767 184.672 164.804C184.937 165.516 184.678 166.241 184.883 166.94C185.44 167.218 186.057 166.944 186.69 167.161C186.72 167.366 186.777 167.581 186.779 167.796C186.789 168.762 186.781 169.73 186.788 170.696C186.79 170.997 186.822 171.298 186.841 171.611C187.43 171.925 188.063 171.604 188.603 171.892C188.765 172.793 188.815 175.184 188.699 176.283L188.722 176.263C188.112 176.319 187.503 176.375 186.867 176.431C186.751 177.179 186.761 177.848 186.852 178.557C187.499 178.735 188.113 178.678 188.727 178.613L188.694 178.574C188.74 179.331 188.787 180.088 188.836 180.874C189.483 181.073 190.098 181.012 190.713 180.932L190.675 180.883C190.701 181.343 190.725 181.805 190.752 182.266C190.77 182.567 190.793 182.868 190.814 183.167C191.42 183.468 192.041 183.161 192.661 183.423C192.869 184.851 192.659 186.321 192.82 187.783C193.403 188.09 194.024 187.796 194.612 188.019C194.912 188.697 194.571 189.483 194.878 190.218C196.084 190.263 197.299 190.308 198.531 190.354C198.816 191.049 198.542 191.781 198.753 192.447C199.351 192.781 200.018 192.401 200.649 192.739C200.68 193.412 200.71 194.095 200.744 194.842C201.384 194.888 201.966 194.929 202.573 194.973C202.783 195.73 202.629 196.47 202.705 197.188C202.779 197.875 202.807 198.568 202.855 199.274C203.381 199.626 203.979 199.323 204.543 199.561C204.82 200.236 204.554 201.002 204.74 201.733C205.308 202.02 205.925 201.747 206.537 201.955C206.815 202.619 206.508 203.398 206.781 204.139C207.067 204.156 207.359 204.172 207.65 204.191C207.941 204.21 208.231 204.232 208.558 204.255C208.767 205.758 208.531 207.229 208.703 208.687C209.293 208.993 209.913 208.698 210.508 208.919C210.804 209.594 210.464 210.378 210.768 211.113C211.049 211.129 211.342 211.142 211.635 211.161C211.925 211.181 212.214 211.204 212.511 211.227C212.69 212.02 212.586 212.756 212.609 213.482C212.634 214.255 212.605 215.028 212.622 215.801C212.638 216.527 212.542 217.262 212.713 218.048C213.311 218.09 213.892 218.131 214.511 218.176C214.695 219.332 214.576 220.448 214.602 221.556C214.628 222.67 214.578 223.787 214.632 224.913C215.247 225.225 215.864 224.95 216.496 225.168C216.527 225.411 216.586 225.664 216.587 225.918C216.595 227.542 216.588 229.166 216.594 230.79C216.595 231.17 216.537 231.563 216.721 231.98C217.298 232.016 217.882 232.052 218.522 232.091C218.56 232.84 218.595 233.519 218.631 234.208C219.23 234.518 219.85 234.221 220.452 234.449C220.643 234.921 220.545 235.427 220.561 235.916C220.575 236.379 220.563 236.843 220.567 237.308C220.571 237.806 220.581 238.303 220.59 238.82C221.21 239.189 221.879 238.81 222.485 239.131C222.673 240.582 222.433 242.055 222.636 243.569C223.243 243.612 223.825 243.653 224.453 243.696C224.608 244.46 224.521 245.192 224.538 245.913C224.556 246.641 224.556 247.37 224.563 248.11C225.178 248.428 225.796 248.152 226.426 248.369C226.457 248.569 226.509 248.784 226.519 249C226.537 249.386 226.517 249.774 226.536 250.16C226.558 250.602 226.703 250.773 227.086 250.822C227.283 250.848 227.483 250.836 227.681 250.851C228.23 250.895 228.328 251 228.361 251.595C228.421 252.671 228.476 253.748 228.536 254.824C228.54 254.896 228.576 254.966 228.619 255.109C229.159 255.431 229.829 255.05 230.455 255.384C230.487 256.056 230.519 256.737 230.554 257.467C231.562 257.636 232.518 257.52 233.468 257.555C234.422 257.591 235.379 257.484 236.34 257.63C236.602 258.321 236.344 259.045 236.555 259.785C237.157 259.952 237.781 259.853 238.398 259.872C239.022 259.892 239.646 259.891 240.291 259.898C240.597 260.626 240.291 261.405 240.551 262.112C241.799 262.333 243.061 262.054 244.358 262.291C244.395 263 244.429 263.679 244.466 264.403C244.663 264.446 244.818 264.507 244.973 264.507C248.584 264.512 252.193 264.512 255.803 264.509C255.931 264.509 256.059 264.475 256.224 264.452C256.48 263.787 256.216 263.064 256.426 262.353C257.029 262.037 257.696 262.234 258.341 262.205C258.961 262.177 259.589 262.153 260.256 262.253C260.294 263.009 260.327 263.69 260.363 264.394C260.995 264.593 261.576 264.514 262.176 264.469C262.445 263.778 262.174 263.053 262.393 262.331C262.551 262.291 262.736 262.207 262.921 262.204C263.749 262.188 264.577 262.201 265.405 262.192C265.661 262.189 265.917 262.148 266.221 262.122C266.257 261.385 266.291 260.708 266.328 259.973C266.604 259.935 266.824 259.882 267.046 259.88C268.404 259.871 269.761 259.878 271.119 259.872C271.444 259.872 271.77 259.845 272.164 259.828C272.19 259.449 272.217 259.117 272.233 258.783C272.251 258.439 272.258 258.096 272.267 257.815C272.522 257.48 272.803 257.559 273.058 257.558C274.416 257.551 275.774 257.558 277.131 257.551C277.453 257.549 277.777 257.516 278.142 257.494C278.179 256.742 278.213 256.063 278.249 255.333C279.54 255.09 280.797 255.359 282.071 255.156C282.282 254.477 282.059 253.758 282.246 253.063C282.802 252.744 283.419 253.032 284.055 252.832C284.085 252.611 284.134 252.358 284.153 252.103C284.186 251.649 284.103 251.183 284.249 250.7C284.828 250.45 285.442 250.701 286.065 250.495C286.256 249.048 286.036 247.579 286.204 246.111C286.784 245.787 287.401 246.074 288.034 245.863C288.063 245.642 288.11 245.389 288.127 245.134C288.159 244.682 288.076 244.214 288.227 243.736C288.813 243.506 289.426 243.745 290.039 243.541C290.243 242.09 290.006 240.62 290.18 239.149C290.76 238.828 291.377 239.109 291.985 238.915C292.22 238.234 292.076 237.496 292.101 236.778C292.126 236.046 292.106 235.314 292.106 234.536C292.337 234.466 292.517 234.378 292.701 234.363C293.124 234.331 293.549 234.335 294.011 234.323C294.209 232.803 293.984 231.334 294.152 229.866C294.738 229.552 295.356 229.838 295.969 229.622C296.216 228.998 295.977 228.277 296.151 227.562C296.727 227.252 297.334 227.394 297.948 227.458C298.202 228.163 297.944 228.888 298.155 229.584C298.711 229.864 299.329 229.584 299.959 229.806C299.989 230.014 300.045 230.229 300.047 230.445C300.057 231.411 300.048 232.379 300.057 233.345C300.06 233.645 300.1 233.944 300.125 234.291C300.764 234.331 301.347 234.368 301.958 234.407C302.157 235.929 301.924 237.401 302.11 238.85C302.701 239.153 303.323 238.841 303.941 239.105C303.969 239.353 304.021 239.609 304.022 239.867C304.031 241.452 304.025 243.037 304.03 244.622C304.031 245.003 304.052 245.386 304.066 245.791C304.659 246.107 305.277 245.82 305.905 246.046C305.936 246.196 306.004 246.372 306.005 246.549C306.012 249.255 306.01 251.963 306.005 254.669C306.005 254.815 305.965 254.96 305.935 255.171C305.322 255.259 304.739 255.263 304.176 255.168C303.895 254.866 303.993 254.498 303.977 254.164C303.961 253.858 303.974 253.55 303.974 253.276C303.319 252.934 303.274 252.93 302.255 253.119C302.216 253.269 302.137 253.444 302.13 253.623C302.091 254.627 302.048 255.63 302.045 256.635C302.036 260.348 302.043 264.06 302.039 267.772C302.039 268.188 302.013 268.604 301.997 269.091C301.354 269.173 300.774 269.199 300.179 269.069C299.9 268.401 300.188 267.671 299.963 266.962C299.408 266.716 298.825 266.846 298.195 266.891C298.152 267.121 298.077 267.336 298.075 267.552C298.062 268.519 298.072 269.486 298.065 270.452C298.063 270.752 298.032 271.051 298.01 271.416C297.372 271.485 296.792 271.527 296.14 271.368C296.104 270.682 296.069 270 296.033 269.292C295.427 269.049 294.845 269.153 294.243 269.213C293.922 269.903 294.24 270.682 293.988 271.426C293.699 271.446 293.409 271.466 293.12 271.487C292.83 271.509 292.541 271.532 292.204 271.559C292.008 273.061 292.193 274.527 292.046 276.039C291.425 276.085 290.845 276.127 290.248 276.172C289.987 276.873 290.229 277.594 290.041 278.307C289.457 278.548 288.827 278.405 288.211 278.43C287.586 278.454 286.959 278.434 286.296 278.434C286.238 278.719 286.17 278.93 286.157 279.147C286.125 279.639 286.181 280.139 286.082 280.695C285.466 280.734 284.885 280.772 284.291 280.811C284.021 281.518 284.278 282.241 284.087 282.916C283.804 283.171 283.461 283.067 283.141 283.068C280.558 283.078 277.974 283.076 275.392 283.077C275.064 283.077 274.737 283.077 274.372 283.077C274.315 283.363 274.25 283.575 274.235 283.793C274.201 284.284 274.27 284.785 274.15 285.34C273.269 285.444 272.413 285.379 271.56 285.391C270.699 285.402 269.838 285.386 268.977 285.396C268.124 285.406 267.269 285.351 266.407 285.437C266.143 286.166 266.389 286.888 266.202 287.572C265.874 287.811 265.5 287.706 265.148 287.706C260.644 287.715 256.14 287.712 251.636 287.714C251.276 287.714 250.917 287.726 250.555 287.732C250.226 288.441 250.491 289.165 250.315 289.897C250.162 289.937 249.981 290.003 249.795 290.026C249.598 290.051 249.399 290.034 249.2 290.034C243.371 290.034 237.542 290.034 231.714 290.031C231.355 290.031 230.988 290.086 230.568 289.915C230.532 289.242 230.496 288.561 230.462 287.909C230.127 287.622 229.786 287.723 229.466 287.722C226.916 287.712 224.365 287.715 221.816 287.712C221.455 287.712 221.094 287.697 220.741 287.689C220.395 286.962 220.749 286.175 220.449 285.465C219.495 285.318 218.537 285.426 217.584 285.394C216.634 285.361 215.678 285.465 214.669 285.315C214.634 284.576 214.602 283.895 214.567 283.137C213.938 283.096 213.354 283.057 212.765 283.019C212.49 282.325 212.748 281.598 212.553 280.903C211.989 280.548 211.318 280.944 210.696 280.603C210.662 279.925 210.627 279.245 210.589 278.491C209.952 278.451 209.368 278.416 208.741 278.376C208.538 276.879 208.767 275.405 208.592 273.929C207.999 273.703 207.418 273.79 206.786 273.865C206.746 274.1 206.681 274.317 206.678 274.535C206.664 275.539 206.674 276.546 206.663 277.55C206.66 277.85 206.619 278.15 206.596 278.432C206.084 278.827 205.497 278.497 204.97 278.829C204.831 280.173 204.628 281.525 204.662 282.972C204.001 283.148 203.375 283.054 202.758 283.071C202.133 283.088 201.507 283.08 200.888 283.084C200.528 283.817 200.859 284.598 200.598 285.338C200.308 285.356 200.018 285.374 199.728 285.394C199.438 285.413 199.147 285.435 198.801 285.459C198.671 286.231 198.668 286.961 198.772 287.674C198.89 288.486 198.882 289.275 198.779 290.088C198.693 290.77 198.71 291.47 198.681 292.157C198.382 292.458 198.037 292.348 197.718 292.349C194.737 292.359 191.757 292.358 188.777 292.359C187.75 292.359 186.723 292.352 185.697 292.359C185.406 292.361 185.115 292.403 184.867 292.422C184.57 292.92 184.701 293.4 184.659 293.85C184.617 294.312 184.5 294.479 184.104 294.493C182.916 294.537 181.736 294.706 180.542 294.688C177.727 294.644 174.912 294.677 172.098 294.67C171.74 294.67 171.371 294.756 170.952 294.516C170.921 293.874 170.888 293.193 170.856 292.539C170.481 292.245 170.106 292.36 169.753 292.36C165.382 292.352 161.011 292.354 156.638 292.354C153.857 292.354 151.075 292.354 148.293 292.354C147.931 292.354 147.571 292.34 147.217 292.331C146.873 291.606 147.222 290.82 146.923 290.099C146.339 290.018 145.762 289.991 145.121 290.134C145.083 290.858 145.048 291.537 145.015 292.173C144.903 292.243 144.847 292.309 144.79 292.309C142.439 292.328 140.089 292.341 137.738 292.349C137.576 292.349 137.415 292.303 137.244 292.278C136.966 291.606 137.242 290.875 137.033 290.186C136.488 289.849 135.859 290.204 135.242 289.922C135.213 289.785 135.144 289.608 135.144 289.431C135.14 285.951 135.144 282.471 135.148 278.991C135.148 278.878 135.182 278.766 135.21 278.59C135.38 278.543 135.563 278.454 135.748 278.449C136.575 278.431 137.403 278.442 138.231 278.432C138.488 278.428 138.745 278.393 139.053 278.369C139.091 277.633 139.126 276.954 139.163 276.223C140.444 275.971 141.701 276.232 142.914 276.064C143.157 275.724 143.068 275.364 143.077 275.03C143.087 274.687 143.059 274.342 143.045 273.946C142.87 273.892 142.72 273.807 142.57 273.805C140.914 273.797 139.258 273.801 137.602 273.805C137.505 273.805 137.408 273.842 137.256 273.871C137.214 274.067 137.14 274.278 137.128 274.493C137.101 274.986 137.104 275.481 137.094 276.029C136.804 276.062 136.581 276.11 136.359 276.11C133.351 276.099 130.342 276.157 127.35 276.059C127.292 275.872 127.231 275.764 127.23 275.658C127.213 272.913 127.202 270.168 127.196 267.423C127.196 267.277 127.242 267.13 127.272 266.951C127.861 266.695 128.475 266.951 129.087 266.751C129.368 266.125 129.066 265.389 129.318 264.677C129.89 264.426 130.524 264.591 131.137 264.541C131.758 264.491 132.383 264.499 133.012 264.481C133.22 264.031 133.142 263.598 133.143 263.187C133.15 259.475 133.147 255.762 133.148 252.05C133.148 251.63 133.16 251.21 133.165 250.786C133.776 250.417 134.394 250.714 135.031 250.514C135.062 250.295 135.111 250.044 135.129 249.79C135.162 249.336 135.08 248.869 135.226 248.387C135.805 248.134 136.419 248.391 136.977 248.204C137.154 247.399 137.184 245.103 137.038 243.812C136.762 243.522 136.417 243.641 136.1 243.639C133.517 243.628 130.933 243.635 128.35 243.628C127.995 243.628 127.628 243.697 127.239 243.488C127.204 242.803 127.169 242.122 127.134 241.454C126.984 241.397 126.892 241.333 126.8 241.332C124.416 241.324 122.032 241.32 119.647 241.322C119.555 241.322 119.464 241.385 119.335 241.432C119.104 242.083 119.349 242.804 119.17 243.46C118.449 243.696 116.146 243.702 115.321 243.458C115.149 242.033 115.385 240.563 115.179 239.049C114.565 239.009 113.982 238.973 113.332 238.931C113.297 238.197 113.264 237.514 113.231 236.832C112.639 236.484 112.012 236.828 111.394 236.556C111.363 236.372 111.299 236.157 111.295 235.94C111.283 234.974 111.293 234.006 111.282 233.04C111.279 232.743 111.235 232.447 111.207 232.113C110.602 231.977 110.048 232.047 109.451 232.055C109.397 232.31 109.322 232.521 109.314 232.737C109.295 233.277 109.305 233.819 109.305 234.361C109.305 239.31 109.305 244.261 109.301 249.21C109.301 249.628 109.275 250.044 109.259 250.525C108.62 250.571 108.041 250.612 107.435 250.655C107.391 250.842 107.329 250.984 107.329 251.127C107.323 253.872 107.323 256.618 107.326 259.363C107.326 259.473 107.368 259.583 107.401 259.739C107.951 260.026 108.57 259.747 109.202 259.967C109.404 260.654 109.273 261.36 109.274 262.129C108.615 262.172 108.034 262.212 107.405 262.253C107.372 262.57 107.322 262.828 107.32 263.087C107.313 264.672 107.318 266.257 107.314 267.843C107.314 268.224 107.292 268.603 107.277 269.051C106.004 269.292 104.747 269.031 103.491 269.216C103.185 269.88 103.449 270.605 103.274 271.335C103.121 271.375 102.937 271.459 102.754 271.463C101.926 271.479 101.098 271.466 100.271 271.475C100.014 271.478 99.7569 271.52 99.4877 271.545C99.3075 271.995 99.3707 272.424 99.3707 272.839C99.3655 276.552 99.3686 280.264 99.3655 283.976C99.3655 284.395 99.3448 284.814 99.3334 285.253C98.7286 285.548 98.1104 285.258 97.4859 285.498C97.4528 285.731 97.3865 285.985 97.3844 286.24C97.3741 287.787 97.3792 289.333 97.3792 290.88C97.3792 291.303 97.3792 291.725 97.3792 292.199C97.1514 292.257 96.9681 292.34 96.7838 292.343C95.9564 292.359 95.1279 292.346 94.3005 292.355C94.0436 292.359 93.7868 292.403 93.5103 292.429C93.298 293.144 93.4968 293.858 93.3301 294.6C93.036 294.624 92.7481 294.669 92.4602 294.669C90.5061 294.675 88.5519 294.67 86.5988 294.674C86.2726 294.674 85.9464 294.697 85.6119 294.71C85.3116 295.416 85.5612 296.138 85.3882 296.863C85.2298 296.901 85.0444 296.983 84.858 296.983C81.977 296.989 79.096 296.987 76.2151 296.98C76.0245 296.98 75.8329 296.924 75.5813 296.885C75.5471 296.172 75.514 295.491 75.4777 294.748C74.1884 294.554 72.9292 294.778 71.6823 294.612C71.4037 293.925 71.6647 293.198 71.4607 292.478C71.2888 292.439 71.1045 292.365 70.9191 292.361C70.0917 292.347 69.2632 292.359 68.4358 292.346C68.181 292.342 67.9273 292.29 67.6311 292.255C67.5928 291.514 67.5576 290.834 67.5193 290.088C66.8793 290.048 66.2952 290.012 65.677 289.973C65.6438 289.696 65.5931 289.474 65.5952 289.252C65.5983 288.795 65.5341 288.33 65.6759 287.845C66.2403 287.555 66.8575 287.839 67.4675 287.619C67.6736 286.937 67.5514 286.201 67.5711 285.481C67.5907 284.749 67.5752 284.018 67.5752 283.242C67.8134 283.175 67.9967 283.083 68.18 283.079C69.0074 283.062 69.8359 283.074 70.6633 283.067C70.9222 283.065 71.1801 283.034 71.4918 283.013C71.5311 282.275 71.5663 281.598 71.5995 280.971C71.9039 280.653 72.2167 280.757 72.5035 280.755C74.4577 280.744 76.4118 280.749 78.3649 280.744C78.6911 280.744 79.0173 280.72 79.3715 280.705C79.6356 280.015 79.3715 279.292 79.588 278.569C79.7391 278.529 79.9224 278.454 80.1078 278.436C80.5283 278.397 80.958 278.476 81.4189 278.345C81.4416 278.124 81.4769 277.939 81.4779 277.754C81.4831 276.671 81.4913 275.588 81.4748 274.506C81.4696 274.206 81.3826 273.908 81.335 273.611C82.035 273.883 82.7299 273.855 83.4734 273.634C83.4175 272.903 83.5708 272.219 83.3564 271.509C82.734 271.466 82.1583 271.394 81.5773 271.562C81.4375 272.027 81.5017 272.451 81.4799 272.865C81.4665 273.125 81.5421 273.408 81.3474 273.625L81.335 273.643Z" fill="#8C3809" fill-opacity="0.83"/>
</g>
<defs>
<clipPath id="clip0_137_5">
<rect width="306" height="297" fill="white"/>
</clipPath>
</defs>
</svg>
