<svg width="647" height="686" viewBox="0 0 647 686" fill="none" xmlns="http://www.w3.org/2000/svg">
<path d="M476.403 228.237C479.704 224.982 483.006 221.727 487.256 217.537C486.474 220.545 486.024 222.271 485.42 224.595C487.847 223.595 489.638 222.859 492.538 221.666C489.482 224.404 486.8 225.999 485.353 228.355C484.199 230.234 484.549 233.037 484.23 235.431C486.181 235.59 488.278 236.292 490.057 235.816C499.934 233.163 504.61 225.335 509.237 216.232C506.44 216.792 504.552 217.168 503.741 217.331C515.71 208.689 528.45 199.493 541.192 190.297C535.206 199.62 524.948 204.073 517.669 211.758C510.347 219.488 503.853 228.001 496.573 236.675C499.573 237.108 502.511 237.533 505.609 237.981C503.391 240.407 501.144 242.868 498.218 246.071C505.686 245.96 511.003 243.182 515.539 239.414C524.29 232.142 532.601 224.341 541.147 216.818C543.252 214.966 545.554 213.342 548.074 211.992C540.072 223.674 528.527 231.406 517.627 239.953C520.226 238.605 522.827 237.256 525.427 235.906C525.574 236.136 525.723 236.368 525.87 236.597C518.946 241.44 512.023 246.285 504.051 251.861C506.63 251.125 508.016 250.73 510.429 250.041C509.02 251.857 508.195 253.058 507.232 254.137C499.934 262.33 490.813 268.128 481.629 273.924C470.309 281.068 459.27 288.655 448.029 295.928C444.269 298.362 440.269 300.421 436.612 303.17C442.965 302.718 447.364 297.785 452.892 295.453C453.103 295.812 453.313 296.171 453.524 296.53C444.981 301.467 436.436 306.403 427.893 311.338C428.935 309.482 429.975 307.628 431.079 305.663C415.255 303.684 402.461 308.142 399.129 317.338C407.798 320.888 415.75 319.374 423.316 314.345C422.111 316.196 420.903 318.047 419.003 320.963C423.652 320.167 427.555 319.497 431.273 318.858C429.192 320.429 428.595 324.33 423.907 323.434C422.514 323.167 418.347 324.059 418.814 328.189C418.897 328.921 417.089 329.833 416.204 330.715C411.742 335.159 407.297 339.62 403.369 344.68C411.614 343.486 417.833 338.721 424.395 334.645L424.283 334.616C421.986 336.815 419.66 338.988 417.402 341.229C416.323 342.301 415.37 343.504 414.867 345.25C426.049 338.3 437.23 331.35 448.411 324.401L448.403 324.393C447.668 325.261 447.05 326.278 446.178 326.972C442.351 330.023 437.942 332.52 436.032 338.178C451.666 334.178 466.687 330.54 479.812 321.152C491.425 312.846 503.972 305.953 518.15 302.747C519.476 302.448 520.859 302.409 522.285 302.507C494.022 312.642 470.125 329.636 447.569 349.619C449.845 349.722 452.003 349.819 453.963 349.907C448.875 353.114 443.621 356.427 438.368 359.741C438.547 360.15 438.725 360.559 438.904 360.967C440.905 360.772 442.905 360.577 445.73 360.303C441.556 362.933 438.008 365.165 434.462 367.399C434.569 367.639 434.674 367.879 434.781 368.121C438.234 366.886 441.687 365.649 445.14 364.414C427.775 374.444 408.618 381.065 392.204 392.644C392.476 393.179 392.746 393.715 393.018 394.25C403.176 390.072 413.331 385.891 423.489 381.713C433.639 377.536 443.787 373.361 453.937 369.184C454.218 369.659 454.5 370.135 454.781 370.611C447.822 374.878 440.001 378.377 438.478 387.609C450.383 382.137 462.095 376.754 473.809 371.372C469.997 375.351 465.354 378.249 464.364 384.874C471.338 382.005 477.679 379.156 484.205 376.819C487.137 375.769 490.161 374.276 493.711 376.491C495.045 377.323 498.072 375.822 500.168 374.984C510.504 370.858 520.758 366.525 531.098 362.405C540.931 358.487 550.931 355.118 561.703 355.184C564.355 355.201 567.005 355.59 569.674 356.163C551.1 360.337 530.452 358.431 516.222 374.393C516.347 374.892 516.471 375.393 516.594 375.892C520.143 375.585 523.694 375.282 527.25 374.976C522.636 376.767 517.939 378.388 513.419 380.408C510.133 381.878 509.403 385.002 510.782 387.98C512.38 391.432 515.881 390.955 518.102 389.195C523.17 385.181 527.756 380.556 532.537 376.179C532.252 375.833 531.965 375.486 531.68 375.139C530.15 375.073 528.617 375.007 527.087 374.94C553.271 369.624 578.628 359.098 606.097 361.888C606.175 362.412 606.253 362.938 606.332 363.463C599.842 364.268 593.338 364.98 586.865 365.896C572.935 367.867 558.98 369.717 545.123 372.111C540.707 372.875 536.581 375.23 534.318 379.614C549.712 381.446 564.733 381.286 579.194 374.973C582.117 373.697 585.633 373.786 589.005 373.818C573.668 379.724 557.255 382.967 543.645 394.793C549.596 395.074 554.675 395.315 559.758 395.556C559.846 395.896 559.932 396.235 560.021 396.572C550.166 398.713 540.277 400.713 530.467 403.037C520.535 405.392 510.679 408.071 500.984 411.517C510.791 413.45 519.961 410.806 529.16 408.434C538.441 406.04 547.722 403.637 557.126 401.744C528.954 411.296 500.009 416.991 469.557 418.692C472.975 422.832 477.058 423.766 481.04 423.337C488.801 422.499 496.544 421.231 504.183 419.616C513.519 417.642 522.724 415.065 532.02 412.891C534.3 412.358 536.71 412.372 539.059 412.136C539.15 412.535 539.242 412.933 539.334 413.33C532.066 415.368 524.912 418.071 517.511 419.317C497.866 422.629 478.118 425.314 458.407 428.238C457.426 428.383 456.005 428.04 455.504 428.583C451.086 433.383 445.562 434.154 439.512 433.433C439.078 433.381 438.579 433.899 437.782 434.332C439.271 435.386 440.497 436.254 442.059 437.357C441.277 437.783 440.846 438.215 440.403 438.23C431.155 438.499 421.896 438.571 412.654 438.988C402.581 439.443 392.527 440.405 382.45 440.77C375.655 441.017 368.631 441.617 362.079 440.268C351.785 438.146 342.607 441.22 333.205 444.004C317.618 448.618 301.967 453.04 286.513 458.071C278.409 460.709 270.673 464.467 262.509 467.825C262.651 467.411 262.795 466.984 263.119 466.042C229.41 474.826 201.965 495.433 171.799 510.536C171.927 511.192 172.055 511.848 172.18 512.504C174.349 512.503 176.885 513.246 178.626 512.383C196.129 503.705 213.529 494.813 230.901 485.874C237.607 482.425 244.17 478.696 251.792 474.556C248.53 477.759 246.032 480.212 243.534 482.662C243.704 482.984 243.873 483.305 244.043 483.626C250.657 481.615 257.291 479.659 263.885 477.581C299.884 466.24 336.58 458.433 374.212 454.922C393.911 453.084 413.498 450.055 433.197 448.201C440.855 447.481 448.678 448.512 456.425 448.747C456.437 449.403 456.447 450.058 456.459 450.714C450.353 451.31 444.257 452.252 438.138 452.441C406.115 453.434 374.647 458.687 343.382 465.097C299.13 474.17 256.125 487.562 214.133 504.168C206.856 507.044 199.97 510.904 192.871 514.235C186.549 517.2 180.357 520.572 173.791 522.865C160.845 527.384 149.538 534.838 137.905 541.745C119.159 552.875 100.068 563.538 83.6579 578.092C73.3279 587.253 63.5288 597.013 53.3747 606.376C51.1119 608.465 48.5702 610.566 45.767 611.67C42.4568 612.973 38.1407 613.484 36.1186 609.864C34.9978 607.857 36.2429 604.531 36.4573 601.219C35.0703 601.571 32.83 602.048 30.6486 602.719C28.8829 603.261 27.131 604.688 25.4759 604.541C23.2937 604.347 20.6244 603.517 19.2784 601.981C18.255 600.815 18.3072 597.816 19.0682 596.186C20.1049 593.968 22.1138 592.103 23.9827 590.393C31.3333 583.669 38.7943 577.063 46.2114 570.414C45.3867 571.658 44.7373 573.076 43.7075 574.117C36.8056 581.106 29.8477 588.042 22.8524 594.936C20.6349 597.122 20.1557 599.218 22.586 601.504C25.04 603.814 26.5004 602.119 28.1557 600.281C33.9699 593.825 39.9252 587.495 45.7533 581.051C64.5044 560.321 84.5537 540.935 105.844 522.829C113.398 516.404 120.938 509.963 128.798 503.263C126.869 501.259 125.43 499.764 123.659 497.927C121.693 499.653 119.831 501.146 118.129 502.803C103.84 516.713 89.6678 530.742 75.2738 544.542C68.6213 550.921 61.5564 556.875 54.6779 563.02C58.08 559.083 61.4802 555.143 64.8822 551.205C64.6655 550.97 64.4491 550.733 64.2302 550.498C61.5668 552.689 58.8465 554.817 56.2479 557.081C47.6556 564.561 39.1063 572.09 30.5375 579.596C29.5738 580.442 28.6234 581.305 27.6153 582.094C20.6893 587.513 18.8379 587.179 14.8886 579.75C12.9262 580.865 10.9983 582.042 8.99696 583.08C5.08968 585.107 2.84784 583.837 3.9072 579.572C4.77725 576.071 7.0144 572.73 9.27654 569.808C11.4108 567.052 14.3707 564.933 17.1665 562.349C16.3687 561.436 15.8759 560.808 15.3173 560.243C11.3997 556.281 10.5215 552.326 14.1207 548.101C18.1337 543.389 23.0723 539.44 27.774 535.352C30.0177 533.4 32.6423 531.887 35.099 530.18C37.8074 528.298 39.7606 526.424 38.1819 522.478C37.5705 520.95 38.5795 518.204 39.7253 516.662C41.9983 513.599 44.8162 510.923 47.5185 508.197C65.0635 490.502 82.6721 472.87 100.165 455.123C102.443 452.812 104.573 450.169 106.074 447.313C109.389 441.011 112.906 435.098 120.091 432.518C120.72 432.293 121.281 431.725 121.739 431.199C133.877 417.215 146.021 403.237 158.096 389.196C159.842 387.167 161.233 384.833 163.366 382.91C161.563 386.601 160.082 390.493 157.904 393.947C147.416 410.584 136.75 427.111 126.113 443.657C124.776 445.739 123.233 447.693 125.779 450.481C127.768 447.566 129.552 444.7 131.58 442.02C149.819 417.898 163.705 391.226 177.304 364.371C186.901 345.415 196.897 326.661 206.342 307.631C216.836 286.485 224.196 264.117 231.016 241.573C231.467 240.079 231.729 238.522 231.994 236.979C232.161 236.021 232.17 235.037 231.586 233.608C230.532 234.949 229.478 236.29 228.216 237.895C232.423 224.489 236.535 211.377 240.648 198.266C241.215 198.367 241.78 198.467 242.347 198.567C242.327 201.486 242.711 204.479 242.203 207.312C241.177 213.051 240.149 218.867 238.274 224.363C229.339 250.543 221.228 277.083 210.663 302.601C201.467 324.813 189.379 345.83 178.585 367.38C177.157 370.233 175.816 373.131 174.436 376.009C174.768 376.219 175.097 376.426 175.429 376.637C180.318 369.557 185.935 362.866 189.985 355.332C221.377 296.905 245.018 235.634 256.053 169.964C257.452 161.648 256.502 152.943 256.717 144.419C256.814 140.525 257.092 136.633 257.336 131.803C262.304 138.591 263.935 145.199 264.006 152.308C264.204 171.859 260.202 190.843 256.028 209.774C249.783 238.108 241.011 265.684 230.518 292.722C229.879 294.369 229.349 296.059 229.322 297.976C234.631 289.911 242.076 283.48 244.133 273.181C245.758 265.044 249.741 257.399 252.373 249.436C257.877 232.778 263.133 216.036 268.592 199.363C270.533 193.431 272.768 187.594 274.867 181.715C275.398 181.931 275.926 182.144 276.457 182.359C268.898 205.703 261.339 229.047 253.78 252.391C266.302 230.052 273.839 205.897 281.305 181.714C281.788 181.861 282.271 182.011 282.755 182.158C279.123 194.243 275.491 206.325 271.859 218.409C272.299 218.619 272.742 218.827 273.183 219.036C275.75 213.53 279.708 208.243 280.608 202.477C282.797 188.438 288.161 175.617 293.38 162.664C294.979 158.693 296.33 154.58 298.352 150.832C302.325 143.469 306.689 136.315 311.8 129.239C311.315 131.619 311.058 134.074 310.306 136.366C306.663 147.477 302.664 158.476 299.259 169.657C297.768 174.554 297.396 179.79 296.515 184.871C296.904 184.926 297.294 184.983 297.681 185.039C309.058 158.852 320.436 132.667 331.813 106.48C332.144 106.583 332.477 106.687 332.808 106.788C332.308 108.239 331.86 109.711 331.302 111.14C326.004 124.691 320.574 138.191 315.459 151.808C314.183 155.207 313.91 158.981 313.178 162.584C313.827 162.798 314.476 163.012 315.125 163.226C317.466 158.965 320.31 154.896 322.051 150.402C326.011 140.181 329.335 129.717 333.104 119.419C334.91 114.482 336.96 109.614 339.256 104.887C340.251 102.836 342.141 101.218 344.403 99.974C341.705 105.409 338.837 110.769 336.369 116.309C334.579 120.328 332.996 124.506 331.955 128.769C331.305 131.435 331.589 134.417 331.902 137.207C332.252 140.317 333.926 140.787 336.658 139.141C344.994 134.121 349.922 126.349 353.951 117.911C357.146 111.219 359.903 104.319 363.013 97.5832C364.424 94.528 366.219 91.6494 368.715 89.1307C366.179 94.5436 363.648 99.9571 361.104 105.366C360.556 106.529 360.052 107.721 359.39 108.815C353.933 117.845 352.357 127.794 351.446 138.147C350.936 143.947 348.27 149.558 346.575 155.255C346.391 155.871 346.2 156.487 346.753 157.812C347.81 156.984 349.25 156.372 349.865 155.293C356.402 143.798 363.459 132.532 369.069 120.59C375.062 107.836 379.59 94.3999 384.93 81.3321C385.602 79.6873 387.444 78.5548 388.526 77.0314C389.234 76.0365 389.679 74.798 390.015 73.6055C392.216 65.8067 394.355 57.9899 396.513 50.1782C396.931 50.2257 397.35 50.271 397.768 50.3185C397.498 52.649 397.483 55.0448 396.916 57.3015C393.818 69.6109 390.359 81.8333 387.468 94.19C385.36 103.19 383.932 112.346 382.222 121.438C382.132 121.916 382.255 122.435 382.28 122.934C382.698 123.013 383.113 123.092 383.532 123.169C388.94 103.471 394.348 83.7712 399.754 64.073C400.183 64.1697 400.612 64.2687 401.041 64.3655C400.133 79.1974 390.549 92.9799 394.653 108.102C412.843 92.1798 420.619 71.1464 423.017 47.5368C423.606 47.7083 424.193 47.8817 424.782 48.0532C424.773 49.4712 424.917 50.9108 424.728 52.3055C423.176 63.6748 419.934 74.4787 415.418 85.0989C411.496 94.3245 409.155 104.224 406.006 114.165C411.074 112.202 417.739 104.282 422.792 93.0587C426.504 84.8095 429.197 76.1012 432.345 67.5978C432.899 67.694 433.453 67.7902 434.007 67.8864C433.803 70.6779 434.276 73.7488 433.263 76.2038C430.338 83.2853 427.4 90.4877 423.375 96.9625C417.782 105.962 412.28 114.844 409.318 125.159C408.316 128.644 405.775 131.658 404.34 135.058C403.301 137.52 402.922 140.26 402.247 142.876C402.755 143.136 403.262 143.394 403.77 143.654C409.93 136.608 416.093 129.562 422.254 122.516C422.641 122.83 423.028 123.143 423.413 123.458C419.827 128.299 416.473 133.333 412.612 137.946C401.729 150.953 390.425 163.612 379.73 176.768C374.833 182.793 370.973 189.662 366.642 196.146L367.96 197.269C372.321 193.292 376.685 189.312 381.07 185.311C381.327 187.035 381.581 188.749 381.895 190.855C388.832 187.647 393.415 182.661 397.15 176.91C400.954 171.054 404.329 164.921 407.975 158.961C411.685 152.896 415.706 147.083 422.245 143.538C415.066 161.367 398.905 173.295 391.287 191.662C390.587 190.373 390.268 189.784 389.694 188.731C385.736 192.797 380.833 195.544 379.046 201.635C377.94 205.407 375.031 208.651 372.762 212.412C378.703 211.119 381.038 205.821 385.213 202.619C384.098 205.007 382.983 207.396 381.867 209.787C382.064 210.098 382.261 210.41 382.456 210.721C384.815 209.464 387.695 208.698 389.423 206.849C393.189 202.825 396.761 198.502 399.711 193.856C409.117 179.047 418.252 164.073 430.346 151.205C431.415 150.066 432.578 149.014 433.732 147.96C433.891 147.816 434.245 147.887 434.671 147.84C434.338 148.563 434.098 149.231 433.743 149.833C428.8 158.233 424.295 166.938 418.76 174.931C412.931 183.345 406.326 191.255 399.684 199.062C388.701 211.971 377.765 224.95 366.106 237.232C360.613 243.019 353.488 247.256 346.992 252.282C351.098 254.327 354.516 251.291 357.865 249.167C361.393 246.927 364.555 244.112 368.527 241.049C365.096 246.239 362.147 250.701 359.2 255.163C359.529 255.505 359.856 255.846 360.184 256.188C363.955 253.39 368.258 251.085 371.396 247.7C379.996 238.425 388.185 228.763 396.394 219.131C408.404 205.04 420.25 190.809 432.296 176.751C433.226 175.664 435.22 175.528 436.664 174.836C437.607 174.385 438.636 173.899 439.31 173.145C448.977 162.305 458.515 151.35 468.253 140.573C471.93 136.502 476.033 132.811 479.941 128.946C480.352 129.297 480.766 129.649 481.177 129.999C478.764 133.27 476.352 136.543 473.737 140.09C482.237 135.278 490.439 130.636 498.638 125.994L499.664 127.369C497.738 129.271 495.954 131.349 493.862 133.046C485.899 139.504 477.558 145.526 469.884 152.309C461.042 160.121 452.497 168.314 444.329 176.828C439.379 181.99 435.783 188.221 436.692 196.633C445.616 191.829 453.56 186.821 459.324 178.595C465.448 169.859 471.994 161.382 478.899 153.254C482 149.605 486.424 147.085 490.248 144.052C490.605 144.448 490.963 144.841 491.321 145.236C489.707 147.116 488.15 149.045 486.475 150.867C479.724 158.202 472.749 165.342 466.217 172.865C459.438 180.673 453.949 189.333 451.191 199.471C450.928 200.434 450.678 201.4 450.484 202.376C450.406 202.767 450.492 203.19 450.533 204.608C454.099 203.455 457.338 202.406 460.721 201.311C455.514 207.839 450.244 214.448 444.461 221.701C446.329 221.172 447.393 220.872 449.255 220.344C445.685 224.133 442.685 227.316 439.686 230.5C439.896 230.748 440.107 230.998 440.317 231.245C441.978 229.946 443.725 228.746 445.282 227.335C455.286 218.262 465.241 209.137 475.232 200.048C478.068 197.468 480.774 194.682 483.897 192.503C486.271 190.846 488.844 188.881 492.36 190.909C493.338 191.474 495.482 190.018 498.168 189.136C496.774 191.004 496.07 192.308 495.045 193.267C482.266 205.212 469.637 217.333 456.567 228.954C444.083 240.055 431.528 251.007 422.58 265.363C420.861 268.121 419.355 271.011 417.751 273.839C418.058 274.095 418.365 274.35 418.672 274.607C421.055 272.161 424.042 270.072 425.723 267.214C438.542 245.428 458.192 230.47 477.083 214.617C485.888 207.228 493.612 198.558 501.871 190.514C504.676 187.78 507.613 185.18 511.072 183.128C506.072 188.38 501.072 193.635 496.073 198.887C496.413 199.305 496.752 199.725 497.092 200.143C499.52 198.952 501.949 197.759 504.994 196.265C496.227 203.196 487.797 209.452 479.842 216.261C471.828 223.121 464.933 231.031 460.872 241.145C466.074 236.778 471.278 232.411 476.479 228.05C473.09 231.748 469.348 235.182 466.418 239.206C463.726 242.903 461.836 247.201 459.772 251.325C459.428 252.01 459.742 253.761 460.201 253.953C461.082 254.325 462.523 254.303 463.318 253.797C469.226 250.031 474.699 245.69 477.89 239.268C479.778 235.47 481.08 231.384 480.511 226.54C478.703 227.284 477.554 227.756 476.406 228.23L476.403 228.237Z" fill="#796235" fill-opacity="0.4"/>
<path d="M424.363 192.396C424.415 191.847 424.468 191.298 424.609 189.84C415.006 201.626 404.117 211.339 396.408 223.837C398.171 223.375 399.758 222.668 400.76 221.471C407.206 213.766 413.523 205.952 419.882 198.175C419.263 199.728 418.523 201.247 418.048 202.842C417.005 206.36 416.098 209.92 415.135 213.463C415.622 213.623 416.11 213.782 416.596 213.942C425.5 200.642 434.402 187.345 443.306 174.046C441.768 174.772 440.634 175.813 439.553 176.91C434.481 182.063 429.425 187.232 424.363 192.396Z" fill="#796235" fill-opacity="0.4"/>
<path d="M154.048 451.93C153.185 453.141 152.535 454.617 151.422 455.52C146.234 459.726 140.914 463.771 135.646 467.877C132.978 469.956 132.837 473.331 135.801 474.598C137.243 475.214 139.5 473.922 141.039 473.573C140.647 475.16 140.117 477.31 139.587 479.461C139.909 479.577 140.234 479.691 140.556 479.806L189.449 435.745C189.712 436.023 189.975 436.301 190.24 436.579C188.995 437.827 187.783 439.112 186.498 440.319C172.912 453.07 159.27 465.759 145.778 478.605C143.963 480.334 140.135 482.506 143.296 485.442C146.201 488.143 147.833 484.215 149.527 482.534C156.288 475.825 162.913 468.978 169.59 462.185C168.755 463.436 168.017 464.77 167.067 465.926C161.288 472.955 155.429 479.919 149.681 486.973C148.704 488.173 148.123 489.701 146.744 492.186C150.174 491.248 152.266 490.675 154.363 490.105C153.822 492.624 153.283 495.144 152.516 498.721C154.364 497.642 155.228 497.264 155.948 496.7C160.417 493.194 164.803 489.579 169.317 486.132C174.401 482.248 179.96 478.904 184.637 474.592C190.443 469.24 195.215 462.764 201.027 457.418C231.593 429.307 262.343 401.398 293.03 373.42C292.193 374.66 291.555 376.121 290.485 377.108C276.572 389.945 262.49 402.597 248.669 415.533C236.41 427.006 224.426 438.775 212.32 450.416C212.602 450.757 212.883 451.099 213.164 451.44C251.371 420.58 289.579 389.719 328.115 358.594C327.854 359.538 327.612 360.067 327.579 360.61C327.478 362.183 327.46 363.761 327.408 365.336C328.885 365.104 330.584 365.261 331.799 364.57C337.253 361.471 341.815 357.656 342.773 350.783C343.38 346.427 344.641 342.163 345.708 337.424C344.316 337.766 342.97 338.033 341.662 338.423C330.044 341.894 320.463 348.686 311.676 356.79C307.616 360.535 303.48 364.199 299.378 367.899C304.006 362.27 308.632 356.643 313.26 351.014C313.033 350.657 312.806 350.303 312.579 349.946C310.558 350.304 308.534 350.643 306.516 351.025C305.574 351.203 304.252 351.964 303.772 351.594C300.604 349.136 298.389 351.265 296.28 353.069C262.776 381.735 229.3 410.435 195.842 439.155C189.067 444.972 182.399 450.913 175.68 456.8C176.427 455.833 177.042 454.721 177.938 453.921C205.425 429.319 232.894 404.698 260.472 380.195C271.435 370.454 282.671 361.018 293.704 351.355C294.685 350.494 295.087 348.968 295.758 347.75C295.196 347.323 294.636 346.897 294.074 346.47C267.112 368.955 240.152 391.44 213.345 413.796C213.29 413.573 213.125 412.891 212.96 412.207C211.44 412.565 210.224 412.85 208.061 413.359C210.209 411.461 211.541 410.191 212.971 409.034C228.685 396.321 244.487 383.714 260.117 370.899C270.778 362.157 281.229 353.156 291.706 344.191C293.004 343.081 293.882 341.479 294.954 340.107C294.687 339.824 294.42 339.541 294.154 339.258C292.913 340.037 291.627 340.753 290.44 341.605C254.284 367.521 220.086 395.871 186.486 424.973C177.028 433.167 167.416 441.18 157.874 449.276C158.339 448.604 158.71 447.838 159.284 447.277C172.287 434.514 185.722 422.157 198.234 408.932C213.877 392.397 228.903 375.27 243.918 358.154C250.848 350.254 257.469 342.019 263.515 333.431C265.911 330.031 266.368 325.265 267.708 321.121C267.261 320.956 266.815 320.789 266.366 320.623C265.882 321.093 265.36 321.529 264.92 322.037C245.263 344.721 226.044 367.806 205.835 389.986C186.48 411.23 166.512 431.959 143.814 449.819C140.045 452.785 136.764 456.44 133.62 460.091C132.374 461.539 132.114 463.837 131.405 465.747C131.955 466.174 132.506 466.599 133.057 467.026C140.055 461.999 147.053 456.972 154.051 451.944L154.048 451.93Z" fill="#796235" fill-opacity="0.4"/>
<path d="M222.168 332.068C221.739 331.76 221.312 331.452 220.883 331.146C218.153 334.148 215.242 337.003 212.724 340.173C197.758 359.022 182.828 377.903 167.998 396.86C159.324 407.948 149.749 418.315 142.779 430.767C140.079 435.593 137.824 440.896 133.617 444.988C131.486 447.061 130.301 450.293 129.218 453.197C128.509 455.102 128.748 457.359 128.561 459.458C129.163 459.686 129.764 459.912 130.366 460.139C176.371 412.64 215.188 359.812 246.498 301.406C244.313 303.364 242.396 305.576 240.998 308.081C238.293 312.937 236.043 318.047 233.322 322.891C214.978 355.532 191.132 384.061 166.409 411.902C162.306 416.523 157.334 420.371 152.764 424.575C153.551 422.451 154.917 420.893 156.206 419.274C174.932 395.768 193.771 372.35 212.271 348.667C216.204 343.631 218.898 337.627 222.163 332.069L222.168 332.068Z" fill="#796235" fill-opacity="0.4"/>
<path d="M116.617 436.647C111.954 444.264 112.294 451.109 113.446 457.872C117.594 482.208 130.951 501.122 149.093 517.031C151.718 519.334 155.022 521.03 158.263 522.422C165.445 525.509 172.586 523.767 176.263 518.717C144.576 500.473 124.226 473.894 116.619 436.647L116.617 436.647Z" fill="#796235" fill-opacity="0.4"/>
<path d="M156.32 501.314C160.114 504.425 163.611 504.713 166.811 502.178C173.164 497.14 179.67 492.281 185.83 487.018C207.472 468.525 229.031 449.932 250.552 431.298C269.984 414.472 291.355 400.34 312.75 386.234C316.57 383.715 317.555 380.288 315.706 375.953C315.09 376.325 314.449 376.634 313.897 377.058C295.51 391.186 277.026 405.184 258.785 419.498C239.751 434.434 221.052 449.794 202.02 464.733C189.935 474.217 177.439 483.179 165.279 492.568C162.084 495.036 159.445 498.228 156.317 501.318L156.32 501.314Z" fill="#796235" fill-opacity="0.4"/>
<path d="M185.725 490.303C186.426 490.209 186.917 490.287 187.209 490.083C195.445 484.315 204.747 480.488 212.84 474.178C227.399 462.824 243.207 453.076 258.437 442.575C279.462 428.083 301.298 414.952 324 403.269C329.685 400.343 335.275 397.059 341.267 394.962C345.282 393.557 347.5 391.21 349.875 387.244C348.172 387.758 347.265 388.011 346.365 388.305C320.849 396.64 297.812 410.115 274.523 423.048C252.643 435.199 232.911 450.366 213.924 466.564C204.654 474.473 195.284 482.264 185.725 490.303Z" fill="#796235" fill-opacity="0.4"/>
<path d="M218.029 471.879C218.282 472.357 218.536 472.838 218.789 473.316C230.236 468.607 241.564 463.571 253.18 459.321C259.096 457.157 264.593 454.643 269.969 451.299C293.131 436.893 314.538 420.168 335.502 402.82C336.062 402.356 336.414 401.635 336.861 401.035C294.335 420.041 255.871 445.449 218.029 471.879Z" fill="#796235" fill-opacity="0.4"/>
<path d="M356.676 426.234C354.521 425.978 352.209 424.93 350.969 425.673C335.412 434.993 318.514 441.305 301.268 446.159C269.878 454.99 239.471 466.17 210.26 480.59C200.432 485.441 190.685 490.526 181.276 496.134C175.956 499.306 171.396 503.755 166.493 507.629C166.811 508.082 167.129 508.534 167.446 508.987C168.647 508.298 169.861 507.629 171.046 506.917C184.091 499.071 196.682 490.317 210.268 483.559C239.104 469.215 270.112 460.566 300.792 451.181C317.42 446.095 334.145 441.327 350.747 436.164C352.274 435.689 353.395 433.49 354.404 431.902C355.215 430.624 355.574 429.058 356.673 426.236L356.676 426.234Z" fill="#796235" fill-opacity="0.4"/>
<path d="M345.382 271.504C345.039 271.212 344.696 270.921 344.351 270.63C343.425 271.189 342.46 271.694 341.58 272.317C331.95 279.145 322.333 285.99 312.718 292.842C312.158 293.243 311.581 293.677 311.165 294.215C308.947 297.078 306.836 300.023 304.58 302.855C302.034 306.052 299.11 308.978 296.813 312.34C291.681 319.854 287.017 327.689 281.822 335.157C277.079 341.974 271.887 348.477 266.126 356.138C268.342 354.829 269.597 354.238 270.682 353.419C276.36 349.125 281.982 344.758 287.646 340.444C293.405 336.06 300.345 332.732 301.693 324.463C301.756 324.086 302.189 323.779 302.407 323.412C311.364 308.277 324.318 296.558 336.081 283.805C339.549 280.044 342.299 275.622 345.38 271.503L345.382 271.504Z" fill="#796235" fill-opacity="0.4"/>
<path d="M391.294 390.831C391.157 390.559 391.02 390.29 390.886 390.019C386.682 391.221 382.542 392.832 378.255 393.513C373.932 394.201 369.456 393.895 365.057 394.189C363.702 394.279 362.131 394.567 361.089 395.342C356.411 398.811 351.905 402.512 347.306 406.09C333.62 416.749 319.925 427.396 306.223 438.035C304.375 439.471 302.472 440.842 300.597 442.243C301.463 442.812 301.986 442.809 302.44 442.63C315.961 437.304 329.555 432.149 342.932 426.481C346.022 425.172 348.84 422.467 350.963 419.762C358.123 410.627 366.393 403.196 377.365 398.781C382.278 396.805 386.669 393.522 391.296 390.833L391.294 390.831Z" fill="#796235" fill-opacity="0.4"/>
<path d="M267.281 304.907C234.251 344.955 200.772 385.548 167.293 426.14C167.553 425.554 168.087 425.146 168.55 424.666C185.615 406.914 202.902 389.368 219.653 371.327C231.95 358.083 243.615 344.248 255.426 330.559C261.977 322.964 268.387 315.19 267.281 304.907Z" fill="#796235" fill-opacity="0.4"/>
<path d="M361.335 376.05C361.14 375.6 360.944 375.15 360.749 374.701C356.725 376.202 352.36 377.141 348.748 379.328C341.257 383.861 333.249 385.399 324.693 385.561C322.241 385.606 319.499 386.292 317.42 387.555C296.623 400.21 276.109 413.3 257.398 428.988C255.596 430.501 253.913 432.158 251.576 434.295C252.871 434.139 253.281 434.185 253.592 434.034C254.618 433.54 255.623 433 256.609 432.431C275.695 421.396 294.507 409.847 313.963 399.509C325.617 393.316 338.135 388.628 350.558 384.067C355.268 382.337 358.99 380.386 361.338 376.051L361.335 376.05Z" fill="#796235" fill-opacity="0.4"/>
<path d="M387.068 360.636C386.61 360.097 386.153 359.558 385.695 359.019C379.369 364.189 372.149 368.59 366.911 374.694C357.511 385.648 347.693 395.93 336.445 405.051C317.311 420.563 298.557 436.524 277.128 448.911C275.716 449.727 274.471 450.832 273.148 451.804C282.218 450.513 289.573 446.383 296.88 441.406C313.018 430.413 329.25 419.551 343.403 406.062C355.14 394.874 366.144 382.913 377.414 371.237C380.732 367.8 383.856 364.176 387.068 360.636Z" fill="#796235" fill-opacity="0.4"/>
<path d="M259.773 168.706C259.159 168.569 258.546 168.433 257.932 168.296C251.322 222.49 230.838 272.376 210.789 322.477C215.978 317.199 220.978 311.99 223.721 304.867C236.794 270.894 249.109 236.687 255.557 200.718C257.454 190.135 258.397 179.38 259.775 168.704L259.773 168.706Z" fill="#796235" fill-opacity="0.4"/>
<path d="M196.315 387.31C196.631 387.548 196.949 387.786 197.266 388.023C201.225 382.931 205.144 377.806 209.155 372.753C227.035 350.232 245.064 327.826 262.752 305.158C267.491 299.085 271.22 292.226 275.412 285.727C269.212 287.043 265.967 289.656 262.329 295.184C241.96 326.131 220.364 356.193 197.489 385.337C197.022 385.934 196.703 386.65 196.315 387.31Z" fill="#796235" fill-opacity="0.4"/>
<path d="M363.342 306.75C363.554 307.036 363.768 307.321 363.979 307.607C369.591 304.022 375.618 300.942 380.738 296.751C394.405 285.569 408.051 274.305 420.961 262.274C427.396 256.275 432.204 248.529 437.748 241.574C436.274 242.333 434.986 243.369 433.743 244.457C416.39 259.625 399.106 274.875 381.632 289.904C378.689 292.435 374.489 293.542 371.676 296.168C368.432 299.196 366.081 303.182 363.344 306.752L363.342 306.75Z" fill="#796235" fill-opacity="0.4"/>
<path d="M345.521 460.496C300.562 467.486 258.338 480.346 217.24 497.141C259.676 485.02 302.111 472.898 345.521 460.496Z" fill="#796235" fill-opacity="0.4"/>
<path d="M301.958 246.755C301.688 246.253 301.416 245.752 301.146 245.248C295.251 246.666 289.233 247.708 283.494 249.597C276.05 252.048 272.081 257.613 271.275 265.463C271.004 268.098 271.865 269.613 274.524 268.709C278.623 267.316 282.939 266.05 286.515 263.731C293.087 259.468 298.269 253.685 301.958 246.752L301.958 246.755Z" fill="#796235" fill-opacity="0.4"/>
<path d="M242.507 287.737C242.327 287.728 242.147 287.716 241.964 287.706C220.768 317.458 199.572 347.211 178.377 376.963C179.482 376.999 179.965 376.54 180.415 376.054C201.017 353.836 218.52 329.261 234.892 303.866C238.086 298.911 240.001 293.134 242.505 287.737L242.507 287.737Z" fill="#796235" fill-opacity="0.4"/>
<path d="M397.5 436.761C397.532 436.209 397.567 435.655 397.599 435.103C388.734 431.107 379.834 427.159 369.94 426.344C368.027 426.186 366.003 426.739 364.1 427.238C361.097 428.026 358.355 429.179 358.826 433.183C359.272 436.981 361.958 440.1 365.882 439.82C376.441 439.068 386.961 437.813 397.497 436.76L397.5 436.761Z" fill="#796235" fill-opacity="0.4"/>
<path d="M460.988 380.402C451.498 379.518 435.261 391.284 430.582 402.433C447.341 407.087 458.539 392.217 460.988 380.402Z" fill="#796235" fill-opacity="0.4"/>
<path d="M428.569 266.87C421.14 275.249 413.572 281.952 409.967 291.701C409.48 293.015 409.299 294.459 409.087 295.857C408.609 299.006 410.25 300.24 413.19 300.386C418.485 300.648 424.445 295.636 425.653 289.45C426.763 283.759 427.535 278.003 428.384 272.264C428.582 270.925 428.488 269.542 428.569 266.872L428.569 266.87Z" fill="#796235" fill-opacity="0.4"/>
<path d="M322.734 330.996C326.272 330.865 329.773 331.56 332.599 330.485C342.478 326.721 351.902 321.979 359.521 314.35C360.343 313.528 361.075 312.616 361.326 312.333C352.07 314.08 342.512 315.776 333.004 317.714C326.168 319.106 323.29 322.738 322.734 330.996Z" fill="#796235" fill-opacity="0.4"/>
<path d="M449.374 429.845C442.087 424.281 435.194 418.226 425.833 416.785C423.197 416.38 420.281 415.994 417.836 416.733C416.095 417.26 414.61 419.533 413.72 421.369C413.477 421.869 415.596 424.045 416.986 424.704C421.093 426.656 425.302 428.473 429.615 429.903C436.06 432.039 442.643 432.155 449.372 429.842L449.374 429.845Z" fill="#796235" fill-opacity="0.4"/>
<path d="M279.573 322.903C254.971 350.448 230.367 377.992 205.765 405.537C233.99 381.162 259.104 353.993 279.573 322.903Z" fill="#796235" fill-opacity="0.4"/>
<path d="M245.807 295.375C257.715 286.123 261.397 267.665 253.178 259.404C245.598 266.564 241.6 285.568 245.807 295.375Z" fill="#796235" fill-opacity="0.4"/>
<path d="M413.624 413.249C404.263 411.468 395.106 410.717 385.989 413.188C382.176 414.223 378.902 417.913 379.692 420.765C380.731 424.515 384.154 425.133 387.46 425.603C387.874 425.661 388.317 425.615 388.733 425.546C398.266 423.994 406.019 418.818 413.624 413.249Z" fill="#796235" fill-opacity="0.4"/>
<path d="M314.634 223.686C314.215 222.935 313.797 222.181 313.378 221.429C307.953 222.816 302.347 223.734 297.153 225.723C292.302 227.581 288.328 231.161 286.89 236.44C286.234 238.838 286.741 241.555 286.72 244.129C289.301 243.698 292.629 244.142 294.332 242.686C301.368 236.667 307.91 230.072 314.634 223.686Z" fill="#796235" fill-opacity="0.4"/>
<path d="M436.997 380.677C436.705 380.288 436.412 379.9 436.119 379.511C430.12 383.46 423.582 386.817 418.341 391.595C415.582 394.11 414.791 399.029 413.689 403.02C413.137 405.018 414.38 407.414 417.049 406.438C420.468 405.192 424.395 403.942 426.741 401.422C432.129 395.641 435.286 388.425 437 380.675L436.997 380.677Z" fill="#796235" fill-opacity="0.4"/>
<path d="M294.062 188.66C287.08 196.304 283.52 217.661 288.158 224.086C298.464 220.158 301.993 198.985 294.062 188.66Z" fill="#796235" fill-opacity="0.4"/>
<path d="M266.013 233.888C261.706 240.548 257.893 247.032 257.192 254.715C256.932 257.562 257.521 260.665 258.495 263.375C259.063 264.956 261.148 266.971 262.569 266.987C263.927 267.001 265.922 264.932 266.58 263.34C270.554 253.747 272.884 244.036 266.014 233.886L266.013 233.888Z" fill="#796235" fill-opacity="0.4"/>
<path d="M346.953 255.895C339.313 252.031 325.84 253.767 320.815 259.726C319.003 261.876 319.069 265.611 318.279 268.625C320.901 269.116 323.801 270.581 326.094 269.923C334.41 267.536 341.019 262.319 346.955 255.898L346.953 255.895Z" fill="#796235" fill-opacity="0.4"/>
<path d="M379.619 244.101C371.438 250.061 366.919 258.269 365.3 267.989C364.891 270.445 366.365 273.215 366.974 275.839C369.201 274.49 371.723 273.463 373.604 271.736C381.892 264.127 380.248 254.045 379.619 244.101Z" fill="#796235" fill-opacity="0.4"/>
<path d="M328.202 192.596C327.778 192.271 327.352 191.943 326.928 191.617C324.403 193.276 321.82 194.851 319.367 196.611C312.913 201.243 307.519 206.893 304.026 214.074C303.364 215.434 303.646 217.752 304.408 219.115C304.854 219.911 307.31 220.241 308.513 219.809C310.582 219.069 312.992 218 314.181 216.313C318.905 209.598 323.249 202.614 327.63 195.663C328.145 194.845 328.025 193.629 328.2 192.598L328.202 192.596Z" fill="#796235" fill-opacity="0.4"/>
<path d="M376.49 352.836C367.966 352.206 359.46 351.557 351.67 355.306C348.523 356.82 345.864 359.663 343.471 362.337C341.53 364.507 342.542 366.396 345.48 366.708C347.444 366.916 349.505 367.072 351.422 366.716C361.234 364.893 369.063 359.331 376.488 352.836L376.49 352.836Z" fill="#796235" fill-opacity="0.4"/>
<path d="M340.815 281.874C336.541 287.067 332.451 291.393 329.162 296.264C326.993 299.478 325.7 303.388 324.581 307.154C324.106 308.754 324.825 312.241 325.448 312.352C327.497 312.715 330.127 312.538 331.86 311.472C338.938 307.112 343.928 291.481 340.817 281.872L340.815 281.874Z" fill="#796235" fill-opacity="0.4"/>
<path d="M483.667 381.466C483.329 380.993 482.991 380.521 482.652 380.049C475.777 383.552 468.725 386.757 462.089 390.664C457.781 393.2 455.959 398.314 457.46 400.716C458.867 402.967 464.405 402.873 468.639 400.749C476.79 396.66 480.195 389.056 483.667 381.468L483.667 381.466Z" fill="#796235" fill-opacity="0.4"/>
<path d="M435.519 436.305C424.696 425.843 406.585 422.808 398.951 429.744C400.38 433.368 403.449 435.228 406.944 435.95C416.165 437.857 425.457 437.276 435.519 436.305Z" fill="#796235" fill-opacity="0.4"/>
<path d="M240.453 375.553C240.676 375.788 240.899 376.024 241.122 376.262C245.245 373.048 250.095 370.437 253.357 366.509C265.072 352.4 276.322 337.9 287.578 323.418C290.005 320.294 291.734 316.63 293.784 313.215L292.332 312.025C289.699 314.617 286.698 316.931 284.496 319.848C274.66 332.882 265.237 346.231 255.281 359.168C250.803 364.987 245.422 370.112 240.451 375.55L240.453 375.553Z" fill="#796235" fill-opacity="0.4"/>
<path d="M274.054 246.41C283.052 239.95 284.521 221.491 280.172 212.063C272.418 222.486 265.635 232.971 274.054 246.41Z" fill="#796235" fill-opacity="0.4"/>
<path d="M300.815 291.661C305.256 291.537 324.357 280.305 326.524 276.544C321.123 272.502 312.527 272.043 307.276 275.516C303.808 277.809 299.723 288.017 300.813 291.659L300.815 291.661Z" fill="#796235" fill-opacity="0.4"/>
<path d="M469.765 422.169C459.742 413.509 445.129 411.674 436.172 417.683C446.29 426.229 457.387 427.685 469.765 422.169Z" fill="#796235" fill-opacity="0.4"/>
<path d="M382.611 401.668C373.559 406.24 365.301 410.523 358.915 417.571C357.778 418.825 357.78 421.115 357.255 422.925C358.996 423.187 360.739 423.666 362.475 423.642C363.851 423.625 365.302 423.175 366.579 422.604C375.177 418.755 380.849 412.487 382.611 401.668Z" fill="#796235" fill-opacity="0.4"/>
<path d="M409.06 241.614C419.612 245.019 432.508 238.259 437.808 226.779C426.673 225.436 413.172 232.293 409.06 241.614Z" fill="#796235" fill-opacity="0.4"/>
<path d="M412.268 212.651C408.388 217.288 404.115 220.976 401.745 225.633C399.478 230.087 398.84 235.502 398.179 240.586C397.854 243.083 399.668 244.828 402.173 242.311C410.112 234.339 415.281 225.321 412.268 212.651Z" fill="#796235" fill-opacity="0.4"/>
<path d="M333.526 207.082C327.891 214.495 322.445 221.594 317.072 228.751C313.743 233.189 309.657 237.325 307.455 242.283C303.738 250.652 298.203 257.205 291.292 262.89C288.983 264.788 286.853 266.899 284.639 268.915C284.862 269.285 285.084 269.656 285.307 270.026C286.399 269.721 287.655 269.655 288.546 269.052C289.822 268.187 290.965 267.035 291.933 265.821C305.767 248.447 319.579 231.057 333.339 213.62C334.743 211.84 336.965 209.88 333.526 207.082Z" fill="#796235" fill-opacity="0.4"/>
<path d="M258.486 290.602C270.281 287.774 282.16 278.647 283.489 271.543C269.319 271.77 256.599 278.96 258.486 290.602Z" fill="#796235" fill-opacity="0.4"/>
<path d="M368.6 295.964C366.582 296.041 365.337 296.016 364.111 296.145C356.084 296.992 348.489 299.106 342.21 304.439C341.081 305.398 340.736 307.281 340.029 308.737C341.609 309.471 343.173 310.795 344.772 310.84C355.539 311.151 362.766 305.447 368.603 295.965L368.6 295.964Z" fill="#796235" fill-opacity="0.4"/>
<path d="M480.834 256.089C472.299 255.485 464.466 255.801 458.473 262.266C457.244 263.594 456.386 266.527 457.031 267.976C457.674 269.422 460.388 270.649 462.248 270.727C469.119 271.016 478.422 263.752 480.836 256.09L480.834 256.089Z" fill="#796235" fill-opacity="0.4"/>
<path d="M412.7 275.151C412.238 274.725 411.778 274.301 411.315 273.875C393.487 291.794 375.657 309.711 357.828 327.63C358.248 328.086 358.667 328.54 359.084 328.997C365.59 323.384 372.332 318.019 378.525 312.079C383.006 307.782 386.528 302.497 390.896 298.064C396.166 292.718 402.005 287.941 407.332 282.649C409.484 280.513 410.931 277.67 412.698 275.148L412.7 275.151Z" fill="#796235" fill-opacity="0.4"/>
<path d="M422.626 243.766C418.734 244.262 415.128 244.245 411.835 245.253C406.973 246.739 402.182 248.666 397.693 251.036C396.344 251.75 395.94 254.518 395.48 256.433C395.387 256.817 396.952 258.041 397.842 258.151C409.003 259.502 416.839 255.059 422.628 243.768L422.626 243.766Z" fill="#796235" fill-opacity="0.4"/>
<path d="M456.211 411.531C467.067 417.018 482.304 417.324 489.198 412.337C480.573 404.848 460.633 404.204 456.211 411.531Z" fill="#796235" fill-opacity="0.4"/>
<path d="M358.672 209.351C344.96 215.254 339.639 227.258 344.71 233.982C354.123 232.44 358.604 222.249 358.672 209.351Z" fill="#796235" fill-opacity="0.4"/>
<path d="M271.866 318.006C283.003 307.078 287.38 290.031 281.507 281.117C274.583 292.393 272.747 304.508 271.866 318.006Z" fill="#796235" fill-opacity="0.4"/>
<path d="M405.91 261.312C396.568 259.511 388.702 263.335 381.193 268.052C379.92 268.852 379.554 271.098 378.769 272.677C380.365 273.29 381.951 274.41 383.557 274.437C393.535 274.6 400.887 270.01 405.91 261.312Z" fill="#796235" fill-opacity="0.4"/>
<path d="M345.8 295.044C353.31 293.543 361.745 276.489 360.578 265.169C350.691 272.087 342.763 288.115 345.8 295.044Z" fill="#796235" fill-opacity="0.4"/>
<path d="M336.737 337.58C323.334 331.73 305.064 336.516 301.301 346.725C313.763 346.518 324.519 341.507 336.737 337.58Z" fill="#796235" fill-opacity="0.4"/>
<path d="M387.832 277.35C383.094 278.066 378.376 278.984 373.614 279.437C368.536 279.921 364.628 282.134 362.031 286.415C361.165 287.844 361.045 289.727 360.584 291.404C362.278 291.677 364.062 292.439 365.652 292.145C374.929 290.434 381.474 284.202 387.832 277.35Z" fill="#796235" fill-opacity="0.4"/>
<path d="M453.402 248.245C446.39 256.093 435.693 261.522 435.586 274.634C447.961 271.981 452.703 261.074 453.402 248.245Z" fill="#796235" fill-opacity="0.4"/>
<path d="M417.485 323.39C417.332 322.701 417.182 322.012 417.029 321.323C410.214 322.098 403.281 322.361 396.635 323.876C393.472 324.595 390.621 327.447 388.065 329.808C386.011 331.705 386.851 333.783 389.69 333.672C400.101 333.27 409.092 329.034 417.483 323.387L417.485 323.39Z" fill="#796235" fill-opacity="0.4"/>
<path d="M457.628 335.524C447.672 333.945 431.922 340.692 429.412 347.612C442.304 349.797 452.289 345.52 457.628 335.524Z" fill="#796235" fill-opacity="0.4"/>
<path d="M405.389 376.975C398.179 372.853 391.151 372.37 383.975 373.083C380.969 373.382 378.522 375.283 378.872 378.295C379.051 379.831 381.468 381.901 383.212 382.322C391.199 384.246 398.239 381.441 405.389 376.975Z" fill="#796235" fill-opacity="0.4"/>
<path d="M323.705 253.498C333.224 250.853 340.825 236.353 338.821 226.813C331.769 229.53 323.495 243.924 323.705 253.498Z" fill="#796235" fill-opacity="0.4"/>
<path d="M307.262 296.754C294.966 293.081 284.677 300.258 282.998 313.238C293.163 310.72 299.419 303.318 307.262 296.754Z" fill="#796235" fill-opacity="0.4"/>
<path d="M317.942 244.973C310.019 251.037 304.963 257.832 301.652 265.897C301.23 266.928 302.46 269.258 303.585 270.102C304.439 270.743 306.9 270.54 307.697 269.75C314.196 263.329 317.775 255.572 317.942 244.971L317.942 244.973Z" fill="#796235" fill-opacity="0.4"/>
<path d="M366.13 328.578C357.5 331.083 346.895 343.554 347.7 350.248C357.659 350.048 367.599 337.314 366.13 328.578Z" fill="#796235" fill-opacity="0.4"/>
<path d="M500.994 239.109C491.62 236.885 477.712 243.201 475.609 250.637C481.461 254.697 495.759 248.204 500.994 239.109Z" fill="#796235" fill-opacity="0.4"/>
<path d="M363.309 346.268C370.267 350.279 389 344.046 394.648 336.122C383.641 338.148 371.939 336.439 363.309 346.268Z" fill="#796235" fill-opacity="0.4"/>
<path d="M394.142 230.95C387.028 236.704 384.061 244.454 383.233 253.121C383.092 254.606 384.318 256.223 384.914 257.781C386.464 256.782 388.529 256.133 389.477 254.727C394.298 247.565 394.382 239.309 394.145 230.948L394.142 230.95Z" fill="#796235" fill-opacity="0.4"/>
<path d="M432.508 264.134C441.031 255.724 448.941 248.257 456.448 240.404C461.521 235.096 466.032 229.251 470.793 223.645C470.488 223.379 470.184 223.114 469.879 222.846C467.223 225.149 464.409 227.294 461.941 229.78C453.454 238.329 444.963 246.879 436.772 255.706C434.842 257.786 434.07 260.943 432.508 264.132L432.508 264.134Z" fill="#796235" fill-opacity="0.4"/>
<path d="M459.187 278.005C459.066 277.427 458.947 276.852 458.827 276.274C453.524 276.342 448.132 275.865 442.953 276.702C440.246 277.141 437.4 279.463 435.537 281.7C433.112 284.613 434.438 286.827 438.239 286.763C446.408 286.628 453.147 283.068 459.185 278.005L459.187 278.005Z" fill="#796235" fill-opacity="0.4"/>
<path d="M380.341 214.561C369.789 215.704 362.519 220.175 357.821 228.561C357.302 229.487 357.697 230.923 357.669 232.125C358.858 232.126 360.156 232.445 361.22 232.082C369.747 229.175 375.024 222.661 380.339 214.56L380.341 214.561Z" fill="#796235" fill-opacity="0.4"/>
<path d="M386.521 307.802C381.136 313.071 377.08 318.844 377.434 326.696C377.496 328.065 378.216 330.16 379.174 330.533C380.235 330.948 382.229 330.135 383.276 329.231C388.61 324.621 390.117 314.578 386.521 307.805L386.521 307.802Z" fill="#796235" fill-opacity="0.4"/>
<path d="M297.794 263.219C288.176 269.619 286.465 278.895 290.081 290.172C296.339 282.209 299.884 273.795 297.794 263.219Z" fill="#796235" fill-opacity="0.4"/>
<path d="M349.553 373.371C349.466 372.766 349.379 372.159 349.291 371.554C341.743 372.155 334.177 372.616 326.656 373.457C324.831 373.661 322.019 373.992 322.542 377.208C323.021 380.148 325.036 381.077 327.796 381.007C335.911 380.796 342.796 377.268 349.553 373.371Z" fill="#796235" fill-opacity="0.4"/>
<path d="M407.153 287.419C399.477 292.065 393.73 304.737 395.43 312.838C399.363 310.465 404.163 309.295 405.087 304.037C406.02 298.736 406.438 293.348 407.153 287.419Z" fill="#796235" fill-opacity="0.4"/>
<path d="M453.83 285.837C469.604 282.767 479.846 271.471 490.955 261.47C478.643 269.707 463.889 274.215 453.83 285.837Z" fill="#796235" fill-opacity="0.4"/>
<path d="M449.107 288.939C440.227 289.641 432.26 290.96 426.163 297.181C425.168 298.197 425 300.02 424.449 301.47C425.993 301.788 427.68 302.675 429.06 302.331C437.049 300.34 443.455 295.79 449.105 288.936L449.107 288.939Z" fill="#796235" fill-opacity="0.4"/>
<path d="M336.678 249.237C344.709 250.238 358.352 242.339 360.386 235.509C347.763 235.992 339.384 240.844 336.678 249.237Z" fill="#796235" fill-opacity="0.4"/>
<path d="M411.431 390.406C405.127 391.26 392.088 399.808 390.381 404.204C398.695 408.858 409.32 401.894 411.431 390.406Z" fill="#796235" fill-opacity="0.4"/>
<path d="M429.737 339.541C420.868 343.569 412.078 347.679 407.906 357.648C414.487 359.888 423.693 352.246 429.737 339.541Z" fill="#796235" fill-opacity="0.4"/>
<path d="M401.637 340.862C388.089 349.996 374.54 359.131 360.992 368.268C362.776 368.38 364.403 367.86 365.887 367.075C373.047 363.283 380.085 359.249 387.332 355.632C393.752 352.429 398.79 347.952 401.639 340.864L401.637 340.862Z" fill="#796235" fill-opacity="0.4"/>
<path d="M419.276 359.597C424.3 362.961 440.39 358.579 443.189 353.083C435.709 349.154 423.028 352.609 419.276 359.597Z" fill="#796235" fill-opacity="0.4"/>
<path d="M399.874 370.398C407.832 372.791 418.934 370.51 424.292 365.49C412.877 360.683 405.865 362.018 399.874 370.398Z" fill="#796235" fill-opacity="0.4"/>
<path d="M259.382 295.038C258.915 294.693 258.449 294.346 257.979 294.001C244.017 305.643 239.621 323.792 228.833 337.593C229.279 337.897 229.726 338.203 230.171 338.506C239.907 324.018 249.644 309.528 259.382 295.041L259.382 295.038Z" fill="#796235" fill-opacity="0.4"/>
<path d="M368.445 313.661C357.99 320.243 347.742 326.693 337.609 333.071C343.834 334.999 350.249 333.82 353.992 329.755C358.791 324.539 363.469 319.214 368.445 313.661Z" fill="#796235" fill-opacity="0.4"/>
<path d="M365.246 390.561C373.153 393.044 386.157 390.999 389.291 386.949C376.847 382.599 368.653 383.752 365.246 390.561Z" fill="#796235" fill-opacity="0.4"/>
<path d="M406.167 351.582C396.557 355.354 386.95 365.152 387.702 370.12C398.038 368.426 402.699 361.08 406.167 351.582Z" fill="#796235" fill-opacity="0.4"/>
<path d="M330.596 273.347C336.003 276.011 353.704 262.073 359.096 250.184C349.569 257.928 340.105 265.617 330.596 273.347Z" fill="#796235" fill-opacity="0.4"/>
<path d="M339.391 211.47C338.916 211.138 338.441 210.803 337.965 210.47C329.405 221.979 320.843 233.487 312.282 244.997C315.358 243.879 318.226 242.471 319.89 240.185C325.984 231.81 331.681 223.148 337.513 214.582C338.194 213.584 338.768 212.511 339.393 211.473L339.391 211.47Z" fill="#796235" fill-opacity="0.4"/>
<path d="M283.252 206.889C283.598 206.981 283.944 207.072 284.288 207.162C287.895 193.321 291.502 179.48 295.108 165.639C289.599 178.976 282.981 192.016 283.252 206.886L283.252 206.889Z" fill="#796235" fill-opacity="0.4"/>
<path d="M318.881 215.96C326.264 212.767 337.587 191.281 335.059 182.966C332.566 189.523 330.894 195.173 328.316 200.371C325.627 205.794 322.063 210.781 318.881 215.96Z" fill="#796235" fill-opacity="0.4"/>
<path d="M504.575 248.088C495.189 251.805 484.226 253.299 480.51 265.029C488.531 259.382 496.554 253.734 504.575 248.088Z" fill="#796235" fill-opacity="0.4"/>
<path d="M355.627 198.334C355.19 197.989 354.755 197.643 354.318 197.296C346.331 207.393 338.347 217.491 330.36 227.588C330.648 227.817 330.936 228.044 331.224 228.273C342.258 220.592 346.766 207.738 355.627 198.334Z" fill="#796235" fill-opacity="0.4"/>
<path d="M140.113 419.34C139.879 419.214 139.646 419.088 139.412 418.962C133.927 425.049 128.322 431.036 123.067 437.315C122.081 438.495 122.5 440.852 122.272 442.666C122.844 442.833 123.413 442.999 123.984 443.166C129.36 435.224 134.734 427.282 140.111 419.339L140.113 419.34Z" fill="#796235" fill-opacity="0.4"/>
<path d="M420.324 410.523C428.758 409.3 437.191 408.078 445.626 406.854C436.567 403.669 428.069 404.355 420.324 410.523Z" fill="#796235" fill-opacity="0.4"/>
<path d="M394.988 384.434C398.891 385.951 418.537 377.816 423.728 372.609C413.893 376.656 404.647 380.46 394.988 384.434Z" fill="#796235" fill-opacity="0.4"/>
<path d="M360.68 259.593C353.776 262.16 344.108 274.342 344.582 279.908C349.97 273.11 355.261 266.432 360.68 259.593Z" fill="#796235" fill-opacity="0.4"/>
<path d="M445.963 409.622C437.982 409.102 429.509 410.909 426.405 413.619C433.226 415.024 439.394 414.714 445.963 409.622Z" fill="#796235" fill-opacity="0.4"/>
<path d="M377.867 350.33C387.957 349.34 394.184 341.145 402.835 337.424C402.582 336.96 402.33 336.495 402.078 336.03C394.006 340.795 385.937 345.563 377.865 350.328L377.867 350.33Z" fill="#796235" fill-opacity="0.4"/>
<path d="M421.114 251.282C421.397 251.606 421.679 251.929 421.962 252.253C428.908 246.099 435.851 239.944 442.797 233.79C442.535 233.49 442.271 233.187 442.009 232.887C435.857 239.952 425.712 242.429 421.114 251.28L421.114 251.282Z" fill="#796235" fill-opacity="0.4"/>
<path d="M319.721 220.624C313.807 227.307 307.892 233.991 301.976 240.674C302.37 241.02 302.762 241.366 303.156 241.712C310.577 236.369 314.359 227.789 319.721 220.624Z" fill="#796235" fill-opacity="0.4"/>
<path d="M411.945 373.436C412.068 373.678 412.192 373.92 412.315 374.162L423.162 369.7C423.059 369.449 422.956 369.198 422.855 368.948C419.217 370.443 415.582 371.941 411.945 373.436Z" fill="#796235" fill-opacity="0.4"/>
</svg>
