<svg width="215" height="290" viewBox="0 0 215 290" fill="none" xmlns="http://www.w3.org/2000/svg">
<path d="M19.8818 282.051H16.2025C15.9284 281.274 15.8676 275.74 16.0939 274.493C17.2858 274.151 18.5733 274.579 19.9137 274.199C20.0243 271.679 19.8978 269.143 19.9925 266.487C21.3159 266.437 22.5806 266.388 23.8891 266.338V262.34C23.2652 262.008 22.6254 262.182 22.0115 262.155C21.3877 262.129 20.7608 262.15 20.1688 262.15C19.9207 261.391 19.846 247.996 20.0513 246.718C20.7279 246.486 30.292 246.422 31.5467 246.663C31.5756 246.981 31.6255 247.329 31.6344 247.679C31.6514 248.375 31.6484 249.071 31.6494 249.767C31.6494 250.26 31.9015 250.493 32.3868 250.496C32.5862 250.497 32.7855 250.507 32.9848 250.507C34.8454 250.509 36.706 250.515 38.5656 250.507C38.9552 250.505 39.3449 250.45 39.8691 250.408V246.638C40.3863 246.6 40.77 246.547 41.1547 246.546C44.2441 246.536 47.3334 246.539 50.4228 246.528C50.8454 246.527 51.2679 246.473 51.8061 246.435V242.638C52.2675 242.597 52.6173 242.54 52.9661 242.539C54.8267 242.537 56.6863 242.557 58.5469 242.553C58.9345 242.553 59.3212 242.485 59.7986 242.439V238.697C60.263 238.653 60.6417 238.586 61.0204 238.584C63.6782 238.574 66.3361 238.582 68.993 238.575C70.8526 238.57 72.7132 238.553 74.5728 238.531C74.8976 238.527 75.2225 238.475 75.671 238.434C75.7079 237.178 75.7427 235.976 75.7816 234.683C76.2749 234.652 76.6935 234.602 77.112 234.602C81.497 234.598 85.8819 234.606 90.2668 234.6C90.7173 234.6 91.1677 234.533 91.7138 234.49V233.208C91.7158 228.867 91.7188 224.526 91.7208 220.186C91.7208 219.955 91.7128 219.722 91.7238 219.491C91.7547 218.826 91.8175 218.747 92.4732 218.724C93.1369 218.701 93.8017 218.727 94.4664 218.711C94.8231 218.702 95.1789 218.652 95.6214 218.612C95.7808 216.608 95.6762 214.664 95.6951 212.724C95.7141 210.736 95.7001 208.748 95.7001 206.76V194.916C97.0525 194.864 98.3201 194.814 99.6326 194.762V182.727C98.3909 182.469 97.1242 182.743 95.7978 182.547C95.5586 181.317 95.8197 180.054 95.6234 178.742C94.3797 178.496 93.113 178.77 91.7417 178.544C91.669 175.979 91.7537 173.413 91.6929 170.725H87.7913V163.069C89.0839 163.043 90.3226 163.016 91.6451 162.988C91.8085 160.332 91.6381 157.793 91.7497 155.226C93.0313 154.86 94.3189 155.288 95.6324 154.914C95.6543 154.566 95.6941 154.217 95.6971 153.866C95.7091 152.044 95.7111 150.221 95.7161 148.399C95.7191 147.574 96.1476 147.161 97.0026 147.158C97.5677 147.156 98.1328 147.169 98.6968 147.152C99.5977 147.126 99.6635 147.054 99.6864 146.189C99.6904 146.057 99.6874 145.923 99.6874 145.791V127.073C98.348 126.81 97.0814 127.084 95.7131 126.863V119.036C94.3398 119.009 93.0991 118.985 91.7926 118.959C91.7617 118.586 91.7208 118.299 91.7168 118.012C91.6949 116.123 91.6809 114.236 91.664 112.347C91.653 111.109 91.6431 111.101 90.3605 111.092C88.467 111.077 86.5745 111.061 84.681 111.04C84.4219 111.037 84.1628 111.003 83.7612 110.973V107.106C82.3819 107.078 81.1412 107.053 79.7878 107.025V103.185C79.3334 103.147 78.9866 103.094 78.6388 103.093C76.7453 103.087 74.8518 103.095 72.9583 103.098H71.7953V99.2357C70.4798 98.9584 69.2132 99.2357 67.8818 99.0379C67.6675 97.8073 67.8987 96.5478 67.7462 95.3421C67.0008 95.0956 57.2603 95.016 55.7027 95.2397C55.314 96.4186 55.7196 97.6989 55.4246 99.0568C54.1709 99.1701 52.8873 99.0926 51.6097 99.1075C50.3511 99.1214 49.0934 99.1104 47.7709 99.1104C47.3394 100.408 47.755 101.724 47.4431 103.088H39.6688C39.623 104.452 39.5811 105.69 39.5353 107.052H35.6745C35.6307 108.414 35.5908 109.652 35.547 111.019H31.8058C31.4092 112.357 31.8108 113.638 31.4859 114.986H27.8136C27.4249 116.323 27.8026 117.601 27.5415 118.81C26.814 119.039 17.1791 119.086 15.9822 118.845C15.9713 117.644 15.9603 116.408 15.9484 115.029C14.5512 115.025 13.2676 115.02 11.984 115.018C10.6994 115.016 9.41383 115.018 8.01664 115.018V111.162C6.68522 110.898 5.41957 111.156 4.07619 110.972C3.90677 108.39 4.09911 105.82 3.9566 103.177C2.66803 102.98 1.40736 103.182 0.115805 103.037C0.078932 102.725 0.0221274 102.472 0.0221274 102.219C0.0241205 97.6462 0.0300999 93.0737 0.0420588 88.5011C0.044052 87.5837 0.0958738 87.5359 0.984817 87.521C1.68242 87.5091 2.38102 87.532 3.07762 87.5101C3.91873 87.4833 3.99048 87.4107 4.00244 86.5846C4.01639 85.6284 4.00543 84.6721 4.00543 83.5727C5.34981 83.522 6.61645 83.4743 7.96382 83.4226V79.6274C8.42125 79.5827 8.79994 79.5151 9.17864 79.5131C11.0054 79.5052 12.8331 79.5211 14.6598 79.5141C15.0475 79.5131 15.4361 79.4545 15.9464 79.4117V75.6264C16.4197 75.5907 16.7715 75.541 17.1243 75.54C18.951 75.535 20.7788 75.5479 22.6055 75.542C22.9951 75.541 23.3858 75.4863 23.899 75.4475C23.9768 74.0787 23.9439 72.7756 23.916 71.3591C23.4276 71.3283 23.0121 71.2795 22.5955 71.2795C16.8483 71.2746 11.101 71.2776 5.35379 71.2776H4.07619C3.9546 70.045 3.99646 68.9098 4.04928 67.6305C5.3528 67.5987 6.59154 67.5688 7.94289 67.535C8.01863 66.1126 8.00169 64.8114 7.95286 63.368C6.56363 63.2895 5.25613 63.3283 3.8978 63.3462C3.49319 64.6285 3.90079 65.9108 3.59584 67.211H0.187558C-0.0147459 66.4804 -0.0735437 61.2498 0.111819 59.7488C0.496496 59.715 0.908081 59.6494 1.32066 59.6484C7.03501 59.6404 12.7484 59.6434 18.4627 59.6365C18.9172 59.6365 19.3716 59.5808 19.8888 59.547V51.4109H15.9862C15.9723 48.7051 15.9583 46.1435 15.9444 43.4725H12.0986C11.8365 42.1445 12.1006 40.8821 11.8983 39.5282C9.32015 39.3741 6.74501 39.5401 4.20574 39.4348C3.96258 38.6684 3.92072 33.0143 4.14794 31.8891C5.26111 31.7469 6.39621 31.7688 7.67581 31.893C7.68378 32.6743 7.69175 33.392 7.69973 34.1087C7.70272 34.3741 7.69175 34.6395 7.7087 34.904C7.75553 35.6336 7.85818 35.7618 8.61657 35.7698C10.5101 35.7916 12.4036 35.7797 14.297 35.7817H15.5697C15.6115 36.2419 15.6623 36.5908 15.6713 36.9417C15.6873 37.5709 15.6613 38.2012 15.6823 38.8304C15.7092 39.6226 15.8168 39.725 16.636 39.7509C17.2668 39.7707 17.8987 39.7489 18.5295 39.7608C18.8524 39.7668 19.1743 39.8065 19.5719 39.8373C19.6038 40.228 19.6456 40.5481 19.6526 40.8682C19.6656 41.5302 19.6407 42.1942 19.6666 42.8562C19.6955 43.5878 19.821 43.7141 20.5615 43.7409C21.3249 43.7687 22.0902 43.7359 22.8536 43.7608C23.5183 43.7817 23.601 43.8622 23.623 44.5162C23.6489 45.3105 23.614 46.1077 23.6469 46.9019C23.6728 47.5292 23.8083 47.6922 24.4202 47.6932C26.6785 47.6971 28.9367 47.6663 31.1949 47.6345C31.3813 47.6315 31.5667 47.5262 31.8816 47.4288V43.8254C32.3669 43.7896 32.7197 43.7429 33.0735 43.7419C34.9002 43.7339 36.7279 43.7429 38.5546 43.7339C38.9443 43.732 39.3339 43.6773 39.7675 43.6435C40.0296 42.3771 39.7515 41.1475 39.9558 39.8393C40.3385 39.8065 40.7202 39.7469 41.1029 39.7469C44.2251 39.7449 47.3484 39.7578 50.4706 39.7548C50.8912 39.7548 51.3118 39.6892 51.824 39.6465V36.059C52.5824 35.7429 57.9489 35.6564 59.4249 35.9189C59.4548 36.2022 59.5175 36.5173 59.5175 36.8334C59.5195 38.722 59.5145 40.6107 59.4966 42.4994C59.4886 43.388 59.4398 43.4288 58.51 43.4337C56.6165 43.4437 54.723 43.4437 52.8295 43.4467H51.6805C51.6297 43.8771 51.5659 44.1972 51.5589 44.5172C51.543 45.2459 51.541 45.9755 51.5589 46.7041C51.5808 47.5749 51.6835 47.6783 52.5375 47.7051C53.1345 47.724 53.7334 47.7051 54.3314 47.714C54.6602 47.719 54.9891 47.7439 55.4306 47.7647C55.4695 48.1842 55.5322 48.5639 55.5342 48.9437C55.5452 50.7995 55.5322 52.6544 55.5432 54.5102C55.5492 55.5689 55.6349 55.6494 56.6693 55.6653C57.3669 55.6752 58.0645 55.6782 58.7621 55.6603C59.083 55.6524 59.4029 55.5868 59.8155 55.5361V51.8065C60.2899 51.7657 60.6706 51.7289 61.0523 51.7001C62.2382 51.6106 63.4231 51.5142 64.609 51.4397C65.1073 51.4089 65.3475 51.1554 65.3196 50.6812C65.2907 50.1912 65.2468 49.6961 65.1402 49.218C64.9987 48.5828 65.0615 48.383 65.6584 48.3313C66.1926 48.2846 66.64 48.1753 67.1164 47.8592C67.4772 47.6196 68.0801 47.7091 68.5754 47.7081C73.1267 47.7021 77.6781 47.7111 82.2284 47.7081C82.6849 47.7081 83.1403 47.6574 83.6047 47.6305C83.8768 46.7389 83.7293 45.9099 83.7462 45.0958C83.7741 43.7777 83.7552 43.7817 85.0567 43.7717C85.7872 43.7658 86.5167 43.7508 87.2472 43.724C87.3688 43.719 87.4874 43.6286 87.7235 43.5272V39.8423C88.2278 39.8095 88.6145 39.7618 89.0002 39.7618C92.0895 39.7568 95.1789 39.7638 98.2683 39.7568C98.6908 39.7568 99.1134 39.7002 99.6655 39.6614V35.895C100.934 35.724 102.068 35.7588 103.346 35.8692C103.415 38.3721 103.36 40.8055 103.373 43.3741C102.01 43.5113 100.727 43.4248 99.4512 43.4417C98.1925 43.4576 96.9339 43.4457 95.6144 43.4457C95.148 44.7379 95.6303 46.061 95.2517 47.4268H87.5741C87.3618 48.7727 87.4186 49.9904 87.5153 51.2031C87.5272 51.3592 87.7913 51.5689 87.9767 51.6216C88.2557 51.7011 88.5676 51.6763 88.8666 51.6763C93.3183 51.6832 97.77 51.6912 102.221 51.6882C102.671 51.6882 103.123 51.6216 103.661 51.5798V47.8641C104.985 47.4924 106.309 47.9238 107.639 47.551V43.8542C108.074 43.8105 108.419 43.7479 108.766 43.7459C110.627 43.7349 112.486 43.7459 114.347 43.7329C114.735 43.731 115.122 43.6654 115.636 43.6176V39.8383C116.184 39.8085 116.604 39.7648 117.024 39.7648C121.376 39.7598 125.728 39.7648 130.08 39.7578C130.534 39.7578 130.989 39.7031 131.507 39.6693V35.5391C130.217 35.5093 128.978 35.4805 127.668 35.4507V31.9139C128.079 31.8791 128.491 31.8145 128.905 31.8135C133.323 31.8066 137.742 31.8115 142.159 31.8046C142.579 31.8046 142.999 31.741 143.514 31.6982V27.9994C144.84 27.6227 146.162 28.0422 147.525 27.6734V24.066C148.389 23.8215 157.744 23.7648 159.054 23.9736C159.094 24.1923 159.173 24.4398 159.18 24.6893C159.2 25.3851 159.178 26.0809 159.194 26.7768C159.215 27.7092 159.31 27.8066 160.223 27.8304C160.821 27.8463 161.419 27.8284 162.017 27.8384C162.342 27.8434 162.667 27.8762 163.005 27.897C163.304 28.6952 163.154 29.4616 163.167 30.2082C163.195 31.8056 163.178 31.8115 164.761 31.8066C165.613 31.8046 166.465 31.7787 167.443 31.7608V27.9149C167.954 27.8811 168.339 27.8334 168.725 27.8324C171.814 27.8284 174.904 27.8364 177.993 27.8314C178.416 27.8314 178.838 27.7768 179.389 27.739V24.0223C180.73 23.6416 182.015 24.064 183.368 23.6913C183.379 23.0869 183.395 22.4716 183.401 21.8573C183.407 21.2668 183.402 20.6764 183.402 19.9577C184.758 19.905 186.024 19.8553 187.379 19.8026V16.0134C187.812 15.9716 188.16 15.911 188.508 15.909C190.369 15.8991 192.229 15.909 194.089 15.8981C194.476 15.8961 194.863 15.8285 195.341 15.7818V12.088C196.665 11.7062 197.989 12.1516 199.341 11.7599V7.9836C200.699 7.9508 201.941 7.91998 203.315 7.88718V4.02238C204.685 3.99157 205.925 3.96374 207.304 3.93193V0.133732C208.484 -0.0720328 209.538 0.0055017 210.585 0.0661376C210.719 0.0740899 210.889 0.297747 210.952 0.457786C211.021 0.632736 210.994 0.849434 210.994 1.04725C211.001 4.22815 211.007 7.40905 211.008 10.5899C211.008 10.8822 210.97 11.1744 210.941 11.5979H207.179C207.118 12.0353 207.045 12.3504 207.035 12.6665C207.015 13.3285 207.035 13.9915 207.024 14.6545C207.008 15.6486 206.955 15.6983 205.925 15.7182C205.46 15.7271 204.995 15.7182 204.53 15.7211C203.298 15.7311 203.274 15.7549 203.266 17.0273C203.262 17.5909 203.278 18.1545 203.259 18.7172C203.232 19.5054 203.171 19.567 202.394 19.583C201.697 19.5969 200.999 19.5869 200.301 19.5869H199.254C199.179 19.8991 199.076 20.1436 199.07 20.3901C199.049 21.2509 199.041 22.1138 199.066 22.9746C199.088 23.7092 199.209 23.8314 199.964 23.8444C201.225 23.8672 202.488 23.8543 203.751 23.8543C205.744 23.8543 207.737 23.8533 209.73 23.8523H210.908C210.949 24.3086 211.007 24.6575 211.008 25.0074C211.017 26.896 211.003 28.7847 211.014 30.6734C211.02 31.7121 211.109 31.7867 212.166 31.8056C213.053 31.8215 213.94 31.8314 214.79 31.8433C215.062 32.7807 215.074 38.4427 214.804 39.4646H211.079C210.919 42.1495 211.085 44.722 210.967 47.4228H207.125C207.074 48.7955 207.028 50.0311 206.977 51.388H203.107C203.065 52.7468 203.027 53.9864 202.984 55.3641C199.039 55.3979 195.169 55.3522 191.26 55.387C190.861 56.6832 191.266 57.9645 190.949 59.3233C189.679 59.3323 188.396 59.3442 187.114 59.3492C185.785 59.3532 184.456 59.3492 183.127 59.3502C181.832 59.3502 180.536 59.3502 179.241 59.3512H175.315C175.246 59.6882 175.156 59.9376 175.15 60.1881C175.13 61.0162 175.124 61.8452 175.144 62.6732C175.164 63.4814 175.271 63.5997 176.08 63.6076C177.973 63.6265 179.867 63.6136 181.76 63.6205C182.151 63.6215 182.542 63.6543 182.943 63.6732C183.25 64.4088 183.106 65.1106 183.114 65.7915C183.134 67.6682 183.036 67.5788 184.916 67.5808C189.135 67.5847 193.354 67.5907 197.573 67.5957H198.805C199.107 68.4316 199.154 73.9803 198.912 75.0867C198.17 75.3074 184.482 75.3362 183.425 75.0917V71.375C182.935 71.3392 182.554 71.2865 182.173 71.2865C179.017 71.2795 175.86 71.2815 172.705 71.2815H171.479V67.4267C170.109 67.1662 168.844 67.4267 167.507 67.2209C167.478 66.8988 167.43 66.5828 167.424 66.2667C167.41 65.538 167.416 64.8084 167.411 64.0798C167.409 63.717 167.318 63.3949 166.878 63.3899C165.723 63.377 164.568 63.3859 163.283 63.3859C163.251 64.1742 163.203 64.8561 163.201 65.538C163.194 67.5798 163.265 67.2885 161.422 67.2945C157.17 67.3074 152.917 67.3024 148.666 67.3054H147.367C147.315 67.7895 147.233 68.1991 147.231 68.6086C147.213 71.6901 147.21 74.7716 147.202 77.8531V79.0986C145.91 79.3819 144.673 79.0906 143.405 79.3024C143.019 80.529 143.425 81.8103 143.146 83.0509C142.543 83.3461 141.905 83.1791 141.289 83.2059C140.697 83.2318 140.102 83.2119 139.381 83.2119C139.334 83.7338 139.261 84.1771 139.26 84.6204C139.25 89.027 139.254 93.4345 139.251 97.8421C139.251 99.2009 139.246 99.191 137.876 99.2317C137.38 99.2466 136.883 99.3023 136.39 99.3699C135.582 99.4822 135.546 99.5389 135.511 100.386C135.43 102.365 135.349 104.344 135.261 106.322C135.252 106.516 135.204 106.708 135.164 106.969C134.899 107.003 134.646 107.062 134.393 107.065C131.138 107.097 127.884 107.134 124.63 107.145C123.269 107.15 121.908 107.096 120.548 107.071C120.221 107.065 119.894 107.071 119.474 107.071C119.416 107.465 119.339 107.778 119.33 108.094C119.309 108.788 119.315 109.485 119.324 110.181C119.339 111.24 119.418 111.32 120.451 111.336C121.149 111.347 121.846 111.334 122.544 111.346C122.737 111.349 122.928 111.404 123.102 111.431C123.355 112.204 123.402 153.602 123.133 154.766H119.463C119.408 155.211 119.342 155.53 119.334 155.851C119.316 156.513 119.322 157.176 119.329 157.839C119.342 158.965 119.409 159.034 120.502 159.049C121.033 159.057 121.565 159.045 122.096 159.053C122.425 159.058 122.753 159.081 123.158 159.1C123.211 159.387 123.288 159.633 123.296 159.883C123.316 160.512 123.3 161.142 123.306 161.771C123.318 162.955 123.379 163.024 124.533 163.031C126.028 163.04 127.523 163.034 129.018 163.034H131.071C131.414 163.818 131.262 164.52 131.27 165.201C131.293 167.078 131.182 167.013 133.056 167.008C134.717 167.004 136.377 166.994 138.039 166.996C138.394 166.996 138.749 167.04 139.243 167.072C139.25 167.862 139.258 168.579 139.264 169.297C139.266 169.529 139.259 169.761 139.268 169.993C139.301 170.858 139.391 170.969 140.257 170.98C142.051 171.003 143.845 171 145.638 171.008C145.904 171.009 146.171 170.998 146.436 171.014C147.092 171.052 147.174 171.121 147.195 171.781C147.22 172.543 147.187 173.306 147.215 174.067C147.242 174.796 147.372 174.929 148.113 174.949C149.072 174.975 150.032 174.955 151.058 174.955C151.12 175.295 151.197 175.543 151.204 175.792C151.223 176.488 151.202 177.184 151.218 177.879C151.239 178.813 151.334 178.909 152.247 178.934C152.845 178.95 153.443 178.932 154.04 178.942C154.365 178.948 154.689 178.98 155.028 179.001C155.326 179.799 155.177 180.565 155.19 181.312C155.217 182.909 155.201 182.909 156.783 182.912C158.477 182.915 160.171 182.917 161.866 182.919H163.054C163.095 183.397 163.147 183.777 163.158 184.159C163.175 184.755 163.148 185.353 163.17 185.948C163.2 186.748 163.31 186.871 164.114 186.883C165.808 186.907 167.502 186.896 169.196 186.906C169.784 186.909 170.372 186.931 171.047 186.946C171.079 187.466 171.122 187.884 171.128 188.303C171.168 191.254 170.771 190.832 173.749 190.87C174.14 190.875 174.532 190.87 175.022 190.87C175.063 191.333 175.111 191.682 175.121 192.032C175.137 192.561 175.121 193.092 175.127 193.622C175.142 194.769 175.207 194.831 176.397 194.843C176.962 194.849 177.527 194.836 178.091 194.849C178.381 194.856 178.669 194.901 178.93 194.927C179.149 195.74 179.21 240.852 178.997 242.176C177.829 242.406 176.597 242.158 175.29 242.336C175.24 242.683 175.144 243.026 175.144 243.37C175.144 251.091 175.154 258.812 175.162 266.531C175.163 267.492 175.152 268.454 175.178 269.414C175.2 270.225 175.301 270.331 176.12 270.344C177.979 270.374 179.84 270.375 181.699 270.387C182.094 270.39 182.489 270.387 182.951 270.387C183.013 270.721 183.091 270.97 183.099 271.219C183.119 271.881 183.101 272.544 183.111 273.207C183.126 274.27 183.202 274.349 184.234 274.368C184.798 274.379 185.363 274.364 185.928 274.374C186.253 274.38 186.578 274.411 186.912 274.432C187.218 275.16 187.072 275.862 187.08 276.543C187.101 278.421 186.998 278.348 188.871 278.345C189.531 278.344 190.191 278.345 190.945 278.345C190.997 278.71 191.065 278.99 191.073 279.273C191.091 279.902 191.073 280.532 191.083 281.161C191.1 282.218 191.177 282.305 192.213 282.314C193.708 282.328 195.203 282.322 196.698 282.324C197.263 282.324 197.828 282.336 198.392 282.316C198.679 282.306 198.964 282.236 199.337 282.18V278.421C200.692 278.368 201.96 278.318 203.316 278.266V274.635C204.096 274.322 205.677 274.276 206.929 274.514C206.959 274.898 207.007 275.312 207.02 275.728C207.037 276.324 207.007 276.922 207.036 277.517C207.068 278.198 207.19 278.325 207.875 278.352C208.672 278.383 209.47 278.374 210.267 278.366C210.764 278.361 210.991 278.577 210.991 279.081C210.989 282.56 210.997 286.038 210.998 289.517C210.998 289.613 210.952 289.708 210.905 289.89C210.681 289.921 210.431 289.986 210.179 289.986C201.575 289.983 192.972 289.975 184.367 289.962C183.48 289.962 183.429 289.9 183.42 288.985C183.411 288.062 183.418 287.137 183.418 286.252C182.644 285.967 172.504 285.898 171.209 286.16C171.169 287.363 171.126 288.601 171.085 289.809C170.287 290.017 160.991 290.074 159.559 289.885C159.534 289.532 159.483 289.152 159.483 288.774C159.478 281.252 159.479 273.73 159.479 266.208V242.385C158.165 242.125 156.9 242.388 155.688 242.21C155.456 241.503 155.382 220.116 155.615 218.755C156.851 218.71 158.117 218.664 159.427 218.616V206.595C158.163 206.327 156.896 206.61 155.521 206.39V202.527H151.533C151.513 201.15 151.495 199.914 151.475 198.564H139.637C139.44 197.227 139.637 195.97 139.491 194.616C138.18 194.487 136.895 194.568 135.617 194.554C134.288 194.539 132.959 194.551 131.631 194.552H127.613V190.634C126.162 190.533 124.854 190.582 123.426 190.595C123.382 191.111 123.312 191.557 123.311 192.004C123.303 197.67 123.305 203.336 123.304 209.003V210.364C122 210.565 120.77 210.37 119.464 210.513C119.415 210.917 119.332 211.296 119.329 211.676C119.315 213.498 119.322 215.321 119.322 217.143V218.274C118.027 218.57 116.792 218.284 115.478 218.488C115.43 218.858 115.342 219.234 115.339 219.611C115.324 221.467 115.335 223.322 115.329 225.178C115.328 225.53 115.286 225.883 115.256 226.338H111.683C111.252 226.822 111.355 227.304 111.354 227.751C111.345 233.451 111.348 239.15 111.342 244.849C111.342 245.269 111.301 245.689 111.274 246.237H107.435C107.388 247.602 107.346 248.839 107.299 250.209C106.599 250.214 105.979 250.22 105.359 250.222C104.767 250.224 104.176 250.222 103.441 250.222C103.399 251.566 103.361 252.805 103.319 254.137C102.855 254.159 102.468 254.195 102.081 254.195C95.0055 254.199 87.9288 254.198 80.8532 254.199C79.8995 254.199 79.4211 254.673 79.4171 255.621C79.4151 256.217 79.4321 256.815 79.4091 257.41C79.3842 258.052 79.2975 258.142 78.6298 258.152C77.2346 258.173 75.8394 258.173 74.4442 258.173C64.6439 258.175 54.8446 258.173 45.0443 258.173H43.6421C43.5993 259.528 43.5604 260.767 43.5166 262.132H39.6598C39.618 263.492 39.5791 264.731 39.5372 266.097H35.7881C35.3855 267.431 35.7772 268.711 35.4981 269.953C34.8852 270.225 34.2484 270.071 33.6316 270.097C33.0396 270.122 32.4456 270.102 31.7729 270.102C31.7122 270.471 31.6284 270.752 31.6265 271.034C31.6055 273.088 31.5906 275.143 31.5936 277.197C31.5956 278.233 31.7052 278.328 32.7386 278.343C33.4362 278.353 34.1338 278.356 34.8314 278.338C35.1533 278.33 35.4742 278.267 35.8838 278.218V274.635C36.6452 274.331 42.0835 274.246 43.5006 274.501C43.5275 274.95 43.5674 275.43 43.5813 275.911C43.5983 276.474 43.5943 277.037 43.5953 277.601C43.5963 278.09 43.8414 278.332 44.3298 278.334C45.0941 278.338 45.8575 278.336 46.6219 278.352C46.88 278.357 47.1361 278.41 47.471 278.451C47.6175 279.627 47.5975 280.759 47.4799 282.027H35.6805C35.6347 283.394 35.5928 284.632 35.55 285.937H32.0121C31.761 284.717 32.034 283.455 31.8547 282.245C31.1361 281.988 25.5015 281.906 23.8193 282.129C23.3898 283.323 23.8711 284.646 23.5114 285.94H20.0433C19.819 284.713 20.0592 283.459 19.8759 282.053L19.8818 282.051Z" fill="#63A10D"/>
</svg>
