<?xml version="1.0" encoding="UTF-8"?>
<svg id="_Слой_1" data-name="Слой 1" xmlns="http://www.w3.org/2000/svg" viewBox="0 0 3000 1800">
  <defs>
    <style>
      .cls-1 {
        opacity: .51;
      }

      .cls-2 {
        opacity: .98;
      }

      .cls-3 {
        opacity: .64;
      }

      .cls-4 {
        fill: #e8793e;
      }

      .cls-4, .cls-5, .cls-6, .cls-7, .cls-8, .cls-9 {
        stroke-width: 0px;
      }

      .cls-10 {
        opacity: .91;
      }

      .cls-5 {
        fill: #e04e13;
      }

      .cls-11 {
        opacity: .75;
      }

      .cls-6 {
        fill: #f15a24;
      }

      .cls-7 {
        fill: #ec9706;
      }

      .cls-8 {
        fill: #cc4d22;
        opacity: .46;
      }

      .cls-9 {
        fill: #d6541c;
      }
    </style>
  </defs>
  <rect class="cls-7" x="0" width="3000" height="1800"/>
  <path class="cls-8" d="m2146.79,483.17c-6.68,2.92-13.35,5.85-20.03,8.77-.46.05-.96,0-1.38.16-6.39,2.32-12.77,4.69-19.16,6.99-8.48,3.06-17.09,5.67-25.75,8.15-10.32,2.95-20.74,5.5-31.24,7.71-20.92,4.39-42.06,7.4-63.37,9.05-42.7,3.3-85.19,1.49-127.46-5.41-.76-.12-1.54-.16-2.27-.38-1.43-.42-2.39.1-3.15,1.3-.36.56-.83,1.05-1.25,1.58-3.97,4.94-8.26,9.57-13.06,13.71-6.5,5.62-13.57,10.27-21.75,13.13-6.05,2.11-12.24,3.22-18.62,2.83-9.95-.6-19.49-3.03-28.56-7.17-17.49-7.98-28.59-21.37-33.66-39.87-1.76-6.41-2.72-12.92-3.14-19.54-.07-1.03.07-2.1-.43-3.12-.69-.33-1.38-.67-2.08-.98-17.99-8.23-35.3-17.67-51.92-28.4-32.32-20.87-61.11-45.82-86.35-74.86-12.46-14.33-23.83-29.49-34.15-45.43-4.48-6.92-8.79-13.94-12.72-21.18-2.52-4.63-4.88-9.34-7.46-13.93-3.23-5.77-5.55-11.98-8.76-17.76-1.62-2.91-2.49-6.21-3.74-9.3-3.04-7.56-5.98-15.14-8.65-22.84-2.88-8.33-5.43-16.77-7.63-25.3-4.1-15.89-6.89-32.01-8.18-48.38-1.92-24.39-.73-48.63,3.55-72.71,3.98-22.37,10.55-43.95,19.72-64.76,11.95-27.12,28.11-51.37,49-72.45,17.59-17.75,37.24-32.71,59.47-44.21,8-4.14,16.18-7.92,24.38-11.66,2.96-1.35,6.04-2.45,9.01-3.77,8.07-3.59,16.37-6.55,24.73-9.35,8.81-2.94,17.76-5.47,26.83-7.52,10.48-2.37,21.05-4.12,31.77-4.88,21.36-1.52,42.69-1.05,63.98,1.17,21.89,2.28,43.45,6.2,64.45,12.91.52.17,1.08.24,1.7.38.27-.53.5-.94.68-1.37,3.92-9.29,8.47-18.26,13.54-26.96,12.38-21.22,27.37-40.44,44.75-57.79,16.55-16.52,34.73-30.94,55.09-42.53,8.17-4.65,16.59-8.77,25.29-12.35,7.99-3.29,16.1-6.17,24.35-8.71,6.69-2.06,13.44-3.87,20.26-5.42,14.96-3.39,30.09-5.72,45.4-6.89,24.28-1.85,48.44-1.02,72.42,3.38,16.18,2.97,31.89,7.51,46.96,14.19,11.6,5.14,22.51,11.54,33.06,18.54,19.67,13.05,37.3,28.44,52.97,46.08,8.08,9.1,15.59,18.67,22.37,28.79,5.93,8.83,11.7,17.76,16.29,27.39.44.92.72,2,1.73,2.56,5.38,12.29,10.77,24.59,16.15,36.88-.2,1.42.59,2.57,1.02,3.81,1.2,3.43,2.56,6.82,3.62,10.29,2.47,8.06,4.69,16.19,6.54,24.41,3.4,15.06,5.95,30.26,7.01,45.67,1.28,18.63,2.39,37.27,3.24,55.92.97,21.07.51,42.13-1.57,63.14-1.66,16.8-4.27,33.45-7.7,49.98-.21,1.02-.39,2.05-.59,3.1.95.58,1.76,1.09,2.57,1.59,3.6,2.21,7.09,4.57,10.25,7.38,6.32,5.63,11.07,12.41,14.54,20.1,4.28,9.48,5.83,19.39,4.53,29.73-1.48,11.73-6.22,22.08-13.61,31.21-10.7,13.23-24.58,21.7-40.73,26.62-5.5,1.68-11.07,3.07-16.76,3.98-1.59.25-2.43,1.12-3.17,2.53-3.75,7.12-7.47,14.27-11.47,21.25-13.38,23.35-29,45.11-46.58,65.47-10.77,12.48-22.2,24.33-34.22,35.61-9.78,9.17-19.86,18-30.46,26.22-15.39,11.94-31.69,22.51-48.76,31.89-6.63,3.64-13.43,6.97-20.15,10.46-.57.3-1.05.76-1.58,1.14Zm85.23-353.71c.25-.96.47-1.69.63-2.43,5.3-23.91,8.72-48.07,9.43-72.58.47-16.22-.33-32.36-2.95-48.39-1.84-11.28-4.65-22.32-8.66-33.02-3.81-10.18-8.79-19.78-15.03-28.7-5.91-8.44-12.83-15.97-20.84-22.48-11.2-9.11-23.73-15.84-37.37-20.49-12.7-4.34-25.75-5.71-39.11-4.28-14.32,1.53-27.61,6.26-40.24,12.97-8.56,4.56-16.49,10.09-23.96,16.28-14.88,12.32-27.39,26.73-37.9,42.9-5.6,8.62-10.39,17.68-14.43,27.13-.47,1.11-.59,2.13-.24,3.32.63,2.13,1.41,4.17,2.5,6.1.71,1.25,1.41,2.51,2.01,3.81,1.97,4.26,3.92,8.54,5.83,12.82,4.74,10.62,8.25,21.66,10.97,32.95,3.42,14.2,5.27,28.62,5.74,43.22.03.94.1,1.88.16,2.96,1.01.27,1.91.54,2.83.75,18.91,4.16,37.93,7.77,57.04,10.93,33.29,5.51,66.77,9.57,100.39,12.43,13.84,1.18,27.71,2.02,41.51,3.7.47.06.94.05,1.7.09Zm-419.79-96.29c-.42-.25-.7-.49-1.04-.61-12.88-4.49-26.08-6.2-39.62-4.05-13.63,2.17-26.59,6.43-38.82,12.89-7.39,3.9-14.39,8.38-20.91,13.61-19.22,15.43-33.16,34.64-41.37,57.91-4.05,11.47-6.26,23.3-6.57,35.47-.29,11.24.62,22.39,2.5,33.46,2.1,12.41,5.51,24.47,10.1,36.18,3.26,8.3,7.13,16.32,11.51,24.09,5.24,9.28,11.16,18.09,17.76,26.45,10.66,13.52,22.78,25.58,36.2,36.36,11.54,9.27,23.87,17.33,36.88,24.36.66.35,1.36.62,2.2,1,.61-.86,1.2-1.6,1.68-2.4.94-1.56,1.82-3.16,2.74-4.72,12.44-21.04,24.86-42.08,37.33-63.1,9.54-16.07,18.73-32.34,27.86-48.65.41-.73.74-1.51,1.2-2.45-1.59-.84-3.02-1.59-4.45-2.34-11.47-6.07-22.33-13.05-32.12-21.62-13.4-11.72-23.39-25.72-28.9-42.79-3.09-9.56-4.74-19.34-4.83-29.36-.23-24.11,6.75-46.06,19.93-66.14,2.54-3.86,5.56-7.31,8.6-10.76.74-.84,1.61-1.6,2.12-2.79Zm182.76,217.28c-.55.96-.99,1.69-1.39,2.45-8.12,15.56-17.06,30.64-26.49,45.44-6.08,9.54-11.88,19.23-17.2,29.23-6.25,11.76-12.77,23.38-19.21,35.04-1.25,2.26-2.67,4.43-3.96,6.67-.3.52-.41,1.16-.65,1.87,1.08.12,1.93.25,2.78.3,4.59.27,9.17.59,13.77.77,28.35,1.11,56.45-.84,84.21-6.96,10.21-2.25,20.27-5.04,30.09-8.6,6.93-2.51,13.83-5.12,20.44-8.45,5.82-2.94,11.63-5.88,17.19-9.28,7.04-4.29,13.77-9.03,20.31-14.04,16.26-12.45,30.9-26.59,44.1-42.23.61-.72,1.16-1.48,1.92-2.47-1.33-.24-2.35-.46-3.38-.6-13.57-1.9-27.13-3.86-40.71-5.67-25.47-3.4-50.78-7.65-75.84-13.38-14.01-3.2-28.07-6.24-42.1-9.34-1.21-.27-2.43-.47-3.89-.75Z"/>
  <g class="cls-1">
    <path class="cls-9" d="m3098.89,1604.08v6.83c-3.99.84-8.19,2.96-11.94,2.33-32.11-5.33-64.31-10.35-96.09-17.29-10.64-2.32-22.24-7.84-29.79-15.46-42.78-43.14-77.81-92.01-104.16-146.95-23.1-48.17-35.43-99.86-50.02-150.81-6.95-24.27-13.68-48.6-20.51-72.9-1.02.23-2.05.46-3.07.7,6.38,34.56,11.6,69.38,19.37,103.62,22.53,99.24,61.1,191.16,127.3,269.97,15.4,18.33,15.5,18.51-4.6,32.28-34.19,23.43-71,40.76-112.46,46.86-54.73,8.05-103.44-7.65-149.02-36.91-9.76-6.27-14.65-13.79-16.65-25.17-14.53-82.69-18-165.83-11.73-249.47.39-5.23.05-10.51.05-15.77-2.43,3.56-3.4,7.16-4.01,10.81-14.77,88.38-17.71,177.32-11.8,266.59.75,11.4-3.8,15.48-13.71,15.63-21.95.32-43.94.87-65.86.11-15.18-.53-15.69-2.06-16.11-16.99-2.36-83.52-6.67-166.85-27.38-248.31-6.77-26.63-14.75-52.95-22.17-79.41.72,26.4,4.16,52.12,7.42,77.87,10.24,80.79,14.38,161.77,5.79,242.97-.7,6.6-5.22,14.93-10.6,18.59-70.9,48.2-148.2,74.4-235.08,64.65-49.32-5.53-92.61-25.32-130.02-57.81-11.41-9.91-12.7-18.82-6.52-32.44,5.48-12.06,11.45-24.08,15.22-36.71,23.92-80.13,35.14-162.12,34.34-245.73-.33-34.24-2.37-68.27-13.79-100.99-1.35-3.87-3.3-7.54-4.98-11.3-1.99,4.69-2.25,8.49-1.95,12.23,5.48,66.56,1.2,132.65-9.09,198.5-10.2,65.32-24.12,129.56-50.5,190.67-5.88,13.63-13.86,20.4-28.57,23.42-62.68,12.86-125.52,17.98-188.94,7.17-6.77-1.15-12.81-6.52-19.19-9.93,4.21-5.53,7.43-12.39,12.8-16.36,19.22-14.21,39.06-27.59,58.86-41.01,53.22-36.09,93.83-82.49,116.97-143.01,21.37-55.89,30.39-114.21,32.04-173.68,2.03-73.21,3.16-146.44,4.72-219.66.06-2.75.58-5.5,1.02-9.49,34.9,20.98,72.27,30.35,110.4,37.6,73.36,13.95,147.52,19.64,222.02,21.38,11.94.28,16.29,4.59,18.11,16.12,3.73,23.6,9.11,46.95,13.81,70.4.91-.03,1.83-.06,2.74-.1,3.86-27.55,7.72-55.11,11.72-83.65,4.22.4,7.87.73,11.52,1.1,52.84,5.27,105.58,12.27,158.55,15.37,60.7,3.56,121.63,2.5,181.91-6.77,23.04-3.54,45.53-10.7,68.57-16.28.11,1.32.35,3.89.54,6.46,4.29,56.73,6.61,113.69,13.24,170.14,17.79,151.52,99.03,263.9,221.26,350Z"/>
    <path class="cls-9" d="m2537.91,923.03c15.59,1.26,31.18,2.52,46.76,3.78-16.83,9.35-31.36,21.85-52.85,19.79-22.93-2.2-46.24-.5-64.01-.5,38.08,4.8,81.44,9.57,124.55,16.04,17.1,2.57,33.77,8.52,50.34,13.83,4.06,1.3,9.8,6.24,9.73,9.39-.09,4.17-4.52,8.96-8.23,12.15-4.13,3.56-9.55,5.63-13.6,10.44,10.56-2.72,21.39-4.7,31.62-8.34,13.13-4.68,14.43-13.92,3.65-22.84-15.73-13.02-34.85-18.16-54.35-21.74-16.4-3.01-32.99-5.04-50.69-7.68,1.58-1.35,2.36-2.54,3.37-2.8,40.23-10.48,80.61-18.42,122.45-9.69,40.8,8.51,81.92,15.59,122.45,25.17,13.19,3.12,25.43,11.39,37.25,18.7,8.02,4.95,12.81,13.06,9.88,23.45-2.92,10.37-11.89,10.56-20.14,11.49-30.07,3.42-60.16,6.66-90.19,11.54,11.05.7,22.1,1.4,35.04,2.22-5.92,12.89-16.16,16.06-25.64,17.35-35.71,4.87-71.52,9.39-107.44,12.3-21.83,1.77-43.91.33-65.88.33l-.25,3.55c.69.35,1.39,1.02,2.06.99,57.65-2.45,115.31-4.71,172.93-7.74,8.47-.45,16.86-4.23,25.06-7.11,8.51-2.98,14.25-8.63,13.96-19.04,20.81-2.56,40.29.09,58.06,11.37,13.82,8.78,14.78,19.25.08,26.57-15.32,7.64-32.36,12.83-49.23,16.19-55.48,11.06-111.82,10.33-168.06,9.72-60.09-.65-119.94-4.12-178.97-16.41-3.55-.74-7.03-1.83-10.81-2.83,14.55-14.77,28.58-29.01,42.61-43.26-.37-.63-.73-1.26-1.1-1.89-3.4,1.67-6.9,3.15-10.17,5.04-19.37,11.23-38.52,22.85-58.11,33.68-5.77,3.19-12.78,6.15-19.13,5.97-83.25-2.31-166.24-8.14-247.62-26.87-23.43-5.39-45.82-15.44-68.51-23.8-4.49-1.65-8.49-5.05-12.23-8.21-11.97-10.12-13.43-22.45-1.11-31.75,12.16-9.18,26.07-18.19,40.58-21.75,39.69-9.75,79.86-18.43,120.34-23.71,16.84-2.2,34.95,5.28,52.48,8.35,8.14,1.43,16.28,2.85,25.12,2.05-10.81-4.63-21.61-9.26-32.42-13.89.02-.66.03-1.31.05-1.97,11.66-.99,23.31-2.23,35-2.91,20.1-1.17,40.22-1.94,60.33-3.03,3.31-.18,6.59-1.14,9.88-1.74,51.69,0,103.38,0,155.07,0Zm-299.8,47.29l-.67-3.25c-13.31,4.02-26.87,7.36-39.82,12.32-6.94,2.66-12.83,8.08-19.19,12.26,6.52,4.49,12.49,11.43,19.67,13.06,29.54,6.7,59.25,13.26,89.26,17.09,39.03,4.98,78.39,7.3,117.61,10.77-4.93-2.98-10.09-4.04-15.29-4.78-37.95-5.36-76.01-10.02-113.81-16.24-16.74-2.76-33.09-8.21-49.34-13.33-4.51-1.42-8.03-6.01-12-9.15,3.52-4.09,6.57-8.75,10.7-12.09,3.68-2.98,8.55-4.49,12.89-6.66Z"/>
  </g>
  <g class="cls-2">
    <g>
      <path class="cls-6" d="m2470.06,534.51c-17.54,25.94-35.08,51.89-54.46,80.56-11.89-102.92,15.13-198.16,43.54-295.81-17.94-6.35-35.56-13.31-53.62-18.79-26.24-7.96-43.91-36.83-36.77-63.13.93-3.43,6.43-7.47,10.2-7.9,7.75-.9,15.81,1.19,23.66.72,14.91-.89,30.66,3.03,39.91-16.64,3.73-7.94,18.74-14.06,29.05-14.76,28.88-1.97,57.99-.69,88.09-.69-.37-3.22-.99-8.04-1.49-12.88-2.01-19.64,6.9-33.31,23.05-35.41,16.68-2.17,27.29,7.62,29.11,29.4,1.31,15.64.25,31.48.25,48.49,3.9-1.93,7.58-3.75,12.82-6.35,39.33,78,52.46,160.13,48.07,249.4-31.37-26.95-59.71-53.39-99.65-60.51,12.54,9.42,24.77,19.28,37.68,28.17,36.74,25.29,62.82,59.37,84.57,97.78,33.81,59.72,61.18,122.03,82.19,187.36,12.84,39.93,6.28,79.54.53,119.06-9.53,65.48-24.19,129.76-49.14,191.44-4.67,11.54-11.05,15.22-22.67,15.24-100.43.14-199.65-10.12-297.67-32.34-23.08-5.23-40.13-16.12-50.19-38.09-29.98-65.5-32.99-67.26,25.27-108,35.97-25.15,79.34-39.83,119.64-58.65,11.73-5.48,24.03-11.05,36.64-13.07,27.55-4.43,42.36-21.41,54.52-44.81,20.76-39.96,43.75-78.77,63.16-119.69-15.13,20.12-31.72,39.32-45.09,60.54-29.08,46.16-70.9,75.42-119.17,98.46-24.27,11.58-45.24,29.98-69.27,42.22-23.39,11.91-48.1,22.85-73.5,28.7-22.69,5.23-41.62,13.05-57.43,33.99-1.69-9.09-2.94-15.87-4.42-23.85-2.79.25-6.04.55-9.25.84-.96-24.34,7.86-38.23,28.2-48.12,6.19-3.01,12.4-7.7,16.38-13.23,33.68-46.74,67.25-93.57,99.84-141.07,6.46-9.42,8.52-21.83,12.64-32.86,12.79-34.23,25.59-68.45,38.39-102.67-1.2-1.01-2.41-2.03-3.61-3.04Zm28.65-202.93c49.54-1.92,72.44-22.03,79.77-70.88-20.38,33.11-45.98,56.78-79.77,70.88Zm-37.36-76.77c1.82-.1,3.64-.2,5.46-.3,1.03-6.75,3.88-13.9,2.47-20.09-.95-4.17-7.91-6.96-12.19-10.37-1.62,4.54-5.24,9.48-4.41,13.51,1.26,6.09,5.63,11.53,8.67,17.25Z"/>
      <path class="cls-6" d="m2456.67,1036.95c-54.42,10.13-108.2,13.78-161.59,0-4.44-1.15-9.07-6.33-11.21-10.79-8.08-16.84-7.71-17.02-27.34-19.1,4.51-7.92,8.37-14.69,13.19-23.16-6.98-2.21-14.13-4.46-24.66-7.79,8.48-5.62,14.7-9.74,21.48-14.24-3.4-2.14-7.37-4.64-11.42-7.18-.09-1.01-.53-2.82-.23-2.95,20.78-9.15,41.29-22.71,64.9-10.06,6.55,3.51,13.42,10.74,15.48,17.66,18.54,62.13,12.7,58.18,83.17,72.74,12.54,2.59,25.48,3.29,38.23,4.87Z"/>
    </g>
  </g>
  <g class="cls-10">
    <path class="cls-4" d="m1179.33-34.34l-27.25-6.81h-26.28l-35.04,15.57-66.19,40.88-15.57,7.79-61.32,24.33-107.07,38.93-68.13,36.99-60.35,36.99-82.73,56.45-36.01,24.33-40.88,23.36-46.72,11.68-93.44,7.12-42.83-7.12h-45.75l-37.96,7.12-44.77,10.4-36.99,15.57-41.85,24.33-28.23,26.28-31.15,50.61-10.71,54.51,14.6,36.99,18.49,35.04,20.44,22.39,36.01,24.33,36.99,14.6,29.2,5.84h43.8l38.93-10.71,26.28-13.63,30.17-19.47,32.12-25.31,15.57-14.6,40.88-62.29,41.85-60.35,46.72-47.69,40.88-29.2,48.67-25.31,141.14-65.21,58.4-29.2,36.01-17.52,61.32-33.09,78.84-50.61,24.33-7.79,87.6-45.75,28.23-18.49,11.68-24.33,5.84-21.41-7.79-16.55ZM406.82,422.49l7.79,4.22,9.08,7.46,7.46,3.24,10.06.65-1.62,2.43-8.44,6.33h-10.38l-7.79-2.6-13.63-8.11-15.57-1.95,13.63-10.06,9.41-1.62Zm-26.6,5.52l-8.76-5.52-15.57-4.22-17.52-.32-18.82-.65-13.63-4.22-5.76-5.19,7.38-1.62,8.11-4.22,20.44-8.11,13.14,1.62,14.44,5.19,12,8.44,8.11,12.33v10.71l-3.57-4.22Zm-188.51-20.76h15.25l13.3-4.87,10.38-4.87,23.68-16.55,32.45-24.98,26.28-7.46h22.06l18.49,7.46,15.9,11.36,14.28,19.47,1.62,18.17-11.36-11.03-19.47-10.71-14.6-5.19-19.47.32-16.87,1.95-22.71,6.81-28.23,14.6-29.85,11.36-14.28,1.95-16.22-1.95-11.03-8.44,10.38,2.6Zm83.06,72.68l11.68,12,19.79,8.44,11.36-3.24-7.14,9.41-12.98,2.6-14.11-3.24-11.52-7.79-8.76-10.38-2.92-11.03v-13.3l4.87-10.38v8.76l9.73,18.17Zm205.7-92.11c0,.19-.04.39-.11.57l-18.31,43.37c-.05.11-.1.21-.17.3l-30.97,41.62c-.05.06-.1.12-.15.18l-31.92,30.95c-.08.08-.17.15-.26.2l-43.56,26.14c-.06.04-.13.07-.19.1l-32.95,13.57s-.05.02-.08.03l-33.84,11.6c-.12.04-.25.07-.37.08l-42.99,2.9c-.09,0-.17,0-.26,0l-25.62-2.9s-.06,0-.09-.01l-27.55-4.83c-.1-.02-.2-.05-.29-.08l-37.21-14.98c-.08-.03-.16-.07-.24-.12l-22.6-14.43c-.11-.07-.2-.15-.29-.24l-5.04-5.5c-1.1-1.2.3-3.02,1.74-2.27l19.98,10.34,24.7,12.59c.08.04.17.08.26.1l33.77,9.65c.11.03.22.05.33.05l42.11,1.94s.08,0,.12,0l37.23-1.45c.12,0,.24-.02.36-.06l37.27-11.04c.96-.29,1.35-1.44.76-2.25l-3.75-5.12c-.24-.33-.33-.74-.25-1.14l5.16-26.29c.04-.22.14-.43.27-.6l10.83-14.12c.11-.14.24-.26.38-.35,1.4-.87.49-3.03-1.11-2.65l-15.55,3.73c-.07.02-.15.03-.23.04l-12.02.92c-.34.03-.67-.07-.94-.26l-9.02-6.31c-.19-.13-.34-.31-.45-.51l-5.46-10.31c-.14-.27-.2-.57-.16-.87l1.51-11.47c.03-.26.14-.51.3-.71l10.62-13.43c.11-.14.24-.26.4-.35l13.22-7.87c.12-.07.25-.13.39-.16l20.06-5.09c.12-.03.24-.04.36-.04h13.19c.17,0,.33.03.49.08l17.59,6.28c.23.08.43.22.59.4l4.86,5.41c.43.48,1.13.62,1.71.34l8.02-3.87c.27-.13.57-.17.86-.13l7.32,1.17c.22.04.44.12.62.26l7.59,5.46c.16.12.3.27.4.44l4.83,8.16c.13.22.2.48.2.74v7.97c0,.26-.07.51-.2.73l-5.54,9.54c-.07.12-.15.23-.25.32l-6.92,6.62c-.26.25-.41.58-.44.93-.42,5.06-.85,10.12-1.27,15.18l10.89-7.62,27.67-27.67s.09-.1.13-.15l23.21-30.46c.06-.08.12-.17.16-.26l15.41-32.74c.07-.14.11-.29.13-.45l3.83-32.07c.02-.2,0-.41-.06-.6l-9.1-29.21c-.04-.12-.09-.24-.16-.34l-14.01-22.23-.32-.5c-.92-1.45.99-3.02,2.23-1.83l15.41,14.79c.13.12.24.27.31.44l12.4,26.72c.09.19.14.4.14.61v34.43Z"/>
  </g>
  <g class="cls-11">
    <path class="cls-6" d="m245.63,1545.24c16.57,2.54,33.19,4.81,49.68,7.81,3.99.73,7.55,3.89,11.3,5.94-3.19,3.11-5.88,7.31-9.69,9.07-5.52,2.55-11.86,3.34-17.85,4.88,0,1.15,0,2.31,0,3.46,16.15,0,32.34-.78,48.43.18,26.57,1.58,53.1,4.11,79.59,6.82,2.6.27,7.2,5.45,6.7,6.85-1.4,3.9-4.45,9.25-7.81,10.06-22.46,5.44-44.97,11.79-67.84,14.14-35.56,3.65-71.19,1.48-106.13-7.43-15.72-4.01-16.38-4.87-13.13-22.98,11.06-1.58,22.39-3.21,33.73-4.83-.04-.42-.07-.85-.11-1.27-25.87,0-51.89,1.78-77.55-.5-25.56-2.28-50.75-8.69-76.12-13.17-10.42-1.84-15.9-6.93-12.45-19.18,14.68-1.06,29.95-2.16,39.38-2.84-17.38-2-40.89-2.35-63.06-7.97-19.07-4.83-37.7-13.98-54.35-24.61-7.62-4.86-10.05-17.87-14.83-27.19,1.16-1.03,2.32-2.06,3.48-3.09,37.24,10.5,74.48,21.01,111.71,31.51.26-.82.51-1.63.77-2.45-6.23-2.5-12.46-4.99-21.13-8.46,4.07-2.4,5.62-4.04,7.33-4.22,24.54-2.66,48.01-11.18,73.73-8.4,23.18,2.5,46.97-1.19,70.47-.83,13.7.21,27.34,3.11,41.04,4.56,7.96.84,16.05.7,23.93,1.97,3.63.58,6.88,3.5,10.3,5.36-2.89,3.27-5.32,8.73-8.74,9.44-20.44,4.27-41.05,7.88-61.73,10.82-12.29,1.74-24.81,1.84-37.16,2.68-2.79,7.57,6.55,18.56-6.77,24.16h45.34l-.43-.29Zm-56.99-25.57c-12.69-1.13-26.35-2.35-40.01-3.57,7.78,2.36,15.77,2.93,23.5,4.64,3.21.71,5.88,3.85,8.8,5.89-2.66,2.58-4.92,6.56-8.06,7.47-8.11,2.34-16.62,3.33-24.96,4.86,6.79,2.36,13.35,2.8,19.89,3.37,6.45.56,12.9,1.25,20.85,2.03v-24.67Z"/>
    <path class="cls-6" d="m35.72,1218.48c19.74-8.4,34.36-29.48,61.95-18.65,8.86,3.47,21.79-3.75,32.93-5.69,7.45-1.3,15.61-4.22,22.43-2.46,27.96,7.22,54.52,6.59,79.74-8.87,1.84-1.13,4.14-2.65,6.02-2.4,14.22,1.9,28.36,4.47,42.59,6.28,9.1,1.16,18.32,1.33,27.47,2.04,12.27.96,24.52,2.39,36.81,2.93,11.92.52,23.88-.02,35.81.3,7.03.19,14.14.69,21.02,2.04,2.05.4,4.8,4.04,4.93,6.32.54,10.01.23,20.07.23,32.36-11.54,0-25.19.54-38.78-.12-24.75-1.19-48.69,1.61-72.15,10.11-6.01,2.18-13.41.77-20.16.57-3.05-.09-6.69-2.7-8.99-1.71-25.75,11.14-49.69-4.56-74.61-4.61-10.19-.02-20.48-.93-30.55.18-23.32,2.57-45.3.69-67.47-8.83-11.86-5.09-26.64-3.63-40.14-4.58-6.03-.42-12.16.52-18.24.84-.28-2.02-.56-4.04-.83-6.06Z"/>
    <path class="cls-6" d="m-39.41,1326.44c-1.86-3.07-3.71-6.14-7.54-12.47,16.18,2.27,28.51,4,40.38,5.67-9.69-11.65-19.27-23.18-28.84-34.69-2.09-4.62-4.2-9.28-6.31-13.93-7.84-15.26-5.69-30.17,1.86-44.72,5-9.62,13.73-14.59,23.18-9.31,10.48,5.85,21.79,13.16,28.15,22.85,17.49,26.64,32.59,54.87,49.98,84.79-11.49,1.57-22.46,3.07-33.43,4.56.15,1.09.29,2.18.44,3.27,13.44-2.02,26.86-4.26,40.35-5.95,5.6-.7,11.5-1.07,17.02-.14,22.76,3.84,45.45,8.15,68.11,12.52,3.09.6,5.92,2.55,8.72,6.04-40.9,12.88-81.98,20.39-124.71,12.53.02,0,.44.26.44.26-22.24-8.09-44.48-16.18-66.72-24.26-3.69-2.34-7.38-4.68-11.08-7.03Z"/>
    <path class="cls-6" d="m327.72,1328.22c-22.4,9.35-45.61,10.2-69.4,7.38-10.98-1.3-22.45.52-33.19-1.62-12.27-2.44-23.98-7.7-35.9-11.71-10.98-17.04-21.99-34.11-32.99-51.18-11.5-21.65-5.33-31.32,21.7-31.01,15.02.17,29.99,4.89,45.01,5.03,28.21.25,45.04,18.22,62.06,36.47,7.38,4.88,14.81,9.81,22.24,14.74,10.94,7.38,21.88,14.77,34.21,23.08-2.62,1.89-5.5,3.96-8.38,6.03-1.79.93-3.57,1.86-5.36,2.79Z"/>
    <path class="cls-6" d="m63.08,1601.28c-6.18-3.41-12.42-6.72-18.51-10.28-5.37-3.14-12.54-5.4-15.38-10.16-3.78-6.33-4.12-14.71-5.94-22.21,5.64-.15,12.13-2.21,16.8-.15,38.39,16.95,79.29,18.42,120.11,20.76,3.54.2,7.06,1.44,10.58,1.41,10.16-.1,14.01,4.44,13.73,14.73-.28,10.47-4.63,15.8-14.87,16.51-12.36.86-24.73,1.66-37.07,3.2,36.83,5.7,73.37,8.94,110.8,2.45,16.96-2.94,35.29,1.58,52.91,3.54,2.57.29,7.08,6.21,6.44,7.87-1.97,5.09-5.16,12.27-9.39,13.54-36.99,11.06-74.79,16.23-113.45,11.48-11.48-1.41-22.91-3.26-34.36-4.91,0,0,.63.28.63.28-11.91-4.51-23.75-9.2-35.74-13.47-12.65-4.51-15.6-13.71-13.08-25.42-11.73-3.25-23.18-6.42-34.63-9.59l.42.41Z"/>
    <path class="cls-6" d="m123.05,1405.38c-19.02.51-38.1.38-57.05,1.86-7.01.55-13.72,4.85-20.5,8.53,32.72-3.83,64.73-5.1,94.81,18.02-5.46,2.19-9.36,4.42-13.56,5.33-42.8,9.3-84.62,6.73-125.27-10.46-12.04-5.09-23.2-13.39-37.44-11.33l.2.41c-1.59-17.8-1.51-18.11,14.94-15.43,10.45,1.7,20.82,4.08,31.11,6.61,9,2.22,8.93,2.51,34.3-4.2-10.56-3.19-21.11-6.43-31.7-9.53-2.03-.59-4.48-1.4-6.29-.8-30.48,10.1-64.02,2.19-83.54-19.61-6.58-7.35-9.09-14.23-1.48-19.94-1.64-5.72-2.96-10.3-4.78-16.63,18.19,9.28,20.56,12.29,15.32,19.29,14.5,5.89,28.77,11.68,43.59,17.7v-8.78H26.25c4.51-3.22,8.34-5.96,12.15-8.7-.02,0-.44-.26-.46-.27,3.01,3.46,16.39,1.2,8.37,10.08,36.47,6.6,74.43,13.46,112.39,20.33.29,2.18.57,4.36.86,6.53-12.32,3.74-24.63,7.47-36.95,11.21l.43-.24Z"/>
    <path class="cls-6" d="m-12.65,1459.82c2.42,11.93,4.7,23.15,7.52,37.05-23.6-6.25-14.72-26-22.6-38.36-18.63-5.2-41.31-7.85-44.13-36.81,14.96,2.31,28.85,6.54,42.58,6.04,17.16-.62,32.38,3.92,47.37,10.59,4.23,1.88,7.4,6.14,11.05,9.31-4.09,2.74-7.96,5.92-12.34,8.08-2.99,1.47-6.68,1.53-7.39,1.67,32.77,1.29,68.01,2.68,103.24,4.06.11-.44.21-.88.32-1.32-8.39-2.84-16.78-5.68-25.18-8.52.16-1.23.32-2.46.49-3.7,24.38.19,47.09-9.37,72.86-4.95,36.93,6.33,74.76,7.33,112.21,10.65,5.13.45,10.24,1.16,15.36,1.75.3,1.12.6,2.25.91,3.37-4.29,2.21-8.4,4.92-12.9,6.55-29.42,10.62-60.01,13.64-90.73,9.83-11.12-1.38-18.95,3.29-28.37,5.6-16.78,4.12-34.05,6.73-51.27,8.45-34.16,3.41-67.51-.75-99.33-14.23-6.93-2.94-17.27-2.82-15.97-14.85-1.75-.13-3.5-.27-3.68-.28Z"/>
    <path class="cls-6" d="m147.11,1678.17h-29.47c-1.93,6.17-3.43,10.93-5.35,17.06,7.77,1.13,18.2,2.66,28.64,4.15,14.46,2.08,29.07,3.47,43.31,6.57,4.55.99,8.12,6.45,12.14,9.87-4.43,2.96-8.72,8.26-13.3,8.53-42.52,2.46-83.55-3.18-120.52-26.27-4.71-2.94-8.04-8.08-12.01-12.2.38-.21.74-.53,1.15-.6.42-.07.88.1,1.39.12,15.4,1.57,30.73,3.18,45.07,4.69,1.14-4.83,2.16-9.14,3.09-13.08-9.8,11.59-24.13,8.06-37.94,7.59-3.48-.12-6.99.63-10.48.97-7.66-4.04-15.45-7.86-22.96-12.18-15.62-8.98-20.53-19.62-16.35-34.46q-15.43-10.81-13.78-22.64c5.09,1.19,10.1,2.36,15.12,3.53,3.48,1.26,6.96,2.53,10.44,3.79,5.02,9.17-2.05,22.93,11.38,29.04,9.83,4.47,19.36,9.63,29.02,14.48-25.13-16.74-31.91-23.73-33.19-38.1,36.86,14.59,74.89,19.51,113.6,20.31,0,0-.63-.28-.63-.28,15.06,3.64,30.12,7.27,47.31,11.43-14.08,13.54-31.4,12.45-46.09,17.93l.43-.26Z"/>
    <path class="cls-6" d="m474.1,1406.21c12.52,1.66,25.03,3.32,37.55,4.98.29,1.39.59,2.77.88,4.16-4.55,2.71-8.85,6.02-13.69,8.04-37.65,15.71-76.29,14.9-115.32,6.41-5.65-1.23-11.23-3.33-16.92-3.68-12.56-.76-19.06-5.87-14.62-22.13-24.68,0-47.79.86-70.8-.25-22.3-1.07-44.5-4.16-66.74-6.37-.06-2.22-.12-4.45-.18-6.67,34.84-4.5,69.68-9,105.46-13.62-1.14-5.52,2.26-11.86,12.08-8.95,4.1,1.22,6.77,7.31,10.08,11.18-.85.94-1.7,1.89-2.56,2.83,31.67,4.96,63.33,9.92,95,14.88-.02,1.51-.04,3.03-.06,4.54-20.91,1.62-41.82,3.24-55.4,4.29h95.63l-.4.37Z"/>
    <path class="cls-6" d="m40.43,1248.56c-6.11-13.34-5.02-15.6,8.52-19.52,31.21-9.05,53.88,5.97,74.76,26.23,9.02,15.11,18.05,30.22,27.07,45.33,3.48,7.51,6.96,15.02,11.09,23.94-14.06,4.54-26.8,8.08-41.6,5.23-24.8-4.77-42.79-16.82-54.23-39.73-5.89-11.79-14.34-22.29-21.62-33.36-1.33-2.7-2.66-5.41-3.99-8.12Z"/>
    <path class="cls-6" d="m292.18,1262.51c-6.03-5.7-5.96-9.96,2.16-13.97,28.4-14.04,58.1-14.43,88.24-8.42,4.68.93,9.3,5.03,12.74,8.78,14.35,15.62,28.25,31.66,42.31,47.55,0,0-.43-.36-.43-.36,2.84,6.8.44,11.19-6.42,13.04-4.67,1.26-9.74,3.43-14.2,2.68-23.24-3.92-47.95.25-69.61-12.37-22.52-5.97-40.06-19.35-54.78-36.92Z"/>
    <path class="cls-6" d="m221.33,1128.78c2.18-11.71,12.2-8.35,18.99-8.74,18.01-1.03,36.46-2.82,54.07-.07,17.4,2.72,33.99,10.65,50.94,16.29,0,0,0-.09,0-.09,11.89,12.51,23.89,24.9,35.57,37.6,2.5,2.72,3.85,6.5,5.72,9.8-3.72,1.92-7.58,5.7-11.15,5.45-14.08-1.01-28.05-3.39-42.09-5.05-7.43-.88-15.32-3.13-22.28-1.57-13.54,3.04-22.74-2.76-32.55-10.48-16.98-13.36-34.69-25.78-52.07-38.58-1.69-1.51-3.41-3.04-5.13-4.57Z"/>
    <path class="cls-6" d="m327.72,1328.22c1.79-.93,3.57-1.86,5.36-2.79,6.57,3.07,13.13,6.14,21.47,10.03-5.07-4.38-8.2-7.07-11.32-9.77,3.49-2.02,6.94-5.68,10.47-5.77,17.6-.44,33.92-12.23,52.24-5.72,3.64,1.29,7.56,1.8,11.35,2.67.18,1.2.35,2.4.53,3.59-8.83,2.13-17.66,4.26-26.49,6.39.32-1.08.64-2.17.96-3.25,16.33,4.11,32.87,7.6,48.85,12.79,3.74,1.21,7.54,8.15,7.64,12.54.06,2.79-6.48,7.97-10.34,8.26-35.06,2.64-70.25,6.79-105.25,5.73-26.8-.82-53.36-8.74-80.09-13.08-10.96-1.78-22.16-2.03-33.12-3.82-4.48-.73-8.59-3.68-12.87-5.62,4.29-1.22,8.59-3.51,12.87-3.48,24.05.18,48.1,1.51,72.14,1.21,10.94-.13,21.88-2.95,32.74-4.97,1.22-.23,1.92-3.23,2.87-4.95Z"/>
    <path class="cls-6" d="m122.62,1405.61h55.55c3.57-8.35-.43-20.37,15.27-18.88,16.19,1.54,9.96,13.88,13.96,23,15.59,0,31.71.29,47.81-.08,16.88-.39,33.75-1.88,50.61-1.83,3.91.01,7.8,4.36,11.69,6.71-2.98,4.65-5.02,12.17-9.1,13.52-43.68,14.51-88.29,21.33-133.67,8.94-23.7-6.47-46.82-15.12-70.2-22.78l.52-4.63c5.98-1.4,11.95-2.79,17.95-4.2.03,0-.41.23-.41.23Z"/>
    <path class="cls-6" d="m497.1,1249.25c1.45,5.14,3.27,10.2,4.3,15.42,5.43,27.26-17.04,50.88-44.71,47.12-7.55-1.02-11.67-4.68-12.15-13.06-.53-9.19-2.64-18.28-4.05-27.41-8.01-9.19-16.03-18.38-24.04-27.58-5.74-9.27-4.61-18.13,1.55-26.7,2.03-3.39,4.08-6.79,6.12-10.19,10.92-4.56,20.03-4.03,29.66,4.94,11.79,10.98,25.69,19.7,38.67,29.39,1.55,2.69,3.1,5.38,4.64,8.07Z"/>
    <path class="cls-6" d="m246.05,1545.52c-7.22-1.99-14.87-3.08-21.48-6.31-3.92-1.92-6.2-7.22-9.21-11,3.53-1.69,6.96-4.58,10.61-4.88,43.69-3.69,87.38-7.94,131.16-9.87,15.11-.67,30.48,4.82,45.76,7.28,5.69.92,11.57.78,17.19,1.97,3.41.72,6.47,3.07,9.69,4.69-2.72,3.43-4.79,8.64-8.3,9.94-7.82,2.9-16.39,3.77-24.62,5.61-47.62,10.7-95.46,6.99-143.33,2.31-2.63-.26-5.3-.04-7.93-.03.03.02.46.3.46.3Z"/>
    <path class="cls-6" d="m542.32,1432.2c-11.89.75-23.78,1.5-35.67,2.24.02.6.04,1.21.06,1.81h22.13c1.03,1.01,2.05,2.02,3.08,3.04-3.89,4.66-6.91,11.94-11.8,13.55-43.05,14.22-87.14,16.13-131.71,8.51-1.54-.26-2.87-1.76-5.8-3.66,24.5-6.1,47.2-13.73,70.51-16.94,19.76-2.72,38.5-4.71,56.07-16,11.93-7.66,26.71-10.88,40.23-16.07,7.36-2.83,14.74-5.63,22.11-8.44,3.39-1.95,6.77-3.91,10.16-5.86,9.23-4.96,18.45-9.93,28.28-15.22,7.04,8.56,3.72,16.63-2.71,23.27-6.75,6.98-14.77,12.73-22.19,18.98-4.6,1.89-9.24,3.81-13.89,5.74-9.75,1.79-19.5,3.59-29.25,5.38,0,0,.38-.33.38-.33Z"/>
    <path class="cls-6" d="m422.49,1136.23c5.73-12.01,3.52-27.97,17.85-35.75.75-.41,1.43-2.36,1.09-3.16-6.27-15.05,6.62-16.69,14.45-17.01,16.66-.69,33.51,1.06,50.12,3.06,3.69.44,6.75,6.08,10.11,9.32-4.35.73-8.77,2.34-13.05,2.03-11.89-.88-23.7-3.08-35.6-3.67-5.32-.27-10.77,2.04-15.32,3.01,15.13.92,30.71.87,45.98,3.08,14.08,2.04,15.65,7.7,5.41,18.02-7.75,7.81-16.96,14.18-25.53,21.19-16.51,12.39-33.02,24.78-49.52,37.17-8.59,5.67-10.38-.86-10.06-6.7.57-10.35,2.65-20.61,4.1-30.91l-.05.32Z"/>
    <path class="cls-6" d="m345.05,1374.34c3.86-2.45,7.58-6.74,11.6-7.05,27.91-2.15,55.88-3.5,83.83-5.01,4.85-.26,9.72-.04,14.53-.04.33-7.12.63-13.5,1.13-24.25,10.27,3.51,18.42,6.29,26.56,9.07-3.33,4.7-6.66,9.4-8.76,12.37,15.92,0,36.13-.27,56.33.26,3.52.09,6.95,3.54,10.43,5.43-3.02,2.63-5.62,6.54-9.12,7.68-18.16,5.91-36.24,13.06-54.94,16.02-18.53,2.94-37.91,3.03-56.66,1.42-24.24-2.08-48.22-7.08-72.32-10.83-.87-1.7-1.74-3.4-2.61-5.09Z"/>
    <path class="cls-6" d="m195.88,1349.85c32.12,1.74,64.36,2.81,95.57,15.3-21.94,26.12-162.72,26.65-205.83.27,38.26-8.79,74.65-11.06,110.63-15.86l-.37.28Z"/>
    <path class="cls-6" d="m467.36,1635.52c-38.42,19.46-78.27,17.25-118.38,7.11-4.26-1.08-9.59-5.84-10.66-9.88-1.97-7.44.89-14.05,10.29-15.26,14.06-1.8,28.04-4.43,42.14-5.65,25.66-2.21,51.38-3.72,77.08-5.36,5.65-.36,11.35-.05,22.12-.05-9.09,11.65-16.07,20.58-23.04,29.52l.44-.43Z"/>
    <path class="cls-6" d="m354.79,1734.71c-35.38,4.5-70.81,7.46-105.85-1.89-8.11-2.17-21.5-.67-20.63-13.75.9-13.55,13.91-7.02,21.28-8.33,17.69-3.13,35.71-4.37,55.14-6.55.27-4.01.68-10.02,1.36-19.97,7.14,2.61,15.75,3.2,18.43,7.5,2.29,3.67-2.22,11.59-4.16,19.43,15.41-1.6,33.95-4,52.56-5.16,5.58-.35,15.37,1.49,16.29,4.47,2.57,8.31-1.97,15.11-11.41,17.78-4.09,1.16-7.69,4.02-11.51,6.1-3.83.12-7.66.24-11.49.37Z"/>
    <path class="cls-6" d="m502.48,1512.34c-45.91,12.08-91.58,7.17-137.01-2.66-4.81-1.04-8.61-6.77-12.88-10.32,4.63-1.94,9.47-5.92,13.87-5.49,21.77,2.13,40.17-7.16,59.08-15.32,2.9-1.25,6.68-.44,10.05-.58v10.41c24.37,0,49.49-.33,74.59.3,4.59.11,9.09,4.11,13.63,6.31-3.72,4.19-7.08,8.8-11.29,12.42-2.88,2.48-6.95,3.57-10.49,5.29l.44-.35Z"/>
    <path class="cls-6" d="m292.84,1681.48c-18.63-3.76-37.35-7.14-55.82-11.56-4.62-1.1-8.45-5.53-11.75-9.67,41.5-6.93,81.46-16.07,122.48-12.47,16.32,1.43,32.56,3.83,48.79,6.1,2.25.31,5.5,2.05,6.02,3.8.54,1.85-1,5.43-2.75,6.61-4.35,2.95-9.15,5.41-14.07,7.28-30.25,11.5-61.7,11.62-93.36,9.53,0,0,.47.38.47.38Z"/>
    <path class="cls-6" d="m593.24,1292.89c-17.55,9.36-35.64,16.21-57.46,11.01,8.9,7.85,9.01,17.24,1.61,22.39-23.34,16.23-84.01,16.36-112.44-.97,4.59-1.25,7.65-2.13,10.74-2.91,13.71-3.44,27.45-6.79,41.14-10.29,8.94-2.29,17.7-5.73,26.77-7,31.51-4.38,59.39-15.45,81.07-39.86,2.93-3.29,8.37-4.36,12.66-6.46.01,0-.38.32-.38.32,7.91-2.07,15.82-4.14,23.73-6.22.93,1.13,1.87,2.27,2.8,3.4-10.22,12.34-20.44,24.67-30.67,37.02-.01,0,.42-.45.42-.45Z"/>
    <path class="cls-6" d="m203.86,1135.32c10.96,11.46,21.91,22.92,32.9,34.42-17.48,20.6-52.68,28.33-81.75,16.17-1.47-18.16-3.26-34.56-3.76-50.99-.11-3.46,4.51-10.09,6.92-10.08,11.13.06,22.25,1.96,33.37,3.2,4.1,2.43,8.21,4.86,12.31,7.28Z"/>
    <path class="cls-6" d="m146.68,1678.43c38.58-10.66,77.23,4.07,115.93-.24,9.84-1.09,20.15,2.08,30.24,3.3,0,0-.47-.38-.47-.38,8.1,11.37,6.27,17.05-7.39,20.54-32.95,8.41-66.12,8.15-99.23,1.05-17.83-3.82-35.51-8.31-53.21-12.72-4.47-1.11-8.73-3.08-12.74-7.67,9.08-1.37,18.16-2.74,27.27-4.11.03-.01-.41.25-.41.25Z"/>
    <path class="cls-6" d="m424.43,1472.73c-61.04,28.62-123.73,15.72-186.18,8.66,61.17-22.36,123.06-28.91,186.18-8.66Z"/>
    <path class="cls-6" d="m101.99,1132.19c-3.33,2.03-6.67,4.05-14.13,8.59,1.45-8.67,2.32-13.81,3.18-18.94-.68.34-1.35.67-2.03,1.01-2.43-9.7-6.9-19.43-6.76-29.09.16-11.31,4.76-22.49,6.64-33.85,1.8-10.87,2.59-21.9,4.26-36.78,8.01,4.21,17.02,6,20.42,11.36,6.4,10.08,10.08,22.05,13.89,33.56,2.65,7.99,5.14,16.59,4.89,24.83-.21,6.93-3.76,14.12-7.18,20.46-2.42,4.48-7.1,7.74-10.76,11.54-4.14,2.44-8.28,4.87-12.41,7.31Z"/>
    <path class="cls-6" d="m13.06,1151.84c14.2,10.33,28.38,20.69,42.62,30.97,3.54,2.56,7.26,4.87,10.88,7.28-14.34,22.43-53.68,31.65-75.09,20.36-3.23-16.54-6.06-31.01-8.88-45.48-1.46-2.45-2.92-4.91-4.39-7.36-2.72-7.32,1.06-10.15,7.55-9.57,9.06.8,18.05,2.5,27.06,3.82,0,0,.26-.02.26-.02Z"/>
    <path class="cls-6" d="m504.72,1548.26c-3.92,3.42-7.34,7.83-11.84,10.11-36.38,18.47-74.94,24.01-115.23,18.42-7.47-1.04-14.97-1.98-22.4-3.25-7.13-1.21-15.87-2.58-12.73-12.42,1.23-3.86,8.64-7.72,13.49-8.07,14.98-1.1,30.15.27,45.14-.76,21.6-1.48,43.12-4.21,64.66-6.46,11.96-1.25,23.91-2.6,35.87-3.9,1.01,2.11,2.02,4.22,3.03,6.33Z"/>
    <path class="cls-6" d="m25.29,1623.62c-3.48-1.26-6.96-2.53-10.44-3.79-8.32-5.79-17.64-10.58-24.68-17.64-7.17-7.18-12.68-16.53-3.86-25.49-6-6.59-13.04-12.29-17.11-19.63-2.24-4.04-1.03-11.86,1.65-16.01,1.52-2.34,9.2-1.01,14.08-.76,3.03.15,6,1.37,8.99,2.11,0,0-.46-.37-.46-.37,7.73,21.05,8.32,26.89,2.54,38.38,22.61,7.03,44.84,13.95,67.08,20.87,0,0-.42-.41-.42-.41,2.95,9.76,5.91,19.53,10.3,34.07-18.47-4.38-33.07-7.85-47.67-11.31Z"/>
    <path class="cls-6" d="m541.01,1058.08c.73,3.44,2.5,7.06,1.95,10.29-.85,5.03-1.92,11.55-5.38,14.22-4.13,3.19-12.27,5.79-16.26,3.81-18.72-9.32-38.16-10.63-58.38-9.31-4.2.28-8.57-2.07-12.87-3.2,2.36-3.93,4.05-8.53,7.2-11.67,7.84-7.82,16.26-15.09,24.61-22.39,12.95-11.31,19.61-12.07,34.65-3.42,6.89,3.96,13.28,8.8,19.9,13.24,1.53,2.81,3.06,5.62,4.59,8.43Z"/>
    <path class="cls-6" d="m451.14,1601.47c-1.8-14.33,1.57-22.28,15.7-25.46,30.11-6.77,58.83-17.11,83.16-37.36,3.74-3.11,10.24-2.9,15.46-4.22-.38,5.8,1.34,13.01-1.47,17.17-20.29,30.04-48.05,48.24-85.17,49.82-9.16.39-18.36.06-27.68.06Z"/>
    <path class="cls-6" d="m101.99,1132.19c4.14-2.44,8.28-4.87,12.41-7.31,1.08-.77,2.18-1.51,3.24-2.31,14.4-10.89,21.22-10.25,26.87,7.39,4.4,13.73,4.15,29.29,3.79,43.98-.11,4.64-6.63,9.96-11.35,13.41-4.5,3.29-10.38,4.89-15.84,6.64-21.35,6.87-23.13,5.38-20.64-16.44,0,.02-.24.43-.24.43.5-11.39,1.02-22.79,1.49-34.18.16-3.87.19-7.74.28-11.61Z"/>
    <path class="cls-6" d="m13.06,1151.84s-.27.02-.26.02c-4.45-6.05-4.28-8.44,1.5-8.74,6.46-.33,13.02,1.38,20.15,2.29,17.51-14.86,42.61-16.19,60.02-1.61,3.43,2.87,4.65,9.26,5.36,14.25.93,6.54.33,13.3.4,19.95,0-.02.24-.43.24-.45-10.02,20.1-10.19,20.4-29.44,9.26-19.53-11.3-38.66-23.29-57.96-34.97Z"/>
    <path class="cls-6" d="m575.47,1205.6c1.75-.3,3.55-.43,5.24-.94,19.18-5.77,25.57-4.08,31.99,8.56,8.13,16.01,4.77,30.89-9.31,41.21-2.13,1.56-4.27,3.12-6.42,4.69-.01,0,.39-.32.37-.32-9.27-3.56-18.63-6.88-27.74-10.8-5.26-2.26-10.1-5.48-15.13-8.27-6.47-3.33-12.95-6.67-19.42-10-5.17-8.28,2-9.72,6.91-11.7,11.21-4.53,22.62-8.57,33.95-12.8,0,0-.44.36-.44.36Z"/>
    <path class="cls-6" d="m474.13,1483.03c-2.09-10,.29-15.39,10.34-16.75,15.3-2.07,30.62-4.39,45.7-7.7,16.81-3.69,33.32-8.78,50.05-12.88,3.84-.94,10.15-1.94,11.64-.03,2.57,3.3,4.48,10.21,2.68,13.16-3.93,6.43-9.38,13.67-15.95,16.44-33.84,14.24-69.13,12.03-104.46,7.76Z"/>
    <path class="cls-6" d="m375.89,1704.15c-11.91-1.1-23.9-1.73-35.68-3.61-3.13-.5-5.65-4.84-8.46-7.42,2.9-2.45,5.49-6.51,8.73-7.11,37.38-6.97,74.84-13.52,112.34-19.83,3.31-.56,7.03,1.39,10.56,2.18-.86,3.7-.58,8.45-2.81,10.87-4.09,4.43-9.26,8.35-14.7,10.96-22.06,10.57-45.53,14.48-69.98,13.96Z"/>
    <path class="cls-6" d="m-25.18,1490.25c21.18,13.51,41.6,28.5,63.86,39.91,11.44,5.87,15.41,12.85,16.72,28.33-21.76-5.79-41.86-11.13-61.95-16.47,0,0,.46.37.47.37-7.11-4.43-14.94-8.04-21.13-13.52-6.13-5.43-12-12.11-15.29-19.46-2.07-4.62-1-12.86,2.08-16.84,2.3-2.97,10.05-1.73,15.37-2.37l-.12.04Z"/>
    <path class="cls-6" d="m3.34,1042.91c-22.45-14.99-47.08-15.29-75.35-7.16,2.75-7.15,3.41-10.55,5.18-13.22,18.47-27.86,67.39-31.85,89.01-6.55,4.45,5.2,8.55,16.83,5.9,20.5-3.74,5.18-13.92,5.72-21.35,8.24-1.13-.6-2.26-1.21-3.38-1.81Z"/>
    <path class="cls-6" d="m607.85,1307.06c2.91-.93,5.8-1.97,8.76-2.72.64-.16,1.54.68,2.31,1.06-1.63,11.21,2.12,23.71-10.26,31.98-17.83,11.9-37.05,20.02-58.43,20.07-18.18.04-36.38-2.31-54.51-4.25-2.94-.31-5.52-3.95-8.27-6.05,2.65-2.21,5.06-5.96,7.97-6.39,23.68-3.51,47.44-6.58,71.21-9.41,17.64-2.11,34.5-5.1,41.63-24.71l-.43.41Z"/>
    <path class="cls-6" d="m257.94,1446.81c53.65-19.02,107.85-21.68,162.69-6.2-53.48,20.01-108.03,14.46-162.69,6.2Z"/>
    <path class="cls-6" d="m552.46,1033.33c14.08-4.66,27.74-.11,37.32,13.11,14.23,19.63,10.47,49.91-11.94,78.56-5.64-15.54-11.49-28.92-15.29-42.86-4.26-15.65-6.66-31.8-10.09-48.81Z"/>
    <path class="cls-6" d="m502.04,1512.69c23.47-6.5,46.92-13.09,70.45-19.37,2.51-.67,6.96-.5,7.9.96,1.29,2.01.9,5.97-.18,8.49-3.12,7.28-14.63,10.5-10.62,21.81.16.45-8.64,4.08-13.26,6.22-3.58-9.58-9.06-2.47-13.11-1-22.35,8.12-45.05,10.27-68.2,4.71-3.72-.89-6.82-4.38-10.21-6.67,3.31-2.29,6.33-5.37,9.99-6.72,9.05-3.34,18.4-5.89,27.65-8.77.02,0-.42.35-.42.35Z"/>
    <path class="cls-6" d="m497.1,1249.25c-1.55-2.69-3.1-5.38-4.64-8.07,1.38-1.68,3.42-5.06,4.04-4.81,24.98,9.83,50.85,17.98,72.29,35.1-11.15,17.77-41.62,28.8-66.61,24.1,5.02-16.06,5.36-31.95-5.08-46.32Z"/>
    <path class="cls-6" d="m581.69,1394.38c-3.39,1.95-6.77,3.91-10.16,5.86-24.05,7.4-48.44,11.45-73.38,5.59-4.76-1.12-8.8-5.32-13.17-8.1,3.9-3.62,7.32-9.43,11.81-10.44,11.12-2.49,22.86-2.12,34.13-4.12,16.55-2.94,32.87-7.12,49.36-10.41,7.19-1.44,14.55-1.99,24.79-3.33-5,14-14.35,19.33-23.38,24.95Z"/>
    <path class="cls-6" d="m-39.41,1326.44c3.69,2.34,7.38,4.68,11.08,7.03,14.54,7.9,29.09,15.8,47.32,25.71-7.48,1.99-11.96,3.06-16.37,4.38-11.48,3.44-24.66-7.68-35.38,4.09-.61.67-6.68-2.3-6.61-2.56,2.89-10.34-7.04-7.97-11.02-11.28-10.73-8.92-22.05-17.21-32.02-26.9-2.6-2.52-1.09-9.26-1.47-14.07,4.86-.25,10.3-2.02,14.48-.45,10.3,3.87,20.03,9.27,29.99,14.05Z"/>
    <path class="cls-6" d="m404.37,1738.55c32.99-12.29,64.58-24.06,96.07-35.79,3,12.55-6.45,30.12-22.43,40.02-21.49,13.32-54.76,11.96-73.64-4.24Z"/>
    <path class="cls-6" d="m466.91,1635.96c21.2-7.31,42.41-14.58,63.58-21.96,8-2.79,11.01,2.14,8.37,7.73-3.4,7.2-9.16,13.61-15,19.22-4.63,4.46-10.91,7.22-16.45,10.74l.45-.39c-18.63,3.8-37.2,7.98-55.95,11.09-3.63.6-7.96-2.97-11.97-4.62,2.86-3.44,5.22-7.52,8.68-10.17,5.88-4.5,12.44-8.09,18.73-12.06,0,0-.44.43-.44.43Z"/>
    <path class="cls-6" d="m28.08,999.42c-5.77-7.71-4.55-11.41,5.78-11.9,27.03-1.29,42.38,14.49,39.7,42.24-1.36,14.05-3.81,27.99-6.16,44.72-4.35-3.48-9.24-5.46-10.66-8.88-5-12.04-9.9-24.33-12.76-36.99-2.67-11.81-3.3-23.9-16.36-29.64l.45.46Z"/>
    <path class="cls-6" d="m603.07,1116.61c3.92-6.65,7.85-13.3,11.77-19.95,16.66,8.29,21.01,26.09,12.23,50.03,0,0,.44-.42.44-.42-14.02,9.13-28.03,18.29-42.09,27.35-1.75,1.13-3.81,1.78-5.72,2.66-1.28-.69-2.55-1.38-3.83-2.07,5.56-12.86,10.89-25.83,16.78-38.54,3.11-6.73,7.19-13.02,10.83-19.51,0,0-.4.45-.4.45Z"/>
    <path class="cls-6" d="m428.49,1173.52c16.51-12.39,33.02-24.78,49.52-37.17,4.1-2.1,8.21-4.2,15.81-8.08-2.62,9.36-4.32,15.45-6.03,21.55,0,0,.34-.41.34-.41-4.26,4.5-8.52,9-12.75,13.48-6.04,5.09-12.1,10.2-18.17,15.31-11.03,9.55-22.07,19.1-33.1,28.65-2.04,3.4-4.08,6.8-6.12,10.19-8.65,2.53-8.07-3.65-8.49-8.96-1.27-15.7,10.03-24.48,18.98-34.56Z"/>
    <path class="cls-6" d="m554.16,1191.69c-7.8-22.21-21.1-40.58-39.86-55.21,15.28-9.39,34.63-4.56,51.33,9.2,16.81,13.85,11.71,35.79-1.7,45.39-2.23,1.6-6.45.41-9.77.46-.02-.06,0,.16,0,.16Z"/>
    <path class="cls-6" d="m348.64,1758.89c-3.48-4.52-3.91-7.72,3.03-9.09,20.59-4.08,40.7-12.54,61.91-.38,7.63,4.38,17.82,4.3,28.95,9.87-5.57,3.64-10.69,8.65-16.79,10.66-17.62,5.79-35.1,2.92-52.25-3.27-8.33-3.01-16.86-5.47-25.3-8.17l.46.39Z"/>
    <path class="cls-6" d="m150.77,1300.6c-9.02-15.11-18.05-30.22-27.07-45.33-1.5-2.95-3-5.91-5.02-9.89,13.73-3.16,20.34,4.54,26.84,12.39,3.63,4.39,7.14,8.88,10.71,13.33,11.01,17.07,22.01,34.14,32.99,51.18,1.45,2.71,2.92,5.45,5.09,9.46-13.25,1.57-22.02-1.75-28.58-10.82-4.92-6.82-9.97-13.55-14.96-20.32Z"/>
    <path class="cls-6" d="m457.23,1178.2c6.06-5.11,12.13-10.22,18.17-15.31,5.38-4.99,8.57-4.59,10.98,3.17,5.71,18.37-1.53,34.89-6.83,51.6-.6,1.9-6.54,3.74-9.23,2.95-4.02-1.17-7.53-4.48-10.95-7.26-18.31-14.86-18.43-17.52-2.13-35.14Z"/>
    <path class="cls-6" d="m40.43,1248.56c1.33,2.71,2.67,5.42,3.99,8.12,12.58,21.69,25.16,43.39,37.74,65.09-.6,1.15-1.2,2.3-1.79,3.45-6.77-3.64-16.21-5.56-19.86-11.22-18.47-28.67-35.44-58.31-53.09-87.87q11.64-3.58,33,22.44Z"/>
    <path class="cls-6" d="m292.18,1262.51c14.71,17.57,32.25,30.95,54.78,36.92,5.76,3.8,11.54,7.61,17.31,11.41-22.55,7.93-38.81-6.96-57.02-14.52-7.43-4.93-14.86-9.86-22.24-14.74-6.94-8.91-13.92-17.86-21.33-27.35,12.66-6.17,20.29,2.07,28.5,8.28Z"/>
    <path class="cls-6" d="m426.5,1715.62c-2.97-9.92.54-15.4,10.71-18.37,23.91-6.98,47.59-14.74,71.76-22.31-.08,20.18-53.08,45.44-82.47,40.67Z"/>
    <path class="cls-6" d="m621.22,1170.76c11.52,2.11,16.96,10.75,17.15,20.73.25,13.6-1.46,27.44-4.18,40.8-1.06,5.22-7.13,9.42-13.31,13.36,2.88-20.16-.06-37.31-15.22-49.94,5.8-9.2,10.9-17.29,16.01-25.39l-.45.43Z"/>
    <path class="cls-6" d="m487.81,1149.81c4.24-4.69,8.52-9.16,14.87-2.88.18.14.39.26.61.37,6.98,10.8,13.95,21.61,20.94,32.41,5.29,8.17,1.29,12.27-6.44,14.68-18.51,5.78-26.1.6-27.43-18.53-.61-8.83-1.46-17.65-2.2-26.47,0,.01-.34.42-.34.42Z"/>
    <path class="cls-6" d="m348.19,1758.51c12.41,5.58,24.82,11.17,37.31,16.79-10.81,17.89-55.81,8.72-76.88-15.61,13.65-5.03,26.75-5.31,40.04-.78-.01,0-.47-.39-.47-.39Z"/>
    <path class="cls-6" d="m535.05,1229.74c6.47,3.33,12.95,6.67,19.42,10,7.01,5.29,14.31,10.27,20.85,16.09,1.87,1.66,2.61,6.12,1.82,8.65-.48,1.52-5.63,3.31-7.47,2.43-26.01-12.5-51.82-25.43-78.48-40.7,9.13-.63,18.25-1.27,27.38-1.9l-.42-.27c5.63,1.9,11.26,3.8,16.89,5.7Z"/>
    <path class="cls-6" d="m203.86,1135.32c-4.1-2.43-8.21-4.86-12.31-7.28.65-9.13,5.88-12.76,14.02-8.94,5.55,2.6,10.53,6.41,15.76,9.68,1.72,1.53,3.44,3.06,5.13,4.57,15.32,12.56,30.67,25.14,47.09,38.6-10.4,6.74-18.1,1.56-24.86-3.21-10.53-7.42-20.13-16.15-30.35-24.02-4.54-3.5-9.64-6.28-14.48-9.39Z"/>
    <path class="cls-6" d="m422.54,1135.91c-4.36,11.35-8.73,22.69-12.84,33.39-11.58-12.84-23.56-26.13-35.23-39.07,8.07-6.24,34.92-4.21,47.99,6.08.03-.07.08-.39.08-.39Z"/>
    <path class="cls-6" d="m345.31,1136.17s0,.09,0,.09c-.97-2.23-1.95-4.46-2.93-6.69,2.79-.68,6.27-2.77,8.24-1.8,8.67,4.27,18.02,8.18,25.03,14.54,11.76,10.68,22.23,22.87,32.5,35.05,2.05,2.43.78,7.67,1.04,11.61-3.48-1.02-7.86-1.04-10.29-3.22-18.08-16.28-35.78-33-53.59-49.58Z"/>
    <path class="cls-6" d="m518.57,1224.31c-10.25-1.13-20.49-2.27-30.74-3.4,3.03-20.59,14.21-27.92,36.69-23.24,8.19,1.7,16.13,4.58,24.19,6.91.17,1.3.33,2.6.5,3.9-10.37,5.18-20.74,10.36-31.09,15.55.02,0,.44.28.44.28Z"/>
    <path class="cls-6" d="m230.98,1771.67c5.26,4.45,10.52,8.89,15.88,13.42-18.02,11.36-54.13-4.87-65.55-32.17,16.27,4.74,30.15,8.79,44.02,12.82,1.88,1.97,3.77,3.95,5.65,5.93Z"/>
    <path class="cls-6" d="m608.27,1306.65c-11.06,4.63-22.13,9.26-34.81,14.57-2.91-19.87,15.34-18.55,19.77-28.31.01,0-.42.45-.41.44,10.73-8.76,21.45-17.52,32.1-26.23,7,9.91,3.28,19.41-17.07,39.95,0,0,.42-.41.42-.41Z"/>
    <path class="cls-6" d="m263.05,1762.53c28.9-7.27,50.61,5.31,71.41,20.92-15.09,11.29-47.39,2.1-71.41-20.92Z"/>
    <path class="cls-6" d="m185.62,1740.19c.67-1.97,1.34-5.66,2-5.66,31.4.16,62.82.53,91.84,15.11.3.15.35.79,1.68,4-33.9,3.38-64.81-6.2-95.95-13.8l.42.34Z"/>
    <path class="cls-6" d="m416.45,1243.73c8.02,9.2,16.04,18.4,24.04,27.58,2.12,8.67,8.83,17.97-3.31,24.76,0,0,.43.36.44.36-15.03-19.18-30.07-38.37-45.11-57.57.38-1.16.75-2.31,1.13-3.47,7.6,2.78,15.2,5.55,22.81,8.33Z"/>
    <path class="cls-6" d="m3.34,1042.91c1.13.6,2.26,1.21,3.38,1.81,1.16,12.12-6.2,6.74-11.92,6.17-13.89-1.38-27.83-2.45-41.77-2.92-3.03-.1-6.16,2.81-9.24,4.33-2.97.09-5.94.18-8.92.27-5.44,1.33-10.88,2.66-16.69,4.07,2.46-12.05,10.46-17.97,24-20.61,21.23-4.14,41.35-.55,61.15,6.89Z"/>
    <path class="cls-6" d="m230.98,1771.67c-1.89-1.98-3.77-3.96-5.65-5.93-4.12-9.4-.01-12.21,8.25-8.74,18.4,7.71,36.44,16.29,53.84,26.73-22.41,10.88-39.13-1.9-56.44-12.06Z"/>
    <path class="cls-6" d="m156.97,1769.16c-3.4-4.47-6.81-8.94-10.45-13.73,16.59-5.67,25.75-2.65,35.19,8.32,6.78,7.89,15.24,14.34,25.04,23.35-21.33,5.68-34.63-6.03-48.4-16.1-.45-.73-.92-1.36-1.38-1.85Z"/>
    <path class="cls-6" d="m503.29,1147.3c-.22-.11-.42-.23-.61-.37-2.55-3.24-5.1-6.47-7.65-9.71.83-1.35,1.67-2.7,2.5-4.04,4.62,2,10.5,2.83,13.65,6.2,11.46,12.27,22.1,25.31,32.85,38.23,3.66,4.4,6.74,9.3,10.11,14.02.02.05,0-.17.02-.11-11,7.54-17.51,3.43-23.97-7.2-7.89-12.99-17.85-24.73-26.91-37.02Z"/>
    <path class="cls-6" d="m185.19,1739.84c6.52,3.17,13.04,6.34,19.56,9.51-.32,1.09-.64,2.19-.95,3.28-27.12,1.43-52.2-7.27-76.9-17.9-1.34-.67-2.67-1.34-4.01-2.01-1.7-1.78-3.4-3.56-5.1-5.34l1.58-4.35c22.09,5.72,44.18,11.44,66.25,17.16-.01,0-.43-.35-.43-.35Z"/>
    <path class="cls-6" d="m72.02,1094.75c-3.27-27.3,9.86-54.13,3.73-81.52,1.79-.6,3.59-1.21,5.38-1.81,2.58,4.94,7.69,10.09,7.31,14.8-1.88,23.07-5.23,46.01-8.06,69-2.78-.16-5.57-.32-8.35-.47Z"/>
    <path class="cls-6" d="m568.13,1368.88c10.79-19.1,34.16-14.95,45.69-29.57,9.33,14.23,1.54,28.83-13.53,29.49-9.57.42-19.18.08-32.16.08Z"/>
    <path class="cls-6" d="m156.97,1769.16c.46.49.93,1.12,1.38,1.85,1.15,2.11,2.33,4.26,4.79,8.75-20.14-1.4-33.31-11.43-45.88-22.57-1.44-1.76-2.94-3.56-4.45-5.37,1.39-2.66,3.88-7.7,4.03-7.64,9.62,4.4,22.73,1.29,28.65,14.11,2.05,4.44,7.54,7.29,11.47,10.87Z"/>
    <path class="cls-6" d="m541.01,1058.08c-1.53-2.81-3.06-5.62-4.59-8.43-4.37-4.86-8.74-9.72-13.13-14.6,10.87-7.3,20.34-5.9,25.54,6.77,6.03,14.71,8.77,30.77,12.93,46.25-2.2.87-4.39,1.74-6.59,2.6-4.72-10.86-9.45-21.72-14.17-32.58Z"/>
    <path class="cls-6" d="m571.19,1427.15c4.64-1.92,9.29-3.85,13.89-5.74,6.24-2.9,12.52-5.84,18.9-8.82,5.19,17.76-17.48,34.57-43.23,32.87-4.08-10.37,1.75-15.12,10.44-18.31Z"/>
    <path class="cls-6" d="m112.82,1751.82c1.5,1.81,3,3.61,4.45,5.37,1.13,2.48,2.31,5.02,3.71,7.99-21.71.81-43.41-18.91-42.65-38.51,13.92,5.5,28.86,8.7,34.5,25.15Z"/>
    <path class="cls-6" d="m49.91,1700.92q24.76,10.88,29.29,19.35c-5.08-1.42-8.68-2.43-11.97-3.35,3.78,9.42,7.62,19,11.69,29.12-17.52-4.47-30.34-24.41-29-45.11Z"/>
    <path class="cls-6" d="m603.47,1116.16c-5.98,7.92-11.95,15.84-17.93,23.76-1.15-.56-2.31-1.12-3.46-1.67,7.22-22.21,14.44-44.42,21.43-65.91,9.68,8.78,9.91,17.27-.44,44.29,0-.01.4-.46.4-.46Z"/>
    <path class="cls-6" d="m189.43,1581.75c9.01,2.47,18.86,2.7,19.99,5.96,2.92,8.4,2.35,18.15,2.08,27.33-.03,1.08-6.98,2.91-10.58,2.61-2.73-.22-7.04-2.89-7.5-5.12-1.85-8.91-2.48-18.07-3.99-30.78Z"/>
    <path class="cls-6" d="m551.99,1582.22c1.36,13.28-12,24.87-34.72,30.13-2-15.1,13.21-28.3,34.72-30.13Z"/>
    <path class="cls-6" d="m27.62,998.95c6.7,10.59,15.3,20.58,11.14,35.31-8.63-18.66-20.9-32.62-43.01-36.77,11.62-8.9,12.72-8.77,32.32,1.92,0,0-.46-.46-.46-.46Z"/>
    <path class="cls-6" d="m507.42,1651.68l17.74,1.14c-4.13,5.38-7.34,12.1-12.66,15.77-5.73,3.97-13.44,5.09-20.43,7.5-5.89-17.51,8.98-18.23,15.77-24.8.02-.01-.43.38-.43.38Z"/>
    <path class="cls-6" d="m326.3,1552.29c9.99-1.21,11.84,3.93,11.69,12.01-.19,10.12-5.96,10.75-14.04,10.86-9.54.13-10.7-4.74-10.85-12.5-.2-10.55,5.79-11.6,13.2-10.37Z"/>
    <path class="cls-6" d="m328.57,1632.42c2.27,9.6-2.31,13.43-11.05,13.8-11.07.46-8.39-7.86-8.91-14.04-.67-8.1,1.14-15.38,11.15-12.8,4.52,1.16,7.87,6.88,11.75,10.53-.98.84-1.96,1.67-2.94,2.51Z"/>
    <path class="cls-6" d="m354.79,1734.71c3.83-.12,7.66-.24,11.49-.37,8.44-1.89,16.88-3.79,25.32-5.68.37,1.89.74,3.78,1.11,5.67-20.3,7.14-40.74,13.62-63.08,10.88l.39.37c3.31-2.38,6.34-5.42,10-6.96,4.65-1.95,9.82-2.67,14.77-3.92Z"/>
    <path class="cls-6" d="m621.67,1170.33c-9.98,3.69-19.95,7.42-29.97,10.99-1.08.38-2.49-.18-5.63-.48,14.58-12.17,28.01-23.38,41.44-34.58,0,0-.44.42-.44.43,1.78,2.01,5.49,4.98,5.04,5.87-3.15,6.31-7.15,12.18-10.89,18.2,0,0,.44-.43.44-.43Z"/>
    <path class="cls-6" d="m424.83,1607.25c-3.92-22.42-.18-27.25,19.2-24.83,2.94,20.59-.88,25.53-19.2,24.83Z"/>
    <path class="cls-6" d="m575.91,1205.23c-4.89,1.21-9.78,2.41-14.66,3.62,7.58-20.35,24.83-23.36,41.65-27.11.83,1.17,1.66,2.34,2.49,3.51-9.96,6.78-19.93,13.56-29.9,20.34-.01,0,.42-.36.42-.36Z"/>
    <path class="cls-6" d="m329.64,1745.22c-.06,2.04-.05,5.87-.2,5.87-17.54.72-35.37,2.95-55.18-9.14,21.49-4.2,38.69-1.51,55.79,3.63,0,0-.4-.37-.4-.37Z"/>
    <path class="cls-6" d="m19.63,1581.84c-14.03.51-17.6-5.57-19.1-30.9,14.78-1.99,18.24,3.45,19.1,30.9Z"/>
    <path class="cls-6" d="m77.69,1564.76c-16.64-3.19-18.59-5.96-18.48-24.85,18.28-3.25,23.86,4.04,18.48,24.85Z"/>
    <path class="cls-6" d="m437.89,1546.33c-3.16-21.66.47-25.83,19.57-22.48.94,20.06-1.86,23.28-19.57,22.48Z"/>
    <path class="cls-6" d="m335.64,1491.21c2.87,4.05,7.62,7.84,8.24,12.22,1.39,9.82-7.03,10.59-13.33,9.31-4.23-.86-11.14-6.58-10.67-8.84.99-4.76,6.04-8.68,9.43-12.94,2.11.08,4.22.17,6.33.25Z"/>
    <path class="cls-6" d="m397.29,1729.41c4.05-9.63-4.9-22.85,11.61-23.37,2.95-.09,8.18,5.46,8.78,9,2.42,14.4-8.71,12.86-20.39,14.36Z"/>
    <path class="cls-6" d="m345.8,1423.08c-4.6,2-9.35,5.79-13.76,5.43-3.33-.27-8.22-5.48-8.87-9.12-1.04-5.86,1.71-12.23,9.65-10.26,4.72,1.17,8.83,4.81,13.22,7.34-.08,2.21-.16,4.41-.24,6.62Z"/>
    <path class="cls-6" d="m122.9,1732.73c1.34.67,2.67,1.34,4.01,2.01-1.63,1.93-3.75,5.76-4.82,5.49-15.03-3.81-28.55-10.44-41.5-23.94,19.16-1.42,29.44,10.78,42.31,16.44Z"/>
    <path class="cls-6" d="m566.34,1309.38c-.44,8.69,4.1,18.22-9.59,19.55-7,.67-9.4-2.15-9.41-8.99-.03-13.41,8.65-11.71,19-10.55Z"/>
    <path class="cls-6" d="m464.17,1469.43c2.26,10.36.43,17.16-9.86,16.33-3.38-.27-9.26-5.68-9.03-8.33,1.08-12.89,11.22-6.58,18.9-8.01Z"/>
    <path class="cls-6" d="m203.48,1711.56c10.34-1.79,18.1-1.67,16.97,9.69-.32,3.22-5.07,8.56-7.77,8.56-13.78-.03-7.14-10.67-9.2-18.24Z"/>
    <path class="cls-6" d="m492.76,1622.17c.9-12.18,2.24-22.45,17.38-21.22,2.07,15.46-1.23,19.69-17.38,21.22Z"/>
    <path class="cls-6" d="m418.52,1672.09c-3.5-4.84-6.9-7.39-6.94-10-.15-9.01,7.34-8.84,13.22-8.38,3.12.24,5.98,3.76,8.95,5.8-4.48,3.7-8.96,7.4-15.23,12.58Z"/>
    <path class="cls-6" d="m196.26,1349.57c-2.17.2-4.53,1.04-6.48.46-4.23-1.25-8.24-3.23-12.34-4.91,1.3-2.48,2.41-6.94,3.93-7.08,5.76-.54,11.65.32,17.49.65-.98,3.72-1.97,7.43-2.96,11.15,0,0,.36-.28.36-.28Z"/>
    <path class="cls-6" d="m468.23,1681.41c3.24-9.61,1.85-21.49,16.94-18.59.83,15.31-2.22,18.97-16.94,18.59Z"/>
    <path class="cls-6" d="m541.94,1432.54h11.33c.71,17.59-.58,19.16-15.91,18,1.71-6.32,3.32-12.32,4.95-18.33.01,0-.37.33-.37.33Z"/>
    <path class="cls-6" d="m547.72,1377.59c-1.49-9.13-3.06-16.24,6.59-17.37,3.27-.38,9.74,2.51,10.02,4.56,1.68,12.03-8.84,8.92-16.61,12.81Z"/>
    <path class="cls-6" d="m220.25,1667.01c-7.01,3.38-11.1,6.97-13.28,6.04-3.48-1.47-6.84-5.61-7.91-9.3-.47-1.6,5.47-7.38,7.42-6.9,3.92.97,7.1,4.93,13.77,10.15Z"/>
    <path class="cls-6" d="m474.5,1405.84c-5.75.34-11.57,1.34-17.22.75-3.08-.32-5.87-3.36-8.79-5.17.42-1.24.84-2.48,1.25-3.72,5.96-.82,11.89-1.96,17.88-2.4,8.96-.66,11.79,2.82,6.48,10.9,0,0,.39-.36.39-.36Z"/>
    <path class="cls-6" d="m580.77,1478.55c-6.15,13-16.68,17.32-30.94,11.08,9.62-3.45,19.25-6.89,30.94-11.08Z"/>
    <path class="cls-6" d="m531.43,1539.83c-4.96,6.88-8.82,12.24-14.33,19.89-5.09-18.65-3.04-21.38,14.33-19.89Z"/>
    <path class="cls-6" d="m527.67,1498.1c3.05-3.32,5.77-7.12,9.38-9.62.89-.61,4.7,3.01,7.17,4.69-3.62,3.52-7.23,7.04-10.85,10.56-1.9-1.88-3.81-3.76-5.71-5.63Z"/>
    <path class="cls-6" d="m72.63,1609.23c19.13-1.2,24.45,6.56,21.9,30.34-16.26,3.74-18.08-1.68-21.9-30.34Z"/>
  </g>
  <g class="cls-3">
    <path class="cls-5" d="m1429.71,596.58l-9.38-39.89-15.25-46.93,4.69-32.85,3.52-45.17-5.87-77.43-2.35-5.81h-8.21l-15.84,9.33-43.41,24.05-23.46,17.6-14.08,15.25-25.22-4.69-39.89-.59-32.26,1.76-16.42,4.11-6.45-10.56-13.49-11.73-43.99-26.98-31.09-17.54h-7.04l-3.52,4.64-3.52,36.37-.59,62.18,6.65,56.7-2.74,7.82-18.38,61.39-7.43,42.23-.78,28.16,3.52,18.77,6.65,16.42,8.6,10.95-75.86,74.3-80.95,85.64-63.35,87.98-41.06,90.33-28.16,89.16-10.56,76.25-2.35,62.18.86-22.85,14.39-7.06,58.07-12.32,40.47-.88,62.47,8.8,95.02,22,7.04-17.6.88-21.12-12.9-66.28-12.32-62.76,23.46-76.25,6.45,15.84,2.35,35.19-8.8,39.3,8.21,33.43,35.19,148.99h-25.35l-54.13-10.26-94.14-20.24-59.83-4.4-38.71,4.4-48.68,14.08-12.9,8.21-35.19,28.16-18.77,38.71-6.18,46.93,7.35,36.37,18.77,23.46,32.85,15.25,45.75,12.9,63.35,10.9h114.97l124.35-17.94,86.15-22.29,47.58-22.29h-29.33l45.75-42.23-44.58-7.63,28.16-19.36-21.12-8.8-14.08-8.21,12.32-16.42-31.09-9.38-17.6-12.32-8.21-82.12-9.39-126.7,12.9-17.6,3.52,22.29,70.39,177.14,35.19,95.02,10.56,25.81,15.25,9.38,25.81,4.69,29.33-5.87,18.77-10.56,2.35-11.73-3.52-11.73-5.87-11.73-19.94-14.08-22.29-18.77-15.25-23.46-22.29-57.48-10.56-45.75-15.25-82.12,2.35-29.33,4.69-22.29,28.16-61,24.64-51.62,14.08-37.54,7.04-37.54,5.87-80.95,3.52-49.27,15.25-5.87,30.5-21.12,21.7-20.53,9.97-11.14,5.87-18.77,2.4-24.05-4.75-41.06Zm-253.92-30.04l-11.71-3.72-12.77-13.3-13.3-23.41h12.24l22.88,7.45,14.37,14.37,20.75,27.67-32.46-9.05Zm155.38-10.64l-12.24,9.05-38.85,10.64,17.56-24.74,12.24-13.57,14.37-6.92,25.54-4.26-18.62,29.8Z"/>
  </g>
</svg>