<?xml version="1.0" encoding="UTF-8"?>
<svg id="_Слой_1" data-name="Слой 1" xmlns="http://www.w3.org/2000/svg" xmlns:xlink="http://www.w3.org/1999/xlink" viewBox="0 0 3000 1800">
  <defs>
    <style>
      .cls-1 {
        fill: #0d4812;
      }

      .cls-1, .cls-2, .cls-3, .cls-4, .cls-5, .cls-6, .cls-7, .cls-8, .cls-9, .cls-10 {
        stroke-width: 0px;
      }

      .cls-11 {
        clip-path: url(#clippath-2);
      }

      .cls-2 {
        fill: #26401a;
      }

      .cls-12 {
        opacity: .49;
      }

      .cls-13 {
        clip-path: url(#clippath-6);
      }

      .cls-3 {
        fill: #46712c;
      }

      .cls-4 {
        fill: #00320d;
        opacity: .3;
      }

      .cls-4, .cls-7 {
        isolation: isolate;
      }

      .cls-5 {
        fill: #253f19;
      }

      .cls-6 {
        fill: none;
      }

      .cls-7 {
        fill: #8fa91e;
        opacity: .56;
      }

      .cls-14 {
        clip-path: url(#clippath-1);
      }

      .cls-15 {
        clip-path: url(#clippath-4);
      }

      .cls-16 {
        clip-path: url(#clippath);
      }

      .cls-8 {
        fill: #2d842a;
      }

      .cls-17 {
        opacity: .77;
      }

      .cls-18 {
        clip-path: url(#clippath-3);
      }

      .cls-9 {
        fill: #2c8229;
      }

      .cls-19 {
        clip-path: url(#clippath-5);
      }

      .cls-10 {
        fill: #61a131;
      }
    </style>
    <clipPath id="clippath">
      <rect class="cls-6" x="3.75" width="2996.25" height="1800"/>
    </clipPath>
    <clipPath id="clippath-1">
      <polygon class="cls-6" points="-350.9 52.86 -55.97 466.03 173.71 543.5 365.34 437.49 629.01 224.11 618.14 52.86 262.05 -171.39 -350.9 52.86"/>
    </clipPath>
    <clipPath id="clippath-2">
      <polygon class="cls-6" points="-388.42 929.48 -665.39 775.58 -515.23 526.89 -51.34 204.36 443.66 -163.7 744.53 179.6 502.38 715.41 -388.42 929.48"/>
    </clipPath>
    <clipPath id="clippath-3">
      <polygon class="cls-6" points="-683.87 691.83 -221.97 505.59 229.3 129.2 345.64 -343.99 -683.87 691.83"/>
    </clipPath>
    <clipPath id="clippath-4">
      <path class="cls-6" d="m458.46,570.37l-41.69-63.39-89.93,31.83-166.11-.1L-215.36,267.72l-165.44,92.53s-32.71,204.55-28.75,199.08S-9.76,797.45-16.83,798.6c-7.07,1.14,343.89-65.76,341.15-67.73-2.74-1.98,134.14-160.5,134.14-160.5h0Z"/>
    </clipPath>
    <clipPath id="clippath-5">
      <path class="cls-6" d="m-279.35,677.27l-171.52-180.37,170.93-151.2c31.3-20.68,67.45-41.43,108.63-60.22,121.07-55.25,234.18-70.09,314.82-72.71,152.49-53.26,304.97-106.51,457.46-159.77l145,327.97-307.27,344.86-718.04-48.56h-.01Z"/>
    </clipPath>
    <clipPath id="clippath-6">
      <polygon class="cls-6" points="-445.08 429.78 -55.1 398.55 371.53 222.28 569.79 -105.16 -445.08 429.78"/>
    </clipPath>
  </defs>
  <g class="cls-16">
    <g id="_Слой_1-2" data-name=" Слой 1">
      <g>
        <rect class="cls-3" width="3000" height="1800"/>
        <path class="cls-5" d="m1397.89,506.86l8.1-6.71,5.4-11.05s6.61-2.91,8.31-4.44c1.69-1.53,2.65-1.16,2.65-1.16,0,0,9.05-6.34,11.64-7.35,2.58-1,1.64-4.21,1.64-4.21l3.6-9.25,3.28-8.41,3.04-7.8-6.13-1.15-19.52-3.36s5.08-4.6,10.74-7.88,17.36-10.78,17.36-10.78l-2-11.75-28.77-13.4-12.17-2.55-9.1.84,4.71-3.65c4.71-3.65,5.29-2.32,5.29-2.32l3.76-4.02,4.18.53,13.81-4.49,3.23.16,7.15-7.08,7.73-5.76,3.76-4.02s7.94-3.49,10.58-4.65c2.65-1.16,8.1-6.71,8.1-6.71l-.8-12.02,2.35-6.02-1.61-7.21-4.74-1.85-7.2,1.58-10.95,5.6-7.89,8.99-14.55,6.39-9.84,2.74-21.8,2.47-30.16,1.41-13.81,4.49-11.7,7.5-12.27,6.85-7.7,6.1-8.18.21-9.31-1.43-13.33-5.19-10.63-.85-14.81-1.39-3.44-2.44-2.74-9.84-6.8-15.15-5.47-2.13-12.2-4.75-4.63-1.8-13.46-5.24-3.08,7.9-6.12-6.66-9.44-3.68-17.31,16.28-11,.1-6.44-.36-4.98-4.09-5.55-5.45-4.02-3.76-2.32-5.29-4.97-4.13-4.39-2.81-8.36-1.06-9.84,2.74,11.42,4.45,4.6,5.08-1.06,8.36,1.37,4.92,1.37,4.92,10.31,7.31,10.36,4.37-2.11,5.42-14.44-2.34-12.54-1.6-4.44-8.31-2.91-6.61-6.66-2.6-5.87,1-4.02-3.76-3.44-2.44-5.5.05-6.4,5.18-3.07-3.39-5.92-4.5-9.47,1.79-7.73,5.76-6.08-1.27-7.41-.69-19.05,12.31-6.08.12-6.04,2.83-14.65-4.61-19.15,1.31-24.54-7.37-13.49-1.97s12.12-2.95,16.25-7.92,12.44-9.41,12.44-9.41l7.94-3.49,9.52,3.71,10.26,1.81,12.33-.68,7.94-3.49,5.08-4.6s2.6-6.66,6.73-11.63,7.52-8.04,7.52-8.04l5.87-1,5.71,2.23-.63-6.83-6.66-2.6-7.2,1.58-7.94,3.49-6.03,4.23-6.19,7.46-8.15,1.21-11.42-4.45-8.2-4.29-6.29-3.55-8.52,2.16-8.68,5.39-9.79,8.25-9.1.84-8.36-1.06-9.94-8.26-12.17-2.55-9.68-.48-9.84,2.74-7.78.26-7.04-1.64-5.71-2.23-5.18-6.4-5.5.05-3.97,1.74-5.03,10.1-4.34,2.7-7.73,5.76-7.99-2.02-5.55-5.45-2.32-5.29,1.48-3.81,6.99-3.86,5.24-7.83-2.7-4.34-7.62-2.97-3.65-4.71,3.39-3.07,3.18-5.34,10.58-4.65s9.47-1.79,14.39-3.16c4.92-1.37,4.87-6.87,4.87-6.87l1.43-9.31-11.63-6.73-10.79,2.37-7.41-.69-7.99-2.02-8.57-3.34-11.59-1.22-8.31,4.44-7.89,8.99-5.34-3.18-11.42-4.45-8.2-4.29-11.25,1.38-11.87,1.68-8.68,5.39-4.02-3.76-10.31-7.31-.47-10.05-.47-10.05-3.12-8.89-2.16-8.52-5.55-5.45-4.6-5.08-6.13-6.78-5.76-7.73-6.71-8.1-.63-6.83-2.74-9.84-3.62-11.39-10.09-3.93-11.98-4.67,6.66,12.57,6.55,11.33,1.26,13.65,1.42,10.42,5.39,8.68,12.8,9.37,4.07,9.26,1.1,16.88-2.5,17.67,5.65,16.46,7.13,12.65-4.87,6.87-18.62-2.87-12.12,2.95-13.7-4.24-8.57-3.34-8.42-7.67-8.83-3.44-12.69-4.94,9.04,13.39,11.1,10.91,2,11.75-6.87-4.87-7.74-7.4-10.77-4.2-9.54.39-1.47,3.78,8.15,3.18,5.08,6.67,6.34,9.05,13.13,12.79,14.42,12.2,18.25,3.82,8.33-.04,17.53,6.83-1.27,6.08-73.17,7.68-17.62,3-11.12,8.83-8.47,7.67-13.46,23.29-7.04,18.06.68,12.33,3.05,23.12,8.35,20.8,17.66,22.23,13.63,12.99,18.04,7.03,17.25-2.05,10.21-3.7,11.47-6.93,2.45-6.29,20.05-6.44,26.93-1.57,29.95-3.68,16.14.8,12.49-3.91,39.05-4.52,3.75,15.71,8.88,16.62,15.38,22.44,17.91,30.01,16.54,25.09,2,11.75,8.33,40.53,1.52,21.43-10.71,33.11-13.15,28.32-13.44,11.76-11.7,7.5-14.34,8.67-12.6,12.64-10.7,13.38-4.66,9.15-3.45,17.3-.43,15.18,2.37,10.79,7.71,13.97,6.97,15.88-14.31,33.9-11.65,13.01-9.69,19.25-14.03,21.95-14.78,23.85-21.77,47.44-10.49,15.65-4.71,3.65-11.37,1.05-12.91-.64-22.48-9.85-24.54-7.37-22.27-7.58-21.64-.75-27.46,5.75-28.78,6.33-20.31-1.34-30.25-9.6s-35.43-16-36.02-17.32c-.58-1.32-5.34-3.18-6.29-3.55l-4.76-1.85-7.04-1.64-7.78.26-6.61,2.91-3.34,8.57-4.77,17.88-.06,14.23,2.21,14.02-4.66,9.15-5.45,5.55-7.36,4.81-10.74,7.88-7.73,5.76-10.32,12.43-.27,11.96,2.16,8.52,7.67,8.47,8.2,4.29,9.1-.84,13.12,2.92,8.78,5.61,6.13,6.78,11.42,4.45,8.15-1.21,3.97-1.74,2.44-3.44,6.83-.63,8.94,2.39,3.28,5.66,5.18,6.4,2.44-3.44,2.97-7.62-1.95-6.24-4.6-5.08-1.37-4.92-3.65-4.71-3.65-4.71-5.71-2.23-7.04-1.64-9.84,2.74-10.05.47-7.62-2.97-1-5.87,2.6-6.66,3.92-7.25,7.15-7.08,8.89-3.12,7.04,1.64,9.84-2.74,8.89-3.12,12.86-4.86,10.37-6.92s7.78-.26,9.1-.84,13.12,2.92,13.12,2.92l14.81,1.39,17.51,5.73,13.54,7.47,21.69,6.26,14.44,2.34,18.46,6.1,16.35,3.08,16.88-1.1,17.3,3.45,22.85,8.9,16.18,6.31,20.15,4.56,9.38-.15,11.26-4.97,8.68-5.39,7.15-7.08,10.06-20.2,7.47-13.54,7.26-15.81,17.47-19.51s39.75-31.66,41.45-33.2c1.69-1.53,23.67-26.97,23.67-26.97l8.53-21.9,9.97-31.21,9.2,10.16,11.05,5.4,52.82,50.19,14.7,10.11,12.26,13.55,5.02,9.63,5.97,10-5.94,15.23s-7.84,14.49-8.21,15.44-5.4,11.05-6.15,12.96-3.76,4.02-7.15,7.08c-3.39,3.07-6.73,11.63-6.73,11.63l-9.16,15.07-8.95,17.35-2.13,16.72-3.77,23.75.15,16.51-4.51,25.66-12.77,35.6-14.31,33.9-11.07,14.33-8.42,13.17-2.39,8.94,1.47,15.92,1.21,8.15,12.22,8.05,11.8,3.5,5.87-1,10.79-2.37,8.89-3.12,10.84,3.13,12.96,6.15,20.72,25.62,8.87,5.65,7.53,2.93,10.42-1.42s5.13.9,8.36,1.06,5.92,4.5,5.92,4.5l4.97,4.13,10.47,4.08,10.84,3.13,7.99,2.02,2.64,4.32,3.86,1.5.9-5.13-3.77-8.05-4.69-4.02-2.49-2.06,3.6-.79,8.2,4.29,4.02,3.76,4.97,4.13-1.58-7.2-1.74-3.97-2.11-3.02,3.6-.79,4.02,3.76,4.6,5.08,2.06-2.49-2.13-7.41-3.1-4.5-5.34-3.18,1.11-2.86,6.45.32,6.08,1.27-3.28-5.66-3.44-2.44-7.62-2.97-7.04-1.64,1.48-3.81,5.66-3.28,9.47-1.79,8.57,3.34,6.29,3.55.9-5.13-5.92-4.5-10.47-4.08-6.66-2.6-6.83.63s-6.61,2.91-7.57,2.53c-.95-.37-6.61,2.91-6.61,2.91l-3.18,5.34-3.81-1.48-7.36,4.81-10.79,2.37-6.45-.32-6.71-8.1-4.28-11.54-8.62-8.84-6.39-14.55-16.33-22.81-6.76-13.6,7-23.59,13.89-38.45,42.42-72.29,7.9-28.72,8.64-30.63s27.29-67.22,28.24-66.85-2.53-7.57-2.53-7.57c0,0-16.75-27.36-15.64-30.22s-35.26-38.96-35.26-38.96l-9.72-25.72-15.01-23.39-52.92-61.19-23-25.41-4.07-9.26s27.59-34.21,29.28-35.74,13.52-37.5,14.63-40.36,5.77-12.01,6.52-13.91l4.08-10.47-2.95-12.12,4.08-10.47s16.36-16.65,17.31-16.28,4.29-8.2,4.29-8.2l-1.68-18.2-4.54-19.31,4.87-6.87,5.18,6.4,8.99,7.89,11.42,4.45,13.86,1.01,11.42,4.45,9.63-5.02,27.97-54.9,5.08-4.6,11.49-9.78,21.49-15.75,23.29-26.01,6.57-8.41,5.29-2.32,60.62,10.46,41.6,48.01,24.64,18.37,31.84,16.79,12.86-4.86,4.29-8.2s-.31-13.28,1.01-13.86c1.32-.58-7.08-7.15-6.71-8.1s-19.78-5.52-19.78-5.52l-17.56-11.23-16.28-17.31-9.78-11.49s127.81,12.52,128.18,11.56,9.05-6.34,9.05-6.34v.02Z"/>
        <polygon class="cls-4" points="1200.77 1481.77 1126.94 1419.21 1107.69 1387.18 1130.55 1363.16 1190.71 1341.14 1232.66 1341.14 1262.91 1333.13 1297.8 1343.14 1318.26 1345.14 1342.32 1366.16 1361.57 1366.16 1390.45 1387.18 1419.33 1414.21 1448.21 1452.24 1460.24 1501.29 1444.73 1546.15 1424.14 1566.35 1385.64 1594.38 1350.65 1615.69 1295.4 1627.41 1229.47 1627.41 1191.21 1627.41 1184.83 1636.23 1160.63 1626.41 1133.8 1615.69 1096.86 1601.39 1070.39 1589.37 1051.14 1573.36 1038.13 1546.15 1028.28 1514.3 1028.28 1484.68 1200.77 1481.77"/>
        <path class="cls-2" d="m2289.09,1117.12l53.31,8,62.19-22,88.84-79.99v-82.97l11.11-113,31.1-77.79,57.75-62.19,19.99-28-8.88-141.98h-16.45c-30.96,27.66-69.99,58.07-117.71,86.67-31.03,18.6-60.74,33.43-87.95,45.31-12.59,6-25.17,12-37.76,18l-2.22,30v30l15.55,20-19.99-4-4.44,12,6.66,8,2.22,8-15.55,4-15.55-16-8.88-20-2.22,16v8l15.55,22-4.44,12-15.55-16v14l-6.66,4.55-15.55-40.55,8.88-37.99,13.33-18,28.87-51.99,153.25-115.98,42.2-41.99,39.98-35.99h20.13l-20.13-26,22.21-26,31.1-20.22v-18.55l13.33-39.22v-19.08l22.21-22.92,19.99-28,13.33-24,26.65-20,35.54,6,21.2-6,21,12,22.21,22,13.33,28,17.77,10,26.65,20,26.65,18,15.55,10v10.7l13.33,7.3h17.77l51.08,4,13.33,28,13.33,12,46.64,30,8.94,16,11.05,16,17.77,20,19.99,12-22.21,18h-51.08l37.76,18,35.54,12.17v25.17l-28.87,14.65-24.43-4-11.11,6v12l15.55,8,6.66,18-26.65,16,4.44,18-26.65,2,12.82,16-3.94,24-13.33,16-17.77-8-28.87-20,15.55,30-2.22,20-4.44,12-13.33,12-26.65-8-13.33-14-8.88-2,4.44,35.99v14l2.22,34-6.66,26,6.66,6,3.12,14,5.76,6-6.66,8v22l2.22,8-8.88-2-4.44-22-13.33-12,4.44,12,2.22,18,4.44,14,2.22,10h-11.11l-2.22-16-6.66-18-6.66-14-5.49-14-3.39-8-8.88-4-4.44,8-2.22,10-8.88,8h-6.66l2.22-8,4.44-14,13.33-20,11.11-4,8.88-30v-37.99l-11.11-35.99-11.11-16-8.88-28-4.44-24-8.88-14-15.55-10-11.11-8-8.88-14-11.11,6v8l-4.44,10-15.55,28,11.11,63.99,6.66,32-2.22,43.99-15.55,45.99-175.47,231.97-37.76,32-44.42,34-53.31,28-171.02,41.99-6.66,4,2.22,6,8.88,8,6.66,12,6.66,14-2.22,12,4.44,4,8.88,26,2.22,30,2.22,26-8.88,141.98v26l8.88,26,4.44,20-15.55-14-11.11-32-17.77-16-2.22-32-33.32-20-24.43-8,4.44-14-17.77-22-11.11-16-19.99-14-6.66-16,6.66-26,8.88-16,24.43-35.99,4.44-41.99-6.66-6-37.76,18.59-186.57,93.4-22.21,26-17.77,35.99-28.87,95.99-6.66,20-15.55,2-11.11,6-4.44,22-6.66,20v21.36l-8.04,14.64-7.51,4v19.51l4.44,22.48-4.44,11.21-17.77-29.21v-37.92l4.44-72.06,17.77-59.99,19.99-55.99,37.76-69.99,26.65-20v-12l11.11-12,11.11-45.99,15.55-16,31.1-20,24.43-12,26.65-28,24.43-22-2.22-49.99-4.44-30-13.33-37.99-44.42-6-13.33-2-13.33-26-33.32,2-31.1-20-8.88-6,8.88-8-15.55-18-6.66-14,62.19-18,66.63,2,35.54,10,28.87,16,42.2,32,19.99,6,17.77,2,15.55,14,24.43,28,17.77-18,28.87-28,4.44-12,13.33-2,15.55-12,13.33-10,35.54-22,35.54-39.99h8.88l-11.11,16-24.43,30-26.65,26-28.87,41.99-24.43,61.99-8.88,41.99v4-.08Z"/>
        <path class="cls-9" d="m2488.2-370.72l-45.03-44.48-58.09.07-57.51,44.6-71.82,51.22-71.2,75.96-45.17,59.43-60.77,52.86-50.34,39.65-22.57,16.52-57.26,26.46-57.26,21.51-59.01,33.06-64.21,33.07-22.58,24.77-31.24,19.83-53.8,29.75-45.13,33.04,17.65-.02,62.14-16.57c24-9.16,48.01-18.31,72.01-27.47,1.68-.64,3.37-1.28,5.05-1.93,9.01-3.44,18.03-6.88,27.04-10.31,26.6-10.48,53.21-20.96,79.81-31.43l135.32-43.05,26,6.57,24.25,19.77,19.02,42.86-8.73,41.25-39.99,80.87-50.41,87.48-78.18,104.01-5.27,47.84c-22.23,35.32-44.47,70.63-66.7,105.95,11.6-3.96,23.19-7.93,34.79-11.89l68.29-59.46,27.81-47.87,71.22-87.51,71.22-85.86,13.88-4.96c-.49,4.9-.99,9.8-1.48,14.69-16.31,28.66-32.63,57.32-48.94,85.99l-34.76,61.07-45.15,46.24-26.07,39.62-1.76,21.45-72.96,92.46-13.89,13.21,58.98-14.91,62.48-39.66,31.26-33.03,21.73-39.43,56.41-39.84,34.76-54.47c23.11-38.29,46.22-76.58,69.33-114.88-.59,11.46-2,24.27-4.76,38.1-5.45,27.32-14.44,49.81-22.94,66.83-8.11,15.95-16.23,31.91-24.34,47.86-8.68,22.08-17.37,44.17-26.05,66.25-2.54,10.48-5.08,20.95-7.62,31.43-.4,11.44-.79,22.88-1.19,34.32l-55.64,113.88-21.46,42.8,63.1-51.09,36.47-41.28,33.03-59.42,15.64-26.41,13.89-9.91,29.56-61.07,27.82-57.76,15.67-46.2,15.68-54.45,20.88-56.11,19.14-51.16,33.01-46.22,22.59-36.32,31.25-28.08,12.11,23.08-26.09,59.41-20.9,67.65-15.69,66,10.35,41.22,15.58,24.72c-11.01,22.56-22.03,45.11-33.04,67.67,0,0-38.03,34.1-37.95,37.11,4.54,2.48,56.71-24.67,56.71-24.67l38.51-45.5,19.13-37.96,13.92-34.66,12.2-49.5,17.39-35.78,27.76-10.46.06-48.59,22.6-43.8.04-30.54,13.9-17.31,12.16-18.16.03-23.58,13.94-52.31.13-96.34.04-32.79.06-48.09,10.45-37.23-31.11-79.14-32.87-57.69-36.36-42.84h.04Z"/>
        <polygon class="cls-1" points="2567.75 1319.71 2549.34 1326.36 2535.18 1335.88 2526.04 1354.51 2518.73 1359.74 2494.49 1344.44 2479.94 1328.89 2475.54 1308.97 2478.68 1295.41 2482.96 1283.54 2487.08 1269.6 2496.23 1263.45 2473.51 1271.92 2464.1 1270.07 2468.56 1254.82 2479.79 1242.36 2467.02 1239.77 2460 1229.33 2452.48 1218.14 2446.91 1203.18 2449.7 1193.95 2453.11 1201.46 2461.03 1205.94 2471.17 1201.58 2485.46 1200.96 2497.32 1202.79 2491.22 1193.72 2488.04 1185.34 2498 1184.36 2510.05 1187.69 2507.57 1177.92 2507.74 1154.93 2498.65 1158.58 2489.82 1164.52 2483.67 1175.19 2478.07 1186.31 2471.18 1177.06 2467.63 1162.28 2471.15 1149.29 2476 1137.04 2486.1 1122.89 2496.24 1116.08 2488.89 1116.11 2488.25 1104.2 2491.81 1091.27 2496.09 1079.4 2505.64 1068.08 2517.22 1060.29 2532.29 1054.24 2540.99 1053.58 2537.59 1062.12 2536.5 1072.66 2541.4 1075.09 2544.37 1064.92 2549.38 1046.84 2556.86 1036.09 2566.81 1026.95 2578 1019.43 2590.09 1018.65 2603.27 1021.24 2596.33 1026.72 2585.47 1039.74 2580.43 1050.48 2583.1 1059.31 2589.85 1054.77 2597.73 1049.47 2610.15 1048.48 2611.45 1044.34 2609.72 1035.7 2616.66 1030.21 2616.25 1022.31 2611.13 1011.05 2609.74 1008.99 2593.04 1003.59 2594.72 1000.01 2606.74 996.02 2623.86 995.95 2641 1000.77 2653.45 1009.57 2657.55 1001.09 2661.48 995.99 2667.88 998.22 2673.2 1010.99 2676.83 1011.53 2680.13 1003.07 2693.27 995.87 2709.05 990.16 2728.8 991.59 2746.87 994.15 2761.96 1004.44 2754.1 1014.63 2742.26 1017.68 2736.09 1026.74 2732.57 1039.73 2736.57 1054.2 2748.28 1066.76 2753.96 1075.2 2842.22 1133.54 2849.78 1142.35 2721.45 1071.72 2715.19 1071.02 2715.86 1075.48 2727.28 1084.14 2825.72 1147.9 2836.11 1159.71 2799.95 1147.25 2716.97 1091.9 2712.82 1088.15 2709.24 1088.92 2712.7 1097.36 2811.12 1165.08 2821.69 1175.95 2823.97 1181.77 2706.7 1111.87 2704.45 1113.39 2710.7 1123.9 2802.36 1187.31 2812 1197.99 2808.48 1200.36 2701.15 1135.22 2697.4 1139.37 2795.8 1208.88 2802.29 1217.59 2792.33 1218.57 2695.39 1154.62 2692.58 1156.51 2694.5 1166.66 2786.36 1231.57 2789.76 1236.64 2784.5 1236.09 2686.45 1175.34 2682.52 1180.44 2688.2 1191.33 2771.72 1248.77 2777.63 1257.56 2768.21 1256.85 2676.76 1199.84 2671.48 1196.85 2666.98 1199.87 2677.74 1209.8 2726.97 1245.35 2746.59 1259.94 2758.62 1270.35 2762.66 1280.2 2748.14 1271.98 2713.08 1251.42 2660.27 1216.64 2654.77 1216.96 2652.02 1223.82 2739.18 1287.81 2754.09 1301.49 2727.29 1291.41 2696.05 1273.5 2667.38 1255.17 2643.98 1234.95 2636.26 1234.42 2638.92 1240.8 2730.99 1312.11 2739.49 1321.1 2732.72 1320.75 2712.73 1309.03 2628.99 1249.12 2620.51 1245.01 2616.57 1247.66 2618.68 1259.31 2722.43 1335.84 2728.1 1341.84 2724.55 1347.5 2694.2 1330.31 2641.01 1292.52 2617.44 1278.13 2602.9 1265.02 2597.82 1263.53 2595.96 1270.5 2602.96 1279.69 2698.03 1348.17 2709.15 1357.85 2713.52 1366.35 2686.01 1352.16 2584.16 1283.34 2572.68 1282.07 2571.19 1284.71 2574.8 1293.72 2583.1 1301.21 2690.05 1376.41 2696.68 1387.48 2576.58 1317.04 2570.2 1319.7 2567.75 1319.71"/>
        <polygon class="cls-7" points="1385 1427.77 1385 1453.92 1392.28 1473.87 1401.99 1484.39 1418.97 1495.7 1443.38 1495.7 1464.27 1487.63 1479.64 1477.11 1486.25 1461.74 1472.36 1443.14 1462.67 1427.77 1451.33 1420.49 1456.18 1413.2 1465.53 1413.2 1478.39 1413.2 1490.97 1420.49 1526.27 1413.2 1549.85 1408.5 1592.89 1393.78 1612.3 1379.23 1638.19 1355.76 1605.59 1355.76 1627.67 1342.82 1638.19 1316 1649.51 1293.49 1628.48 1303.19 1605.02 1317.75 1594.51 1320.99 1617.03 1293.49 1639 1257.08 1610.68 1267.6 1583.99 1283.77 1529.79 1325.04 1502.29 1348.49 1535.46 1305.62 1557.3 1273.26 1569.43 1236.87 1577.52 1188.32 1558.1 1200.46 1533.03 1219.87 1532.22 1202.88 1521.7 1206.12 1517.26 1208.11 1508.76 1171.33 1498.25 1177.81 1487.73 1194.8 1482.07 1199.65 1472.36 1159.2 1463.46 1155.17 1451.33 1170.54 1433.53 1196.42 1404.41 1141.42 1395.52 1159.2 1391.47 1169.73 1385 1168.08 1374.48 1193.18 1374.48 1208.81 1367.2 1204.5 1359.92 1198.85 1325.14 1156.77 1313.01 1181.05 1313.01 1203.81 1309.77 1210.17 1306.54 1203.69 1306.54 1213.81 1302.49 1224.73 1302.49 1233.82 1302.49 1245.26 1249.1 1194.8 1235.35 1187.51 1241.02 1214.21 1249.91 1244.14 1259.62 1270.83 1249.91 1270.83 1257.19 1287.01 1268.3 1318.56 1275.39 1335.7 1326.76 1379.23 1250.43 1361.82 1220.79 1356.57 1190.05 1350.92 1156.89 1339.6 1156.89 1346.74 1170.64 1357.38 1186.82 1370.32 1205.42 1380.03 1220.79 1397.83 1241.14 1408.5 1267.71 1412.4 1288.74 1416.43 1323.52 1426.95 1355.07 1429.38 1385 1427.77"/>
        <g class="cls-12">
          <g class="cls-14">
            <g>
              <g class="cls-11">
                <path class="cls-10" d="m-494.22,787.16l-53.08-45.92-9.31-65.45,36.65-69.6,41.15-86.43,66.73-88.41,53.91-57.3,44.62-74.16,32.7-60.99,13.37-27.21,18-67.36,12.91-66.82L-212.06,7.45l23.68-75.9,21.86-28.11,15.38-37.34,21.95-63.82,26.74-54.41,2.83,19.89-7.03,71.8-24.08,121.56-19.48,93.31-22.48,157.09,10.96,28.58,24.27,25.19,47.21,16.8,41.07-14.28,76.83-53.79,81.95-66.23,94.49-99.3,48.42-11.1c32.75-26.79,65.51-53.59,98.26-80.38-2.18,11.42-4.37,22.85-6.55,34.28l-50.21,83.35-44.8,36.5-78.62,89.68-76.92,89.5-2.87,16.17,24.89,5.29,70.65-72.96,57.28-45.76,40.33-55.86,36.59-33.64,21.8-4.3L425.77,7.07l11.36-17.07-5.83,68.05-30.75,74.67-28.96,38.78c-13.77,14.15-27.55,28.3-41.32,42.45-15.28,15.82-30.56,31.64-45.85,47.47-10.78,17.24-21.56,34.48-32.33,51.71-17.37,19.91-34.75,39.82-52.12,59.73,2.81,9.29,5.63,18.57,8.44,27.86,22.92-16.17,45.85-32.33,68.77-48.5,20.51-15.13,41.02-30.27,61.53-45.4,4.37-6.07,13.52-17.01,28.96-24.76,20.63-10.36,39.88-8.68,47.29-7.65,18.8-15.37,39.29-31.1,61.53-46.86,19.62-13.91,38.76-26.52,57.21-37.97-12.7,20.01-23.15,36.34-30.34,47.53-20.93,32.57-36.86,56.95-45.84,70.63-8.18,12.47-14.91,22.64-19.27,29.23-8.22,6.82-16.45,13.65-24.67,20.47l-7.97,16.71-58.11,39.9-55,37.58-45.05,22.64c-18.23,11.25-36.46,22.5-54.7,33.76-17.69,9.63-35.39,19.26-53.08,28.89-20.91,17.89-41.82,35.77-62.74,53.66-6.84,4.47-13.67,8.94-20.51,13.41-12.07,10.66-24.13,21.33-36.19,31.99-2.01,4.82-4.02,9.63-6.03,14.45.51,8.33,1.03,16.67,1.54,25l56.97-35.81,66.3-30.85,65.43-24.81,44.13,7.21,27.98,14.88,87.11-90.58,24.12-24.38-4.91,38.21-26.12,52.02-40.64,48.29-36,25.64-33.44,19.42-49,19.09-34.04,23.45-6.28,32.4-50.03,5.32-41.46,30.19-31.44,3.34-15.58,17.52-16.74,15.66-24.28,2.58-51.62,21.35-99.19,10.55-33.76,3.59-49.51,5.26-36.65,15.8-86.52-26.5-64.72-30.8-49.99-36.33-.08.02Z"/>
              </g>
              <g class="cls-18">
                <polygon class="cls-10" points="-432.65 609.79 -467.26 575.53 -460.63 530.77 -414.31 486.02 -360.46 430.17 -284.6 374.56 -226.44 339.17 -172.39 291.83 -131.3 252.65 -114 235.1 -83.9 190.72 -58.22 146.39 -22.04 100.59 14.74 50.79 39.4 33.15 60.64 8.88 93.29 -32.86 127.89 -67.96 125.87 -54.36 104.05 -6.32 56.83 74.29 19.74 136.1 -33.99 240.8 -31.07 260.77 -16.17 279.26 19.94 293.49 57.75 286.37 134.46 254.75 218.25 215.05 319.94 153.79 363.24 149.26 453.91 102.81 450.81 123.75 390.01 176.95 344.13 198.85 257.96 254.58 173.27 310.3 167.27 321.05 187.09 326.14 262.84 281.2 321.29 253.81 367.67 218.57 405.99 198.1 425.33 196.53 516.11 139.4 529.48 128.57 509.49 174.16 467.02 222.7 434 247.11 396.35 264.24 354.41 308.1 301.85 335.42 274.72 359.76 288.26 367.6 333.74 348.37 389.04 322.35 430.19 312.51 455.51 320.21 563.46 276.21 604.09 259.25 551.35 308.37 510.37 336.88 453.59 362.92 428.25 375.23 417.83 386.03 359.97 409.41 305.26 431.41 262.25 443.94 211.87 456.56 159.42 473.2 111.59 488.46 66.59 514.35 31.62 532.11 3.02 556.47 22.25 565.58 78.24 544.89 140.99 528.12 201.68 515.37 237.31 522.94 257.62 534.7 281.47 542.41 321.76 508.58 351.15 478.88 376.89 463.89 364.29 489.39 330.75 522.91 285.77 553.03 249.72 568.14 217.21 579.21 171.65 589.1 137.74 602.85 125.27 624.35 81.88 624.87 40.22 642.72 12.96 643.05 -4.07 653.93 -21.65 663.48 -42.7 663.74 -90.98 675 -176.99 676.04 -206.26 676.4 -249.2 676.92 -283.61 685.34 -350.74 662.15 -398.52 637.39 -432.65 609.79"/>
              </g>
            </g>
          </g>
          <g class="cls-15">
            <g>
              <g class="cls-19">
                <path class="cls-10" d="m-325.27,545.74l-29.02-46.88,8.38-51.25,43.81-43.58,51.13-55.14,70.77-50.62,53.86-30.3,50.85-45.13,38.83-38.05,16.41-17.26,29.3-46.28,25.36-47.07,34.82-46.75,35.57-51.34,22.99-15.94,20.29-24.38,31.43-42.69,32.81-34.51-2.55,15.57-22.12,52.17L141.07,11.78l-36.5,65.38-53.71,112.49,1.51,24,12.29,24.58,31.45,23.67,34.14-1.07,70.22-22.29,76.98-30.42,94.14-52.27,38.9,3.04c30.84-12.4,61.68-24.8,92.53-37.2-4.32,8.05-8.64,16.11-12.95,24.16l-57.2,50.7-42.15,16.85-79.98,48.78-78.66,49.04-5.95,11.45,17.42,9.8,70.09-38.12,53.68-20.86,43.34-32.41,35.33-16.63,17.35,1.89,84.18-49.52,12.53-10.13-20.34,49.65-40.58,48.76-30.81,22.28c-13.65,7.37-27.29,14.75-40.94,22.12-15.17,8.28-30.34,16.55-45.51,24.83-12.13,10.39-24.25,20.79-36.38,31.18-17.7,10.85-35.39,21.7-53.09,32.55-.07,7.62-.14,15.25-.21,22.87,20.98-6.74,41.96-13.48,62.93-20.22,18.93-6.53,37.85-13.07,56.78-19.6,4.42-3.39,13.59-9.39,27.52-11.77,10.3-1.76,19.2-.85,24.79.12,6.42,2.62,12.85,5.24,19.27,7.86,13.34-1.25,26.68-2.5,40.01-3.75,30.92-15.24,61.84-30.47,92.76-45.71-15.53,18.02-31.05,36.04-46.58,54.06l-38.14,25.55-52.11,19.59-23.3,9.56-9.9,10.66-52.93,16.27-50.05,15.27-39.09,6.4c-16.31,4.16-32.62,8.31-48.93,12.47-15.53,3.07-31.05,6.14-46.58,9.2-19.87,8.5-39.75,17-59.62,25.5-6.17,1.75-12.35,3.5-18.52,5.24-11.55,5.16-23.09,10.32-34.64,15.49-2.64,3.14-5.27,6.28-7.91,9.41-1.57,6.37-3.14,12.74-4.71,19.1l51.11-13.48,56.94-7.57,54.87-3.24,31.39,15.76,17.48,17.72,86.56-47.46,23.8-12.62-12.65,27.49-31.79,32.87-41.8,26.67-33.01,10.78-29.63,6.71-41.22,2.81-31.02,9.59-12.31,22.82-38.76-7.75-38.17,12.9-24.36-4.87-15.79,9.48-16.22,7.81-18.81-3.76-43.71,3.9-76.84-15.37-26.15-5.23-38.35-7.67-31.19,3.24-58.65-40.17-41.29-38.28-28.95-38.97h0Z"/>
              </g>
              <g class="cls-13">
                <polygon class="cls-10" points="-237.49 427.23 -255.4 393.42 -239.92 361.42 -194.69 338.74 -141.22 309.51 -71.3 285.62 -19.4 272.74 32.24 249.94 72.23 230.2 89.32 221.11 122.3 194.9 151.95 167.69 189.82 141.85 229.08 113.15 251.71 105.71 273.33 92.5 307.6 68.87 341.77 50.67 337.07 60.39 309.44 91.29 255.12 140.64 212.81 178.27 147.96 244.15 145.46 259.81 152.29 277.17 176.03 296.31 206.04 299.84 270.97 294.14 343.1 284.04 433.71 261.98 467.24 268.75 546.11 255.2 538.87 270.17 480.81 295.78 441.28 301.44 363.6 323 287.03 344.9 280.01 351.54 293.67 360.01 361.01 344.1 411.25 337.28 454.29 321.74 487.82 315.39 502.69 318.75 584.15 297.23 596.72 292.24 571.03 321.73 527.8 348.15 497.32 358.7 465.07 362.71 423.34 385.75 377.53 393.9 351.48 405.78 359.79 414.83 398.4 411.09 445.96 404.56 479.12 406.84 496.29 418.55 587.54 410.9 621.99 407.72 570.92 432.17 533.51 443.93 484.83 450.12 462.94 453.4 452.6 459.05 403.74 463 357.56 466.66 322.37 465.96 281.64 463.6 238.42 463.77 198.98 463.98 159.18 472.83 128.79 477.94 101.63 489.49 113.91 500.83 160.74 498.46 211.72 500.61 260.21 505.3 285.14 519.33 297.61 532.91 313.67 544.29 351.82 528.38 380.83 513.01 403.64 507.82 388.21 523.98 355.19 541.24 314.41 553.26 283.84 556.13 256.87 556.8 220.39 553.52 191.74 555.88 177.35 569.06 144.7 559.28 109.28 562.88 88.76 556.73 73.45 560.89 58.02 563.92 42.18 559.18 3.35 556.29 -61.38 536.89 -83.4 530.29 -115.71 520.6 -143.49 518.84 -188.37 485.7 -218.38 455.93 -237.49 427.23"/>
              </g>
            </g>
          </g>
        </g>
        <g class="cls-17">
          <path class="cls-8" d="m143.82,1581.23l-13.82-50.19-42.62-86.49L7.91,1248.09l58.74,106.78-25.34-227.44,43.77,183.66-29.95-247.72,48.38,209.28-27.64-209.28,39.16,146.29v-73.68l13.82,138.81,14.97,24.82,11.52-80.35-9.21-82.22-8.06-90.76,27.64,95.03-17.28-227.44,47.01,240.99,27.86,230.97,8.06,23.49v-21.05l6.91-4.58,6.91-100.37-11.52-2.14-4.61-9.61-4.61-153.76-8.64-2.67-9.21-5.34-4.61-16.02-13.82-137.74,5.76-8.54,12.67-4.27-2.3-38.44,6.91,40.58,11.52,2.14,5.76,12.81,10.37,118.52v20.29l-1.15,7.47,7.49.56v-39.62l4.03,39.06h2.3l10.37-174.05-16.13-96.1,18.43,56.59,11.52-105.71,4.61,151.62,35.71,123.86,6.91-61.93-40.31-197.54,44.92,137.74,5.76-32.03,48.38,222.1,59.89,243.45,17.28,67.27,4.61-44.85-54.13-242.39-27.64-109.98-25.34-127.07,43.77,132.4-10.37-68.34-14.97-52.32-16.13-99.3,58.74,194.34-13.82-80.08-1.15-37.37,23.04-7.47-9.21-58.73,14.97,56.59,10.37,5.34,5.76,6.41,11.52,36.3,18.43,164.44v23.3l-8.06,7.67-6.91,3.2,14.97,103.27,11.52-115.02v-30.25l-9.21-77.59-13.82-181.52,34.55,159.1,23.04-184.73-6.91,296.84,10.37,77.95,26.49-292.57v286.7l78.32-341.15-14.97,140.95,1.15,43.78,13.82,9.52v17.92l-2.3,47.3-14.97,85.42-6.91,18.15-10.37,6.41-3.46-1.07,1.15,170.84,40.31-153.76,96.75-280.83-39.16,183.66-43.77,139.88-52.98,221.03,90.99-254.13-20.73,84.35-8.06,41.64-4.61,20.29-11.52,36.3-13.82,51.25,32.25-71.54,28.79-69.41,16.13-33.1-25.34,92.9-29.95,73.68-33.4,97.17-9.21,24.56h-18.7l-11.25-5.34h-16.13l-5.76-5.34,11.52-17.08,13.82-266.94-18.43,95.03-17.28,97.17-14.97,95.03-12.25,7.47-17.7-3.2,1.42-36.94-16.39,33.74h-4.61l-3.46-8.54,6.91-41.64,1.15-45.91-25.34,79.02-4.61,7.47-8.06-4.27-11.52-4.27-10.37-3.2-12.67-75.81,2.3,33.1,4.61,39.51-3.46,22.42-2.01,8.54-12.96-7.47-1.15-17.08-9.21,1.07-3.46,9.61-2.3,8.54-9.21-3.2-6.05-28.17,5.68-13.85s8.43-7.11,7.27-17.78c-1.15-10.68-16.99-42.89-16.99-42.89l-6.05-8.36s-3.46,13.88-3.46,19.22-3.46,25.63-3.46,27.76,1.15,13.88,1.15,17.08-3.46,20.29-3.46,20.29v16.02s4.61,6.41,4.61,10.68-.49,8.54-.49,8.54l-6.42,2.14h-14.95l-12.69-26.69-13.82-46.98s1.15-28.83-1.15-4.27c-2.3,24.56-5.76,18.15-2.3,28.83,3.46,10.68,11.52,26.69,12.67,30.97,1.15,4.27,0,5.34,0,8.54s-4.58,9.61-4.58,9.61c0,0-6.94-2.14-11.55-5.34s-16.13-22.42-16.13-22.42l-6.91,16.02-5.76,2.14-6.91-14.95,11.52-58.73-24.19,79.02-24.02,4.27s-25.51-6.41-27.81-7.47c-2.3-1.07-13.82-4.27-13.82-4.27l-4.61-5.34s11.52-26.69,11.52-27.76-6.91-18.15-9.21-27.76-6.91-45.91-6.91-45.91c0,0,1.15-21.36-1.15-28.83-2.3-7.47-9.21-34.17-9.21-34.17l-4.61,172.98-17.85-.53-.02-.05Z"/>
          <polygon class="cls-8" points="278.01 1022.25 273.28 1186.15 269.95 1219.79 265.34 1276.38 256.12 1442.95 256.12 1468.45 245.76 1502.75 243.45 1543.33 260.73 1473.17 269.95 1417.33 271.1 1389.57 274.55 1275.31 282.62 1315.89 289.53 1289.19 275.71 1255.03 289.53 1274.6 299.23 1186.15 299.23 1263.75 312.56 1161.06 278.01 1022.25"/>
          <polygon class="cls-8" points="330.99 1259.3 325.23 1351.13 344.81 1377.82 355.18 1343.65 330.99 1259.3"/>
          <polygon class="cls-8" points="335.6 1055.35 335.6 1144.43 359.79 1248.62 337.9 1055.35 335.6 1055.35"/>
          <polygon class="cls-8" points="325.23 1379.78 322.93 1393.84 329.84 1420.53 335.6 1455.25 335.6 1462.79 342.51 1418.4 325.23 1379.78"/>
          <polygon class="cls-8" points="441.56 1133.3 451.93 1140.77 465.6 1240.88 474.97 1309.48 470.36 1321.23 458.26 1271.3 463.45 1246.48 455.39 1204.84 441.56 1133.3"/>
          <polygon class="cls-8" points="574.02 1212.31 582.11 1212.31 547.53 1409.85 545.98 1377.82 574.02 1212.31"/>
        </g>
      </g>
    </g>
  </g>
</svg>