<svg width="1600" height="961" viewBox="0 0 1600 961" fill="none" xmlns="http://www.w3.org/2000/svg">
<path d="M1602.63 -1.03809H-0.762207V961H1602.63V-1.03809Z" fill="#84180D"/>
<g opacity="0.29">
<path d="M1455.49 652.186C1454.6 653.015 1454.09 653.645 1453.45 654.068C1439.34 663.383 1427.22 674.896 1415.58 687.108C1399.83 703.618 1383.95 720.117 1363.84 731.629C1354.81 736.798 1345.33 740.795 1334.86 741.56C1324.35 742.324 1315.19 738.631 1307.24 731.923C1300.77 726.472 1296.88 719.689 1297.09 710.956C1297.35 700.315 1301.81 691.443 1308.93 683.869C1314.52 677.921 1321.53 673.87 1329.17 671.208C1346.39 665.201 1363.7 659.45 1381 653.688C1385.54 652.176 1390.19 651 1395.24 649.541C1392.84 648.124 1390.7 647.398 1389.34 645.938C1387.51 643.966 1385.77 644.249 1383.69 644.966C1364.03 651.689 1344.34 658.285 1324.74 665.158C1317.5 667.697 1310.36 670.673 1304.62 676.045C1293.99 685.991 1288.8 698.193 1288.97 712.854C1289.1 724.296 1293.09 733.602 1301.67 741.282C1310.09 748.818 1320.15 751.698 1330.94 752.26C1338.99 752.682 1346.87 750.886 1354.58 748.454C1371.94 742.981 1386.21 732.581 1398.82 719.978C1411.54 707.252 1423.27 693.533 1435.83 680.636C1443.36 672.892 1451.66 665.89 1459.96 658.237C1458.91 656.815 1457.3 654.634 1455.5 652.192L1455.49 652.186ZM1647.97 546.303C1649.58 545.437 1650.8 544.711 1652.07 544.107C1666.64 537.207 1681.22 530.344 1695.79 523.434C1711.83 515.823 1727.96 508.388 1743.82 500.435C1751.69 496.491 1759.01 491.419 1765.03 484.888C1769.61 479.917 1773.09 474.3 1773.36 467.112C1773.59 460.767 1771.1 455.332 1768.45 449.907C1767.05 447.037 1764.8 444.728 1761.52 444.37C1758.22 444.012 1754.6 443.515 1751.54 444.456C1742.07 447.374 1732.5 450.303 1723.52 454.434C1713.89 458.865 1704.84 464.573 1695.65 469.901C1691.48 472.312 1686.95 474.573 1683.71 477.967C1679.49 482.381 1676.38 487.854 1672.79 492.873C1674.13 492.493 1675.15 491.761 1676.21 491.098C1689.87 482.574 1703.47 473.963 1717.21 465.583C1726.97 459.629 1737.26 454.83 1748.56 452.44C1753.94 451.302 1759.31 453.157 1762.16 457.534C1766.77 464.621 1765.57 474.012 1759.83 480.238C1753.95 486.609 1746.88 491.334 1739.27 495.021C1724.28 502.279 1709.02 508.955 1693.84 515.785C1685.05 519.735 1676.13 523.375 1667.41 527.431C1659.38 531.162 1651.53 535.267 1643.41 539.302C1645.05 541.814 1646.47 544 1647.98 546.314L1647.97 546.303ZM1453.98 707.744C1456.42 708.348 1458.19 709.011 1460.01 709.203C1469.06 710.154 1478.13 708.749 1481.41 697.365C1483.74 689.289 1484.91 681.202 1484 672.64C1483.19 664.901 1482.18 657.258 1478.7 650.38C1471.67 636.457 1459.99 627.681 1445.65 622.026C1437.19 618.691 1428.43 619.311 1419.71 619.525C1416.43 619.605 1413.04 620.653 1409.93 621.866C1406.48 623.213 1404.86 627.045 1406.02 629.701C1406.76 631.412 1410.98 632.523 1413.83 631.93C1416.19 631.444 1418.72 630.546 1420.96 630.952C1431.42 632.86 1441.74 635.335 1450.89 641.198C1460.57 647.403 1466.81 656.093 1468.95 667.322C1470.81 677.098 1469.99 686.937 1467.61 696.59C1467.11 698.637 1466.4 700.502 1463.98 701.608C1460.64 703.132 1457.66 705.435 1453.98 707.744ZM1311.48 786.327C1312.1 786.722 1313.51 787.759 1315.04 788.566C1327.43 795.092 1340.46 797.834 1354.53 796.107C1363.26 795.033 1371.48 792.601 1379.24 788.726C1392.36 782.179 1402.69 772.356 1410.62 760.122C1418.18 748.454 1425.13 736.375 1432.86 724.826C1439.55 714.826 1446.2 704.58 1457.59 698.963C1461.28 697.14 1462.98 693.869 1463.58 689.973C1463.84 688.284 1463.86 686.558 1464.04 684.195C1456.6 689.663 1449.15 694.559 1442.38 700.256C1432.27 708.754 1425.96 720.256 1419.09 731.298C1411.38 743.682 1403.8 756.081 1392.74 766.102C1385.12 773.013 1377.03 778.871 1367.79 783.178C1357.76 787.85 1346.97 789.833 1336.12 789.72C1327.71 789.635 1319.3 787.47 1311.48 786.316L1311.48 786.327ZM1658.01 583.144C1661.75 581.487 1665.2 579.857 1668.74 578.414C1683.62 572.342 1698.54 566.378 1713.4 560.274C1729.59 553.631 1745.89 547.239 1761.81 540.013C1769.97 536.314 1777.5 531.242 1783.24 523.925C1789.78 515.577 1789.66 503.883 1783.6 495.166C1783.39 497.918 1783.45 500.692 1782.92 503.343C1780.85 513.567 1773.91 520.355 1765.86 526.004C1754.11 534.246 1740.7 539.28 1727.59 544.807C1706.63 553.642 1685.56 562.209 1664.61 571.081C1656.96 574.325 1657.06 574.577 1658.01 583.144ZM1487.96 696.75C1492.62 694.97 1495.09 691.726 1496.53 687.707C1499.29 680 1499.76 672.138 1498.69 663.971C1497.25 653.036 1493.83 642.94 1488.22 633.485C1483.81 626.056 1477.77 620.225 1471.02 614.977C1460.13 606.506 1448.53 599.344 1435.18 595.458C1425.95 592.77 1418.26 595.186 1413.86 601.674C1416.32 601.984 1418.82 602.524 1421.32 602.572C1433.01 602.786 1442.5 608.296 1451.46 614.982C1456.3 618.601 1461.08 622.358 1465.52 626.441C1470.48 630.995 1475.54 635.602 1479.63 640.898C1484.71 647.467 1487.17 655.441 1488.46 663.624C1489.61 670.919 1490.72 678.242 1489.24 685.687C1488.54 689.198 1488.39 692.822 1487.95 696.739L1487.96 696.75ZM1463.22 667.611C1461.38 668.872 1459.66 669.989 1458.01 671.192C1449.92 677.082 1441.07 682.229 1435.25 690.609C1429.01 699.588 1423.57 709.123 1417.51 718.241C1411.22 727.728 1405.16 737.455 1397.98 746.252C1389.67 756.455 1378.9 763.767 1366.53 768.711C1357.1 772.484 1347.27 774.023 1337.3 774.355C1331.99 774.531 1326.54 773.574 1321.3 772.414C1310.77 770.079 1301.12 765.653 1293.22 758.128C1289.56 754.643 1286.41 750.635 1282.81 746.621C1283.57 749.325 1284.13 751.87 1285.02 754.296C1289.23 765.798 1298.07 773.05 1308.57 778.112C1322.23 784.691 1336.74 785.658 1351.56 782.585C1369.16 778.935 1383.48 769.518 1394.39 755.771C1402.86 745.103 1409.42 732.933 1416.98 721.533C1421.88 714.142 1426.62 706.568 1432.22 699.722C1440.27 689.877 1451.34 683.517 1461.8 676.59C1464.17 675.024 1464.61 673.49 1464.28 671.213C1464.11 670.075 1463.64 668.979 1463.23 667.611H1463.22ZM1283.81 720.331C1283.21 728.07 1284.08 735.146 1287.4 741.586C1293.87 754.12 1304.64 761.597 1317.8 765.744C1329.07 769.298 1340.58 769.485 1352.14 767.145C1365.35 764.467 1376.86 758.449 1386.9 749.529C1396.26 741.223 1403.02 730.876 1409.75 720.512C1410.84 718.823 1411.7 716.98 1412.67 715.205C1407.89 719.144 1403.38 723.201 1398.99 727.391C1388.56 737.348 1377.01 745.557 1363.58 751.057C1350.51 756.407 1337.03 759.267 1323 756.963C1304.32 753.895 1288.07 742.169 1283.81 720.336V720.331ZM1451.22 579.975C1457.66 582.716 1464.19 584.908 1470.15 588.152C1485.53 596.522 1498.92 607.398 1508.01 622.604C1514.49 633.443 1518.37 645.372 1518.65 658.124C1518.8 664.864 1518.07 671.625 1517.72 678.578C1518.53 678.097 1519.84 677.557 1520.85 676.676C1526.12 672.058 1527.81 665.708 1528 659.193C1528.18 652.48 1527.79 645.644 1526.67 639.033C1524.94 628.894 1521.03 619.269 1514.64 611.278C1509.37 604.683 1502.91 598.879 1496.33 593.513C1487.3 586.142 1477.23 580.408 1465.75 577.42C1460.23 575.982 1455.22 576.004 1451.22 579.975ZM1502.73 687.215C1506.41 685.761 1509.28 682.555 1510.68 678.995C1514.27 669.813 1514.3 660.251 1512.51 650.909C1509.11 633.282 1501.26 618.082 1486.87 606.5C1477.28 598.783 1467.2 592.086 1455.74 587.682C1448.76 585.004 1441.56 583.123 1435.29 589.606C1435.61 589.836 1435.98 590.301 1436.43 590.381C1445.31 592.016 1453.19 596.062 1460.7 600.797C1476.28 610.61 1490.2 622.032 1497.67 639.637C1504.13 654.891 1506.82 670.497 1502.73 687.215ZM1398.53 696.723L1398.01 696.002C1397.45 696.002 1396.85 695.858 1396.35 696.023C1375.91 702.736 1355.41 709.251 1335.11 716.333C1327.17 719.101 1319.83 723.366 1314.88 730.56C1320.2 734.195 1326.07 736.279 1332.46 736.178C1339.34 736.071 1345.85 734.104 1352.09 731.255C1361.83 726.808 1370.78 721.031 1379.03 714.281C1385.79 708.744 1392.06 702.597 1398.53 696.723ZM1525.75 547.543C1547.05 553.743 1564.64 565.01 1576.08 583.529C1587.49 602.011 1590.38 622.641 1586 644.298C1588.88 644.72 1590.46 643.02 1591.87 640.717C1595.65 634.538 1595.96 627.542 1596.3 620.685C1596.53 616.222 1595.57 611.695 1595.08 607.206C1593.99 597.254 1591.02 587.837 1585.47 579.542C1574.7 563.428 1559.79 552.567 1541.32 546.784C1536.34 545.229 1531.1 544.556 1525.75 547.549V547.543ZM1655.51 566.976C1655.84 566.976 1656.21 567.078 1656.49 566.96C1669.43 561.626 1682.32 556.175 1695.31 550.948C1710.61 544.791 1726.11 539.072 1741.32 532.696C1752.62 527.966 1763.39 522.178 1771.92 513.011C1774.74 509.976 1777.24 504.743 1777.04 503.006C1770.9 507.191 1764.78 512.13 1757.98 515.839C1739.97 525.684 1720.51 532.199 1701.43 539.574C1687.56 544.935 1673.86 550.739 1660.12 556.415C1657.94 557.313 1654.73 558.104 1654.1 559.756C1653.36 561.68 1654.93 564.486 1655.51 566.971V566.976ZM1545.19 538.548C1580.15 548.66 1611.43 580.13 1602.51 631.428C1605.71 630.332 1608.46 628.611 1609.37 625.303C1610.73 620.38 1612.46 615.362 1612.57 610.354C1612.7 603.796 1612.09 597.035 1610.53 590.68C1608.82 583.753 1606.01 577.03 1603.03 570.509C1599.53 562.845 1593.61 556.998 1587.09 551.739C1579.17 545.352 1570.75 539.831 1560.86 537.105C1555.63 535.662 1550.2 534.631 1545.19 538.554L1545.19 538.548ZM1651.36 554.299C1654.53 552.872 1657.38 551.461 1660.32 550.28C1677.66 543.3 1694.99 536.261 1712.4 529.462C1728.72 523.097 1745.27 517.293 1760.26 507.993C1767.17 503.706 1773.58 498.88 1777.24 491.339C1779.88 485.893 1780.2 480.259 1777.9 473.995C1774.27 484.861 1767.16 492.285 1758.25 497.806C1748.58 503.792 1738.59 509.318 1728.47 514.519C1719.12 519.329 1709.42 523.455 1699.86 527.87C1683.33 535.502 1666.8 543.123 1650.13 550.814C1650.54 551.739 1650.73 552.108 1650.86 552.492C1651.03 553.006 1651.15 553.54 1651.36 554.294L1651.36 554.299ZM1586.91 517.736C1606.72 523.663 1622.78 534.7 1633.2 552.45C1643.63 570.231 1645.09 589.745 1641.12 610.589C1643.12 609.493 1644.89 608.9 1646.17 607.745C1651.54 602.866 1652 596.057 1652.29 589.552C1652.77 578.681 1650.55 568.11 1646.98 557.864C1644.12 549.66 1639.58 542.316 1633.32 536.357C1625.74 529.136 1617.24 523.033 1607.29 519.356C1600.77 516.945 1594.19 514.171 1586.91 517.731V517.736ZM1688.03 440.923C1669.78 478.223 1648.97 501.59 1623.13 520.932C1625.86 523.001 1628.62 525.09 1631.3 527.121C1660.21 504 1680.81 474.407 1698.37 442.569C1694.84 442.008 1691.61 441.495 1688.02 440.923H1688.03ZM1637.6 532.904C1637.64 533.246 1637.68 533.583 1637.73 533.925C1638.93 534.016 1640.37 534.583 1641.29 534.123C1646.67 531.424 1652.14 528.8 1657.2 525.555C1664.65 520.767 1671.68 515.304 1679.09 510.451C1688.52 504.278 1698.13 498.399 1707.7 492.445C1717.41 486.4 1727.54 481.205 1738.68 478.378C1742.89 477.309 1747.39 476.256 1751.62 476.657C1754.72 476.951 1756.15 476.315 1757.36 473.905C1758.21 472.205 1759.02 470.484 1759.93 468.608C1758.36 467.961 1757.18 467.389 1755.95 466.983C1750.23 465.107 1744.82 467.16 1739.58 468.827C1724.96 473.477 1711.59 480.826 1698.95 489.356C1683.61 499.709 1668.58 510.537 1653.46 521.226C1648.1 525.016 1642.89 529.003 1637.6 532.899L1637.6 532.904ZM1571.26 524.251C1571.41 524.593 1571.55 524.93 1571.69 525.272C1603.75 530.986 1638.14 563.668 1628.99 615.896C1632.53 614.245 1634.55 611.604 1635.64 608.072C1639.01 597.168 1637.83 586.292 1635.63 575.389C1633.2 563.422 1628.53 552.471 1619.9 543.738C1611.97 535.705 1602.67 529.452 1592.03 525.326C1587.12 523.423 1582.14 522.178 1576.88 522.744C1574.98 522.947 1573.13 523.727 1571.26 524.246V524.251ZM1616.29 623.603C1619.9 621.802 1621.75 619.274 1622.96 615.864C1626.33 606.388 1625.65 596.671 1623.98 587.233C1621.23 571.755 1615.48 557.639 1602.75 547.132C1593.11 539.179 1582.72 532.926 1570.47 530.248C1567.47 529.596 1564.19 530.275 1561.03 530.344C1561.04 530.627 1561.05 530.916 1561.06 531.199C1606.48 545.373 1623.61 586.987 1616.28 623.608L1616.29 623.603ZM1310.19 727.044C1316.22 719.764 1323.67 715.125 1332.07 711.587C1352.88 702.822 1374.5 696.59 1396.2 690.62C1406.71 687.728 1413.34 683.479 1418.2 675.19C1417.84 675.19 1417.48 675.104 1417.18 675.2C1398.19 681.443 1379.15 687.563 1360.23 694.014C1347.2 698.455 1334.28 703.238 1321.4 708.102C1314.75 710.614 1309.18 714.847 1304.14 720.192C1306.24 722.575 1308.13 724.713 1310.19 727.049V727.044ZM1436.9 612.78C1435.98 612.069 1435.67 611.722 1435.28 611.546C1429.52 608.895 1423.37 607.601 1417.13 607.436C1412.84 607.323 1408.57 605.511 1404.11 607.799C1399.9 609.953 1395.53 611.994 1393.05 615.976C1390.33 620.359 1387.24 625.217 1386.76 630.108C1386.17 636.056 1391.39 641.925 1397.41 644.223C1405.47 647.301 1413.62 646.585 1421.67 644.282C1425.52 643.181 1429.2 641.492 1432.95 640.07C1431.55 638.889 1430.54 638.434 1429.48 638.274C1424.39 637.494 1419.46 635.645 1414.05 637.355C1411.74 638.087 1408.72 637.414 1406.26 636.628C1401.66 635.158 1398.28 630.124 1399.29 626.634C1400.75 621.626 1403.93 618.098 1408.84 616.024C1415.34 613.277 1422.14 614.282 1428.85 613.988C1431.38 613.876 1433.89 613.256 1436.89 612.791L1436.9 612.78ZM1430.38 648.573C1430.29 648.285 1430.21 647.991 1430.13 647.702C1426.78 648.563 1423.48 649.653 1420.09 650.236C1415.65 650.994 1410.98 650.754 1406.7 651.978C1389.92 656.788 1373.22 661.866 1356.57 667.119C1344.59 670.898 1332.59 674.709 1321.67 681.106C1318.44 682.998 1315.58 685.537 1312.56 687.776C1320.81 684.949 1328.51 681.192 1336.57 678.578C1358.16 671.571 1379.94 665.131 1401.59 658.306C1411.25 655.26 1420.79 651.834 1430.38 648.579V648.573ZM1385.09 617.056C1380.86 614.426 1376.58 612.048 1372.63 609.215C1368.68 606.377 1365.05 603.074 1361.36 600.044C1359.48 600.963 1356.3 602.513 1352.96 604.143C1358.52 616.227 1369.47 622.016 1381.06 626.783C1382.6 623.063 1384.01 619.664 1385.09 617.056ZM1687.73 511.772C1708.62 502.664 1730.28 495.123 1749.2 481.996C1725.74 485.775 1706.89 499.099 1687.73 511.772ZM1757.78 461.884C1757.05 458.507 1754.62 457.716 1751.87 457.614C1750.59 457.566 1749.3 458.042 1748 458.234C1742.44 459.063 1729.97 464.375 1725.67 468.004C1736.37 463.466 1746.43 459.276 1757.78 461.884ZM1700.83 433.996C1697.38 430.431 1693.47 430.554 1690.76 434.146C1693.93 437.866 1697.45 437.876 1700.83 433.996ZM1358.95 592.374C1355.69 593.7 1353.12 594.742 1349.93 596.035C1354.25 598.713 1356.82 597.607 1358.95 592.374Z" fill="#DC3B14"/>
<path d="M1570.6 656.681C1572.27 655.2 1573.95 654.115 1575.13 652.576C1578.39 648.338 1579.34 643.057 1579.33 637.793C1579.3 630.727 1579.04 623.587 1578.07 616.612C1576.99 608.846 1574.52 601.454 1571.21 594.378C1567.48 586.377 1561.85 580.327 1555.64 574.763C1546.25 566.335 1535.85 559.894 1524.08 556.42C1519.85 555.17 1515.48 554.753 1511.7 557.559C1515.69 559.232 1519.82 560.616 1523.67 562.631C1532.03 567.013 1539.46 572.893 1546.59 579.429C1556.68 588.681 1563.67 600.001 1568.2 613.394C1571.03 621.737 1572.25 630.422 1572.51 639.166C1572.68 644.746 1571.34 650.379 1570.6 656.675V656.681Z" fill="#DC3B14"/>
<path d="M1551.74 663.223C1556.2 640.679 1552.34 620.775 1542.73 602.433C1537.51 592.47 1529.87 584.838 1521.82 577.901C1515.7 572.625 1509.23 568.131 1502.11 564.999C1499.63 563.903 1497.02 563.219 1494.47 562.348C1495.38 559.21 1500.89 557.457 1503.81 558.104C1515.19 560.643 1525.05 567.03 1533.89 575.421C1539.64 580.894 1545.28 586.848 1549.88 593.603C1555.51 601.877 1559 611.796 1560.45 622.325C1561.37 629.001 1561.75 635.863 1561.6 642.619C1561.45 649.289 1559.98 655.788 1555.4 660.534C1554.52 661.454 1553.38 662.036 1551.75 663.223H1551.74Z" fill="#DC3B14"/>
<path d="M1465.15 570.675C1470.3 567.302 1476.35 567.837 1481.91 569.371C1502.44 575.025 1519.48 585.501 1531.92 601.268C1538.92 610.14 1542.02 620.594 1543.75 631.289C1544.47 635.746 1545.5 640.316 1545.1 644.736C1544.61 650.219 1543.16 655.708 1541.41 661C1540.17 664.746 1536.65 666.927 1532.28 667.606C1536.85 646.008 1533.83 625.308 1520.78 606.837C1507.79 588.462 1487.82 577.628 1465.14 570.664L1465.15 570.675Z" fill="#DC3B14"/>
</g>
<path d="M1324.86 578.649V600.391L1308.56 610.358H1278.65H1272.31L1289.53 588.616L1304.02 578.649L1315.8 570.493L1320.33 563.245L1324.86 502.541L1313.99 477.17L1316.71 454.519L1313.99 430.965L1291.34 368.449H1272.31L1248.75 361.49L1244.23 369.352L1200.73 390.191L1194.39 406.503L1186.24 411.029L1193.48 469.019L1198.62 488.65L1201.64 493.481L1214.63 496.501L1223.39 502.241L1230.94 514.924L1233.35 522.776L1232.75 537.874L1228.82 542.107L1220.36 537.575L1197.71 524.892L1182.92 517.944L1176.57 512.508L1175.06 499.216L1172.35 466.902L1166.61 441.232L1158.15 414.653V398.951L1164.79 391.099L1173.85 382.943L1191.37 364.52L1208.28 333.414L1202.55 309.855L1201.04 271.203L1205.57 254.287L1217.34 237.072L1210.7 202.641L1204.06 176.367L1198.92 162.476L1191.07 182.711L1179.59 192.679L1166.91 195.699L1158.15 201.738L1161.78 215.629L1163.59 222.577L1160.27 229.525L1151.2 238.883L1143.66 240.396L1136.71 236.468L1132.78 230.428L1124.93 234.357L1114.06 233.448L1103.49 226.5L1098.96 214.726L1100.47 201.738L1109.83 157.944L1118.89 131.67H1114.66L1111.49 137.41L1108.77 141.488L1111.49 125.176L1113.3 111.59L1120.55 94.8236L1127.8 79.4203L1129.61 74.8934L1130.97 73.306L1131.42 64.0223L1133.23 55.1876L1135.05 47.2561L1139.12 53.1459L1140.71 60.6231L1141.39 64.0223L1150.67 61.7562L1154.53 63.7925L1154.07 55.6419L1154.3 46.1284L1160.87 49.9766L1168.57 59.0358L1171.74 63.3382L1184.43 60.8476L1198.24 65.3799L1201.64 66.9672L1216.14 63.568L1238.79 68.5493L1250.8 78.517L1262.12 93.9203L1269.59 97.9983L1277.97 107.282L1297.23 112.947L1316.71 129.708L1327.58 146.469L1338.45 168.665L1342.08 167.308L1371.37 143.15L1396.14 132.578L1413.96 130.162L1429.66 132.578L1435.4 134.39L1439.93 134.085L1461.67 118.383L1482.81 111.135L1506.98 110.831L1521.78 114.759L1536.57 125.63L1547.45 139.222L1555.3 157.041L1559.83 183.01L1563.45 212.005L1565.26 229.22L1559.83 330.395L1556.5 361.49L1548.65 401.97L1547.45 425.417L1543.22 402.275L1542.61 387.171L1541.71 425.417L1542.61 445.16L1538.08 427.945L1532.34 406.198L1520.57 393.21L1518.15 375.696L1515.13 358.182L1519.96 261.534L1520.57 220.765L1517.55 202.946L1513.02 181.503L1504.26 160.664L1494.59 155.528L1503.35 169.424L1508.79 185.432L1513.02 206.57L1513.92 229.22L1511.81 248.552L1506.07 265.762L1499.12 283.885L1495.2 299.289L1489.76 316.199L1490.36 342.174L1496.71 355.461L1507.88 368.748L1510.9 375.397L1509.69 396.235L1508.79 406.802L1504.86 423.114L1503.05 436.096L1502.14 442.745L1502.44 453.915L1501.84 459.96L1498.22 467.811L1501.24 483.514L1498.22 495.897L1491.57 507.677L1484.93 515.224L1460.77 517.944L1450.8 514.924L1466.81 488.65L1479.49 470.227L1483.12 444.252L1484.62 411.938L1481 395.931L1478.58 386.872L1477.98 372.372L1466.2 353.35L1454.12 328.241L1452.01 321.335L1450.19 344.889L1454.73 375.696L1458.95 383.547V390.495L1446.57 403.782L1430.56 420.698L1418.18 436.401L1412.75 446.064L1401.57 461.772L1400.37 469.922L1403.99 473.851L1403.68 482.61L1397.95 492.878L1392.81 496.197L1368.05 499.82L1353.55 498.313L1353.86 494.385L1372.88 463.279L1379.53 456.635L1397.04 430.965L1409.43 416.77L1427.54 396.839L1435.1 390.795L1436.61 384.456L1419.39 371.164L1403.99 354.857L1400.06 351.233L1381.34 361.49L1352.04 365.728L1349.63 387.775L1345.7 408.314L1340.56 443.349L1341.47 450.596L1345.4 458.447L1347.81 466.902L1346.3 476.566L1342.38 485.63L1341.77 494.385L1342.38 537.874L1343.58 559.622L1324.86 578.649Z" fill="#5E1103"/>
<path d="M771.792 248.018L766.736 251.481L763.106 256.981L760.097 264.699L759.793 269.274L754.218 267.098L748.457 262.876L745.031 257.093L745.303 248.804L748.147 241.513L754.336 235.779L756.158 234.266L748.868 231.423L741.568 227.339L737.297 222.46L734.561 217.441L733.053 211.172L732.514 208.494L740.322 207.094L747.933 207.842L755.651 210.851L762.273 215.41L765.426 219.36L767.901 213.657L772.219 208.922L777.836 205.923L783.438 206.132L790.3 208.809L793.143 211.647L793.929 213.438L789.258 216.554L785.249 222.401L784.063 228.606L785.987 233.801L787.211 236.997L1010.24 359.213L1022.73 355.061L1034.7 351.827C1040.49 351.346 1053.42 351.09 1067.13 358.235C1072.03 360.79 1086.74 368.748 1093.53 386.632C1099.19 401.522 1096.13 414.776 1094.72 419.694C1091.15 423.83 1081.42 433.921 1065.64 437.251C1037.34 443.21 1015.95 421.853 1014.36 420.212C1011.86 416.93 1009.35 413.643 1006.84 410.362L1002.56 398.561L1000.77 389.218L1002.35 379.464L1002.57 375.103L852.352 290.69L771.802 248.029L771.792 248.018Z" fill="#50180D"/>
<path d="M469.439 535.518H449.236H427.687L411.524 523.396L403.443 508.58L395.362 489.725V441.238V398.139L385.934 355.039L372.466 282.309V236.516L340.141 225.741L344.631 219.456L273.696 216.313L247.208 279.615L264.717 307.899L268.758 337.53L266.064 356.835L257.983 365.365L250.351 372.099L249.004 343.366L241.372 331.517L234.638 326.755L229.699 333.939L226.557 347.407V363.12L235.536 373.895L240.923 378.834L243.168 381.527L234.189 385.119L218.924 385.568L206.803 379.732L201.415 372.997L196.477 360.876V370.753L200.068 399.036L187.498 394.996L175.376 380.18L170.887 368.508L167.744 353.692V339.775V328.102L159.663 340.673L156.52 357.733L153.378 375.915L145.745 368.508L141.256 346.509V324.959L148.439 303.859L165.05 284.105L180.315 272.432L203.66 214.069L225.659 167.378L235.087 159.745L247.208 156.603L363.038 158.848L352.712 141.793L404.79 136.181L427.013 112.611L445.869 97.1221L469.439 82.3067L503.105 74.2256H534.083L568.427 81.6333L598.732 95.7752L631.056 117.998L642.504 128.1L672.809 114.631V120.692L721.969 99.1424L776.516 82.9801L798.066 87.6941L812.208 96.4487L872.143 185.336L907.156 220.354L915.237 248.638V271.534L903.789 284.329L894.361 288.37L882.912 291.064L867.429 293.757L858.001 293.084L846.553 295.778L836.451 293.757L827.697 256.045L810.188 238.536L808.841 247.964L818.942 270.861L820.963 275.575L816.249 282.983L807.494 283.656L792.005 266.82L789.985 234.496L796.046 216.987L765.068 148.976L695.705 181.969L699.746 188.703L672.809 210.252L676.176 288.37L672.135 342.918L677.523 373.222L689.644 395.445L704.46 420.362L710.521 450.666L707.153 467.501L699.072 481.643L682.91 492.418L666.074 497.132L662.707 503.193L682.91 520.702L706.48 535.518L719.275 560.429L699.072 555.715L699.746 575.918L678.196 561.776L678.869 583.999L652.606 567.163L637.79 544.946L618.934 531.477L614.221 517.335L619.608 502.52L595.365 504.54L543.511 508.58L515.227 517.335L501.758 538.211L501.085 542.252L523.308 559.082L539.47 576.591L541.49 594.774L534.756 602.855L524.655 608.916H477.515L449.91 612.283L421.626 616.997L433.748 602.182L419.606 601.508L429.033 583.999L414.892 580.632L437.115 563.796L448.563 561.102L468.092 559.756L464.725 548.986L466.745 542.925L469.439 535.518Z" fill="#50180D"/>
<path opacity="0.4" d="M349.575 610.107L342.926 602.507L328.672 590.631L325.823 582.556L311.569 574.48L285.914 567.355L250.281 561.177L213.227 557.853H144.34L107.761 560.701L77.8308 564.026L46.9494 571.15L31.2735 576.377L19.8733 582.556L16.0733 588.258V592.534L1.34341 597.761L-13.3865 607.74L-16 622.469L-10.0621 631.972L21.7707 660.475L20.8193 666.178L10.8409 697.06L3.24076 726.514L0.867736 749.32L5.14346 775.45L15.1219 804.428L28.4248 827.234L45.5277 844.337L69.0442 864.288L63.3414 899.921L77.3551 904.197L92.5553 872.84L121.058 883.764L179.967 888.991L223.2 883.764L246.481 874.737L265.011 904.192L275.466 899.916L270.714 863.337L290.19 849.083L302.542 834.829L314.893 819.629L325.347 800.329L332.472 773.547L335.796 745.99L333.423 717.011L315.844 670.454L313.942 661.902L324.866 648.599L342.92 633.399L347.672 627.697L351.472 620.572L349.569 610.118L349.575 610.107ZM33.1708 639.562L28.8951 645.74H21.295L5.61914 630.064L2.29476 620.561L5.14346 613.913L12.2679 610.588L22.722 614.864L33.1762 626.264V639.567L33.1708 639.562ZM300.169 603.453L296.368 607.729L284.017 610.578L237.935 615.805L202.303 618.653H165.248L110.139 615.805L72.1334 612.48L54.0791 607.729L50.2791 603.453L53.1278 598.226L66.4306 593.95L90.1823 590.626L122.961 587.302H226.054L269.763 591.577L292.568 595.377L300.169 600.129V603.453ZM333.423 625.307L326.774 634.335L315.85 645.735H306.823L303.498 641.935V631.956L305.871 623.88L315.85 612.48L325.828 610.578L333.428 614.853V625.307H333.423Z" fill="#25180D"/>
<path opacity="0.57" d="M64.7416 246.558L66.3182 253.271L70.5726 259.551L77.3656 266.291L81.9834 268.808L77.5206 273.308L70.8612 277.002L63.5176 277.611L55.041 273.324L48.6221 266.959L45.1427 258.012L44.3036 255.463L38.4672 261.347L31.3481 266.638L24.6032 268.53L18.3232 268.824L11.2362 267.285L8.24854 266.521L9.90003 258.065L13.6947 250.845L19.8732 244.618L27.2167 240.23L32.5507 239.001L27.6283 233.774L24.4375 227.179L23.561 220.134L25.9981 214.656L31.4871 209.119L35.5544 207.66L37.719 207.746L39.0925 213.913L43.5553 220.738L49.5093 224.929L55.6503 225.527L59.4397 225.859L274.428 62.9053L275.08 48.4534L276.475 34.9635C278.271 28.9668 283.135 15.9632 295.973 5.76563C300.558 2.12591 314.636 -8.67563 335.844 -6.77828C353.497 -5.19626 366.004 4.27981 370.536 8.06917C373.401 13.6276 379.991 28.2078 377.169 45.5406C372.113 76.6197 341.515 87.5709 339.19 88.3619C334.796 89.2705 330.403 90.1738 326.01 91.0824L312.092 89.6393L301.713 86.8922L292.242 80.5855L287.817 78.2552L140.844 186.992L64.7255 246.558H64.7416Z" fill="#D9180D"/>
<path opacity="0.89" d="M821.149 433.472C819.23 431.312 817.306 429.153 814.832 426.374C816.681 426.957 817.739 427.293 819.166 427.742C818.621 426.198 818.22 425.059 817.568 423.221C819.177 425.209 820.086 426.93 821.502 427.908C822.635 428.688 824.393 428.56 825.874 428.833C826.034 427.625 826.537 426.342 826.296 425.22C824.96 418.988 820.235 415.829 814.714 412.66C814.971 414.418 815.147 415.604 815.222 416.118C810.225 408.389 804.901 400.169 799.583 391.944C805.195 395.968 807.643 402.494 812.197 407.267C816.777 412.072 821.871 416.385 827.039 421.19C827.402 419.335 827.761 417.523 828.14 415.604C829.583 417.064 831.042 418.539 832.94 420.463C833.111 415.808 831.55 412.414 829.343 409.469C825.094 403.787 820.502 398.368 816.088 392.81C815.003 391.441 814.062 389.955 813.303 388.347C820.321 393.697 824.768 401.131 829.743 408.186C828.984 406.524 828.231 404.862 827.472 403.2C827.622 403.114 827.766 403.029 827.916 402.943C830.711 407.406 833.506 411.869 836.723 417.01C836.349 415.38 836.146 414.503 835.794 412.98C836.878 413.916 837.6 414.466 838.241 415.102C843.11 419.907 846.429 425.77 849.748 431.671C853.837 438.945 858.209 446.058 862.378 453.284C863.773 455.7 864.927 458.26 866.525 460.623C866.445 456.651 863.516 453.76 862.239 450.243C862.469 450.126 862.699 450.003 862.928 449.885C865.729 455.358 868.53 460.836 871.335 466.309C870.213 465.604 869.091 464.893 867.904 464.145C866.167 473.931 868.54 482.039 874.157 484.406C876.643 479.12 875.953 474.123 873.062 469.254C874.174 470.067 875.291 470.874 877.044 472.151C876.696 469.233 876.402 466.78 876.124 464.444C877.038 465.791 879.449 466.288 878.738 469.174C878.529 470.034 878.952 472.653 881.538 472.493C881.998 472.466 882.506 473.621 883.03 474.198C885.654 477.116 888.289 480.024 891.314 482.632C890.833 477.458 888.064 473.439 885.734 469.222L885.713 469.292C887.011 470.793 888.289 472.306 889.609 473.786C890.24 474.492 890.961 475.123 892.03 475.491C888.059 468.308 884.088 461.13 880.117 453.947C880.635 454.439 881.245 454.856 881.651 455.417C883.43 457.897 884.841 460.719 888.305 462.087C886.311 452.226 884.521 442.761 879.096 434.295C874.296 426.802 870.4 418.774 868.856 409.843C868.711 409.009 868.733 408.143 868.84 407.261C874.248 425.177 884.072 440.596 895.793 455.273C895.926 453.856 896.06 452.52 896.172 451.301C898.005 454.572 899.903 457.945 901.8 461.323C902.062 461.226 902.318 461.125 902.58 461.029C902.522 459.778 902.463 458.527 902.383 456.758C903.884 459.441 905.167 461.718 906.445 464C906.6 463.942 906.749 463.883 906.904 463.824C906.247 461.633 905.584 459.447 904.927 457.255C910.619 468.383 914.13 480.521 920.816 491.103C921.158 490.953 921.5 490.798 921.843 490.649C919.566 484.192 917.283 477.736 915.007 471.28C912.73 464.823 910.453 458.378 908.176 451.927C908.481 451.766 908.786 451.606 909.09 451.446C911.527 455.914 913.457 460.895 919.154 462.135C916.129 454.551 913.147 447.09 910.17 439.623C912.527 442.125 914.184 445.107 918.278 445.93C916.712 441.499 915.14 437.459 913.895 433.322C913.334 431.462 912.5 429.533 913.991 427.395C914.552 426.593 913.713 424.658 913.259 423.328C911.02 416.764 908.647 410.238 906.412 403.675C904.285 397.427 902.506 391.099 902.89 384.392C902.987 382.74 903.313 381.105 903.756 379.459C905.766 391.153 903.922 403.948 913.409 413.312L914.355 413.125C914.28 410.907 914.2 408.683 914.125 406.46C915.092 409.389 915.953 412.366 917.07 415.241C917.882 417.331 919.801 417.887 921.698 417.122C923.9 416.235 923.713 414.044 922.687 412.606C920.351 409.325 917.615 406.321 915.044 403.205C914.82 403.371 914.595 403.536 914.371 403.707C914.28 404.659 914.189 405.61 914.103 406.561C911.624 390.094 905.878 373.975 908.486 356.963C908.818 356.931 909.144 356.899 909.475 356.867C909.769 360.934 910.004 365.001 910.373 369.063C911.159 377.796 911.864 386.546 912.917 395.247C913.254 398.021 914.584 400.661 917.246 402.211C918.876 392.687 919.25 383.328 915.782 374.125C915.082 372.265 915.247 370.079 915.375 367.978C918.566 377.711 920.063 388.037 926.989 396.882C927.353 393.189 927.663 390.03 927.978 386.877C928.192 386.834 928.406 386.791 928.62 386.743C929.64 392.948 930.57 399.164 931.709 405.348C932.858 411.607 934.215 417.828 936.049 423.974C937.567 417.929 936.209 412.136 935.022 406.337C933.825 400.484 932.623 394.627 931.746 388.716C936.797 406.556 939.426 424.755 939.517 443.765C942.2 441.772 942.917 439.255 942.772 436.764C942.494 431.906 941.954 427.047 941.19 422.237C940.26 416.363 938.945 410.548 937.887 404.696C937.625 403.258 937.716 401.762 937.641 400.292C937.893 400.249 938.144 400.201 938.395 400.158C939.432 404.749 940.886 409.287 941.431 413.932C942.868 426.267 943.911 438.645 945.108 451.007C945.167 451.622 944.91 452.499 945.231 452.825C948.079 455.727 948.384 459.19 947.743 462.931C947.695 463.199 948.005 463.525 948.245 464.038C948.951 463.145 949.528 462.408 950.265 461.472C950.506 461.975 950.762 462.253 950.757 462.531C950.629 468.297 950.383 474.064 950.346 479.826C950.308 486.111 950.586 492.402 950.495 498.687C950.431 502.925 950.586 507.319 949.533 511.354C947.887 517.693 949.506 523.508 950.944 529.446C953.323 539.296 955.578 549.178 958.218 558.959C959.603 564.084 961.698 569.023 963.531 574.212C963.28 574.111 963.018 574.009 962.44 573.78C966.839 595.041 978.795 612.785 987.24 632.042C987.651 631.983 988.063 631.924 988.48 631.865C988.549 630.513 989.089 628.958 988.608 627.846C983.76 616.676 978.779 605.559 973.766 594.463C971.831 590.177 969.72 585.976 967.384 581.096C969.276 583.229 970.719 584.864 972.168 586.495C972.371 586.398 972.579 586.302 972.782 586.206C971.74 582.026 970.735 577.831 969.65 573.662C963.734 550.894 960.041 527.8 959.047 504.262C958.528 491.942 957.267 479.649 956.738 467.33C956.535 462.541 957.422 457.704 957.817 452.889C958.224 452.905 958.635 452.916 959.041 452.932C959.218 456.753 959.613 460.574 959.533 464.39C959.132 484.358 961.404 504.112 964.402 523.78C968.646 551.615 975.615 578.814 984.621 605.484C986.181 610.107 988.362 614.517 990.211 619.038C991.858 623.068 993.76 627.028 994.979 631.192C997.379 639.396 1001.66 646.67 1005.59 654.131C1011.93 666.151 1017.96 678.38 1026.5 689.058C1031.87 695.782 1037.63 702.19 1043.14 708.807C1044.37 710.282 1045.6 711.928 1046.19 713.713C1046.9 715.814 1047.08 718.518 1044.76 719.662C1043.48 720.298 1041.45 719.416 1039.39 719.176C1039.56 720.052 1039.79 721.458 1040.14 722.837C1040.42 723.954 1041.25 725.087 1041.1 726.113C1040.92 727.465 1040.31 729.101 1039.31 729.892C1038.55 730.49 1036.69 730.362 1035.7 729.838C1034.35 729.122 1033.26 727.813 1032.25 726.594C1028.29 721.805 1024.42 716.952 1020.52 712.121C1021.26 712.677 1022.12 713.125 1022.74 713.799C1026.88 718.315 1030.98 722.869 1035.04 727.444C1036.33 728.892 1037.62 729.261 1039.13 727.818C1040.64 726.364 1039.63 725.402 1038.54 724.312C1034.71 720.485 1030.96 716.578 1027.13 712.746C1014.82 700.416 1003.39 687.316 992.793 673.489C989.036 668.583 985.262 663.687 981.339 658.578C980.03 659.716 979.057 660.566 977.855 661.608C978.865 662.886 979.736 664.094 980.714 665.205C988.918 674.542 997.202 683.81 1005.34 693.211C1009.1 697.556 1012.58 702.142 1016.19 706.621C1013.84 704.376 1011.5 702.137 1009.15 699.892C1009 700.02 1008.84 700.149 1008.69 700.277C1009.97 702.003 1011.21 703.767 1012.54 705.456C1016.92 711.041 1021.33 716.605 1025.74 722.174C1026.23 722.799 1026.74 723.419 1027.2 724.071C1030.36 728.555 1030.09 729.699 1025.34 731.917C1025.97 733.173 1026.64 734.413 1027.22 735.691C1028.36 738.187 1027.5 739.544 1024.88 738.748C1022.72 738.096 1020.72 736.594 1018.97 735.092C1017.32 733.676 1016.1 731.768 1014.58 729.945C1013.98 730.41 1013.58 730.699 1013.21 731.03C1010.62 733.344 1008.13 733.767 1005.61 731.388C1002.8 728.743 1000.51 725.541 998.105 722.484C996.962 721.025 996.101 719.341 995.118 717.759C994.033 716.012 992.926 714.74 990.42 715.595C989.447 715.926 987.774 715.21 986.85 714.451C985.016 712.938 983.44 711.1 981.826 709.331C971.366 697.845 960.949 686.322 950.458 674.874C949.09 673.383 947.513 671.972 945.781 670.945C941.965 668.679 938.395 666.306 937.016 661.753C936.893 661.352 936.562 660.988 936.246 660.684C927.925 652.683 919.608 644.676 911.255 636.718C910.047 635.569 908.641 634.629 907.508 633.239C909.748 634.479 912.126 635.526 914.205 636.991C924.232 644.051 934.178 651.213 944.14 658.359C945.396 659.257 946.562 660.277 948.379 658.781C946.626 657.45 944.899 656.248 943.296 654.901C928.86 642.779 912.698 633.287 896.407 623.971C884.911 617.397 873.554 610.578 862.009 604.089C849.177 596.885 835.489 591.593 821.668 586.633C820.754 586.302 819.792 586.094 818.84 585.88C818.247 585.746 817.638 585.709 816.729 586.03C817.531 586.73 818.333 587.43 819.289 588.264C811.074 585.217 803.047 582.24 795.014 579.263C795.094 578.916 795.174 578.563 795.254 578.216C797.072 578.323 798.948 578.178 800.695 578.584C804.233 579.408 807.825 580.231 811.187 581.572C827.199 587.964 843.463 593.859 859.016 601.246C872.554 607.675 885.253 615.869 898.326 623.271C900.058 624.249 901.816 625.179 903.564 626.13L903.986 625.532C899.732 622.261 895.75 618.552 891.186 615.794C855.809 594.394 818.418 577.735 777.89 568.777C772.759 567.644 767.307 567.954 762.011 567.553C759.589 567.371 757.174 567.072 754.175 566.767C758.558 563.892 762.727 563.085 767.152 563.267C779.333 563.764 791.021 566.858 802.673 570.06C820.112 574.848 837.001 581.182 853.5 588.574C854.505 589.023 855.542 589.407 856.734 589.488C851.881 585.928 848.113 581.086 841.769 579.477C836.756 578.205 832.122 575.485 827.247 573.593C817.05 569.638 806.799 565.832 796.59 561.904C792.961 560.509 789.397 558.932 785.805 557.436C785.955 557.115 786.104 556.789 786.254 556.468C800.546 561.914 814.837 567.361 829.129 572.807C815.617 564.303 800.823 558.841 786.003 553.427L786.329 552.54C793.736 555.186 801.144 557.831 808.552 560.477C808.696 560.21 808.84 559.942 808.985 559.67C805.639 557.895 802.475 555.266 798.91 554.523C790.241 552.716 782.427 548.97 774.533 545.309C772.112 544.186 769.595 543.214 767.328 541.835C762.871 539.125 758.558 536.185 754.314 532.775C755.779 533.155 757.302 533.39 758.702 533.93C765.501 536.549 772.224 539.387 779.076 541.861C782.074 542.946 785.324 543.342 788.461 544.053C788.509 543.812 788.557 543.572 788.606 543.331C772.668 535.416 756.725 527.5 740.787 519.59C740.862 519.387 740.937 519.184 741.011 518.981C741.899 519.339 742.802 519.665 743.673 520.055C751.941 523.786 760.172 527.591 768.488 531.209C770.562 532.113 772.903 532.401 775.121 532.973C775.276 532.578 775.431 532.177 775.581 531.781C773.004 530.189 770.562 528.291 767.815 527.062C761.578 524.272 755.169 521.872 748.879 519.195C745.864 517.912 742.898 516.485 740.028 514.903C738.783 514.219 737.837 512.989 737.131 511.541C740.429 513.39 743.673 515.352 747.046 517.062C749.493 518.302 752.043 519.424 754.662 520.205C756.302 520.696 758.168 520.611 759.91 520.504C761.856 520.386 762.203 519.36 761.268 517.607C758.408 512.257 753.726 508.944 748.601 506.164C744.539 503.962 740.327 502.028 736.233 499.879C734.373 498.901 732.642 497.693 731.15 496.063C734.437 497.816 737.73 499.564 741.017 501.317C741.722 501.696 742.449 502.049 743.112 502.493C748.558 506.175 754.704 507.474 761.118 508.366C764.715 508.869 768.12 510.707 771.615 511.942C771.994 512.076 772.369 512.215 773.213 511.915C772.732 511.231 772.395 510.317 771.743 509.9C764.795 505.464 758.007 500.713 750.749 496.843C743 492.707 734.78 489.462 726.816 485.721C725.811 485.251 725.17 484.07 724.251 483.348C723.652 482.878 722.898 482.562 722.166 482.311C717.383 480.692 712.583 479.115 707.789 477.522C707.832 477.266 707.875 477.004 707.917 476.747C709.36 476.988 710.852 477.073 712.236 477.501C719.798 479.821 727.297 482.359 734.897 484.556C740.434 486.154 746.089 487.335 751.695 488.687C751.989 488.757 752.315 488.698 752.631 488.698C752.695 488.441 752.754 488.185 752.818 487.928C740.728 483.936 728.633 479.943 716.544 475.951C716.618 475.689 716.693 475.422 716.768 475.16C725.972 476.197 734.245 482.6 743.791 480.526C734.459 468.698 721.61 463.188 706.987 460.943C707.116 460.585 707.238 460.222 707.367 459.864C708.249 459.917 709.152 459.869 710.012 460.035C717.041 461.36 723.663 463.722 730.13 466.87C735.747 469.607 741.834 471.376 747.927 473.653C746.869 470.435 742.15 466.037 735.319 462.536C730.301 459.965 724.967 458.009 719.772 455.78C719.852 455.438 719.927 455.096 720.007 454.754C721.739 454.968 723.663 454.77 725.159 455.481C729.478 457.528 733.866 459.586 737.767 462.295C743.192 466.063 748.547 469.773 754.875 471.943C757.013 472.675 758.809 474.353 760.878 475.358C762.379 476.085 764.074 476.405 765.677 476.908C765.853 476.598 766.03 476.293 766.211 475.983C762.021 471.921 757.831 467.865 753.641 463.803C753.849 463.573 754.058 463.343 754.266 463.108C757.168 465.492 760.193 467.742 762.941 470.291C770.69 477.48 778.216 484.919 786.062 491.996C789.658 495.235 793.811 497.859 797.708 500.756L798.45 499.97C796.115 497.127 793.774 494.289 791.422 491.429C792.502 491.322 793.576 491.221 794.902 491.092C793.127 486.672 790.166 483.658 786.703 481.151C783.175 478.597 779.466 476.304 775.875 473.84C772.219 471.339 768.723 468.65 766.725 464.465C777.596 469.5 784.506 479.938 795.698 485.267C794.875 485.662 794.495 485.844 793.822 486.165C796.227 488.757 797.782 491.899 801.518 493.204C803.832 494.011 805.757 495.924 808.028 497.458C807.413 493.717 804.185 492.097 802.325 489.393C803.779 490.162 805.227 490.932 806.681 491.702C806.879 491.589 807.082 491.477 807.28 491.365C806.574 489.858 806.184 488.041 805.094 486.902C802.71 484.433 800.129 482.071 797.333 480.082C788.413 473.76 779.381 467.592 771.754 459.655C771.08 458.955 770.46 458.196 769.84 457.442C769.755 457.341 769.808 457.122 769.798 456.855C770.236 457.084 770.648 457.255 771.011 457.496C776.083 460.842 781.358 463.92 786.158 467.619C791.208 471.515 795.922 475.876 800.572 480.259C808.258 487.506 815.992 494.727 823.271 502.375C826.697 505.977 829.113 510.547 832.031 514.753C833.437 512.263 831.651 510.039 830.438 507.885C829.155 505.619 827.504 503.562 825.724 500.991C828.845 503.289 831.529 505.266 834.217 507.244C834.441 507.052 834.66 506.859 834.885 506.661C833.266 504.224 831.967 501.472 829.957 499.414C824.458 493.765 818.701 488.361 812.967 482.947C804.575 475.026 796.093 467.196 787.724 459.249C787.077 458.634 787.056 457.389 786.671 456.47C786.42 455.871 786.152 455.214 785.703 454.77C779.263 448.41 772.748 442.119 766.345 435.716C763.929 433.295 761.759 430.628 759.477 428.068C759.707 427.822 759.942 427.577 760.172 427.331C762.133 428.934 764.095 430.543 766.217 432.285C763.491 426.839 760.861 421.591 758.232 416.337L759.119 415.743C760.241 417.005 761.481 418.181 762.47 419.538C766.238 424.701 769.723 430.083 773.699 435.075C778.285 440.826 783.111 446.406 788.151 451.761C791.208 455.005 794.971 457.442 800.236 457.143C797.531 451.435 794.661 446.331 789.728 442.483C784.485 438.394 779.413 434.049 774.576 429.49C772.406 427.443 770.974 424.61 769.21 422.13C769.466 421.922 769.723 421.708 769.979 421.5C771.096 422.563 772.251 423.595 773.331 424.696C777.681 429.132 781.903 433.701 786.382 438.004C791.027 442.472 796.243 446.165 802.47 448.202C803.058 448.394 803.656 448.581 804.255 448.736C804.495 448.795 804.762 448.757 805.644 448.779C805.04 446.523 804.49 444.471 803.913 442.333C807.809 445.78 811.759 449.27 816.088 453.103C815.821 451.921 815.666 451.253 815.393 450.078C817.638 452.418 819.524 454.391 821.411 456.357C821.571 456.235 821.732 456.112 821.897 455.989C821.144 454.914 820.449 453.787 819.621 452.771C814.292 446.256 808.926 439.768 803.587 433.258C802.069 431.409 800.423 429.64 799.167 427.625C798.21 426.096 797.071 424.429 798.445 422.307C798.83 421.713 797.991 420.335 797.526 418.635C798.643 419.565 799.434 420.041 800 420.709C807.034 429.046 814.174 437.293 820.994 445.796C827.509 453.92 833.928 462.087 842.581 468.11C844.243 469.27 845.997 470.296 847.707 471.387C847.878 471.205 848.043 471.023 848.215 470.836C846.766 469.276 845.564 467.346 843.837 466.213C830.684 457.539 821.994 444.834 812.726 432.568C808.407 426.855 803.255 421.767 798.509 416.374C796.895 414.541 795.372 412.627 794.201 410.409C797.312 413.691 800.423 416.967 803.533 420.249C803.806 420.051 804.078 419.854 804.346 419.656C803.683 418.106 803.015 416.556 802.181 414.616C806.216 420.292 809.845 425.738 813.832 430.906C817.846 436.112 822.555 440.655 828.723 443.509C826.168 440.131 823.613 436.753 821.064 433.375C823.26 435.604 825.275 438.041 827.691 439.992C829.909 441.788 832.523 443.097 835.024 444.514C835.441 444.749 836.542 444.61 836.675 444.332C836.932 443.792 836.969 442.9 836.675 442.387C834.516 438.587 831.988 435.043 828.092 432.852C825.788 431.558 823.287 430.618 820.251 430.815C820.657 431.964 820.914 432.697 821.171 433.424L821.149 433.472ZM797.184 464.733C796.842 464.684 796.505 464.631 795.602 464.497C802.635 470.847 808.333 477.939 815.869 483.134C815.639 482.023 815.249 481.012 814.532 480.35C809.941 476.09 805.276 471.91 800.636 467.704C801.582 468.137 802.507 468.65 803.485 468.992C805.644 469.751 807.83 470.43 810.006 471.141C810.118 470.842 810.235 470.542 810.348 470.248C802.352 464.284 794.356 458.319 786.361 452.354C786.762 453.332 787.376 454.075 788.023 454.781C791.069 458.1 794.127 461.414 797.184 464.727V464.733ZM939.464 664.072C944.06 667.215 948.331 667.226 952.574 666.723C967.855 664.911 980.057 657.199 990.532 646.414C992.05 644.853 993.21 642.849 994.177 640.876C996.326 636.504 995.47 632.004 992.44 629.556C980.078 648.706 962.884 660.529 939.453 664.078L939.464 664.072ZM980.981 641.411C983.037 639.148 983.327 636.98 981.852 634.906C978.918 630.791 976.101 626.585 973.018 622.587C962.195 608.525 951.302 594.517 940.383 580.525C930.528 567.895 922.409 554.138 914.307 540.376C912.86 537.917 910.758 537.195 908 538.211C908.214 538.606 908.385 539.013 908.631 539.371C916.84 551.263 924.969 563.219 933.301 575.025C941.992 587.35 950.966 599.477 959.656 611.802C965.177 619.626 970.356 627.691 975.818 635.558C977.251 637.627 979.153 639.369 980.981 641.416V641.411ZM964.616 602.058L965.535 601.631C962.964 594.357 960.19 587.141 957.914 579.776C956.754 576.024 955.364 572.524 953.451 569.071C945.22 554.191 935.487 540.338 925.354 526.736C925.081 526.372 924.643 526.132 924.285 525.833C934.766 552.909 949.362 577.66 964.61 602.058H964.616ZM991.328 649.497C987.801 652.421 987.689 653.036 989.998 656.077C991.553 658.124 993.194 660.106 994.781 662.132C1007.81 678.738 1020.87 695.317 1035.6 710.485C1037.45 712.393 1039.22 714.408 1041.24 716.129C1041.9 716.696 1043.21 716.493 1044.24 716.637C1044.07 715.744 1044.19 714.643 1043.71 713.997C1040.45 709.678 1037.15 705.386 1033.71 701.218C1023.5 688.839 1013.18 676.547 1002.97 664.163C999.03 659.385 995.267 654.463 991.334 649.497H991.328ZM1025.51 737.08L1026.11 736.279C1025.65 735.578 1025.26 734.825 1024.72 734.189C1015.99 723.815 1007.59 713.136 998.394 703.184C987.753 691.661 976.422 680.78 965.38 669.631C963.654 667.888 961.805 666.568 959.138 668.776C960.19 669.834 961.233 670.881 962.269 671.924C973.189 682.939 984.557 693.553 994.888 705.092C1003.86 715.124 1011.87 726.033 1022.04 734.974C1023.04 735.851 1024.34 736.38 1025.51 737.075V737.08ZM843.923 516.41C843.73 516.613 843.538 516.822 843.346 517.025C843.666 517.618 843.95 518.238 844.308 518.804C848.252 525.015 852.207 531.22 856.167 537.425C856.397 537.789 856.654 538.157 856.974 538.435C858.685 539.905 860.454 541.316 862.143 542.807C864.051 544.496 865.782 546.41 867.803 547.944C872.319 551.375 877.049 554.528 881.533 558.002C885.627 561.172 889.513 564.608 894.098 568.44C893.355 567.019 893.024 566.217 892.548 565.517C890.058 561.845 887.514 558.205 885.012 554.544C882.468 550.819 880.614 546.394 875.51 545.293C875.275 545.244 875.098 544.961 874.879 544.817C865.74 538.761 858.856 530.322 851.293 522.594C849.064 520.317 846.397 518.462 843.928 516.415L843.923 516.41ZM919.667 491.616C919.496 491.691 919.32 491.771 919.149 491.846C919.763 494.502 920.635 497.132 920.923 499.82C921.217 502.535 920.88 505.309 920.923 508.056C920.934 508.901 921.068 509.89 921.516 510.563C923.526 513.583 925.685 516.506 927.77 519.483C933.97 528.339 940.164 537.206 946.353 546.073C947.187 547.27 947.983 548.499 948.796 549.713C949.18 549.189 949.191 548.868 949.095 548.58C946.209 539.991 943.43 531.364 940.324 522.861C939.608 520.894 938.015 519.056 936.396 517.65C930.934 512.904 926.573 507.517 924.173 500.547C923.098 497.426 921.196 494.588 919.667 491.622V491.616ZM862.239 566.089C886.124 587.922 910.33 610.054 934.536 632.186C934.178 632.004 933.943 631.662 933.66 631.358C923.152 620.171 912.778 608.851 902.078 597.852C894.221 589.776 885.98 582.074 877.835 574.287C873.313 569.969 868.679 565.731 862.244 566.094L862.239 566.089ZM777.211 566.436C777.109 566.816 777.002 567.19 776.901 567.569C810.428 573.405 840.834 587.74 871.384 601.812C868.262 598.413 865.178 595.137 860.833 593.202C840.101 583.983 819.198 575.233 797.007 570.076C790.482 568.558 783.817 567.633 777.211 566.436ZM947.673 669.171C947.561 669.406 947.443 669.641 947.331 669.876C947.919 670.491 948.486 671.133 949.1 671.72C955.182 677.562 961.479 683.195 967.299 689.283C974.407 696.717 981.131 704.526 987.993 712.196C988.918 713.227 989.714 714.259 991.339 712.869C989.479 710.068 987.78 707.284 985.845 704.676C983.696 701.773 981.542 698.812 979.009 696.263C974.258 691.485 969.26 686.953 964.311 682.372C960.014 678.401 955.696 674.446 951.265 670.625C950.34 669.828 948.881 669.641 947.673 669.171ZM866.434 506.346C866.622 506.223 866.803 506.1 866.99 505.977C864.938 502.37 863.212 498.521 860.764 495.202C854.238 486.341 847.659 477.485 840.577 469.067C837.05 464.872 832.378 461.633 828.225 457.961C828.653 458.902 829.257 459.735 829.893 460.548C838.787 471.83 847.728 483.075 856.531 494.433C858.011 496.346 858.567 498.997 860.112 500.83C861.891 502.947 864.302 504.534 866.434 506.357V506.346ZM961.58 522.321C964.504 550.53 971.168 577.227 980.318 603.346C974.119 576.543 967.919 549.745 961.58 522.321ZM827.135 542.652C826.815 542.807 826.494 542.957 826.173 543.112C826.868 546.827 827.328 550.605 828.322 554.24C829.61 558.948 832.95 561.599 837.814 562.353C839.444 562.604 840.417 562.118 839.936 560.434C839.198 557.837 838.546 555.111 837.215 552.813C834.773 548.585 831.336 545.175 827.135 542.658V542.652ZM850.759 580.963C850.748 581.075 850.732 581.187 850.721 581.3C868.572 595.441 886.418 609.578 904.269 623.72C904.328 623.031 904.056 622.721 903.767 622.421C890.592 608.889 875.846 597.211 860.561 586.217C857.578 584.073 854.04 582.694 850.764 580.963H850.759ZM777.066 534.277C780.332 536.126 783.464 537.703 786.393 539.595C791.374 542.813 796.414 540.44 801.657 540.381C796.66 532.487 784.757 529.467 777.066 534.277ZM948.454 489.211C948.112 489.174 947.769 489.136 947.427 489.099C944.659 494.492 941.917 499.906 941.094 506.041C940.934 507.228 941.217 508.505 941.463 509.703C941.858 511.6 942.489 513.342 944.996 513.177C947.374 513.022 949.4 511.445 949.351 508.992C949.218 502.396 948.774 495.806 948.448 489.211H948.454ZM915.386 447.897C914.536 453.776 921.345 464.257 928.133 467.528C931.564 457.245 922.66 449.8 915.386 447.897ZM843.677 464.476C848.658 469.366 852.586 474.294 858.546 476.844C859.347 477.186 860.24 477.346 861.106 477.522C863.051 477.918 863.869 476.934 864.056 475.112C864.387 471.825 861.459 467.955 857.642 467.004C854.136 466.133 850.577 465.47 847.028 464.759C846.2 464.594 845.339 464.61 843.677 464.471V464.476ZM880.234 532.396C880.266 530.189 880.812 528.029 880.234 526.239C878.203 519.97 875.552 513.952 871.047 508.965C870.561 508.425 870.015 507.944 869.85 507.778C870.641 513.599 871.394 519.601 872.298 525.581C872.95 529.884 875.12 531.787 880.24 532.396H880.234ZM945.792 456.7C942.099 461.061 938.112 465.155 936.914 470.943C936.578 472.573 936.246 474.374 936.626 475.919C936.898 477.02 938.267 478.014 939.384 478.629C939.688 478.794 941.11 477.544 941.564 476.699C942.911 474.203 944.172 471.643 945.204 469.003C946.738 465.059 947.021 460.965 945.792 456.7ZM873.826 559.012C890.191 575.201 906.557 591.396 922.922 607.585C908.647 589.242 892.527 572.743 873.826 559.012ZM968.758 665.825C968.496 666.264 968.229 666.702 967.967 667.14C973.99 673.971 979.944 680.865 986.064 687.605C992.178 694.334 998.458 700.913 1004.66 707.556C1004.89 707.359 1005.12 707.161 1005.35 706.963C1001.72 702.516 998.196 697.995 994.46 693.644C986.828 684.767 979.1 675.975 971.345 667.199C970.735 666.509 969.629 666.269 968.758 665.815V665.825ZM855.617 579.156C850.235 571.449 838.861 568.569 833.458 573.427C837.675 578.371 849.38 581.465 855.617 579.156ZM934.328 478.431C932.922 484.203 932.163 489.879 933.414 495.63C933.937 498.035 936.129 500.189 937.93 499.788C940.298 499.259 940.789 497.148 941.19 495.106C941.238 494.85 941.222 494.572 941.195 494.31C940.533 488.324 937.556 483.337 934.333 478.426L934.328 478.431ZM861.902 531.765C866.862 537.024 871.897 541.407 877.765 544.694C879.759 545.806 881.239 544.352 881.148 541.851C880.988 537.233 878.882 534.544 874.029 533.513C870.251 532.711 866.37 532.391 861.897 531.765H861.902ZM813.175 534.037C812.694 534.272 812.213 534.512 811.732 534.748C812.421 538.168 812.817 541.685 813.891 544.983C814.896 548.061 816.996 550.648 820.235 551.712C821.71 552.198 823.415 551.968 825.019 552.059C824.832 550.439 825.216 548.382 824.361 547.275C820.839 542.706 816.938 538.425 813.18 534.031L813.175 534.037ZM914.793 462.846C914.542 463.017 914.291 463.188 914.039 463.354C916.305 467.212 918.187 471.392 920.998 474.807C922.479 476.603 925.514 477.255 927.962 478.067C929.186 478.474 930.72 477.779 930.196 476.085C929.528 473.915 928.876 471.435 927.38 469.89C923.954 466.352 919.56 464.155 914.788 462.846H914.793ZM775.901 513.273C775.789 513.952 775.655 514.229 775.725 514.433C777.922 520.942 781.748 526.271 787.67 529.788C789.177 530.68 791.363 530.424 793.239 530.696C793.352 530.349 793.464 529.996 793.581 529.649C789.573 522.316 783.582 517.11 775.901 513.273ZM790.722 545.726C795.26 550.317 808.44 553.208 812.587 550.525C810.471 543.983 797.398 541.113 790.722 545.726ZM817.991 564.624C821.999 567.516 825.917 570.097 830.679 570.776C832.442 571.027 834.393 570.76 836.114 570.241C837.119 569.937 838.439 568.702 838.493 567.82C838.546 566.976 837.317 565.666 836.349 565.207C830.502 562.428 824.532 560.669 817.996 564.624H817.991ZM834.26 514.935C831.609 519.569 832.266 528.013 835.815 531.327C837.098 532.524 839.423 532.599 841.272 533.187C841.662 531.573 842.667 529.809 842.33 528.366C841.106 523.112 838.07 518.831 834.26 514.935ZM827.953 494.224C831.4 499.505 836.371 502.578 842.367 503.898C843.885 504.23 845.654 503.401 847.306 503.107C846.536 501.68 845.975 500.077 844.965 498.853C840.492 493.455 834.163 494.155 827.953 494.23V494.224ZM794.26 524.598C794.041 524.855 793.827 525.106 793.608 525.362C794.56 526.987 795.457 528.644 796.478 530.226C799.156 534.389 802.502 537.928 806.863 540.333C807.686 540.787 809.14 540.685 810.011 540.253C810.519 540.001 810.802 538.483 810.572 537.719C810.177 536.41 809.589 534.876 808.573 534.079C804.543 530.926 800.332 527.997 796.147 525.052C795.655 524.705 794.896 524.742 794.255 524.598H794.26ZM895.547 499.628C894.884 504.914 894.211 510.189 896.295 515.154C897.14 517.164 898.823 518.906 900.41 520.483C901.699 521.76 902.906 521.188 903.195 519.371C903.387 518.152 903.548 516.875 903.387 515.672C902.564 509.505 899.352 504.454 895.541 499.628H895.547ZM850.235 519.579C853.329 522.407 855.895 525.09 858.824 527.292C860.753 528.746 863.147 529.676 865.456 530.488C866.434 530.835 868.631 530.499 868.722 530.114C869.016 528.852 868.989 527.206 868.38 526.095C865.889 521.552 856.317 517.949 850.24 519.579H850.235ZM916.77 433.814C916.466 434.011 916.161 434.204 915.857 434.402C917.818 438.795 919.592 443.284 921.81 447.539C923.254 450.302 926.38 451.595 927.919 450.74C929.368 449.939 929.48 446.486 928.294 443.782C926.006 438.576 921.383 436.213 916.765 433.814H916.77ZM949.378 465.529C942.521 471.932 940.057 483.113 944.13 488.083C946.433 487.308 947.684 485.459 948.245 483.305C949.726 477.624 949.661 471.825 949.373 465.529H949.378ZM826.034 560.017C822.298 554.207 810.855 552.711 804.848 555.116C811.091 560.274 817.403 564.827 826.034 560.017ZM855.056 544.796C855.12 542.027 848.733 529.777 846.461 528.313C843.773 531.546 843.217 536.885 845.211 540.263C846.531 542.492 852.752 545.362 855.056 544.801V544.796ZM912.329 415.818C913.66 421.745 915.477 427.448 919.774 431.906C920.822 432.991 923.034 434.434 923.788 434.022C925.739 432.959 924.905 430.671 924.253 428.987C921.987 423.156 917.604 419.121 912.329 415.813V415.818ZM941.666 443.76C935.958 449.725 934.349 458.763 937.807 464.529C943.451 458.501 944.707 451.638 941.666 443.76ZM924.991 411.184C928.646 404.017 924.926 396.262 919.988 390.185C917.46 398.16 918.625 405.247 924.991 411.184ZM926.134 497.367C928.694 503.15 931.099 508.425 935.284 512.626C936.027 513.374 937.454 513.444 938.566 513.829C938.785 512.754 939.138 511.685 939.181 510.6C939.213 509.745 938.977 508.826 938.662 508.014C936.54 502.541 932.82 498.81 926.14 497.367H926.134ZM827.338 475.817C829.792 469.356 825.997 461.114 819.017 457.448C817.825 464.337 821.668 472.958 827.338 475.817ZM809.407 472.899C812.17 475.465 814.329 478.239 817.157 479.863C819.856 481.419 823.207 481.985 826.35 482.557C827.894 482.84 829.038 481.766 827.552 480.125C822.843 474.93 817.392 471.424 809.407 472.899ZM803.442 521.739C807.878 525.48 812.127 529.098 816.408 532.668C819.065 534.881 821.513 537.559 824.527 539.087C829.62 541.669 833.522 545.319 836.841 549.803C837.947 551.3 839.198 552.695 840.379 554.138C840.614 554.01 840.855 553.887 841.09 553.758C840.935 553.069 840.935 552.283 840.588 551.712C840.091 550.888 839.407 550.14 838.685 549.499C828.311 540.333 817.921 531.183 807.504 522.065C806.441 521.135 805.292 519.692 803.442 521.739ZM853.051 571.107C851.667 563.673 846.36 555.993 841.983 554.934C841.673 563.764 845.745 571.909 853.051 571.107ZM784.597 530.14C780.311 523.882 772.016 521.616 762.085 522.295C767.27 525.191 771.834 527.832 776.479 530.301C779.087 531.685 781.791 531.209 784.597 530.14ZM859.887 502.728C859.871 503.989 859.818 504.759 859.855 505.528C860.128 510.552 861.202 515.346 864.323 519.424C864.885 520.157 866.044 520.435 866.932 520.921C867.439 519.959 868.31 519.029 868.391 518.035C868.925 511.343 865.606 506.661 859.887 502.728ZM838.626 431.596C837.98 436.892 837.926 441.777 841.764 445.711C842.549 446.518 844.35 447.143 845.27 446.791C846.189 446.438 847.039 444.786 847.146 443.632C847.541 439.361 843.319 433.343 838.626 431.596ZM848.327 474.615C848.049 474.887 847.766 475.16 847.488 475.438C858.075 487.105 868.663 498.773 879.251 510.44C879.55 510.194 879.844 509.948 880.143 509.703C876.857 505.475 873.73 501.108 870.229 497.062C867.696 494.134 864.521 491.777 861.897 488.917C858.738 485.47 855.948 481.68 852.822 478.196C851.56 476.79 849.834 475.796 848.321 474.615H848.327ZM829.102 467.437C829.289 469.874 829.161 472.119 829.685 474.203C830.454 477.276 831.502 480.323 832.833 483.193C833.233 484.059 834.944 484.396 836.125 484.743C836.36 484.812 837.172 483.877 837.269 483.327C838.466 476.421 835.949 471.403 829.102 467.442V467.437ZM934.606 451.857C938.368 445.273 939.042 435.797 936.156 431.345C931.222 436.475 930.186 448.87 934.606 451.857ZM805.644 506.159C808.883 514.881 816.189 518.575 820.535 515.635C819.872 509.724 813.672 506.613 805.644 506.159ZM870.528 563.646C864.077 556.367 853.607 553.101 847.872 556.474C854.671 561.145 862.153 562.668 870.528 563.646ZM757.655 510.387C759.525 513.866 761.674 517.244 765.132 518.724C767.97 519.938 771.444 519.66 774.613 520.039C773.25 514.507 764.988 509.67 757.66 510.387H757.655ZM817.135 468.912C816.499 463.567 806.665 458.089 800.508 459.655C804.153 465.801 812.838 470.633 817.135 468.912ZM839.492 478.394C838.076 484.15 840.203 489.168 842.902 493.995C843.362 494.812 844.746 495.112 845.703 495.651C846.135 494.679 846.884 493.727 846.948 492.728C847.365 486.523 844.741 481.798 839.487 478.394H839.492ZM858.583 516.886C857.888 512.161 847.541 506.373 840.454 506.736C844.447 513.112 854.174 518.553 858.583 516.886ZM884.772 523.877C880.705 532.033 883.104 543.561 889.342 546.228C889.609 538.462 886.83 531.61 884.772 523.877ZM848.899 490.157C849.193 493.129 849.615 496.095 849.748 499.072C849.887 502.247 851.143 504.753 853.725 506.501C854.585 507.084 855.756 507.223 856.782 507.559C857.006 506.512 857.536 505.427 857.402 504.427C856.632 498.596 852.961 494.326 848.899 490.152V490.157ZM832.859 448.415C837.525 453.028 840.561 459.858 848.722 460.345C847.461 452.557 840.823 449.26 832.859 448.415ZM878.497 473.161C878.064 473.236 877.631 473.305 877.199 473.38C877.466 477.645 877.407 481.969 878.139 486.159C878.487 488.153 880.17 490.018 881.56 491.68C882.677 493.022 883.997 492.562 884.018 490.793C884.099 484.299 881.747 478.565 878.497 473.166V473.161ZM887.327 448.554C886.028 454.701 889.726 464.722 893.954 466.502C895.723 458.543 893.377 452.194 887.327 448.554ZM911.474 482.391C908.679 486.747 908.155 491.108 908.369 495.598C908.46 497.479 909.566 499.061 911.453 498.938C912.415 498.874 913.777 497.437 914.098 496.362C915.547 491.45 914.029 486.982 911.474 482.386V482.391ZM832.01 529.323C830.668 523.315 821.881 518.12 815.879 519.066C817.349 523.54 826.045 529.152 832.01 529.323ZM858.418 540.931C855.74 548.467 859.882 555.105 867.91 556.559C866.664 550.151 862.255 546.019 858.418 540.931ZM826.521 532.636C830.043 537.762 834.115 541.124 839.032 543.443C839.663 543.737 841.149 543.048 841.71 542.374C842.138 541.861 842.09 540.322 841.619 539.804C837.83 535.555 833.111 533.08 826.521 532.636ZM880.095 505.293C881.378 510.745 888.807 517.741 893.003 517.452C893.195 511.247 885.584 504.652 880.095 505.293ZM828.68 418.496C826.996 424.263 830.486 433.119 835.051 434.664C837.766 431.152 834.174 422.039 828.68 418.496ZM891.02 507.613C893.74 503.406 890.453 491.547 885.702 487.779C886.616 494.695 885.178 501.926 891.02 507.613ZM820.208 484.759C823.565 489.371 828.295 491.461 833.666 492.252C834.586 492.386 835.633 491.675 836.622 491.354C836.05 490.36 835.708 489.051 834.864 488.415C830.561 485.187 825.42 484.871 820.208 484.754V484.759ZM842.084 461.927C837.119 456.352 832.72 451.195 828.071 446.272C824.928 442.942 821.432 439.955 818.092 436.812C817.916 436.994 817.739 437.176 817.568 437.357C818.915 439.084 820.166 440.901 821.636 442.52C826.686 448.073 831.742 453.632 836.975 459.014C838.209 460.28 840.149 460.863 842.084 461.937V461.927ZM851.566 445.759C851.202 445.818 850.839 445.871 850.475 445.93C850.347 449.233 849.882 452.573 850.235 455.823C850.422 457.523 851.774 459.367 853.11 460.596C854.847 462.199 856.269 461.44 856.349 459.073C856.525 453.984 854.521 449.677 851.56 445.754L851.566 445.759ZM754.694 490.601C754.694 490.847 754.688 491.092 754.683 491.338C758.825 493.583 763.849 493.476 767.874 496.127C768.536 496.565 769.787 496.271 770.728 496.106C772.625 495.764 772.972 494.353 771.716 493.273C770.022 491.825 767.965 490.072 765.934 489.89C762.235 489.564 758.446 490.301 754.694 490.595V490.601ZM809.562 492.829C809.941 499.435 812.491 504.101 817.563 507.292C818.124 507.645 819.033 507.442 819.776 507.501C819.813 506.758 820.054 505.961 819.861 505.288C818.322 499.89 814.436 496.394 809.562 492.829ZM867.803 491.942C870.913 495.464 874.377 498.169 879.278 498.201C880.133 498.201 881.458 497.821 881.72 497.239C882.014 496.592 881.571 495.325 881.041 494.641C878.342 491.173 872.137 489.917 867.808 491.942H867.803ZM837.231 545.763C840.908 551.952 846.627 553.315 853.768 551.423C849.011 547.275 843.885 544.801 837.231 545.763ZM907.449 517.041C907.07 517.078 906.69 517.11 906.311 517.148C906.445 521.867 906.493 526.592 906.776 531.3C906.845 532.444 906.963 534.202 908.983 533.978C910.827 533.775 911.474 532.546 911.517 530.83C911.645 525.769 909.667 521.37 907.455 517.041H907.449ZM855.772 478.452C858.423 483.38 866.124 487.357 871.223 486.555C869.871 484.032 869.294 481.007 866.05 480.264C862.779 479.516 859.438 479.083 855.772 478.452ZM856.269 449.34C854.858 439.426 848.15 432.686 842.277 425.455C847.012 433.381 849.353 442.707 856.269 449.34ZM858.049 452.381C858.204 457.929 858.77 462.931 862.453 466.924C863.051 467.576 864.184 467.736 865.066 468.126C865.312 467.175 865.921 466.154 865.75 465.283C864.767 460.248 862.137 456.112 858.049 452.381ZM829.759 521.113C830.636 516.148 826.152 507.399 821.967 505.918C821.865 513.791 824.623 519.163 829.759 521.113ZM764.736 483.765C761.952 477.757 756.971 475.213 750.91 473.765C753.801 480.606 760.573 485.545 764.736 483.765ZM920.015 479.062C920.346 483.011 925.252 491.402 927.935 492.605C931.094 487.576 927.096 480.74 920.015 479.062ZM888.93 466.053C891.159 471.702 893.436 477.303 899.507 480.216C901.111 476.192 896.648 470.216 888.93 466.053ZM888.861 483.589C894.12 492.311 899.374 501.039 904.633 509.761C904.761 508.655 904.488 507.623 904.045 506.677C901.912 502.097 899.625 497.592 897.604 492.963C895.814 488.864 893.19 485.587 888.866 483.589H888.861ZM901.084 473.204C903.339 470.184 901.121 460.029 897.786 458.111C895.103 462.643 896.851 470.649 901.084 473.204ZM775.378 491.504C774.303 485.491 771.182 479.682 765.693 478.88C766.773 485.481 771.075 491.21 775.378 491.504ZM795.11 493.262C798.317 498.302 802.55 501.146 807.494 503.059C807.852 503.198 808.627 502.909 808.846 502.583C809.049 502.273 808.953 501.504 808.685 501.178C805.35 497.02 801.657 493.396 795.105 493.268L795.11 493.262ZM907.187 485.625C908.93 480.745 907.861 473.765 904.905 470.27C901.549 477.223 902.158 481.632 907.187 485.625ZM870.871 503.39C874.638 510.109 878.326 516.693 881.977 523.203C883.377 519.387 882.848 515.357 880.432 512.899C877.338 509.745 874.168 506.661 870.871 503.39ZM807.825 457.758C806.633 451.793 802.817 448.517 797.259 448.506C798.675 454.049 802.79 457.726 807.825 457.758ZM918.641 507.821C920.437 502.979 919.576 494.818 917.155 492.739C914.05 500.349 914.51 505.486 918.641 507.821ZM738.601 472.269C740.669 477.154 746.522 480.628 751.439 480.029C750.343 476.037 743.272 471.675 738.601 472.269ZM895.675 481.109C897.717 487.212 903.51 493.503 906.626 493.193C905.899 486.704 901.474 483.572 895.675 481.109ZM771.123 499.649C773.614 500.964 775.752 502.37 778.093 503.219C779.536 503.743 781.283 503.407 782.897 503.46C782.112 502.049 781.492 500.51 780.519 499.248C778.114 496.132 774.528 496.111 771.129 499.649H771.123ZM816.109 460.419C816.082 455.444 811.662 449.222 807.761 448.474C807.381 453.06 812.122 460.003 816.109 460.419ZM844.569 525.672C846.397 522.391 838.284 510.926 831.058 507.196C835.574 513.374 840.064 519.51 844.569 525.672ZM743.881 482.653C749.231 485.855 754.512 486.437 760.22 487.111C757.398 482.723 750.22 480.74 743.881 482.653ZM741.231 488.73C748.986 493.113 757.142 496.528 765.768 498.799C757.371 495.983 750.6 489.232 741.231 488.73ZM931.602 433.664C935.236 429.105 935.252 422.424 931.955 419.458C928.427 423.99 931.11 428.587 931.602 433.664ZM783.101 507.501C786.275 509.622 789.14 511.659 792.154 513.454C792.732 513.797 793.881 513.182 794.768 513.011C794.608 512.225 794.688 511.252 794.244 510.681C791.743 507.426 787.574 506.202 783.101 507.501ZM786.179 500.852C786.404 496.213 780.503 488.81 776.735 488.431C777.932 493.888 782.133 496.902 786.179 500.852ZM806.328 518.233C806.104 518.516 805.885 518.804 805.66 519.088C812.555 524.785 819.444 530.477 826.339 536.175C825.74 534.224 824.955 532.396 823.586 531.284C818.568 527.222 813.357 523.401 808.21 519.499C807.611 519.045 806.959 518.649 806.334 518.233H806.328ZM801.695 553.037C801.764 552.823 801.828 552.615 801.898 552.401C793.394 549.718 784.896 547.03 776.393 544.347C784.522 548.2 792.427 552.732 801.695 553.037ZM808.472 531.145C806.719 526.447 793.704 518.719 788.445 520.028C792.448 521.787 795.912 523.011 799.065 524.78C802.357 526.629 805.345 529.002 808.472 531.145ZM834.372 416.567C836.387 422.526 836.969 429.399 844.153 432.087C840.892 426.914 837.632 421.74 834.372 416.567ZM798.67 507.709C798.44 507.971 798.21 508.233 797.98 508.489C804.014 513.78 810.043 519.072 816.077 524.368C816.227 524.197 816.382 524.026 816.531 523.85C812.101 516.736 804.244 513.524 798.67 507.709ZM929.405 648.893C929.32 649.032 929.234 649.177 929.149 649.316C932.762 652.923 936.311 656.606 940.057 660.074C940.763 660.726 942.243 660.539 943.365 660.737C943.488 660.39 943.611 660.037 943.729 659.69C938.956 656.093 934.183 652.49 929.411 648.893H929.405ZM929.496 426.08C929.031 426.053 928.561 426.027 928.096 426C927.609 428.934 927.011 431.858 926.722 434.813C926.663 435.433 927.636 436.481 928.342 436.727C928.785 436.882 930.196 435.887 930.186 435.433C930.1 432.312 929.758 429.196 929.496 426.08ZM932.815 474.177C932.323 468.885 931.826 463.599 931.335 458.308C929.063 463.845 929.223 469.158 932.815 474.177ZM915.766 489.12C916.835 486.737 912.393 474.251 909.315 470.852C911.522 477.105 913.596 482.979 915.766 489.12ZM927.412 413.627C927.048 413.595 926.679 413.563 926.316 413.531C925.696 415.578 924.991 417.603 924.509 419.682C924.317 420.516 924.429 421.542 924.761 422.328C924.91 422.681 926.236 422.991 926.519 422.745C927.251 422.098 928.165 421.131 928.165 420.297C928.155 418.074 927.695 415.856 927.417 413.632L927.412 413.627ZM836.964 506.517C838.343 510.894 845.617 517.303 849.102 517.185C845.04 513.615 841.053 510.109 836.964 506.517ZM793.255 506.426C792.662 505.395 792.315 504.791 791.657 503.658C793.287 504.775 794.399 505.534 795.789 506.49C795.196 504.021 791.406 500.547 788.745 499.676C788.344 503.139 789.429 504.887 793.25 506.432L793.255 506.426ZM933.072 458.191C932.494 463.145 933.35 468.474 934.937 470.494C936.027 466.293 936.033 462.445 933.072 458.191ZM817.018 447.288C817.424 446.951 817.825 446.62 818.231 446.283L808.771 434.888C808.45 435.145 808.135 435.406 807.814 435.663C810.882 439.538 813.95 443.413 817.018 447.288ZM893.997 498.698C893.698 492.386 888.796 488.249 886.755 482.744C886.456 482.888 886.162 483.027 885.862 483.172C888.572 488.345 891.282 493.524 893.997 498.698ZM833.709 468.629C833.918 468.463 834.131 468.297 834.34 468.132C830.727 463.616 827.119 459.094 823.506 454.578C823.308 454.733 823.116 454.888 822.918 455.037C827.119 459.094 828.343 465.486 833.704 468.629H833.709ZM795.179 515.191C798.616 519.392 801.673 520.713 803.357 518.521C800.685 517.324 799.241 513.471 795.179 515.191ZM811.401 530.776C815.372 534.673 819.348 538.564 823.319 542.46L824.003 541.76C820.914 536.971 815.692 534.341 811.401 530.776ZM804.811 509.879C803.458 505.427 799.493 503.946 796.526 501.333C796.259 501.643 795.992 501.947 795.725 502.257C798.755 504.796 801.78 507.34 804.811 509.879ZM928.791 418.106C929.122 418.1 929.453 418.09 929.785 418.084C930.747 414.781 929.977 411.612 928.881 408.464C928.539 408.491 928.203 408.517 927.861 408.544C928.171 411.73 928.481 414.915 928.791 418.106ZM778.467 507.837C778.285 508.169 778.098 508.5 777.916 508.837C780.866 510.472 783.817 512.113 786.762 513.748C786.911 513.476 787.061 513.203 787.211 512.931C784.191 511.418 782.395 507.746 778.467 507.837ZM767.489 500.878C769.071 501.413 770.653 501.942 772.24 502.477C772.315 502.252 772.395 502.033 772.47 501.808C770.984 500.996 769.969 498.826 767.494 500.873L767.489 500.878ZM909.459 478.222C909.614 478.153 909.769 478.084 909.924 478.014C909.112 475.716 908.299 473.418 907.492 471.119C907.332 471.173 907.171 471.232 907.016 471.285C907.834 473.594 908.647 475.908 909.464 478.217L909.459 478.222Z" fill="#51160F"/>
</svg>
