<svg width="764" height="415" viewBox="0 0 764 415" fill="none" xmlns="http://www.w3.org/2000/svg">
<path d="M654.249 55.3235L654.477 43.0946L649.761 30.7699L640.75 16.8313L633.699 10.9573L643.645 4.52718L657.125 0.203556L670.428 1.48567L683.53 11.6802L692.04 24.8435L694.18 41.5756L694.522 46.2957L707.528 37.8873L722.55 30.9176L735.368 29.7705L746.641 31.265L758.517 36.2118L763.474 38.4981L756.73 52.7406L746.743 64.1384L732.972 73.042L717.964 78.3534L707.941 78.7929L714.317 89.4945L716.999 102.034L715.371 114.618L708.577 123.403L696.337 131.316L688.466 132.563L684.671 131.724L685.017 120.518L680.184 107.171L671.514 97.9522L660.889 94.9394L654.308 93.153L199.358 309.026L191.674 334.056L183.105 357.162C177.21 367.063 162.713 388.22 135.334 401.919C125.559 406.812 95.7031 421.173 58.9406 411.081C28.331 402.682 10.4265 382.133 4.09239 374.073C1.52087 363.45 -3.59407 335.887 9.23348 306.513C32.2318 253.85 91.4526 244.5 95.9333 243.87C104.137 243.692 112.337 243.511 120.54 243.334L144.574 250.303L161.753 258.412L175.708 272.446L182.508 277.932L492.323 135.004L654.243 55.2961L654.249 55.3235Z" fill="#E36557" fill-opacity="0.5"/>
</svg>
