<svg width="607" height="358" viewBox="0 0 607 358" fill="none" xmlns="http://www.w3.org/2000/svg">
<g clip-path="url(#clip0_149_25)">
<path d="M602.684 3.78046L587.576 0H573.008L553.584 8.64019L516.895 31.3189L508.261 35.638L474.269 49.1379L414.919 70.7374L377.149 91.2556L343.698 111.774L297.835 143.093L277.87 156.593L255.209 169.552L229.31 176.032L177.513 179.98L153.773 176.032H128.415L107.372 179.98L82.552 185.751L62.0496 194.391L38.848 207.891L23.2016 222.47L5.93646 250.549L0 280.785L8.09333 301.303L18.3456 320.742L29.6762 333.161L49.6405 346.661L70.1429 354.76L86.3296 358H110.61L132.192 352.061L146.76 344.502L163.487 333.703L181.293 319.665L189.926 311.565L212.588 277.007L235.789 243.529L261.688 217.07L284.349 200.871L311.326 186.832L389.562 150.654L421.936 134.455L441.9 124.735L475.892 106.375L519.596 78.2963L533.086 73.9772L581.646 48.5993L597.292 38.3392L603.767 24.8393L607.004 12.9593L602.688 3.78046H602.684ZM174.456 257.205L178.772 259.546L183.808 263.685L187.943 265.485L193.52 265.845L192.621 267.196L187.945 270.705H182.191L177.875 269.265L170.322 264.766L161.689 263.687L169.242 258.106L174.458 257.207L174.456 257.205ZM159.708 260.265L154.852 257.205L146.218 254.864L136.506 254.684L126.074 254.324L118.521 251.983L115.328 249.104L119.419 248.205L123.915 245.864L135.246 241.364L142.53 242.264L150.534 245.143L157.189 249.822L161.685 256.663V262.602L159.706 260.261L159.708 260.265ZM55.2147 248.745H63.6682L71.0413 246.046L76.7956 243.347L89.925 234.168L107.91 220.31L122.478 216.171H134.707L144.96 220.31L153.773 226.609L161.687 237.408L162.585 247.488L156.29 241.369L145.5 235.43L137.407 232.55L126.616 232.73L117.264 233.81L104.675 237.59L89.0287 245.69L72.4819 251.989L64.5686 253.068L55.5769 251.989L49.4624 247.31L55.2168 248.749L55.2147 248.745ZM101.258 289.063L107.732 295.723L118.703 300.402L124.997 298.602L121.04 303.822L113.845 305.262L106.021 303.462L99.635 299.143L94.779 293.384L93.1603 287.265V279.886L95.8574 274.127V278.987L101.254 289.067L101.258 289.063ZM215.285 237.963C215.285 238.07 215.262 238.177 215.222 238.277L205.071 262.334C205.047 262.393 205.014 262.45 204.976 262.502L187.808 285.59C187.782 285.624 187.753 285.657 187.723 285.687L170.031 302.856C169.986 302.899 169.938 302.937 169.885 302.97L145.737 317.47C145.702 317.49 145.666 317.508 145.629 317.525L127.363 325.051C127.349 325.057 127.332 325.063 127.318 325.067L108.558 331.504C108.491 331.527 108.422 331.541 108.352 331.547L84.5207 333.155C84.4721 333.159 84.4236 333.157 84.375 333.151L70.1732 331.541C70.1571 331.541 70.1409 331.537 70.1247 331.535L54.8546 328.854C54.8 328.844 54.7453 328.829 54.6927 328.807L34.0669 320.497C34.0203 320.479 33.9758 320.455 33.9333 320.428L21.4069 312.426C21.3482 312.387 21.2936 312.343 21.247 312.29L18.4528 309.241C17.8438 308.577 18.6167 307.566 19.4179 307.979L30.4916 313.718L44.1815 320.702C44.228 320.726 44.2766 320.744 44.3252 320.758L63.045 326.11C63.1057 326.126 63.1664 326.136 63.2292 326.14L86.5724 327.214C86.5946 327.214 86.6189 327.214 86.6412 327.214L107.279 326.41C107.346 326.408 107.413 326.396 107.477 326.377L128.134 320.252C128.668 320.094 128.884 319.452 128.555 319.003L126.472 316.162C126.339 315.98 126.288 315.751 126.331 315.53L129.194 300.943C129.218 300.821 129.269 300.706 129.346 300.607L135.347 292.772C135.406 292.695 135.478 292.631 135.559 292.58C136.334 292.096 135.832 290.899 134.944 291.112L126.325 293.181C126.282 293.191 126.242 293.198 126.199 293.202L119.537 293.714C119.35 293.728 119.166 293.677 119.012 293.57L114.013 290.067C113.908 289.994 113.823 289.897 113.762 289.784L110.735 284.063C110.656 283.915 110.626 283.747 110.648 283.581L111.486 277.217C111.504 277.073 111.563 276.936 111.652 276.822L117.537 269.375C117.598 269.298 117.673 269.233 117.758 269.182L125.084 264.819C125.151 264.778 125.224 264.75 125.299 264.73L136.419 261.903C136.484 261.887 136.551 261.879 136.617 261.879H143.932C144.025 261.879 144.116 261.895 144.203 261.925L153.951 265.41C154.077 265.455 154.19 265.532 154.279 265.631L156.976 268.63C157.215 268.897 157.604 268.972 157.925 268.816L162.368 266.669C162.516 266.599 162.684 266.574 162.846 266.599L166.905 267.249C167.028 267.269 167.146 267.317 167.249 267.39L171.453 270.42C171.542 270.484 171.619 270.567 171.676 270.663L174.355 275.188C174.428 275.312 174.468 275.456 174.468 275.599V280.022C174.468 280.163 174.43 280.303 174.359 280.427L171.287 285.72C171.249 285.784 171.202 285.845 171.148 285.898L167.313 289.567C167.172 289.703 167.085 289.887 167.067 290.083C166.832 292.892 166.597 295.698 166.363 298.507L172.398 294.279L187.737 278.928C187.763 278.902 187.786 278.876 187.808 278.847L200.672 261.949C200.707 261.905 200.737 261.856 200.761 261.804L209.302 243.64C209.338 243.561 209.362 243.478 209.373 243.393L211.495 225.605C211.509 225.491 211.497 225.378 211.465 225.269L206.42 209.066C206.4 208.999 206.37 208.934 206.333 208.875L198.566 196.546L198.39 196.27C197.878 195.466 198.94 194.596 199.628 195.256L208.169 203.461C208.241 203.529 208.3 203.613 208.341 203.704L215.216 218.524C215.264 218.631 215.291 218.747 215.291 218.864V237.961L215.285 237.963Z" fill="#E8793E" fill-opacity="0.5"/>
</g>
<defs>
<clipPath id="clip0_149_25">
<rect width="607" height="358" fill="white"/>
</clipPath>
</defs>
</svg>
