<svg width="277" height="278" viewBox="0 0 277 278" fill="none" xmlns="http://www.w3.org/2000/svg">
<path d="M1.6805 162.298C1.6805 157.851 1.6805 153.404 1.6805 148.958C1.76637 148.976 1.85224 149.01 1.93811 149.01C3.97591 149.015 6.01371 149.017 8.0515 149.014C8.19093 149.014 8.33127 148.966 8.47716 148.94C8.62674 148.569 8.57319 148.21 8.57411 147.861C8.5778 144.155 8.57411 140.45 8.57965 136.745C8.57965 136.426 8.51409 136.095 8.66552 135.791C8.94529 135.611 9.24814 135.684 9.53622 135.683C11.1013 135.675 12.6672 135.682 14.2323 135.677C14.5195 135.677 14.8066 135.647 15.1335 135.629C15.2424 135.054 15.1833 134.523 15.1926 133.998C15.2027 133.464 15.1944 132.93 15.1944 132.398C15.1944 131.834 15.1852 131.271 15.1972 130.708C15.2083 130.183 15.1399 129.651 15.26 129.078C15.5841 129.063 15.8721 129.04 16.1602 129.04C17.7844 129.037 19.4094 129.042 21.0336 129.035C21.2884 129.034 21.5691 129.111 21.8406 128.835C21.8498 128.596 21.871 128.305 21.872 128.014C21.8757 126.413 21.872 124.812 21.8766 123.212C21.8766 122.954 21.9126 122.697 21.9338 122.412C22.1305 122.386 22.2727 122.353 22.4149 122.35C22.8285 122.341 23.2422 122.345 23.6549 122.345C27.1396 122.343 30.6252 122.343 34.1098 122.337C34.4256 122.337 34.7552 122.395 35.0812 122.226C35.1052 122.108 35.1467 121.996 35.1467 121.883C35.1504 119.956 35.1523 118.03 35.1449 116.102C35.1449 115.967 35.0747 115.832 35.0248 115.653C34.7054 115.647 34.4136 115.637 34.1209 115.637C32.5263 115.635 30.9308 115.64 29.3362 115.632C29.0795 115.631 28.8016 115.703 28.5412 115.479C28.4396 115.163 28.4867 114.807 28.4867 114.457C28.4839 106.365 28.4849 98.2722 28.4849 90.1796C28.4849 89.972 28.4729 89.7635 28.4904 89.5578C28.5043 89.391 28.5532 89.227 28.5966 89.0157C28.9262 89.0157 29.2198 89.0157 29.5135 89.0157C31.1081 89.0157 32.7036 89.0194 34.2982 89.0111C34.553 89.0102 34.8328 89.0889 35.0932 88.8498C35.2003 88.5394 35.155 88.1826 35.155 87.8324C35.1569 84.1266 35.1532 80.4218 35.155 76.7161C35.155 76.3973 35.1144 76.0711 35.2427 75.7023C35.6047 75.6921 35.9519 75.6726 36.299 75.6726C46.4889 75.6726 56.6779 75.6736 66.8678 75.6754C67.1633 75.6754 67.4588 75.6819 67.7533 75.6708C67.9232 75.6643 68.0913 75.6282 68.2639 75.605C68.4098 75.2214 68.3572 74.8637 68.3581 74.5152C68.3609 66.393 68.3599 58.2708 68.3618 50.1485C68.3618 49.7992 68.3803 49.4498 68.3913 49.043C68.7357 49.0245 69.022 48.9967 69.3091 48.9967C70.9333 48.9921 72.5583 48.9985 74.1825 48.9902C74.4373 48.9893 74.7171 49.0671 74.9969 48.8067C75.0079 48.5658 75.032 48.2748 75.0329 47.9848C75.0366 46.4141 75.0329 44.8424 75.0366 43.2717C75.0366 42.9826 75.0596 42.6935 75.0707 42.4294C75.4354 42.2274 75.7669 42.3006 76.0846 42.3006C79.8056 42.2941 83.5275 42.2978 87.2486 42.2923C87.5671 42.2923 87.8968 42.3571 88.2033 42.2014C88.3889 41.929 88.3206 41.6241 88.3215 41.3359C88.3279 39.7059 88.3215 38.075 88.3289 36.445C88.3298 36.1902 88.2504 35.9066 88.532 35.6536H89.459C92.9437 35.6536 96.4293 35.6536 99.9139 35.6536C100.298 35.6536 100.682 35.6629 101.065 35.6453C101.23 35.6379 101.391 35.5721 101.592 35.5239C101.6 35.1625 101.613 34.84 101.614 34.5166C101.616 32.9459 101.612 31.3743 101.618 29.8036C101.619 29.5469 101.552 29.2698 101.775 28.9927C102.034 28.9816 102.325 28.9584 102.615 28.9575C103.796 28.9529 104.977 28.9557 106.158 28.9557C108.728 28.9557 111.298 28.9575 113.867 28.9529C114.183 28.9529 114.512 29.0122 114.863 28.8259C114.877 28.5387 114.904 28.2486 114.905 27.9586C114.909 26.3582 114.905 24.7569 114.91 23.1566C114.91 22.8999 114.948 22.6441 114.972 22.3513C115.322 22.3374 115.612 22.317 115.901 22.3161C117.496 22.3124 119.092 22.318 120.686 22.3115C120.943 22.3105 121.221 22.3773 121.508 22.128C121.514 21.887 121.528 21.5951 121.529 21.3033C121.531 19.7029 121.528 18.1016 121.533 16.5013C121.533 16.2437 121.567 15.986 121.584 15.759C121.913 15.5542 122.216 15.6237 122.504 15.6228C123.981 15.6154 125.458 15.62 126.934 15.6191C129.268 15.6191 131.601 15.6191 133.934 15.6117C134.217 15.6107 134.527 15.696 134.819 15.4106C134.819 14.3838 134.808 13.3191 134.821 12.2534C134.835 11.1942 134.761 10.1323 134.869 9.03882C135.051 9.0138 135.192 8.97766 135.332 8.97673C137.193 8.97395 139.053 8.97302 140.914 8.97951C141.052 8.97951 141.191 9.03696 141.376 9.07866C141.387 9.42524 141.406 9.74772 141.407 10.0702C141.41 11.6112 141.404 13.1532 141.413 14.6943C141.415 14.9797 141.341 15.2864 141.57 15.5709C142.406 15.6626 143.261 15.6024 144.113 15.6126C144.998 15.6228 145.885 15.6154 146.771 15.6154H149.341C150.227 15.6154 151.113 15.6052 151.999 15.6181C152.85 15.6311 153.703 15.5561 154.529 15.6682C154.771 15.9944 154.695 16.3308 154.697 16.6467C154.705 18.1878 154.697 19.7298 154.705 21.2708C154.706 21.5905 154.64 21.9241 154.832 22.2494C155.343 22.3763 155.874 22.2976 156.4 22.3105C156.931 22.3235 157.463 22.3133 157.994 22.3133C158.556 22.3133 159.117 22.3059 159.678 22.3152C160.2 22.3244 160.729 22.2651 161.296 22.3726C161.312 22.7034 161.337 22.9935 161.337 23.2826C161.341 24.883 161.337 26.4842 161.341 28.0846C161.341 28.3422 161.377 28.6007 161.393 28.8361C161.76 29.0122 162.089 28.9501 162.407 28.951C165.272 28.9566 168.136 28.9538 171.001 28.9547C172.006 28.9547 173.01 28.9501 174.014 28.9603C174.206 28.9621 174.397 29.027 174.63 29.0696C174.63 29.4153 174.63 29.71 174.63 30.0047C174.63 31.605 174.626 33.2063 174.635 34.8066C174.636 35.0633 174.565 35.3432 174.822 35.6267C175.091 35.6342 175.41 35.6499 175.73 35.6508C179.451 35.6527 183.173 35.6508 186.894 35.6545C187.21 35.6545 187.536 35.6091 187.884 35.7435C187.897 36.0549 187.92 36.3458 187.921 36.6359C187.924 38.2362 187.919 39.8375 187.926 41.4379C187.927 41.6955 187.856 41.9735 188.095 42.2663C188.366 42.2746 188.684 42.2923 189.004 42.2923C192.725 42.2941 196.447 42.2923 200.168 42.2969C200.485 42.2969 200.815 42.2404 201.177 42.4081C201.189 42.6907 201.212 42.9798 201.213 43.269C201.217 44.899 201.211 46.5299 201.218 48.1599C201.219 48.4157 201.144 48.6974 201.409 48.9633C201.655 48.9717 201.946 48.9902 202.237 48.9902C203.861 48.993 205.486 48.9902 207.11 48.9939C207.337 48.9939 207.564 49.03 207.849 49.0541C207.856 49.4535 207.868 49.8038 207.868 50.155C207.869 58.1883 207.868 66.2216 207.869 74.2548C207.869 74.5514 207.859 74.8488 207.879 75.1435C207.89 75.3075 207.955 75.4678 208.006 75.6736C208.398 75.6736 208.75 75.6736 209.102 75.6736C217.135 75.6736 225.169 75.6736 233.202 75.6736C235.535 75.6736 237.868 75.6773 240.202 75.6875C240.484 75.6884 240.794 75.5957 241.078 75.8774C241.078 76.1415 241.078 76.4371 241.078 76.7318C241.081 80.3783 241.085 84.0238 241.089 87.6702C241.089 87.9371 241.078 88.2049 241.097 88.4699C241.11 88.6358 241.171 88.798 241.222 89.012C241.579 89.012 241.901 89.012 242.223 89.012C243.817 89.012 245.413 89.0092 247.007 89.0157C247.234 89.0157 247.485 88.9536 247.717 89.2316C247.724 89.5513 247.739 89.934 247.739 90.3168C247.74 98.3204 247.74 106.324 247.739 114.329C247.739 114.595 247.744 114.862 247.727 115.128C247.717 115.268 247.664 115.405 247.619 115.594C247.307 115.608 247.018 115.631 246.729 115.632C245.135 115.636 243.539 115.632 241.945 115.637C241.689 115.637 241.433 115.675 241.182 115.695C241.142 115.837 241.1 115.92 241.1 116.002C241.096 117.988 241.095 119.974 241.102 121.961C241.102 122.068 241.171 122.176 241.227 122.337C241.59 122.337 241.943 122.337 242.295 122.337C245.986 122.336 249.679 122.332 253.37 122.337C253.685 122.337 254.02 122.252 254.368 122.492C254.373 122.755 254.381 123.048 254.381 123.34C254.383 124.97 254.378 126.601 254.386 128.231C254.387 128.487 254.312 128.772 254.619 129.034C254.878 129.034 255.2 129.034 255.523 129.034C257.118 129.034 258.713 129.031 260.308 129.038C260.532 129.038 260.758 129.08 261.035 129.108C261.035 129.462 261.035 129.757 261.035 130.05C261.035 131.621 261.031 133.193 261.038 134.763C261.039 135.048 260.971 135.354 261.198 135.647C261.479 135.657 261.771 135.674 262.062 135.674C263.657 135.677 265.252 135.672 266.847 135.679C267.106 135.68 267.383 135.612 267.671 135.867V136.784C267.671 140.519 267.668 144.253 267.675 147.989C267.675 148.304 267.595 148.639 267.805 148.968C268.03 148.984 268.262 149.013 268.493 149.014C270.206 149.017 271.919 149.017 273.633 149.014C273.837 149.014 274.042 148.976 274.246 148.954V162.295C272.327 162.295 270.407 162.292 268.489 162.298C268.233 162.298 267.952 162.227 267.673 162.517C267.673 162.776 267.673 163.099 267.673 163.422C267.673 167.158 267.674 170.893 267.668 174.629C267.668 174.946 267.735 175.277 267.551 175.641C267.24 175.653 266.923 175.675 266.604 175.676C265.098 175.679 263.591 175.676 262.085 175.679C261.797 175.679 261.508 175.708 261.234 175.723C261.034 176.08 261.093 176.411 261.091 176.729C261.085 178.3 261.091 179.872 261.084 181.443C261.082 181.729 261.166 182.044 260.833 182.337H260.022C258.427 182.337 256.832 182.334 255.237 182.339C254.981 182.339 254.726 182.378 254.425 182.403C254.409 182.75 254.383 183.039 254.382 183.329C254.378 184.959 254.382 186.59 254.377 188.22C254.377 188.447 254.336 188.675 254.31 188.949C253.942 188.959 253.621 188.975 253.302 188.975C249.58 188.977 245.859 188.975 242.137 188.979C241.82 188.979 241.491 188.926 241.162 189.076C241.044 189.462 241.088 189.847 241.088 190.226C241.086 200.484 241.087 210.741 241.087 220.998C241.087 221.265 241.095 221.532 241.082 221.799C241.074 221.966 241.031 222.13 240.997 222.328C240.655 222.34 240.363 222.358 240.072 222.358C238.478 222.361 236.882 222.356 235.288 222.363C235.033 222.364 234.755 222.287 234.48 222.543C234.47 222.819 234.452 223.141 234.451 223.464C234.447 224.947 234.451 226.428 234.449 227.911C234.446 230.164 234.445 232.417 234.435 234.67C234.434 234.986 234.496 235.32 234.264 235.663C233.961 235.673 233.641 235.691 233.321 235.692C229.599 235.696 225.878 235.695 222.156 235.705C221.844 235.705 221.503 235.603 221.165 235.898C221.165 236.178 221.165 236.501 221.165 236.826C221.165 238.338 221.168 239.849 221.161 241.362C221.16 241.675 221.208 242.004 221.013 242.335C210.129 242.335 199.263 242.336 188.396 242.333C188.286 242.333 188.176 242.288 188.022 242.255C188.008 241.941 187.985 241.651 187.984 241.361C187.981 239.759 187.984 238.159 187.98 236.558C187.98 236.301 187.943 236.043 187.919 235.743C187.573 235.727 187.283 235.704 186.994 235.703C185.4 235.7 183.804 235.704 182.21 235.698C181.952 235.697 181.676 235.764 181.385 235.532C181.379 235.255 181.366 234.932 181.365 234.611C181.362 233.01 181.367 231.409 181.36 229.808C181.359 229.551 181.426 229.268 181.115 229.002C180.863 229.002 180.54 229.002 180.218 229.002C178.623 229.002 177.028 229.004 175.433 228.998C175.209 228.998 174.984 228.953 174.79 228.932C174.746 228.813 174.709 228.759 174.709 228.705C174.701 222.45 174.696 216.195 174.692 209.941C174.692 209.734 174.707 209.527 174.718 209.32C174.72 209.292 174.733 209.264 174.746 209.24C174.761 209.215 174.783 209.193 174.852 209.113C175.089 209.103 175.378 209.082 175.667 209.081C177.291 209.077 178.916 209.083 180.54 209.076C180.795 209.075 181.077 209.153 181.342 208.862C181.348 208.596 181.363 208.274 181.364 207.952C181.367 206.38 181.362 204.809 181.368 203.238C181.368 202.981 181.405 202.724 181.429 202.423C181.777 202.407 182.066 202.383 182.356 202.382C183.95 202.379 185.546 202.384 187.14 202.377C187.396 202.376 187.672 202.442 187.946 202.219C187.957 201.959 187.98 201.668 187.98 201.377C187.983 199.747 187.98 198.116 187.984 196.486C187.984 196.259 188.027 196.032 188.054 195.757C188.428 195.75 188.749 195.739 189.07 195.739C192.792 195.738 196.513 195.74 200.235 195.734C200.551 195.734 200.882 195.804 201.201 195.625C201.224 195.505 201.265 195.392 201.265 195.28C201.266 193.294 201.265 191.309 201.257 189.322C201.257 189.241 201.201 189.162 201.149 189.023C200.873 189.008 200.585 188.98 200.297 188.98C198.673 188.975 197.048 188.98 195.424 188.975C195.196 188.975 194.969 188.939 194.696 188.915C194.681 188.577 194.657 188.287 194.656 187.998C194.653 186.396 194.656 184.796 194.651 183.195C194.65 182.935 194.71 182.658 194.518 182.417C194.184 182.279 193.825 182.34 193.476 182.34C187.657 182.337 181.839 182.338 176.021 182.338C175.755 182.338 175.489 182.331 175.223 182.342C175.054 182.35 174.887 182.385 174.674 182.414C174.658 182.747 174.631 183.037 174.63 183.328C174.625 184.959 174.63 186.589 174.625 188.219C174.625 188.447 174.585 188.674 174.559 188.95C174.191 188.96 173.872 188.977 173.553 188.978C169.831 188.98 166.11 188.978 162.388 188.982C162.071 188.982 161.743 188.931 161.38 189.09C161.365 189.381 161.338 189.67 161.337 189.959C161.332 191.619 161.337 193.28 161.331 194.939C161.331 195.164 161.283 195.388 161.254 195.646C160.904 195.658 160.613 195.676 160.321 195.677C158.727 195.68 157.131 195.675 155.536 195.682C155.282 195.683 155.005 195.609 154.726 195.859C154.717 196.137 154.7 196.458 154.699 196.781C154.696 198.352 154.701 199.923 154.694 201.495C154.693 201.751 154.762 202.028 154.525 202.32C154.274 202.32 153.983 202.32 153.693 202.32C152.098 202.32 150.502 202.317 148.908 202.323C148.651 202.323 148.395 202.361 148.087 202.385C148.07 202.733 148.045 203.022 148.045 203.311C148.041 204.97 148.045 206.631 148.039 208.291C148.039 208.516 148.11 208.769 147.852 208.994C147.603 209.001 147.311 209.017 147.02 209.018C145.395 209.021 143.77 209.016 142.146 209.024C141.923 209.025 141.7 209.074 141.433 209.105C141.422 209.544 141.406 209.925 141.406 210.307C141.404 216.058 141.405 221.809 141.404 227.561C141.404 227.857 141.412 228.155 141.395 228.449C141.385 228.615 141.328 228.778 141.289 228.96C140.18 229.042 139.119 229.001 138.061 228.995C137.008 228.99 135.951 229.066 134.85 228.933C134.837 228.567 134.816 228.247 134.816 227.928C134.813 225.289 134.814 222.651 134.814 220.012C134.814 216.692 134.816 213.372 134.81 210.051C134.81 209.735 134.872 209.405 134.7 209.057C134.404 209.044 134.115 209.021 133.825 209.021C132.231 209.017 130.635 209.022 129.04 209.015C128.783 209.014 128.507 209.081 128.213 208.848C128.208 208.602 128.197 208.309 128.197 208.017C128.195 206.387 128.198 204.756 128.192 203.126C128.191 202.87 128.257 202.586 127.946 202.32C127.694 202.32 127.372 202.32 127.05 202.32C125.455 202.32 123.86 202.323 122.265 202.316C122.041 202.316 121.815 202.271 121.557 202.243C121.544 201.896 121.525 201.604 121.524 201.312C121.521 199.711 121.525 198.11 121.518 196.51C121.517 196.253 121.587 195.975 121.342 195.7C121.062 195.694 120.742 195.681 120.421 195.68C118.827 195.678 117.231 195.681 115.636 195.675C115.409 195.675 115.16 195.735 114.92 195.48C114.915 195.241 114.905 194.947 114.905 194.653C114.903 193.052 114.907 191.451 114.901 189.85C114.901 189.592 114.862 189.335 114.841 189.078C114.47 188.936 114.144 188.98 113.826 188.98C110.104 188.977 106.383 188.98 102.661 188.976C102.343 188.976 102.027 188.952 101.66 188.937C101.641 188.589 101.615 188.301 101.614 188.012C101.609 186.44 101.615 184.869 101.608 183.298C101.607 183.008 101.675 182.704 101.497 182.44C100.84 182.309 90.4996 182.254 82.4611 182.339C82.2035 182.342 81.9459 182.375 81.6356 182.398C81.6181 182.735 81.5895 183.024 81.5895 183.313C81.5848 184.943 81.5895 186.574 81.5849 188.204C81.5849 188.433 81.5525 188.661 81.5313 188.936C81.1943 188.951 80.9053 188.975 80.6172 188.976C79.0226 188.98 77.4271 188.976 75.8325 188.981C75.5749 188.981 75.3173 189.011 75.0495 189.028C75.0126 189.193 74.9655 189.305 74.9655 189.418C74.9618 191.374 74.9618 193.331 74.9692 195.288C74.9692 195.421 75.0366 195.555 75.0855 195.738C76.2147 195.738 77.3043 195.738 78.3947 195.738C79.4584 195.738 80.5212 195.738 81.5849 195.738C82.6781 195.738 83.7704 195.734 84.8636 195.739C85.9522 195.744 87.0427 195.718 88.0999 195.758C88.3086 196.113 88.2449 196.448 88.2467 196.769C88.2532 198.369 88.2467 199.97 88.2541 201.57C88.255 201.825 88.1848 202.107 88.4729 202.379C88.7361 202.379 89.0574 202.379 89.3796 202.379C90.9742 202.379 92.5697 202.377 94.1643 202.381C94.3924 202.381 94.6417 202.326 94.8799 202.596C94.8799 202.83 94.8799 203.124 94.8799 203.418C94.8799 205.02 94.8762 206.62 94.8836 208.221C94.8845 208.478 94.8134 208.757 95.0517 209.041C95.2982 209.052 95.5881 209.076 95.8771 209.077C97.5013 209.081 99.1263 209.077 100.75 209.081C100.979 209.081 101.208 209.105 101.439 209.119C101.586 209.481 101.532 209.81 101.532 210.129C101.535 215.969 101.534 221.809 101.533 227.65C101.533 227.917 101.542 228.184 101.523 228.449C101.512 228.615 101.458 228.778 101.416 228.968C101.075 228.98 100.784 228.999 100.493 229C98.8983 229.003 97.3028 228.998 95.7082 229.004C95.4515 229.005 95.1717 228.932 94.8975 229.206C94.8919 229.444 94.8799 229.737 94.8799 230.028C94.8781 231.63 94.8809 233.23 94.8762 234.831C94.8762 235.089 94.843 235.348 94.8217 235.655C94.4829 235.672 94.1948 235.698 93.9058 235.699C92.3408 235.702 90.7748 235.698 89.2097 235.703C88.9198 235.704 88.6188 235.644 88.3427 235.799C88.1867 236.109 88.2449 236.441 88.2439 236.763C88.2365 238.274 88.2439 239.786 88.2375 241.299C88.2365 241.616 88.2846 241.946 88.1248 242.274C87.7721 242.38 87.4175 242.339 87.0695 242.339C76.7909 242.341 66.5124 242.341 56.2338 242.341C56.027 242.341 55.8192 242.351 55.6143 242.335C55.4481 242.323 55.2846 242.279 55.0667 242.239C55.0667 241.901 55.0667 241.608 55.0667 241.316C55.0667 239.686 55.0686 238.055 55.063 236.425C55.063 236.197 55.124 235.946 54.8488 235.701C54.6226 235.701 54.3299 235.701 54.0372 235.701C52.5312 235.701 51.0244 235.701 49.5184 235.701C47.2442 235.701 44.9701 235.701 42.6959 235.693C42.4106 235.692 42.1013 235.779 41.8049 235.503C41.7975 235.252 41.7827 234.959 41.7818 234.666C41.779 233.362 41.7818 232.058 41.7809 230.753C41.7799 228.293 41.7809 225.832 41.7716 223.371C41.7707 223.057 41.8538 222.722 41.6267 222.383C41.3174 222.375 40.997 222.362 40.6766 222.362C39.082 222.36 37.4864 222.363 35.8918 222.358C35.6638 222.358 35.4154 222.418 35.168 222.16C35.1643 221.838 35.1578 221.455 35.1578 221.072C35.1578 210.904 35.1578 200.736 35.1578 190.567C35.1578 190.241 35.1643 189.915 35.1523 189.589C35.1458 189.418 35.1061 189.25 35.0802 189.074C34.698 188.929 34.3416 188.981 33.9944 188.981C28.1756 188.978 22.3576 188.979 16.5388 188.98C16.2729 188.98 16.0069 188.989 15.7419 188.974C15.5757 188.965 15.4123 188.919 15.1926 188.879C15.1926 188.541 15.1926 188.248 15.1926 187.956C15.1926 186.355 15.1963 184.754 15.1879 183.153C15.187 182.897 15.2609 182.616 14.9885 182.336C13.983 182.336 12.9221 182.347 11.8621 182.333C10.8058 182.318 9.74674 182.398 8.64705 182.279C8.6212 182.015 8.58242 181.787 8.57965 181.559C8.5224 176.938 8.68029 172.315 8.46516 167.693C8.3996 166.274 8.45962 164.848 8.45131 163.425C8.44946 163.109 8.5224 162.772 8.31004 162.498C7.99149 162.312 7.65909 162.378 7.33961 162.376C5.77456 162.37 4.20859 162.377 2.64354 162.37C2.3213 162.368 1.99998 162.322 1.67773 162.297L1.6805 162.298ZM94.8836 122.29C95.2788 122.311 95.5669 122.337 95.855 122.338C97.42 122.341 98.9851 122.336 100.55 122.343C100.839 122.344 101.142 122.277 101.413 122.449C101.602 122.75 101.533 123.085 101.533 123.403C101.541 124.974 101.533 126.546 101.541 128.116C101.542 128.405 101.477 128.711 101.711 129.013C101.974 129.021 102.267 129.036 102.558 129.037C104.183 129.039 105.808 129.036 107.432 129.041C107.657 129.041 107.882 129.085 108.135 129.112C108.15 129.368 108.17 129.571 108.172 129.774C108.177 130.338 108.174 130.901 108.174 131.464C108.174 134.754 108.174 138.045 108.179 141.334C108.179 141.651 108.128 141.981 108.29 142.335C109 142.416 109.704 142.368 110.406 142.375C111.144 142.383 111.882 142.368 112.621 142.38C113.323 142.392 114.029 142.318 114.729 142.438C114.877 142.775 114.833 143.105 114.834 143.427C114.839 144.968 114.834 146.51 114.839 148.051C114.839 148.339 114.869 148.627 114.889 148.969C115.229 148.988 115.516 149.016 115.804 149.017C117.37 149.022 118.936 149.017 120.501 149.022C120.789 149.022 121.078 149.049 121.423 149.066C121.44 149.409 121.464 149.698 121.465 149.986C121.468 151.616 121.463 153.247 121.47 154.877C121.471 155.133 121.4 155.413 121.652 155.686C121.899 155.695 122.189 155.715 122.48 155.715C124.104 155.718 125.729 155.715 127.354 155.719C127.582 155.719 127.81 155.751 128.087 155.773C128.099 156.111 128.118 156.401 128.119 156.692C128.122 158.233 128.116 159.775 128.125 161.316C128.126 161.635 128.057 161.968 128.23 162.269C128.516 162.41 128.816 162.356 129.107 162.357C130.672 162.362 132.238 162.356 133.803 162.363C134.091 162.364 134.394 162.293 134.723 162.502C134.734 162.758 134.756 163.047 134.757 163.336C134.761 164.966 134.755 166.597 134.762 168.227C134.763 168.483 134.688 168.765 134.938 169.012C135.052 169.024 135.196 169.053 135.34 169.053C137.201 169.056 139.061 169.057 140.922 169.05C141.087 169.05 141.252 168.989 141.457 168.948C141.47 168.615 141.491 168.323 141.492 168.032C141.495 166.461 141.49 164.889 141.496 163.319C141.497 163.03 141.429 162.727 141.637 162.398C141.893 162.386 142.182 162.362 142.471 162.361C144.066 162.358 145.661 162.361 147.256 162.357C147.513 162.357 147.768 162.32 148.069 162.296C148.085 161.953 148.11 161.663 148.11 161.372C148.114 159.742 148.11 158.111 148.115 156.481C148.115 156.253 148.153 156.024 148.179 155.75C148.516 155.738 148.806 155.718 149.096 155.717C150.72 155.714 152.345 155.719 153.97 155.712C154.223 155.711 154.507 155.79 154.765 155.494C154.77 155.227 154.783 154.904 154.784 154.582C154.786 153.011 154.782 151.44 154.789 149.869C154.789 149.612 154.723 149.336 154.944 149.055C155.202 149.044 155.492 149.02 155.782 149.019C157.377 149.016 158.972 149.021 160.567 149.014C160.823 149.013 161.099 149.08 161.365 148.86C161.377 148.715 161.4 148.542 161.402 148.369C161.408 147.865 161.405 147.361 161.405 146.857C161.406 143.478 161.405 140.098 161.412 136.72C161.412 136.404 161.353 136.074 161.532 135.722C161.828 135.709 162.117 135.685 162.406 135.684C163.971 135.681 165.537 135.686 167.102 135.68C167.39 135.679 167.692 135.747 167.965 135.573C168.141 135.304 168.073 134.999 168.073 134.71C168.081 133.139 168.074 131.567 168.079 129.997C168.079 129.708 168.108 129.42 168.125 129.082C168.466 129.065 168.754 129.039 169.042 129.039C170.637 129.036 172.232 129.039 173.827 129.035C174.083 129.035 174.341 128.999 174.652 128.975C174.668 128.631 174.693 128.342 174.693 128.052C174.697 126.393 174.693 124.732 174.698 123.073C174.698 122.846 174.632 122.593 174.91 122.364C175.143 122.357 175.435 122.341 175.726 122.34C177.321 122.338 178.916 122.343 180.511 122.336C180.767 122.335 181.044 122.407 181.314 122.172C181.401 121.865 181.366 121.509 181.366 121.159C181.368 108.59 181.368 96.0213 181.368 83.452C181.368 83.2444 181.379 83.0359 181.36 82.8302C181.345 82.6616 181.296 82.4957 181.259 82.3187C180.517 82.201 179.81 82.2687 179.106 82.2575C178.369 82.2464 177.63 82.2612 176.891 82.2529C176.191 82.2446 175.487 82.2946 174.739 82.2075C174.722 81.8637 174.697 81.5737 174.697 81.2845C174.693 79.6842 174.697 78.0829 174.692 76.4825C174.692 76.2249 174.657 75.9664 174.635 75.6689C174.356 75.6485 174.127 75.618 173.897 75.617C172.892 75.6115 171.889 75.6143 170.884 75.6143C165.893 75.6143 160.901 75.6161 155.91 75.6106C155.564 75.6106 155.206 75.6782 154.812 75.491C154.802 75.1797 154.786 74.859 154.785 74.5384C154.783 70.8327 154.785 67.1278 154.781 63.4221C154.781 63.0737 154.838 62.7141 154.691 62.3713C154.397 62.2304 154.099 62.2767 153.81 62.2767C152.186 62.273 150.561 62.2777 148.936 62.2712C148.68 62.2703 148.4 62.3416 148.12 62.0636C148.117 61.5938 148.114 61.0637 148.112 60.5337C148.11 59.9999 148.112 59.4662 148.112 58.9333C148.112 58.3699 148.123 57.8065 148.109 57.244C148.096 56.7205 148.178 56.1876 148.035 55.6483C147.655 55.539 147.3 55.576 146.952 55.576C141.075 55.5742 135.197 55.5742 129.32 55.5742C129.113 55.5742 128.907 55.5658 128.7 55.5788C128.534 55.589 128.369 55.6251 128.159 55.6576C128.145 56.0292 128.123 56.3507 128.122 56.6723C128.118 58.1837 128.125 59.696 128.116 61.2074C128.114 61.5271 128.183 61.8616 127.999 62.1665C127.731 62.3416 127.427 62.2712 127.139 62.2721C125.515 62.2786 123.89 62.2721 122.266 62.2795C122.012 62.2805 121.73 62.2054 121.466 62.5047C121.466 62.7382 121.466 63.032 121.466 63.3257C121.466 64.9261 121.466 66.5274 121.466 68.1277C121.466 70.3211 121.469 72.5146 121.463 74.7089C121.463 74.9925 121.548 75.3001 121.299 75.5985C120.967 75.6041 120.616 75.6152 120.265 75.6152C114.477 75.6161 108.687 75.6152 102.899 75.6152C102.633 75.6152 102.367 75.6059 102.102 75.6207C101.937 75.63 101.774 75.6791 101.569 75.718C101.558 76.0832 101.542 76.4056 101.541 76.729C101.538 78.2701 101.543 79.8121 101.536 81.3531C101.535 81.6385 101.599 81.9453 101.363 82.226C101.078 82.2353 100.786 82.2538 100.495 82.2538C98.9001 82.2566 97.3046 82.252 95.71 82.2594C95.4542 82.2603 95.1745 82.1908 94.9012 82.4595C94.8966 82.7607 94.8855 83.1128 94.8855 83.465C94.8845 87.1707 94.8873 90.8755 94.8818 94.5813C94.8818 94.8963 94.9556 95.229 94.7645 95.5682C94.4709 95.5784 94.181 95.596 93.8901 95.596C92.2955 95.5988 90.7 95.5941 89.1054 95.6006C88.8496 95.6015 88.5754 95.5339 88.2836 95.7609C88.2042 97.6717 88.2633 99.6233 88.2522 101.574C88.2513 101.805 88.2956 102.035 88.3206 102.283C89.0638 102.416 89.7702 102.339 90.4719 102.352C91.2097 102.365 91.9483 102.35 92.687 102.357C93.3878 102.364 94.0914 102.319 94.8845 102.404C94.8864 109.026 94.8845 115.595 94.8855 122.29H94.8836ZM61.6695 142.369C61.6695 142.793 61.6695 143.116 61.6695 143.44C61.6695 144.981 61.6732 146.522 61.6658 148.064C61.6649 148.349 61.7332 148.656 61.47 148.958C61.2143 148.958 60.9216 148.958 60.6289 148.958C59.0343 148.958 57.4397 148.954 55.8451 148.962C55.5884 148.963 55.3096 148.89 55.0372 149.147C55.0289 149.393 55.0095 149.685 55.0095 149.976C55.0067 151.666 55.0076 153.355 55.0076 155.044C55.0076 157.179 55.0048 159.313 55.0113 161.447C55.0113 161.733 54.9301 162.042 55.1858 162.344C55.473 162.349 55.7952 162.361 56.1175 162.361C57.6825 162.363 59.2476 162.359 60.8126 162.366C61.0675 162.367 61.3482 162.29 61.6279 162.578C61.6381 162.834 61.6602 163.156 61.6612 163.476C61.6649 164.988 61.6593 166.5 61.6667 168.011C61.6685 168.331 61.6039 168.665 61.7987 169.007C62.1505 169.095 62.5337 169.058 62.9123 169.058C79.8037 169.06 96.6952 169.059 113.587 169.063C113.967 169.063 114.354 169.005 114.722 169.132C114.885 169.448 114.832 169.779 114.833 170.102C114.839 171.643 114.833 173.184 114.836 174.726C114.836 175.016 114.859 175.306 114.871 175.588C115.007 175.635 115.087 175.688 115.167 175.688C117.176 175.692 119.183 175.692 121.191 175.688C121.272 175.688 121.352 175.637 121.485 175.591C121.5 175.395 121.525 175.195 121.526 174.995C121.532 174.224 121.529 173.454 121.529 172.683C121.529 169.571 121.529 166.458 121.525 163.346C121.525 163.03 121.577 162.7 121.413 162.347C121.119 162.332 120.83 162.304 120.542 162.304C118.948 162.299 117.353 162.304 115.758 162.299C115.503 162.299 115.247 162.263 114.949 162.241C114.936 161.892 114.913 161.602 114.913 161.311C114.909 159.71 114.913 158.11 114.907 156.509C114.906 156.249 114.967 155.971 114.722 155.681C114.455 155.675 114.133 155.661 113.812 155.661C110.091 155.659 106.37 155.662 102.65 155.655C102.334 155.655 102.001 155.738 101.641 155.511C101.634 155.25 101.62 154.959 101.619 154.667C101.617 153.037 101.621 151.407 101.615 149.776C101.614 149.518 101.677 149.237 101.383 148.959C101.159 148.959 100.866 148.959 100.573 148.959C99.5104 148.959 98.4468 148.959 97.384 148.959C94.6971 148.959 92.0093 148.963 89.3224 148.954C89.0103 148.953 88.6742 149.045 88.327 148.793C88.327 148.496 88.327 148.173 88.327 147.851C88.327 146.28 88.3307 144.709 88.3233 143.138C88.3224 142.882 88.3954 142.6 88.1728 142.389C87.2477 142.267 68.1633 142.215 62.3961 142.319C62.1958 142.323 61.9954 142.346 61.6704 142.369L61.6695 142.369ZM187.925 142.394C187.925 142.8 187.925 143.123 187.925 143.444C187.925 145.045 187.927 146.645 187.922 148.245C187.922 148.473 187.982 148.724 187.72 148.958C187.451 148.958 187.127 148.958 186.804 148.958C183.97 148.958 181.135 148.958 178.299 148.958C177.296 148.958 176.291 148.953 175.287 148.964C175.092 148.965 174.897 149.024 174.653 149.064C174.646 149.636 174.637 150.166 174.634 150.695C174.63 151.228 174.634 151.761 174.634 152.295C174.634 152.858 174.643 153.422 174.631 153.984C174.62 154.509 174.691 155.04 174.573 155.575C174.222 155.695 173.896 155.656 173.577 155.656C170.241 155.659 166.904 155.658 163.567 155.658C163.005 155.658 162.445 155.651 161.883 155.665C161.719 155.669 161.557 155.733 161.341 155.78C161.341 156.143 161.341 156.465 161.341 156.787C161.341 158.388 161.343 159.988 161.338 161.589C161.338 161.816 161.399 162.068 161.132 162.301H158.004C157.472 162.301 156.94 162.293 156.409 162.304C155.885 162.315 155.355 162.248 154.8 162.366C154.768 162.6 154.723 162.798 154.717 162.998C154.596 167.115 154.656 174.831 154.822 175.666C155.329 175.731 155.859 175.696 156.385 175.701C156.946 175.706 157.507 175.702 158.068 175.702C158.6 175.702 159.131 175.709 159.663 175.7C160.214 175.69 160.771 175.75 161.36 175.635C161.376 175.294 161.401 175.004 161.401 174.714C161.405 173.084 161.401 171.454 161.406 169.824C161.406 169.596 161.445 169.367 161.466 169.138C161.889 169.012 162.274 169.062 162.653 169.062C179.484 169.059 196.315 169.06 213.147 169.059C213.442 169.059 213.738 169.063 214.032 169.055C214.174 169.051 214.315 169.022 214.439 169.007C214.632 168.691 214.565 168.387 214.567 168.1C214.573 166.441 214.567 164.781 214.573 163.121C214.573 162.896 214.621 162.671 214.651 162.399C214.995 162.385 215.285 162.364 215.574 162.364C217.139 162.36 218.704 162.366 220.27 162.36C220.558 162.359 220.86 162.426 221.144 162.246C221.31 161.952 221.237 161.619 221.239 161.301C221.246 159.375 221.243 157.448 221.243 155.522C221.243 153.654 221.245 151.787 221.239 149.92C221.238 149.632 221.31 149.326 221.074 148.999C220.827 148.987 220.539 148.962 220.25 148.961C218.596 148.957 216.943 148.961 215.289 148.955C215.064 148.955 214.813 149.021 214.57 148.743C214.57 148.514 214.57 148.222 214.57 147.929C214.57 146.299 214.572 144.669 214.566 143.039C214.566 142.811 214.625 142.56 214.356 142.321C205.768 142.321 197.118 142.321 188.468 142.324C188.326 142.324 188.184 142.36 187.924 142.395L187.925 142.394Z" fill="#003300"/>
<path d="M154.574 262.36C153.482 262.412 152.424 262.372 151.367 262.385C150.307 262.397 149.248 262.359 148.233 262.408C147.984 262.683 148.055 262.962 148.054 263.22C148.046 264.819 148.052 266.419 148.048 268.019C148.048 268.311 148.03 268.602 148.018 268.943C147.819 268.972 147.654 269.012 147.487 269.02C147.222 269.033 146.956 269.024 146.69 269.024C140.934 269.024 135.178 269.024 129.423 269.024H128.41C128.13 268.769 128.208 268.485 128.208 268.23C128.199 266.601 128.207 264.971 128.2 263.342C128.199 263.053 128.267 262.749 128.086 262.484C127.805 262.325 127.504 262.388 127.215 262.387C125.651 262.38 124.086 262.386 122.522 262.382C122.233 262.382 121.944 262.358 121.613 262.344C121.581 262.159 121.535 262.021 121.535 261.882C121.532 257.763 121.534 253.645 121.536 249.527C121.536 249.44 121.56 249.354 121.572 249.274C121.753 249.039 122.007 249.108 122.232 249.107C123.884 249.101 125.537 249.106 127.191 249.102C127.481 249.102 127.771 249.082 128.015 249.072C128.275 248.76 128.197 248.451 128.199 248.164C128.207 246.565 128.201 244.964 128.205 243.365C128.205 243.076 128.162 242.777 128.313 242.454C128.572 242.437 128.831 242.409 129.09 242.407C137.297 242.334 147.288 242.385 147.99 242.51C148.009 242.72 148.046 242.946 148.047 243.173C148.053 244.772 148.05 246.373 148.05 247.972C148.05 248.296 148.05 248.618 148.05 248.877C148.327 249.17 148.608 249.097 148.863 249.099C150.428 249.107 151.993 249.103 153.557 249.103C153.878 249.103 154.199 249.103 154.561 249.103C154.614 249.313 154.673 249.473 154.691 249.638C154.713 249.844 154.702 250.053 154.702 250.26C154.703 253.904 154.705 257.548 154.703 261.192C154.703 261.543 154.75 261.902 154.575 262.358L154.574 262.36Z" fill="#003300"/>
</svg>
