<svg width="268" height="307" viewBox="0 0 268 307" fill="none" xmlns="http://www.w3.org/2000/svg">
<path d="M107.412 156.18V161.598H102.02V172.371H96.7314V193.764C97.4664 193.976 106.043 194.026 107.36 193.801V188.587H118.02C118.238 186.754 117.981 185.003 118.194 183.166H123.437V177.818H128.797V172.403H134.152V129.316H139.546V113.163H144.869V107.773H150.265V102.39H155.589V97.0001H160.929V86.1873C159.211 86.0903 157.513 86.1916 155.692 86.1216V64.7188C153.838 64.6154 152.118 64.666 150.279 64.6801V70.0208H144.947C144.851 71.8358 144.947 73.5443 144.88 75.4014H139.561V80.7884H128.9C128.728 82.6002 128.9 84.313 128.782 86.1668H123.483V91.556H112.781C112.692 93.3722 112.782 95.0795 112.72 96.9215C110.971 97.0605 109.235 96.9086 107.422 97.0142C107.194 98.7614 107.464 100.479 107.249 102.273H102.181C101.884 103.236 102.059 104.132 102.027 105.009C101.996 105.867 102.021 106.725 102.021 107.731H107.315V113.11H102.07V118.424C100.246 118.678 98.5017 118.383 96.6735 118.62V123.838H91.34V118.585C89.53 118.444 87.8263 118.585 86.145 118.494C85.9004 117.71 85.8575 114.442 86.086 113.157H91.2682V102.416H96.6091C96.7539 98.7797 96.5941 95.2486 96.7057 91.612H101.989V86.225H112.745V80.8476H118.066V75.4617H123.459V70.0822H134.18V64.6585H139.533V59.3092H144.861V53.921H150.257V43.1524H155.619V37.7308H160.98V16.2268H166.306V10.8355H171.698V5.45275H177.033C177.058 3.5612 177.081 1.7806 177.103 0H198.544V5.36873H203.787C203.934 6.63012 203.846 7.80211 203.863 8.96655C203.879 10.1515 203.867 11.3364 203.867 12.5213V16.1622H214.558V21.5697H219.898V26.8878C220.301 26.9201 220.605 26.9654 220.911 26.9654C223.055 26.9718 225.199 26.9514 227.343 26.974C229.842 26.9998 232.34 27.0559 234.837 27.1108C235.793 27.1313 235.873 27.211 235.89 28.1664C235.908 29.1359 235.888 30.1054 235.899 31.0749C235.903 31.4627 235.947 31.8494 235.98 32.346H241.356V37.6856H246.692C246.824 39.5147 246.685 41.2586 246.783 43.092H257.443C257.502 46.7222 257.436 50.2521 257.483 53.8812H262.775V70.0272H268V75.4186H262.864V80.8046H257.463V91.5765H252.143V102.348H246.75V107.738H241.428V113.116H236.024V118.446H230.689V113.218H225.326C225.274 120.322 225.354 127.411 225.3 134.636C227.072 134.765 228.808 134.622 230.596 134.726V150.754H219.979C219.911 147.27 219.985 143.769 219.936 140.158C218.728 139.979 217.559 140.092 216.398 140.072C215.219 140.051 214.04 140.065 212.861 140.065H209.295V134.719H214.581V129.298H219.885V113.174H214.632V102.539C213.697 102.209 212.839 102.39 212.001 102.359C211.147 102.328 210.289 102.353 209.279 102.353C209.184 98.7786 209.29 95.2497 209.196 91.6519H198.536V140.048H193.142V145.439H187.824V150.819H182.427V161.594H177.107V166.913C175.278 167.122 173.537 166.873 171.711 167.083V172.357H166.395V183.071C164.572 183.276 162.832 183.052 161.003 183.221V188.51H155.664C155.573 190.325 155.664 192.032 155.602 193.888C153.803 193.969 152.033 193.916 150.267 193.926C148.525 193.936 146.784 193.928 144.927 193.928V199.275H139.573V204.697H123.491V210.043H102.105C101.904 211.876 102.116 213.621 101.962 215.46H96.7357V220.839H101.96V285.413H96.6842C96.6402 281.918 96.6896 278.417 96.6552 274.762C94.8817 274.65 93.1479 274.767 91.2993 274.687V264.09C89.4464 263.882 87.7061 264.028 85.9755 263.981C84.232 263.935 82.4875 263.972 80.6152 263.972V253.249C78.802 253.091 77.0972 253.246 75.2915 253.143C75.1198 251.394 75.3236 249.647 75.1584 247.803H69.9323V237.061H75.1852V226.356C77.007 226.161 78.7151 226.376 80.3921 226.221C80.6356 225.421 80.67 222.106 80.4425 220.929H69.8947V226.23H59.1356V231.617H48.4558V236.945C47.1855 237.072 46.0171 236.995 44.8551 237.009C43.676 237.023 42.4969 237.014 41.3178 237.014H37.6999V242.389H32.3772V247.774H27.0041V258.488C25.2091 258.64 23.4731 258.471 21.646 258.597V274.704H16.2535V280.09H10.934V296.241H5.53943V307H0V274.684H5.48579C5.59952 273.606 5.52549 272.541 5.53836 271.482C5.55124 270.405 5.54158 269.327 5.54158 268.25V265.126C5.54158 264.049 5.54265 262.972 5.54265 261.895V258.579H10.8643V247.805H16.2589V237.038H21.5827V231.686C23.3851 231.566 25.09 231.685 26.9386 231.604C27.0513 228.045 26.9215 224.514 27.0137 220.879H32.3021V215.494H37.6967V210.112H48.3797V204.722H53.7195V183.18H48.4505V177.799C44.8519 177.721 41.3671 177.801 37.7825 177.75C37.5776 175.985 37.8319 174.235 37.6151 172.393H27.0009V167.011C23.3991 166.966 19.9154 167.016 16.4531 166.982C16.2181 166.129 16.1827 157.392 16.4155 156.229H21.5955V150.918H48.3915V156.208H59.0959V161.51C59.4628 161.552 59.7332 161.602 60.0036 161.61C62.8875 161.695 65.7715 161.77 68.6544 161.854C69.531 161.879 69.604 161.952 69.6179 162.875C69.6329 163.844 69.6093 164.814 69.6286 165.782C69.6361 166.161 69.7145 166.54 69.7713 167.006H80.5476V172.305H85.9336V167.03H91.2928V161.607H96.6467V156.249C100.32 156.234 103.88 156.219 107.44 156.204L107.412 156.176V156.18Z" fill="#1B7862"/>
</svg>
