<svg width="153" height="300" viewBox="0 0 153 300" fill="none" xmlns="http://www.w3.org/2000/svg">
<g clip-path="url(#clip0_100_73)">
<path d="M34.2847 298.202C33.5254 298.307 29.6094 298.361 28.0571 298.289C27.9005 298.281 27.745 298.233 27.5537 298.198C27.526 297.685 27.5004 297.2 27.4708 296.654C26.3933 296.457 25.3127 296.621 24.1994 296.487C24.1605 296.267 24.096 296.052 24.0878 295.833C24.0633 295.177 24.0664 294.52 24.0469 293.864C24.0408 293.642 23.9988 293.422 23.9681 293.15C23.4534 293.114 22.9745 293.081 22.4578 293.045C22.2654 292.182 22.378 291.33 22.3708 290.489C22.3636 289.676 22.2982 288.857 22.4373 287.978C22.9387 287.948 23.4166 287.919 23.9477 287.886C24.1902 286.816 23.9425 285.728 24.1093 284.64C24.5913 284.358 25.151 284.627 25.6944 284.4C25.8868 283.943 25.6841 283.398 25.8479 282.867C26.337 282.659 26.8824 282.865 27.3961 282.701C27.6509 282.211 27.3961 281.657 27.6181 281.091C28.6404 280.94 29.7189 281.105 30.8179 280.991C31.0389 280.485 30.8199 279.933 31.0041 279.44C31.4881 279.144 32.0489 279.43 32.5881 279.187C32.6066 278.961 32.6352 278.708 32.6475 278.454C32.6577 278.229 32.6495 278.003 32.6495 277.768C33.1949 277.442 33.8017 277.759 34.3461 277.47C34.3696 276.993 34.3942 276.509 34.4198 276.004C34.915 275.726 35.4686 275.994 35.9803 275.793C36.2688 275.33 35.9833 274.768 36.1982 274.243C36.6505 273.982 37.2092 274.256 37.7485 274.036C37.7792 273.555 37.8088 273.073 37.8406 272.582C38.3174 272.233 38.8792 272.516 39.4225 272.321C39.4502 272.205 39.5167 272.055 39.5167 271.905C39.5228 268.819 39.5228 265.732 39.5208 262.645C39.5208 262.488 39.485 262.332 39.4604 262.13C38.9355 262.1 38.4545 262.072 38.0022 262.045C37.7352 261.82 37.8058 261.541 37.8048 261.289C37.7976 259.646 37.8007 258.005 37.8007 256.362C37.8007 253.998 37.816 251.633 37.7925 249.268C37.7843 248.49 37.6758 247.714 37.6093 246.89C37.1222 246.793 36.6863 246.706 36.2494 246.619C36.0488 246.249 36.1164 245.882 36.1164 245.531C36.1102 241.655 36.1143 237.78 36.1071 233.905C36.1071 233.552 36.189 233.183 35.9639 232.791C35.5065 232.767 35.0245 232.742 34.5201 232.717C34.2356 232.224 34.5109 231.667 34.296 231.116C34.1118 231.088 33.8948 231.027 33.6769 231.025C32.5636 231.015 31.4513 231.023 30.338 231.018C30.0167 231.017 29.6954 230.994 29.328 230.98C29.2942 230.788 29.2451 230.634 29.2441 230.481C29.24 227.394 29.24 224.307 29.2441 221.22C29.2441 221.093 29.2758 220.965 29.2953 220.816C29.7619 220.575 30.2725 220.787 30.7503 220.645C31.0246 220.387 30.9202 220.04 30.9212 219.726C30.9294 217.165 30.9263 214.603 30.9263 212.041C30.9263 211.68 30.9223 211.319 30.9304 210.957C30.9345 210.798 30.9642 210.64 30.9837 210.474C31.4891 210.181 32.0478 210.453 32.5881 210.219C32.7181 209.342 32.6311 208.426 32.6475 207.515C32.6628 206.629 32.6506 205.742 32.6506 204.855C32.6506 203.968 32.6506 203.016 32.6506 202.097C32.6506 201.21 32.6506 200.323 32.6526 199.437C32.6557 198.521 32.6618 197.607 32.6659 196.706C33.198 196.383 33.7588 196.666 34.2632 196.453C34.4863 196.139 34.3789 195.765 34.3799 195.416C34.3891 191.606 34.386 187.797 34.386 183.987V182.928C34.9048 182.565 35.4727 182.883 35.9925 182.64C36.2003 182.347 36.1051 181.975 36.1051 181.628C36.1133 178.508 36.1102 175.388 36.1112 172.269C36.1112 171.414 36.1072 170.56 36.1174 169.707C36.1194 169.488 36.1675 169.268 36.2003 169.008C36.7211 168.97 37.199 168.935 37.6953 168.899C37.859 168.491 37.7976 168.093 37.7976 167.709C37.8017 162.225 37.8007 156.739 37.8007 151.255C37.8007 150.007 37.7976 148.76 37.8027 147.512C37.8037 147.223 37.8344 146.936 37.8539 146.591C38.3778 146.539 38.8567 146.493 39.3806 146.443C39.4184 146.243 39.4798 146.06 39.4839 145.876C39.5054 144.957 39.5228 144.038 39.5228 143.119C39.5259 134.908 39.5228 126.699 39.5279 118.488C39.5279 118.103 39.4624 117.706 39.6333 117.283C40.1235 117.255 40.6065 117.228 41.1365 117.199C41.1754 117.009 41.2419 116.825 41.247 116.641C41.2624 116.051 41.2573 115.459 41.2573 114.868C41.2583 106.855 41.2593 98.8413 41.2573 90.8288C41.2573 90.4747 41.2337 90.1215 41.2214 89.7448C40.6474 89.6052 40.1429 89.6627 39.5934 89.6955C39.4532 90.8638 39.5433 91.9755 39.5259 93.0822C39.5085 94.1919 39.5423 95.3027 39.442 96.472C38.9283 96.5079 38.4494 96.5418 37.9112 96.5798C37.8723 96.8046 37.8058 97.0181 37.8037 97.2316C37.7925 98.3486 37.7976 99.4645 37.7976 100.581C37.7976 100.907 37.7976 101.231 37.7976 101.548C37.2696 101.863 36.7078 101.578 36.1624 101.818C36.0468 102.648 36.1276 103.497 36.1092 104.34C36.0918 105.153 36.1286 105.969 36.0795 106.826C35.5075 106.859 35.0256 106.887 34.4853 106.917C34.4484 107.122 34.3901 107.304 34.3881 107.487C34.3788 108.637 34.3829 109.786 34.3819 110.935C34.3819 111.262 34.3819 111.587 34.3819 111.892C33.8539 112.241 33.2911 111.95 32.7375 112.176C32.7109 112.354 32.6536 112.57 32.6516 112.785C32.6413 113.636 32.6475 114.486 32.6475 115.345C32.1215 115.653 31.5679 115.385 31.0553 115.576C30.7626 116.037 31.0461 116.598 30.8383 117.124C30.3922 117.408 29.8284 117.106 29.2932 117.351C29.2533 117.838 29.2113 118.346 29.1653 118.906C28.6117 118.951 28.1052 118.992 27.5485 119.037C27.5219 119.563 27.4974 120.044 27.4728 120.531C26.952 120.801 26.3974 120.549 25.8561 120.768C25.6637 121.237 25.8632 121.781 25.6934 122.339C25.1899 122.377 24.6834 122.415 24.1185 122.457C24.0735 123.001 24.0305 123.512 23.9825 124.092C23.4759 124.119 22.996 124.145 22.4967 124.17C22.2061 124.663 22.4854 125.223 22.2521 125.75C21.806 126.022 21.2473 125.748 20.7254 125.955C20.5422 126.474 20.6589 127.034 20.6364 127.584C20.6149 128.103 20.6261 128.624 20.622 129.146C20.0838 129.433 19.5323 129.176 19.0012 129.385C18.7546 129.842 19.0114 130.395 18.819 130.924C18.3616 131.195 17.8029 130.913 17.2852 131.129C17.0754 131.646 17.2094 132.208 17.1808 132.756C17.1532 133.276 17.1624 133.797 17.1542 134.382C16.5965 134.435 16.0931 134.483 15.6213 134.527C15.4146 134.883 15.4873 135.217 15.4863 135.539C15.4791 137.706 15.4852 139.874 15.4801 142.041C15.4801 142.362 15.5384 142.696 15.3532 143.049C14.8795 143.074 14.3975 143.098 13.8654 143.126C13.8286 143.328 13.7682 143.512 13.7651 143.697C13.7528 144.485 13.7569 145.273 13.7569 146.061C13.7569 174.6 13.7569 203.139 13.7528 231.679C13.7528 232.561 13.7129 233.442 13.6904 234.385C13.3927 234.424 13.145 234.461 12.8964 234.488C12.6713 234.512 12.4451 234.526 12.175 234.547C12.1361 234.747 12.0726 234.931 12.0685 235.116C12.045 236.199 12.0235 237.282 12.0225 238.366C12.0194 253.309 12.0205 268.252 12.0194 283.195C12.0194 283.584 12.0071 283.972 12 284.423C11.4311 284.471 10.9215 284.513 10.3597 284.56C10.3351 284.844 10.3106 285.098 10.2922 285.354C10.2758 285.581 10.2655 285.809 10.2512 286.081C10.0548 286.117 9.86954 286.18 9.68536 286.181C7.81994 286.189 5.9535 286.189 4.08808 286.185C3.90082 286.185 3.71357 286.136 3.47821 286.102C3.4424 285.588 3.40863 285.107 3.37077 284.569C2.84072 284.519 2.33522 284.472 1.82154 284.424C1.78675 284.249 1.74071 284.124 1.74071 283.998C1.74071 277.955 1.74275 271.913 1.74889 265.869C1.74889 265.778 1.8021 265.686 1.85224 265.523C2.30964 265.484 2.78444 265.444 3.3063 265.399C3.33393 265.178 3.37486 264.99 3.37793 264.802C3.39738 263.62 3.41989 262.437 3.41989 261.256C3.42296 249.367 3.4291 237.479 3.40761 225.59C3.40556 224.696 3.65115 223.846 3.67673 222.964C3.68287 222.744 3.84966 222.628 4.06455 222.584C4.37664 222.523 4.7266 222.629 5.01925 222.358C5.17377 222.036 5.10419 221.669 5.10419 221.315C5.12158 207.489 5.13795 193.663 5.14614 179.838C5.15228 169.131 5.14716 158.425 5.14307 147.719C5.14307 147.365 5.20856 147 5.04484 146.608C4.5639 146.576 4.08296 146.546 3.59589 146.514C3.25003 146.027 3.54984 145.462 3.34212 144.936C2.90007 144.67 2.33932 144.952 1.81131 144.731C1.66601 144.19 1.75196 143.633 1.73764 143.085C1.72229 142.527 1.74889 141.968 1.73047 141.411C1.71205 140.86 1.8195 140.299 1.62098 139.702C1.13698 139.676 0.655019 139.65 0.11985 139.62C0.0809654 139.452 0.0164995 139.302 0.0164995 139.152C0.0113832 136.032 0.0124065 132.913 0.0154763 129.793C0.0154763 129.667 0.0512906 129.541 0.0799421 129.353C0.601809 129.313 1.10833 129.274 1.6701 129.231C1.7141 128.69 1.75605 128.18 1.80313 127.61C2.32192 127.579 2.80183 127.55 3.35031 127.517C3.3984 126.989 3.44445 126.482 3.49459 125.935C4.03896 125.889 4.54753 125.845 5.0346 125.803C5.21572 125.401 5.14512 125.036 5.14512 124.681C5.15126 119.689 5.14819 114.698 5.1533 109.706C5.1533 108.951 5.17991 108.196 5.20242 107.441C5.20651 107.316 5.25563 107.192 5.29144 107.027C5.81229 106.965 6.31881 106.903 6.80793 106.845C6.92049 105.829 6.90514 99.2129 6.79156 98.3865C6.32699 98.1432 5.77238 98.3968 5.25563 98.1874C5.01209 97.7131 5.26279 97.1598 5.052 96.6188C4.85042 96.5972 4.63144 96.5531 4.41143 96.552C3.26537 96.5459 2.12034 96.5541 0.974278 96.549C0.687763 96.5479 0.402271 96.5161 0.133152 96.4997C-0.0182916 95.7267 -0.0489896 92.7855 0.0697094 91.5464C0.268223 91.3093 0.548599 91.3873 0.797253 91.3863C2.23801 91.3781 3.67775 91.3822 5.11851 91.3822C8.16273 91.3822 11.207 91.3822 14.2512 91.3822C14.6063 91.3822 14.9613 91.3709 15.3092 91.3658C15.6387 90.833 15.3645 90.2724 15.5753 89.7325C16.6047 89.5312 17.6873 89.7479 18.7986 89.6011C19.0298 88.5006 18.7924 87.3836 18.9582 86.2503C19.5128 86.2031 20.0204 86.16 20.5637 86.1138C20.7315 85.0122 20.5422 83.9282 20.6875 82.8133C21.2319 82.7733 21.7384 82.7353 22.291 82.6942C22.4199 81.836 22.3422 81.0188 22.3555 80.2058C22.3698 79.3886 22.3585 78.5704 22.3585 77.8231C22.6225 77.511 22.9019 77.6147 23.1505 77.5901C23.4053 77.5644 23.6611 77.5521 23.9477 77.5305C24.1452 76.6518 24.0131 75.8007 24.0449 74.9589C24.0756 74.1469 24.007 73.3308 24.094 72.4582C24.6588 72.412 25.1653 72.3699 25.7312 72.3237C25.8346 71.2222 25.7138 70.1432 25.811 69.0212C26.3728 68.9801 26.8803 68.9432 27.437 68.9021C27.4626 68.6424 27.5015 68.4217 27.5025 68.2009C27.5097 67.0512 27.5035 65.9024 27.5097 64.7527C27.5117 64.4642 27.5404 64.1767 27.5598 63.8493C28.095 63.8133 28.5769 63.7815 29.1049 63.7466C29.1489 63.5526 29.2226 63.3698 29.2267 63.1871C29.242 62.5311 29.2287 61.8731 29.2369 61.2171C29.24 60.9605 29.2707 60.7038 29.2891 60.4461C29.7844 60.2018 30.297 60.4246 30.821 60.2408C30.8496 60.0899 30.912 59.9062 30.9161 59.7224C30.9294 59.0325 30.9161 58.3427 30.9274 57.6538C30.9304 57.4321 30.9755 57.2104 31.0072 56.9445C31.528 56.9137 32.011 56.886 32.5462 56.8552C32.7805 55.7454 32.5329 54.6285 32.714 53.4869C33.2533 53.4479 33.7608 53.411 34.3205 53.3699C34.3625 52.8248 34.4014 52.3146 34.4443 51.7613C34.9897 51.7151 35.4973 51.6709 36.0509 51.6237C36.0867 51.094 36.1184 50.6125 36.1542 50.0736C36.6884 50.0243 37.1949 49.9781 37.7515 49.9268C37.7802 49.4022 37.8078 48.9187 37.8375 48.3776C38.0391 48.3397 38.2202 48.2781 38.4023 48.276C39.5484 48.2668 40.6934 48.2699 41.8395 48.2699C42.1649 48.2699 42.4903 48.2699 42.7952 48.2699C43.1483 47.7442 42.8576 47.1796 43.0756 46.6304C43.223 46.6017 43.4041 46.536 43.5862 46.5349C44.7323 46.5247 45.8773 46.5319 47.0234 46.5277C47.3467 46.5267 47.6691 46.5103 47.9955 46.5011C48.2963 45.9857 48.0149 45.4242 48.2585 44.876C49.2807 44.7199 50.3613 44.8852 51.4377 44.7497C51.7805 43.6574 51.23 42.5692 51.5523 41.4688C52.6421 41.2409 53.7575 41.478 54.837 41.3302C54.9735 40.9188 55.0062 40.3932 54.9353 39.7533C54.4666 39.4895 53.9141 39.7492 53.4229 39.5706C53.2336 38.9434 53.2049 37.6632 53.3584 36.341C53.8148 36.0617 54.3755 36.3461 54.9128 36.1038C55.144 35.6583 54.8943 35.106 55.0908 34.5835C55.5503 34.332 56.1038 34.6009 56.6185 34.3864C56.8805 33.9203 56.6124 33.3608 56.8222 32.8434C57.2826 32.5878 57.8434 32.8732 58.3735 32.6248C58.4042 32.1494 58.4348 31.667 58.4655 31.1793C58.9496 30.8334 59.5134 31.1321 60.0004 30.9391C60.1928 30.2924 60.2082 28.5143 60.0158 27.6253C59.7743 27.6109 59.5195 27.5955 59.2647 27.5812C59.0376 27.5678 58.8104 27.5555 58.5935 27.5442C58.3745 26.878 58.355 25.1492 58.5638 24.175C59.6024 24.0353 60.6809 24.1698 61.7554 24.0733C61.9784 23.4954 61.8485 22.9338 61.8802 22.3877C61.9099 21.8693 61.8996 21.3478 61.9078 20.7626C62.4696 20.7174 62.9761 20.6764 63.5144 20.6322C63.7292 19.5369 63.5051 18.4487 63.6607 17.3626C64.1334 17.0525 64.6972 17.342 65.2212 17.1131C65.3603 16.5824 65.2764 16.0249 65.2918 15.4767C65.3071 14.9193 65.2836 14.3598 65.2989 13.8024C65.3143 13.2521 65.2232 12.6937 65.391 12.0911C65.8924 12.0654 66.3744 12.0408 66.8778 12.0151C67.1848 11.5336 66.8932 10.9731 67.0978 10.4516C67.546 10.1498 68.1078 10.4444 68.6542 10.2227C68.6829 10.0749 68.7463 9.89419 68.7494 9.71145C68.7617 9.02159 68.7504 8.33173 68.7586 7.64289C68.7617 7.42115 68.7965 7.20044 68.82 6.93866C69.3511 6.90889 69.834 6.88117 70.3221 6.85345C70.6445 6.36377 70.3569 5.80121 70.5636 5.27354C71.0047 4.97789 71.5695 5.29407 72.1088 5.04051C72.1487 4.56212 72.1917 4.05499 72.2387 3.48729C73.3418 3.33946 74.4214 3.48729 75.4794 3.38977C75.7884 2.88263 75.4958 2.31699 75.7342 1.78624C75.9788 1.76674 76.2315 1.74518 76.4853 1.72773C76.7125 1.71233 76.9396 1.70207 77.176 1.68872C77.5167 1.20725 77.2476 0.646739 77.4318 0.0985449C77.5485 0.0708272 77.6979 0.00409936 77.8462 0.00307277C79.8099 -0.0041133 81.7746 -0.00308671 83.7382 0.00101961C83.8631 0.00101961 83.9879 0.0410563 84.168 0.0728803C84.214 0.59541 84.2601 1.10459 84.3072 1.63431C85.1585 1.78932 85.9761 1.70207 86.7876 1.72362C87.6021 1.74518 88.4166 1.738 89.2209 1.74313C89.5156 2.25334 89.2772 2.76971 89.4511 3.31174C89.6179 3.34254 89.8307 3.41235 90.0436 3.4144C91.2224 3.4257 92.4002 3.41748 93.579 3.42364C93.8675 3.4257 94.1694 3.36718 94.4754 3.56428C94.5009 4.03241 94.5275 4.51695 94.5562 5.04564C95.6593 5.29715 96.7757 5.02306 97.9094 5.22324C97.9545 5.7622 97.9964 6.27241 98.0445 6.84319C98.5572 6.87296 99.0371 6.9017 99.5559 6.93147C99.7595 7.4848 99.6388 8.04429 99.6623 8.58838C99.6848 9.10885 99.6766 9.63035 99.6817 10.158C100.206 10.4629 100.764 10.1939 101.315 10.4239C101.336 10.5779 101.384 10.7627 101.385 10.9475C101.393 12.0972 101.388 13.246 101.392 14.3957C101.392 14.7201 101.408 15.0445 101.416 15.3607C101.939 15.6738 102.499 15.3936 102.994 15.5999C103.206 15.8504 103.122 16.1584 103.122 16.4438C103.129 18.6437 103.124 20.8447 103.128 23.0447C103.128 23.365 103.157 23.6843 103.175 24.0661C104.854 24.1832 106.484 24.0415 108.159 24.1565C108.352 24.7139 108.238 25.2713 108.259 25.8134C108.279 26.3708 108.264 26.9303 108.264 27.4877C108.264 28.0431 108.264 28.5995 108.264 29.1303C107.732 29.4783 107.166 29.1703 106.685 29.3992C106.503 30.0388 106.476 31.514 106.635 32.6463C107.098 32.8537 107.645 32.6391 108.171 32.8116C108.375 33.3033 108.171 33.8484 108.337 34.3689C108.827 34.6081 109.376 34.3679 109.92 34.5712C109.944 34.7693 109.993 34.989 109.995 35.2097C110.003 36.3595 109.996 37.5082 110.001 38.658C110.002 38.9464 110.027 39.2349 110.044 39.5757C110.599 39.6168 111.107 39.6538 111.658 39.6938C111.704 40.2502 111.746 40.7604 111.791 41.3045C112.889 41.478 113.97 41.2788 115.077 41.4349C115.189 42.018 115.126 42.5734 115.137 43.1215C115.148 43.6472 115.139 44.1728 115.139 44.6984V46.3697C115.665 46.6848 116.218 46.421 116.745 46.6037C117.03 47.0575 116.758 47.6149 116.951 48.1651C117.101 48.1959 117.281 48.2627 117.463 48.2668C118.151 48.2801 118.838 48.2688 119.525 48.276C119.745 48.2781 119.966 48.3109 120.217 48.3325C120.402 49.4453 120.167 50.5324 120.378 51.6535C120.878 51.6802 121.36 51.7068 121.897 51.7356C121.937 51.9317 122.003 52.1124 122.006 52.2941C122.02 52.9511 122.008 53.6081 122.016 54.2641C122.019 54.5207 122.044 54.7774 122.06 55.0381C122.58 55.304 123.132 55.0494 123.688 55.2742C123.724 55.7567 123.764 56.2669 123.807 56.8285C124.892 57.0009 125.974 56.81 127.097 56.9558C127.141 57.4896 127.184 57.9977 127.229 58.548C127.765 58.5778 128.247 58.6045 128.765 58.6322C129.016 59.1383 128.786 59.6885 128.963 60.2295C130.032 60.4677 131.148 60.1967 132.28 60.3958C132.326 60.9389 132.368 61.4491 132.416 62.0148C132.933 62.0456 133.412 62.0743 133.908 62.1041C134.18 62.603 133.911 63.1625 134.136 63.6676C134.601 63.9499 135.162 63.6645 135.674 63.8934C135.878 64.3359 135.665 64.8492 135.848 65.3799C135.995 65.4107 136.177 65.4774 136.359 65.4815C137.014 65.4959 137.669 65.4836 138.322 65.4918C138.577 65.4949 138.832 65.5277 139.092 65.5472C139.354 66.0708 139.104 66.6272 139.329 67.1702C139.798 67.2 140.277 67.2308 140.771 67.2626C141.064 67.7585 140.786 68.32 141.026 68.8692C142.067 69.0982 143.181 68.8405 144.318 69.0294C144.356 69.5653 144.392 70.0744 144.431 70.6257C144.985 70.6719 145.492 70.713 146.043 70.7592C146.079 71.2951 146.111 71.7755 146.147 72.3134C146.68 72.3627 147.186 72.4099 147.707 72.4582C147.9 73.573 147.684 74.6602 147.85 75.7586C148.365 75.9629 148.908 75.7638 149.455 75.9393C149.609 77.0059 149.426 78.089 149.572 79.2162C150.11 79.2572 150.617 79.2952 151.188 79.3393C151.226 79.8865 151.261 80.3947 151.299 80.9572C151.844 80.9962 152.351 81.0322 152.878 81.0691C152.914 81.2375 152.958 81.3617 152.965 81.487C153.036 82.7178 152.978 92.2332 152.899 92.9046C152.704 93.152 152.423 93.0524 152.174 93.074C151.918 93.0966 151.66 93.1027 151.343 93.1192C151.118 94.2309 151.363 95.3479 151.182 96.4863C150.639 96.5274 150.132 96.5654 149.591 96.6064C149.451 97.1895 149.535 97.747 149.516 98.2962C149.497 98.8157 149.544 99.3382 149.469 99.9059C148.923 99.9531 148.418 99.9962 147.861 100.043C147.835 100.343 147.794 100.597 147.794 100.849C147.788 102.492 147.792 104.133 147.788 105.776C147.788 106.098 147.762 106.421 147.746 106.807C147.199 106.85 146.695 106.891 146.185 106.931C146.022 107.743 146.121 108.498 146.102 109.248C146.085 109.969 146.102 110.693 146.097 111.415C146.092 112.163 146.124 112.915 146.066 113.698C145.481 113.746 144.972 113.788 144.427 113.834C144.407 114.146 144.389 114.402 144.375 114.659C144.362 114.886 144.351 115.113 144.338 115.372C144.206 115.414 144.087 115.484 143.968 115.484C141.939 115.491 139.908 115.49 137.879 115.486C137.788 115.486 137.697 115.439 137.549 115.398C137.521 114.918 137.493 114.436 137.462 113.901C137.28 113.857 137.103 113.796 136.921 113.773C136.572 113.73 136.205 113.83 135.815 113.65C135.785 113.174 135.753 112.694 135.718 112.163C134.862 111.977 134.014 112.092 133.177 112.078C132.367 112.064 131.552 112.035 130.684 112.118C130.648 112.645 130.615 113.123 130.579 113.659C130.384 113.696 130.202 113.757 130.019 113.76C129.331 113.772 128.643 113.762 127.957 113.77C127.736 113.773 127.515 113.808 127.235 113.834C127.19 114.384 127.147 114.892 127.101 115.458C125.999 115.555 124.924 115.436 123.811 115.538C123.772 116.104 123.735 116.613 123.695 117.179C123.145 117.218 122.637 117.254 122.077 117.294C122.034 117.84 121.994 118.349 121.951 118.889C120.853 119.073 119.771 118.87 118.658 119.03C118.622 119.547 118.589 120.026 118.551 120.563C118.344 120.598 118.162 120.653 117.978 120.656C117.29 120.667 116.603 120.656 115.916 120.666C115.694 120.67 115.473 120.708 115.189 120.735C115.162 121.257 115.136 121.74 115.108 122.275C114.926 122.314 114.746 122.383 114.564 122.387C113.877 122.401 113.189 122.389 112.502 122.398C112.281 122.401 112.06 122.435 111.847 122.455C111.801 122.595 111.745 122.686 111.745 122.775C111.739 146.059 111.736 169.344 111.736 192.628C111.736 192.754 111.777 192.879 111.802 193.033C112.267 193.249 112.782 193.052 113.305 193.232C113.425 193.902 113.35 194.592 113.412 195.267C113.439 195.561 113.417 195.857 113.417 196.153C113.418 205.053 113.417 213.953 113.424 222.853C113.424 223.239 113.343 223.641 113.555 224.07C114.016 224.097 114.498 224.125 115.037 224.157C115.074 224.361 115.135 224.544 115.134 224.727C115.123 227.813 115.103 230.9 115.083 233.986C115.083 234.082 115.051 234.178 115.025 234.331C114.819 234.363 114.601 234.425 114.383 234.428C112.714 234.453 111.045 234.466 109.376 234.486C109.054 234.49 108.732 234.505 108.412 234.515C108.121 235.039 108.397 235.596 108.156 236.152C107.682 236.191 107.172 236.232 106.604 236.279C106.461 237.371 106.609 238.453 106.496 239.583C105.975 239.616 105.498 239.648 104.963 239.683C104.926 239.913 104.863 240.128 104.861 240.343C104.849 241.427 104.853 242.51 104.853 243.594C104.853 247.076 104.856 250.557 104.849 254.038C104.849 254.39 104.937 254.761 104.7 255.132C104.236 255.158 103.753 255.186 103.269 255.212C103.037 255.561 103.134 255.933 103.134 256.282C103.127 261.307 103.129 266.331 103.129 271.356C103.129 272.572 103.126 273.786 103.132 275.002C103.133 275.255 103.167 275.509 103.188 275.815C103.722 275.846 104.204 275.873 104.697 275.902C105.027 276.383 104.713 276.951 104.953 277.479C105.385 277.759 105.95 277.458 106.488 277.713C106.52 278.166 106.554 278.646 106.591 279.153C107.081 279.435 107.639 279.17 108.186 279.393C108.379 279.848 108.177 280.394 108.337 280.923C108.83 281.131 109.374 280.925 109.9 281.094C110.126 281.583 109.9 282.132 110.076 282.645C110.554 282.908 111.11 282.634 111.665 282.871C111.704 283.348 111.746 283.86 111.792 284.424C112.075 284.448 112.328 284.473 112.583 284.49C112.809 284.507 113.035 284.515 113.275 284.528C113.579 285.013 113.275 285.583 113.545 286.126C114.022 286.165 114.529 286.206 115.08 286.25C115.103 286.548 115.13 286.801 115.14 287.056C115.15 287.283 115.142 287.512 115.142 287.788C115.359 287.836 115.538 287.891 115.72 287.912C116.07 287.95 116.433 287.865 116.839 288.019C116.931 289.098 116.834 290.177 116.905 291.31C117.456 291.358 117.964 291.403 118.488 291.45C118.697 292.014 118.578 292.576 118.598 293.123C118.618 293.68 118.608 294.24 118.601 294.797C118.594 295.349 118.643 295.904 118.535 296.509C118.007 296.536 117.525 296.561 117.023 296.588C116.711 297.067 117.008 297.629 116.801 298.149C116.343 298.484 115.726 298.107 115.182 298.43C115.157 298.891 115.131 299.372 115.101 299.902C113.958 300.056 112.852 299.962 111.75 299.978C110.605 299.996 109.459 299.984 108.313 299.981C107.206 299.98 106.098 299.988 104.931 299.969C104.878 299.396 104.831 298.891 104.782 298.369C103.674 298.173 102.59 298.39 101.495 298.226C101.284 297.713 101.485 297.168 101.313 296.619C100.253 296.454 99.1722 296.644 98.0496 296.493C98.0087 295.955 97.9698 295.447 97.9268 294.874C97.3804 294.837 96.8729 294.802 96.3121 294.764C96.2732 294.219 96.2364 293.71 96.1955 293.152C95.6439 293.105 95.1354 293.063 94.5675 293.017C94.5368 292.502 94.5081 292.021 94.4774 291.494C93.404 291.257 92.3204 291.498 91.2418 291.339C90.9615 290.845 91.2265 290.285 91.0055 289.742C90.546 289.547 90.0016 289.75 89.491 289.595C89.2526 289.096 89.492 288.543 89.2976 288.033C88.8187 287.776 88.2662 288.04 87.7054 287.811C87.6696 287.336 87.6307 286.827 87.5867 286.254C87.0546 286.211 86.545 286.169 86.0467 286.128C85.84 285.718 85.9239 285.317 85.9229 284.931C85.9167 278.888 85.9188 272.845 85.9178 266.802C85.9178 266.412 85.9065 266.022 85.9004 265.658C85.3765 265.366 84.8597 265.597 84.3716 265.432C84.1404 265.168 84.2355 264.825 84.2345 264.509C84.2273 261.783 84.2324 259.057 84.2273 256.331C84.2273 255.977 84.2826 255.612 84.1137 255.214C83.6328 255.19 83.1509 255.165 82.6812 255.141C82.409 254.843 82.5103 254.498 82.5093 254.184C82.5011 251.458 82.5042 248.732 82.5021 246.006C82.5021 245.651 82.4898 245.296 82.4816 244.882C81.9076 244.832 81.398 244.789 80.8546 244.743C80.6827 243.879 80.7922 243.027 80.7728 242.183C80.7533 241.33 80.7687 240.476 80.7687 239.622C80.7687 238.8 80.7728 237.979 80.7677 237.159C80.7615 236.312 80.7902 235.463 80.7411 234.605C80.3481 234.424 79.9849 234.492 79.6349 234.492C75.8376 234.485 72.0402 234.486 68.2429 234.485C66.4747 234.485 64.7075 234.487 62.9393 234.483C62.62 234.483 62.3008 234.455 61.9375 234.438C61.8966 233.869 61.8587 233.358 61.8188 232.802C61.5149 232.781 61.2611 232.751 61.0073 232.751C60.7546 232.751 60.5008 232.781 60.199 232.803C60.1601 233.399 60.1253 233.944 60.0864 234.54C59.7293 234.595 59.409 234.636 59.0918 234.697C58.7633 234.76 58.6845 234.883 58.618 235.228C58.4072 236.328 58.4123 237.44 58.4144 238.554C58.4205 241.969 58.4164 245.385 58.4144 248.8C58.4144 249.157 58.4001 249.515 58.3929 249.85C57.8772 250.142 57.3604 249.911 56.8723 250.071C56.6196 250.37 56.7342 250.748 56.7332 251.094C56.7239 254.936 56.728 258.779 56.725 262.621C56.725 262.975 56.77 263.337 56.6278 263.738C56.109 263.781 55.6024 263.824 55.054 263.869C54.9496 264.957 55.0161 266.003 55.0038 267.047C54.9926 268.065 55.0018 269.082 55.0018 270.101V282.601C54.4646 282.913 53.912 282.652 53.3891 282.838C53.1026 283.293 53.3983 283.855 53.1783 284.384C52.6739 284.605 52.1131 284.465 51.5708 284.489C51.052 284.514 50.5311 284.494 50.0256 284.494C49.69 285.021 49.997 285.591 49.7228 286.128C49.2469 286.168 48.7394 286.21 48.1725 286.257C48.1459 286.782 48.1224 287.264 48.0968 287.769C47.6138 288.076 47.0602 287.811 46.5087 287.994C46.4759 288.139 46.4186 288.317 46.3971 288.501C46.3572 288.851 46.4483 289.217 46.2866 289.62C45.247 289.659 44.2125 289.698 43.1749 289.737C42.8996 290.225 43.1421 290.749 42.9293 291.265C42.785 291.301 42.6059 291.372 42.4228 291.387C42.0708 291.416 41.7167 291.412 41.3105 291.424C41.2747 291.969 41.244 292.449 41.2112 292.942C40.7149 293.237 40.1562 292.96 39.6139 293.194C39.3785 293.637 39.6333 294.191 39.4317 294.71C38.9723 294.959 38.4187 294.691 37.905 294.907C37.6482 295.376 37.9122 295.936 37.6983 296.459C37.1806 296.651 36.6208 296.529 36.0744 296.553C35.5566 296.575 35.0368 296.564 34.5303 296.568C34.2325 297.107 34.5016 297.66 34.2775 298.195L34.2847 298.202ZM41.3493 84.539C41.201 85.7781 41.2255 87.1752 41.4005 87.8723C41.8978 87.9236 42.4023 87.976 42.8863 87.8343C43.0449 86.7369 43.0183 85.233 42.828 84.539H41.3493ZM4.85553 223.354C4.78083 223.294 4.73581 223.258 4.69079 223.221C4.64372 223.287 4.58744 223.347 4.55776 223.42C4.55162 223.434 4.66418 223.53 4.68158 223.52C4.74707 223.482 4.79721 223.414 4.85553 223.354Z" fill="#3A79D8"/>
</g>
<defs>
<clipPath id="clip0_100_73">
<rect width="153" height="300" fill="white"/>
</clipPath>
</defs>
</svg>
