<svg width="310" height="303" viewBox="0 0 310 303" fill="none" xmlns="http://www.w3.org/2000/svg">
<g clip-path="url(#clip0_104_110)">
<path d="M310 27.8471V29.6384C309.485 29.6373 308.964 29.5565 308.402 29.7223C308.398 30.2925 308.409 30.8191 308.387 31.3447C308.362 31.8972 308.489 32.4642 308.29 32.9857C307.76 33.2044 307.194 32.9307 306.661 33.2365C306.651 33.5568 306.635 33.8834 306.634 34.2099C306.629 35.3709 306.635 36.532 306.627 37.692C306.626 37.8786 306.581 38.0651 306.558 38.2279C306.001 38.456 305.436 38.1885 304.934 38.4736C304.781 39.5631 305.011 40.6588 304.783 41.7556C304.508 41.7701 304.281 41.7784 304.053 41.7929C303.796 41.8095 303.538 41.8302 303.24 41.853C303.193 42.4138 303.15 42.929 303.104 43.4909C302.545 43.5323 302.032 43.5697 301.48 43.6101C301.329 44.7359 301.526 45.8306 301.35 46.9408C300.8 46.9874 300.285 47.031 299.739 47.0766C299.537 48.2241 299.812 49.3551 299.563 50.4747C299.029 50.5037 298.539 50.5306 298.008 50.5597C297.975 50.8147 297.928 51.0386 297.924 51.2625C297.912 51.9259 297.926 52.5894 297.914 53.2518C297.91 53.4726 297.857 53.6934 297.824 53.9297C297.286 53.964 296.8 53.9951 296.285 54.0282C296.256 54.3185 296.216 54.5434 296.213 54.7694C296.204 55.4329 296.216 56.0963 296.203 56.7587C296.199 56.9806 296.141 57.2003 296.112 57.389C295.559 57.6005 294.997 57.332 294.53 57.5953C294.397 58.9273 294.439 61.8444 294.603 62.6095C295.083 62.7732 295.638 62.5566 296.168 62.794C296.182 63.1475 296.205 63.474 296.207 63.7995C296.216 64.9274 296.213 66.0552 296.228 67.182C296.231 67.4018 296.292 67.6216 296.32 67.8061C296.854 67.9927 297.38 67.7501 297.901 68.058C297.907 68.3617 297.916 68.6893 297.92 69.0169C297.931 70.6745 297.938 72.3331 297.955 73.9906C297.958 74.2456 298.006 74.4996 298.036 74.7764C298.325 74.7992 298.553 74.8168 298.781 74.8345C299.038 74.8541 299.294 74.8749 299.533 74.8925C299.716 75.7519 299.714 77.4862 299.529 78.3279C299.028 78.4119 298.5 78.3538 297.978 78.3735C297.423 78.3942 296.862 78.3175 296.247 78.4471C296.234 78.841 296.21 79.1976 296.21 79.5542C296.207 81.7436 296.212 83.9319 296.204 86.1213C296.203 86.4095 296.29 86.7205 296.031 87.0273C295.56 87.0677 295.049 87.1123 294.498 87.16C294.485 87.585 294.465 87.9447 294.465 88.3044C294.462 92.1514 294.464 95.9993 294.458 99.8463C294.458 100.201 294.515 100.568 294.361 100.954C293.826 100.996 293.312 101.036 292.754 101.08C292.735 101.431 292.707 101.723 292.706 102.015C292.7 103.176 292.706 104.337 292.697 105.497C292.695 105.718 292.644 105.938 292.619 106.126C292.069 106.351 291.507 106.085 290.996 106.367C290.968 106.877 290.94 107.365 290.909 107.918C290.356 107.96 289.843 107.999 289.283 108.042C289.269 108.465 289.246 108.824 289.246 109.182C289.244 113.029 289.246 116.877 289.242 120.724C289.242 121.08 289.298 121.448 289.135 121.845C288.611 121.888 288.098 121.931 287.543 121.977C287.525 122.318 287.499 122.611 287.498 122.904C287.493 124.065 287.5 125.226 287.492 126.386C287.491 126.608 287.44 126.829 287.412 127.05C286.861 127.217 286.311 127.023 285.777 127.232C285.764 127.591 285.742 127.916 285.741 128.243C285.737 129.371 285.744 130.498 285.735 131.625C285.733 131.846 285.677 132.066 285.65 132.254C285.093 132.449 284.532 132.182 284.084 132.448C283.851 132.989 284.147 133.561 283.808 134.083C283.574 134.083 283.345 134.093 283.118 134.08C282.865 134.065 282.613 134.03 282.359 134.004C282.185 132.861 282.402 131.763 282.184 130.62C281.634 130.604 281.124 130.504 280.579 130.697C280.563 130.983 280.537 131.243 280.535 131.503C280.529 132.166 280.54 132.83 280.526 133.492C280.521 133.678 280.452 133.862 280.412 134.052C279.872 134.081 279.383 134.108 278.849 134.137C278.821 134.405 278.782 134.628 278.779 134.852C278.769 135.516 278.783 136.179 278.771 136.842C278.766 137.06 278.712 137.279 278.687 137.459C278.129 137.673 277.559 137.379 277.108 137.701C276.905 138.227 277.188 138.793 276.902 139.239C276.381 139.412 275.858 139.169 275.373 139.455C275.248 141.093 275.418 142.748 275.139 144.351C274.615 144.571 274.076 144.309 273.578 144.648C273.574 145.19 273.589 145.75 273.559 146.309C273.53 146.859 273.682 147.428 273.447 147.937C272.909 148.135 272.349 147.868 271.809 148.178C271.809 148.711 271.827 149.239 271.804 149.765C271.78 150.317 271.913 150.883 271.707 151.395C271.173 151.604 270.604 151.312 270.077 151.674C270.072 152.452 270.066 153.245 270.063 154.037C270.061 154.833 270.063 155.629 270.063 156.426V158.814C270.063 159.61 270.074 160.406 270.06 161.201C270.045 161.991 270.131 162.786 269.984 163.617C269.744 163.646 269.522 163.692 269.298 163.696C268.601 163.707 267.904 163.693 267.209 163.707C267.024 163.71 266.841 163.773 266.603 163.82C266.603 164.728 266.61 165.586 266.599 166.445C266.596 166.665 266.541 166.885 266.514 167.071C265.955 167.273 265.395 167.01 264.847 167.321C264.847 168.145 264.852 168.97 264.846 169.795C264.84 170.617 264.875 171.442 264.817 172.308C264.243 172.356 263.731 172.398 263.169 172.445C263.057 173.047 263.109 173.608 263.102 174.162C263.094 174.726 263.113 175.29 263.096 175.854C263.08 176.409 263.179 176.973 263.012 177.516C262.499 177.77 261.927 177.48 261.427 177.764C261.397 178.264 261.368 178.752 261.337 179.274C260.759 179.321 260.242 179.362 259.699 179.406C259.656 179.979 259.616 180.494 259.579 180.983C259.017 181.211 258.458 180.955 257.933 181.218C257.897 181.736 257.859 182.25 257.823 182.765C257.26 182.944 256.708 182.735 256.225 182.942C256.025 183.481 256.275 184.042 256 184.55C255.491 184.583 255.006 184.613 254.541 184.642C254.286 185.187 254.585 185.759 254.307 186.203C253.779 186.449 253.206 186.13 252.756 186.434C252.544 186.964 252.846 187.531 252.552 187.983C252.017 188.183 251.452 187.894 250.922 188.242C250.922 188.763 250.936 189.291 250.918 189.819C250.899 190.369 250.99 190.931 250.844 191.464C250.29 191.671 249.728 191.422 249.208 191.699C249.196 192.043 249.174 192.37 249.173 192.697C249.168 193.825 249.176 194.953 249.165 196.08C249.163 196.297 249.094 196.513 249.062 196.691C248.526 196.888 248.004 196.646 247.499 196.92C247.488 197.239 247.467 197.564 247.465 197.891C247.458 199.019 247.465 200.147 247.453 201.273C247.451 201.491 247.388 201.709 247.353 201.93C246.217 202.072 245.122 201.879 244.01 202.054C243.969 202.62 243.932 203.135 243.893 203.657C243.339 203.839 242.785 203.622 242.257 203.855C242.239 204.063 242.21 204.257 242.21 204.452C242.207 207.469 242.207 210.488 242.212 213.506C242.212 213.695 242.268 213.885 242.302 214.099C242.854 214.147 243.369 214.193 243.852 214.235C243.899 214.372 243.938 214.434 243.939 214.496C243.946 221.063 243.95 227.629 243.953 234.196C243.953 234.394 243.937 234.593 243.926 234.791C243.923 234.822 243.909 234.853 243.892 234.88C243.876 234.908 243.85 234.931 243.789 235.002C242.762 235.168 241.665 234.936 240.626 235.127C240.573 235.244 240.526 235.302 240.522 235.363C240.506 235.594 240.496 235.826 240.497 236.059C240.509 238.545 240.522 241.031 240.537 243.518C240.537 243.549 240.551 243.582 240.567 243.609C240.583 243.637 240.61 243.659 240.678 243.732C241.116 243.757 241.6 243.784 242.194 243.817C242.219 245.185 242.205 246.502 242.207 247.818C242.209 249.178 242.22 250.538 242.204 251.897C242.188 253.213 242.276 254.532 242.145 255.891C241.02 256.048 239.925 255.85 238.862 256.015C238.817 256.156 238.762 256.247 238.762 256.338C238.758 264.795 238.758 273.252 238.762 281.71C238.762 281.801 238.815 281.892 238.859 282.035C239.366 282.078 239.881 282.121 240.428 282.167C240.477 282.733 240.521 283.247 240.568 283.782C241.12 283.821 241.606 283.857 242.116 283.893C242.143 284.188 242.177 284.415 242.182 284.642C242.197 285.339 242.193 286.036 242.216 286.731C242.222 286.914 242.301 287.094 242.357 287.317C242.632 287.317 242.862 287.311 243.091 287.319C243.347 287.327 243.603 287.349 243.903 287.367C243.942 287.938 243.977 288.452 244.016 289.006C244.592 289.049 245.107 289.087 245.6 289.125C245.849 289.678 245.549 290.248 245.826 290.695C246.357 290.906 246.928 290.6 247.379 290.926C247.586 291.452 247.3 292.018 247.585 292.468C248.102 292.645 248.627 292.399 249.062 292.659C249.276 293.181 248.99 293.752 249.294 294.21C249.822 294.395 250.38 294.139 250.884 294.412C250.911 294.923 250.935 295.411 250.964 295.957C251.528 296.004 252.045 296.046 252.578 296.09C252.759 296.667 252.676 297.234 252.668 297.788C252.659 298.336 252.799 298.905 252.521 299.489H251.427C246.221 299.489 241.014 299.489 235.808 299.489C233.619 299.489 231.43 299.491 229.241 299.486C228.954 299.486 228.666 299.448 228.387 299.427C228.159 298.873 228.419 298.309 228.18 297.854C227.656 297.589 227.077 297.919 226.632 297.604C226.474 297.095 226.7 296.574 226.434 296.084C225.919 296.039 225.403 295.994 224.925 295.953C224.699 295.385 224.98 294.821 224.665 294.286C223.018 294.289 221.373 294.232 219.705 294.376C219.66 294.922 219.619 295.407 219.58 295.884C219.229 296.085 218.891 296.023 218.568 296.025C216.877 296.03 215.185 296.025 213.495 296.031C213.239 296.031 212.984 296.074 212.693 296.1C212.655 296.636 212.621 297.121 212.588 297.588C211.772 297.794 209.987 297.791 209.164 297.577C209.109 296.845 209.144 296.087 209.138 295.331C209.131 294.601 209.128 293.871 209.141 293.142C209.153 292.39 209.086 291.632 209.194 290.837C209.769 290.793 210.284 290.752 210.781 290.713C210.939 289.817 210.935 288.192 210.771 287.367C210.273 287.331 209.758 287.295 209.193 287.256C209.15 286.696 209.112 286.182 209.072 285.659C208.532 285.447 207.973 285.686 207.435 285.442C207.362 284.882 207.398 284.321 207.393 283.763C207.388 283.199 207.373 282.634 207.397 282.073C207.421 281.521 207.282 280.954 207.504 280.435C208.033 280.225 208.596 280.5 209.139 280.191V278.511C209.139 277.98 209.129 277.449 209.142 276.918C209.155 276.362 209.083 275.799 209.201 275.246C209.581 275.065 209.952 275.17 210.306 275.125C210.492 275.101 210.672 275.04 210.886 274.987C210.886 269.904 210.886 264.864 210.882 259.825C210.882 259.734 210.825 259.643 210.782 259.509C210.27 259.472 209.754 259.436 209.198 259.395C209.156 258.827 209.119 258.312 209.079 257.746C208.518 257.71 208.004 257.676 207.51 257.644C207.346 256.725 207.353 255.081 207.52 254.294C208.023 254.251 208.538 254.208 209.118 254.159C209.125 253.34 209.135 252.583 209.139 251.827C209.142 251.097 209.124 250.367 209.144 249.638C209.164 248.885 209.058 248.123 209.225 247.339C209.768 247.294 210.283 247.251 210.85 247.203C210.923 246.593 210.919 246.034 210.88 245.478C210.843 244.931 211.012 244.359 210.736 243.821C210.224 243.791 209.737 243.762 209.213 243.731C209.073 242.723 209.158 241.765 209.143 240.813C209.128 239.884 209.152 238.955 209.137 238.027C209.121 237.074 209.209 236.118 209.068 235.119C208.519 235.075 208.006 235.032 207.508 234.991C207.263 234.445 207.545 233.873 207.278 233.42C206.765 233.243 206.243 233.463 205.763 233.225C205.634 232.868 205.682 232.5 205.682 232.141C205.679 229.024 205.68 225.906 205.68 222.789C205.68 220.268 205.684 217.747 205.676 215.226C205.676 214.906 205.765 214.563 205.518 214.22C205.034 214.178 204.522 214.136 203.967 214.088C203.954 213.667 203.935 213.308 203.935 212.948C203.932 209.665 203.935 206.381 203.925 203.098C203.924 202.746 204.03 202.368 203.797 202.058C203.282 201.866 202.724 202.118 202.177 201.831C202.177 201.493 202.177 201.166 202.177 200.839C202.177 199.711 202.182 198.583 202.17 197.457C202.168 197.24 202.103 197.023 202.06 196.772C201.636 196.772 201.273 196.772 200.909 196.772C189.568 196.772 178.226 196.772 166.885 196.772C166.653 196.772 166.419 196.76 166.189 196.779C166.002 196.794 165.818 196.847 165.616 196.887C165.594 197.165 165.578 197.393 165.559 197.621C165.538 197.878 165.612 198.156 165.366 198.401C165.168 198.419 164.939 198.453 164.71 198.456C163.019 198.481 161.329 198.515 159.639 198.517C152.774 198.524 145.909 198.519 139.044 198.524C138.654 198.524 138.251 198.449 137.827 198.641C137.804 198.852 137.761 199.076 137.757 199.301C137.747 199.997 137.759 200.694 137.745 201.389C137.74 201.574 137.671 201.757 137.622 201.979C137.346 201.979 137.116 201.97 136.886 201.981C136.631 201.995 136.378 202.027 136.059 202.058C136.053 202.874 136.043 203.631 136.04 204.388C136.037 205.118 136.054 205.848 136.035 206.577C136.015 207.331 136.119 208.093 135.95 208.88C135.41 208.923 134.897 208.963 134.351 209.007C134.239 210.186 134.312 211.309 134.292 212.429C134.273 213.548 134.324 214.669 134.257 215.827C133.645 215.967 133.083 215.878 132.53 215.909C131.981 215.939 131.419 215.831 130.897 215.984C130.667 216.541 130.92 217.103 130.654 217.631C130.162 217.656 129.677 217.68 129.126 217.708C129.037 218.581 129.101 219.404 129.073 220.223C129.044 221.076 129.169 221.937 128.983 222.815C128.439 222.857 127.924 222.897 127.356 222.942C127.344 223.531 127.347 224.056 127.317 224.58C127.284 225.131 127.364 225.693 127.238 226.264C126.667 226.368 126.156 226.447 125.637 226.2C125.604 225.697 125.573 225.212 125.537 224.663C124.964 224.642 124.451 224.574 123.889 224.719C123.844 225.253 123.802 225.767 123.76 226.266C123.215 226.51 122.645 226.228 122.149 226.517C122.12 227.021 122.091 227.508 122.061 228.024C121.477 228.072 120.961 228.115 120.415 228.16C120.395 228.485 120.369 228.744 120.366 229.004C120.359 229.668 120.369 230.331 120.354 230.994C120.35 231.179 120.28 231.364 120.25 231.509C119.696 231.718 119.132 231.428 118.638 231.746C118.627 231.996 118.619 232.225 118.606 232.455C118.59 232.713 118.57 232.971 118.548 233.277C117.993 233.325 117.479 233.37 116.924 233.417C116.902 233.724 116.868 233.983 116.864 234.242C116.855 234.906 116.867 235.569 116.85 236.232C116.845 236.415 116.769 236.597 116.718 236.807C116.439 236.807 116.208 236.797 115.977 236.81C115.723 236.825 115.471 236.859 115.22 236.885C115.042 238.03 115.269 239.129 115.061 240.246C114.508 240.294 113.996 240.34 113.422 240.391C113.393 241.304 113.403 242.161 113.4 243.017C113.397 243.847 113.4 244.676 113.4 245.505C113.4 246.335 113.388 247.23 113.403 248.092C113.417 248.944 113.335 249.801 113.46 250.649C114.019 250.824 114.569 250.622 115.085 250.834C115.254 251.947 115.03 253.045 115.233 254.163C115.761 254.214 116.271 254.264 116.818 254.317C116.832 254.708 116.854 255.034 116.855 255.361C116.86 256.488 116.853 257.616 116.864 258.743C116.866 258.963 116.931 259.182 116.969 259.412C117.514 259.443 118.003 259.472 118.54 259.503C118.564 259.767 118.6 259.991 118.603 260.215C118.611 260.912 118.6 261.608 118.612 262.304C118.615 262.489 118.679 262.672 118.71 262.82C119.263 263.042 119.834 262.747 120.363 263.105C120.363 263.414 120.363 263.744 120.363 264.074C120.363 265.235 120.36 266.396 120.369 267.556C120.371 267.74 120.435 267.924 120.473 268.126C121.019 268.156 121.507 268.183 122.03 268.211C122.06 268.491 122.103 268.716 122.106 268.942C122.116 269.638 122.104 270.335 122.117 271.03C122.121 271.216 122.19 271.399 122.222 271.557C122.752 271.72 123.271 271.502 123.779 271.76C123.792 272.051 123.816 272.345 123.819 272.638C123.826 273.268 123.813 273.899 123.83 274.528C123.835 274.712 123.914 274.895 123.96 275.086C124.495 275.12 124.982 275.151 125.528 275.186C125.63 276.312 125.507 277.401 125.608 278.493C126.016 278.634 126.382 278.565 126.736 278.596C126.922 278.612 127.104 278.672 127.249 278.705C127.441 279.263 127.166 279.824 127.478 280.316C127.987 280.341 128.474 280.366 129.005 280.392C129.052 280.964 129.096 281.48 129.14 282.019C130.265 282.204 131.362 281.99 132.425 282.161C132.667 282.697 132.371 283.267 132.649 283.72C133.177 283.934 133.745 283.647 134.214 283.938C134.408 284.459 134.144 285.019 134.418 285.52C134.932 285.546 135.419 285.571 135.918 285.596C136.091 285.987 136.011 286.356 136.043 286.712C136.06 286.897 136.113 287.079 136.146 287.245C136.685 287.393 137.199 287.208 137.713 287.43C137.779 288.262 137.761 289.087 137.742 289.909C137.723 290.755 137.856 291.614 137.636 292.52C134.943 292.52 132.296 292.523 129.648 292.516C129.489 292.516 129.33 292.477 129.135 292.451C129.091 291.904 129.049 291.39 129.006 290.854C128.388 290.715 127.825 290.766 127.27 290.784C126.723 290.803 126.152 290.642 125.612 290.932C125.582 291.439 125.552 291.927 125.524 292.398C124.69 292.557 120.429 292.601 114.255 292.519C113.999 292.516 113.743 292.478 113.489 292.456C113.293 291.908 113.517 291.355 113.303 290.867C112.774 290.656 112.213 290.899 111.682 290.644C111.563 289.562 111.736 288.47 111.573 287.39C111.027 287.219 110.478 287.418 109.949 287.208C109.93 286.916 109.901 286.657 109.898 286.396C109.89 285.733 109.901 285.069 109.887 284.407C109.882 284.223 109.818 284.039 109.784 283.866C109.254 283.706 108.737 283.887 108.249 283.674C108.232 283.381 108.208 283.121 108.205 282.86C108.192 281.666 108.19 280.473 108.168 279.279C108.164 279.064 108.088 278.852 108.046 278.639C107.493 278.604 107.009 278.574 106.501 278.542C106.326 277.406 106.55 276.308 106.343 275.206C105.798 275.159 105.283 275.115 104.745 275.068C104.561 273.908 104.805 272.779 104.582 271.667C104.025 271.639 103.537 271.613 103.012 271.587C102.98 271.312 102.937 271.088 102.933 270.863C102.922 270.2 102.936 269.537 102.923 268.874C102.919 268.653 102.861 268.435 102.833 268.246C102.296 268.074 101.776 268.291 101.269 268.031C101.252 267.778 101.223 267.518 101.22 267.258C101.213 266.595 101.225 265.931 101.21 265.269C101.206 265.083 101.135 264.899 101.093 264.704C100.559 264.673 100.071 264.644 99.5326 264.613C99.5087 264.345 99.4755 264.122 99.4724 263.898C99.4641 263.202 99.4766 262.505 99.4631 261.81C99.46 261.626 99.3936 261.444 99.3636 261.296C98.8079 261.077 98.2378 261.372 97.7547 261.04C97.6251 259.954 97.8148 258.859 97.6376 257.781C97.0871 257.6 96.5346 257.816 96.0287 257.592C95.8504 256.488 96.094 255.39 95.8732 254.292C95.3476 254.255 94.8635 254.219 94.3524 254.183C94.0953 253.042 94.4167 251.904 94.1627 250.838C93.6216 250.607 93.0607 250.879 92.5155 250.584C92.5124 250.067 92.5238 249.54 92.501 249.015C92.4771 248.462 92.6005 247.895 92.4076 247.37C91.88 247.153 91.315 247.42 90.7925 247.133C90.777 246.871 90.7521 246.61 90.75 246.35C90.7438 245.687 90.7552 245.023 90.7407 244.361C90.7366 244.175 90.665 243.992 90.6246 243.804C90.0856 243.776 89.5983 243.751 89.0738 243.724C89.0458 243.438 89.0074 243.213 89.0043 242.988C88.995 242.292 89.0074 241.595 88.9929 240.9C88.9888 240.715 88.9173 240.533 88.8851 240.386C88.3523 240.209 87.8288 240.45 87.354 240.173C87.2679 239.65 87.2285 239.138 87.3892 238.606C87.9231 238.573 88.4083 238.543 88.9318 238.512C88.9794 237.941 89.0219 237.426 89.0686 236.865C89.6284 236.824 90.1415 236.785 90.7086 236.744C90.7801 235.87 90.7552 235.046 90.7407 234.225C90.7252 233.375 90.8433 232.515 90.665 231.697C90.1218 231.479 89.562 231.742 89.0624 231.471C88.8862 230.374 89.1298 229.276 88.909 228.167C88.3668 228.081 87.8599 228.008 87.3478 228.227C87.1798 229.332 87.4151 230.432 87.1923 231.54C86.647 231.581 86.1328 231.621 85.6176 231.659C85.4507 232.219 85.6445 232.768 85.4569 233.244C84.9075 233.464 84.3467 233.214 83.8128 233.483C83.791 233.972 83.7692 234.457 83.7464 234.98C83.1711 235.083 82.6621 235.107 82.151 234.97C81.8908 234.464 82.1863 233.891 81.8888 233.368C81.4015 233.361 80.9185 233.294 80.3877 233.418C80.2716 234.002 80.3359 234.563 80.3255 235.117C80.3141 235.681 80.3379 236.245 80.3182 236.808C80.2996 237.363 80.4115 237.929 80.2146 238.506C79.6796 238.545 79.1655 238.584 78.6503 238.622C78.4761 239.181 78.6814 239.732 78.4865 240.195C77.936 240.431 77.37 240.157 76.8569 240.45C76.8278 240.942 76.7988 241.428 76.7667 241.957C76.2058 242.003 75.6927 242.045 75.136 242.091C75.0894 242.66 75.0469 243.173 75.0013 243.729C74.4311 243.765 73.918 243.856 73.3571 243.634C73.3571 243.36 73.3654 243.095 73.355 242.833C73.3436 242.577 73.4214 242.295 73.1768 242.095C72.0364 241.96 70.5965 241.991 69.902 242.172C69.8646 242.673 69.8263 243.187 69.79 243.666C69.224 243.889 68.6663 243.632 68.1697 243.892C67.9852 244.995 68.2371 246.094 68.0204 247.16C67.5032 247.417 66.932 247.127 66.4313 247.41C66.4012 247.91 66.3722 248.398 66.3411 248.92C65.7637 248.969 65.2484 249.012 64.7052 249.058C64.6824 249.344 64.6513 249.57 64.6472 249.796C64.6368 250.493 64.6451 251.189 64.6285 251.885C64.6244 252.07 64.5549 252.255 64.5145 252.446C63.9765 252.476 63.4882 252.504 63.029 252.53C62.8092 252.891 62.8901 253.231 62.889 253.554C62.8807 255.246 62.889 256.936 62.8818 258.628C62.8818 258.881 62.832 259.135 62.8092 259.354C62.2504 259.58 61.6907 259.315 61.1734 259.596C61.1609 259.944 61.1402 260.271 61.1392 260.598C61.135 261.726 61.1423 262.853 61.1309 263.98C61.1288 264.197 61.0604 264.414 61.0293 264.594C60.4861 264.758 59.9667 264.536 59.4463 264.812C59.439 265.131 59.4266 265.458 59.4256 265.785C59.4225 266.913 59.4297 268.041 59.4183 269.168C59.4162 269.383 59.3509 269.599 59.3126 269.829C58.7663 269.866 58.279 269.9 57.7255 269.939C57.7078 270.309 57.6788 270.63 57.6788 270.953C57.6747 273.208 57.6799 275.463 57.6726 277.719C57.6726 278.003 57.7638 278.318 57.4901 278.585C57.0268 278.618 56.5416 278.655 56.0772 278.688C55.8906 279.708 55.8543 289.671 56.0233 290.662C56.3198 290.85 56.6598 290.739 56.9801 290.778C57.1988 290.804 57.4145 290.853 57.6353 290.892C57.7576 292.029 57.5814 293.122 57.7514 294.229C58.8855 294.367 59.9771 294.187 61.0386 294.338C61.079 294.498 61.1236 294.591 61.1236 294.684C61.1288 296.708 61.1319 298.73 61.1257 300.754C61.1257 300.904 61.0479 301.053 60.9951 301.246C60.5897 301.246 60.2279 301.246 59.8661 301.246C57.1138 301.246 54.3615 301.244 51.6092 301.251C51.3231 301.251 51.009 301.161 50.7467 301.421C50.7218 301.897 50.6959 302.385 50.67 302.855C49.8148 303.047 46.3358 303.043 45.5593 302.855C45.5148 302.351 45.4702 301.836 45.4194 301.262C45.0286 301.255 44.702 301.247 44.3744 301.247C43.2134 301.245 42.0534 301.249 40.8923 301.242C40.7057 301.241 40.5191 301.194 40.3574 301.172C40.1221 300.615 40.3854 300.051 40.1076 299.53C39.0284 299.399 37.9348 299.598 36.8805 299.413C36.669 298.87 36.924 298.311 36.668 297.816C36.1507 297.641 35.594 297.856 35.0705 297.621C35.0207 297.108 34.9907 296.626 35.1047 296.096C35.3898 296.072 35.6469 296.051 35.904 296.03C36.1611 296.008 36.4181 295.986 36.7468 295.959C36.8556 294.242 36.7115 292.561 36.8359 290.846C37.4081 290.798 37.9213 290.755 38.4552 290.711C38.6065 289.899 38.5132 289.138 38.5308 288.381C38.5474 287.652 38.5205 286.922 38.5381 286.193C38.5568 285.438 38.451 284.677 38.6252 283.883C39.1508 283.833 39.6608 283.785 40.2061 283.733C40.2206 283.339 40.2423 283.013 40.2434 282.686C40.2475 281.028 40.2423 279.37 40.2486 277.711C40.2496 277.457 40.2973 277.202 40.3263 276.912C40.8934 276.863 41.4044 276.82 41.957 276.773C41.9704 276.383 41.9901 276.057 41.9901 275.73C41.9922 272.978 41.9891 270.225 41.9953 267.473C41.9953 267.15 41.9114 266.81 42.1353 266.472C42.6308 266.436 43.145 266.398 43.7141 266.356C43.7276 265.934 43.7473 265.576 43.7483 265.218C43.7514 262.466 43.7462 259.712 43.7545 256.96C43.7545 256.644 43.654 256.298 43.9225 255.988C44.4055 255.962 44.8938 255.935 45.352 255.91C45.5759 255.508 45.493 255.135 45.494 254.778C45.5013 251.495 45.4961 248.211 45.5013 244.928C45.5013 244.572 45.4432 244.205 45.5915 243.869C46.1098 243.633 46.682 243.935 47.2086 243.599C47.2086 243.249 47.2086 242.886 47.2086 242.524C47.2086 237.516 47.2086 232.508 47.2086 227.5C47.2086 226.206 47.2118 224.913 47.2035 223.62C47.2024 223.399 47.1547 223.179 47.1236 222.915C46.5815 222.887 46.0963 222.863 45.5894 222.837C45.4567 222.436 45.4982 222.071 45.4982 221.715C45.494 219.029 45.4992 216.342 45.4919 213.656C45.4919 213.297 45.5635 212.927 45.3717 212.514C44.8855 212.475 44.3713 212.434 43.853 212.392C43.6902 211.996 43.7535 211.629 43.7524 211.274C43.7462 208.521 43.7524 205.768 43.7431 203.016C43.7431 202.696 43.8364 202.353 43.6156 202.067C43.1108 201.859 42.5499 202.128 42.0254 201.842C42.014 201.513 41.9922 201.186 41.9922 200.86C41.9891 198.637 41.9943 196.416 41.985 194.193C41.9839 193.908 42.0783 193.594 41.8087 193.309C41.3215 193.281 40.8042 193.157 40.3346 193.4C40.1262 193.942 40.3792 194.502 40.1397 194.956C39.6235 195.169 39.0937 194.903 38.6283 195.187C38.4593 196.265 38.6521 197.364 38.4396 198.41C37.8974 198.655 37.3335 198.388 36.8297 198.649C36.7955 199.153 36.7623 199.638 36.725 200.186C36.3518 200.205 36.0284 200.232 35.7049 200.234C34.577 200.24 33.4502 200.232 32.3223 200.241C32.0984 200.243 31.8755 200.294 31.6185 200.326C31.5998 200.631 31.5728 200.892 31.5697 201.153C31.5614 201.817 31.5718 202.48 31.5552 203.142C31.5511 203.327 31.4764 203.509 31.4329 203.7C30.8959 203.731 30.4087 203.758 29.8758 203.789C29.8354 204.354 29.7991 204.868 29.7597 205.426C29.1906 205.47 28.6754 205.51 28.1747 205.548C27.9249 206.092 28.2141 206.661 27.9321 207.153C27.4014 207.2 26.8861 207.282 26.3616 207.08C26.2258 205.959 26.4342 204.865 26.2237 203.785C25.667 203.737 25.1819 203.696 24.704 203.812C24.478 204.34 24.7403 204.904 24.4656 205.429C23.9535 205.472 23.4403 205.514 22.9023 205.559C22.867 206.11 22.8359 206.596 22.8048 207.083C22.4151 207.264 22.045 207.164 21.6915 207.206C21.5059 207.229 21.3255 207.288 21.1348 207.331C21.1058 207.869 21.0788 208.357 21.0498 208.892C20.4859 208.932 19.9717 208.968 19.414 209.009C19.3694 209.577 19.33 210.093 19.2906 210.591C18.3732 210.755 18.3618 210.754 17.6931 210.548C17.5335 209.482 17.7605 208.385 17.5563 207.284C16.9571 207.139 16.3932 207.197 15.8396 207.21C15.2912 207.224 14.721 207.074 14.2131 207.328C14.0109 207.862 14.2939 208.425 13.9715 208.949C13.7393 208.949 13.5092 208.941 13.2791 208.951C13.022 208.961 12.7649 208.986 12.4528 209.009C12.4083 209.564 12.3658 210.081 12.3212 210.63C11.7697 210.735 11.2607 210.771 10.7693 210.612C10.5527 210.076 10.8222 209.511 10.5361 209.005C9.97111 208.9 9.40821 208.962 8.84945 208.951C8.28551 208.94 7.72158 208.934 7.15867 208.953C6.60925 208.97 6.04635 208.869 5.50936 209.034C5.32277 209.588 5.53632 210.144 5.30411 210.666C4.78889 210.717 4.30788 210.743 3.78127 210.637C3.75535 210.377 3.71699 210.153 3.71388 209.929C3.70455 209.233 3.71596 208.536 3.70352 207.84C3.70041 207.654 3.63717 207.468 3.59052 207.224C3.18934 207.215 2.83066 207.209 2.47094 207.201C1.64369 207.181 0.816445 207.161 -0.00976562 207.142C-0.00976562 206.611 -0.00976562 206.08 -0.00976562 205.549C0.451544 205.528 0.91389 205.517 1.37416 205.481C1.55869 205.467 1.7401 205.396 1.91633 205.353C2.05939 204.226 1.84066 203.13 2.05006 202.084C2.59845 201.865 3.15824 202.129 3.69315 201.838C3.69937 201.303 3.72632 200.777 3.70455 200.252C3.68175 199.704 3.81755 199.138 3.60607 198.637C3.06701 198.384 2.49167 198.706 2.00237 198.369C1.97542 197.843 1.86657 197.324 2.09567 196.812C2.61503 196.785 3.1033 196.76 3.63095 196.733C3.66101 196.453 3.70352 196.229 3.70766 196.005C3.71803 195.309 3.70663 194.612 3.71699 193.916C3.7201 193.73 3.77297 193.543 3.79785 193.392C4.34106 193.12 4.92158 193.459 5.35594 193.137C5.52284 192.624 5.28648 192.101 5.53735 191.66C6.05568 191.419 6.62687 191.722 7.08818 191.432C7.29966 190.91 7.00318 190.343 7.2924 189.886C7.8242 189.694 8.38607 189.967 8.92824 189.641C8.92824 189.317 8.92824 188.989 8.92824 188.662C8.93031 186.97 8.92824 185.279 8.93757 183.587C8.9386 183.366 8.98629 183.144 9.0091 182.952C9.55748 182.73 10.1173 182.993 10.6024 182.732C10.7807 182.206 10.563 181.65 10.7963 181.141C11.3177 181.106 11.8029 181.073 12.3264 181.036C12.371 180.474 12.4124 179.96 12.456 179.409C13.0313 179.361 13.5434 179.319 14.0949 179.273C14.1239 178.728 14.1498 178.242 14.1747 177.779C14.7252 177.446 15.3534 177.836 15.8489 177.461C15.9816 176.38 15.7836 175.285 15.9671 174.205C16.5165 174.031 17.0691 174.238 17.5532 174.034C17.7501 173.494 17.5044 172.933 17.775 172.421C18.2819 172.39 18.7671 172.36 19.2357 172.33C19.4876 171.785 19.1911 171.213 19.4679 170.767C19.9945 170.522 20.5678 170.837 21.0208 170.535C21.2291 170.009 20.9295 169.442 21.226 168.99C21.763 168.799 22.3259 169.079 22.7851 168.787C22.9707 168.253 22.7053 167.693 22.9987 167.191C23.2496 167.18 23.4797 167.171 23.7078 167.158C23.9669 167.143 24.2251 167.124 24.5381 167.103C24.5837 166.55 24.6273 166.035 24.6719 165.498C25.7852 165.291 26.883 165.523 28.0016 165.339C28.1094 164.788 28.0451 164.26 28.0638 163.739C28.0835 163.182 28.0182 162.622 28.1166 162.051C28.5033 161.894 28.8724 161.985 29.2248 161.947C29.4114 161.926 29.5939 161.871 29.74 161.839C29.9411 161.283 29.6592 160.72 29.9733 160.226C30.4802 160.2 30.9674 160.176 31.4982 160.149C31.5459 159.577 31.5894 159.063 31.6309 158.572C32.1689 158.301 32.7422 158.602 33.2408 158.307C33.2709 157.81 33.2999 157.322 33.331 156.803C33.9105 156.755 34.4257 156.712 34.9523 156.668C35.0829 156.051 34.9907 155.487 35.0311 154.931C35.0705 154.382 34.9036 153.812 35.1493 153.306C35.6883 153.115 36.2481 153.381 36.7509 153.087C36.7768 152.578 36.8007 152.089 36.8276 151.549C37.3926 151.503 37.9078 151.461 38.4614 151.416C38.5122 150.862 38.5588 150.351 38.6075 149.817C39.1622 149.783 39.6483 149.754 40.176 149.721C40.2237 149.147 40.2662 148.632 40.3118 148.084C40.8778 148.04 41.392 148.001 41.9373 147.959C41.9777 147.385 42.014 146.871 42.0534 146.319C42.6287 146.278 43.1429 146.241 43.6602 146.203C43.8499 145.648 43.6291 145.094 43.8737 144.54C44.4055 144.532 44.9311 144.532 45.4557 144.515C46.0082 144.496 46.569 144.58 47.163 144.434C47.1796 144.065 47.2055 143.74 47.2066 143.416C47.2118 142.288 47.2035 141.161 47.2138 140.033C47.2159 139.812 47.275 139.591 47.3113 139.342C47.6202 139.326 47.8825 139.304 48.1437 139.302C48.8072 139.295 49.4706 139.308 50.133 139.292C50.3165 139.288 50.4979 139.211 50.6773 139.169C50.7073 138.628 50.7333 138.14 50.7602 137.655C51.319 137.436 51.8819 137.69 52.3722 137.436C52.592 136.935 52.3027 136.363 52.5816 135.911C53.0979 135.745 53.6183 135.967 54.1117 135.71C54.1563 135.196 54.2019 134.681 54.2485 134.137C54.5751 134.119 54.8353 134.097 55.0965 134.093C55.76 134.087 56.4234 134.099 57.0858 134.083C57.2693 134.079 57.4518 134.006 57.6394 133.964C57.6684 133.424 57.6954 132.936 57.7244 132.41C58.8419 132.235 59.9387 132.407 61.0106 132.194C61.0987 131.697 61.1215 131.246 60.9971 130.73C59.9118 130.571 58.8233 130.655 57.7182 130.513C57.6892 129.938 57.5793 129.424 57.8312 128.873C58.3713 128.873 58.901 128.893 59.4287 128.868C59.975 128.842 60.541 128.987 61.0894 128.742C61.1246 128.217 61.1578 127.73 61.1941 127.184C61.7539 127.146 62.2681 127.111 62.8258 127.072C62.8662 126.507 62.9035 125.992 62.9419 125.46C63.3369 125.316 63.7038 125.4 64.0584 125.362C64.2429 125.342 64.4243 125.283 64.6078 125.242C64.6358 124.7 64.6617 124.212 64.6887 123.683C65.265 123.638 65.7802 123.598 66.2592 123.56C66.5401 123.014 66.2239 122.438 66.5722 121.91C67.0854 121.91 67.613 121.931 68.1386 121.905C68.687 121.878 69.2551 122.025 69.8118 121.772C69.8253 121.487 69.8294 121.224 69.8522 120.962C69.874 120.71 69.7703 120.425 70.0533 120.187C71.0672 120.159 72.1204 120.131 73.1581 120.103C73.2203 119.956 73.2897 119.867 73.2918 119.777C73.3157 118.849 73.3333 117.921 73.3374 116.993C73.3374 116.875 73.2524 116.756 73.1985 116.614C72.7279 116.565 72.2769 116.518 71.7462 116.463C71.7462 115.979 71.5544 115.535 71.8716 115.143C74.0579 114.756 76.2597 115.144 78.4346 114.704C78.4834 114.205 78.5269 113.754 78.5694 113.318C78.9613 113.127 79.3313 113.202 79.689 113.202C83.5692 113.196 87.4483 113.2 91.3285 113.195C91.6851 113.195 92.0521 113.251 92.4439 113.101C92.4823 112.571 92.5196 112.056 92.5611 111.486C92.9322 111.469 93.2567 111.442 93.5811 111.441C95.8027 111.437 98.0242 111.443 100.246 111.435C100.567 111.434 100.911 111.525 101.239 111.266C101.283 110.844 101.331 110.394 101.386 109.881C102.283 109.816 103.134 109.705 103.985 109.699C107.665 109.68 111.346 109.679 115.027 109.699C115.957 109.705 116.876 109.614 117.797 109.533C118.19 109.497 118.286 109.395 118.362 108.971C118.419 108.654 118.362 108.3 118.716 108.004C119.016 107.997 119.377 107.983 119.739 107.982C123.586 107.98 127.432 107.982 131.279 107.981C133.666 107.981 136.054 107.984 138.441 107.977C138.764 107.977 139.106 108.057 139.447 107.824C139.461 107.589 139.488 107.33 139.49 107.07C139.497 106.406 139.485 105.743 139.5 105.08C139.504 104.895 139.571 104.711 139.621 104.476H140.75C144.597 104.476 148.443 104.479 152.29 104.472C152.643 104.472 153.016 104.558 153.354 104.363C153.523 103.848 153.298 103.294 153.546 102.765C153.901 102.752 154.227 102.73 154.554 102.729C156.875 102.726 159.196 102.727 161.517 102.727C163.705 102.727 165.894 102.73 168.082 102.723C168.401 102.722 168.745 102.808 169.065 102.566C169.095 102.086 169.124 101.602 169.157 101.065C169.54 101.047 169.863 101.018 170.187 101.018C172.408 101.014 174.63 101.019 176.851 101.011C177.139 101.011 177.45 101.096 177.752 100.846C177.843 100.363 177.885 99.8525 177.721 99.3653C177.184 99.1445 176.622 99.415 176.109 99.1352C176.095 98.8636 176.068 98.6013 176.075 98.3411C176.081 98.0882 176.121 97.8373 176.152 97.5305C179.021 97.4703 181.828 97.5605 184.681 97.4662C184.737 96.8867 184.786 96.3736 184.836 95.847C185.645 95.6852 186.407 95.7848 187.164 95.7671C187.893 95.7495 188.623 95.7775 189.352 95.7599C190.108 95.7412 190.87 95.8438 191.676 95.6749C191.723 95.1555 191.77 94.6445 191.818 94.1034C192.956 93.9696 194.05 94.1479 195.147 93.9883C195.192 93.4109 195.231 92.8957 195.268 92.4095C195.832 92.1814 196.391 92.4416 196.909 92.1742C196.98 91.6527 197.017 91.1417 196.873 90.6037C195.75 90.4544 194.656 90.6483 193.593 90.4845C193.418 89.7091 193.41 88.0639 193.582 87.1455C193.851 87.1268 194.139 87.0916 194.428 87.0895C195.622 87.0822 196.815 87.0916 198.009 87.0802C198.226 87.0781 198.441 87.0055 198.664 86.9641C198.7 86.4136 198.731 85.9264 198.765 85.3915C199.108 85.3728 199.399 85.3438 199.691 85.3417C200.852 85.3366 202.012 85.3428 203.173 85.3355C203.395 85.3345 203.616 85.2899 203.874 85.2619C203.914 84.698 203.951 84.1838 203.991 83.6282C205.126 83.4996 206.219 83.6748 207.276 83.51C207.513 82.9782 207.235 82.4112 207.534 81.8887C207.788 81.8701 208.046 81.839 208.304 81.8359C208.968 81.8276 209.631 81.84 210.293 81.8255C210.478 81.8214 210.66 81.7509 210.807 81.7198C210.999 81.1869 210.759 80.6655 211.024 80.169C212.094 80.0342 213.189 80.2218 214.284 80.057C214.333 79.4765 214.378 78.9602 214.418 78.4792C214.983 78.2512 215.545 78.5197 216.011 78.2678C216.212 77.7329 215.961 77.1752 216.196 76.7128C216.735 76.4931 217.296 76.7616 217.813 76.4775C217.926 75.3953 217.769 74.3016 217.904 73.265C218.472 73.0307 219.039 73.3127 219.548 73.0048C219.656 72.1745 219.607 71.3472 219.593 70.5252C219.58 69.6793 219.713 68.8189 219.511 68.0228C218.947 67.7802 218.384 68.0497 217.934 67.7978C217.751 67.2691 217.973 66.7498 217.736 66.2532C217.218 66.2097 216.702 66.1672 216.144 66.1205C216.126 65.7681 216.1 65.4768 216.098 65.1855C216.093 64.0245 216.099 62.8645 216.093 61.7034C216.092 61.4816 216.051 61.2598 216.029 61.0421C215.483 60.8202 214.92 61.0742 214.401 60.8109C214.334 60.3133 214.306 59.8303 214.436 59.2954C214.969 59.2508 215.483 59.2072 216.034 59.1606C216.078 58.6018 216.117 58.0877 216.158 57.5538C217.312 57.3579 218.441 57.6274 219.492 57.3921C219.721 56.8271 219.461 56.2642 219.735 55.7635C220.252 55.7335 220.737 55.7045 221.214 55.6765C221.422 55.1198 221.185 54.56 221.445 54.0345C221.716 54.0148 221.974 53.9826 222.233 53.9795C222.896 53.9712 223.56 53.9837 224.222 53.9691C224.406 53.965 224.59 53.8955 224.788 53.852C224.801 53.57 224.807 53.3409 224.823 53.1118C224.842 52.8579 224.871 52.6049 224.897 52.3313C226.027 52.1737 227.123 52.3779 228.151 52.2006C228.415 51.6367 228.116 51.0655 228.451 50.5172C228.953 50.5172 229.481 50.5265 230.007 50.5151C230.562 50.5026 231.124 50.57 231.723 50.4498C231.767 49.8962 231.806 49.3831 231.85 48.8223C232.414 48.7279 232.941 48.786 233.464 48.7632C234.02 48.7393 234.583 48.8161 235.177 48.6927C235.222 48.1495 235.264 47.6364 235.31 47.0807C235.879 47.033 236.392 46.9905 236.874 46.9512C237.132 46.4059 236.813 45.8326 237.142 45.3413C238.193 45.2905 239.239 45.2324 240.215 45.0241C240.446 44.5275 240.189 44.0071 240.564 43.5935C241.062 43.5593 241.582 43.524 242.132 43.4867C242.179 42.9145 242.221 42.3983 242.266 41.8478C242.834 41.8012 243.345 41.7576 243.909 41.711C243.921 41.1232 243.916 40.5976 243.949 40.0741C243.985 39.5216 243.854 38.9535 244.052 38.4311C244.582 38.2124 245.147 38.4839 245.618 38.2196C245.836 37.6992 245.565 37.1384 245.816 36.673C246.343 36.4718 246.901 36.7279 247.349 36.4905C247.585 35.9411 247.305 35.3761 247.602 34.8744C248.102 34.8423 248.587 34.8112 249.065 34.7801C249.289 34.2327 249.04 33.6719 249.299 33.1432C249.815 33.0997 250.327 33.0572 250.869 33.0116C251.005 31.8754 250.807 30.7807 251.001 29.6778C251.554 29.6373 252.068 29.6 252.619 29.5596C252.659 28.9843 252.697 28.4691 252.733 27.9507C253.288 27.7621 253.841 27.9777 254.329 27.7724C254.539 27.2448 254.282 26.6809 254.522 26.231C255.05 25.9625 255.631 26.3056 256.064 25.9832C256.236 25.469 255.992 24.9445 256.301 24.4262C256.608 24.42 256.936 24.4086 257.263 24.4075C258.921 24.4055 260.579 24.4096 262.237 24.4034C262.493 24.4034 262.749 24.3609 263.029 24.336C263.079 23.7628 263.124 23.2465 263.172 22.7033C263.499 22.6857 263.76 22.6629 264.021 22.6598C264.685 22.6536 265.348 22.665 266.01 22.6504C266.194 22.6463 266.376 22.5737 266.522 22.5406C266.715 21.9829 266.44 21.421 266.756 20.9327C267.265 20.9068 267.752 20.883 268.275 20.8571C268.303 20.5689 268.343 20.3439 268.345 20.119C268.354 19.4224 268.342 18.7258 268.356 18.0302C268.36 17.8457 268.432 17.6632 268.464 17.5181C268.996 17.3419 269.519 17.5782 269.957 17.3294C270.199 16.809 269.898 16.2378 270.186 15.7745C270.705 15.564 271.27 15.8543 271.807 15.5257C271.807 15.0043 271.796 14.4766 271.81 13.949C271.825 13.3964 271.746 12.8356 271.885 12.2489C272.446 12.2054 272.96 12.166 273.504 12.1245C273.607 11.5419 273.546 11.0132 273.565 10.4887C273.587 9.93409 273.51 9.37224 273.635 8.78032C274.188 8.74197 274.701 8.70672 275.244 8.6694C275.411 7.52807 275.211 6.43028 275.389 5.29413C275.916 5.24852 276.428 5.20291 276.973 5.15626C277.01 4.6141 277.044 4.12792 277.083 3.57851C277.632 3.53601 278.146 3.49558 278.715 3.451C278.753 2.89537 278.789 2.38224 278.828 1.82764C279.976 1.65659 281.104 1.90124 282.163 1.6794C282.406 1.1248 282.124 0.558803 282.427 0.0435971C282.916 0.00316845 283.399 -0.0382968 283.922 0.0892088C283.966 0.631367 284.009 1.14657 284.054 1.70739C284.617 1.74782 285.131 1.78514 285.656 1.82246C285.835 2.3698 285.625 2.92232 285.834 3.40954C286.362 3.62516 286.924 3.37844 287.39 3.60753C287.634 4.13207 287.32 4.70429 287.613 5.15004C288.147 5.34285 288.716 5.05363 289.199 5.40713C289.23 5.90264 289.261 6.38985 289.291 6.86463C289.836 7.10927 290.405 6.81694 290.865 7.08854C291.077 7.61411 290.799 8.18011 291.079 8.64867C291.598 8.84874 292.158 8.58855 292.684 8.87051C292.694 9.74543 292.697 10.6038 292.717 11.4621C292.722 11.6798 292.78 11.8964 292.807 12.0758C293.365 12.3059 293.939 12.0011 294.417 12.3494C294.535 13.4379 294.364 14.5305 294.523 15.6096C295.077 15.7952 295.631 15.5744 296.162 15.8149C296.177 16.1601 296.201 16.4856 296.202 16.8121C296.205 19.0336 296.2 21.2562 296.209 23.4777C296.21 23.7628 296.113 24.0789 296.408 24.3702C296.85 24.4127 297.333 24.4646 297.853 24.308C297.898 23.7773 297.94 23.2621 297.985 22.7261C299.001 22.5986 299.959 22.6774 300.913 22.6629C301.841 22.6494 302.771 22.6453 303.699 22.6639C304.648 22.6836 305.606 22.5737 306.528 22.7365C306.751 23.2807 306.48 23.8415 306.741 24.3132C307.264 24.5309 307.827 24.2645 308.346 24.5506C308.47 25.6287 308.273 26.7234 308.478 27.8502H309.992L310 27.8471Z" fill="#692905"/>
</g>
<defs>
<clipPath id="clip0_104_110">
<rect width="310" height="303" fill="white"/>
</clipPath>
</defs>
</svg>
