<svg width="120" height="305" viewBox="0 0 120 305" fill="none" xmlns="http://www.w3.org/2000/svg">
<path d="M25.0457 183.377C24.0659 183.639 23.1243 183.349 22.1723 183.616C22.127 184.036 22.0827 184.449 22.0353 184.891C21.6077 185.121 21.139 184.981 20.6908 185.008C20.2653 185.034 19.8378 185.013 19.3474 185.013C19.2825 184.526 19.2237 184.083 19.164 183.629C18.4294 183.391 17.701 183.535 16.985 183.496C16.304 183.459 15.6127 183.56 14.9039 183.401C14.8575 182.967 14.8173 182.584 14.7761 182.196C14.3578 181.94 13.9035 182.129 13.4378 181.979C13.4028 181.833 13.3348 181.655 13.3214 181.473C13.2678 180.756 13.2318 180.038 13.1864 179.268C12.762 179.198 12.3849 179.135 11.9481 179.063C11.8955 178.62 11.843 178.176 11.7956 177.77C11.3948 177.422 10.9096 177.668 10.4862 177.439C10.2513 177.044 10.3945 176.574 10.3512 176.127C10.3079 175.675 10.4305 175.209 10.2255 174.715C9.82679 174.654 9.41572 174.592 8.96962 174.524C8.87587 174.111 8.85629 173.737 8.99229 173.309C9.39511 173.279 9.78249 173.25 10.1915 173.221C10.4707 172.752 10.2956 172.276 10.3193 171.806C9.53317 171.538 8.80478 171.682 8.08875 171.648C7.40673 171.615 6.71749 171.704 5.99837 171.563C5.95304 171.13 5.91286 170.747 5.86753 170.313C5.63263 170.275 5.41525 170.212 5.19683 170.209C4.33966 170.196 3.48249 170.203 2.62532 170.203H1.59507C1.5415 169.991 1.47865 169.813 1.45289 169.63C1.41786 169.374 1.40962 169.115 1.38593 168.795C0.946009 168.729 0.534938 168.668 0.138291 168.608C-0.0595181 167.761 -0.043034 165.573 0.174349 164.509C0.529787 164.453 0.912011 164.394 1.36532 164.324C1.39108 164.088 1.44156 163.835 1.44259 163.583C1.45083 162.201 1.44259 160.818 1.44877 159.436C1.4498 159.114 1.38593 158.777 1.59301 158.45C1.93505 158.396 2.28534 158.342 2.67374 158.281C2.82828 157.552 2.96531 156.851 2.96634 156.13C2.96634 154.813 2.96427 153.497 2.97046 152.18C2.97149 151.859 3.00239 151.537 3.02197 151.17C3.4588 151.12 3.84102 151.077 4.19337 151.037C4.50553 150.742 4.40869 150.393 4.41075 150.077C4.41899 148.2 4.41796 146.325 4.41075 144.448C4.40869 143.757 4.5488 143.092 4.7054 142.394C5.08041 142.32 5.42658 142.251 5.73669 142.19C6.00043 141.865 5.92831 141.523 5.93037 141.202C5.93862 139.918 5.93037 138.635 5.93655 137.351C5.93759 137.028 5.96437 136.705 5.98086 136.338C6.40223 136.259 6.7793 136.187 7.21407 136.105C7.25013 135.878 7.31194 135.662 7.31503 135.444C7.34388 133.602 7.35933 131.759 7.38818 129.918C7.39333 129.596 7.31091 129.257 7.55096 128.905C7.92906 128.863 8.34426 128.816 8.7749 128.768C8.99744 128.142 8.8769 127.514 8.89544 126.898C8.91502 126.24 8.8975 125.581 8.90059 124.922C8.90368 124.301 8.9109 123.678 8.91708 123.078C9.34051 122.763 9.81237 123.018 10.2677 122.789C10.2914 122.58 10.3419 122.328 10.344 122.074C10.3522 120.725 10.344 119.375 10.3512 118.026C10.3533 117.704 10.2863 117.367 10.5026 117.037C10.9086 116.996 11.3248 116.952 11.7111 116.913C11.9357 116.57 11.8626 116.232 11.8636 115.91C11.8688 114.198 11.8595 112.486 11.8636 110.776C11.8636 110.422 11.8018 110.056 11.9718 109.673C12.3633 109.631 12.7476 109.591 13.0865 109.555C13.3688 109.32 13.3101 109.04 13.3111 108.786C13.3183 107.469 13.3142 106.153 13.3204 104.837C13.3214 104.512 13.3451 104.187 13.3616 103.8C13.8149 103.738 14.226 103.683 14.601 103.631C14.8761 103.409 14.8287 103.131 14.8297 102.875C14.8349 101.558 14.8328 100.242 14.8328 98.9252V97.9803C15.247 97.6221 15.7363 97.8938 16.1196 97.6519C16.3349 97.4553 16.2762 97.1774 16.2782 96.9232C16.2844 95.6067 16.2782 94.2902 16.2834 92.9737C16.2844 92.6495 16.3081 92.3253 16.3236 91.9393C16.7779 91.8806 17.189 91.8271 17.5712 91.7787C17.8648 91.5265 17.7958 91.2126 17.7979 90.9264C17.8061 89.5112 17.7979 88.0959 17.8051 86.6806C17.8092 85.992 17.838 85.3033 17.8545 84.6652C18.2388 84.2421 18.7385 84.5437 19.1753 84.2802C19.1969 84.0733 19.2433 83.8201 19.2443 83.5659C19.2536 82.1835 19.2474 80.8012 19.2567 79.4188C19.2588 79.1306 19.1866 78.8208 19.4452 78.5295C19.8223 78.4873 20.2365 78.442 20.6795 78.3926C20.8495 77.4075 20.7423 76.4544 20.766 75.5085C20.7907 74.5615 20.733 73.6115 20.8144 72.612C21.277 72.5657 21.6881 72.5235 22.1507 72.4771C22.2609 71.8225 22.2073 71.2008 22.2156 70.5843C22.2249 69.9265 22.2094 69.2678 22.2187 68.609C22.2279 67.9904 22.1703 67.3666 22.2815 66.6966C22.7338 66.6482 23.148 66.6039 23.6188 66.5535C23.6569 66.3322 23.7239 66.1171 23.728 65.8999C23.7414 65.0445 23.7311 64.1881 23.7373 63.3328C23.7393 63.0096 23.7641 62.6854 23.7805 62.3066C24.2328 62.2469 24.6418 62.1933 25.0879 62.1347C25.1539 61.655 25.2147 61.2134 25.2785 60.7482C25.5588 60.7266 25.7844 60.7132 26.009 60.6906C26.1996 60.672 26.3891 60.6432 26.623 60.6134C26.6714 60.1965 26.7147 59.8126 26.7611 59.4122C27.1258 59.1312 27.6048 59.3648 28.0571 59.1219C28.1138 58.7225 28.1756 58.284 28.2436 57.7951C29.176 57.6387 30.1022 57.8198 31.0304 57.6603C31.0902 57.2084 31.1448 56.7987 31.1994 56.3839C32.1472 56.1565 33.0878 56.458 34.0068 56.1657C34.0553 55.7334 34.1016 55.3165 34.1521 54.8688C34.6188 54.6846 35.0814 54.7916 35.5306 54.77C35.987 54.7484 36.4444 54.7525 36.9647 54.7443C37.0265 54.2862 37.0811 53.8786 37.1419 53.4226C37.3953 53.3917 37.6148 53.3454 37.8353 53.3423C38.6924 53.331 39.5496 53.3382 40.4068 53.329C40.7292 53.3259 41.0507 53.295 41.3371 53.2796C41.6874 52.8215 41.3999 52.3007 41.6884 51.8468C42.5569 51.715 43.4821 51.8972 44.4289 51.7274C44.4742 51.2961 44.5144 50.9121 44.5597 50.4757C44.7864 50.4397 45.0048 50.382 45.2242 50.3748C45.7177 50.3584 46.2133 50.379 46.7078 50.3615C46.9283 50.3543 47.1477 50.2925 47.4011 50.2503C47.4516 49.7933 47.498 49.3785 47.5505 48.9153C47.9874 48.87 48.3995 48.8268 48.8445 48.7815C48.9002 48.3255 48.9507 47.9138 49.0032 47.4804C49.4617 47.4238 49.8769 47.3724 50.3343 47.3157C50.3724 47.0584 50.4342 46.8392 50.4342 46.6189C50.4404 43.6566 50.4404 40.6942 50.4342 37.7319C50.4342 37.4787 50.3786 37.2255 50.3466 36.9547C49.8686 36.9105 49.4514 36.8714 49.0022 36.8292C48.8044 35.8925 49.0238 34.963 48.8507 33.9975C48.4345 33.9399 48.0275 33.8843 47.5722 33.8215C47.3909 32.434 47.5299 31.0537 47.4352 29.6302C47.2013 29.5674 46.9932 29.4737 46.7799 29.4614C46.3194 29.4336 45.8568 29.4552 45.3963 29.4418C45.1397 29.4346 44.8842 29.3965 44.5783 29.3687C44.5257 28.9179 44.4783 28.5062 44.4258 28.0574C44.0374 28.0008 43.6871 27.9493 43.2894 27.8917C43.2358 27.7198 43.1308 27.5407 43.1308 27.3606C43.1277 25.3864 43.138 23.4111 43.1534 21.4369C43.1544 21.2805 43.2173 21.125 43.2595 20.9336C43.6294 20.8595 43.9756 20.7895 44.296 20.7257C44.5958 20.3891 44.4979 20.0093 44.4989 19.6593C44.5072 16.9605 44.5041 14.2616 44.5041 11.5628V10.5211C44.943 10.1897 45.4138 10.4429 45.8496 10.2298C46.1381 9.3477 45.7692 8.37295 46.0474 7.42187C46.4853 7.38172 46.9025 7.34364 47.3816 7.29938C47.4372 6.87325 47.4898 6.46358 47.5485 6.01583C47.9853 5.9551 48.3953 5.89746 48.8394 5.8357C48.8909 5.37766 48.9362 4.96285 48.9898 4.48628C49.4503 4.43173 49.8902 4.38026 50.3745 4.32262C50.4146 3.89443 50.4497 3.50947 50.4909 3.06584C50.9153 3.00511 51.3244 2.94644 51.79 2.87954C51.8457 2.41841 51.8992 1.97683 51.959 1.48585C52.2887 1.46836 52.5761 1.44056 52.8646 1.43851C54.2163 1.43027 55.568 1.43336 56.9197 1.4241C57.1762 1.42204 57.4327 1.38086 57.7274 1.3541C57.7768 0.930028 57.8222 0.548155 57.8706 0.141579C58.3229 -0.0848686 58.7906 0.0335017 59.2377 0.0129156C59.6982 -0.00767056 60.1608 0.00879835 60.6224 0.00879835H61.9473C62.3646 0.400964 62.0998 0.900178 62.3481 1.30367C62.9229 1.49923 63.5545 1.40145 64.1706 1.43439C64.7949 1.46836 65.4234 1.43439 66.0487 1.44571C66.6689 1.45703 67.2923 1.39836 67.9485 1.49512C68.0268 1.97272 68.1 2.41326 68.1783 2.89292C68.6378 2.94335 69.0529 2.98967 69.5207 3.04114C69.5835 3.43536 69.6443 3.81415 69.7103 4.23102C70.6045 4.48114 71.5348 4.31748 72.4682 4.45746C72.5136 4.91859 72.5538 5.33546 72.5919 5.72763C72.9689 6.0848 73.4604 5.80483 73.8962 6.0673C73.925 6.24125 73.9879 6.46049 73.991 6.67974C74.0033 7.53509 73.992 8.39147 74.0002 9.24683C74.0033 9.57209 73.9497 9.90764 74.1609 10.27C74.5411 10.3019 74.9573 10.3369 75.4251 10.376C75.4539 10.6168 75.5023 10.8381 75.5023 11.0584C75.5034 16.4561 75.5003 21.8548 75.4951 27.2525C75.4951 27.4759 75.4611 27.6992 75.4395 27.9617C75.0161 28.0173 74.6349 28.0677 74.2042 28.1243C73.8385 30.0203 74.1063 31.9307 73.9353 33.8627C73.4676 33.91 73.0555 33.9523 72.6011 33.9986C72.4384 34.9466 72.6156 35.8709 72.4754 36.8333C72.0335 36.8724 71.6193 36.9095 71.1887 36.9475C70.9146 37.6042 71.064 38.2681 71.0372 38.9135C71.0104 39.5702 71.0115 40.231 71.0352 40.8877C71.0589 41.5341 70.9167 42.196 71.1763 42.865C71.5791 42.8969 71.9686 42.9278 72.3786 42.9597C72.6825 43.3529 72.4013 43.8665 72.631 44.2824C72.9803 44.5963 73.4707 44.3194 73.9075 44.5881C73.9652 44.9566 74.0301 45.3673 74.1012 45.8171C74.5432 45.8582 74.9584 45.8974 75.4312 45.9416C75.4735 46.3853 75.5126 46.8011 75.5508 47.1953C75.9237 47.5648 76.4141 47.2869 76.8664 47.5391C76.9261 47.8922 76.9962 48.3008 77.0704 48.7341C77.5247 48.9287 77.9904 48.8226 78.4396 48.8401C78.9331 48.8597 79.4286 48.8432 79.9232 48.8453C80.3796 48.8474 80.8349 48.8546 81.3439 48.8597C81.4057 49.3579 81.4593 49.7984 81.5159 50.2565C82.2381 50.4675 82.9315 50.346 83.6146 50.3697C84.3017 50.3934 84.9899 50.3872 85.672 50.3944C85.9656 50.8123 85.7771 51.2899 86.0047 51.7284C86.8753 51.9342 87.8056 51.6965 88.7648 51.8776C88.8317 52.3007 88.8977 52.7114 88.9708 53.1735C89.1625 53.2157 89.3448 53.2857 89.5303 53.2909C90.4194 53.3145 91.3095 53.3176 92.1996 53.3341C92.5231 53.3403 92.8466 53.3609 93.2227 53.3773C93.2752 53.8364 93.3226 54.245 93.3741 54.701C94.3158 54.8637 95.241 54.6876 96.2053 54.8214C96.2588 55.2527 96.3093 55.6655 96.366 56.1307C97.2551 56.4231 98.1937 56.1812 99.1549 56.3767C99.2033 56.7812 99.2517 57.1899 99.3074 57.6592C99.7092 57.6984 100.093 57.7354 100.478 57.7735C100.734 57.9567 100.691 58.2357 100.699 58.493C100.73 59.4461 100.75 60.4003 100.784 61.3534C100.792 61.5778 100.839 61.8012 100.874 62.0667C101.284 62.1316 101.668 62.1933 102.046 62.253C102.344 62.6401 102.09 63.1105 102.291 63.5242C102.638 63.8094 103.115 63.5304 103.563 63.7754C103.593 63.9473 103.659 64.1655 103.662 64.3837C103.675 65.272 103.664 66.1613 103.669 67.0496C103.672 67.3738 103.633 67.7084 103.842 68.0697C104.226 68.118 104.639 68.1695 105.095 68.2261C105.298 69.6394 105.032 71.0557 105.257 72.4782C105.683 72.5173 106.067 72.5523 106.465 72.5883C106.713 72.9167 106.638 73.2893 106.639 73.6392C106.645 75.844 106.639 78.0498 106.643 80.2546C106.643 80.6128 106.595 80.9803 106.784 81.3662C107.184 81.4054 107.599 81.4455 108.073 81.4918C108.095 81.8109 108.133 82.0971 108.134 82.3842C108.139 84.1618 108.136 85.9395 108.138 87.716C108.138 88.0413 108.151 88.3666 108.157 88.6342C108.566 89.0366 109.059 88.7618 109.461 88.9944C109.681 89.294 109.598 89.6686 109.599 90.0196C109.607 92.1585 109.602 94.2985 109.605 96.4384C109.605 96.8285 109.568 97.2258 109.707 97.6046C110.097 97.9 110.569 97.6787 110.965 97.8578C111.171 98.111 111.096 98.4198 111.098 98.707C111.106 100.485 111.101 102.262 111.106 104.039C111.106 104.361 111.137 104.682 111.155 105.054C111.593 105.096 111.977 105.133 112.381 105.171C112.693 105.489 112.576 105.905 112.577 106.283C112.584 108.455 112.572 110.627 112.572 112.799C112.572 113.156 112.601 113.514 112.615 113.847C113.054 114.146 113.518 113.918 113.987 114.12C114.011 114.328 114.064 114.578 114.065 114.828C114.072 116.671 114.067 118.514 114.074 120.357C114.075 120.679 114.003 121.015 114.227 121.381C114.572 121.426 114.955 121.477 115.348 121.53C115.634 121.827 115.533 122.208 115.535 122.557C115.544 124.664 115.537 126.77 115.537 128.877C115.537 129.173 115.534 129.47 115.554 129.765C115.566 129.923 115.627 130.077 115.674 130.267C116.109 130.321 116.522 130.374 116.939 130.426C117.1 130.809 117.037 131.174 117.037 131.53C117.041 134.195 117.035 136.861 117.038 139.528C117.038 139.882 116.981 140.248 117.155 140.617C117.554 140.652 117.939 140.687 118.308 140.719C118.592 141.015 118.508 141.359 118.51 141.677C118.516 142.994 118.506 144.31 118.505 145.627C118.504 148.49 118.503 151.354 118.507 154.217C118.507 154.608 118.456 155.008 118.646 155.428C119.052 155.465 119.468 155.504 119.84 155.538C119.902 155.607 119.929 155.629 119.945 155.658C119.961 155.685 119.973 155.718 119.973 155.749C119.984 160.389 119.993 165.029 120 169.669C120 169.798 119.971 169.926 119.95 170.112C119.726 170.143 119.509 170.197 119.291 170.199C117.907 170.207 116.522 170.201 115.137 170.206C114.815 170.207 114.481 170.157 114.134 170.323C114.095 170.71 114.055 171.093 114.011 171.528C113.778 171.569 113.561 171.635 113.343 171.639C112.485 171.653 111.628 171.643 110.771 171.65C110.446 171.653 110.123 171.679 109.859 171.691C109.438 172.126 109.743 172.663 109.443 173.108C109.095 173.14 108.708 173.176 108.27 173.216C108.226 173.395 108.15 173.575 108.144 173.757C108.125 174.283 108.14 174.81 108.131 175.337C108.128 175.56 108.103 175.785 108.084 176.057C107.143 176.225 106.218 176.04 105.257 176.184C105.201 176.617 105.148 177.025 105.09 177.476C104.181 177.717 103.24 177.44 102.37 177.671C102.249 178.088 102.227 178.566 102.305 179.103C102.695 179.151 103.104 179.203 103.528 179.255C103.718 179.612 103.663 179.979 103.664 180.332C103.669 182.636 103.665 184.94 103.666 187.244C103.667 190.074 103.672 192.905 103.672 195.736C103.672 196.062 103.651 196.388 103.639 196.765C103.377 196.803 103.158 196.858 102.94 196.863C102.252 196.879 101.563 196.876 100.816 196.881C100.743 197.343 100.677 197.754 100.608 198.192C99.7226 198.46 98.8159 198.18 97.9608 198.383C97.5745 198.765 97.8568 199.296 97.6033 199.742C96.741 199.968 95.8055 199.687 94.8824 199.916C94.8443 200.12 94.7887 200.31 94.7784 200.5C94.7598 200.829 94.7681 201.158 94.7681 201.487C94.7681 212.81 94.766 224.133 94.7722 235.456C94.7722 235.939 94.6723 236.444 94.9515 236.949C95.3203 236.991 95.7077 237.037 96.1435 237.087C96.1795 237.273 96.2434 237.457 96.2475 237.642C96.264 238.431 96.2671 239.222 96.2671 240.011C96.2702 245.015 96.2712 250.017 96.2702 255.021C96.2702 255.344 96.2475 255.668 96.2352 255.982C95.8076 256.252 95.3419 255.999 94.8907 256.231C94.8577 256.404 94.7949 256.619 94.7784 256.837C94.7567 257.132 94.7681 257.429 94.7681 257.726C94.7681 261.708 94.7712 265.691 94.7681 269.674C94.7681 270.062 94.8113 270.458 94.6506 270.888C94.2602 270.93 93.8769 270.971 93.506 271.01C93.2742 271.729 93.2124 274.154 93.3896 275.333C93.7327 275.67 94.2241 275.394 94.6104 275.616C94.8278 275.856 94.7639 276.166 94.765 276.453C94.7722 277.736 94.7423 279.021 94.7753 280.303C94.7959 281.085 94.9061 281.863 94.9803 282.685C95.412 282.757 95.788 282.821 96.1908 282.888C96.3207 283.303 96.2568 283.684 96.2382 284.126C95.787 284.191 95.3749 284.251 94.9113 284.318C94.5816 285.196 94.9216 286.143 94.6671 287.081C94.256 287.149 93.847 287.217 93.3958 287.291C93.1588 288.211 93.4226 289.143 93.2237 290.07C92.7931 290.154 92.3861 290.234 91.9977 290.31C91.7402 291.522 91.7257 293.85 91.973 294.675C92.3459 294.704 92.7354 294.736 93.1877 294.772C93.2237 294.987 93.2886 295.202 93.2917 295.418C93.3041 296.306 93.2938 297.195 93.3 298.084C93.302 298.406 93.3278 298.728 93.3463 299.109C93.8089 299.178 94.2169 299.239 94.6815 299.308C94.8464 300.271 94.7413 301.222 94.7578 302.165C94.765 302.583 94.8175 303.014 94.6362 303.462C94.2313 303.495 93.846 303.526 93.4782 303.555C93.1444 303.94 93.4308 304.424 93.164 304.867C92.96 304.893 92.7076 304.947 92.4552 304.953C88.8245 305.046 86.9289 305.003 86.1005 304.806C86.0624 304.444 86.0223 304.061 85.979 303.641C85.0724 303.348 84.139 303.634 83.2014 303.451C82.9408 303.066 83.1994 302.552 82.9356 302.121C82.0692 301.819 81.1224 302.137 80.1776 301.889C80.1354 301.491 80.0952 301.109 80.055 300.72C79.644 300.395 79.135 300.666 78.657 300.446C78.6168 300.058 78.5735 299.642 78.5323 299.239C78.1573 298.892 77.671 299.144 77.2229 298.899C77.1744 298.54 77.1188 298.13 77.0539 297.658C76.1329 297.487 75.2087 297.67 74.2526 297.533C74.2248 297.321 74.1795 297.135 74.1774 296.947C74.1692 296.059 74.1754 295.17 74.1712 294.281C74.1692 293.957 74.1537 293.632 74.1424 293.249C73.6427 293.172 73.1987 293.104 72.7371 293.033C72.5465 292.296 72.6856 291.572 72.6547 290.857C72.6248 290.176 72.7042 289.487 72.5847 288.759C72.1499 288.721 71.7646 288.688 71.3298 288.65C71.2927 288.509 71.2175 288.358 71.2175 288.208C71.2103 286.102 71.2134 283.995 71.2175 281.889C71.2175 281.794 71.2546 281.699 71.2886 281.533C71.6801 281.476 72.0901 281.416 72.5589 281.348C72.6197 280.896 72.6784 280.456 72.7433 279.979C73.1997 279.934 73.6159 279.892 74.0219 279.851C74.2526 279.454 74.1671 279.051 74.1682 278.665C74.1754 274.88 74.1723 271.094 74.1723 267.31C74.1723 266.125 74.1445 264.939 74.1816 263.755C74.2114 262.794 74.0703 261.863 73.8302 260.86C73.6139 260.809 73.3646 260.757 73.1183 260.693C72.7835 260.607 72.6887 260.496 72.664 260.144C72.6485 259.915 72.6547 259.684 72.6547 259.454C72.6547 257.709 72.6568 255.964 72.6516 254.221C72.6506 253.9 72.6166 253.579 72.595 253.21C72.1509 253.171 71.7656 253.137 71.3824 253.103C71.1341 252.856 71.2155 252.543 71.2144 252.259C71.2062 249.758 71.2072 247.256 71.2072 244.754C71.2072 242.023 71.2103 239.291 71.2031 236.559C71.2031 236.205 71.2742 235.835 71.063 235.436C70.6715 235.4 70.2542 235.363 69.7886 235.321C69.7546 235.095 69.6958 234.875 69.6938 234.654C69.6824 233.798 69.6917 232.942 69.6866 232.087C69.6845 231.76 69.667 231.435 69.6567 231.139C69.2642 230.763 68.7789 231.003 68.3318 230.779C68.305 230.609 68.2432 230.391 68.2401 230.172C68.2298 229.284 68.2421 228.395 68.2349 227.506C68.2329 227.216 68.1989 226.927 68.1752 226.579C67.692 226.527 67.249 226.481 66.7462 226.428C66.6597 225.447 66.7431 224.497 66.7215 223.55C66.6999 222.602 66.7524 221.65 66.6772 220.643C66.2229 220.591 65.8138 220.545 65.3399 220.491C65.3173 220.19 65.2771 219.904 65.276 219.618C65.2699 217.873 65.274 216.128 65.2709 214.385C65.2709 214.027 65.2523 213.67 65.2441 213.381C64.8042 212.954 64.2623 213.267 63.8646 212.985C63.6781 212.65 63.7575 212.281 63.7564 211.926C63.7492 209.787 63.7544 207.647 63.7523 205.507C63.7523 205.149 63.7358 204.789 63.7276 204.482C63.3278 204.083 62.8354 204.341 62.3903 204.095C62.3398 203.734 62.2832 203.325 62.2213 202.88C61.7145 202.743 61.2436 202.749 60.7254 202.876C60.6852 203.29 60.6481 203.673 60.6049 204.124C60.1845 204.188 59.7735 204.25 59.3088 204.32C59.2604 204.536 59.1903 204.75 59.1697 204.969C59.145 205.23 59.1605 205.494 59.1605 205.758C59.1605 211.749 59.1625 217.739 59.1605 223.73C59.1605 224.121 59.1419 224.511 59.1306 224.957C58.6989 225.042 58.3208 225.116 57.8974 225.2C57.8541 225.378 57.7789 225.56 57.7706 225.745C57.7346 226.599 57.6965 227.454 57.6954 228.309C57.6903 235.682 57.6934 243.055 57.6913 250.428C57.6913 250.784 57.6697 251.139 57.6573 251.529C57.1834 251.6 56.7723 251.662 56.3932 251.72C56.1171 252.079 56.1975 252.454 56.1964 252.807C56.1882 255.044 56.1902 257.283 56.1902 259.521C56.1902 261.002 56.1851 262.483 56.1944 263.964C56.1964 264.316 56.1243 264.689 56.3747 265.048C56.7445 265.08 57.1329 265.113 57.5718 265.151C57.6099 265.339 57.6738 265.523 57.68 265.707C57.6965 266.233 57.6831 266.76 57.6954 267.287C57.7006 267.509 57.7408 267.732 57.7696 267.992C58.1961 268.034 58.5794 268.072 59.0059 268.114C59.3748 269.017 58.9668 270.005 59.2903 270.959C59.7044 270.994 60.1217 271.029 60.5544 271.066C60.7326 271.43 60.6636 271.797 60.6646 272.149C60.6698 273.861 60.6626 275.573 60.6626 277.283C60.6626 277.61 60.676 277.936 60.6821 278.211C61.0839 278.617 61.5713 278.348 61.9998 278.566C62.2574 278.946 62.1276 279.418 62.1307 279.865C62.1338 280.285 62.1801 280.716 62.0143 281.164C61.5888 281.232 61.1777 281.299 60.7295 281.371C60.6863 281.825 60.6461 282.24 60.6008 282.714C60.1619 282.751 59.7467 282.786 59.3232 282.822C59.0719 283.313 59.1934 283.813 59.1615 284.295C59.1316 284.745 59.2326 285.209 59.0368 285.686C58.6299 285.72 58.2435 285.753 57.8675 285.784C57.5986 286.122 57.6996 286.499 57.6985 286.849C57.6913 290.042 57.6985 293.235 57.6965 296.427C57.6965 296.781 57.6707 297.135 57.6553 297.526C56.6889 297.671 55.7658 297.504 54.8066 297.642C54.7613 298.062 54.7201 298.443 54.6747 298.86C54.2987 299.132 53.8938 299.034 53.4323 298.943C53.3941 298.733 53.3581 298.546 53.3251 298.359C53.2921 298.168 53.2633 297.978 53.2355 297.806C52.3165 297.547 49.882 297.497 48.8631 297.718C48.827 298.084 48.7879 298.467 48.7456 298.891C47.8411 299.254 46.851 298.832 45.8867 299.174C45.8475 299.583 45.8084 299.998 45.7661 300.439C45.3066 300.624 44.842 300.517 44.3918 300.54C43.9354 300.562 43.4779 300.556 43.0514 300.561C42.7032 300.98 42.9896 301.464 42.7228 301.9C42.3591 301.954 41.947 302.014 41.5689 302.069C41.1805 302.472 41.4906 303.013 41.2093 303.398C40.4212 303.535 29.2522 303.557 28.223 303.414C28.1787 303.017 28.1323 302.603 28.0901 302.216C27.8263 301.941 27.5162 302.002 27.2288 301.994C26.3067 301.967 25.3846 301.952 24.4626 301.928C24.2998 301.924 24.137 301.896 23.9093 301.873C23.864 301.663 23.8135 301.45 23.7754 301.235C23.7414 301.048 23.7208 300.858 23.6868 300.615C23.2314 300.575 22.8131 300.538 22.3701 300.498C22.1198 300.147 22.2197 299.765 22.2815 299.315C22.7256 299.25 23.1644 299.186 23.6518 299.114C23.7002 298.66 23.7445 298.243 23.7888 297.827C24.1741 297.541 24.646 297.807 25.1013 297.567C25.1487 297.204 25.2013 296.794 25.261 296.336C25.6947 296.281 26.1079 296.229 26.4983 296.18C26.8651 295.766 26.5622 295.243 26.8394 294.779C27.6976 294.624 28.6248 294.823 29.5757 294.651C29.6077 294.438 29.6416 294.252 29.6623 294.064C29.6839 293.869 29.6921 293.672 29.7096 293.425C29.892 293.381 30.0723 293.308 30.2557 293.298C30.7821 293.272 31.3107 293.281 31.8371 293.257C32.0586 293.247 32.277 293.187 32.5222 293.145C32.582 292.69 32.6366 292.276 32.6974 291.816C33.1435 291.778 33.5566 291.742 34.0037 291.704C34.0604 291.242 34.1109 290.83 34.1645 290.4C34.626 290.343 35.0402 290.292 35.4997 290.235C35.7346 289.305 35.4801 288.371 35.6727 287.447C36.1188 287.385 36.5299 287.327 36.9688 287.267C37.0203 286.805 37.0667 286.389 37.1203 285.912C37.5581 285.866 37.9712 285.823 38.4266 285.775C38.7532 284.864 38.4132 283.891 38.6605 282.924C39.0643 282.892 39.4507 282.861 39.8638 282.828C40.0894 282.357 40.0338 281.888 39.9112 281.376C39.7072 281.337 39.5187 281.294 39.3281 281.266C39.1334 281.237 38.9376 281.224 38.747 281.204C38.4101 280.835 38.6862 280.349 38.44 279.916C37.59 279.653 36.6566 279.928 35.6903 279.746C35.6614 279.504 35.6068 279.255 35.6048 279.004C35.5955 277.655 35.6048 276.306 35.5965 274.956C35.5945 274.635 35.6697 274.296 35.4296 273.942C35.0505 273.909 34.6322 273.873 34.1912 273.834C33.9739 273.146 34.1099 272.453 34.0862 271.772C34.0625 271.085 33.9821 270.408 33.8997 269.696C33.5082 269.618 33.16 269.548 32.7602 269.468C32.72 269.298 32.651 269.117 32.6397 268.933C32.618 268.605 32.6304 268.275 32.6304 267.946C32.6304 258.071 32.6325 248.196 32.6325 238.322C32.6325 237.897 32.6211 237.472 32.616 237.104C32.1946 236.654 31.6558 236.961 31.2447 236.712C31.0387 236.466 31.1139 236.158 31.1128 235.871C31.1077 234.193 31.1139 232.514 31.1139 230.835C31.1139 224.383 31.1149 217.933 31.1098 211.481C31.1098 211.093 31.1819 210.692 30.9861 210.258C30.5988 210.199 30.1877 210.138 29.7982 210.079C29.5901 209.736 29.6633 209.4 29.6623 209.078C29.6571 207.333 29.6674 205.588 29.6623 203.845C29.6612 203.523 29.7364 203.184 29.4933 202.839C29.1111 202.805 28.6938 202.768 28.293 202.732C28.0633 202.37 28.1519 201.998 28.1509 201.644C28.1426 198.945 28.1509 196.246 28.1426 193.547C28.1406 192.857 28.1014 192.166 28.0705 191.476C28.0654 191.352 28.0159 191.228 27.9768 191.057C27.578 191.008 27.1979 190.961 26.8054 190.912C26.6354 190.506 26.6982 190.107 26.6982 189.72C26.6951 184.651 26.6982 179.583 26.6972 174.513C26.6972 174.122 26.6817 173.732 26.6725 173.339C26.1687 173.043 25.6659 173.174 25.1889 173.165C24.6995 173.156 24.2019 173.091 23.6888 173.244C23.6497 173.396 23.5745 173.552 23.5745 173.707C23.5704 175.879 23.5745 178.051 23.5858 180.223C23.5858 180.345 23.66 180.468 23.7084 180.622C24.1319 180.678 24.544 180.732 25.0117 180.794C25.091 181.644 25.0478 182.456 25.0436 183.372L25.0457 183.377ZM19.0795 177.693C19.13 177.557 19.2175 177.414 19.232 177.264C19.3329 176.205 19.2536 173.851 19.097 173.212C18.892 173.197 18.6695 173.165 18.4469 173.167C18.2223 173.169 17.9977 173.204 17.7536 173.226C17.7093 173.411 17.6402 173.567 17.6392 173.724C17.6341 174.905 17.6392 176.085 17.6516 177.265C17.6526 177.387 17.7227 177.51 17.7618 177.634C18.1945 177.818 18.6138 177.76 19.0785 177.692H19.0795V177.693Z" fill="#6C3617"/>
</svg>
