<svg width="166" height="302" viewBox="0 0 166 302" fill="none" xmlns="http://www.w3.org/2000/svg">
<path d="M2.86639 144.963C3.79971 144.788 4.62421 144.99 5.48219 144.788C5.60496 144.008 5.52404 143.228 5.54357 142.453C5.5631 141.674 5.51149 140.892 5.58124 140.096C6.47968 139.813 7.39486 140.133 8.28772 139.853C8.41885 138.283 8.25981 136.72 8.38398 135.151C9.28381 134.953 10.1474 135.177 10.9956 134.974C11.1504 134.175 11.0556 133.393 11.0751 132.616C11.0946 131.837 11.0584 131.057 11.1002 130.267C12.0042 130.019 12.8678 130.265 13.7523 130.07C13.79 129.892 13.8611 129.71 13.8639 129.528C13.8751 128.48 13.8709 127.432 13.8709 126.385C13.8709 126.061 13.8709 125.738 13.8709 125.491C14.1694 125.17 14.4833 125.261 14.7651 125.243C15.3455 125.203 15.9412 125.321 16.5327 125.131C16.721 124.391 16.5076 123.631 16.6862 122.857C17.5386 122.672 18.3951 122.868 19.2866 122.715C19.3243 122.507 19.394 122.292 19.3968 122.075C19.4094 120.995 19.3982 119.914 19.4066 118.834C19.408 118.548 19.4456 118.262 19.4694 117.939C20.3441 117.775 21.1979 117.956 22.0796 117.801C22.2442 116.216 22.0559 114.652 22.2051 113.039C23.0617 112.874 23.9141 113.034 24.8084 112.914C24.8516 112.698 24.9186 112.485 24.9311 112.271C24.9618 111.722 24.8977 111.17 24.9995 110.588C25.8714 110.406 26.7308 110.604 27.5539 110.442C27.7492 110.065 27.6697 109.701 27.6711 109.352C27.6795 106.045 27.6753 102.739 27.6781 99.4324C27.6781 99.0782 27.6976 98.7228 27.7088 98.334C28.6044 98.1011 29.5015 98.3364 30.4111 98.1482C30.5199 97.3395 30.4473 96.5581 30.4697 95.7804C30.492 95.0014 30.4125 94.2188 30.5366 93.3953C31.3862 93.207 32.2442 93.4151 33.1133 93.2516C33.2863 92.7315 33.1901 92.2089 33.2054 91.6974C33.2222 91.1736 33.2096 90.6497 33.2096 90.1259V88.5148C33.5193 88.4727 33.7593 88.4244 34.0034 88.4107C34.6214 88.3748 35.2478 88.4665 35.9203 88.3302C36.1128 87.5885 35.9007 86.8269 36.0709 86.0516C36.9094 85.8448 37.7688 86.0541 38.6379 85.8906C38.8695 85.1488 38.6407 84.3909 38.8081 83.5996C39.0397 83.5662 39.2796 83.5142 39.5224 83.4993C40.1418 83.4634 40.7696 83.5525 41.4211 83.425C41.6694 82.6881 41.4253 81.9241 41.6081 81.1352C42.4298 80.9395 43.2891 81.1402 44.1555 80.9841C44.1946 80.8566 44.2601 80.7389 44.2601 80.6213C44.2671 78.4603 44.2671 76.3005 44.2643 74.1396C44.2643 74.017 44.2155 73.8944 44.1764 73.7136C42.3949 73.6108 40.6343 73.7284 38.8346 73.6417C38.6393 72.8578 38.8248 72.1012 38.6853 71.3123C37.8441 71.1216 36.9861 71.3074 36.124 71.1649C35.8254 70.4033 36.1784 69.5947 35.8687 68.7872C35.0246 68.7711 34.1904 68.755 33.3254 68.7377C33.1315 68.173 33.2305 67.6504 33.2152 67.1377C33.1998 66.6139 33.211 66.09 33.211 65.5662V63.9848C32.3363 63.7074 31.4741 63.9637 30.5868 63.778C30.552 63.581 30.4822 63.3668 30.4794 63.1526C30.4669 62.0727 30.4766 60.9916 30.4683 59.9117C30.4655 59.6244 30.4292 59.3371 30.4055 59.0139C29.5112 58.8987 28.6784 58.9247 27.8608 58.9866C27.5762 59.2999 27.6837 59.6405 27.6823 59.9551C27.6739 62.6399 27.6767 65.3235 27.6767 68.0083C27.6767 70.3327 27.6767 72.6572 27.6767 74.9817V76.0095C27.3823 76.0566 27.1452 76.1222 26.9038 76.1284C26.3165 76.1445 25.7277 76.1334 25.0748 76.1334C25.0232 76.3922 24.9479 76.604 24.9437 76.8182C24.9297 77.768 24.9367 78.7166 24.9367 79.6665C24.9367 79.8956 24.9409 80.1247 24.9353 80.3538C24.9144 81.1092 24.853 81.1612 23.9602 81.1835C23.6658 81.1909 23.37 81.181 23.0757 81.1922C22.8971 81.1996 22.7199 81.2355 22.4925 81.264C22.4381 81.4671 22.3614 81.6491 22.346 81.8349C22.1954 83.5947 22.0907 85.3569 22.1438 87.1228C22.1549 87.5092 22.1284 87.8956 22.1172 88.3043C21.6276 88.4541 21.1853 88.3959 20.7542 88.3996C20.3566 88.4046 19.9576 88.3798 19.641 88.3699C19.5363 88.2881 19.5001 88.2708 19.4819 88.2448C19.4638 88.2188 19.454 88.1829 19.4526 88.1507C19.4387 85.1724 19.4247 82.1953 19.4136 79.2169C19.4136 79.056 19.447 78.8937 19.4694 78.7018C20.2897 78.4355 21.1532 78.7005 22.0349 78.5086C22.0698 78.3464 22.1312 78.1656 22.1424 77.981C22.1605 77.6541 22.1493 77.3259 22.1493 76.999C22.1493 64.0343 22.1493 51.0709 22.1535 38.1062C22.1535 37.7223 22.0684 37.3247 22.2721 36.9371C23.0994 36.7229 23.9643 36.9619 24.8544 36.7576C24.8837 36.4987 24.9367 36.2498 24.9381 35.9997C24.9451 34.1991 24.9423 32.3984 24.9437 30.5978C24.9437 30.2734 24.9437 29.9489 24.9437 29.6121C25.8268 29.3322 26.689 29.5898 27.5623 29.4065C27.8427 28.7031 27.5567 27.9378 27.766 27.1452C27.9822 27.1093 28.2208 27.0461 28.4607 27.0337C29.0787 27.004 29.7037 27.0647 30.3636 26.9693C30.6189 26.204 30.3525 25.4387 30.5422 24.7179C30.8324 24.4839 31.1811 24.5693 31.5006 24.5681C34.3773 24.5607 37.254 24.5644 40.1307 24.5644C40.5338 24.5644 40.937 24.5644 41.4016 24.5644C41.4532 24.3018 41.5174 24.0901 41.5341 23.8746C41.5746 23.3285 41.4839 22.7737 41.6039 22.2325C41.7629 22.1867 41.8634 22.1334 41.9638 22.1322C46.2411 22.126 50.5199 22.1248 54.7972 22.1272C54.9368 22.1272 55.0763 22.1718 55.2618 22.204C55.4529 22.9483 55.2353 23.7087 55.4153 24.4826C56.0096 24.6288 56.5983 24.547 57.1759 24.5607C57.766 24.5743 58.3561 24.5631 58.9462 24.5631H60.7529C60.997 25.352 60.778 26.1111 60.9273 26.9025C61.1589 26.9421 61.396 27.0028 61.6374 27.0201C62.2568 27.0634 62.886 26.9582 63.5319 27.1105C63.8332 27.8387 63.5263 28.6077 63.7481 29.3706C64.5531 29.6096 65.4139 29.3706 66.2844 29.5328C66.5579 30.2573 66.2844 31.0213 66.4825 31.8164C66.6904 31.8523 66.9276 31.9278 67.1675 31.9303C68.3478 31.9427 69.528 31.934 70.7082 31.939C71.071 31.9402 71.4323 31.9625 71.8215 31.9761C72.0712 32.7514 71.8313 33.5142 72.0085 34.2994C72.8623 34.5136 73.7621 34.2622 74.6522 34.4715C74.6787 34.7155 74.7205 34.9371 74.7261 35.16C74.8754 41.8622 74.7973 57.8597 74.6033 58.8578C74.2057 58.9965 73.7621 58.9235 73.331 58.9359C72.9278 58.947 72.5247 58.9383 72.194 58.9383C71.8704 58.6708 71.9457 58.3947 71.9443 58.1421C71.9373 56.3092 71.9443 54.4752 71.9387 52.6424C71.9387 52.3241 71.908 52.0046 71.8899 51.6591C70.9831 51.5315 70.1572 51.5538 69.2755 51.6343C69.0816 53.2393 69.3132 54.8058 69.136 56.3774C68.271 56.6238 67.4047 56.3687 66.5313 56.5693C66.2802 57.3235 66.4393 58.1061 66.4128 58.8752C66.3863 59.6578 66.4072 60.4417 66.4072 61.2628C66.6653 61.3148 66.8704 61.3916 67.0754 61.3928C70.3204 61.4003 73.5668 61.399 76.8118 61.3953C76.9903 61.3953 77.1689 61.3532 77.4005 61.3235C77.427 61.0461 77.4689 60.7934 77.4703 60.5408C77.4758 58.7402 77.4716 56.9396 77.4758 55.139C77.4758 54.817 77.4995 54.495 77.5135 54.1235C78.398 53.8981 79.2992 54.152 80.1921 53.9402C80.3692 53.1922 80.167 52.4318 80.3386 51.6628C81.191 51.4696 82.0531 51.6863 82.9139 51.4993C83.1315 50.7575 82.8944 49.9972 83.0757 49.2145C83.2822 49.1823 83.4901 49.1241 83.6965 49.1229C84.8768 49.113 86.057 49.1179 87.2373 49.1167C87.6042 49.1167 87.9711 49.1167 88.4036 49.1167C88.4524 48.8653 88.518 48.6535 88.5291 48.4393C88.5584 47.8907 88.5012 47.3384 88.5905 46.7353C90.4041 46.5681 92.1689 46.7662 93.9616 46.6102C94.1946 45.856 93.9644 45.0969 94.1346 44.308C94.3718 44.2746 94.6131 44.225 94.8573 44.2114C95.4753 44.1755 96.1031 44.2659 96.7504 44.1371C96.9903 43.3941 96.7546 42.6312 96.9332 41.8411C97.7646 41.6541 98.624 41.8535 99.4973 41.6925C99.754 40.9594 99.4973 40.1978 99.6871 39.4102C99.9103 39.378 100.152 39.326 100.394 39.3111C101.012 39.2715 101.639 39.3718 102.303 39.2244C102.505 38.4839 102.292 37.7223 102.462 36.9371C103.293 36.7402 104.151 36.9347 105.022 36.786C105.274 36.0443 105.014 35.2839 105.209 34.4901C105.422 34.4579 105.661 34.4034 105.904 34.3898C106.524 34.3526 107.152 34.4418 107.801 34.3179C108.069 33.586 107.804 32.8195 107.998 32.0467C108.832 31.7644 109.751 32.1099 110.646 31.8003V29.6158C110.905 29.5613 111.106 29.4882 111.311 29.482C111.971 29.4622 112.631 29.4684 113.303 29.4634C113.611 28.6857 113.337 27.9192 113.524 27.1439C114.355 26.8517 115.273 27.1922 116.12 26.9136C116.307 26.1718 116.081 25.4102 116.279 24.6399C117.131 24.4542 117.989 24.6647 118.849 24.5C119.164 23.7842 118.849 23.0139 119.057 22.2882C119.281 22.0455 119.596 22.1359 119.878 22.1173C120.46 22.0789 121.054 22.1941 121.702 21.991C121.72 21.2566 121.738 20.5161 121.757 19.7421C122.653 19.5452 123.51 19.7409 124.402 19.5885C124.44 19.3817 124.507 19.1662 124.514 18.9508C124.531 18.4294 124.52 17.908 124.52 17.3297C124.81 17.2827 125.05 17.2133 125.29 17.2108C126.47 17.1984 127.65 17.2084 128.831 17.2009C129.192 17.1984 129.552 17.17 129.941 17.1514C130.195 16.3675 129.926 15.6022 130.134 14.8406C130.95 14.6152 131.81 14.8381 132.706 14.6734C132.903 13.9489 132.706 13.1923 132.853 12.4009C133.699 12.1533 134.605 12.4146 135.484 12.2065C135.726 11.456 135.453 10.6907 135.675 9.91177C135.913 9.88452 136.16 9.83499 136.407 9.83251C137.55 9.82384 138.694 9.8288 139.838 9.82756C140.203 9.82756 140.569 9.82756 140.992 9.82756C141.04 9.55635 141.106 9.34087 141.111 9.12291C141.128 8.60155 141.117 8.08019 141.117 7.61579C141.445 7.30124 141.796 7.38545 142.113 7.38422C144.142 7.37555 146.17 7.38422 148.199 7.37555C148.561 7.37431 148.938 7.44242 149.319 7.24428C149.504 6.53592 149.284 5.77555 149.467 4.99413C150.333 4.79598 151.231 5.03623 152.109 4.83314C152.328 4.10372 152.099 3.37431 152.282 2.60899C152.505 2.57308 152.745 2.50496 152.986 2.50125C154.203 2.48144 155.42 2.48144 156.637 2.46534C156.958 2.46162 157.279 2.42447 157.614 2.40218C157.84 1.60837 157.59 0.845524 157.793 0.130974C158.63 -0.02754 162.031 -0.0473543 163.139 0.100014C163.326 0.824471 163.247 1.56379 163.189 2.32788C162.331 2.63623 161.416 2.31549 160.528 2.57308C160.502 2.80094 160.454 3.02261 160.456 3.24304C160.459 3.75945 160.406 4.28081 160.514 4.83685C161.378 5.02385 162.236 4.82075 163.125 4.97927C163.335 5.73344 163.26 6.49258 163.162 7.28638C162.289 7.49443 161.424 7.26285 160.565 7.46347C160.326 8.19536 160.509 8.93716 160.459 9.72106C160.731 9.76316 160.939 9.82013 161.145 9.82136C162.325 9.83003 163.505 9.82632 164.686 9.82756C165.053 9.82756 165.418 9.82756 165.834 9.82756C166.109 10.6288 165.966 11.3966 165.937 12.1433C165.519 12.365 165.103 12.2845 164.705 12.2858C160.98 12.292 157.255 12.2882 153.531 12.2895C153.132 12.2895 152.733 12.3105 152.29 12.3217C152.048 13.0969 152.296 13.861 152.099 14.6548C151.815 14.6833 151.536 14.7328 151.257 14.7341C149.192 14.7415 147.126 14.7353 145.061 14.7402C144.701 14.7402 144.341 14.7687 143.942 14.7861C143.744 15.5737 143.963 16.3353 143.783 17.0858C142.961 17.3396 142.094 17.082 141.23 17.2752C140.965 18.0207 141.248 18.8244 141.033 19.5762C140.141 19.7446 139.284 19.5526 138.412 19.7223C138.252 20.2511 138.341 20.7737 138.327 21.2876C138.312 21.8114 138.327 22.3353 138.324 22.8591C138.323 23.378 138.319 23.8981 138.314 24.4616C137.434 24.6672 136.579 24.4752 135.706 24.6152C135.438 25.347 135.7 26.1111 135.509 26.9037C135.288 26.9409 135.048 27.0003 134.806 27.0176C134.185 27.061 133.554 26.9545 132.908 27.1105C132.638 27.835 132.917 28.6015 132.714 29.3805C131.905 29.591 131.049 29.3805 130.177 29.5254C129.896 30.2573 130.177 31.0238 129.965 31.8176C129.758 31.8535 129.52 31.9155 129.278 31.9316C128.658 31.9749 128.027 31.8684 127.354 32.0306C127.325 32.2436 127.269 32.4628 127.267 32.6833C127.255 33.6975 127.261 34.713 127.26 35.7272C127.26 36.0517 127.26 36.3749 127.26 36.7031C126.372 36.9879 125.506 36.7291 124.645 36.9136C124.342 37.6517 124.669 38.4603 124.402 39.2665C123.535 39.2839 122.7 39.3 121.836 39.3161C121.6 40.1099 121.833 40.8715 121.661 41.6306C120.846 41.9055 119.979 41.6306 119.118 41.83C118.789 42.552 119.164 43.3656 118.877 44.1173C118.423 44.2572 117.979 44.1854 117.544 44.2003C117.145 44.2139 116.746 44.2151 116.312 44.2226C116.068 45.0089 116.294 45.7693 116.134 46.5371C115.32 46.817 114.454 46.5433 113.641 46.7216C113.392 46.9322 113.471 47.2058 113.455 47.4597C113.422 47.9749 113.525 48.5 113.359 49.0374C112.504 49.2182 111.647 49.0151 110.778 49.1774C110.519 49.908 110.775 50.6709 110.588 51.4622C110.365 51.4969 110.127 51.56 109.885 51.5674C109.298 51.5835 108.709 51.5724 108.055 51.5724C108.005 51.8325 107.94 52.0442 107.926 52.2597C107.892 52.8083 107.966 53.3631 107.857 53.9352C106.982 54.1359 106.124 53.9229 105.255 54.0851C104.961 54.8281 105.277 55.6306 105.034 56.4021C104.195 56.5978 103.332 56.3786 102.472 56.5643C102.275 57.3198 102.497 58.0814 102.31 58.8467C101.459 59.0486 100.602 58.8417 99.7094 58.9965C99.6731 59.2009 99.6173 59.4151 99.5992 59.6318C99.5559 60.1804 99.6661 60.7365 99.5127 61.2975C98.6742 61.5278 97.8079 61.2715 96.9359 61.4845C96.7378 62.2201 96.9625 62.9817 96.7797 63.7544C95.9357 63.9662 95.0777 63.7445 94.1806 63.9129C94.1458 64.1024 94.0718 64.3167 94.0704 64.5309C94.0579 65.6108 94.0676 66.6919 94.0621 67.7718C94.0607 68.0591 94.03 68.3476 94.009 68.6894C93.1455 68.8454 92.2917 68.6745 91.4114 68.812C91.2328 69.9092 91.3486 70.9829 91.3277 72.0504C91.3068 73.0981 91.3235 74.1458 91.3235 75.1934C91.3235 76.2411 91.3235 77.3482 91.3235 78.4392C92.2038 78.7228 93.0674 78.4603 93.9518 78.6498C93.9867 78.8095 94.0551 78.9916 94.0593 79.1736C94.0746 79.7284 94.0648 80.2832 94.0648 80.895C94.3467 80.9457 94.581 81.0089 94.821 81.0262C95.4404 81.0708 96.0696 80.9668 96.735 81.1191C96.7741 81.3074 96.8453 81.4919 96.8467 81.6764C96.8578 82.7241 96.8508 83.7717 96.855 84.8194C96.8564 85.1426 96.876 85.4671 96.8885 85.8126C97.7423 86.1061 98.6115 85.8225 99.4931 86.038C99.5238 86.2299 99.5866 86.4467 99.588 86.6634C99.5992 87.6776 99.5936 88.6931 99.5936 89.7073C99.5936 90.033 99.5936 90.3575 99.5936 90.62C99.8852 90.9135 100.196 90.8417 100.481 90.8578C101.064 90.8888 101.657 90.7909 102.289 90.9594C102.321 91.1761 102.378 91.3953 102.381 91.6145C102.391 92.6287 102.384 93.6442 102.388 94.6584C102.389 94.9816 102.409 95.3049 102.421 95.6392C103.289 95.9228 104.158 95.6429 104.977 95.8423C105.233 96.1742 105.12 96.5457 105.121 96.895C105.135 100.201 105.135 103.508 105.142 106.814C105.142 107.17 105.16 107.524 105.171 107.914C106.038 108.151 106.897 107.928 107.79 108.094C107.83 108.293 107.893 108.505 107.911 108.719C107.957 109.269 107.841 109.829 108.006 110.393C108.829 110.653 109.7 110.365 110.562 110.593C110.788 111.315 110.546 112.078 110.725 112.85C111.551 113.082 112.409 112.858 113.306 113.014C113.348 113.211 113.43 113.422 113.433 113.634C113.45 114.682 113.443 115.73 113.451 116.777C113.454 117.098 113.479 117.419 113.496 117.783C114.372 117.962 115.227 117.769 116.098 117.922C116.314 118.673 116.085 119.434 116.252 120.19C117.089 120.499 118.006 120.167 118.868 120.426C119.15 121.153 118.829 121.925 119.086 122.703C119.901 122.876 120.757 122.676 121.628 122.834C121.848 123.582 121.619 124.343 121.783 125.1C122.62 125.409 123.536 125.078 124.377 125.328C124.606 125.71 124.486 126.11 124.511 126.494C124.534 126.847 124.535 127.202 124.546 127.593C125.428 127.793 126.286 127.582 127.158 127.747C127.334 128.265 127.235 128.787 127.25 129.299C127.267 129.822 127.254 130.346 127.254 130.87C127.254 131.39 127.254 131.91 127.254 132.483C127.562 132.525 127.804 132.574 128.046 132.588C128.664 132.624 129.291 132.535 129.938 132.661C130.189 133.409 129.919 134.177 130.127 134.937C130.944 135.203 131.812 134.932 132.689 135.138C132.72 135.339 132.779 135.559 132.781 135.778C132.791 136.792 132.787 137.808 132.787 138.822C132.787 139.146 132.787 139.472 132.787 139.805C133.68 140.146 134.598 139.805 135.46 140.065C135.752 140.79 135.424 141.562 135.683 142.348C136.49 142.513 137.346 142.323 138.217 142.471C138.401 142.992 138.298 143.515 138.314 144.027C138.331 144.551 138.319 145.074 138.319 145.598V147.213C138.621 147.257 138.863 147.307 139.105 147.321C139.723 147.357 140.351 147.268 141.003 147.394C141.213 148.182 141.082 148.967 141.107 149.742C141.132 150.523 141.123 151.306 141.128 152.11C141.999 152.37 142.86 152.131 143.744 152.297C143.779 152.511 143.843 152.726 143.846 152.942C143.857 154.055 143.847 155.169 143.854 156.281C143.856 156.535 143.892 156.788 143.916 157.07C144.8 157.243 145.657 157.061 146.536 157.201C146.573 157.432 146.636 157.652 146.637 157.871C146.649 158.885 146.643 159.9 146.643 160.915C146.643 161.24 146.643 161.565 146.643 161.931C146.905 161.978 147.11 162.043 147.317 162.048C147.94 162.061 148.565 162.053 149.253 162.053C149.302 162.31 149.375 162.525 149.376 162.739C149.389 163.819 149.379 164.9 149.384 165.98C149.386 166.267 149.416 166.554 149.436 166.884C150.311 167.073 151.167 166.87 152.057 167.03C152.095 167.237 152.165 167.452 152.168 167.669C152.18 168.749 152.169 169.83 152.177 170.91C152.179 171.196 152.216 171.482 152.242 171.806C153.116 171.969 153.97 171.789 154.849 171.943C155.019 173.528 154.829 175.093 154.976 176.686C155.832 176.894 156.69 176.691 157.583 176.842C157.624 177.047 157.699 177.261 157.702 177.476C157.716 178.523 157.706 179.571 157.713 180.619C157.714 180.938 157.742 181.259 157.76 181.619C158.639 181.793 159.495 181.604 160.355 181.757C160.5 182.16 160.435 182.553 160.446 182.936C160.456 183.292 160.449 183.65 160.449 184.013C159.567 184.308 158.699 184.034 157.816 184.238C157.783 184.435 157.719 184.652 157.716 184.87C157.703 185.884 157.709 186.9 157.709 187.914C157.709 188.238 157.709 188.564 157.709 188.939C157.406 188.988 157.165 189.057 156.921 189.06C155.74 189.072 154.56 189.062 153.38 189.068C153.021 189.071 152.661 189.1 152.267 189.12C152.063 189.904 152.285 190.666 152.098 191.429C151.245 191.628 150.39 191.422 149.514 191.575C149.256 192.331 149.435 193.095 149.404 193.866C150.313 194.11 151.181 193.858 152.048 194.063C152.301 194.828 152.145 195.612 152.169 196.382C152.194 197.162 152.165 197.945 152.158 198.738C151.264 199.058 150.348 198.738 149.468 198.994C149.263 199.728 149.497 200.491 149.302 201.282C147.533 201.43 145.77 201.253 143.969 201.386C143.719 202.13 143.955 202.891 143.811 203.607C143.528 203.877 143.178 203.795 142.862 203.796C140.944 203.805 139.027 203.8 137.109 203.801C135.154 203.801 133.2 203.799 131.245 203.804C130.887 203.804 130.528 203.837 130.132 203.858C129.944 204.645 130.159 205.406 129.965 206.183C129.648 206.208 129.365 206.247 129.08 206.247C127.052 206.252 125.023 206.25 122.995 206.25C122.631 206.25 122.267 206.25 121.876 206.25C121.551 207.053 121.875 207.856 121.639 208.598C121.183 208.776 120.735 208.688 120.3 208.709C119.903 208.728 119.507 208.738 119.076 208.752C118.871 209.544 119.09 210.305 118.916 211.032C118.538 211.229 118.162 211.155 117.805 211.156C114.928 211.162 112.052 211.159 109.175 211.161C108.812 211.161 108.448 211.182 108.037 211.195C107.777 211.956 108.031 212.719 107.841 213.508C107.614 213.544 107.371 213.613 107.128 213.616C105.948 213.628 104.768 213.618 103.588 213.624C103.229 213.627 102.871 213.656 102.474 213.676C102.274 214.46 102.494 215.222 102.306 215.983C101.453 216.185 100.595 215.975 99.7903 216.118C99.5155 216.34 99.5978 216.619 99.5964 216.87C99.5894 218.703 99.5936 220.537 99.5908 222.37C99.5908 222.689 99.5671 223.009 99.5531 223.338C98.6687 223.571 97.8023 223.325 96.9652 223.524C96.7853 223.886 96.8578 224.25 96.8564 224.6C96.8481 227.121 96.8536 229.642 96.8494 232.163C96.8494 232.484 96.8229 232.803 96.809 233.141C95.9315 233.398 95.0637 233.146 94.2713 233.322C93.977 233.544 94.0662 233.822 94.0662 234.072C94.0579 235.84 94.0621 237.608 94.0621 239.377C94.0621 239.736 94.0621 240.094 94.0621 240.497C93.8151 240.544 93.6101 240.611 93.405 240.616C92.7814 240.631 92.1564 240.621 91.4672 240.621C91.4142 240.874 91.3319 241.085 91.3291 241.298C91.3151 242.346 91.3263 243.394 91.3193 244.442C91.3179 244.762 91.2886 245.084 91.2705 245.44C90.3958 245.651 89.5378 245.44 88.6617 245.594C88.6212 245.731 88.5403 245.882 88.5389 246.032C88.5319 248.978 88.5333 251.924 88.5361 254.871C88.5361 254.995 88.5794 255.119 88.6087 255.28C89.4638 255.463 90.3218 255.263 91.2077 255.42C91.244 255.633 91.3123 255.85 91.3137 256.069C91.3249 257.149 91.3137 258.23 91.3235 259.31C91.3263 259.596 91.3653 259.881 91.3919 260.231C92.2805 260.257 93.1106 260.281 93.9714 260.305C94.1709 261.103 93.9546 261.863 94.1304 262.611C94.9772 262.91 95.8994 262.555 96.7616 262.853C96.982 263.588 96.7183 264.355 96.9583 265.144C97.8093 265.168 98.6407 265.192 99.5071 265.217C99.6954 266.014 99.4959 266.772 99.6466 267.515C100.509 267.819 101.43 267.468 102.254 267.748C102.412 268.47 102.445 271.197 102.308 272.43C102.091 272.468 101.852 272.529 101.609 272.546C100.989 272.588 100.358 272.484 99.7094 272.636C99.436 273.359 99.715 274.126 99.5127 274.911C99.2769 274.939 99.0328 274.993 98.7872 274.995C97.6447 275.004 96.5007 275 95.3581 275C94.9912 275 94.6243 275 94.3271 275C93.9909 275.253 94.0648 275.53 94.0635 275.783C94.0579 277.615 94.0607 279.45 94.0593 281.282C94.0593 281.607 94.0495 281.93 94.0439 282.257C93.1762 282.554 92.3042 282.277 91.4518 282.484C91.2007 283.217 91.4853 283.987 91.251 284.739C90.3958 284.929 89.5392 284.73 88.6421 284.881C88.6059 285.084 88.5487 285.298 88.5305 285.514C88.4873 286.063 88.5975 286.62 88.4454 287.18C87.6098 287.412 86.7434 287.165 85.8715 287.362C85.6664 288.102 85.8952 288.865 85.711 289.639C84.8712 289.851 84.0146 289.63 83.1273 289.795C83.0869 289.952 83.0046 290.132 83.0018 290.314C82.9878 291.394 82.9962 292.475 82.9892 293.555C82.9878 293.876 82.9613 294.196 82.9446 294.57C82.0754 294.73 81.2216 294.555 80.3539 294.695C80.1809 295.232 80.273 295.754 80.2576 296.267C80.2423 296.791 80.2576 297.315 80.2521 297.838C80.2479 298.357 80.2381 298.876 80.2311 299.328C79.9284 299.629 79.6145 299.546 79.3341 299.547C77.2694 299.555 75.2032 299.55 73.1385 299.555C72.7786 299.555 72.4186 299.583 72.0182 299.599C71.8146 300.384 72.0378 301.146 71.862 301.884C71.7504 301.923 71.6499 301.987 71.5495 301.987C70.0009 301.997 68.4524 302.002 66.9038 301.999C66.7643 301.999 66.6248 301.939 66.4728 301.903C66.297 301.151 66.4979 300.392 66.3235 299.596C64.5322 299.485 62.7716 299.609 60.9914 299.524C60.9426 299.355 60.8784 299.234 60.8784 299.114C60.8743 296.134 60.8757 293.156 60.8784 290.176C60.8784 290.082 60.9161 289.987 60.9468 289.843C61.7741 289.583 62.6795 289.866 63.5682 289.65C63.7844 288.915 63.5431 288.15 63.7356 287.376C64.5671 287.168 65.4278 287.384 66.2942 287.214C66.523 286.474 66.2956 285.715 66.463 284.923C66.6946 284.89 66.9345 284.837 67.1773 284.822C67.7953 284.784 68.4231 284.876 69.0676 284.747C69.3201 284.007 69.0718 283.241 69.2601 282.451C70.0874 282.264 70.9468 282.465 71.8369 282.299C71.8676 282.107 71.9206 281.925 71.922 281.742C71.9317 280.694 71.9262 279.646 71.9304 278.599C71.9317 278.277 71.9527 277.954 71.9666 277.575C72.8399 277.323 73.7454 277.586 74.6396 277.37C74.6689 277.161 74.7163 276.974 74.7163 276.787C74.7205 272.269 74.7205 267.752 74.7205 263.234C74.7205 261.795 74.7233 260.356 74.7205 258.918C74.7205 258.598 74.6926 258.277 74.6773 257.946C73.7719 257.666 72.8609 257.946 71.9987 257.727C71.8662 256.87 71.9485 256.054 71.9331 255.242C71.9178 254.423 71.9289 253.604 71.9289 252.786C71.9289 251.967 71.9289 251.214 71.9289 250.429C71.9289 249.611 71.9289 248.792 71.9289 247.973V240.705C71.9289 239.887 71.9359 239.068 71.9276 238.25C71.9178 237.44 71.9736 236.627 71.8801 235.795C70.9956 235.606 70.1391 235.81 69.302 235.651C69.1346 235.272 69.1932 234.911 69.1932 234.559C69.189 230.434 69.1904 226.309 69.189 222.184C69.189 221.83 69.1667 221.474 69.1527 221.099C68.7202 220.922 68.3115 220.983 67.9195 220.981C64.1583 220.977 60.3957 220.98 56.6346 220.977C56.2384 220.977 55.8324 221.025 55.3734 220.879C55.3483 220.126 55.3232 219.388 55.2967 218.631C54.4094 218.406 53.5444 218.648 52.7479 218.454C52.5121 218.127 52.6 217.791 52.6 217.473C52.5916 214.952 52.6 212.432 52.5902 209.91C52.5902 209.557 52.6711 209.191 52.4702 208.818C51.6471 208.533 50.7264 208.887 49.874 208.59C49.6968 207.846 49.9144 207.086 49.7191 206.31C48.8709 206.157 48.0171 206.33 47.2386 206.2C47.1689 206.087 47.1061 206.033 47.1047 205.978C47.088 188.236 47.074 170.492 47.0684 152.75C47.0684 151.84 47.1424 150.928 47.1842 149.99C48.0115 149.685 48.8988 150.026 49.7247 149.731C49.8809 148.775 49.7805 147.829 49.7986 146.887C49.8168 145.939 49.8028 144.989 49.8028 144.039C49.8028 143.089 49.8028 142.141 49.8028 141.191V138.44C49.8028 137.491 49.8028 136.542 49.8028 135.592V132.699C50.1042 132.656 50.3441 132.604 50.5869 132.59C51.2063 132.553 51.8327 132.645 52.4856 132.515C52.6976 131.731 52.5679 130.946 52.5888 130.17C52.6111 129.389 52.593 128.605 52.593 127.81C53.4775 127.534 54.341 127.788 55.2074 127.607C55.2437 127.503 55.319 127.384 55.319 127.265C55.3274 125.104 55.3274 122.944 55.3232 120.783C55.3232 120.66 55.2688 120.537 55.2339 120.393C54.3843 120.206 53.5221 120.416 52.6823 120.24C52.5135 119.424 52.6167 118.639 52.5944 117.86C52.5721 117.081 52.6237 116.3 52.5595 115.536C51.6248 115.24 50.7068 115.577 49.807 115.257V108.158C49.5461 108.11 49.341 108.044 49.136 108.039C48.5124 108.024 47.8888 108.034 47.3391 108.034C46.9805 107.787 47.0824 107.505 47.0629 107.255C47.0224 106.74 47.141 106.214 46.9513 105.676C46.1016 105.517 45.2674 105.565 44.3829 105.643C44.341 105.845 44.2727 106.029 44.2713 106.214C44.2601 107.262 44.2657 108.309 44.2643 109.357C44.2643 109.681 44.2643 110.006 44.2643 110.345C43.391 110.648 42.5232 110.372 41.6374 110.569C41.6039 110.761 41.5341 110.978 41.5327 111.195C41.5202 112.209 41.5257 113.224 41.5257 114.239C41.5257 114.564 41.5257 114.889 41.5257 115.27C41.2328 115.32 40.9928 115.385 40.7515 115.396C40.1293 115.425 39.5029 115.37 38.8332 115.453C38.7969 115.709 38.7425 115.928 38.7384 116.148C38.723 117.196 38.7244 118.244 38.7118 119.291C38.7091 119.58 38.677 119.868 38.6574 120.177C37.7981 120.432 36.9247 120.154 36.0975 120.387C35.8421 121.124 36.1295 121.893 35.9021 122.671C35.4892 122.826 35.0456 122.743 34.6173 122.762C34.1848 122.782 33.7425 122.72 33.2612 122.847C33.1022 124.428 33.2961 125.993 33.144 127.6C32.2902 127.761 31.4392 127.603 30.5687 127.721C30.3301 128.479 30.5687 129.24 30.3901 129.998C29.5614 130.329 28.6407 129.978 27.7646 130.245C27.5832 131.02 27.6976 131.804 27.6739 132.58C27.6502 133.361 27.6837 134.143 27.653 134.918C26.7629 135.195 25.8924 134.915 25.0176 135.138C24.8 135.858 25.0441 136.622 24.853 137.395C24.4317 137.561 23.9867 137.474 23.5584 137.496C23.1259 137.517 22.6837 137.452 22.2135 137.576C22.0266 138.335 22.2414 139.096 22.0642 139.847C21.2439 140.1 20.3762 139.84 19.4987 140.04C19.4666 140.257 19.4066 140.475 19.4038 140.694C19.3926 141.709 19.3996 142.724 19.3954 143.738C19.394 144.061 19.3773 144.385 19.3661 144.723C18.483 145.039 17.5679 144.719 16.6876 144.974C16.4853 145.709 16.7182 146.471 16.5243 147.257C15.6859 147.405 14.8321 147.237 13.9713 147.369C13.7244 148.127 13.9922 148.892 13.7872 149.648C12.9515 149.948 12.0363 149.627 11.1546 149.882C10.9482 150.616 11.1853 151.378 10.9914 152.164C10.1557 152.315 9.30195 152.144 8.41048 152.284C8.38258 152.596 8.33515 152.88 8.33375 153.162C8.32678 155.192 8.33096 157.222 8.33096 159.252C8.33096 163.05 8.33096 166.847 8.32957 170.645C8.32957 171 8.31004 171.356 8.29888 171.769C7.4102 171.991 6.51456 171.763 5.63146 171.941C5.48777 172.343 5.55334 172.735 5.54218 173.119C5.53241 173.476 5.53939 173.832 5.53939 174.212C4.63537 174.408 3.80389 174.335 3.0059 174.288C2.71433 173.995 2.8078 173.687 2.80641 173.405C2.79664 171.604 2.80641 169.804 2.79664 168.003C2.79524 167.685 2.88872 167.347 2.60272 166.983C1.82147 166.968 0.987208 166.952 0.155734 166.936C-0.0674808 166.538 0.0148296 166.173 0.0148296 165.822C0.00785413 161.271 0.0106443 156.722 0.0106443 152.17C0.0106443 151.614 0.00785413 151.057 0.0134345 150.501C0.0148296 150.309 0.0413363 150.117 0.0580774 149.893C0.936984 149.624 1.84937 149.928 2.74363 149.665C2.90127 148.099 2.70038 146.537 2.8636 144.951L2.86639 144.963Z" fill="#DB821A"/>
<path d="M16.6839 110.412C16.5067 109.642 16.7174 108.884 16.522 108.087C15.6669 108.06 14.8382 108.034 13.9774 108.006C13.9355 107.834 13.8811 107.711 13.8811 107.59C13.877 104.52 13.877 101.448 13.877 98.3389C14.1378 98.2943 14.3443 98.2336 14.5522 98.2299C15.1744 98.2163 15.798 98.225 16.483 98.225C16.5304 97.9624 16.6002 97.7494 16.603 97.5339C16.6141 96.4553 16.6058 95.3767 16.6113 94.298C16.6127 94.0107 16.6434 93.7234 16.6629 93.4039C17.1317 93.2627 17.5739 93.3246 18.005 93.3135C18.4068 93.3036 18.81 93.311 19.2676 93.311C19.3164 93.581 19.3876 93.7965 19.3904 94.012C19.4029 95.0584 19.3931 96.1036 19.4001 97.15C19.4015 97.4695 19.4308 97.7878 19.4489 98.1469C20.3292 98.3166 21.183 98.1321 21.9838 98.272C22.1694 98.9977 22.2098 101.795 22.0564 103.03C21.2486 103.223 20.4185 103.11 19.6191 103.103C19.308 102.832 19.4266 102.522 19.4001 102.241C19.3569 101.759 19.4866 101.265 19.2718 100.765C18.4291 100.627 17.5949 100.656 16.7439 100.744C16.4969 101.266 16.6295 101.793 16.6099 102.305C16.589 102.86 16.596 103.416 16.6085 103.972C16.6197 104.486 16.5444 105.008 16.6853 105.539C17.4958 105.799 18.3301 105.536 19.1602 105.746C19.4866 106.484 19.2606 107.276 19.3527 108.04C19.4448 108.812 19.4573 109.595 19.3178 110.411C18.418 110.552 17.56 110.556 16.6825 110.408L16.6839 110.412Z" fill="#DB821A"/>
</svg>
